# Blender 4.4.1
# www.blender.org
o Appartments_Small_1
v 0.005236 0.480311 0.379877
v 0.005236 0.480311 0.387016
v 0.005236 0.047597 0.379877
v 0.205138 0.480311 0.379877
v 0.205138 0.480311 0.387016
v 0.205138 0.047597 0.379877
v 0.205138 0.047597 0.387016
v 0.223881 0.024666 0.387016
v 0.005236 0.047597 0.387016
v -0.005238 0.047597 0.387016
v 0.005236 0.024666 0.387016
v 0.005236 0.024666 0.380858
v -0.005238 0.024666 0.387016
v -0.005238 0.024666 0.380858
v -0.223882 0.024666 0.387016
v -0.223882 0.503242 0.387016
v -0.205139 0.047597 0.387016
v -0.223882 0.024666 0.380858
v -0.223882 0.503242 0.380858
v -0.476074 0.000000 0.380858
v -0.476074 -0.000000 -0.571288
v -0.476074 0.738176 0.380858
v 0.000000 0.000000 0.380858
v 0.476072 0.000000 0.380858
v 0.476072 -0.000000 -0.571288
v 0.476072 0.738176 0.380858
v 0.223881 0.024666 0.380858
v 0.223881 0.503242 0.380858
v 0.223881 0.503242 0.387016
v 0.005236 0.503242 0.380858
v 0.005236 0.503242 0.387016
v -0.005238 0.503242 0.380858
v 0.000000 0.738176 0.380858
v 0.000000 0.736016 0.405506
v -0.500721 0.823810 0.405506
v -0.500721 0.736016 0.405506
v 0.500721 0.736016 0.405506
v 0.500721 0.736016 -0.595936
v 0.500721 0.823810 0.405506
v 0.500721 0.823810 -0.595936
v 0.476072 0.821649 0.380858
v 0.000000 0.878575 0.380858
v 0.476072 0.880634 0.225191
v 0.476072 0.821649 -0.571288
v 0.476072 1.438057 0.380858
v 0.423642 0.878575 0.380858
v -0.476074 0.821649 0.380858
v -0.476074 0.821649 -0.571288
v -0.476074 1.438057 0.380858
v -0.423644 0.878576 0.380858
v -0.423644 1.381131 0.380858
v -0.423644 0.878576 0.390270
v -0.423644 1.381131 0.390270
v 0.000000 0.878575 0.390270
v -0.397582 0.900142 0.390270
v -0.192136 0.900142 0.390270
v -0.214900 0.900142 0.390270
v -0.214830 1.359564 0.390270
v -0.214900 0.900142 0.375974
v -0.397582 0.900142 0.375974
v -0.214830 1.359564 0.375974
v -0.397582 1.359564 0.375974
v -0.397582 1.359564 0.390270
v -0.192207 1.359564 0.390270
v -0.192207 1.359564 0.375974
v -0.010187 1.359564 0.390270
v 0.010185 1.359564 0.390270
v -0.010227 0.900142 0.390270
v 0.000000 1.381131 0.390270
v -0.010187 1.359564 0.375974
v -0.010227 0.900142 0.375974
v -0.192136 0.900142 0.375974
v 0.000000 1.381131 0.380858
v 0.423642 1.381131 0.390270
v 0.423642 1.381131 0.380858
v 0.397580 1.359564 0.390270
v 0.192015 1.359564 0.390270
v 0.215019 1.359564 0.390270
v 0.423642 0.878575 0.390270
v 0.191899 0.900142 0.390270
v 0.397580 0.900142 0.390270
v 0.215134 0.900142 0.390270
v 0.215134 0.900142 0.375974
v 0.397580 0.900142 0.375974
v 0.215019 1.359564 0.375974
v 0.397580 1.359564 0.375974
v 0.191899 0.900142 0.375974
v 0.010225 0.900142 0.390270
v 0.010225 0.900142 0.375974
v 0.010185 1.359564 0.375974
v 0.192015 1.359564 0.375974
v -0.476074 1.438057 -0.571288
v -0.513409 1.433283 0.418192
v -0.513409 1.564600 0.418192
v 0.513407 1.433283 0.418192
v -0.513409 1.433283 -0.608622
v -0.513409 1.564600 -0.608622
v 0.513407 1.433283 -0.608622
v 0.476072 1.438057 -0.571288
v 0.513407 1.564600 -0.608622
v 0.476072 1.559825 -0.571288
v 0.513407 1.564600 0.418192
v 0.476072 1.559825 0.380858
v -0.476074 1.559825 0.380858
v 0.476072 1.459822 0.380858
v -0.476074 1.459822 0.380858
v 0.476072 1.459822 -0.571288
v -0.476074 1.459822 -0.571288
v -0.476074 1.559825 -0.571288
v 0.476072 1.379072 -0.495342
v 0.476072 1.379072 0.225191
v 0.448891 1.379072 -0.495342
v 0.476072 0.880634 -0.495342
v 0.448891 0.880634 -0.495342
v 0.448891 0.880634 0.225191
v 0.448891 1.379072 0.225191
v -0.500721 0.823810 -0.595936
v -0.500721 0.736016 -0.595936
v -0.476074 0.738176 -0.571288
v 0.476072 0.738176 -0.571288
v -0.005238 0.503242 0.387016
v -0.005238 0.480311 0.387016
v -0.005238 0.480311 0.379877
v -0.205139 0.480311 0.387016
v -0.205139 0.480311 0.379877
v -0.205139 0.047597 0.379877
v -0.005238 0.047597 0.379877
v 0.316769 0.595625 0.371623
v -0.316769 0.595625 0.371623
v 0.316769 0.595625 0.621791
v 0.316769 0.612580 0.371623
v 0.316769 0.612580 0.621791
v -0.316769 0.612580 0.371623
v -0.316769 0.612580 0.621791
v -0.316769 0.595625 0.621791
v 0.316767 0.742969 0.356584
v 0.310402 0.618785 0.622900
v 0.312460 0.741352 0.355830
v 0.321075 0.741352 0.355830
v 0.322859 0.737448 0.354010
v 0.314711 0.617167 0.622146
v 0.310402 0.613263 0.620325
v 0.316494 0.613263 0.620325
v 0.314711 0.609359 0.618505
v 0.310402 0.607742 0.617751
v 0.321075 0.733544 0.352189
v 0.316767 0.731927 0.351435
v 0.312460 0.733544 0.352189
v 0.310675 0.737448 0.354010
v 0.306095 0.609359 0.618505
v 0.304312 0.613263 0.620325
v 0.306095 0.617167 0.622146
v -0.311071 0.742969 0.356584
v -0.311071 0.618785 0.622900
v -0.315378 0.741352 0.355830
v -0.306764 0.741352 0.355830
v -0.306764 0.617167 0.622146
v -0.304979 0.737448 0.354010
v -0.306764 0.733544 0.352189
v -0.304979 0.613263 0.620325
v -0.306764 0.609359 0.618505
v -0.311071 0.607742 0.617751
v -0.311071 0.613263 0.620325
v -0.315378 0.609359 0.618505
v -0.315378 0.617167 0.622146
v -0.317163 0.613263 0.620325
v -0.317163 0.737448 0.354010
v -0.315378 0.733544 0.352189
v -0.311071 0.731927 0.351435
vn -0.0000 -1.0000 -0.0000
vn 1.0000 -0.0000 -0.0000
vn -0.0000 -0.0000 1.0000
vn -1.0000 -0.0000 -0.0000
vn -0.0000 1.0000 -0.0000
vn -0.0000 -0.9962 -0.0873
vn -0.0873 -0.9962 -0.0000
vn -0.0873 0.9962 -0.0000
vn -0.0000 0.9962 -0.0873
vn 0.0873 0.9962 -0.0000
vn -1.0000 0.0002 -0.0000
vn 1.0000 0.0002 -0.0000
vn -1.0000 0.0001 -0.0000
vn -1.0000 0.0003 -0.0000
vn 1.0000 0.0001 -0.0000
vn 0.1268 -0.9919 -0.0000
vn -0.0000 -0.9919 -0.1268
vn -0.0000 -0.9919 0.1268
vn -0.0000 -0.0000 -1.0000
vn -0.1268 -0.9919 -0.0000
vn -0.0000 0.9919 0.1269
vn -0.1269 0.9919 -0.0000
vn -0.0000 0.9919 -0.1269
vn 0.1269 0.9919 -0.0000
vn -0.0000 0.9962 0.0873
vn 0.0873 -0.9962 -0.0000
vn -0.0000 -0.9962 0.0873
vn 0.3827 0.8338 0.3979
vn -0.3828 0.8407 0.3829
vn 0.9238 0.3382 0.1798
vn -0.0000 -0.4226 0.9063
vn 0.9238 -0.3551 -0.1435
vn -0.0000 -0.4225 0.9063
vn 0.3826 -0.8408 -0.3829
vn -0.3827 -0.8338 -0.3979
vn -0.9237 -0.3383 -0.1798
vn -0.9237 0.3552 0.1436
vn 0.3827 0.8373 0.3904
vn -0.3828 0.8373 0.3904
vn 0.9239 0.3468 0.1617
vn 0.9239 -0.3468 -0.1617
vn 0.3827 -0.8373 -0.3905
vn -0.9240 0.3466 0.1617
vn -0.9239 0.3467 0.1617
vn -0.9239 -0.3467 -0.1616
vn -0.3827 -0.8373 -0.3904
vt 0.588373 0.647350
vt 0.594822 0.656479
vt 0.594790 0.656863
vt 0.587989 0.647266
vt 0.610345 0.633249
vt 0.610287 0.633648
vt 0.616113 0.643705
vt 0.616507 0.643819
vt 0.611463 0.632526
vt 0.618290 0.644090
vt 0.594244 0.658411
vt 0.587679 0.646789
vt 0.610022 0.632734
vt 0.611119 0.631993
vt 0.611763 0.632340
vt 0.618626 0.644201
vt 0.611411 0.631788
vt 0.603770 0.620746
vt 0.603727 0.621099
vt 0.603194 0.622757
vt 0.581656 0.636428
vt 0.579920 0.636233
vt 0.579597 0.636120
vt 0.559405 0.630918
vt 0.596570 0.607698
vt 0.612786 0.631291
vt 0.529769 0.582363
vt 0.567246 0.559464
vt 0.627412 0.656531
vt 0.537783 0.511089
vt 0.500270 0.533951
vt 0.470785 0.485557
vt 0.508302 0.462698
vt 0.594211 0.658746
vt 0.590030 0.677905
vt 0.574797 0.655764
vt 0.586560 0.648257
vt 0.586864 0.648047
vt 0.586222 0.647730
vt 0.586525 0.647532
vt 0.558475 0.634407
vt 0.573664 0.656767
vt 0.557669 0.635443
vt 0.588805 0.678453
vt 0.584703 0.681429
vt 0.553922 0.638949
vt 0.622423 0.719326
vt 0.622179 0.721423
vt 0.617934 0.724577
vt 0.615916 0.724363
vt 0.583709 0.682226
vt 0.552853 0.639867
vt 0.500719 0.852203
vt 0.529537 0.841451
vt 0.527310 0.845685
vt 0.471019 0.856405
vt 0.474888 0.859071
vt 0.314536 0.898877
vt 0.322600 0.928811
vt 0.314362 0.934665
vt 0.304549 0.897862
vt 0.357185 0.887779
vt 0.360798 0.883306
vt 0.534757 0.875328
vt 0.538677 0.878056
vt 0.479932 0.892500
vt 0.424840 0.905773
vt 0.416017 0.870038
vt 0.519377 0.604174
vt 0.520355 0.603261
vt 0.482161 0.888327
vt 0.475363 0.859293
vt 0.482463 0.887903
vt 0.500884 0.852720
vt 0.477142 0.860114
vt 0.483719 0.886279
vt 0.500654 0.854047
vt 0.489743 0.856923
vt 0.488344 0.857265
vt 0.496723 0.883124
vt 0.495314 0.883479
vt 0.494529 0.883279
vt 0.487805 0.857850
vt 0.477898 0.860327
vt 0.484256 0.885695
vt 0.507784 0.880429
vt 0.497073 0.882423
vt 0.507070 0.880074
vt 0.490435 0.857312
vt 0.508685 0.881468
vt 0.508890 0.880143
vt 0.501767 0.853760
vt 0.500284 0.854726
vt 0.519831 0.877371
vt 0.534264 0.875138
vt 0.508832 0.881992
vt 0.526977 0.846090
vt 0.521258 0.877038
vt 0.532471 0.874305
vt 0.525720 0.847731
vt 0.512757 0.850979
vt 0.514221 0.850592
vt 0.525156 0.848298
vt 0.515001 0.850792
vt 0.521785 0.876450
vt 0.531701 0.874124
vt 0.519125 0.876998
vt 0.512379 0.851673
vt 0.502472 0.854118
vt 0.509247 0.879464
vt 0.990856 0.370452
vt 0.989880 0.427180
vt 0.987834 0.427065
vt 0.988543 0.368129
vt 0.987708 0.481126
vt 0.985587 0.480974
vt 0.977397 0.480570
vt 0.979727 0.426840
vt 0.980163 0.368036
vt 0.981012 0.593424
vt 0.983107 0.534645
vt 0.985234 0.534766
vt 0.983471 0.591031
vt 0.972638 0.592989
vt 0.974995 0.534408
vt 0.970380 0.590750
vt 0.972938 0.534300
vt 0.975277 0.480411
vt 0.977578 0.426693
vt 0.969036 0.480168
vt 0.971334 0.426580
vt 0.966705 0.533994
vt 0.459306 0.248160
vt 0.511188 0.268855
vt 0.490493 0.320738
vt 0.438610 0.300042
vt 0.964132 0.590361
vt 0.977769 0.370451
vt 0.971523 0.370509
vt 0.364836 0.917430
vt 0.370002 0.919564
vt 0.323257 0.927445
vt 0.363537 0.916671
vt 0.356516 0.889135
vt 0.315860 0.899624
vt 0.483598 0.566383
vt 0.483723 0.564373
vt 0.524174 0.599747
vt 0.487528 0.560691
vt 0.525137 0.598863
vt 0.489528 0.560677
vt 0.582035 0.636543
vt 0.587733 0.646402
vt 0.609632 0.632645
vt 0.603150 0.623164
vt 0.905554 0.061311
vt 0.905145 0.060404
vt 0.939019 0.045110
vt 0.939428 0.046017
vt 0.952804 0.039978
vt 0.968098 0.073851
vt 0.954722 0.079891
vt 0.952395 0.039071
vt 0.923725 0.011236
vt 0.937101 0.005197
vt 0.936691 0.004291
vt 0.923315 0.010330
vt 0.986269 0.023777
vt 0.986678 0.024684
vt 0.117362 0.005337
vt 0.117535 0.005124
vt 0.131137 0.015721
vt 0.130964 0.015933
vt 0.117707 0.004912
vt 0.131309 0.015508
vt 0.117193 0.005551
vt 0.130795 0.016147
vt 0.132338 0.015253
vt 0.131992 0.015165
vt 0.132080 0.014819
vt 0.132299 0.014982
vt 0.132174 0.015472
vt 0.131904 0.015511
vt 0.117026 0.005768
vt 0.130628 0.016365
vt 0.131645 0.015077
vt 0.131809 0.014858
vt 0.116862 0.005987
vt 0.130465 0.016584
vt 0.118043 0.004480
vt 0.118207 0.004261
vt 0.117877 0.004697
vt 0.131479 0.015294
vt 0.131685 0.015347
vt 0.233778 0.015419
vt 0.233611 0.015636
vt 0.219939 0.005136
vt 0.220106 0.004919
vt 0.233445 0.015853
vt 0.219773 0.005353
vt 0.233944 0.015202
vt 0.220273 0.004702
vt 0.234111 0.014985
vt 0.220439 0.004486
vt 0.218749 0.005602
vt 0.219094 0.005695
vt 0.219002 0.006040
vt 0.218785 0.005873
vt 0.219440 0.005787
vt 0.219273 0.006004
vt 0.234278 0.014769
vt 0.220606 0.004269
vt 0.219187 0.005349
vt 0.219404 0.005516
vt 0.218916 0.005385
vt 0.233278 0.016070
vt 0.219606 0.005570
vt 0.233111 0.016287
vt 0.232945 0.016504
s 1
f 1/1/1 4/2/1 5/3/1 2/4/1
f 2/4/2 9/5/2 3/6/2 1/1/2
f 3/6/3 6/7/3 4/2/3 1/1/3
f 7/8/4 5/3/4 4/2/4 6/7/4
f 6/7/5 3/6/5 9/5/5 7/8/5
f 11/9/3 8/10/3 7/8/3 9/5/3
f 5/3/3 7/8/3 8/10/3 29/11/3
f 122/12/3 10/13/3 9/5/3 2/4/3
f 10/13/3 13/14/3 11/9/3 9/5/3
f 8/10/1 11/9/1 12/15/1 27/16/1
f 14/17/1 12/15/1 11/9/1 13/14/1
f 18/18/1 14/17/1 13/14/1 15/19/1
f 10/13/3 17/20/3 15/19/3 13/14/3
f 17/20/3 124/21/3 16/22/3 15/19/3
f 19/23/4 18/18/4 15/19/4 16/22/4
f 18/18/3 19/23/3 22/24/3 20/25/3
f 14/17/3 18/18/3 20/25/3 23/26/3
f 20/25/4 22/24/4 119/27/4 21/28/4
f 14/17/3 23/26/3 12/15/3
f 23/26/3 24/29/3 27/16/3 12/15/3
f 25/30/2 120/31/2 26/32/2 24/33/2
f 28/34/3 27/16/3 24/29/3 26/35/3
f 27/16/2 28/34/2 29/11/2 8/10/2
f 26/35/3 33/36/3 30/37/3 28/34/3
f 31/38/5 29/11/5 28/34/5 30/37/5
f 30/37/5 32/39/5 121/40/5 31/38/5
f 30/37/3 33/36/3 32/39/3
f 22/41/6 33/36/6 34/42/6 36/43/6
f 19/23/3 32/39/3 33/36/3 22/24/3
f 37/44/6 34/42/6 33/36/6 26/35/6
f 34/42/3 37/44/3 39/45/3 35/46/3
f 35/46/3 36/43/3 34/42/3
f 26/35/7 120/47/7 38/48/7 37/44/7
f 40/49/2 39/45/2 37/44/2 38/48/2
f 44/50/8 41/51/8 39/45/8 40/49/8
f 35/46/9 39/45/9 41/51/9 47/52/9
f 42/53/3 41/54/3 46/55/3
f 47/56/3 41/54/3 42/53/3 50/57/3
f 43/58/2 111/59/2 45/60/2 41/61/2
f 113/62/2 43/58/2 41/61/2 44/63/2
f 75/64/3 46/55/3 41/54/3 45/65/3
f 47/56/4 49/66/4 92/67/4 48/68/4
f 47/52/10 48/69/10 117/70/10 35/46/10
f 50/57/3 51/71/3 49/66/3 47/56/3
f 51/71/4 50/57/4 52/72/4 53/73/4
f 50/57/1 42/53/1 54/74/1 52/72/1
f 55/75/3 63/76/3 53/73/3 52/72/3
f 68/77/3 56/78/3 52/72/3 54/74/3
f 57/79/3 55/75/3 52/72/3
f 56/78/3 57/79/3 52/72/3
f 56/78/3 64/80/3 58/81/3 57/79/3
f 57/79/11 58/81/11 61/82/11 59/83/11
f 55/75/5 57/79/5 59/83/5 60/84/5
f 60/84/3 59/83/3 61/82/3 62/85/3
f 58/81/1 63/76/1 62/85/1 61/82/1
f 63/76/2 55/75/2 60/84/2 62/85/2
f 63/76/3 58/81/3 53/73/3
f 58/81/3 64/80/3 53/73/3
f 66/86/1 64/80/1 65/87/1 70/88/1
f 64/80/12 56/78/12 72/89/12 65/87/12
f 64/80/3 66/86/3 69/90/3 53/73/3
f 66/86/3 67/91/3 69/90/3
f 88/92/3 67/91/3 66/86/3 68/77/3
f 68/77/13 66/86/13 70/88/13 71/93/13
f 72/89/3 71/93/3 70/88/3 65/87/3
f 56/78/5 68/77/5 71/93/5 72/89/5
f 67/91/3 77/94/3 74/95/3 69/90/3
f 75/64/5 73/96/5 69/90/5 74/95/5
f 73/96/5 51/71/5 53/73/5 69/90/5
f 46/55/2 75/64/2 74/95/2 79/97/2
f 78/98/3 76/99/3 74/95/3
f 76/99/3 81/100/3 79/97/3 74/95/3
f 77/94/3 78/98/3 74/95/3
f 80/101/3 88/92/3 54/74/3 79/97/3
f 82/102/3 80/101/3 79/97/3
f 42/53/1 46/55/1 79/97/1 54/74/1
f 81/100/3 82/102/3 79/97/3
f 82/102/5 81/100/5 84/103/5 83/104/5
f 82/102/3 78/98/3 77/94/3 80/101/3
f 78/98/12 82/102/12 83/104/12 85/105/12
f 83/104/3 84/103/3 86/106/3 85/105/3
f 76/99/1 78/98/1 85/105/1 86/106/1
f 81/100/4 76/99/4 86/106/4 84/103/4
f 80/101/14 77/94/14 91/107/14 87/108/14
f 88/92/5 80/101/5 87/108/5 89/109/5
f 67/91/15 88/92/15 89/109/15 90/110/15
f 88/92/3 68/77/3 54/74/3
f 89/109/3 87/108/3 91/107/3 90/110/3
f 77/94/1 67/91/1 90/110/1 91/107/1
f 45/65/3 49/66/3 73/96/3 75/64/3
f 73/96/3 49/66/3 51/71/3
f 92/111/16 49/112/16 93/113/16 96/114/16
f 49/112/17 45/115/17 95/116/17 93/113/17
f 93/113/3 95/116/3 102/117/3 94/118/3
f 93/113/4 94/118/4 97/119/4 96/114/4
f 96/120/18 98/121/18 99/122/18 92/123/18
f 97/124/19 100/125/19 98/121/19 96/120/19
f 45/115/20 99/122/20 98/121/20 95/116/20
f 98/121/2 100/125/2 102/117/2 95/116/2
f 109/126/21 101/127/21 100/125/21 97/124/21
f 101/127/22 103/128/22 102/117/22 100/125/22
f 103/128/23 104/129/23 94/118/23 102/117/23
f 104/129/19 103/128/19 105/130/19 106/131/19
f 103/128/4 101/127/4 107/132/4 105/130/4
f 106/133/5 105/134/5 107/135/5 108/136/5
f 108/137/3 107/132/3 101/127/3 109/126/3
f 109/138/2 104/129/2 106/131/2 108/139/2
f 104/129/24 109/138/24 97/119/24 94/118/24
f 111/59/2 110/140/2 99/141/2 45/60/2
f 110/140/2 113/62/2 44/63/2 99/141/2
f 92/67/19 99/141/19 44/63/19 48/68/19
f 110/140/1 111/59/1 116/142/1 112/143/1
f 113/62/3 110/140/3 112/143/3 114/144/3
f 43/58/5 113/62/5 114/144/5 115/145/5
f 114/144/2 112/143/2 116/142/2 115/145/2
f 111/59/19 43/58/19 115/145/19 116/142/19
f 117/70/25 48/69/25 44/146/25 40/147/25
f 35/46/4 117/70/4 118/148/4 36/43/4
f 118/148/19 117/70/19 40/147/19 38/149/19
f 119/150/26 22/41/26 36/43/26 118/148/26
f 120/151/27 119/150/27 118/148/27 38/149/27
f 25/30/19 21/28/19 119/27/19 120/31/19
f 32/39/5 19/23/5 16/22/5 121/40/5
f 2/4/3 31/38/3 121/40/3 122/12/3
f 124/21/3 122/12/3 121/40/3 16/22/3
f 122/12/1 124/21/1 125/152/1 123/153/1
f 10/13/4 122/12/4 123/153/4 127/154/4
f 124/21/2 17/20/2 126/155/2 125/152/2
f 127/154/3 123/153/3 125/152/3 126/155/3
f 17/20/5 10/13/5 127/154/5 126/155/5
f 29/11/3 31/38/3 2/4/3 5/3/3
f 129/156/19 133/157/19 131/158/19 128/159/19
f 128/159/1 130/160/1 135/161/1 129/162/1
f 128/159/2 131/158/2 132/163/2 130/160/2
f 131/158/5 133/164/5 134/165/5 132/163/5
f 135/166/4 134/165/4 133/164/4 129/167/4
f 130/160/3 132/163/3 134/168/3 135/169/3
f 139/170/28 136/171/28 137/172/28 141/173/28
f 136/171/29 138/174/29 152/175/29 137/172/29
f 140/176/30 139/170/30 141/173/30 143/177/30
f 141/178/31 142/179/31 144/180/31 143/181/31
f 137/182/31 152/183/31 142/179/31 141/178/31
f 146/184/32 140/176/32 143/177/32 144/185/32
f 142/179/31 150/186/31 145/187/33 144/180/31
f 147/188/34 146/184/34 144/185/34 145/189/34
f 148/190/35 147/191/35 145/187/35 150/186/35
f 149/192/36 148/190/36 150/186/36 151/193/36
f 152/183/31 151/194/31 150/186/31 142/179/31
f 138/174/37 149/192/37 151/193/37 152/175/37
f 156/195/38 153/196/38 154/197/38 157/198/38
f 153/196/39 155/199/39 165/200/39 154/197/39
f 158/201/40 156/195/40 157/198/40 160/202/40
f 159/203/41 158/201/41 160/202/41 161/204/41
f 157/205/31 163/206/31 161/207/31 160/208/31
f 163/206/31 164/209/31 162/210/33 161/207/31
f 169/211/42 159/203/42 161/204/42 162/212/42
f 165/213/31 166/214/31 164/209/31 163/206/31
f 154/215/31 165/213/31 163/206/31 157/205/31
f 155/199/43 167/216/44 166/217/43 165/200/43
f 167/216/45 168/218/45 164/209/45 166/217/45
f 168/218/46 169/219/46 162/210/46 164/209/46
