# Blender 4.4.1
# www.blender.org
o Appartments_Small_2
v 0.005238 0.480311 0.379877
v 0.005238 0.480311 0.387016
v 0.005238 0.047597 0.379877
v 0.205139 0.480311 0.379877
v 0.205139 0.480311 0.387016
v 0.205139 0.047597 0.379877
v 0.205139 0.047597 0.387016
v 0.223880 0.024666 0.387016
v 0.005238 0.047597 0.387016
v -0.005237 0.047597 0.387016
v 0.005238 0.024666 0.387016
v 0.005238 0.024666 0.380858
v -0.005237 0.024666 0.387016
v -0.005237 0.024666 0.380858
v -0.223882 0.024666 0.387016
v -0.223882 0.024666 0.380858
v -0.223882 0.503242 0.387016
v -0.205139 0.047597 0.387016
v -0.205139 0.480311 0.387016
v -0.205139 0.047597 0.379877
v -0.005237 0.047597 0.379877
v -0.205139 0.480311 0.379877
v -0.005237 0.480311 0.379877
v -0.005237 0.480311 0.387016
v -0.005237 0.503242 0.387016
v 0.005238 0.503242 0.387016
v -0.005237 0.503242 0.380858
v 0.005238 0.503242 0.380858
v -0.223882 0.503242 0.380858
v 0.000000 0.738176 0.380858
v 0.000000 0.736016 0.405506
v -0.476074 0.738176 0.380858
v 0.476072 0.738176 0.380858
v 0.476072 0.738176 -0.571288
v 0.500721 0.736016 0.405506
v 0.476072 0.000000 0.380858
v 0.223880 0.503242 0.380858
v 0.223880 0.024666 0.380858
v 0.223880 0.503242 0.387016
v 0.000000 0.000000 0.380858
v 0.476072 -0.000000 -0.571288
v -0.476074 -0.000000 -0.571288
v -0.476074 0.000000 0.380858
v -0.476074 0.738176 -0.571288
v -0.500721 0.736016 -0.595936
v 0.500721 0.736016 -0.595936
v -0.500721 0.823810 -0.595936
v -0.500721 0.736016 0.405506
v -0.500721 0.823810 0.405506
v -0.476074 0.821649 0.380858
v 0.500721 0.823810 0.405506
v 0.500721 0.823810 -0.595936
v 0.476072 0.821649 0.380858
v 0.476072 0.821649 -0.571288
v 0.476072 1.438057 0.380858
v 0.423644 0.878575 0.380858
v 0.000000 0.878575 0.380858
v 0.476072 0.880634 0.225191
v 0.476072 0.880634 -0.495342
v 0.476072 1.379072 0.225191
v 0.448891 0.880634 0.225191
v 0.448891 0.880634 -0.495342
v 0.448891 1.379072 0.225191
v 0.448891 1.379072 -0.495342
v 0.476072 1.379072 -0.495342
v 0.476072 1.438057 -0.571288
v -0.476074 1.438057 -0.571288
v 0.513406 1.433283 -0.608622
v 0.513406 1.564600 -0.608622
v 0.513406 1.433283 0.418192
v -0.513407 1.433283 -0.608622
v -0.513407 1.564600 -0.608622
v -0.513407 1.433283 0.418192
v -0.513407 1.564600 0.418192
v -0.476074 1.438057 0.380858
v -0.423643 1.381131 0.380858
v 0.000000 1.381131 0.380858
v 0.423644 1.381131 0.380858
v 0.000000 1.381131 0.390270
v -0.423643 1.381131 0.390270
v 0.423644 1.381131 0.390270
v 0.010185 1.359564 0.390270
v -0.010186 1.359564 0.390270
v -0.010186 1.359564 0.375974
v -0.010227 0.900142 0.390270
v -0.192205 1.359564 0.390270
v -0.192134 0.900142 0.390270
v -0.214828 1.359564 0.390270
v -0.192205 1.359564 0.375974
v -0.192134 0.900142 0.375974
v -0.010227 0.900142 0.375974
v -0.214828 1.359564 0.375974
v -0.214900 0.900142 0.390270
v -0.397581 1.359564 0.390270
v -0.397581 1.359564 0.375974
v -0.397581 0.900142 0.390270
v -0.397581 0.900142 0.375974
v -0.423643 0.878576 0.390270
v 0.000000 0.878575 0.390270
v -0.423643 0.878576 0.380858
v 0.423644 0.878575 0.390270
v 0.010225 0.900142 0.390270
v 0.010225 0.900142 0.375974
v 0.191899 0.900142 0.390270
v 0.192017 1.359564 0.390270
v 0.215137 0.900142 0.390270
v 0.191899 0.900142 0.375974
v 0.192017 1.359564 0.375974
v 0.010185 1.359564 0.375974
v 0.397582 0.900142 0.390270
v 0.215019 1.359564 0.390270
v 0.215137 0.900142 0.375974
v 0.215019 1.359564 0.375974
v 0.397582 0.900142 0.375974
v 0.397582 1.359564 0.375974
v 0.397582 1.359564 0.390270
v -0.214900 0.900142 0.375974
v 0.513406 1.564600 0.418192
v -0.476074 1.559825 0.380858
v -0.476074 1.559825 -0.571288
v -0.476074 1.459822 0.380858
v 0.476072 1.559825 0.380858
v 0.476072 1.559825 -0.571288
v 0.476072 1.459822 0.380858
v 0.476072 1.459822 -0.571288
v -0.476074 1.459822 -0.571288
v -0.476074 0.821649 -0.571288
vn 1.0000 -0.0000 -0.0000
vn -0.0000 -1.0000 -0.0000
vn -0.0000 -0.0000 1.0000
vn -1.0000 -0.0000 -0.0000
vn -0.0000 1.0000 -0.0000
vn -0.0000 -0.9962 -0.0873
vn -0.0873 -0.9962 -0.0000
vn -0.0000 -0.0000 -1.0000
vn 0.0873 -0.9962 -0.0000
vn -0.0000 -0.9962 0.0873
vn 0.0873 0.9962 -0.0000
vn -0.0000 0.9962 -0.0873
vn -0.0873 0.9962 -0.0000
vn -0.0000 -0.9919 0.1268
vn -0.1268 -0.9919 -0.0000
vn 0.1268 -0.9919 -0.0000
vn -0.0000 -0.9919 -0.1268
vn -1.0000 0.0001 -0.0000
vn 1.0000 0.0002 -0.0000
vn -1.0000 0.0002 -0.0000
vn 1.0000 0.0001 -0.0000
vn -1.0000 0.0003 -0.0000
vn 1.0000 0.0003 -0.0000
vn 0.1269 0.9919 -0.0000
vn -0.0000 0.9919 -0.1269
vn -0.1269 0.9919 -0.0000
vn -0.0000 0.9919 0.1269
vn -0.0000 0.9962 0.0873
vt 0.322521 0.081598
vt 0.300165 0.095616
vt 0.300223 0.095217
vt 0.322138 0.081515
vt 0.315689 0.072385
vt 0.315721 0.072001
vt 0.294398 0.085160
vt 0.294003 0.085046
vt 0.292220 0.084774
vt 0.316267 0.070453
vt 0.299048 0.096338
vt 0.322831 0.082076
vt 0.300488 0.096131
vt 0.299392 0.096872
vt 0.299099 0.097077
vt 0.298748 0.096525
vt 0.291884 0.084663
vt 0.307316 0.106108
vt 0.306784 0.107765
vt 0.306740 0.108118
vt 0.330914 0.092744
vt 0.330591 0.092632
vt 0.328854 0.092437
vt 0.307360 0.105701
vt 0.328476 0.092322
vt 0.300878 0.096219
vt 0.322778 0.082462
vt 0.323985 0.081332
vt 0.323646 0.080817
vt 0.324289 0.081134
vt 0.323951 0.080608
vt 0.335713 0.073100
vt 0.351106 0.097946
vt 0.352036 0.094457
vt 0.336847 0.072097
vt 0.352842 0.093421
vt 0.321706 0.050412
vt 0.320480 0.050960
vt 0.316300 0.070119
vt 0.372728 0.217775
vt 0.410241 0.194913
vt 0.439725 0.243308
vt 0.402209 0.266166
vt 0.288087 0.009538
vt 0.288331 0.007442
vt 0.283099 0.072334
vt 0.297725 0.097574
vt 0.343264 0.169401
vt 0.380741 0.146501
vt 0.313941 0.121167
vt 0.385373 0.130002
vt 0.386336 0.129118
vt 0.420982 0.168188
vt 0.422982 0.168173
vt 0.390156 0.125603
vt 0.426787 0.164491
vt 0.356588 0.089915
vt 0.357657 0.088998
vt 0.391134 0.124690
vt 0.325808 0.047435
vt 0.326801 0.046638
vt 0.292576 0.004287
vt 0.294594 0.004502
vt 0.700540 0.906569
vt 0.743189 0.895471
vt 0.753176 0.896486
vt 0.696927 0.911042
vt 0.522967 0.919019
vt 0.530414 0.948662
vt 0.528188 0.952897
vt 0.519047 0.916292
vt 0.735126 0.865538
vt 0.743363 0.859683
vt 0.557005 0.942144
vt 0.586706 0.937943
vt 0.582836 0.935277
vt 0.701209 0.905213
vt 0.741865 0.894724
vt 0.734468 0.866903
vt 0.694188 0.877677
vt 0.692889 0.876918
vt 0.687724 0.874784
vt 0.632885 0.888575
vt 0.641708 0.924309
vt 0.024819 0.320422
vt 0.022724 0.379201
vt 0.020597 0.379080
vt 0.022360 0.322815
vt 0.018124 0.432719
vt 0.020245 0.432872
vt 0.030836 0.379437
vt 0.028434 0.433275
vt 0.033194 0.320857
vt 0.014976 0.543393
vt 0.015951 0.486666
vt 0.017997 0.486781
vt 0.017289 0.545717
vt 0.026104 0.487006
vt 0.025668 0.545809
vt 0.577793 0.901848
vt 0.575563 0.906021
vt 0.548892 0.912355
vt 0.549039 0.912879
vt 0.523460 0.919209
vt 0.575262 0.906444
vt 0.561002 0.911224
vt 0.549941 0.913918
vt 0.548834 0.914204
vt 0.537894 0.916976
vt 0.557071 0.940301
vt 0.550654 0.914273
vt 0.557441 0.939622
vt 0.560652 0.911924
vt 0.555958 0.940588
vt 0.562410 0.910868
vt 0.567981 0.937425
vt 0.567290 0.937036
vt 0.569381 0.937083
vt 0.574006 0.908069
vt 0.563196 0.911068
vt 0.569920 0.936498
vt 0.573469 0.908652
vt 0.580583 0.934234
vt 0.582362 0.935054
vt 0.579826 0.934020
vt 0.556841 0.941628
vt 0.530748 0.948258
vt 0.544968 0.943369
vt 0.545346 0.942674
vt 0.555253 0.940230
vt 0.548478 0.914883
vt 0.538600 0.917349
vt 0.543504 0.943755
vt 0.536466 0.917309
vt 0.532004 0.946617
vt 0.532568 0.946049
vt 0.542723 0.943555
vt 0.535939 0.917897
vt 0.526023 0.920223
vt 0.525253 0.920043
vt 0.028253 0.487152
vt 0.028062 0.543395
vt 0.030555 0.433435
vt 0.034498 0.487266
vt 0.034308 0.543336
vt 0.036795 0.433678
vt 0.032894 0.379545
vt 0.039126 0.379852
vt 0.109758 0.355202
vt 0.057875 0.334507
vt 0.078571 0.282624
vt 0.130453 0.303320
vt 0.041700 0.323484
vt 0.035451 0.323096
vt 0.426913 0.162481
s 1
f 2/1/1 9/2/1 3/3/1 1/4/1
f 1/4/2 4/5/2 5/6/2 2/1/2
f 3/3/3 6/7/3 4/5/3 1/4/3
f 7/8/4 5/6/4 4/5/4 6/7/4
f 6/7/5 3/3/5 9/2/5 7/8/5
f 5/6/3 7/8/3 8/9/3 39/10/3
f 11/11/3 8/9/3 7/8/3 9/2/3
f 24/12/3 10/13/3 9/2/3 2/1/3
f 10/13/3 13/14/3 11/11/3 9/2/3
f 14/15/2 12/16/2 11/11/2 13/14/2
f 8/9/2 11/11/2 12/16/2 38/17/2
f 10/13/3 18/18/3 15/19/3 13/14/3
f 16/20/2 14/15/2 13/14/2 15/19/2
f 29/21/4 16/20/4 15/19/4 17/22/4
f 18/18/3 19/23/3 17/22/3 15/19/3
f 19/23/1 18/18/1 20/24/1 22/25/1
f 18/18/5 10/13/5 21/26/5 20/24/5
f 21/26/3 23/27/3 22/25/3 20/24/3
f 24/12/2 19/23/2 22/25/2 23/27/2
f 10/13/4 24/12/4 23/27/4 21/26/4
f 19/23/3 24/12/3 25/28/3 17/22/3
f 2/1/3 26/29/3 25/28/3 24/12/3
f 27/30/5 29/21/5 17/22/5 25/28/5
f 28/31/5 27/30/5 25/28/5 26/29/5
f 28/31/3 30/32/3 27/30/3
f 29/21/3 27/30/3 30/32/3 32/33/3
f 32/34/6 30/32/6 31/35/6 48/36/6
f 35/37/6 31/35/6 30/32/6 33/38/6
f 33/38/3 30/32/3 28/31/3 37/39/3
f 41/40/1 34/41/1 33/42/1 36/43/1
f 33/38/7 34/44/7 46/45/7 35/37/7
f 37/39/3 38/17/3 36/46/3 33/38/3
f 38/17/1 37/39/1 39/10/1 8/9/1
f 26/29/5 39/10/5 37/39/5 28/31/5
f 39/10/3 26/29/3 2/1/3 5/6/3
f 40/47/3 36/46/3 38/17/3 12/16/3
f 41/40/8 42/48/8 44/49/8 34/41/8
f 43/50/4 32/33/4 44/49/4 42/48/4
f 44/51/9 32/34/9 48/36/9 45/52/9
f 34/53/10 44/51/10 45/52/10 46/54/10
f 45/52/8 47/55/8 52/56/8 46/54/8
f 49/57/4 47/55/4 45/52/4 48/36/4
f 49/57/3 48/36/3 31/35/3
f 50/58/11 127/59/11 47/55/11 49/57/11
f 49/57/12 51/60/12 53/61/12 50/58/12
f 31/35/3 35/37/3 51/60/3 49/57/3
f 52/62/1 51/60/1 35/37/1 46/45/1
f 54/63/13 53/61/13 51/60/13 52/62/13
f 59/64/1 58/65/1 53/66/1 54/67/1
f 78/68/3 56/69/3 53/70/3 55/71/3
f 58/65/1 60/72/1 55/73/1 53/66/1
f 57/74/3 53/70/3 56/69/3
f 50/75/3 53/70/3 57/74/3 100/76/3
f 58/65/5 59/64/5 62/77/5 61/78/5
f 60/72/8 58/65/8 61/78/8 63/79/8
f 62/77/1 64/80/1 63/79/1 61/78/1
f 65/81/2 60/72/2 63/79/2 64/80/2
f 59/64/3 65/81/3 64/80/3 62/77/3
f 65/81/1 59/64/1 54/67/1 66/82/1
f 60/72/1 65/81/1 66/82/1 55/73/1
f 67/83/8 66/82/8 54/67/8 127/84/8
f 71/85/14 68/86/14 66/87/14 67/88/14
f 55/89/15 66/87/15 68/86/15 70/90/15
f 68/86/1 69/91/1 118/92/1 70/90/1
f 72/93/8 69/91/8 68/86/8 71/85/8
f 67/94/16 75/95/16 73/96/16 71/97/16
f 73/96/4 74/98/4 72/99/4 71/97/4
f 73/96/3 70/90/3 118/92/3 74/98/3
f 75/95/17 55/89/17 70/90/17 73/96/17
f 50/75/4 75/100/4 67/83/4 127/84/4
f 100/76/3 76/101/3 75/100/3 50/75/3
f 77/102/3 75/100/3 76/101/3
f 55/71/3 75/100/3 77/102/3 78/68/3
f 78/68/5 77/102/5 79/103/5 81/104/5
f 77/102/5 76/101/5 80/105/5 79/103/5
f 86/106/3 83/107/3 79/103/3 80/105/3
f 82/108/3 105/109/3 81/104/3 79/103/3
f 83/107/3 82/108/3 79/103/3
f 85/110/18 83/107/18 84/111/18 91/112/18
f 83/107/2 86/106/2 89/113/2 84/111/2
f 102/114/3 82/108/3 83/107/3 85/110/3
f 88/115/3 86/106/3 80/105/3
f 86/106/19 87/116/19 90/117/19 89/113/19
f 87/116/3 86/106/3 88/115/3 93/118/3
f 90/117/3 91/112/3 84/111/3 89/113/3
f 87/116/5 85/110/5 91/112/5 90/117/5
f 94/119/3 88/115/3 80/105/3
f 93/118/20 88/115/20 92/120/20 117/121/20
f 88/115/2 94/119/2 95/122/2 92/120/2
f 96/123/3 94/119/3 80/105/3 98/124/3
f 94/119/1 96/123/1 97/125/1 95/122/1
f 96/123/5 93/118/5 117/121/5 97/125/5
f 93/118/3 96/123/3 98/124/3
f 76/101/4 100/76/4 98/124/4 80/105/4
f 100/76/2 57/74/2 99/126/2 98/124/2
f 85/110/3 87/116/3 98/124/3 99/126/3
f 87/116/3 93/118/3 98/124/3
f 102/114/3 85/110/3 99/126/3
f 57/74/2 56/69/2 101/127/2 99/126/2
f 104/128/3 102/114/3 99/126/3 101/127/3
f 102/114/5 104/128/5 107/129/5 103/130/5
f 82/108/21 102/114/21 103/130/21 109/131/21
f 104/128/22 105/109/22 108/132/22 107/129/22
f 106/133/3 111/134/3 105/109/3 104/128/3
f 106/133/3 104/128/3 101/127/3
f 103/130/3 107/129/3 108/132/3 109/131/3
f 105/109/2 82/108/2 109/131/2 108/132/2
f 106/133/5 110/135/5 114/136/5 112/137/5
f 110/135/3 106/133/3 101/127/3
f 111/134/23 106/133/23 112/137/23 113/138/23
f 112/137/3 114/136/3 115/139/3 113/138/3
f 110/135/4 116/140/4 115/139/4 114/136/4
f 116/140/2 111/134/2 113/138/2 115/139/2
f 116/140/3 110/135/3 101/127/3 81/104/3
f 111/134/3 116/140/3 81/104/3
f 105/109/3 111/134/3 81/104/3
f 56/69/1 78/68/1 81/104/1 101/127/1
f 97/125/3 117/121/3 92/120/3 95/122/3
f 119/141/24 120/142/24 72/99/24 74/98/24
f 122/143/25 119/141/25 74/98/25 118/92/25
f 120/142/1 119/141/1 121/144/1 126/145/1
f 119/141/8 122/143/8 124/146/8 121/144/8
f 123/147/26 122/143/26 118/92/26 69/91/26
f 122/143/4 123/147/4 125/148/4 124/146/4
f 121/149/5 124/150/5 125/151/5 126/152/5
f 126/153/3 125/148/3 123/147/3 120/154/3
f 120/154/27 123/147/27 69/91/27 72/93/27
f 47/55/28 127/59/28 54/155/28 52/56/28
f 16/20/3 29/21/3 32/33/3 43/50/3
f 14/15/3 16/20/3 43/50/3 40/47/3
f 14/15/3 40/47/3 12/16/3
