# Blender 4.4.1
# www.blender.org
o Appartments_Big
v -0.643764 0.000000 0.643764
v -0.386258 0.522450 0.643764
v -0.643764 0.914289 0.643764
v 0.000000 0.000000 0.643764
v -0.643764 0.522450 0.386258
v -0.643764 -0.000000 -0.000000
v -0.643764 0.522450 0.128753
v -0.643764 0.522450 -0.128753
v -0.643764 -0.000000 -0.643764
v -0.643764 0.522450 -0.386258
v -0.643764 0.914289 -0.643764
v -0.386258 0.522450 -0.643764
v 0.000000 -0.000000 -0.643764
v 0.643764 -0.000000 -0.643764
v -0.128753 0.522450 -0.643764
v 0.128753 0.522450 -0.643764
v 0.128753 0.783676 -0.643764
v 0.386258 0.522450 -0.643764
v 0.128753 0.522450 -0.610501
v 0.386258 0.522450 -0.610501
v 0.128753 0.783676 -0.610501
v 0.386258 0.783676 -0.610501
v 0.386258 0.783676 -0.643764
v 0.386258 1.044901 -0.643764
v 0.643764 0.914289 -0.643764
v 0.643764 1.436740 -0.643764
v 0.643764 1.044901 -0.386258
v 0.643764 0.783676 -0.386258
v 0.643764 0.783676 -0.128753
v 0.610501 0.783676 -0.386258
v 0.643764 0.522450 -0.386258
v 0.643764 0.522450 -0.128753
v 0.610501 0.522450 -0.386258
v 0.610501 0.522450 -0.128753
v 0.610501 0.783676 -0.128753
v 0.643764 -0.000000 -0.000000
v 0.643764 0.522450 0.128753
v 0.643764 0.783676 0.128753
v 0.643764 0.522450 0.386258
v 0.610501 0.522450 0.128753
v 0.610501 0.522450 0.386258
v 0.610501 0.783676 0.128753
v 0.610501 0.783676 0.386258
v 0.643764 0.783676 0.386258
v 0.643764 0.914289 0.643764
v 0.643764 1.044901 0.386258
v 0.643764 1.044901 0.128753
v 0.643764 1.306127 0.386258
v 0.610501 1.044901 0.386258
v 0.610501 1.044901 0.128753
v 0.610501 1.306127 0.386258
v 0.610501 1.306127 0.128753
v 0.643764 1.306127 0.128753
v 0.643764 1.306127 -0.128753
v 0.643764 1.567352 0.128753
v 0.643764 1.828578 0.128753
v 0.643764 1.567352 0.386258
v 0.610501 1.567352 0.128753
v 0.643764 1.567352 -0.128753
v 0.643764 1.567352 -0.386258
v 0.643764 1.828578 -0.128753
v 0.610501 1.567352 -0.128753
v 0.610501 1.567352 -0.386258
v 0.610501 1.828578 -0.128753
v 0.610501 1.828578 -0.386258
v 0.643764 1.828578 -0.386258
v 0.643764 2.089804 -0.386258
v 0.643764 1.959191 -0.643764
v 0.643764 2.331013 -0.643764
v 0.386258 1.828578 -0.643764
v 0.386258 2.089804 -0.643764
v 0.128753 2.089804 -0.643764
v 0.386258 2.331013 -0.643764
v 0.386258 2.089804 -0.610501
v 0.128753 2.089804 -0.610501
v 0.386258 2.331013 -0.610501
v 0.128753 2.331013 -0.610501
v 0.128753 2.331013 -0.643764
v -0.128753 2.331013 -0.643764
v -0.128753 2.331013 -0.610501
v -0.128753 2.089804 -0.643764
v -0.128753 1.828578 -0.643764
v -0.386258 2.089804 -0.643764
v -0.128753 2.089804 -0.610501
v -0.386258 2.089804 -0.610501
v -0.386258 2.331013 -0.610501
v -0.386258 2.331013 -0.643764
v -0.643763 2.331013 -0.643764
v -0.643763 2.331013 -0.386258
v -0.643764 1.959191 -0.643764
v -0.643764 1.828578 -0.386258
v -0.643764 1.436740 -0.643764
v -0.643764 2.089804 -0.386258
v -0.386258 1.828578 -0.643764
v -0.386258 1.828578 -0.610501
v -0.386258 1.567352 -0.643764
v -0.386258 1.306127 -0.643764
v -0.128753 1.567352 -0.643764
v -0.386258 1.567352 -0.610501
v -0.128753 1.567352 -0.610501
v -0.128753 1.828578 -0.610501
v -0.128753 1.306127 -0.643764
v 0.128753 1.567352 -0.643764
v 0.128753 1.306127 -0.643764
v 0.128753 1.828578 -0.643764
v 0.386258 1.567352 -0.643764
v 0.128753 1.567352 -0.610501
v 0.386258 1.567352 -0.610501
v 0.128753 1.828578 -0.610501
v 0.386258 1.828578 -0.610501
v 0.386258 1.306127 -0.643764
v 0.386258 1.306127 -0.610501
v 0.386258 1.044901 -0.610501
v 0.128753 1.306127 -0.610501
v 0.128753 1.044901 -0.610501
v 0.128753 1.044901 -0.643764
v -0.128753 1.044901 -0.643764
v -0.128753 0.783676 -0.643764
v -0.386258 1.044901 -0.643764
v -0.128753 1.044901 -0.610501
v -0.386258 1.044901 -0.610501
v -0.128753 1.306127 -0.610501
v -0.386258 1.306127 -0.610501
v -0.386258 0.783676 -0.643764
v -0.386258 0.783676 -0.610501
v -0.128753 0.783676 -0.610501
v -0.386258 0.522450 -0.610501
v -0.128753 0.522450 -0.610501
v -0.643764 2.089803 -0.128753
v -0.610501 2.089804 -0.386258
v -0.610501 2.089803 -0.128753
v -0.610501 2.331013 -0.386258
v -0.610501 2.331013 -0.128753
v -0.643763 2.331013 -0.128753
v -0.643763 2.331013 0.128753
v -0.610501 2.331013 0.128753
v -0.643764 2.089803 0.128753
v -0.643764 1.828578 0.128753
v -0.643764 2.089803 0.386258
v -0.610501 2.089803 0.128753
v -0.610501 2.089803 0.386258
v -0.610501 2.331013 0.386258
v -0.643763 2.331013 0.386258
v -0.643763 2.331013 0.643764
v -0.643764 1.959191 0.643764
v -0.386258 2.331013 0.643764
v -0.386258 2.331013 0.610501
v -0.386258 2.089804 0.643764
v -0.386258 1.828578 0.643764
v -0.128753 2.089804 0.643764
v -0.386258 2.089804 0.610501
v -0.128753 2.089804 0.610501
v -0.128753 2.331013 0.610501
v -0.128753 2.331013 0.643764
v 0.128753 2.331013 0.643764
v 0.128753 2.331013 0.610501
v 0.128753 2.089804 0.643764
v 0.128753 1.828578 0.643764
v 0.386258 2.089804 0.643764
v 0.128753 2.089804 0.610501
v 0.386258 2.089804 0.610501
v 0.386258 2.331013 0.610501
v 0.386258 2.331013 0.643764
v 0.643764 2.331013 0.643764
v 0.643764 2.331013 0.386258
v 0.643764 1.959191 0.643764
v 0.643764 1.828578 0.386258
v 0.643764 1.436740 0.643764
v 0.643764 2.089804 0.386258
v 0.386258 1.828578 0.643764
v 0.386258 1.828578 0.610501
v 0.386258 1.567352 0.643764
v 0.386258 1.306127 0.643764
v 0.128753 1.567352 0.643764
v 0.386258 1.567352 0.610501
v 0.128753 1.567352 0.610501
v 0.128753 1.828578 0.610501
v 0.128753 1.306127 0.643764
v -0.128753 1.567352 0.643764
v -0.128753 1.306127 0.643764
v -0.128753 1.828578 0.643764
v -0.386258 1.567352 0.643764
v -0.128753 1.567352 0.610501
v -0.386258 1.567352 0.610501
v -0.128753 1.828578 0.610501
v -0.386258 1.828578 0.610501
v -0.386258 1.306127 0.643764
v -0.643764 1.436740 0.643764
v -0.643764 1.567352 0.386258
v -0.643764 1.306127 0.386258
v -0.643764 1.306127 0.128753
v -0.610501 1.306127 0.386258
v -0.643764 1.044901 0.386258
v -0.643764 0.783676 0.386258
v -0.643764 1.044901 0.128753
v -0.610501 1.044901 0.386258
v -0.610501 1.044901 0.128753
v -0.610501 1.306127 0.128753
v -0.643764 0.783676 0.128753
v -0.643764 1.044901 -0.128753
v -0.643764 1.306127 -0.128753
v -0.643764 1.044901 -0.386258
v -0.610501 1.044901 -0.128753
v -0.643764 0.783676 -0.128753
v -0.643764 0.783676 -0.386258
v -0.610501 0.783676 -0.128753
v -0.610501 0.522450 -0.128753
v -0.610501 0.783676 -0.386258
v -0.610501 0.522450 -0.386258
v -0.610501 1.044901 -0.386258
v -0.610501 1.306127 -0.128753
v -0.610501 1.306127 -0.386258
v -0.643764 1.306127 -0.386258
v -0.643764 1.567352 -0.386258
v -0.643764 1.567352 -0.128753
v -0.610501 1.567352 -0.386258
v -0.610501 1.567352 -0.128753
v -0.610501 1.828578 -0.386258
v -0.610501 1.828578 -0.128753
v -0.643764 1.828578 -0.128753
v -0.643764 1.567352 0.128753
v -0.610501 1.567352 0.128753
v -0.610501 1.567352 0.386258
v -0.610501 1.828578 0.128753
v -0.610501 1.828578 0.386258
v -0.643764 1.828578 0.386258
v -0.610501 0.783676 0.128753
v -0.610501 0.783676 0.386258
v -0.610501 0.522450 0.128753
v -0.610501 0.522450 0.386258
v -0.386258 1.306127 0.610501
v -0.386258 1.044901 0.643764
v -0.386258 0.783676 0.643764
v -0.128753 1.044901 0.643764
v -0.386258 1.044901 0.610501
v -0.128753 1.044901 0.610501
v -0.128753 1.306127 0.610501
v -0.128753 0.783676 0.643764
v 0.128753 1.044901 0.643764
v 0.128753 0.783676 0.643764
v 0.386258 1.044901 0.643764
v 0.128753 1.044901 0.610501
v 0.386258 1.044901 0.610501
v 0.128753 1.306127 0.610501
v 0.386258 1.306127 0.610501
v 0.386258 0.783676 0.643764
v 0.386258 0.783676 0.610501
v 0.386258 0.522450 0.643764
v 0.643764 0.000000 0.643764
v 0.128753 0.522450 0.643764
v 0.386258 0.522450 0.610501
v 0.128753 0.522450 0.610501
v 0.128753 0.783676 0.610501
v -0.128753 0.522450 0.643764
v -0.128753 0.522450 0.610501
v -0.386258 0.522450 0.610501
v -0.128753 0.783676 0.610501
v -0.386258 0.783676 0.610501
v 0.643764 2.089804 0.128753
v 0.610501 2.089804 0.386258
v 0.610501 2.089804 0.128753
v 0.610501 2.331013 0.386258
v 0.610501 2.331013 0.128753
v 0.643764 2.331013 0.128753
v 0.643764 2.331013 -0.128753
v 0.610501 2.331013 -0.128753
v 0.643764 2.089804 -0.128753
v 0.610501 2.089804 -0.128753
v 0.610501 2.089804 -0.386258
v 0.610501 2.331013 -0.386258
v 0.643764 2.331013 -0.386258
v 0.610501 1.828578 0.386258
v 0.610501 1.567352 0.386258
v 0.610501 1.828578 0.128753
v 0.643764 1.306127 -0.386258
v 0.610501 1.306127 -0.386258
v 0.610501 1.306127 -0.128753
v 0.610501 1.044901 -0.386258
v 0.610501 1.044901 -0.128753
v 0.643764 1.044901 -0.128753
v -0.726775 2.326244 -0.000000
v -0.726775 2.326244 0.726775
v -0.726775 2.476430 0.726775
v -0.726775 2.476430 -0.726775
v -0.726775 2.326244 -0.726775
v -0.600586 2.326244 -0.000000
v -0.600586 2.326244 0.600585
v -0.600586 2.326244 -0.600585
v 0.000000 2.326244 -0.600585
v 0.600585 2.326244 -0.600585
v 0.000000 2.326244 -0.726775
v 0.726774 2.476430 -0.726775
v 0.726774 2.326244 -0.726775
v 0.726774 2.326244 -0.000000
v 0.726774 2.476430 0.726775
v 0.600585 2.326244 -0.000000
v 0.726774 2.326244 0.726775
v 0.000000 2.326244 0.726775
v 0.600585 2.326244 0.600585
v 0.000000 2.326244 0.600585
v 0.000000 2.476430 -0.000000
vn -0.0000 -0.0000 1.0000
vn -1.0000 -0.0000 -0.0000
vn -0.0000 -0.0000 -1.0000
vn 1.0000 -0.0000 -0.0000
vn -0.0000 1.0000 -0.0000
vn -0.0000 -1.0000 -0.0000
vt 0.658717 0.296095
vt 0.627336 0.290029
vt 0.626435 0.274488
vt 0.657673 0.259619
vt 0.609938 0.274438
vt 0.601814 0.259679
vt 0.609865 0.244809
vt 0.626308 0.245132
vt 0.626815 0.229892
vt 0.658285 0.223784
vt 0.627861 0.215331
vt 0.628824 0.200078
vt 0.661698 0.188679
vt 0.612477 0.198438
vt 0.606318 0.183037
vt 0.616264 0.169140
vt 0.632519 0.171205
vt 0.635031 0.156203
vt 0.667093 0.153613
vt 0.637996 0.141890
vt 0.640954 0.126829
vt 0.675137 0.118811
vt 0.618644 0.153475
vt 0.621693 0.138970
vt 0.623089 0.137928
vt 0.636917 0.140569
vt 0.639556 0.127831
vt 0.625972 0.124842
vt 0.624924 0.123471
vt 0.606302 0.136387
vt 0.609630 0.120520
vt 0.620817 0.107570
vt 0.632411 0.094719
vt 0.648291 0.098291
vt 0.589644 0.100027
vt 0.601430 0.087028
vt 0.617212 0.091260
vt 0.593518 0.116841
vt 0.621705 0.075792
vt 0.636623 0.079320
vt 0.637590 0.080739
vt 0.633867 0.093738
vt 0.647327 0.096922
vt 0.652503 0.083356
vt 0.684701 0.083338
vt 0.651026 0.084292
vt 0.656941 0.069027
vt 0.641224 0.065017
vt 0.642696 0.064060
vt 0.655998 0.067607
vt 0.661216 0.053771
vt 0.659756 0.054710
vt 0.695143 0.046747
vt 0.646758 0.051018
vt 0.645855 0.049577
vt 0.643122 0.033247
vt 0.631376 0.045935
vt 0.626488 0.061488
vt 0.625614 0.060007
vt 0.629901 0.046874
vt 0.616388 0.041622
vt 0.614829 0.025309
vt 0.617218 0.043075
vt 0.612587 0.056014
vt 0.611073 0.056919
vt 0.605991 0.071290
vt 0.591205 0.066953
vt 0.596478 0.052540
vt 0.602317 0.037128
vt 0.581290 0.046702
vt 0.582875 0.045913
vt 0.595697 0.050972
vt 0.575627 0.061371
vt 0.600787 0.037971
vt 0.586344 0.082810
vt 0.585464 0.081266
vt 0.589688 0.067843
vt 0.576515 0.062971
vt 0.572310 0.076807
vt 0.570828 0.077742
vt 0.556055 0.072409
vt 0.560533 0.056024
vt 0.559044 0.091161
vt 0.539023 0.084746
vt 0.540922 0.069526
vt 0.547094 0.105328
vt 0.533904 0.098765
vt 0.562382 0.109082
vt 0.578315 0.113334
vt 0.558486 0.125867
vt 0.543290 0.122003
vt 0.542145 0.120415
vt 0.545360 0.106072
vt 0.533090 0.100577
vt 0.527906 0.117057
vt 0.527854 0.119275
vt 0.539317 0.138917
vt 0.525825 0.134484
vt 0.537719 0.139925
vt 0.525101 0.136397
vt 0.555125 0.141802
vt 0.552686 0.159071
vt 0.537289 0.156019
vt 0.535991 0.154614
vt 0.521667 0.153446
vt 0.521868 0.155665
vt 0.542813 0.174233
vt 0.522083 0.170966
vt 0.532796 0.190134
vt 0.518787 0.185604
vt 0.548471 0.191662
vt 0.564839 0.193746
vt 0.574357 0.178919
vt 0.568812 0.162006
vt 0.556237 0.143295
vt 0.554026 0.157914
vt 0.567722 0.160576
vt 0.584381 0.164507
vt 0.571455 0.145317
vt 0.586870 0.148087
vt 0.570072 0.146417
vt 0.574682 0.129855
vt 0.590078 0.132932
vt 0.559943 0.124819
vt 0.573663 0.128360
vt 0.576877 0.114358
vt 0.563371 0.110608
vt 0.594559 0.118271
vt 0.591498 0.131883
vt 0.608207 0.121541
vt 0.605255 0.134975
vt 0.603208 0.151148
vt 0.600654 0.167076
vt 0.599546 0.165726
vt 0.601829 0.152230
vt 0.587989 0.149490
vt 0.585730 0.163384
vt 0.619775 0.154802
vt 0.617600 0.168028
vt 0.631404 0.169950
vt 0.633657 0.157247
vt 0.531161 0.207226
vt 0.529816 0.205820
vt 0.531169 0.191127
vt 0.546764 0.208897
vt 0.518218 0.187519
vt 0.515233 0.204595
vt 0.515474 0.206796
vt 0.529360 0.224546
vt 0.515374 0.222133
vt 0.527904 0.225774
vt 0.514903 0.224132
vt 0.545442 0.225163
vt 0.545219 0.242576
vt 0.529503 0.241738
vt 0.528036 0.240538
vt 0.513685 0.241490
vt 0.514170 0.243654
vt 0.537287 0.258873
vt 0.516261 0.258751
vt 0.529382 0.276021
vt 0.514864 0.273744
vt 0.527902 0.277252
vt 0.514551 0.275729
vt 0.545745 0.292219
vt 0.530025 0.293032
vt 0.545166 0.275173
vt 0.528504 0.291870
vt 0.513928 0.293079
vt 0.514481 0.295220
vt 0.530703 0.310174
vt 0.516568 0.310431
vt 0.529474 0.311649
vt 0.516419 0.312508
vt 0.546695 0.308059
vt 0.549243 0.324544
vt 0.533631 0.326565
vt 0.532006 0.325727
vt 0.518323 0.329866
vt 0.519259 0.331893
vt 0.544653 0.340283
vt 0.524809 0.346043
vt 0.573874 0.025382
vt 0.563070 0.015933
vt 0.572066 0.004262
vt 0.588099 0.015299
vt 0.587784 0.031629
vt 0.574955 0.337970
vt 0.565372 0.323264
vt 0.548189 0.309133
vt 0.550189 0.323124
vt 0.563941 0.322214
vt 0.580905 0.322462
vt 0.563415 0.307033
vt 0.579120 0.306209
vt 0.562389 0.308426
vt 0.562528 0.291664
vt 0.578324 0.290987
vt 0.561756 0.274994
vt 0.577533 0.274677
vt 0.546882 0.290822
vt 0.561145 0.290520
vt 0.560631 0.276350
vt 0.546526 0.276359
vt 0.569341 0.259221
vt 0.577494 0.243830
vt 0.594059 0.244470
vt 0.594208 0.274698
vt 0.561664 0.243291
vt 0.562142 0.226442
vt 0.577850 0.227257
vt 0.579145 0.228513
vt 0.578693 0.242555
vt 0.592777 0.243262
vt 0.594507 0.228363
vt 0.610178 0.228961
vt 0.593277 0.229599
vt 0.595651 0.213329
vt 0.611285 0.214199
vt 0.579074 0.211805
vt 0.580351 0.210590
vt 0.594427 0.212051
vt 0.596887 0.197167
vt 0.595607 0.198346
vt 0.612539 0.213009
vt 0.626619 0.214139
vt 0.613693 0.199687
vt 0.627565 0.201223
vt 0.581621 0.196649
vt 0.580409 0.195338
vt 0.563377 0.210669
vt 0.562169 0.209322
vt 0.563547 0.194956
vt 0.549651 0.193045
vt 0.548074 0.207654
vt 0.560395 0.242025
vt 0.560912 0.227716
vt 0.546742 0.226488
vt 0.546402 0.241247
vt 0.611474 0.230155
vt 0.611051 0.243556
vt 0.625586 0.231083
vt 0.625035 0.244003
vt 0.578911 0.275830
vt 0.579444 0.289657
vt 0.593084 0.276003
vt 0.610703 0.290321
vt 0.595034 0.290825
vt 0.593652 0.289690
vt 0.611370 0.305273
vt 0.595753 0.305856
vt 0.612745 0.321358
vt 0.597186 0.321962
vt 0.595785 0.320862
vt 0.594683 0.307191
vt 0.580561 0.307321
vt 0.581925 0.321113
vt 0.606199 0.337010
vt 0.612781 0.306382
vt 0.613797 0.320010
vt 0.629066 0.320675
vt 0.627687 0.319606
vt 0.661509 0.334172
vt 0.627979 0.304974
vt 0.626882 0.306278
vt 0.611811 0.289017
vt 0.625956 0.288940
vt 0.625319 0.275763
vt 0.611302 0.275567
vt 0.567104 0.040410
vt 0.566306 0.038640
vt 0.572067 0.025694
vt 0.561801 0.017481
vt 0.553134 0.032390
vt 0.552662 0.034574
vt 0.548017 0.049234
vt 0.558809 0.056734
vt 0.547008 0.051007
vt 0.554988 0.070815
vt 0.541045 0.067292
vt 0.588494 0.033162
vt 0.606920 0.072771
vt 0.602909 0.086077
vt 0.616281 0.089808
vt 0.620211 0.076729
vt 0.929440 0.095792
vt 0.894953 0.120861
vt 0.890600 0.114873
vt 0.919100 0.094157
vt 0.934621 0.102919
vt 0.865645 0.153056
vt 0.860465 0.145929
vt 0.862100 0.135589
vt 0.858518 0.158237
vt 0.883587 0.192724
vt 0.877599 0.197077
vt 0.856883 0.168577
vt 0.908655 0.227212
vt 0.898314 0.225577
vt 0.915782 0.222032
vt 0.920963 0.229159
vt 0.955451 0.204090
vt 0.959803 0.210078
vt 0.931303 0.230794
vt 0.984758 0.171895
vt 0.989938 0.179022
vt 0.988303 0.189362
vt 0.991885 0.166714
vt 0.966816 0.132227
vt 0.972804 0.127874
vt 0.993520 0.156374
vt 0.941748 0.097739
vt 0.952088 0.099374
vt 0.925202 0.162476
s 1
f 4/1/1 254/2/1 2/3/1 1/4/1
f 2/3/1 233/5/1 3/6/1 1/4/1
f 1/4/2 3/6/2 194/7/2 5/8/2
f 1/4/2 5/8/2 7/9/2 6/10/2
f 6/10/2 7/9/2 8/11/2
f 6/10/2 8/11/2 10/12/2 9/13/2
f 10/12/2 205/14/2 11/15/2 9/13/2
f 9/13/3 11/15/3 124/16/3 12/17/3
f 9/13/3 12/17/3 15/18/3 13/19/3
f 13/19/3 16/20/3 18/21/3 14/22/3
f 13/19/3 15/18/3 16/20/3
f 15/18/3 118/23/3 17/24/3 16/20/3
f 16/20/4 17/24/4 21/25/4 19/26/4
f 18/21/5 16/20/5 19/26/5 20/27/5
f 19/26/3 21/25/3 22/28/3 20/27/3
f 17/24/6 23/29/6 22/28/6 21/25/6
f 23/29/2 18/21/2 20/27/2 22/28/2
f 17/24/3 116/30/3 24/31/3 23/29/3
f 23/29/3 24/31/3 25/32/3
f 18/21/3 23/29/3 25/32/3 14/22/3
f 14/22/4 25/32/4 28/33/4 31/34/4
f 25/32/4 26/35/4 275/36/4 27/37/4
f 24/31/3 111/38/3 26/35/3 25/32/3
f 25/32/4 27/37/4 28/33/4
f 28/33/4 27/37/4 280/39/4 29/40/4
f 28/33/6 29/40/6 35/41/6 30/42/6
f 31/34/1 28/33/1 30/42/1 33/43/1
f 14/22/4 31/34/4 32/44/4 36/45/4
f 32/44/5 31/34/5 33/43/5 34/46/5
f 33/43/4 30/42/4 35/41/4 34/46/4
f 29/40/3 32/44/3 34/46/3 35/41/3
f 36/45/4 32/44/4 37/47/4
f 32/44/4 29/40/4 38/48/4 37/47/4
f 37/47/1 38/48/1 42/49/1 40/50/1
f 39/51/5 37/47/5 40/50/5 41/52/5
f 36/45/4 37/47/4 39/51/4 249/53/4
f 40/50/4 42/49/4 43/54/4 41/52/4
f 38/48/6 44/55/6 43/54/6 42/49/6
f 44/55/3 39/51/3 41/52/3 43/54/3
f 39/51/4 44/55/4 45/56/4 249/53/4
f 44/55/4 46/57/4 45/56/4
f 38/48/4 47/58/4 46/57/4 44/55/4
f 46/57/5 47/58/5 50/59/5 49/60/5
f 46/57/4 48/61/4 168/62/4 45/56/4
f 48/61/3 46/57/3 49/60/3 51/63/3
f 50/59/4 52/64/4 51/63/4 49/60/4
f 53/65/6 48/61/6 51/63/6 52/64/6
f 47/58/1 53/65/1 52/64/1 50/59/1
f 280/39/4 54/66/4 53/65/4 47/58/4
f 54/66/4 59/67/4 55/68/4 53/65/4
f 53/65/4 55/68/4 57/69/4 48/61/4
f 55/68/1 56/70/1 274/71/1 58/72/1
f 59/67/4 61/73/4 56/70/4 55/68/4
f 57/69/5 55/68/5 58/72/5 273/74/5
f 275/36/4 60/75/4 59/67/4 54/66/4
f 59/67/5 60/75/5 63/76/5 62/77/5
f 61/73/3 59/67/3 62/77/3 64/78/3
f 63/76/4 65/79/4 64/78/4 62/77/4
f 66/80/6 61/73/6 64/78/6 65/79/6
f 60/75/1 66/80/1 65/79/1 63/76/1
f 66/80/4 67/81/4 267/82/4 61/73/4
f 68/83/4 67/81/4 66/80/4
f 26/35/4 68/83/4 66/80/4 60/75/4
f 68/83/4 69/84/4 271/85/4 67/81/4
f 71/86/3 73/87/3 69/84/3 68/83/3
f 70/88/3 71/86/3 68/83/3
f 106/89/3 70/88/3 68/83/3 26/35/3
f 105/90/3 72/91/3 71/86/3 70/88/3
f 71/86/5 72/91/5 75/92/5 74/93/5
f 73/87/2 71/86/2 74/93/2 76/94/2
f 75/92/3 77/95/3 76/94/3 74/93/3
f 72/91/4 78/96/4 77/95/4 75/92/4
f 81/97/3 79/98/3 78/96/3 72/91/3
f 79/98/2 81/97/2 84/99/2 80/100/2
f 82/101/3 81/97/3 72/91/3 105/90/3
f 94/102/3 83/103/3 81/97/3 82/101/3
f 81/97/5 83/103/5 85/104/5 84/99/5
f 85/104/3 86/105/3 80/100/3 84/99/3
f 83/103/4 87/106/4 86/105/4 85/104/4
f 90/107/3 88/108/3 87/106/3 83/103/3
f 93/109/2 89/110/2 88/108/2 90/107/2
f 91/111/2 93/109/2 90/107/2
f 214/112/2 91/111/2 90/107/2 92/113/2
f 92/113/3 90/107/3 94/102/3 96/114/3
f 90/107/3 83/103/3 94/102/3
f 94/102/6 82/101/6 101/115/6 95/116/6
f 96/114/4 94/102/4 95/116/4 99/117/4
f 92/113/3 96/114/3 97/118/3
f 97/118/3 96/114/3 98/119/3 102/120/3
f 98/119/5 96/114/5 99/117/5 100/121/5
f 99/117/3 95/116/3 101/115/3 100/121/3
f 82/101/2 98/119/2 100/121/2 101/115/2
f 102/120/3 98/119/3 103/122/3 104/123/3
f 98/119/3 82/101/3 105/90/3 103/122/3
f 104/123/3 103/122/3 106/89/3 111/38/3
f 103/122/4 105/90/4 109/124/4 107/125/4
f 106/89/5 103/122/5 107/125/5 108/126/5
f 107/125/3 109/124/3 110/127/3 108/126/3
f 105/90/6 70/88/6 110/127/6 109/124/6
f 70/88/2 106/89/2 108/126/2 110/127/2
f 111/38/3 106/89/3 26/35/3
f 104/123/6 111/38/6 112/128/6 114/129/6
f 111/38/2 24/31/2 113/130/2 112/128/2
f 115/131/3 114/129/3 112/128/3 113/130/3
f 116/30/4 104/123/4 114/129/4 115/131/4
f 24/31/5 116/30/5 115/131/5 113/130/5
f 118/23/3 117/132/3 116/30/3 17/24/3
f 117/132/3 102/120/3 104/123/3 116/30/3
f 124/16/3 119/133/3 117/132/3 118/23/3
f 117/132/5 119/133/5 121/134/5 120/135/5
f 102/120/2 117/132/2 120/135/2 122/136/2
f 121/134/3 123/137/3 122/136/3 120/135/3
f 97/118/6 102/120/6 122/136/6 123/137/6
f 119/133/4 97/118/4 123/137/4 121/134/4
f 11/15/3 119/133/3 124/16/3
f 11/15/3 92/113/3 97/118/3 119/133/3
f 124/16/6 118/23/6 126/138/6 125/139/6
f 12/17/4 124/16/4 125/139/4 127/140/4
f 127/140/3 125/139/3 126/138/3 128/141/3
f 15/18/5 12/17/5 127/140/5 128/141/5
f 118/23/2 15/18/2 128/141/2 126/138/2
f 93/109/5 129/142/5 131/143/5 130/144/5
f 220/145/2 129/142/2 93/109/2 91/111/2
f 89/110/1 93/109/1 130/144/1 132/146/1
f 131/143/2 133/147/2 132/146/2 130/144/2
f 129/142/3 134/148/3 133/147/3 131/143/3
f 137/149/2 135/150/2 134/148/2 129/142/2
f 135/150/1 137/149/1 140/151/1 136/152/1
f 138/153/2 137/149/2 129/142/2 220/145/2
f 226/154/2 139/155/2 137/149/2 138/153/2
f 137/149/5 139/155/5 141/156/5 140/151/5
f 141/156/2 142/157/2 136/152/2 140/151/2
f 139/155/3 143/158/3 142/157/3 141/156/3
f 145/159/2 144/160/2 143/158/2 139/155/2
f 148/161/1 146/162/1 144/160/1 145/159/1
f 146/162/4 148/161/4 151/163/4 147/164/4
f 181/165/1 150/166/1 148/161/1 149/167/1
f 149/167/1 148/161/1 145/159/1
f 148/161/5 150/166/5 152/168/5 151/163/5
f 152/168/1 153/169/1 147/164/1 151/163/1
f 150/166/2 154/170/2 153/169/2 152/168/2
f 157/171/1 155/172/1 154/170/1 150/166/1
f 155/172/4 157/171/4 160/173/4 156/174/4
f 158/175/1 157/171/1 150/166/1 181/165/1
f 170/176/1 159/177/1 157/171/1 158/175/1
f 157/171/5 159/177/5 161/178/5 160/173/5
f 161/178/1 162/179/1 156/174/1 160/173/1
f 159/177/2 163/180/2 162/179/2 161/178/2
f 166/181/1 164/182/1 163/180/1 159/177/1
f 169/183/4 165/184/4 164/185/4 166/186/4
f 167/187/4 169/183/4 166/186/4
f 57/69/4 167/187/4 166/186/4 168/62/4
f 168/188/1 166/181/1 170/176/1 172/189/1
f 166/181/1 159/177/1 170/176/1
f 170/176/6 158/175/6 177/190/6 171/191/6
f 172/189/2 170/176/2 171/191/2 175/192/2
f 168/188/1 172/189/1 173/193/1
f 173/193/1 172/189/1 174/194/1 178/195/1
f 174/194/5 172/189/5 175/192/5 176/196/5
f 175/192/1 171/191/1 177/190/1 176/196/1
f 158/175/4 174/194/4 176/196/4 177/190/4
f 178/195/1 174/194/1 179/197/1 180/198/1
f 174/194/1 158/175/1 181/165/1 179/197/1
f 180/198/1 179/197/1 182/199/1 187/200/1
f 179/197/2 181/165/2 185/201/2 183/202/2
f 182/199/5 179/197/5 183/202/5 184/203/5
f 183/202/1 185/201/1 186/204/1 184/203/1
f 181/165/6 149/167/6 186/204/6 185/201/6
f 149/167/4 182/199/4 184/203/4 186/204/4
f 187/200/1 182/199/1 188/205/1
f 182/199/1 149/167/1 145/159/1 188/205/1
f 3/6/2 188/205/2 190/206/2 193/207/2
f 232/208/1 187/200/1 188/205/1 3/6/1
f 188/205/2 145/159/2 226/154/2 189/209/2
f 188/205/2 189/209/2 190/206/2
f 190/206/2 189/209/2 221/210/2 191/211/2
f 190/206/6 191/211/6 198/212/6 192/213/6
f 193/207/3 190/206/3 192/213/3 196/214/3
f 3/6/2 193/207/2 194/7/2
f 194/7/2 193/207/2 195/215/2 199/216/2
f 195/215/5 193/207/5 196/214/5 197/217/5
f 196/214/2 192/213/2 198/212/2 197/217/2
f 191/211/1 195/215/1 197/217/1 198/212/1
f 199/216/2 195/215/2 200/218/2 204/219/2
f 195/215/2 191/211/2 201/220/2 200/218/2
f 200/218/3 201/220/3 211/221/3 203/222/3
f 202/223/5 200/218/5 203/222/5 210/224/5
f 204/219/2 200/218/2 202/223/2 205/14/2
f 8/11/3 204/219/3 206/225/3 207/226/3
f 7/9/2 199/216/2 204/219/2 8/11/2
f 204/219/6 205/14/6 208/227/6 206/225/6
f 207/226/2 206/225/2 208/227/2 209/228/2
f 205/14/1 10/12/1 209/228/1 208/227/1
f 10/12/5 8/11/5 207/226/5 209/228/5
f 205/14/2 202/223/2 11/15/2
f 203/222/2 211/221/2 212/229/2 210/224/2
f 201/220/6 213/230/6 212/229/6 211/221/6
f 213/230/1 202/223/1 210/224/1 212/229/1
f 213/230/2 214/112/2 92/113/2
f 202/223/2 213/230/2 92/113/2 11/15/2
f 201/220/2 215/231/2 214/112/2 213/230/2
f 214/112/5 215/231/5 217/232/5 216/233/5
f 91/111/1 214/112/1 216/233/1 218/234/1
f 217/232/2 219/235/2 218/234/2 216/233/2
f 220/145/6 91/111/6 218/234/6 219/235/6
f 215/231/3 220/145/3 219/235/3 217/232/3
f 221/210/2 138/153/2 220/145/2 215/231/2
f 191/211/2 221/210/2 215/231/2 201/220/2
f 221/210/5 189/209/5 223/236/5 222/237/5
f 138/153/1 221/210/1 222/237/1 224/238/1
f 223/236/2 225/239/2 224/238/2 222/237/2
f 226/154/6 138/153/6 224/238/6 225/239/6
f 189/209/3 226/154/3 225/239/3 223/236/3
f 145/159/2 139/155/2 226/154/2
f 194/7/6 199/216/6 227/240/6 228/241/6
f 199/216/1 7/9/1 229/242/1 227/240/1
f 230/243/2 228/241/2 227/240/2 229/242/2
f 7/9/5 5/8/5 230/243/5 229/242/5
f 5/8/3 194/7/3 228/241/3 230/243/3
f 180/198/6 187/200/6 231/244/6 237/245/6
f 187/200/4 232/208/4 235/246/4 231/244/4
f 233/5/1 232/208/1 3/6/1
f 238/247/1 234/248/1 232/208/1 233/5/1
f 232/208/5 234/248/5 236/249/5 235/246/5
f 236/249/1 237/245/1 231/244/1 235/246/1
f 234/248/2 180/198/2 237/245/2 236/249/2
f 240/250/1 239/251/1 234/248/1 238/247/1
f 239/251/1 178/195/1 180/198/1 234/248/1
f 246/252/1 241/253/1 239/251/1 240/250/1
f 239/251/5 241/253/5 243/254/5 242/255/5
f 178/195/4 239/251/4 242/255/4 244/256/4
f 243/254/1 245/257/1 244/256/1 242/255/1
f 173/193/6 178/195/6 244/256/6 245/257/6
f 241/253/2 173/193/2 245/257/2 243/254/2
f 45/258/1 241/253/1 246/252/1
f 45/258/1 168/188/1 173/193/1 241/253/1
f 246/252/6 240/250/6 253/259/6 247/260/6
f 248/261/2 246/252/2 247/260/2 251/262/2
f 249/263/1 45/258/1 246/252/1 248/261/1
f 249/263/1 248/261/1 250/264/1 4/1/1
f 250/264/5 248/261/5 251/262/5 252/265/5
f 251/262/1 247/260/1 253/259/1 252/265/1
f 240/250/4 250/264/4 252/265/4 253/259/4
f 4/1/1 250/264/1 254/2/1
f 250/264/1 240/250/1 238/247/1 254/2/1
f 254/2/2 238/247/2 257/266/2 255/267/2
f 2/3/5 254/2/5 255/267/5 256/268/5
f 255/267/1 257/266/1 258/269/1 256/268/1
f 238/247/6 233/5/6 258/269/6 257/266/6
f 233/5/4 2/3/4 256/268/4 258/269/4
f 56/70/4 259/270/4 169/183/4 167/187/4
f 169/183/5 259/270/5 261/271/5 260/272/5
f 165/184/3 169/183/3 260/272/3 262/273/3
f 261/271/4 263/274/4 262/273/4 260/272/4
f 259/270/1 264/275/1 263/274/1 261/271/1
f 267/82/4 265/276/4 264/275/4 259/270/4
f 265/276/3 267/82/3 268/277/3 266/278/3
f 61/73/4 267/82/4 259/270/4 56/70/4
f 267/82/5 67/81/5 269/279/5 268/277/5
f 269/279/4 270/280/4 266/278/4 268/277/4
f 67/81/1 271/85/1 270/280/1 269/279/1
f 48/61/4 57/69/4 168/62/4
f 167/187/3 57/69/3 273/74/3 272/281/3
f 56/70/6 167/187/6 272/281/6 274/71/6
f 58/72/4 274/71/4 272/281/4 273/74/4
f 26/35/4 60/75/4 275/36/4
f 275/36/6 54/66/6 277/282/6 276/283/6
f 27/37/1 275/36/1 276/283/1 278/284/1
f 278/284/4 276/283/4 277/282/4 279/285/4
f 280/39/5 27/37/5 278/284/5 279/285/5
f 54/66/3 280/39/3 279/285/3 277/282/3
f 29/40/4 280/39/4 47/58/4 38/48/4
f 282/286/6 281/287/6 286/288/6 287/289/6
f 282/286/2 283/290/2 281/287/2
f 281/287/2 283/290/2 284/291/2
f 284/291/2 285/292/2 281/287/2
f 281/287/6 285/292/6 288/293/6 286/288/6
f 285/294/6 291/295/6 289/296/6 288/297/6
f 291/295/6 293/298/6 290/299/6 289/296/6
f 291/295/3 284/291/3 292/300/3
f 292/300/3 293/298/3 291/295/3
f 285/294/3 284/291/3 291/295/3
f 293/301/4 292/300/4 294/302/4
f 293/301/6 294/302/6 296/303/6 290/304/6
f 294/302/4 292/300/4 295/305/4
f 295/305/4 297/306/4 294/302/4
f 294/302/6 297/306/6 299/307/6 296/303/6
f 297/308/6 298/309/6 300/310/6 299/311/6
f 297/308/1 295/305/1 298/309/1
f 298/309/6 282/312/6 287/313/6 300/310/6
f 283/290/1 282/312/1 298/309/1
f 298/309/1 295/305/1 283/290/1
f 283/290/5 295/305/5 301/314/5
f 295/305/5 292/300/5 301/314/5
f 284/291/5 283/290/5 301/314/5
f 292/300/5 284/291/5 301/314/5
