# Blender 4.4.1
# www.blender.org
o Automatic_Machine
v -0.121086 0.000000 0.069067
v -0.103768 0.089144 0.069066
v -0.121086 0.356573 0.069066
v 0.121085 0.000000 0.069067
v -0.121086 -0.000000 -0.069067
v 0.121085 -0.000000 -0.069067
v -0.121086 0.356573 -0.069067
v 0.121085 0.356573 -0.069067
v 0.121085 0.356573 0.069066
v 0.102829 0.312002 0.069066
v 0.052623 0.312002 0.069066
v 0.052623 0.312002 0.063404
v 0.052623 0.089144 0.069066
v 0.058852 0.302829 0.069066
v -0.103768 0.312002 0.069066
v -0.103768 0.312002 0.063404
v -0.103768 0.089144 0.063404
v 0.052623 0.089144 0.063404
v 0.096599 0.302829 0.069066
v 0.058852 0.098317 0.069066
v 0.096599 0.098317 0.069066
v 0.102829 0.089144 0.069066
vn -0.0000 -0.0000 1.0000
vn -1.0000 -0.0000 -0.0000
vn -0.0000 -0.0000 -1.0000
vn -0.0000 1.0000 -0.0000
vn 1.0000 -0.0000 -0.0000
vn -0.0000 -1.0000 -0.0000
vt 0.635569 0.341188
vt 0.626131 0.341537
vt 0.624902 0.336301
vt 0.639398 0.335800
vt 0.626662 0.354941
vt 0.625781 0.357582
vt 0.626286 0.365723
vt 0.605322 0.366932
vt 0.604847 0.358815
vt 0.640574 0.364945
vt 0.641770 0.385874
vt 0.627531 0.386694
vt 0.640129 0.356856
vt 0.661538 0.363727
vt 0.661063 0.355614
vt 0.636035 0.354429
vt 0.638971 0.354290
vt 0.638511 0.341120
vt 0.636379 0.353871
vt 0.638588 0.353772
vt 0.635785 0.354242
vt 0.635360 0.341421
vt 0.626871 0.354705
vt 0.635952 0.341729
vt 0.626364 0.341748
vt 0.638165 0.341671
s 1
f 13/1/1 2/2/1 1/3/1 4/4/1
f 2/2/1 15/5/1 3/6/1 1/3/1
f 7/7/2 5/8/2 1/9/2 3/6/2
f 8/10/3 6/11/3 5/12/3 7/7/3
f 3/6/4 9/13/4 8/10/4 7/7/4
f 6/14/5 8/10/5 9/13/5 4/15/5
f 9/13/1 3/6/1 15/5/1 11/16/1
f 4/4/1 9/13/1 10/17/1 22/18/1
f 9/13/1 11/16/1 10/17/1
f 14/19/1 19/20/1 10/17/1 11/16/1
f 13/1/2 11/16/2 12/21/2 18/22/2
f 11/16/6 15/5/6 16/23/6 12/21/6
f 20/24/1 14/19/1 11/16/1 13/1/1
f 15/5/5 2/2/5 17/25/5 16/23/5
f 18/22/1 12/21/1 16/23/1 17/25/1
f 2/2/4 13/1/4 18/22/4 17/25/4
f 14/19/1 20/24/1 21/26/1 19/20/1
f 21/26/1 20/24/1 13/1/1 22/18/1
f 19/20/1 21/26/1 22/18/1 10/17/1
f 4/4/1 22/18/1 13/1/1
