# Blender 4.4.1
# www.blender.org
o Bank.001
v -1.155727 -0.000347 0.464501
v -1.115618 0.046954 0.464501
v -1.115618 0.570672 0.464501
v -1.115618 0.591931 0.464501
v -1.155727 1.192960 0.464501
v -1.155727 -0.000347 -1.135148
v -0.751801 -0.000347 0.464501
v -0.626982 0.046954 0.464501
v -0.347874 -0.000347 0.464501
v -0.876619 0.046954 0.464501
v -0.892799 0.046954 0.464501
v -0.610802 0.046954 0.464501
v -0.387985 0.046954 0.464501
v -0.610802 0.570327 0.464501
v -0.610802 0.046954 0.432129
v -0.610802 0.570327 0.432129
v -0.387985 0.046954 0.432129
v -0.387985 0.570313 0.432129
v -0.387985 0.570313 0.464501
v -0.387985 0.592289 0.464501
v -0.347874 0.581301 0.464501
v -0.347874 1.149100 0.464501
v -0.347874 0.817814 0.681597
v -0.294714 0.859579 0.681597
v -0.347874 1.298625 0.681597
v -0.198435 0.733063 0.681597
v 0.347874 0.817814 0.681597
v -0.347874 0.089444 0.681597
v -0.347874 0.059843 0.969000
v -0.347874 0.089244 0.969000
v -0.198435 0.090309 0.681597
v -0.198435 0.090309 0.624196
v 0.198435 0.090309 0.681597
v 0.198435 0.733063 0.681597
v 0.198435 0.090309 0.624196
v 0.347874 0.089444 0.681597
v 0.347874 0.089244 0.969000
v 0.347874 0.059843 0.969000
v 0.347874 0.001041 1.030313
v 0.347874 0.059843 1.030313
v 0.347874 0.030442 1.030313
v -0.347874 0.059843 1.030313
v -0.347874 0.030442 1.030313
v -0.347874 0.030442 1.091626
v -0.347874 0.001041 1.030313
v -0.347874 0.001041 1.091626
v 0.347874 0.001041 1.091626
v 0.347874 0.030442 1.091626
v 0.347874 -0.000347 0.464501
v 0.347874 0.581301 0.464501
v 0.387983 0.046954 0.464501
v 0.751801 -0.000347 0.464501
v 1.155727 -0.000347 0.464501
v 0.892799 0.046954 0.464501
v 0.876617 0.046954 0.464501
v 0.626982 0.046954 0.464501
v 0.610802 0.046954 0.464501
v 0.610802 0.046954 0.432129
v 0.610802 0.570327 0.464501
v 0.610802 0.592275 0.464501
v 0.610802 0.570327 0.432129
v 0.626982 0.570672 0.464501
v 0.387983 0.570313 0.464501
v 0.387983 0.592289 0.464501
v 0.387983 0.570313 0.432129
v 0.387983 0.046954 0.432129
v 0.387983 1.101799 0.464501
v 0.387983 0.592289 0.432129
v 0.610802 0.592275 0.432129
v 0.387983 1.101799 0.432129
v 0.610802 1.101799 0.432129
v 0.610802 1.101799 0.464501
v 0.751801 1.149100 0.464501
v 0.626982 1.101799 0.464501
v 0.876617 1.101799 0.464501
v 0.626982 0.591931 0.464501
v 0.626982 1.101799 0.432129
v 0.626982 0.591931 0.432129
v 0.876617 1.101799 0.432129
v 0.876617 0.591931 0.432129
v 0.876617 0.591931 0.464501
v 0.876617 0.570672 0.464501
v 0.892799 0.591931 0.464501
v 1.115616 0.591931 0.464501
v 0.892799 1.101799 0.464501
v 0.892799 0.570672 0.464501
v 0.892799 0.591931 0.432129
v 1.115616 0.591931 0.432129
v 0.892799 1.101799 0.432129
v 1.115616 1.101799 0.432129
v 1.115616 1.101799 0.464501
v 1.155727 1.192960 0.464501
v 1.155727 1.192960 -1.135148
v 0.347874 1.192960 0.464501
v 0.347874 1.298625 0.681597
v 0.347874 1.149100 0.464501
v 0.347874 1.192960 -1.135148
v 0.347874 -0.000347 -1.135148
v 0.347874 1.298625 -1.245146
v -0.347874 1.298625 -1.245146
v 0.394348 1.297398 -1.291155
v 0.347874 -0.000347 -1.245146
v -0.347874 -0.000347 -1.245146
v -0.347874 -0.000347 -1.135148
v -0.347874 1.192960 -1.135148
v -0.347874 1.192960 0.464501
v -1.155727 1.192960 -1.135148
v -0.751801 1.149100 0.464501
v -0.610802 1.101799 0.464501
v -0.892799 1.101799 0.464501
v -0.626982 1.101799 0.464501
v -0.876619 1.101799 0.464501
v -0.876619 1.101799 0.432129
v -0.876619 0.591931 0.464501
v -0.626982 0.591931 0.464501
v -0.876619 0.591931 0.432129
v -0.876619 0.570672 0.464501
v -0.892799 0.591931 0.464501
v -0.892799 0.591931 0.432129
v -0.892799 0.570672 0.464501
v -0.892799 0.570672 0.432129
v -1.115618 0.570672 0.432129
v -0.892799 0.046954 0.432129
v -1.115618 0.046954 0.432129
v -0.892799 1.101799 0.432129
v -1.115618 0.591931 0.432129
v -1.115618 1.101799 0.432129
v -1.115618 1.101799 0.464501
v -0.626982 0.570672 0.464501
v -0.876619 0.570672 0.432129
v -0.626982 0.570672 0.432129
v -0.876619 0.046954 0.432129
v -0.626982 0.046954 0.432129
v -0.626982 0.591931 0.432129
v -0.626982 1.101799 0.432129
v -0.610802 0.592275 0.464501
v -0.610802 0.592275 0.432129
v -0.610802 1.101799 0.432129
v -0.387985 0.592289 0.432129
v -0.387985 1.101799 0.432129
v -0.387985 1.101799 0.464501
v -0.394350 1.297398 -1.291155
v 0.394348 1.297398 0.730236
v 0.394348 1.349810 -1.291155
v 0.394348 1.349810 0.730236
v -0.394350 1.349810 -1.291155
v -0.394350 1.349810 0.730236
v -0.394350 1.297398 0.730236
v 1.155727 -0.000347 -1.135148
v 0.294712 1.208091 0.681597
v -0.294714 1.208091 0.681597
v 0.294712 0.859579 0.681597
v 0.294712 1.208091 0.658138
v 0.294712 0.859579 0.658138
v -0.294714 1.208091 0.658138
v -0.294714 0.859579 0.658138
v 1.115616 0.570672 0.464501
v 0.892799 0.570672 0.432129
v 0.892799 0.046954 0.432129
v 1.115616 0.570672 0.432129
v 1.115616 0.046954 0.432129
v 1.115616 0.046954 0.464501
v 0.876617 0.570672 0.432129
v 0.626982 0.570672 0.432129
v 0.876617 0.046954 0.432129
v 0.626982 0.046954 0.432129
v 0.198435 0.733063 0.624196
v -0.198435 0.733063 0.624196
vn -0.0000 -0.0000 1.0000
vn -1.0000 -0.0000 -0.0000
vn -0.0000 1.0000 -0.0000
vn 1.0000 -0.0000 -0.0000
vn -0.0001 -1.0000 -0.0000
vn -0.0048 1.0000 0.0012
vn -0.0042 1.0000 0.0003
vn -0.0058 1.0000 0.0007
vn 0.0042 1.0000 0.0003
vn 0.0048 1.0000 0.0012
vn 0.0058 1.0000 0.0007
vn 0.0001 -1.0000 -0.0000
vn 0.0001 1.0000 -0.0000
vn -0.0000 -1.0000 -0.0000
vn -0.0000 -0.0000 -1.0000
vn -0.0000 -0.9996 0.0267
vn -0.0264 -0.9997 -0.0000
vn -0.0001 1.0000 -0.0000
vn 0.0264 -0.9997 -0.0000
vn -0.0000 -0.9997 -0.0252
vt 0.083280 0.041401
vt 0.067962 0.048243
vt 0.064766 0.046432
vt 0.092600 0.034766
vt 0.075655 0.078340
vt 0.076023 0.079596
vt 0.083609 0.107379
vt 0.082079 0.112716
vt 0.004251 0.127008
vt 0.085283 0.213831
vt 0.017891 0.214758
vt 0.104447 0.035279
vt 0.103167 0.035466
vt 0.084336 0.040906
vt 0.123425 0.032099
vt 0.126429 0.028539
vt 0.121841 0.033418
vt 0.106435 0.035852
vt 0.109887 0.067070
vt 0.108895 0.067310
vt 0.111072 0.065587
vt 0.124370 0.062727
vt 0.126033 0.063467
vt 0.126159 0.064913
vt 0.110114 0.068440
vt 0.128561 0.063684
vt 0.142904 0.075957
vt 0.129527 0.100429
vt 0.131948 0.104120
vt 0.139883 0.099760
vt 0.140943 0.028008
vt 0.188225 0.078063
vt 0.184324 0.079770
vt 0.146410 0.078162
vt 0.144512 0.095379
vt 0.152848 0.030644
vt 0.152338 0.070643
vt 0.179317 0.071811
vt 0.149426 0.009506
vt 0.149689 0.014269
vt 0.150163 0.015776
vt 0.155597 0.032625
vt 0.154650 0.068590
vt 0.184513 0.033849
vt 0.181635 0.035666
vt 0.190076 0.018260
vt 0.176908 0.069742
vt 0.196719 0.032099
vt 0.190790 0.016887
vt 0.210707 0.034304
vt 0.191980 0.012744
vt 0.190025 0.013735
vt 0.190882 0.012409
vt 0.151110 0.011072
vt 0.150568 0.009623
vt 0.151613 0.005997
vt 0.190293 0.008849
vt 0.151335 0.004290
vt 0.191258 0.007355
vt 0.213022 0.038099
vt 0.206224 0.068255
vt 0.203736 0.068124
vt 0.231027 0.042750
vt 0.242592 0.043158
vt 0.265694 0.057074
vt 0.251048 0.050018
vt 0.268994 0.055500
vt 0.250053 0.049532
vt 0.232201 0.043090
vt 0.229085 0.043443
vt 0.214454 0.039444
vt 0.221809 0.073007
vt 0.222760 0.073347
vt 0.220618 0.071527
vt 0.221554 0.074345
vt 0.205988 0.069633
vt 0.222515 0.074619
vt 0.207812 0.067399
vt 0.200260 0.103628
vt 0.197471 0.106699
vt 0.207215 0.071103
vt 0.201611 0.102601
vt 0.219881 0.075095
vt 0.212796 0.105713
vt 0.213940 0.107090
vt 0.221853 0.112342
vt 0.214865 0.107277
vt 0.230344 0.111034
vt 0.216345 0.106282
vt 0.229181 0.109741
vt 0.223697 0.076100
vt 0.237794 0.081192
vt 0.239537 0.080590
vt 0.239743 0.079348
vt 0.240457 0.081003
vt 0.231331 0.111214
vt 0.240675 0.079729
vt 0.255798 0.087121
vt 0.256202 0.085928
vt 0.254023 0.087586
vt 0.241557 0.082527
vt 0.232967 0.110235
vt 0.245256 0.113119
vt 0.246620 0.114177
vt 0.247695 0.119909
vt 0.316719 0.217991
vt 0.238143 0.220959
vt 0.314866 0.129271
vt 0.189474 0.209141
vt 0.196304 0.110525
vt 0.189593 0.101437
vt 0.184337 0.208033
vt 0.231420 0.285373
vt 0.187560 0.285763
vt 0.181088 0.286233
vt 0.138518 0.283349
vt 0.138838 0.207933
vt 0.139246 0.207459
vt 0.183937 0.207612
vt 0.188710 0.101691
vt 0.132137 0.282704
vt 0.133483 0.208310
vt 0.082207 0.282942
vt 0.132712 0.108289
vt 0.107948 0.107520
vt 0.115970 0.102791
vt 0.098893 0.105476
vt 0.115073 0.102803
vt 0.099888 0.105460
vt 0.090991 0.073492
vt 0.091930 0.073144
vt 0.100772 0.104062
vt 0.113556 0.101838
vt 0.093695 0.073733
vt 0.109118 0.068601
vt 0.108001 0.070117
vt 0.091505 0.071898
vt 0.090619 0.072314
vt 0.097258 0.104597
vt 0.090100 0.075112
vt 0.077859 0.079775
vt 0.088835 0.071773
vt 0.082205 0.043027
vt 0.076306 0.076677
vt 0.069694 0.048518
vt 0.084788 0.106231
vt 0.086227 0.041283
vt 0.092210 0.070209
vt 0.107143 0.066679
vt 0.101850 0.036956
vt 0.111851 0.069144
vt 0.116846 0.101280
vt 0.124924 0.066419
vt 0.128147 0.099370
vt 0.140749 0.205139
vt 0.182108 0.205627
vt 0.186881 0.103842
vt 0.143032 0.101681
vt 0.140907 0.099807
vt 0.185173 0.096758
vt 0.145563 0.094635
vt 0.183925 0.096182
vt 0.183573 0.080607
vt 0.147253 0.078922
vt 0.242456 0.079080
vt 0.255205 0.084355
vt 0.252126 0.051572
vt 0.263996 0.057561
vt 0.224453 0.072592
vt 0.238656 0.077840
vt 0.248226 0.050095
vt 0.233437 0.044555
s 1
f 11/1/1 2/2/1 1/3/1 7/4/1
f 2/2/1 3/5/1 1/3/1
f 4/6/1 1/3/1 3/5/1
f 4/6/1 128/7/1 5/8/1 1/3/1
f 1/9/2 5/8/2 107/10/2 6/11/2
f 7/4/1 12/12/1 8/13/1
f 10/14/1 7/4/1 8/13/1
f 13/15/1 12/12/1 7/4/1 9/16/1
f 11/1/1 7/4/1 10/14/1
f 12/12/3 13/15/3 17/17/3 15/18/3
f 12/12/1 14/19/1 129/20/1 8/13/1
f 14/19/4 12/12/4 15/18/4 16/21/4
f 16/21/1 15/18/1 17/17/1 18/22/1
f 13/15/2 19/23/2 18/22/2 17/17/2
f 19/23/5 14/19/5 16/21/5 18/22/5
f 20/24/1 136/25/1 14/19/1 19/23/1
f 19/23/1 21/26/1 20/24/1
f 19/23/1 13/15/1 9/16/1 21/26/1
f 23/27/2 21/26/2 9/16/2
f 141/28/1 20/24/1 21/26/1 22/29/1
f 25/30/2 22/29/2 21/26/2 23/27/2
f 9/16/2 28/31/2 23/27/2
f 27/32/1 152/33/1 24/34/1 23/27/1
f 25/30/1 23/27/1 24/34/1 151/35/1
f 31/36/1 26/37/1 23/27/1 28/31/1
f 26/37/1 34/38/1 27/32/1 23/27/1
f 28/31/2 9/16/2 45/39/2 29/40/2
f 29/40/2 30/41/2 28/31/2
f 30/41/6 31/36/7 28/31/8
f 26/37/4 31/36/4 32/42/4 168/43/4
f 31/36/7 33/44/9 35/45/3 32/42/3
f 37/46/10 33/44/9 31/36/7 30/41/6
f 33/44/2 34/38/2 167/47/2 35/45/2
f 34/38/1 33/44/1 36/48/1 27/32/1
f 36/48/11 33/44/9 37/46/10
f 37/46/1 30/41/1 29/40/1 38/49/1
f 36/48/4 37/46/4 38/49/4
f 49/50/4 36/48/4 38/49/4 39/51/4
f 39/51/4 38/49/4 40/52/4 41/53/4
f 38/49/3 29/40/3 42/54/3 40/52/3
f 40/52/1 42/54/1 43/55/1 41/53/1
f 29/40/2 45/39/2 43/55/2 42/54/2
f 41/53/3 43/55/3 44/56/3 48/57/3
f 43/55/2 45/39/2 46/58/2 44/56/2
f 48/57/1 44/56/1 46/58/1 47/59/1
f 39/51/4 41/53/4 48/57/4 47/59/4
f 51/60/1 63/61/1 50/62/1 49/50/1
f 50/62/4 27/32/4 49/50/4
f 49/50/4 27/32/4 36/48/4
f 57/63/1 51/60/1 49/50/1 52/64/1
f 162/65/1 54/66/1 52/64/1 53/67/1
f 52/64/1 54/66/1 55/68/1
f 56/69/1 52/64/1 55/68/1
f 57/63/1 52/64/1 56/69/1
f 51/60/3 57/63/3 58/70/3 66/71/3
f 59/72/1 57/63/1 56/69/1 62/73/1
f 57/63/2 59/72/2 61/74/2 58/70/2
f 60/75/1 64/76/1 63/61/1 59/72/1
f 60/75/1 59/72/1 62/73/1 76/77/1
f 59/72/12 63/61/12 65/78/12 61/74/12
f 64/76/1 50/62/1 63/61/1
f 63/61/4 51/60/4 66/71/4 65/78/4
f 58/70/1 61/74/1 65/78/1 66/71/1
f 64/76/1 67/79/1 96/80/1 50/62/1
f 67/79/4 64/76/4 68/81/4 70/82/4
f 64/76/13 60/75/13 69/83/13 68/81/13
f 69/83/1 71/84/1 70/82/1 68/81/1
f 72/85/14 67/79/14 70/82/14 71/84/14
f 60/75/2 72/85/2 71/84/2 69/83/2
f 67/79/1 72/85/1 73/86/1 96/80/1
f 73/86/1 72/85/1 74/87/1
f 72/85/1 60/75/1 76/77/1 74/87/1
f 75/88/1 73/86/1 74/87/1
f 75/88/14 74/87/14 77/89/14 79/90/14
f 74/87/4 76/77/4 78/91/4 77/89/4
f 77/89/1 78/91/1 80/92/1 79/90/1
f 81/93/2 75/88/2 79/90/2 80/92/2
f 76/77/3 81/93/3 80/92/3 78/91/3
f 62/73/1 82/94/1 81/93/1 76/77/1
f 83/95/1 85/96/1 75/88/1 81/93/1
f 82/94/1 86/97/1 83/95/1 81/93/1
f 84/98/1 83/95/1 86/97/1 157/99/1
f 83/95/3 84/98/3 88/100/3 87/101/3
f 85/96/4 83/95/4 87/101/4 89/102/4
f 88/100/1 90/103/1 89/102/1 87/101/1
f 91/104/14 85/96/14 89/102/14 90/103/14
f 84/98/2 91/104/2 90/103/2 88/100/2
f 85/96/1 91/104/1 92/105/1 73/86/1
f 91/104/1 84/98/1 53/67/1 92/105/1
f 149/106/4 93/107/4 92/105/4 53/108/4
f 93/107/3 97/109/3 94/110/3 92/105/3
f 94/110/1 73/86/1 92/105/1
f 95/111/4 96/80/4 94/110/4
f 94/110/4 97/109/4 99/112/4 95/111/4
f 73/86/1 94/110/1 96/80/1
f 93/107/15 149/113/15 98/114/15 97/109/15
f 97/109/4 98/114/4 102/115/4 99/112/4
f 103/116/15 100/117/15 99/112/15 102/115/15
f 99/112/16 100/117/16 142/118/16 101/119/16
f 143/120/17 95/111/17 99/112/17 101/119/17
f 100/117/2 103/116/2 104/121/2 105/122/2
f 105/122/15 104/121/15 6/123/15 107/10/15
f 105/122/2 106/124/2 25/30/2 100/117/2
f 105/122/3 107/10/3 5/8/3 106/124/3
f 106/124/2 22/29/2 25/30/2
f 106/124/1 108/125/1 22/29/1
f 5/8/1 108/125/1 106/124/1
f 109/126/1 141/28/1 22/29/1 108/125/1
f 128/7/1 110/127/1 108/125/1 5/8/1
f 109/126/1 108/125/1 111/128/1
f 108/125/1 110/127/1 112/129/1
f 111/128/1 108/125/1 112/129/1
f 110/127/1 118/130/1 114/131/1 112/129/1
f 111/128/14 112/129/14 113/132/14 135/133/14
f 112/129/4 114/131/4 116/134/4 113/132/4
f 114/131/3 115/135/3 134/136/3 116/134/3
f 115/135/1 114/131/1 117/137/1 129/20/1
f 114/131/1 118/130/1 120/138/1 117/137/1
f 118/130/2 110/127/2 125/139/2 119/140/2
f 4/6/3 118/130/3 119/140/3 126/141/3
f 118/130/1 4/6/1 3/5/1 120/138/1
f 11/1/2 120/138/2 121/142/2 123/143/2
f 120/138/1 11/1/1 10/14/1 117/137/1
f 120/138/14 3/5/14 122/144/14 121/142/14
f 122/144/1 124/145/1 123/143/1 121/142/1
f 2/2/3 11/1/3 123/143/3 124/145/3
f 3/5/4 2/2/4 124/145/4 122/144/4
f 127/146/1 126/141/1 119/140/1 125/139/1
f 128/7/4 4/6/4 126/141/4 127/146/4
f 110/127/14 128/7/14 127/146/14 125/139/14
f 117/137/4 10/14/4 132/147/4 130/148/4
f 129/20/14 117/137/14 130/148/14 131/149/14
f 133/150/1 131/149/1 130/148/1 132/147/1
f 10/14/3 8/13/3 133/150/3 132/147/3
f 8/13/2 129/20/2 131/149/2 133/150/2
f 14/19/1 136/25/1 115/135/1 129/20/1
f 134/136/1 135/133/1 113/132/1 116/134/1
f 115/135/2 111/128/2 135/133/2 134/136/2
f 136/25/1 109/126/1 111/128/1 115/135/1
f 109/126/4 136/25/4 137/151/4 138/152/4
f 136/25/18 20/24/18 139/153/18 137/151/18
f 138/152/1 137/151/1 139/153/1 140/154/1
f 20/24/2 141/28/2 140/154/2 139/153/2
f 141/28/14 109/126/14 138/152/14 140/154/14
f 101/119/15 142/118/15 146/155/15 144/156/15
f 143/120/4 101/119/4 144/156/4 145/157/4
f 147/158/3 145/157/3 144/156/3 146/155/3
f 147/158/2 146/155/2 142/118/2 148/159/2
f 148/159/1 143/120/1 145/157/1 147/158/1
f 25/30/19 148/159/19 142/118/19 100/117/19
f 25/30/20 95/111/20 143/120/20 148/159/20
f 95/111/4 27/32/4 50/62/4 96/80/4
f 95/111/1 150/160/1 152/33/1 27/32/1
f 151/35/1 150/160/1 95/111/1 25/30/1
f 150/160/14 151/35/14 155/161/14 153/162/14
f 152/33/2 150/160/2 153/162/2 154/163/2
f 154/163/1 153/162/1 155/161/1 156/164/1
f 151/35/4 24/34/4 156/164/4 155/161/4
f 24/34/3 152/33/3 154/163/3 156/164/3
f 157/99/14 86/97/14 158/165/14 160/166/14
f 54/66/1 86/97/1 82/94/1 55/68/1
f 86/97/4 54/66/4 159/167/4 158/165/4
f 161/168/1 160/166/1 158/165/1 159/167/1
f 162/65/2 157/99/2 160/166/2 161/168/2
f 54/66/3 162/65/3 161/168/3 159/167/3
f 157/99/1 162/65/1 53/67/1
f 157/99/1 53/67/1 84/98/1
f 85/96/1 73/86/1 75/88/1
f 82/94/14 62/73/14 164/169/14 163/170/14
f 55/68/2 82/94/2 163/170/2 165/171/2
f 164/169/1 166/172/1 165/171/1 163/170/1
f 56/69/3 55/68/3 165/171/3 166/172/3
f 62/73/4 56/69/4 166/172/4 164/169/4
f 168/43/1 32/42/1 35/45/1 167/47/1
f 34/38/14 26/37/14 168/43/14 167/47/14
