# Blender 4.4.1
# www.blender.org
o City_Gate
v 0.294463 0.003158 0.439471
v 0.354242 0.003158 0.275227
v 0.294463 0.818116 0.439471
v 0.326022 0.003158 0.450957
v 0.316778 0.796207 0.447593
v 0.385802 0.003158 0.286714
v 0.376558 0.796207 0.283349
v 0.817456 0.796207 0.443823
v 0.354242 0.818116 0.275227
v 0.839772 0.818116 0.451945
v 0.779992 0.818116 0.616189
v 0.839772 0.003158 0.451945
v 0.779992 0.003158 0.616189
v 0.808212 0.003158 0.440459
v 0.748433 0.003158 0.604702
v 0.757676 0.796207 0.608066
v -0.838579 0.000000 0.211630
v -0.670863 0.000000 0.157795
v -0.838579 1.390370 0.211629
v -0.838579 0.000000 0.098720
v -0.838579 1.390370 0.098720
v -0.838579 1.550483 0.098720
v -0.838579 1.550483 0.211629
v -0.670863 1.550483 0.044885
v -0.670863 1.550483 0.157794
v -0.503148 1.550483 -0.009173
v -0.503148 1.550483 0.103735
v -0.335431 1.550483 -0.056455
v -0.167716 1.550483 -0.089958
v -0.335431 1.550483 0.056454
v -0.167716 1.550483 0.022951
v -0.335431 1.390370 0.056454
v -0.167716 1.390370 0.022951
v -0.503148 1.390370 0.103735
v -0.335431 0.000000 0.056455
v -0.335431 1.390370 -0.056455
v -0.335431 -0.000000 -0.056454
v -0.167716 1.390370 -0.089958
v -0.067597 1.390370 -0.097553
v -0.068091 1.550483 -0.097516
v -0.067597 1.390370 0.015356
v -0.068091 1.550483 0.015393
v -0.503148 0.000000 0.103736
v -0.670863 1.390370 0.157794
v 0.838578 0.000000 0.211630
v 0.670862 0.000000 0.157795
v 0.838578 1.390370 0.211629
v 0.838578 0.000000 0.098720
v 0.838578 1.390370 0.098720
v 0.838578 1.550483 0.098720
v 0.838578 1.550483 0.211629
v 0.670862 1.550483 0.044885
v 0.503147 1.550483 -0.009173
v 0.670862 1.550483 0.157794
v 0.503147 1.550483 0.103735
v 0.670862 1.390370 0.157794
v 0.503147 1.390370 0.103735
v 0.503147 0.000000 0.103736
v 0.335431 1.390370 0.056454
v 0.167716 1.390370 0.022951
v 0.335431 1.390370 -0.056455
v 0.335431 1.550483 0.056454
v 0.335431 0.000000 0.056455
v 0.335431 -0.000000 -0.056454
v 0.335431 1.550483 -0.056455
v 0.167716 1.550483 0.022951
v 0.167716 1.550483 -0.089958
v 0.068090 1.550483 0.015393
v 0.068090 1.550483 -0.097516
v 0.067596 1.390370 0.015356
v 0.067596 1.390370 -0.097553
v 0.167716 1.390370 -0.089958
v -0.335431 -0.004851 0.056455
v -0.335431 -0.004851 0.113658
v -0.335431 1.371187 0.056454
v -0.167716 1.371187 0.022951
v -0.335431 1.371187 0.113658
v -0.167716 1.371187 0.080155
v -0.335431 1.404249 0.113658
v -0.377361 1.371187 0.125479
v -0.377361 1.371187 0.068274
v -0.377361 -0.004851 0.125479
v -0.377361 1.404249 0.125479
v -0.377361 1.404249 0.068274
v -0.335431 1.404249 0.056454
v -0.167716 1.404249 0.022951
v -0.000000 1.404249 0.010227
v -0.167716 1.404249 0.080155
v -0.000000 1.404249 0.067432
v 0.167716 1.404249 0.080155
v -0.000000 1.371187 0.067432
v 0.167716 1.371187 0.080155
v -0.000000 1.371187 0.010227
v 0.167716 1.371187 0.022951
v 0.335431 1.371187 0.056454
v 0.335431 -0.004851 0.056455
v 0.335431 1.371187 0.113658
v 0.377360 1.371187 0.125479
v 0.335431 -0.004851 0.113658
v 0.335431 1.404249 0.113658
v 0.335431 1.404249 0.056454
v 0.377360 1.404249 0.125479
v 0.377360 1.404249 0.068274
v 0.377360 1.371187 0.068274
v 0.377360 -0.004851 0.068274
v 0.377360 -0.004851 0.125479
v 0.167716 1.404249 0.022951
v -0.377361 -0.004851 0.068274
v -0.000000 1.489723 0.039648
v 0.033450 1.514022 0.039648
v -0.000000 1.584837 0.039648
v -0.033451 1.514022 0.039648
v -0.003523 1.490713 0.033036
v 0.029928 1.515013 0.033036
v -0.036973 1.515013 0.033036
v -0.070424 1.539788 0.033036
v -0.066902 1.538797 0.039648
v -0.103875 1.559411 0.033036
v -0.137325 1.571086 0.033036
v -0.100352 1.558420 0.039648
v -0.133802 1.570097 0.039648
v -0.100352 1.651535 0.039648
v -0.133802 1.663211 0.039648
v -0.066902 1.631912 0.039648
v -0.100352 1.651535 0.039648
v -0.133802 1.663211 0.039648
v -0.066902 1.631912 0.039648
v -0.103875 1.652525 0.033036
v -0.137325 1.664202 0.033036
v -0.070424 1.632902 0.033036
v -0.036973 1.610033 0.033036
v -0.003523 1.585827 0.033036
v -0.033451 1.609043 0.039648
v -0.033451 1.609043 0.039648
v -0.000000 1.584837 0.039648
v 0.033450 1.609043 0.039648
v 0.066901 1.631912 0.039648
v 0.033450 1.609043 0.039648
v 0.029928 1.610033 0.033036
v 0.063378 1.632902 0.033036
v 0.096829 1.652525 0.033036
v 0.130278 1.664202 0.033036
v 0.100351 1.651535 0.039648
v 0.133801 1.663211 0.039648
v 0.100351 1.651535 0.039648
v 0.066901 1.631912 0.039648
v 0.100351 1.558420 0.039648
v 0.133801 1.663211 0.039648
v 0.133801 1.570097 0.039648
v 0.167251 1.666065 0.039648
v 0.167251 1.574201 0.039648
v 0.167251 1.666065 0.039648
v 0.163728 1.667055 0.033036
v 0.163728 1.575191 0.033036
v 0.163728 1.667055 0.033036
v 0.130278 1.571086 0.033036
v 0.096829 1.559411 0.033036
v 0.063378 1.539788 0.033036
v 0.066901 1.538797 0.039648
v -0.170775 1.667055 0.033036
v -0.167252 1.666065 0.039648
v -0.170775 1.667055 0.033036
v -0.167252 1.666065 0.039648
v -0.170775 1.575191 0.033036
v -0.167252 1.574201 0.039648
v -0.000000 1.444639 0.033964
v 0.036631 1.471249 0.033964
v -0.000000 1.548799 0.033964
v -0.036632 1.471249 0.033964
v -0.003858 1.445724 0.026722
v 0.032774 1.472333 0.026722
v -0.040490 1.472333 0.026722
v -0.077121 1.499465 0.026722
v -0.073264 1.498380 0.033964
v -0.113754 1.520954 0.026722
v -0.150384 1.533741 0.026722
v -0.109895 1.519870 0.033964
v -0.146528 1.532656 0.033964
v -0.109895 1.621841 0.033964
v -0.109895 1.621841 0.033964
v -0.146528 1.634627 0.033964
v -0.073264 1.600351 0.033964
v -0.036632 1.575307 0.033964
v -0.073264 1.600351 0.033964
v -0.036632 1.575307 0.033964
v -0.077121 1.601435 0.026722
v -0.113754 1.622925 0.026722
v -0.040490 1.576391 0.026722
v -0.003858 1.549883 0.026722
v -0.000000 1.548799 0.033964
v 0.032774 1.576391 0.026722
v 0.036631 1.575307 0.033964
v 0.069405 1.601435 0.026722
v 0.073263 1.600351 0.033964
v 0.106038 1.622925 0.026722
v 0.142668 1.635711 0.026722
v 0.109894 1.621841 0.033964
v 0.146527 1.634627 0.033964
v 0.109894 1.621841 0.033964
v 0.146527 1.634627 0.033964
v 0.073263 1.600351 0.033964
v 0.109894 1.519870 0.033964
v 0.073263 1.498380 0.033964
v 0.106038 1.520954 0.026722
v 0.146527 1.532656 0.033964
v 0.183158 1.537151 0.033964
v 0.142668 1.533741 0.026722
v 0.179301 1.538235 0.026722
v 0.179301 1.638837 0.026722
v 0.179301 1.638837 0.026722
v 0.183158 1.637753 0.033964
v 0.183158 1.637753 0.033964
v 0.069405 1.499465 0.026722
v 0.036631 1.575307 0.033964
v -0.150384 1.635711 0.026722
v -0.146528 1.634627 0.033964
v -0.187016 1.638837 0.026722
v -0.183158 1.637753 0.033964
v -0.187016 1.638837 0.026722
v -0.183158 1.637753 0.033964
v -0.187016 1.538235 0.026722
v -0.183158 1.537151 0.033964
v 0.326151 0.183236 0.589405
v 0.309394 0.000654 0.550282
v 0.309744 0.465469 0.634481
v 0.659340 0.183236 0.710676
v 0.331012 0.183236 0.576047
v 0.664203 0.183236 0.697317
v 0.314606 0.465469 0.621122
v 0.647796 0.465469 0.742394
v 0.642934 0.465469 0.755752
v 0.655426 0.721447 0.806598
v 0.697325 0.000654 0.691477
v 0.852989 0.612873 0.263798
v 0.267493 0.721447 0.665402
v 0.465056 0.612873 0.122602
v 0.465056 0.000654 0.122602
v 0.852989 0.000654 0.263798
v -0.027254 1.360463 0.116803
v -0.033227 1.354491 0.089548
v -0.033227 1.387718 0.122775
v -0.000000 1.354491 0.122775
v 0.027254 1.360463 0.116803
v -0.000000 1.387718 0.135309
v -0.000000 1.341957 0.089548
v 0.033227 1.354491 0.089548
v 0.045760 1.387718 0.089548
v 0.033227 1.420944 0.089548
v 0.033227 1.387718 0.122775
v 0.027254 1.414972 0.116803
v -0.000000 1.420944 0.122775
v -0.000000 1.433478 0.089548
v -0.027254 1.414972 0.116803
v -0.033227 1.420944 0.089548
v -0.045761 1.387718 0.089548
v -0.000000 1.445740 0.068006
v 0.041028 1.428746 0.068006
v -0.000000 1.445740 0.095563
v -0.041028 1.428746 0.068006
v -0.058024 1.387718 0.068006
v -0.041028 1.428746 0.095563
v -0.058024 1.387718 0.095563
v -0.030294 1.418010 0.095563
v -0.042840 1.387718 0.095563
v -0.000000 1.430558 0.095563
v 0.030293 1.418010 0.095563
v 0.042840 1.387718 0.095563
v 0.041028 1.428746 0.095563
v 0.058023 1.387718 0.095563
v 0.058023 1.387718 0.068006
v 0.041028 1.346689 0.095563
v 0.041028 1.346689 0.068006
v -0.000000 1.329695 0.095563
v 0.030293 1.357425 0.095563
v -0.000000 1.344877 0.095563
v -0.030294 1.357425 0.095563
v -0.041028 1.346689 0.095563
v -0.041028 1.346689 0.068006
v -0.000000 1.329695 0.068006
v 0.220197 0.002287 0.262686
v 0.336382 0.002287 0.262686
v 0.220197 0.208983 0.262686
v 0.220197 0.002287 0.146502
v 0.220197 0.208983 0.146502
v 0.336382 0.002287 0.146502
v 0.336382 0.208983 0.146502
v 0.336382 0.208983 0.262686
v 0.334470 0.209065 0.148413
v 0.334470 0.209065 0.260775
v 0.334470 0.213921 0.148413
v 0.222108 0.209065 0.148413
v 0.222108 0.213921 0.148413
v 0.222108 0.209065 0.260775
v 0.222108 0.213921 0.260775
v 0.334470 0.213921 0.260775
v 0.220197 0.214004 0.262686
v 0.220197 0.281229 0.262686
v 0.220197 0.214004 0.146502
v 0.336382 0.214004 0.262686
v 0.336382 0.214004 0.146502
v 0.336382 0.281229 0.262686
v 0.336382 0.281229 0.146502
v 0.220197 0.281229 0.146502
vn -0.9397 -0.0000 -0.3420
vn -0.3420 -0.0000 0.9397
vn 0.9396 0.0124 0.3420
vn 0.3420 -0.0000 -0.9397
vn -0.0000 -1.0000 -0.0000
vn -0.0000 1.0000 -0.0000
vn 0.9397 -0.0000 0.3420
vn -0.9396 0.0124 -0.3420
vn 0.3062 -0.0000 0.9520
vn 0.3056 -0.0000 0.9522
vn -1.0000 -0.0000 -0.0000
vn 0.1959 -0.0000 0.9806
vn 0.2713 -0.0000 0.9625
vn 1.0000 -0.0000 -0.0000
vn 1.0000 0.0031 -0.0000
vn 0.0756 -0.0000 0.9971
vn 0.3068 -0.0000 0.9518
vn -0.3056 -0.0000 0.9522
vn -0.3062 -0.0000 0.9520
vn -0.3068 -0.0000 0.9518
vn -0.2713 -0.0000 0.9625
vn -0.1959 -0.0000 0.9806
vn -0.0756 -0.0000 0.9971
vn -1.0000 0.0031 -0.0000
vn 0.5398 -0.7416 -0.3984
vn 0.5391 -0.7421 -0.3984
vn 0.5448 -0.7368 -0.4004
vn -0.0000 -0.0000 1.0000
vn -0.5772 -0.7946 0.1885
vn -0.5831 -0.7893 0.1924
vn -0.5780 -0.7938 0.1892
vn -0.5840 -0.7885 0.1929
vn -0.5011 -0.8542 0.1389
vn -0.3294 -0.9436 0.0342
vn -0.9441 0.3296 -0.0000
vn -0.8625 0.5060 -0.0000
vn 0.3294 0.9436 -0.0341
vn 0.5011 0.8542 -0.1390
vn 0.5557 0.8129 -0.1743
vn 0.5758 0.7957 -0.1877
vn -0.8255 0.5644 -0.0000
vn -0.8101 0.5863 -0.0000
vn -0.8101 0.5862 -0.0000
vn -0.5379 0.7433 0.3978
vn 0.8101 0.5862 -0.0000
vn 0.8102 0.5862 -0.0000
vn -0.5195 0.7599 0.3906
vn 0.8255 0.5644 -0.0000
vn 0.8255 0.5643 -0.0000
vn -0.4700 0.8012 0.3704
vn -0.3142 0.9000 0.3022
vn 0.9441 0.3296 -0.0000
vn 0.9442 0.3295 -0.0000
vn 0.8625 0.5060 -0.0000
vn 0.8626 0.5060 -0.0000
vn 0.9964 0.0850 -0.0000
vn 0.8825 -0.0000 -0.4702
vn -0.8293 0.2331 -0.5078
vn -0.8293 0.2331 0.5078
vn -0.0834 0.9780 0.1910
vn 0.1191 -0.9707 -0.2087
vn 0.3142 -0.9000 -0.3021
vn 0.4700 -0.8012 -0.3704
vn 0.5453 -0.7362 -0.4008
vn 0.0845 0.9910 0.1034
vn -0.8825 -0.0000 0.4702
vn -0.1214 -0.9891 -0.0833
vn -0.9964 0.0851 -0.0000
vn -0.9964 0.0850 -0.0000
vn 0.5395 -0.7416 -0.3986
vn 0.5391 -0.7421 -0.3983
vn 0.5447 -0.7368 -0.4006
vn -0.5831 -0.7893 0.1925
vn -0.5780 -0.7938 0.1891
vn -0.5840 -0.7885 0.1930
vn -0.5011 -0.8542 0.1390
vn -0.3294 -0.9436 0.0341
vn -0.9441 0.3295 -0.0000
vn 0.5011 0.8541 -0.1391
vn 0.5557 0.8129 -0.1744
vn 0.5758 0.7957 -0.1876
vn -0.5379 0.7433 0.3977
vn -0.5196 0.7600 0.3905
vn -0.5196 0.7598 0.3908
vn -0.4700 0.8012 0.3703
vn -0.3142 0.9000 0.3021
vn 0.9441 0.3295 -0.0000
vn 0.4700 -0.8012 -0.3703
vn 0.1191 -0.9707 -0.2088
vn 0.8826 -0.0000 -0.4701
vn -0.8293 0.2330 -0.5079
vn -0.8293 0.2331 0.5079
vn -0.0835 0.9781 0.1909
vn 0.5453 -0.7363 -0.4007
vn 0.3294 0.9436 -0.0342
vn 0.0846 0.9910 0.1033
vn -0.8826 -0.0000 0.4701
vn -0.1214 -0.9891 -0.0835
vn -0.3372 -0.1676 0.9264
vn 0.0632 0.9828 -0.1736
vn -0.3061 -0.9015 0.3061
vn -0.9015 -0.3061 0.3061
vn -0.3061 -0.3061 0.9015
vn 0.3061 -0.9015 0.3061
vn 0.3060 -0.3061 0.9015
vn 0.9015 -0.3061 0.3061
vn 0.9015 0.3061 0.3060
vn 0.3060 0.3061 0.9015
vn 0.3061 0.9015 0.3061
vn -0.3061 0.3061 0.9015
vn -0.3061 0.9015 0.3061
vn -0.9015 0.3061 0.3061
vn 0.3827 0.9239 -0.0000
vn -0.3827 0.9239 -0.0000
vn -0.9239 0.3827 -0.0000
vn 0.9239 0.3827 -0.0000
vn 0.9239 -0.3827 -0.0000
vn 0.3827 -0.9239 -0.0000
vn -0.3827 -0.9239 -0.0000
vn -0.9239 -0.3827 -0.0000
vn -0.0000 -0.0000 -1.0000
vn -0.0000 0.9991 -0.0435
vn 0.0428 0.9991 -0.0000
vn -0.0429 0.9991 -0.0000
vn -0.0000 0.9991 0.0432
vn -0.0000 0.9991 0.0429
vn -0.0000 -0.9991 0.0434
vn -0.0431 -0.9991 -0.0000
vn 0.0430 -0.9991 -0.0000
vn -0.0000 -0.9991 -0.0434
vt 0.600626 0.006246
vt 0.648227 0.010712
vt 0.647269 0.020921
vt 0.599668 0.016455
vt 0.600810 0.004285
vt 0.647077 0.009205
vt 0.418578 0.280051
vt 0.411798 0.272359
vt 0.446702 0.241593
vt 0.453482 0.249285
vt 0.645859 0.022188
vt 0.599484 0.018417
vt 0.677448 0.023752
vt 0.675941 0.024902
vt 0.648536 0.022331
vt 0.467351 0.223392
vt 0.474131 0.231084
vt 0.678406 0.013543
vt 0.725049 0.028217
vt 0.726006 0.018009
vt 0.724864 0.030179
vt 0.678598 0.025259
vt 0.502255 0.192626
vt 0.509035 0.200318
vt 0.679815 0.012276
vt 0.726190 0.016047
vt 0.649734 0.009562
vt 0.677139 0.012133
vt 0.397568 0.297831
vt 0.351426 0.230567
vt 0.360582 0.225219
vt 0.406062 0.291885
vt 0.366361 0.221796
vt 0.411472 0.287990
vt 0.357256 0.216789
vt 0.363093 0.213762
vt 0.344612 0.217406
vt 0.352734 0.212404
vt 0.348788 0.222053
vt 0.337573 0.221695
vt 0.340569 0.226846
vt 0.332076 0.223172
vt 0.332377 0.229958
vt 0.325483 0.219635
vt 0.324482 0.226536
vt 0.321567 0.234562
vt 0.332293 0.240677
vt 0.341963 0.235731
vt 0.325590 0.244386
vt 0.316887 0.239425
vt 0.389086 0.303717
vt 0.380934 0.309758
vt 0.375529 0.313687
vt 0.327455 0.245316
vt 0.311854 0.236288
vt 0.315906 0.231717
vt 0.309911 0.227973
vt 0.314323 0.220545
vt 0.319653 0.223886
vt 0.319903 0.218038
vt 0.069329 0.220924
vt 0.055177 0.301090
vt 0.044788 0.299738
vt 0.059086 0.219157
vt 0.075894 0.222140
vt 0.061792 0.302038
vt 0.061193 0.310790
vt 0.054738 0.310118
vt 0.052142 0.315622
vt 0.042838 0.314122
vt 0.044575 0.308293
vt 0.034889 0.313320
vt 0.034941 0.307171
vt 0.034166 0.298528
vt 0.048871 0.217515
vt 0.026736 0.307883
vt 0.023405 0.297406
vt 0.038826 0.215873
vt 0.009636 0.301108
vt 0.016564 0.295085
vt 0.015031 0.305154
vt 0.019317 0.313518
vt 0.017041 0.295172
vt 0.032368 0.214560
vt 0.028480 0.314619
vt 0.021449 0.319963
vt 0.016031 0.322289
vt 0.014506 0.316332
vt 0.009846 0.308696
vt 0.004251 0.312880
vt 0.009356 0.320007
vt 0.005137 0.304661
vt 0.542392 0.037034
vt 0.528569 0.091191
vt 0.525050 0.092309
vt 0.538731 0.036459
vt 0.526880 0.095713
vt 0.520701 0.104463
vt 0.517924 0.102036
vt 0.522568 0.090893
vt 0.535978 0.036272
vt 0.516217 0.100882
vt 0.522508 0.092032
vt 0.520095 0.090083
vt 0.519487 0.089008
vt 0.532616 0.034932
vt 0.518980 0.088115
vt 0.518772 0.091295
vt 0.519080 0.090148
vt 0.512856 0.099313
vt 0.507084 0.108455
vt 0.510301 0.110355
vt 0.512144 0.111460
vt 0.501792 0.117884
vt 0.504814 0.120022
vt 0.506631 0.121085
vt 0.515376 0.113362
vt 0.510108 0.122324
vt 0.505438 0.131887
vt 0.501565 0.131922
vt 0.504266 0.134518
vt 0.458243 0.209784
vt 0.455175 0.207753
vt 0.498984 0.130707
vt 0.498284 0.129356
vt 0.500302 0.129982
vt 0.452678 0.206480
vt 0.496895 0.128162
vt 0.497752 0.127163
vt 0.495674 0.128973
vt 0.496180 0.127829
vt 0.449335 0.204901
vt 0.703676 0.005636
vt 0.701950 0.004630
vt 0.701790 0.004271
vt 0.703693 0.005166
vt 0.704843 0.010937
vt 0.702268 0.010170
vt 0.700390 0.005813
vt 0.699767 0.011208
vt 0.700087 0.005533
vt 0.698465 0.006715
vt 0.698187 0.006389
vt 0.696386 0.007234
vt 0.696122 0.006874
vt 0.694316 0.007380
vt 0.694073 0.006984
vt 0.695128 0.012554
vt 0.693049 0.012723
vt 0.697375 0.011989
vt 0.694937 0.012981
vt 0.692784 0.013097
vt 0.697235 0.012439
vt 0.699655 0.011671
vt 0.702121 0.010613
vt 0.704842 0.010937
vt 0.704631 0.011316
vt 0.707294 0.011479
vt 0.707106 0.011873
vt 0.709579 0.011835
vt 0.709418 0.012238
vt 0.711662 0.011804
vt 0.711552 0.012226
vt 0.707822 0.006648
vt 0.705694 0.006331
vt 0.709902 0.006603
vt 0.711868 0.006265
vt 0.713582 0.011331
vt 0.712316 0.006222
vt 0.714010 0.011204
vt 0.713556 0.011677
vt 0.709706 0.006212
vt 0.711641 0.005911
vt 0.707690 0.006218
vt 0.705636 0.005880
vt 0.691082 0.012414
vt 0.690797 0.012764
vt 0.690646 0.012322
vt 0.692328 0.007241
vt 0.691879 0.007237
vt 0.692106 0.006842
vt 0.331043 0.006851
vt 0.329575 0.005273
vt 0.329524 0.004843
vt 0.331205 0.006362
vt 0.330584 0.012768
vt 0.328109 0.011152
vt 0.327584 0.005976
vt 0.325141 0.011387
vt 0.327367 0.005581
vt 0.325289 0.006251
vt 0.325111 0.005817
vt 0.322947 0.006085
vt 0.322788 0.005620
vt 0.320731 0.005553
vt 0.320596 0.005058
vt 0.319858 0.011231
vt 0.317637 0.010714
vt 0.322385 0.011392
vt 0.322083 0.011814
vt 0.319509 0.011611
vt 0.324865 0.011832
vt 0.327808 0.011568
vt 0.330583 0.012768
vt 0.330243 0.013101
vt 0.332990 0.014106
vt 0.332671 0.014461
vt 0.335274 0.015199
vt 0.334983 0.015574
vt 0.337470 0.015820
vt 0.337227 0.016228
vt 0.335275 0.015199
vt 0.337471 0.015820
vt 0.332990 0.014105
vt 0.337264 0.009804
vt 0.335069 0.009187
vt 0.332934 0.008194
vt 0.333013 0.007701
vt 0.335068 0.008696
vt 0.337192 0.009332
vt 0.339427 0.010093
vt 0.339646 0.015903
vt 0.339315 0.009651
vt 0.339908 0.010208
vt 0.340133 0.015884
vt 0.339475 0.016316
vt 0.317229 0.011012
vt 0.315689 0.009726
vt 0.315274 0.009993
vt 0.315275 0.009469
vt 0.318691 0.004779
vt 0.318216 0.004645
vt 0.318578 0.004289
vt 0.888619 0.226128
vt 0.867784 0.230349
vt 0.864131 0.219894
vt 0.888175 0.215353
vt 0.871096 0.247602
vt 0.872267 0.262891
vt 0.868404 0.230770
vt 0.871292 0.246793
vt 0.888209 0.226778
vt 0.891267 0.242936
vt 0.891740 0.243588
vt 0.896248 0.258368
vt 0.938777 0.292151
vt 0.902713 0.292345
vt 0.938649 0.265358
vt 0.878787 0.296884
vt 0.835433 0.285052
vt 0.845199 0.310005
vt 0.885500 0.332286
vt 0.909388 0.327767
vt 0.681271 0.005351
vt 0.684005 0.004283
vt 0.683896 0.006355
vt 0.682261 0.006451
vt 0.681994 0.008066
vt 0.679921 0.007957
vt 0.683800 0.008162
vt 0.686611 0.005633
vt 0.685511 0.006623
vt 0.685607 0.008257
vt 0.687679 0.008367
vt 0.686329 0.010972
vt 0.685339 0.009872
vt 0.683705 0.009968
vt 0.683595 0.012041
vt 0.682089 0.009701
vt 0.680990 0.010690
vt 0.792168 0.010909
vt 0.790640 0.011497
vt 0.789842 0.009100
vt 0.791222 0.008336
vt 0.777096 0.009205
vt 0.778584 0.009885
vt 0.778143 0.012331
vt 0.776446 0.011942
vt 0.778676 0.006743
vt 0.779824 0.007886
vt 0.779397 0.010176
vt 0.779076 0.012110
vt 0.780461 0.008471
vt 0.789720 0.011399
vt 0.789099 0.009501
vt 0.788332 0.007295
vt 0.787789 0.007963
vt 0.789388 0.006079
vt 0.786278 0.006180
vt 0.786821 0.004658
vt 0.786018 0.007005
vt 0.783960 0.005902
vt 0.783904 0.004285
vt 0.784022 0.006765
vt 0.781703 0.006498
vt 0.782078 0.007278
vt 0.781055 0.005016
vt 0.937365 0.059531
vt 0.930963 0.069829
vt 0.925174 0.066230
vt 0.931576 0.055932
vt 0.908743 0.061259
vt 0.919042 0.067661
vt 0.915443 0.073449
vt 0.905145 0.067047
vt 0.910471 0.089880
vt 0.916874 0.079582
vt 0.922662 0.083181
vt 0.916260 0.093479
vt 0.939093 0.088152
vt 0.928795 0.081750
vt 0.932394 0.075962
vt 0.942692 0.082364
vt 0.917028 0.079546
vt 0.922626 0.083027
vt 0.928759 0.081596
vt 0.932239 0.075998
vt 0.928517 0.081445
vt 0.931997 0.075847
vt 0.917178 0.079304
vt 0.922776 0.082785
vt 0.919320 0.067966
vt 0.915839 0.073564
vt 0.915597 0.073413
vt 0.919078 0.067815
vt 0.930658 0.070107
vt 0.925060 0.066627
vt 0.925210 0.066385
vt 0.930809 0.069865
vt 0.930694 0.070261
vt 0.924906 0.066663
vt 0.919474 0.067930
vt 0.915875 0.073718
vt 0.928612 0.073611
vt 0.922823 0.070012
vt 0.919225 0.075801
vt 0.928362 0.081481
vt 0.931961 0.075693
vt 0.925013 0.079399
vt 0.917142 0.079150
vt 0.922931 0.082749
s 1
f 1/1/1 3/2/1 9/3/1 2/4/1
f 3/2/2 1/1/2 4/5/2 5/6/2
f 4/7/3 6/8/3 7/9/3 5/10/3
f 2/4/4 9/3/4 7/11/4 6/12/4
f 9/3/4 10/13/4 8/14/4 7/15/4
f 8/16/5 16/17/5 5/10/5 7/9/5
f 10/13/6 9/3/6 3/2/6 11/18/6
f 12/19/7 10/13/7 11/18/7 13/20/7
f 10/13/4 12/19/4 14/21/4 8/22/4
f 14/23/8 15/24/8 16/17/8 8/16/8
f 13/20/2 11/18/2 16/25/2 15/26/2
f 11/18/2 3/2/2 5/27/2 16/28/2
f 18/29/9 44/30/9 19/31/10 17/32/10
f 17/32/11 19/31/11 21/33/11 20/34/11
f 19/31/11 23/35/11 22/36/11 21/33/11
f 24/37/6 22/38/6 23/35/6 25/39/6
f 26/40/6 24/37/6 25/39/6 27/41/6
f 28/42/6 26/40/6 27/41/6 30/43/6
f 29/44/6 28/42/6 30/43/6 31/45/6
f 33/46/12 31/45/12 30/43/12 32/47/12
f 32/47/13 30/43/13 27/41/13 34/48/13
f 36/49/5 38/50/5 33/46/5 32/47/5
f 34/48/13 43/51/13 35/52/13 32/47/13
f 37/53/14 36/54/14 32/47/14 35/52/14
f 38/50/5 39/55/5 41/56/5 33/46/5
f 39/57/15 40/58/15 42/59/15 41/56/15
f 41/56/16 42/59/16 31/45/16 33/46/16
f 40/60/6 29/44/6 31/45/6 42/59/6
f 43/51/17 34/48/17 44/30/9 18/29/9
f 34/48/17 27/41/17 25/39/9 44/30/9
f 44/30/9 25/39/9 23/35/10 19/31/10
f 45/61/18 47/62/18 56/63/19 46/64/19
f 48/65/14 49/66/14 47/62/14 45/61/14
f 49/66/14 50/67/14 51/68/14 47/62/14
f 50/69/6 52/70/6 54/71/6 51/68/6
f 52/70/6 53/72/6 55/73/6 54/71/6
f 56/63/19 54/71/19 55/73/20 57/74/20
f 47/62/18 51/68/18 54/71/19 56/63/19
f 46/64/19 56/63/19 57/74/20 58/75/20
f 57/74/21 55/73/21 62/76/21 59/77/21
f 59/77/21 63/78/21 58/75/21 57/74/21
f 72/79/5 61/80/5 59/77/5 60/81/5
f 59/77/22 62/76/22 66/82/22 60/81/22
f 61/83/11 64/84/11 63/78/11 59/77/11
f 53/72/6 65/85/6 62/76/6 55/73/6
f 65/85/6 67/86/6 66/82/6 62/76/6
f 67/86/6 69/87/6 68/88/6 66/82/6
f 60/81/23 66/82/23 68/88/23 70/89/23
f 71/90/24 70/89/24 68/88/24 69/91/24
f 71/92/5 72/79/5 60/81/5 70/89/5
f 73/93/14 75/94/14 77/95/14 74/96/14
f 75/97/5 76/98/5 78/99/5 77/95/5
f 74/96/13 77/95/13 80/100/13 82/101/13
f 78/99/12 88/102/12 79/103/12 77/95/12
f 77/95/13 79/103/13 83/104/13 80/100/13
f 81/105/11 108/106/11 82/101/11 80/100/11
f 84/107/11 81/105/11 80/100/11 83/104/11
f 85/108/6 84/109/6 83/104/6 79/103/6
f 86/110/6 85/108/6 79/103/6 88/102/6
f 87/111/6 86/110/6 88/102/6 89/112/6
f 91/113/16 89/112/16 88/102/16 78/99/16
f 107/114/6 87/111/6 89/112/6 90/115/6
f 92/116/23 90/115/23 89/112/23 91/113/23
f 93/117/5 94/118/5 92/116/5 91/113/5
f 76/98/5 93/117/5 91/113/5 78/99/5
f 94/118/5 95/119/5 97/120/5 92/116/5
f 95/121/11 96/122/11 99/123/11 97/120/11
f 98/124/21 102/125/21 100/126/21 97/120/21
f 106/127/21 98/124/21 97/120/21 99/123/21
f 97/120/22 100/126/22 90/115/22 92/116/22
f 103/128/6 101/129/6 100/126/6 102/125/6
f 101/129/6 107/114/6 90/115/6 100/126/6
f 104/130/14 103/131/14 102/125/14 98/124/14
f 105/132/14 104/130/14 98/124/14 106/127/14
f 110/133/25 109/134/26 113/135/26 114/136/27
f 110/133/28 138/137/28 111/138/28 109/134/28
f 112/139/28 109/134/28 111/138/28 134/140/28
f 109/134/29 112/139/30 115/141/31 113/135/29
f 112/139/30 117/142/32 116/143/32 115/141/31
f 117/142/33 120/144/33 118/145/33 116/143/33
f 120/144/34 121/146/34 119/147/34 118/145/34
f 121/146/28 120/144/28 122/148/28 123/149/28
f 120/144/28 117/142/28 124/150/28 122/148/28
s 0
f 123/149/35 122/148/28 125/148/35 126/149/28
f 122/148/36 124/150/28 127/150/36 125/148/28
s 1
f 126/149/37 125/148/37 128/151/37 129/152/37
f 125/148/38 127/150/38 130/153/38 128/151/38
f 127/150/39 133/140/39 131/154/39 130/153/39
f 133/140/40 135/138/40 132/155/40 131/154/40
s 0
f 124/150/41 134/140/28 133/140/41 127/150/28
f 134/140/42 111/138/28 135/138/43 133/140/28
s 1
f 135/138/44 136/156/44 139/157/44 132/155/44
s 0
f 111/138/45 138/137/28 136/156/46 135/138/28
s 1
f 136/156/47 137/158/47 140/159/47 139/157/47
s 0
f 138/137/48 146/158/28 137/158/49 136/156/28
s 1
f 137/158/50 143/160/50 141/161/50 140/159/50
f 143/160/51 144/162/51 142/163/51 141/161/51
s 0
f 145/160/52 148/162/28 144/162/53 143/160/28
f 146/158/54 145/160/28 143/160/55 137/158/28
s 1
f 147/164/28 145/160/28 146/158/28 159/165/28
f 149/166/28 148/162/28 145/160/28 147/164/28
f 151/167/28 150/168/28 148/162/28 149/166/28
s 0
f 148/162/56 150/168/28 152/168/56 144/162/28
s 1
f 150/168/57 151/167/57 154/169/57 153/170/57
s 0
f 152/168/28 150/168/58 153/171/28 155/171/59
s 1
f 144/162/60 152/168/60 155/171/60 142/163/60
f 151/167/61 149/166/61 156/172/61 154/173/61
f 149/166/62 147/164/62 157/174/62 156/172/62
f 147/164/63 159/165/63 158/175/63 157/174/63
f 159/165/64 110/133/25 114/136/27 158/175/64
f 159/165/28 146/158/28 138/137/28 110/133/28
f 117/142/28 112/139/28 134/140/28 124/150/28
f 161/176/65 126/149/65 129/152/65 160/177/65
s 0
f 163/176/28 161/176/58 160/178/28 162/178/59
s 1
f 165/179/66 163/176/66 162/178/66 164/180/66
f 121/146/67 165/179/67 164/181/67 119/147/67
f 165/179/28 121/146/28 123/149/28 163/176/28
s 0
f 163/176/68 123/149/28 126/149/69 161/176/28
s 1
f 167/182/70 166/183/71 170/184/71 171/185/72
f 167/182/28 214/186/28 168/187/28 166/183/28
f 169/188/28 166/183/28 168/187/28 183/189/28
f 166/183/29 169/188/73 172/190/74 170/184/29
f 169/188/73 174/191/75 173/192/75 172/190/74
f 174/191/76 177/193/76 175/194/76 173/192/76
f 177/193/77 178/195/77 176/196/77 175/194/77
f 178/195/28 177/193/28 179/197/28 181/198/28
f 177/193/28 174/191/28 182/199/28 179/197/28
s 0
f 179/197/36 182/199/28 184/199/36 180/197/28
f 181/198/35 179/197/28 180/197/78 216/198/28
s 1
f 174/191/28 169/188/28 183/189/28 182/199/28
s 0
f 182/199/41 183/189/28 185/189/41 184/199/28
s 1
f 180/197/79 184/199/79 186/200/79 187/201/79
f 184/199/80 185/189/80 188/202/80 186/200/80
f 185/189/81 190/187/81 189/203/81 188/202/81
f 190/187/82 192/204/82 191/205/82 189/203/82
f 192/204/83 194/206/83 193/207/84 191/205/84
f 194/206/85 197/208/85 195/209/85 193/207/85
f 197/208/86 198/210/86 196/211/86 195/209/86
s 0
f 199/212/87 200/213/28 198/210/53 197/208/28
f 201/214/54 199/212/28 197/208/55 194/206/28
s 1
f 205/215/28 200/213/28 199/212/28 202/216/28
f 202/216/28 199/212/28 201/214/28 203/217/28
f 202/216/88 203/217/88 213/218/88 204/219/88
f 205/215/62 202/216/62 204/219/62 207/220/62
f 206/221/28 211/222/28 200/213/28 205/215/28
f 206/221/89 205/215/89 207/220/89 208/223/89
f 211/222/90 206/221/90 208/224/90 209/225/90
s 0
f 212/222/28 211/222/91 209/226/28 210/226/92
f 200/213/56 211/222/28 212/222/56 198/210/28
s 1
f 198/210/93 212/222/93 210/226/93 196/211/93
f 203/217/94 167/182/70 171/185/72 213/218/94
f 203/217/28 201/214/28 214/186/28 167/182/28
s 0
f 214/186/48 201/214/28 194/206/49 192/204/28
f 168/187/45 214/186/28 192/204/46 190/187/28
f 183/189/42 168/187/28 190/187/43 185/189/28
s 1
f 216/198/95 180/197/95 187/201/95 215/227/95
f 218/228/96 216/198/96 215/227/96 217/229/96
s 0
f 220/228/28 218/228/91 217/230/28 219/230/92
s 1
f 222/231/97 220/228/97 219/230/97 221/232/97
f 178/195/98 222/231/98 221/233/98 176/196/98
f 222/231/28 178/195/28 181/198/28 220/228/28
s 0
f 220/228/68 181/198/28 216/198/69 218/228/28
s 1
f 226/234/99 223/235/99 224/236/99 233/237/99
f 223/235/99 225/238/99 235/239/99 224/236/99
f 225/238/7 223/235/7 227/240/7 229/241/7
f 223/235/6 226/234/6 228/242/6 227/240/6
f 228/242/99 230/243/99 229/241/99 227/240/99
f 231/244/5 225/238/5 229/241/5 230/243/5
f 226/234/1 231/244/1 230/243/1 228/242/1
f 231/244/99 226/234/99 233/237/99 232/245/99
f 225/238/99 231/244/99 232/245/99 235/239/99
f 238/246/7 234/247/7 232/245/7 233/248/7
f 234/247/100 236/249/100 235/239/100 232/245/100
f 224/250/1 235/239/1 236/249/1 237/251/1
f 237/252/4 236/249/4 234/247/4 238/253/4
f 240/254/101 245/255/101 242/256/101 239/257/101
f 239/257/102 241/258/102 255/259/102 240/254/102
f 242/256/103 244/260/103 241/258/103 239/257/103
f 245/255/104 246/261/104 243/262/104 242/256/104
f 243/262/105 249/263/105 244/260/105 242/256/105
f 246/261/106 247/264/106 249/263/106 243/262/106
f 247/264/107 248/265/107 250/266/107 249/263/107
f 249/263/108 250/266/108 251/267/108 244/260/108
f 248/265/109 252/268/109 251/267/109 250/266/109
f 244/260/110 251/267/110 253/269/110 241/258/110
f 252/268/111 254/270/111 253/269/111 251/267/111
f 241/258/112 253/269/112 254/270/112 255/259/112
f 256/271/113 258/272/113 268/273/113 257/274/113
f 259/275/114 261/276/114 258/277/114 256/278/114
f 260/279/115 262/280/115 261/276/115 259/275/115
f 258/277/28 261/276/28 263/281/28 265/282/28
f 261/276/28 262/280/28 264/283/28 263/281/28
f 268/273/28 258/272/28 265/284/28 266/285/28
f 269/286/28 268/273/28 266/285/28 267/287/28
f 257/274/116 268/273/116 269/286/116 270/288/116
f 270/288/117 269/286/117 271/289/117 272/290/117
f 271/289/28 269/286/28 267/287/28 274/291/28
f 272/290/118 271/289/118 273/292/118 279/293/118
f 273/292/28 271/289/28 274/291/28 275/294/28
f 277/295/28 273/292/28 275/294/28 276/296/28
f 262/280/28 277/295/28 276/296/28 264/283/28
f 279/293/119 273/292/119 277/295/119 278/297/119
f 278/297/120 277/295/120 262/280/120 260/279/120
f 281/298/28 287/299/28 282/300/28 280/301/28
f 280/302/11 282/303/11 284/304/11 283/305/11
f 283/306/121 284/307/121 286/308/121 285/309/121
f 285/310/14 286/311/14 287/312/14 281/313/14
f 286/308/122 284/307/122 291/314/122 288/315/122
f 287/312/123 286/311/123 288/316/123 289/317/123
f 290/318/14 295/319/14 289/317/14 288/316/14
f 292/320/121 290/321/121 288/315/121 291/314/121
f 294/322/11 292/323/11 291/324/11 293/325/11
f 284/304/124 282/303/124 293/325/124 291/324/124
f 295/326/28 294/327/28 293/328/28 289/329/28
f 282/300/125 287/299/126 289/329/125 293/328/125
f 299/330/127 296/331/127 294/327/127 295/326/127
f 296/332/128 298/333/128 292/323/128 294/322/128
f 299/330/28 301/334/28 297/335/28 296/331/28
f 296/332/11 297/335/11 303/336/11 298/333/11
f 300/337/129 299/338/129 295/319/129 290/318/129
f 300/337/14 302/339/14 301/334/14 299/338/14
f 302/339/6 303/336/6 297/335/6 301/334/6
f 298/340/121 303/336/121 302/339/121 300/341/121
f 298/340/130 300/341/130 290/321/130 292/320/130
