# Blender 4.4.1
# www.blender.org
o City_Gate_Blocker
v 0.273882 0.192614 0.146697
v 0.273882 0.202380 0.146697
v 0.193894 0.192614 0.146697
v 0.273882 0.192614 0.127581
v 0.193894 0.192614 0.127581
v 0.273882 0.202380 0.127581
v 0.273882 0.212145 0.127581
v 0.190060 0.202380 0.127581
v 0.188394 0.212145 0.127581
v 0.190060 0.202380 0.146697
v 0.188394 0.212145 0.146697
v 0.273882 0.212145 0.146697
v 0.190060 0.221911 0.146697
v 0.273882 0.221911 0.146697
v 0.193894 0.231677 0.146697
v 0.190060 0.221911 0.127581
v 0.193894 0.231677 0.127581
v 0.273882 0.221911 0.127581
v 0.273882 0.231677 0.127581
v 0.273882 0.231677 0.146697
v 0.273021 0.194173 0.146065
v 0.273021 0.194173 0.128214
v -0.314721 0.194173 0.146065
v 0.273021 0.229112 0.146065
v 0.273021 0.229112 0.128214
v -0.314721 0.229112 0.146065
v -0.314721 0.229112 0.128214
v -0.314721 0.194173 0.128214
vn 1.0000 -0.0000 -0.0000
vn -0.0000 -0.0000 1.0000
vn -0.9858 -0.1682 -0.0000
vn -0.9308 -0.3655 -0.0000
vn -0.9858 0.1682 -0.0000
vn -0.9308 0.3655 -0.0000
vn -0.0000 -1.0000 -0.0000
vn -0.0000 -0.0000 -1.0000
vn -0.0000 1.0000 -0.0000
vn -1.0000 -0.0000 -0.0000
vt 0.342974 0.004919
vt 0.342944 0.005616
vt 0.343263 0.005409
vt 0.343293 0.004711
vt 0.337191 0.004969
vt 0.337500 0.004291
vt 0.342914 0.006313
vt 0.343233 0.006106
vt 0.336724 0.005866
vt 0.336874 0.005176
vt 0.337040 0.005658
vt 0.337183 0.004499
vt 0.336814 0.006572
vt 0.337131 0.006365
vt 0.337062 0.007291
vt 0.337379 0.007084
vt 0.342884 0.007010
vt 0.342854 0.007708
vt 0.343174 0.007502
vt 0.343204 0.006804
vt 0.743261 0.134982
vt 0.709278 0.129152
vt 0.709455 0.128119
vt 0.743438 0.133950
vt 0.742914 0.137002
vt 0.708931 0.131172
vt 0.742737 0.138035
vt 0.708754 0.132204
vt 0.706734 0.131857
vt 0.706911 0.130825
vt 0.709801 0.126099
vt 0.743784 0.131930
s 1
f 4/1/1 6/2/1 2/3/1 1/4/1
f 10/5/2 3/6/2 1/4/2 2/3/2
f 6/2/1 7/7/1 12/8/1 2/3/1
f 9/9/3 8/10/3 10/5/3 11/11/3
f 8/10/4 5/12/4 3/6/4 10/5/4
f 16/13/5 9/9/5 11/11/5 13/14/5
f 17/15/6 16/13/6 13/14/6 15/16/6
f 18/17/1 19/18/1 20/19/1 14/20/1
f 7/7/1 18/17/1 14/20/1 12/8/1
f 3/6/7 5/12/7 4/1/7 1/4/7
f 5/12/8 8/10/8 6/2/8 4/1/8
f 8/10/8 9/9/8 7/7/8 6/2/8
f 11/11/2 10/5/2 2/3/2 12/8/2
f 13/14/2 11/11/2 12/8/2 14/20/2
f 15/16/2 13/14/2 14/20/2 20/19/2
f 9/9/8 16/13/8 18/17/8 7/7/8
f 16/13/8 17/15/8 19/18/8 18/17/8
f 17/15/9 15/16/9 20/19/9 19/18/9
f 21/21/7 23/22/7 28/23/7 22/24/7
f 24/25/2 26/26/2 23/22/2 21/21/2
f 25/27/9 27/28/9 26/26/9 24/25/9
f 27/28/10 28/29/10 23/30/10 26/26/10
f 22/24/8 28/23/8 27/31/8 25/32/8
