# Blender 4.4.1
# www.blender.org
o Fountain.001
v 0.000002 -0.000000 -0.292167
v 0.206594 -0.000000 -0.206593
v 0.000002 0.110529 -0.292167
v -0.206592 -0.000000 -0.206593
v -0.206592 0.110529 -0.206593
v -0.292167 -0.000000 -0.000000
v -0.206592 0.000000 0.206593
v -0.292167 0.110529 -0.000000
v -0.270956 0.110529 -0.000000
v -0.206592 0.110529 0.206593
v 0.000002 0.110529 0.292167
v -0.191595 0.110529 0.191598
v -0.191595 0.093860 0.191598
v 0.000002 0.110529 0.270960
v 0.191599 0.110529 0.191598
v 0.000002 0.093860 0.270960
v 0.191599 0.093860 0.191598
v 0.000002 0.093860 0.085736
v 0.060629 0.093860 0.060625
v -0.060622 0.093860 0.060625
v 0.000002 0.122333 0.085736
v 0.060629 0.122333 0.060625
v -0.060622 0.122333 0.060625
v 0.000002 0.122333 0.099583
v 0.070416 0.122333 0.070416
v -0.070415 0.122333 0.070416
v 0.000002 0.142922 0.099583
v 0.070416 0.142922 0.070416
v -0.070415 0.142922 0.070416
v 0.000002 0.191790 0.138854
v 0.098187 0.191790 0.098185
v -0.098182 0.191790 0.098185
v 0.000002 0.191790 0.127168
v 0.089925 0.191790 0.089922
v -0.089918 0.191790 0.089922
v 0.000002 0.182173 0.127168
v 0.089925 0.182173 0.089922
v -0.089918 0.182173 0.089922
v 0.000002 0.182173 0.037157
v 0.026277 0.182173 0.026274
v -0.026271 0.182173 0.026274
v 0.000002 0.202684 0.037157
v 0.026277 0.202684 0.026274
v -0.026271 0.202684 0.026274
v 0.000002 0.240595 0.066695
v 0.047163 0.240595 0.047161
v -0.047160 0.240595 0.047161
v 0.000002 0.240595 0.059676
v 0.042199 0.240595 0.042197
v -0.042197 0.240595 0.042197
v 0.000002 0.232697 0.059676
v 0.042199 0.232697 0.042197
v -0.042197 0.232697 0.042197
v 0.000002 0.232697 0.011512
v 0.008142 0.232697 0.008141
v -0.008140 0.232697 0.008141
v 0.000002 0.329079 -0.000000
v -0.011512 0.232697 -0.000000
v -0.008140 0.232697 -0.008141
v 0.000002 0.232697 -0.011512
v 0.008142 0.232697 -0.008141
v 0.011514 0.232697 -0.000000
v 0.059679 0.232697 -0.000000
v 0.042199 0.232697 -0.042197
v 0.059679 0.240595 -0.000000
v 0.042199 0.240595 -0.042197
v 0.066697 0.240595 -0.000000
v 0.047163 0.240595 -0.047161
v 0.037161 0.202684 -0.000000
v 0.026277 0.202684 -0.026274
v 0.037161 0.182173 -0.000000
v 0.026277 0.182173 -0.026274
v 0.127172 0.182173 -0.000000
v 0.089925 0.182173 -0.089922
v 0.127172 0.191790 -0.000000
v 0.089925 0.191790 -0.089922
v 0.138857 0.191790 -0.000000
v 0.098187 0.191790 -0.098185
v 0.099584 0.142922 -0.000000
v 0.070416 0.142922 -0.070416
v 0.099584 0.122333 -0.000000
v 0.070416 0.122333 -0.070416
v 0.085736 0.122333 -0.000000
v 0.060629 0.122333 -0.060625
v 0.085736 0.093860 -0.000000
v 0.060629 0.093860 -0.060625
v 0.270963 0.093860 -0.000000
v 0.191599 0.093860 -0.191598
v 0.270963 0.110529 -0.000000
v 0.292169 0.110529 -0.000000
v 0.191599 0.110529 -0.191598
v 0.000002 0.110529 -0.270960
v 0.206594 0.110529 -0.206593
v -0.191595 0.110529 -0.191598
v 0.000002 0.093860 -0.270960
v -0.191595 0.093860 -0.191598
v 0.000002 0.093860 -0.085736
v -0.060622 0.093860 -0.060625
v 0.000002 0.122333 -0.085736
v -0.060622 0.122333 -0.060625
v 0.000002 0.122333 -0.099583
v -0.070415 0.122333 -0.070416
v 0.000002 0.142922 -0.099583
v -0.070415 0.142922 -0.070416
v 0.000002 0.191790 -0.138854
v -0.098182 0.191790 -0.098185
v 0.000002 0.191790 -0.127168
v -0.089918 0.191790 -0.089922
v 0.000002 0.182173 -0.127168
v -0.089918 0.182173 -0.089922
v 0.000002 0.182173 -0.037156
v -0.026271 0.182173 -0.026274
v 0.000002 0.202684 -0.037156
v -0.026271 0.202684 -0.026274
v 0.000002 0.240595 -0.066695
v -0.047160 0.240595 -0.047161
v 0.000002 0.240595 -0.059676
v -0.042197 0.240595 -0.042197
v 0.000002 0.232697 -0.059676
v -0.042197 0.232697 -0.042197
v -0.059672 0.232697 -0.000000
v -0.059672 0.240595 -0.000000
v -0.066691 0.240595 -0.000000
v -0.037154 0.202684 -0.000000
v -0.037154 0.182173 -0.000000
v -0.127166 0.182173 -0.000000
v -0.127166 0.191790 -0.000000
v -0.138853 0.191790 -0.000000
v -0.099582 0.142922 -0.000000
v -0.099582 0.122333 -0.000000
v -0.085734 0.122333 -0.000000
v -0.085734 0.093860 -0.000000
v -0.270956 0.093860 -0.000000
v 0.206594 0.110529 0.206593
v 0.292169 -0.000000 -0.000000
v 0.206594 0.000000 0.206593
v 0.000002 0.000000 0.292167
vn 0.3827 -0.0000 -0.9239
vn -0.3827 -0.0000 -0.9239
vn -0.9239 -0.0000 -0.3827
vn -0.9239 -0.0000 0.3827
vn -0.0000 1.0000 -0.0000
vn -0.3827 -0.0000 0.9239
vn 0.9239 -0.0000 -0.3827
vn 0.3827 -0.0000 0.9239
vn -0.0000 -1.0000 -0.0000
vn 0.3073 -0.5961 0.7418
vn -0.3073 -0.5961 0.7418
vn 0.3106 -0.5842 0.7498
vn -0.3106 -0.5842 0.7498
vn 0.3803 0.1097 0.9183
vn -0.3802 0.1097 0.9184
vn -0.9183 0.1097 0.3804
vn -0.9183 0.1097 -0.3804
vn -0.3802 0.1097 -0.9184
vn 0.3803 0.1097 -0.9183
vn 0.9183 0.1097 -0.3804
vn 0.9183 0.1097 0.3804
vn 0.7498 -0.5842 -0.3106
vn 0.7498 -0.5842 0.3106
vn 0.9239 -0.0000 0.3827
vn 0.7418 -0.5961 -0.3073
vn 0.7418 -0.5961 0.3073
vn 0.9239 -0.0000 -0.3826
vn 0.9239 -0.0000 0.3826
vn 0.3073 -0.5961 -0.7418
vn -0.3073 -0.5961 -0.7418
vn 0.3826 -0.0000 -0.9239
vn 0.3106 -0.5842 -0.7498
vn -0.3106 -0.5842 -0.7498
vn -0.7498 -0.5842 0.3106
vn -0.7498 -0.5842 -0.3106
vn -0.7418 -0.5961 0.3073
vn -0.7418 -0.5961 -0.3073
vt 0.718120 0.125644
vt 0.720659 0.119655
vt 0.732607 0.122814
vt 0.731728 0.129261
vt 0.705938 0.118589
vt 0.709957 0.113473
vt 0.696040 0.108590
vt 0.701246 0.104702
vt 0.689127 0.096401
vt 0.695072 0.093956
vt 0.702181 0.103986
vt 0.710675 0.112538
vt 0.696147 0.093509
vt 0.691519 0.081587
vt 0.692768 0.081738
vt 0.685284 0.083407
vt 0.697056 0.093126
vt 0.702954 0.103377
vt 0.693722 0.081482
vt 0.767950 0.113016
vt 0.756911 0.119416
vt 0.756443 0.118335
vt 0.766913 0.112257
vt 0.756040 0.117437
vt 0.766391 0.111423
vt 0.287767 0.089483
vt 0.293333 0.100301
vt 0.282504 0.101196
vt 0.280742 0.097773
vt 0.276181 0.085769
vt 0.277077 0.096598
vt 0.464789 0.221050
vt 0.461101 0.219549
vt 0.461667 0.217923
vt 0.465470 0.219474
vt 0.436319 0.220925
vt 0.432784 0.222786
vt 0.431925 0.221329
vt 0.435599 0.219376
vt 0.461954 0.217211
vt 0.466105 0.218903
vt 0.431199 0.220813
vt 0.435265 0.218674
vt 0.462368 0.216049
vt 0.466663 0.217739
vt 0.430526 0.219716
vt 0.434725 0.217576
vt 0.463490 0.212659
vt 0.469012 0.214631
vt 0.428054 0.216475
vt 0.433290 0.214226
vt 0.463655 0.212063
vt 0.468934 0.213891
vt 0.428067 0.215753
vt 0.433106 0.213640
vt 0.463791 0.211504
vt 0.469077 0.213328
vt 0.427885 0.215202
vt 0.432928 0.213094
vt 0.472079 0.005818
vt 0.474875 0.010797
vt 0.469632 0.011424
vt 0.468815 0.009969
vt 0.466582 0.004275
vt 0.467209 0.009518
vt 0.869217 0.212655
vt 0.869335 0.210849
vt 0.870591 0.210911
vt 0.870442 0.212754
vt 0.868104 0.199112
vt 0.867608 0.197367
vt 0.868778 0.196965
vt 0.869314 0.198768
vt 0.873315 0.211373
vt 0.873117 0.214125
vt 0.871570 0.195242
vt 0.872096 0.197911
vt 0.873694 0.211393
vt 0.873543 0.213972
vt 0.872001 0.195334
vt 0.872468 0.197856
vt 0.874172 0.211394
vt 0.874029 0.213963
vt 0.872485 0.195281
vt 0.872942 0.197792
vt 0.675583 0.005850
vt 0.676009 0.008495
vt 0.673259 0.007842
vt 0.673177 0.007332
vt 0.673412 0.004280
vt 0.672759 0.007029
vt 0.007788 0.004940
vt 0.008326 0.006405
vt 0.006288 0.006321
vt 0.006372 0.004284
vt 0.004907 0.004821
vt 0.004251 0.006237
vt 0.004788 0.007703
vt 0.006204 0.008359
vt 0.007670 0.007821
vt 0.674439 0.010667
vt 0.671793 0.011092
vt 0.672446 0.008343
vt 0.672957 0.008261
vt 0.873770 0.209049
vt 0.873701 0.206801
vt 0.874180 0.206780
vt 0.874249 0.209046
vt 0.873389 0.209035
vt 0.873317 0.206805
vt 0.870582 0.208895
vt 0.870480 0.206847
vt 0.869339 0.208933
vt 0.869240 0.206953
vt 0.473332 0.016294
vt 0.468354 0.019090
vt 0.467727 0.013847
vt 0.469181 0.013030
vt 0.458561 0.210790
vt 0.453415 0.210180
vt 0.453447 0.209605
vt 0.458656 0.210222
vt 0.458440 0.211399
vt 0.453362 0.210802
vt 0.457761 0.214984
vt 0.453095 0.214467
vt 0.457549 0.216196
vt 0.453034 0.215702
vt 0.457389 0.216945
vt 0.452971 0.216466
vt 0.457086 0.218618
vt 0.452876 0.218168
vt 0.289619 0.111887
vt 0.278800 0.117453
vt 0.277905 0.106623
vt 0.281328 0.104862
vt 0.744801 0.121561
vt 0.732753 0.121645
vt 0.732861 0.120666
vt 0.744649 0.120589
vt 0.744965 0.122728
vt 0.721107 0.118565
vt 0.721467 0.117649
vt 0.745806 0.129187
vt 0.711262 0.111748
vt 0.267215 0.113739
vt 0.274239 0.105448
vt 0.261649 0.102920
vt 0.272478 0.102025
vt 0.448613 0.218176
vt 0.448513 0.216473
vt 0.444376 0.218645
vt 0.444083 0.216964
vt 0.448488 0.215705
vt 0.443971 0.216205
vt 0.448410 0.214468
vt 0.443753 0.214986
vt 0.448268 0.210793
vt 0.443205 0.211355
vt 0.448251 0.210168
vt 0.443119 0.210737
vt 0.448220 0.209593
vt 0.443026 0.210169
vt 0.462856 0.017547
vt 0.466120 0.013396
vt 0.460060 0.012568
vt 0.465303 0.011941
vt 0.869067 0.204952
vt 0.868823 0.202958
vt 0.870055 0.202749
vt 0.870304 0.204794
vt 0.873146 0.204614
vt 0.872890 0.202430
vt 0.873530 0.204593
vt 0.873273 0.202393
vt 0.874008 0.204554
vt 0.873749 0.202337
vt 0.669622 0.009522
vt 0.672027 0.008040
vt 0.669196 0.006877
vt 0.671945 0.007530
vt 0.670766 0.004705
vt 0.672248 0.007111
vt 0.872925 0.200168
vt 0.873398 0.200098
vt 0.872546 0.200220
vt 0.869729 0.200729
vt 0.868505 0.200997
vt 0.461603 0.007071
vt 0.465754 0.010335
vt 0.438067 0.211890
vt 0.437917 0.211335
vt 0.438216 0.212493
vt 0.439176 0.216019
vt 0.439539 0.217197
vt 0.439745 0.217934
vt 0.440240 0.219565
vt 0.265363 0.091335
vt 0.273653 0.098359
vt 0.759333 0.125485
vt 0.771335 0.118833
s 1
f 1/1/1 3/2/1 93/3/1 2/4/1
f 4/5/2 5/6/2 3/2/2 1/1/2
f 6/7/3 8/8/3 5/6/3 4/5/3
f 7/9/4 10/10/4 8/8/4 6/7/4
f 5/6/5 8/8/5 9/11/5 94/12/5
f 8/8/5 10/10/5 12/13/5 9/11/5
f 10/10/5 11/14/5 14/15/5 12/13/5
f 137/16/6 11/14/6 10/10/6 7/9/6
f 9/11/7 12/13/7 13/17/7 133/18/7
f 12/13/1 14/15/1 16/19/1 13/17/1
f 11/20/5 134/21/5 15/22/5 14/23/5
f 14/23/2 15/22/2 17/24/2 16/25/2
f 16/26/5 17/27/5 19/28/5 18/29/5
f 13/30/5 16/26/5 18/29/5 20/31/5
f 18/32/8 19/33/8 22/34/8 21/35/8
f 20/36/6 18/37/6 21/38/6 23/39/6
f 21/35/9 22/34/9 25/40/9 24/41/9
f 23/39/9 21/38/9 24/42/9 26/43/9
f 24/41/8 25/40/8 28/44/8 27/45/8
f 26/43/6 24/42/6 27/46/6 29/47/6
f 27/45/10 28/44/10 31/48/10 30/49/10
f 29/47/11 27/46/11 30/50/11 32/51/11
f 30/49/5 31/48/5 34/52/5 33/53/5
f 32/51/5 30/50/5 33/54/5 35/55/5
f 33/53/2 34/52/2 37/56/2 36/57/2
f 35/55/1 33/54/1 36/58/1 38/59/1
f 36/60/5 37/61/5 40/62/5 39/63/5
f 38/64/5 36/60/5 39/63/5 41/65/5
f 39/66/8 40/67/8 43/68/8 42/69/8
f 41/70/6 39/71/6 42/72/6 44/73/6
f 42/69/12 43/68/12 46/74/12 45/75/12
f 44/73/13 42/72/13 45/76/13 47/77/13
f 45/75/5 46/74/5 49/78/5 48/79/5
f 47/77/5 45/76/5 48/80/5 50/81/5
f 48/79/2 49/78/2 52/82/2 51/83/2
f 50/81/1 48/80/1 51/84/1 53/85/1
f 51/86/5 52/87/5 55/88/5 54/89/5
f 53/90/5 51/86/5 54/89/5 56/91/5
f 54/92/14 55/93/14 57/94/14
f 56/95/15 54/92/15 57/94/15
f 58/96/16 56/95/16 57/94/16
f 59/97/17 58/96/17 57/94/17
f 60/98/18 59/97/18 57/94/18
f 61/99/19 60/98/19 57/94/19
f 62/100/20 61/99/20 57/94/20
f 55/93/21 62/100/21 57/94/21
f 63/101/5 64/102/5 61/103/5 62/104/5
f 52/87/5 63/101/5 62/104/5 55/88/5
f 65/105/4 66/106/4 64/107/4 63/108/4
f 49/78/3 65/105/3 63/108/3 52/82/3
f 67/109/5 68/110/5 66/106/5 65/105/5
f 46/74/5 67/109/5 65/105/5 49/78/5
f 69/111/22 70/112/22 68/110/22 67/109/22
f 43/68/23 69/111/23 67/109/23 46/74/23
f 71/113/7 72/114/7 70/112/7 69/111/7
f 40/67/24 71/113/24 69/111/24 43/68/24
f 73/115/5 74/116/5 72/117/5 71/118/5
f 37/61/5 73/115/5 71/118/5 40/62/5
f 75/119/4 76/120/4 74/121/4 73/122/4
f 34/52/3 75/119/3 73/122/3 37/56/3
f 77/123/5 78/124/5 76/120/5 75/119/5
f 31/48/5 77/123/5 75/119/5 34/52/5
f 79/125/25 80/126/25 78/124/25 77/123/25
f 28/44/26 79/125/26 77/123/26 31/48/26
f 81/127/7 82/128/7 80/126/7 79/125/7
f 25/40/24 81/127/24 79/125/24 28/44/24
f 83/129/9 84/130/9 82/128/9 81/127/9
f 22/34/9 83/129/9 81/127/9 25/40/9
f 85/131/27 86/132/27 84/130/27 83/129/27
f 19/33/28 85/131/28 83/129/28 22/34/28
f 87/133/5 88/134/5 86/135/5 85/136/5
f 17/27/5 87/133/5 85/136/5 19/28/5
f 89/137/4 91/138/4 88/139/4 87/140/4
f 15/22/3 89/137/3 87/140/3 17/24/3
f 90/141/5 93/3/5 91/138/5 89/137/5
f 134/21/5 90/141/5 89/137/5 15/22/5
f 91/138/6 92/142/6 95/143/6 88/139/6
f 93/3/5 3/2/5 92/142/5 91/138/5
f 2/4/7 93/3/7 90/141/7 135/144/7
f 92/142/8 94/12/8 96/145/8 95/143/8
f 3/2/5 5/6/5 94/12/5 92/142/5
f 88/134/5 95/146/5 97/147/5 86/135/5
f 95/146/5 96/148/5 98/149/5 97/147/5
f 86/132/1 97/150/1 99/151/1 84/130/1
f 97/150/2 98/152/2 100/153/2 99/151/2
f 84/130/9 99/151/9 101/154/9 82/128/9
f 99/151/9 100/153/9 102/155/9 101/154/9
f 82/128/1 101/154/1 103/156/1 80/126/1
f 101/154/2 102/155/2 104/157/2 103/156/2
f 80/126/29 103/156/29 105/158/29 78/124/29
f 103/156/30 104/157/30 106/159/30 105/158/30
f 78/124/5 105/158/5 107/160/5 76/120/5
f 105/158/5 106/159/5 108/161/5 107/160/5
f 76/120/6 107/160/6 109/162/6 74/121/6
f 107/160/8 108/161/8 110/163/8 109/162/8
f 74/116/5 109/164/5 111/165/5 72/117/5
f 109/164/5 110/166/5 112/167/5 111/165/5
f 111/168/2 112/169/2 114/170/2 113/171/2
f 72/114/31 111/168/31 113/171/31 70/112/31
f 70/112/32 113/171/32 115/172/32 68/110/32
f 113/171/33 114/170/33 116/173/33 115/172/33
f 68/110/5 115/172/5 117/174/5 66/106/5
f 115/172/5 116/173/5 118/175/5 117/174/5
f 66/106/6 117/174/6 119/176/6 64/107/6
f 117/174/8 118/175/8 120/177/8 119/176/8
f 64/102/5 119/178/5 60/179/5 61/103/5
f 119/178/5 120/180/5 59/181/5 60/179/5
f 120/180/5 121/182/5 58/183/5 59/181/5
f 118/175/28 122/184/28 121/185/28 120/177/28
f 121/182/5 53/90/5 56/91/5 58/183/5
f 122/184/27 50/81/27 53/85/27 121/185/27
f 123/186/5 47/77/5 50/81/5 122/184/5
f 116/173/5 123/186/5 122/184/5 118/175/5
f 124/187/34 44/73/34 47/77/34 123/186/34
f 114/170/35 124/187/35 123/186/35 116/173/35
f 125/188/4 41/70/4 44/73/4 124/187/4
f 112/169/3 125/188/3 124/187/3 114/170/3
f 126/189/5 38/64/5 41/65/5 125/190/5
f 110/166/5 126/189/5 125/190/5 112/167/5
f 127/191/7 35/55/7 38/59/7 126/192/7
f 108/161/24 127/191/24 126/192/24 110/163/24
f 128/193/5 32/51/5 35/55/5 127/191/5
f 106/159/5 128/193/5 127/191/5 108/161/5
f 129/194/36 29/47/36 32/51/36 128/193/36
f 104/157/37 129/194/37 128/193/37 106/159/37
f 130/195/4 26/43/4 29/47/4 129/194/4
f 102/155/3 130/195/3 129/194/3 104/157/3
f 131/196/9 23/39/9 26/43/9 130/195/9
f 100/153/9 131/196/9 130/195/9 102/155/9
f 132/197/4 20/36/4 23/39/4 131/196/4
f 98/152/3 132/197/3 131/196/3 100/153/3
f 133/198/5 13/30/5 20/31/5 132/199/5
f 96/148/5 133/198/5 132/199/5 98/149/5
f 94/12/24 9/11/24 133/18/24 96/145/24
f 135/144/24 90/141/24 134/21/24 136/200/24
f 136/200/8 134/21/8 11/20/8 137/201/8
