# Blender 4.4.1
# www.blender.org
o Hospice.001
v -1.345178 0.000000 0.207058
v -1.090463 0.181348 0.207058
v -0.711107 0.000000 0.207058
v -1.260273 0.181348 0.207058
v -1.345178 -0.000000 -0.828230
v -1.345178 0.725392 0.207058
v 1.371793 0.725392 0.207058
v -1.362858 0.724381 0.238648
v -1.260273 0.544044 0.207058
v -1.090463 0.544044 0.207058
v -0.289551 0.544044 0.207058
v -1.345178 0.725392 -0.828230
v -1.362858 0.724381 -0.859821
v 1.371793 0.725392 -0.828230
v 1.371793 -0.000000 -0.828230
v 1.389472 0.724381 -0.859821
v 1.389472 0.794022 -0.859821
v 1.389472 0.724381 0.238648
v 1.389472 0.794022 0.238648
v 1.371793 0.793011 0.207058
v -1.362858 0.794022 0.238648
v -1.362858 0.794022 -0.859821
v -1.345178 0.793011 0.207058
v -1.345178 0.793011 -0.828230
v -0.569815 0.894541 0.207058
v -0.309227 0.894541 0.207058
v -1.025784 0.894541 0.207058
v -0.758914 0.894541 0.207058
v -1.025970 0.929883 0.207058
v -0.115750 0.894541 0.207058
v -1.345178 1.402191 0.207057
v -1.375237 1.401230 0.232336
v -1.345178 1.402191 -0.828231
v -0.438272 1.402191 0.207057
v -1.026278 1.300661 0.207057
v -1.026155 1.248892 0.207058
v -0.758544 1.248892 0.207058
v -1.026155 1.248892 0.223587
v -1.026155 1.248892 0.184820
v -0.758544 1.248892 0.184820
v -1.025970 0.929883 0.184820
v -0.758729 0.929883 0.184820
v -0.758729 0.929883 0.207058
v -0.758729 0.929883 0.240593
v -0.569870 0.929883 0.207058
v -0.569927 1.248892 0.207058
v -0.569870 0.929883 0.240593
v -0.569870 0.929883 0.184820
v -0.309172 0.929883 0.207058
v -0.309172 0.929883 0.184820
v -0.309117 1.248892 0.207058
v -0.115750 0.929883 0.207058
v -0.309172 0.929883 0.240593
v -0.309227 0.894541 0.240593
v -0.569815 0.894541 0.240593
v -0.115750 0.929883 0.184820
v 0.142362 0.929883 0.207058
v -0.115750 1.248892 0.207058
v -0.115750 0.929883 0.240593
v -0.115750 0.894541 0.240593
v 0.142362 0.929883 0.240593
v 0.142362 0.894541 0.240593
v 0.142362 0.894541 0.207058
v 0.335841 0.894541 0.207058
v 0.335786 0.929883 0.207058
v 0.596430 0.894541 0.207058
v 0.335841 0.894541 0.240593
v 0.335786 0.929883 0.240593
v 0.596430 0.894541 0.240593
v 0.596485 0.929883 0.240593
v 0.596485 0.929883 0.207058
v 0.596485 0.929883 0.184820
v 0.596540 1.248892 0.207058
v 0.785344 0.929883 0.207058
v 0.785158 1.248892 0.207058
v 0.785344 0.929883 0.184820
v 1.052583 0.929883 0.207058
v 0.785529 0.894541 0.207058
v 0.785344 0.929883 0.240593
v 1.052583 0.929883 0.240593
v 0.785529 0.894541 0.240593
v 1.052398 0.894541 0.240593
v 1.052398 0.894541 0.207058
v 1.052769 1.248892 0.207058
v 1.052583 0.929883 0.184820
v 1.052769 1.248892 0.184820
v 0.785158 1.248892 0.184820
v 1.052892 1.300661 0.207057
v 1.371793 1.402191 0.207057
v 1.052769 1.248892 0.223587
v 1.052892 1.300661 0.223587
v 0.785158 1.248892 0.223587
v 0.785035 1.300661 0.223587
v 0.785035 1.300661 0.207057
v 0.596577 1.300661 0.207057
v 0.464886 1.402191 0.207057
v 0.335692 1.300661 0.207057
v 0.142362 1.300661 0.207057
v 1.401850 1.401230 0.232336
v 1.401850 1.401230 -0.853508
v 1.401850 1.438258 0.232336
v 1.371793 1.437297 0.207057
v 1.401850 1.438258 -0.853508
v -1.375237 1.438258 0.232336
v -1.345178 1.437297 0.207057
v -1.375237 1.438258 -0.853508
v -1.375237 1.401230 -0.853508
v -1.345178 1.437297 -0.828231
v -0.486505 1.884431 -0.376592
v 1.371793 1.437297 -0.828231
v 0.513119 1.884431 -0.376592
v 0.513119 1.884431 -0.244582
v -0.486505 1.884431 -0.244582
v 1.371793 1.402191 -0.828231
v 1.371793 0.793011 -0.828230
v 0.142362 1.300661 0.223587
v -0.115750 1.300661 0.207057
v 0.142362 1.248892 0.207058
v 0.142362 1.248892 0.184820
v 0.335729 1.248892 0.207058
v 0.142362 1.248892 0.223587
v -0.115750 1.248892 0.223587
v -0.115750 1.300661 0.223587
v 0.335729 1.248892 0.223587
v 0.335729 1.248892 0.184820
v 0.596540 1.248892 0.184820
v 0.335786 0.929883 0.184820
v 0.335692 1.300661 0.223587
v 0.596540 1.248892 0.223587
v 0.596577 1.300661 0.223587
v 0.142362 0.929883 0.184820
v -0.115750 1.248892 0.184820
v -0.309079 1.300661 0.207057
v -0.569963 1.300661 0.207057
v -0.309079 1.300661 0.223587
v -0.569963 1.300661 0.223587
v -0.309117 1.248892 0.223587
v -0.569927 1.248892 0.223587
v -0.758420 1.300661 0.207057
v -0.758420 1.300661 0.223587
v -1.026278 1.300661 0.223587
v -0.758544 1.248892 0.223587
v -0.309117 1.248892 0.184820
v -0.569927 1.248892 0.184820
v -1.025970 0.929883 0.240593
v -0.758914 0.894541 0.240593
v -1.025784 0.894541 0.240593
v 1.371793 0.000000 0.207058
v 0.766136 0.000000 0.207058
v 0.766135 0.491372 0.207058
v 0.486283 0.491372 0.207058
v 0.766135 0.491372 0.213506
v 0.766136 0.000000 0.213506
v 0.637077 0.477183 0.213506
v 0.486283 0.491372 0.213506
v 0.749833 0.477184 0.213506
v 0.749833 0.181348 0.213506
v 0.749833 0.477184 0.205606
v 0.637077 0.477183 0.205606
v 0.749833 0.181348 0.205606
v 0.637077 0.181348 0.205606
v 0.637077 0.181348 0.213506
v 0.615341 0.181348 0.213506
v 0.615341 0.477183 0.213506
v 0.486283 0.000000 0.213506
v 0.502584 0.181348 0.213506
v 0.615341 0.181348 0.205606
v 0.502584 0.181348 0.205606
v 0.615341 0.477183 0.205606
v 0.502585 0.477184 0.205606
v 0.502585 0.477184 0.213506
v 0.486283 0.000000 0.207058
v -0.015440 0.000000 0.207058
v -0.015440 0.544044 0.207058
v -0.015440 0.000000 0.219688
v -0.280041 0.000000 0.207058
v -0.299061 0.000000 0.207058
v -0.280041 0.000000 0.219688
v -0.299061 0.000000 0.219688
v -0.280041 0.013499 0.219688
v -0.280041 0.013499 0.206040
v -0.299061 0.013499 0.219688
v -0.037680 0.013499 0.219688
v -0.280041 0.530544 0.219688
v -0.299061 0.530544 0.219688
v -0.037680 0.530544 0.219688
v -0.280041 0.530544 0.206040
v -0.289551 0.544044 0.219688
v -0.015440 0.544044 0.219688
v -0.711107 0.544044 0.219688
v -0.711107 0.000000 0.219688
v -0.688866 0.530544 0.219688
v -0.711107 0.544044 0.207058
v -0.688866 0.013499 0.219688
v -0.688866 0.530544 0.206040
v -0.299061 0.530544 0.206040
v -0.688866 0.013499 0.206040
v -0.299061 0.013499 0.206040
v -0.037680 0.530544 0.206040
v -0.037680 0.013499 0.206040
v -1.090463 0.544044 0.213581
v -1.175369 0.544044 0.207058
v -1.175369 0.544044 0.213581
v -1.188952 0.532190 0.213581
v -1.260273 0.544044 0.213581
v -1.161783 0.532190 0.213581
v -1.109990 0.532190 0.213581
v -1.161783 0.532190 0.205698
v -1.161783 0.370942 0.213581
v -1.161783 0.354449 0.213581
v -1.109990 0.370942 0.213581
v -1.188952 0.370942 0.213581
v -1.161783 0.370942 0.205698
v -1.109990 0.370942 0.205698
v -1.109990 0.532190 0.205698
v -1.188952 0.370942 0.205698
v -1.240746 0.370942 0.213581
v -1.188952 0.354449 0.213581
v -1.188952 0.354449 0.205698
v -1.188952 0.193201 0.213581
v -1.240746 0.354449 0.213581
v -1.260273 0.362696 0.213581
v -1.240746 0.354449 0.205698
v -1.240746 0.193201 0.213581
v -1.240746 0.193201 0.205698
v -1.260273 0.181348 0.213581
v -1.090463 0.181348 0.213581
v -1.161783 0.193201 0.213581
v -1.109990 0.193201 0.213581
v -1.161783 0.193201 0.205698
v -1.109990 0.193201 0.205698
v -1.161783 0.354449 0.205698
v -1.109990 0.354449 0.205698
v -1.109990 0.354449 0.213581
v -1.188952 0.193201 0.205698
v -1.240746 0.370942 0.205698
v -1.240746 0.532190 0.213581
v -1.240746 0.532190 0.205698
v -1.188952 0.532190 0.205698
v 0.012360 0.526967 0.332579
v 0.047873 0.518557 0.340989
v 0.012656 0.633487 0.226216
v 0.048172 0.632961 0.226742
v 0.015772 0.633944 0.202642
v 0.051285 0.633944 0.202642
v 0.086798 0.633944 0.202642
v 0.122313 0.633944 0.202642
v 0.083684 0.633487 0.226216
v 0.119198 0.632961 0.226742
v 0.083387 0.526967 0.332579
v 0.118900 0.518557 0.340989
v 0.154414 0.526967 0.332579
v 0.189927 0.518557 0.340989
v 0.154711 0.633487 0.226216
v 0.190224 0.632961 0.226742
v 0.157826 0.633944 0.202642
v 0.193338 0.633944 0.202642
v 0.228853 0.633944 0.202642
v 0.264366 0.633944 0.202642
v 0.225739 0.633487 0.226216
v 0.261251 0.632961 0.226742
v 0.225441 0.526967 0.332579
v 0.260955 0.518557 0.340989
v 0.296468 0.526967 0.332579
v 0.331981 0.518557 0.340989
v 0.296765 0.633487 0.226216
v 0.299881 0.633944 0.202642
v 0.332278 0.632961 0.226742
v 0.367792 0.633487 0.226216
v 0.335394 0.633944 0.202642
v 0.370907 0.633944 0.202642
v 0.406420 0.633944 0.202642
v 0.441934 0.633944 0.202642
v 0.403306 0.632961 0.226742
v 0.438819 0.633487 0.226216
v 0.403008 0.518557 0.340989
v 0.367496 0.526967 0.332579
v 0.438521 0.526967 0.332579
v 0.474035 0.518557 0.340989
v 0.509549 0.526967 0.332579
v 0.474333 0.632961 0.226742
v 0.477448 0.633944 0.202642
v 0.509846 0.633487 0.226216
v 0.512961 0.633944 0.202642
v 0.545359 0.632961 0.226742
v 0.548475 0.633944 0.202642
v 0.580873 0.633487 0.226216
v 0.545063 0.518557 0.340989
v 0.580576 0.526967 0.332579
v 0.616090 0.518557 0.340989
v 0.651603 0.526967 0.332579
v 0.616388 0.632961 0.226742
v 0.651900 0.633487 0.226216
v 0.619503 0.633944 0.202642
v 0.655016 0.633944 0.202642
v 0.583988 0.633944 0.202642
v 0.690529 0.633944 0.202642
v 0.726043 0.633944 0.202642
v 0.687414 0.632961 0.226742
v 0.722929 0.633487 0.226216
v 0.687116 0.518557 0.340989
v 0.722631 0.526967 0.332579
v 0.758145 0.518557 0.340989
v 0.793657 0.526967 0.332579
v 0.758441 0.632961 0.226742
v 0.761555 0.633944 0.202642
v 0.793955 0.633487 0.226216
v 0.797070 0.633944 0.202642
v 0.829468 0.632961 0.226742
v 0.832583 0.633944 0.202642
v 0.864981 0.633487 0.226216
v 0.829171 0.518557 0.340989
v 0.864686 0.526967 0.332579
v 0.868095 0.633944 0.202642
v 0.869648 0.617299 0.205706
v 0.869648 0.629968 0.213021
v 0.004764 0.617299 0.205706
v 0.869648 0.604630 0.213021
v 0.869648 0.617299 0.234964
v 0.004764 0.617299 0.234964
v 0.869648 0.604630 0.227649
v 0.869648 0.629968 0.227649
v 0.004764 0.629968 0.227649
v 0.004764 0.629968 0.213021
v 0.004764 0.604631 0.227649
v 0.004764 0.604631 0.213021
vn -0.0000 -0.0000 1.0000
vn -1.0000 -0.0000 -0.0000
vn -0.0000 -0.9995 -0.0320
vn 0.0571 -0.9984 -0.0000
vn -0.0000 -0.9995 0.0320
vn -0.0000 -0.0000 -1.0000
vn 1.0000 -0.0000 -0.0000
vn -0.0571 -0.9984 -0.0000
vn -0.0571 0.9984 -0.0000
vn -0.0000 0.9995 -0.0320
vn 0.0571 0.9984 -0.0000
vn -0.0000 -0.9993 -0.0380
vn 0.0320 -0.9995 -0.0000
vn -0.0000 -1.0000 -0.0000
vn -1.0000 -0.0024 -0.0000
vn 1.0000 0.0006 -0.0000
vn -0.0000 1.0000 -0.0000
vn -1.0000 0.0006 -0.0000
vn 1.0000 -0.0052 -0.0000
vn 1.0000 0.0002 -0.0000
vn -1.0000 -0.0016 -0.0000
vn -1.0000 0.0002 -0.0000
vn 1.0000 -0.0016 -0.0000
vn -1.0000 -0.0052 -0.0000
vn 1.0000 -0.0024 -0.0000
vn -0.0320 -0.9995 -0.0000
vn -0.0000 0.9993 -0.0380
vn -0.0320 0.9995 -0.0000
vn 0.0320 0.9995 -0.0000
vn -0.0000 0.9993 0.0380
vn -0.4619 0.8870 -0.0000
vn -0.0000 0.7106 -0.7036
vn 0.4619 0.8870 -0.0000
vn -0.0000 0.7106 0.7036
vn -0.0000 -0.9993 0.0380
vn -0.0000 0.9995 0.0320
vn -1.0000 -0.0007 -0.0000
vn 1.0000 -0.0007 -0.0000
vn -1.0000 -0.0053 -0.0000
vn -0.0000 0.7066 0.7076
vn -0.0001 0.7066 0.7076
vn 0.0072 0.9995 0.0311
vn -0.0072 0.9995 0.0293
vn -0.0072 0.9995 0.0292
vn 0.0001 0.7066 0.7076
vn -0.0000 0.5000 -0.8660
vn -0.0000 -0.5000 -0.8660
vn -0.0000 0.5000 0.8660
vn -0.0000 -0.5000 0.8660
vt 0.134110 0.878628
vt 0.150216 0.889700
vt 0.138835 0.889148
vt 0.172577 0.879161
vt 0.138229 0.908269
vt 0.132841 0.918061
vt 0.004251 0.572495
vt 0.050687 0.569809
vt 0.054164 0.638855
vt 0.007476 0.640168
vt 0.212879 0.919725
vt 0.292840 0.944702
vt 0.196761 0.917084
vt 0.131559 0.919774
vt 0.293510 0.946737
vt 0.051706 0.567602
vt 0.055419 0.640965
vt 0.143434 0.909495
vt 0.148792 0.910215
vt 0.172042 0.913128
vt 0.103559 0.683588
vt 0.102366 0.681775
vt 0.267357 0.671723
vt 0.266407 0.673659
vt 0.269066 0.716644
vt 0.106460 0.726625
vt 0.353157 0.620358
vt 0.308275 0.623913
vt 0.303891 0.557966
vt 0.348741 0.555458
vt 0.307316 0.626038
vt 0.302660 0.555988
vt 0.303019 0.626481
vt 0.298342 0.556125
vt 0.102072 0.677640
vt 0.267119 0.667601
vt 0.292882 0.950875
vt 0.130862 0.923903
vt 0.301792 0.624575
vt 0.297379 0.558178
vt 0.131502 0.925932
vt 0.291633 0.952592
vt 0.056134 0.567199
vt 0.059997 0.640743
vt 0.057378 0.569214
vt 0.061091 0.638402
vt 0.100289 0.639478
vt 0.096078 0.563858
vt 0.218288 0.946715
vt 0.203199 0.944194
vt 0.176371 0.939661
vt 0.165063 0.937708
vt 0.191598 0.942221
vt 0.149437 0.935081
vt 0.148634 0.937702
vt 0.143753 0.956148
vt 0.122225 0.960563
vt 0.152965 0.561701
vt 0.096445 0.565169
vt 0.100256 0.638177
vt 0.143070 0.959619
vt 0.158824 0.963582
vt 0.176629 0.974144
vt 0.160125 0.960013
vt 0.159594 0.960587
vt 0.144069 0.956819
vt 0.144753 0.955546
vt 0.159449 0.959087
vt 0.143503 0.959035
vt 0.149331 0.938618
vt 0.163794 0.941534
vt 0.164766 0.940882
vt 0.175535 0.942826
vt 0.163919 0.939920
vt 0.164395 0.938725
vt 0.149567 0.936953
vt 0.170991 0.962470
vt 0.176236 0.943752
vt 0.171979 0.961808
vt 0.177090 0.940707
vt 0.176376 0.941842
vt 0.191157 0.945495
vt 0.190279 0.944465
vt 0.190210 0.946201
vt 0.187113 0.965660
vt 0.186385 0.964746
vt 0.202323 0.947360
vt 0.198494 0.967501
vt 0.190809 0.943240
vt 0.217929 0.950017
vt 0.216991 0.950721
vt 0.203065 0.948272
vt 0.199483 0.966828
vt 0.203289 0.946628
vt 0.217068 0.948823
vt 0.203884 0.945423
vt 0.217474 0.947549
vt 0.229860 0.948598
vt 0.229063 0.951822
vt 0.230668 0.949772
vt 0.230049 0.950929
vt 0.244994 0.951106
vt 0.244236 0.952009
vt 0.243831 0.953326
vt 0.244714 0.954342
vt 0.243807 0.955001
vt 0.229779 0.952810
vt 0.242432 0.974495
vt 0.241619 0.973642
vt 0.255546 0.955968
vt 0.253475 0.975552
vt 0.256291 0.952910
vt 0.256334 0.956819
vt 0.254389 0.974832
vt 0.271766 0.958227
vt 0.270886 0.958945
vt 0.256533 0.955066
vt 0.270677 0.957498
vt 0.257152 0.953901
vt 0.271017 0.956350
vt 0.271865 0.955481
vt 0.289158 0.988445
vt 0.270184 0.977378
vt 0.269306 0.976609
vt 0.269670 0.980805
vt 0.269244 0.980177
vt 0.269751 0.977977
vt 0.253918 0.976215
vt 0.253733 0.978695
vt 0.253413 0.979401
vt 0.241811 0.978329
vt 0.233320 0.983601
vt 0.259810 0.558011
vt 0.259491 0.558791
vt 0.207338 0.559941
vt 0.225765 0.976124
vt 0.213800 0.974133
vt 0.197825 0.971423
vt 0.264013 0.629771
vt 0.263804 0.627689
vt 0.262230 0.626045
vt 0.258109 0.560524
vt 0.098139 0.566865
vt 0.256345 0.561919
vt 0.100114 0.568215
vt 0.260414 0.624864
vt 0.103513 0.634610
vt 0.101659 0.636255
vt 0.153339 0.594937
vt 0.153218 0.601423
vt 0.207298 0.599845
vt 0.207424 0.593572
vt 0.265951 0.665794
vt 0.102998 0.675698
vt 0.198283 0.970797
vt 0.213532 0.973350
vt 0.214685 0.970315
vt 0.214188 0.970914
vt 0.226098 0.972118
vt 0.213898 0.969431
vt 0.198798 0.968290
vt 0.227048 0.971414
vt 0.226441 0.972889
vt 0.226123 0.975420
vt 0.242003 0.975133
vt 0.241484 0.977590
vt 0.185967 0.969461
vt 0.170135 0.966325
vt 0.170586 0.965666
vt 0.185765 0.968689
vt 0.186615 0.966299
vt 0.171269 0.963224
vt 0.158660 0.962817
vt 0.150265 0.936001
vt 0.304401 0.907581
vt 0.259974 0.924336
vt 0.270010 0.896325
vt 0.244039 0.921506
vt 0.259756 0.924073
vt 0.243721 0.921669
vt 0.269644 0.896403
vt 0.259175 0.923071
vt 0.265013 0.906386
vt 0.252749 0.922013
vt 0.251543 0.921815
vt 0.258896 0.922791
vt 0.264575 0.906478
vt 0.253134 0.921858
vt 0.258137 0.904770
vt 0.257812 0.904503
vt 0.256502 0.904184
vt 0.250738 0.892056
vt 0.251253 0.921547
vt 0.256077 0.904320
vt 0.249233 0.903134
vt 0.249591 0.903356
vt 0.245484 0.920637
vt 0.245102 0.920789
vt 0.250467 0.891823
vt 0.219438 0.886398
vt 0.212407 0.919215
vt 0.218746 0.886582
vt 0.201493 0.881470
vt 0.201330 0.882212
vt 0.199939 0.881234
vt 0.199953 0.882003
vt 0.201126 0.883017
vt 0.199926 0.882832
vt 0.217192 0.887036
vt 0.197441 0.915517
vt 0.201749 0.883489
vt 0.198063 0.915190
vt 0.216448 0.887238
vt 0.196415 0.915329
vt 0.196839 0.916278
vt 0.211334 0.918117
vt 0.210815 0.917595
vt 0.172561 0.912716
vt 0.173859 0.912071
vt 0.173194 0.879521
vt 0.174638 0.880407
vt 0.175293 0.880804
vt 0.174420 0.911642
vt 0.195928 0.914759
vt 0.199283 0.883252
vt 0.143473 0.909161
vt 0.148507 0.910013
vt 0.149996 0.889952
vt 0.138525 0.908121
vt 0.144280 0.908668
vt 0.147512 0.909185
vt 0.142826 0.908424
vt 0.139612 0.907691
vt 0.144618 0.908487
vt 0.147190 0.908959
vt 0.145194 0.899894
vt 0.144861 0.899672
vt 0.143409 0.899659
vt 0.148231 0.900041
vt 0.144911 0.898802
vt 0.148331 0.899095
vt 0.143431 0.898817
vt 0.147882 0.900216
vt 0.143059 0.899829
vt 0.140295 0.899390
vt 0.139952 0.899163
vt 0.142514 0.908181
vt 0.139987 0.898335
vt 0.140350 0.898167
vt 0.143090 0.898590
vt 0.143336 0.890400
vt 0.143673 0.890199
vt 0.145343 0.890291
vt 0.138882 0.898630
vt 0.140216 0.890019
vt 0.139104 0.889345
vt 0.140575 0.890198
vt 0.148816 0.890521
vt 0.148465 0.890724
vt 0.145702 0.890469
vt 0.145255 0.898602
vt 0.147998 0.898867
vt 0.139966 0.907538
vt 0.569712 0.338546
vt 0.569394 0.348028
vt 0.567309 0.347995
vt 0.567606 0.339170
vt 0.569527 0.349450
vt 0.567447 0.349382
vt 0.571475 0.348140
vt 0.571610 0.349527
vt 0.573559 0.348175
vt 0.573692 0.349597
vt 0.571769 0.339317
vt 0.573875 0.338693
vt 0.575933 0.339463
vt 0.575640 0.348287
vt 0.578039 0.338839
vt 0.577724 0.348321
vt 0.575775 0.349674
vt 0.577857 0.349743
vt 0.579805 0.348433
vt 0.579940 0.349820
vt 0.581889 0.348467
vt 0.582022 0.349889
vt 0.580096 0.339609
vt 0.582202 0.338985
vt 0.584260 0.339754
vt 0.583970 0.348578
vt 0.586366 0.339130
vt 0.586054 0.348612
vt 0.584105 0.349965
vt 0.586187 0.350034
vt 0.588135 0.348723
vt 0.588270 0.350110
vt 0.588423 0.339899
vt 0.590219 0.348756
vt 0.590352 0.350178
vt 0.592300 0.348867
vt 0.592435 0.350254
vt 0.590529 0.339274
vt 0.592587 0.340043
vt 0.594693 0.339417
vt 0.594383 0.348900
vt 0.596750 0.340186
vt 0.596465 0.349010
vt 0.594517 0.350322
vt 0.596600 0.350397
vt 0.598549 0.349043
vt 0.598682 0.350465
vt 0.598856 0.339560
vt 0.600630 0.349153
vt 0.600766 0.350540
vt 0.600914 0.340329
vt 0.603020 0.339703
vt 0.602714 0.349185
vt 0.605078 0.340471
vt 0.604795 0.349295
vt 0.604931 0.350682
vt 0.602848 0.350607
vt 0.606879 0.349327
vt 0.607013 0.350749
vt 0.608960 0.349436
vt 0.609096 0.350823
vt 0.607183 0.339845
vt 0.609241 0.340612
vt 0.611347 0.339986
vt 0.611044 0.349468
vt 0.613405 0.340753
vt 0.613125 0.349577
vt 0.611178 0.350890
vt 0.613261 0.350964
vt 0.615209 0.349609
vt 0.615342 0.351031
vt 0.615510 0.340126
vt 0.617290 0.349719
vt 0.617423 0.351108
vt 0.617568 0.340893
vt 0.754878 0.029704
vt 0.717458 0.008680
vt 0.717956 0.007796
vt 0.755376 0.028820
vt 0.144533 0.004290
vt 0.144973 0.005027
vt 0.144554 0.005776
vt 0.143675 0.004302
vt 0.096273 0.030979
vt 0.053246 0.004254
vt 0.052513 0.005526
vt 0.097934 0.032237
vt 0.262280 0.004290
vt 0.262670 0.005445
vt 0.261855 0.005714
vt 0.261649 0.004365
vt 0.755874 0.027936
vt 0.718454 0.006912
vt 0.718952 0.006028
vt 0.756371 0.027053
vt 0.719450 0.005144
vt 0.756869 0.026169
vt 0.274090 0.005027
vt 0.272374 0.005051
vt 0.272792 0.004302
vt 0.273650 0.004290
vt 0.719948 0.004260
vt 0.757367 0.025285
vt 0.064048 0.004427
vt 0.057899 0.006083
vt 0.057875 0.005940
vt 0.063972 0.004285
s 1
f 1/1/1 2/2/1 4/3/1
f 1/1/1 3/4/1 2/2/1
f 1/1/1 4/3/1 9/5/1 6/6/1
f 1/7/2 6/8/2 12/9/2 5/10/2
f 174/11/1 7/12/1 6/6/1 11/13/1
f 8/14/3 6/6/3 7/12/3 18/15/3
f 12/9/4 6/8/4 8/16/4 13/17/4
f 202/18/1 10/19/1 6/6/1 9/5/1
f 11/13/1 6/6/1 10/19/1 193/20/1
f 12/21/5 13/22/5 16/23/5 14/24/5
f 12/21/6 14/24/6 15/25/6 5/26/6
f 15/27/7 14/28/7 7/29/7 148/30/7
f 7/29/8 14/28/8 16/31/8 18/32/8
f 17/33/7 19/34/7 18/32/7 16/31/7
f 13/22/6 22/35/6 17/36/6 16/23/6
f 8/14/1 18/15/1 19/37/1 21/38/1
f 115/39/9 20/40/9 19/34/9 17/33/9
f 23/41/10 21/38/10 19/37/10 20/42/10
f 21/43/2 22/44/2 13/17/2 8/16/2
f 23/45/11 24/46/11 22/44/11 21/43/11
f 33/47/2 24/46/2 23/45/2 31/48/2
f 63/49/1 30/50/1 23/41/1 20/42/1
f 23/41/1 25/51/1 28/52/1
f 25/51/1 23/41/1 26/53/1
f 23/41/1 30/50/1 26/53/1
f 27/54/1 29/55/1 23/41/1
f 27/54/1 23/41/1 28/52/1
f 29/55/1 36/56/1 31/57/1 23/41/1
f 34/58/12 32/59/12 31/48/12
f 33/47/13 31/48/13 32/59/13 107/60/13
f 31/57/1 35/61/1 139/62/1 34/63/1
f 36/56/1 35/61/1 31/57/1
f 36/56/14 37/64/14 142/65/14 38/66/14
f 37/64/14 36/56/14 39/67/14 40/68/14
f 35/61/15 36/56/15 38/66/15 141/69/15
f 36/56/16 29/55/16 41/70/16 39/67/16
f 39/67/1 41/70/1 42/71/1 40/68/1
f 29/55/17 43/72/17 42/71/17 41/70/17
f 43/72/18 37/64/18 40/68/18 42/71/18
f 25/51/1 45/73/1 43/72/1 28/52/1
f 28/52/19 43/72/19 44/74/19 146/75/19
f 43/72/17 29/55/17 145/76/17 44/74/17
f 45/73/1 46/77/1 37/64/1 43/72/1
f 46/77/20 45/73/20 48/78/20 144/79/20
f 45/73/21 25/51/21 55/80/21 47/81/21
f 49/82/17 45/73/17 47/81/17 53/83/17
f 45/73/17 49/82/17 50/84/17 48/78/17
f 49/82/22 51/85/22 143/86/22 50/84/22
f 52/87/1 58/88/1 51/85/1 49/82/1
f 30/50/1 52/87/1 49/82/1 26/53/1
f 26/53/23 49/82/23 53/83/23 54/89/23
f 47/81/1 55/80/1 54/89/1 53/83/1
f 25/51/14 26/53/14 54/89/14 55/80/14
f 52/87/17 57/90/17 131/91/17 56/92/17
f 58/88/7 52/87/7 56/92/7 132/93/7
f 52/87/17 59/94/17 61/95/17 57/90/17
f 52/87/2 30/50/2 60/96/2 59/94/2
f 62/97/1 61/95/1 59/94/1 60/96/1
f 63/49/7 57/90/7 61/95/7 62/97/7
f 63/49/14 62/97/14 60/96/14 30/50/14
f 64/98/1 65/99/1 57/90/1 63/49/1
f 64/98/1 63/49/1 20/42/1
f 65/99/21 64/98/21 67/100/21 68/101/21
f 66/102/1 64/98/1 20/42/1
f 66/102/14 69/103/14 67/100/14 64/98/14
f 69/103/1 70/104/1 68/101/1 67/100/1
f 66/102/23 71/105/23 70/104/23 69/103/23
f 71/105/17 65/99/17 68/101/17 70/104/17
f 71/105/17 72/106/17 127/107/17 65/99/17
f 71/105/22 73/108/22 126/109/22 72/106/22
f 74/110/1 75/111/1 73/108/1 71/105/1
f 78/112/1 74/110/1 71/105/1 66/102/1
f 75/111/16 74/110/16 76/113/16 87/114/16
f 74/110/17 77/115/17 85/116/17 76/113/17
f 77/115/17 74/110/17 79/117/17 80/118/17
f 74/110/24 78/112/24 81/119/24 79/117/24
f 79/117/1 81/119/1 82/120/1 80/118/1
f 78/112/14 83/121/14 82/120/14 81/119/14
f 83/121/19 77/115/19 80/118/19 82/120/19
f 20/42/1 77/115/1 83/121/1
f 78/112/1 20/42/1 83/121/1
f 20/42/1 78/112/1 66/102/1
f 20/42/1 89/122/1 84/123/1 77/115/1
f 77/115/18 84/123/18 86/124/18 85/116/18
f 87/114/1 76/113/1 85/116/1 86/124/1
f 84/123/14 75/111/14 87/114/14 86/124/14
f 89/122/1 88/125/1 84/123/1
f 84/123/25 88/125/25 91/126/25 90/127/25
f 75/111/14 84/123/14 90/127/14 92/128/14
f 93/129/1 92/128/1 90/127/1 91/126/1
f 94/130/15 75/111/15 92/128/15 93/129/15
f 88/125/17 94/130/17 93/129/17 91/126/17
f 75/111/1 94/130/1 95/131/1 73/108/1
f 94/130/1 96/132/1 95/131/1
f 96/132/1 94/130/1 88/125/1 89/122/1
f 89/133/12 99/134/12 96/135/12
f 95/131/1 96/132/1 97/136/1
f 97/136/1 96/132/1 98/137/1
f 117/138/1 98/137/1 96/132/1 34/63/1
f 32/59/12 34/58/12 96/135/12 99/134/12
f 89/133/26 114/139/26 100/140/26 99/134/26
f 100/140/7 103/141/7 101/142/7 99/134/7
f 104/143/1 32/59/1 99/134/1 101/142/1
f 104/143/27 101/142/27 102/144/27 105/145/27
f 110/146/28 102/144/28 101/142/28 103/141/28
f 105/145/29 108/147/29 106/148/29 104/143/29
f 32/59/2 104/143/2 106/148/2 107/60/2
f 107/60/6 106/148/6 103/141/6 100/140/6
f 106/148/30 108/147/30 110/146/30 103/141/30
f 108/147/31 105/145/31 113/149/31 109/150/31
f 109/150/32 111/151/32 110/146/32 108/147/32
f 102/144/33 110/146/33 111/151/33 112/152/33
f 112/152/17 111/151/17 109/150/17 113/149/17
f 112/152/34 113/149/34 105/145/34 102/144/34
f 114/139/35 33/47/35 107/60/35 100/140/35
f 114/139/6 115/153/6 24/154/6 33/47/6
f 115/39/7 114/139/7 89/133/7 20/40/7
f 17/36/36 22/35/36 24/154/36 115/153/36
f 117/138/17 123/155/17 116/156/17 98/137/17
f 118/157/7 98/137/7 116/156/7 121/158/7
f 120/159/1 97/136/1 98/137/1 118/157/1
f 65/99/1 120/159/1 118/157/1 57/90/1
f 57/90/2 118/157/2 119/160/2 131/91/2
f 118/157/14 58/88/14 132/93/14 119/160/14
f 118/157/14 121/158/14 122/161/14 58/88/14
f 121/158/1 116/156/1 123/155/1 122/161/1
f 117/138/2 58/88/2 122/161/2 123/155/2
f 120/159/20 65/99/20 127/107/20 125/162/20
f 97/136/37 120/159/37 124/163/37 128/164/37
f 73/108/14 129/165/14 124/163/14 120/159/14
f 73/108/14 120/159/14 125/162/14 126/109/14
f 72/106/1 126/109/1 125/162/1 127/107/1
f 129/165/1 130/166/1 128/164/1 124/163/1
f 73/108/38 95/131/38 130/166/38 129/165/38
f 95/131/17 97/136/17 128/164/17 130/166/17
f 131/91/1 119/160/1 132/93/1 56/92/1
f 58/88/1 117/138/1 133/167/1 51/85/1
f 117/138/1 34/63/1 133/167/1
f 34/63/1 134/168/1 133/167/1
f 133/167/17 134/168/17 136/169/17 135/170/17
f 51/85/38 133/167/38 135/170/38 137/171/38
f 136/169/1 138/172/1 137/171/1 135/170/1
f 46/77/14 51/85/14 137/171/14 138/172/14
f 134/168/37 46/77/37 138/172/37 136/169/37
f 46/77/1 134/168/1 139/62/1 37/64/1
f 134/168/1 34/63/1 139/62/1
f 37/64/25 139/62/25 140/173/25 142/65/25
f 139/62/17 35/61/17 141/69/17 140/173/17
f 141/69/1 38/66/1 142/65/1 140/173/1
f 51/85/14 46/77/14 144/79/14 143/86/14
f 144/79/1 48/78/1 50/84/1 143/86/1
f 145/76/1 147/174/1 146/75/1 44/74/1
f 27/54/14 28/52/14 146/75/14 147/174/14
f 29/55/39 27/54/39 147/174/39 145/76/39
f 148/175/1 150/176/1 149/177/1
f 150/176/1 148/175/1 7/12/1
f 155/178/17 152/179/17 150/176/17 151/180/17
f 7/12/1 151/180/1 150/176/1
f 149/177/7 150/176/7 152/179/7 153/181/7
f 153/181/1 152/179/1 156/182/1 157/183/1
f 154/184/1 152/179/1 155/178/1 164/185/1
f 152/179/1 154/184/1 156/182/1
f 157/183/2 156/182/2 158/186/2 160/187/2
f 156/182/14 154/184/14 159/188/14 158/186/14
f 159/188/1 161/189/1 160/187/1 158/186/1
f 162/190/17 157/183/17 160/187/17 161/189/17
f 154/184/7 162/190/7 161/189/7 159/188/7
f 163/191/1 165/192/1 153/181/1 162/190/1
f 153/181/1 157/183/1 162/190/1
f 162/190/1 154/184/1 164/185/1 163/191/1
f 163/191/2 164/185/2 169/193/2 167/194/2
f 165/192/1 163/191/1 166/195/1
f 166/195/17 163/191/17 167/194/17 168/196/17
f 170/197/1 168/196/1 167/194/1 169/193/1
f 164/185/14 171/198/14 170/197/14 169/193/14
f 171/198/7 166/195/7 168/196/7 170/197/7
f 155/178/1 171/198/1 164/185/1
f 155/178/1 165/192/1 166/195/1 171/198/1
f 172/199/14 149/177/14 153/181/14 165/192/14
f 151/180/2 172/199/2 165/192/2 155/178/2
f 172/199/1 151/180/1 174/11/1 173/200/1
f 173/200/7 174/11/7 189/201/7 175/202/7
f 176/203/14 173/200/14 175/202/14 178/204/14
f 177/205/14 176/203/14 178/204/14 179/206/14
f 180/207/1 182/208/1 179/206/1 178/204/1
f 183/209/1 180/207/1 178/204/1 175/202/1
f 184/210/7 180/207/7 181/211/7 187/212/7
f 180/207/17 183/209/17 200/213/17 181/211/17
f 185/214/1 182/208/1 180/207/1 184/210/1
f 185/214/1 184/210/1 188/215/1
f 186/216/14 184/210/14 187/212/14 199/217/14
f 184/210/1 186/216/1 189/201/1 188/215/1
f 11/13/17 193/20/17 190/218/17 188/215/17
f 174/11/17 11/13/17 188/215/17 189/201/17
f 192/219/1 185/214/1 188/215/1 190/218/1
f 190/218/1 191/220/1 194/221/1 192/219/1
f 193/20/2 3/4/2 191/220/2 190/218/2
f 2/2/1 3/4/1 193/20/1 10/19/1
f 192/219/7 194/221/7 197/222/7 195/223/7
f 185/214/14 192/219/14 195/223/14 196/224/14
f 198/225/1 196/224/1 195/223/1 197/222/1
f 194/221/17 182/208/17 198/225/17 197/222/17
f 182/208/2 185/214/2 196/224/2 198/225/2
f 182/208/1 194/221/1 191/220/1 179/206/1
f 3/4/14 177/205/14 179/206/14 191/220/14
f 186/216/1 183/209/1 175/202/1 189/201/1
f 200/213/1 199/217/1 187/212/1 181/211/1
f 199/217/2 200/213/2 183/209/2 186/216/2
f 151/180/1 7/12/1 174/11/1
f 10/19/17 202/18/17 203/226/17 201/227/17
f 2/2/7 10/19/7 201/227/7 227/228/7
f 202/18/17 9/5/17 205/229/17 203/226/17
f 203/226/1 206/230/1 207/231/1 201/227/1
f 204/232/1 206/230/1 203/226/1
f 237/233/1 204/232/1 203/226/1 205/229/1
f 208/234/14 215/235/14 207/231/14 206/230/14
f 213/236/7 208/234/7 206/230/7 209/237/7
f 209/237/1 206/230/1 204/232/1 212/238/1
f 211/239/1 209/237/1 210/240/1 234/241/1
f 210/240/1 209/237/1 212/238/1 218/242/1
f 214/243/17 213/236/17 209/237/17 211/239/17
f 213/236/1 214/243/1 215/235/1 208/234/1
f 215/235/2 214/243/2 211/239/2 207/231/2
f 216/244/17 236/245/17 217/246/17 212/238/17
f 239/247/2 216/244/2 212/238/2 204/232/2
f 212/238/1 217/246/1 221/248/1 218/242/1
f 223/249/14 219/250/14 218/242/14 221/248/14
f 219/250/2 235/251/2 220/252/2 218/242/2
f 228/253/1 210/240/1 218/242/1 220/252/1
f 221/248/1 217/246/1 222/254/1
f 224/255/1 221/248/1 222/254/1 226/256/1
f 225/257/7 223/249/7 221/248/7 224/255/7
f 235/251/17 225/257/17 224/255/17 220/252/17
f 226/256/1 220/252/1 224/255/1
f 229/258/1 228/253/1 226/256/1 227/228/1
f 4/3/14 2/2/14 227/228/14 226/256/14
f 4/3/2 226/256/2 222/254/2
f 228/253/1 220/252/1 226/256/1
f 231/259/17 230/260/17 228/253/17 229/258/17
f 230/260/7 232/261/7 210/240/7 228/253/7
f 230/260/1 231/259/1 233/262/1 232/261/1
f 232/261/14 233/262/14 234/241/14 210/240/14
f 233/262/2 231/259/2 229/258/2 234/241/2
f 227/228/1 234/241/1 229/258/1
f 201/227/1 211/239/1 234/241/1 227/228/1
f 225/257/1 235/251/1 219/250/1 223/249/1
f 222/254/1 217/246/1 237/233/1 205/229/1
f 222/254/2 205/229/2 9/5/2 4/3/2
f 236/245/7 238/263/7 237/233/7 217/246/7
f 238/263/14 239/247/14 204/232/14 237/233/14
f 236/245/1 216/244/1 239/247/1 238/263/1
f 211/239/1 201/227/1 207/231/1
f 241/264/40 243/265/40 242/266/41 240/267/41
f 242/266/42 243/265/42 245/268/42 244/269/42
f 243/265/43 248/270/43 246/271/43 245/268/43
f 248/270/42 249/272/42 247/273/42 246/271/42
f 250/274/40 248/270/40 243/265/40 241/264/40
f 251/275/40 249/272/40 248/270/40 250/274/40
f 252/276/40 254/277/40 249/272/40 251/275/40
f 253/278/40 255/279/40 254/277/40 252/276/40
f 249/272/43 254/277/43 256/280/43 247/273/43
f 254/277/42 255/279/42 257/281/42 256/280/42
f 255/279/43 260/282/43 258/283/43 257/281/43
f 260/282/42 261/284/42 259/285/42 258/283/42
f 262/286/40 260/282/40 255/279/40 253/278/40
f 263/287/40 261/284/40 260/282/40 262/286/40
f 264/288/40 266/289/40 261/284/40 263/287/40
f 265/290/40 268/291/40 266/289/40 264/288/40
f 261/284/43 266/289/43 267/292/43 259/285/43
f 266/289/42 268/291/42 270/293/42 267/292/42
f 268/291/43 269/294/43 271/295/43 270/293/43
f 277/296/40 269/294/40 268/291/40 265/290/40
f 269/294/42 274/297/42 272/298/42 271/295/42
f 274/297/43 275/299/43 273/300/43 272/298/43
f 276/301/40 274/297/40 269/294/40 277/296/40
f 278/302/40 275/299/40 274/297/40 276/301/40
f 279/303/40 281/304/40 275/299/40 278/302/40
f 280/305/40 283/306/40 281/304/40 279/303/40
f 275/299/42 281/304/42 282/307/42 273/300/42
f 281/304/43 283/306/43 284/308/43 282/307/43
f 283/306/42 285/309/42 286/310/42 284/308/42
f 288/311/40 285/309/40 283/306/40 280/305/40
f 285/309/43 287/312/43 296/313/43 286/310/43
f 289/314/40 287/312/40 285/309/40 288/311/40
f 290/315/40 292/316/40 287/312/40 289/314/40
f 291/317/40 293/318/40 292/316/40 290/315/40
f 292/316/44 293/318/44 295/319/44 294/320/44
f 287/312/42 292/316/42 294/320/42 296/313/42
f 293/318/42 299/321/42 297/322/42 295/319/42
f 299/321/43 300/323/43 298/324/43 297/322/43
f 301/325/40 299/321/40 293/318/40 291/317/40
f 302/326/40 300/323/40 299/321/40 301/325/40
f 303/327/40 305/328/40 300/323/40 302/326/40
f 304/329/40 307/330/40 305/328/40 303/327/40
f 300/323/42 305/328/42 306/331/42 298/324/42
f 305/328/43 307/330/43 308/332/43 306/331/43
f 307/330/42 309/333/42 310/334/42 308/332/42
f 312/335/40 309/333/40 307/330/40 304/329/40
f 309/333/44 311/336/44 314/337/44 310/334/44
f 313/338/45 311/336/45 309/333/40 312/335/40
f 315/339/46 317/340/46 324/341/46 316/342/46
f 316/343/7 322/344/7 319/345/7 315/346/7
f 318/347/47 326/348/47 317/349/47 315/350/47
f 315/351/7 319/352/7 321/353/7 318/354/7
f 322/355/48 323/356/48 320/357/48 319/358/48
f 319/358/49 320/357/49 325/359/49 321/360/49
f 316/342/17 324/341/17 323/356/17 322/355/17
f 317/361/2 320/362/2 323/363/2 324/364/2
f 321/360/14 325/359/14 326/365/14 318/366/14
f 326/367/2 325/368/2 320/369/2 317/370/2
