# Blender 4.4.1
# www.blender.org
o House_Small_1
v -0.376728 0.000000 0.180437
v -0.376728 -0.000000 -0.508320
v -0.376728 0.566819 0.180437
v -0.224209 0.000000 0.180437
v -0.224209 0.383635 0.180437
v -0.224209 0.000000 0.147445
v -0.224209 0.383635 0.147445
v 0.035656 0.000000 0.147445
v 0.035656 0.000000 0.180437
v 0.035650 0.383635 0.147445
v 0.035650 0.383635 0.180437
v 0.565277 0.000000 0.180437
v 0.094275 0.566819 0.180437
v 0.565277 0.566819 0.180437
v 0.120346 0.595334 0.180437
v 0.068205 0.595334 0.180437
v 0.094275 0.867969 0.180437
v 0.120346 0.839454 0.180437
v 0.565277 0.867969 0.180437
v -0.376728 0.921319 0.180437
v 0.068205 0.839454 0.180437
v -0.376728 0.867969 0.180437
v -0.376728 0.847964 0.144490
v -0.376728 0.921319 -0.508320
v -0.350658 0.839454 0.180437
v -0.350658 0.595334 0.180437
v -0.350658 0.839454 0.161655
v 0.068205 0.839454 0.161655
v -0.350658 0.595334 0.161655
v 0.068205 0.595334 0.161655
v -0.424574 0.921553 -0.555987
v -0.376728 0.566819 -0.508320
v 0.565277 0.921319 -0.508320
v -0.376728 0.847964 -0.472373
v -0.376728 0.586825 -0.472373
v -0.349238 0.847964 -0.472373
v -0.349238 0.847964 0.144490
v -0.349238 0.586825 -0.472373
v -0.349238 0.586825 0.144490
v -0.376728 0.586825 0.144490
v 0.565277 0.921319 0.180437
v 0.565277 -0.000000 -0.508320
v 0.613125 0.921553 -0.555987
v 0.613125 0.921553 0.228104
v 0.613125 1.001929 -0.555987
v -0.424574 1.001929 -0.555987
v 0.613125 1.001929 0.228104
v 0.565277 1.002163 -0.508320
v -0.376728 1.002163 -0.508320
v 0.565277 1.002163 0.180437
v 0.565277 0.957378 -0.508320
v -0.376728 0.957378 -0.508320
v 0.565277 0.957378 0.180437
v -0.376728 0.957378 0.180437
v -0.376728 1.002163 0.180437
v -0.424574 1.001929 0.228104
v -0.424574 0.921553 0.228104
v 0.539207 0.839454 0.180437
v 0.539207 0.595334 0.180437
v 0.539207 0.839454 0.161655
v 0.539207 0.595334 0.161655
v 0.120346 0.839454 0.161655
v 0.120346 0.595334 0.161655
vn -1.0000 -0.0000 -0.0000
vn -0.0000 -0.0000 1.0000
vn 1.0000 -0.0000 -0.0000
vn -0.0000 -1.0000 -0.0000
vn -0.0000 1.0000 -0.0000
vn -0.0024 -1.0000 -0.0025
vn -0.0024 -1.0000 0.0025
vn -0.0025 -1.0000 0.0024
vn -0.0025 -1.0000 -0.0024
vn 0.0025 -1.0000 -0.0024
vn 0.0024 -1.0000 -0.0025
vn -0.0000 -0.0000 -1.0000
vn 0.0024 -1.0000 0.0025
vn 0.0025 -1.0000 0.0024
vn 0.0025 1.0000 -0.0024
vn -0.0025 1.0000 -0.0024
vn -0.0024 1.0000 -0.0025
vn 0.0024 1.0000 -0.0025
vn 0.0024 1.0000 0.0025
vn 0.0025 1.0000 0.0024
vn -0.0024 1.0000 0.0025
vn -0.0025 1.0000 0.0024
vt 0.452701 0.168995
vt 0.429772 0.143567
vt 0.461740 0.114840
vt 0.484276 0.140904
vt 0.884760 0.373626
vt 0.893818 0.372650
vt 0.893988 0.396950
vt 0.884692 0.407955
vt 0.895930 0.372396
vt 0.895263 0.395643
vt 0.912791 0.374657
vt 0.909000 0.396184
vt 0.914768 0.375051
vt 0.910098 0.397674
vt 0.945159 0.379977
vt 0.913141 0.409128
vt 0.941314 0.411715
vt 0.939687 0.413241
vt 0.914587 0.411014
vt 0.913838 0.427032
vt 0.912198 0.428670
vt 0.911483 0.410798
vt 0.886160 0.409736
vt 0.910741 0.426834
vt 0.938953 0.428617
vt 0.940413 0.430393
vt 0.940301 0.433538
vt 0.883695 0.430255
vt 0.883792 0.427114
vt 0.885436 0.425489
vt 0.448025 0.101258
vt 0.418491 0.128589
vt 0.415950 0.129324
vt 0.446875 0.095996
vt 0.430641 0.141177
vt 0.413672 0.127159
vt 0.886851 0.410524
vt 0.886123 0.424694
vt 0.910059 0.426021
vt 0.910791 0.411604
vt 0.409317 0.127389
vt 0.447338 0.091468
vt 0.401410 0.042618
vt 0.405800 0.043013
vt 0.447219 0.087184
vt 0.459297 0.115381
vt 0.448130 0.006135
vt 0.462295 0.072172
vt 0.457773 0.115157
vt 0.448101 0.102906
vt 0.420090 0.128697
vt 0.430481 0.139651
vt 0.363729 0.074596
vt 0.396802 0.042940
vt 0.363196 0.079043
vt 0.361754 0.072092
vt 0.356075 0.004253
vt 0.349874 0.058459
vt 0.443152 0.091410
vt 0.401310 0.047181
vt 0.367596 0.078804
vt 0.439228 0.091210
vt 0.401240 0.051053
vt 0.371608 0.079035
vt 0.436834 0.091383
vt 0.401249 0.053424
vt 0.374007 0.078967
vt 0.409569 0.116739
vt 0.409475 0.119169
vt 0.409397 0.122956
vt 0.405190 0.127235
vt 0.363325 0.083367
vt 0.487382 0.048823
vt 0.325999 0.033843
vt 0.938266 0.427826
vt 0.939000 0.413998
vt 0.914523 0.426234
vt 0.915257 0.411846
s 1
f 1/1/1 3/2/1 32/3/1 2/4/1
f 1/5/2 4/6/2 5/7/2 3/8/2
f 5/7/3 4/6/3 6/9/3 7/10/3
f 7/10/2 6/9/2 8/11/2 10/12/2
f 9/13/1 11/14/1 10/12/1 8/11/1
f 11/14/4 5/7/4 7/10/4 10/12/4
f 12/15/2 11/14/2 9/13/2
f 5/7/2 11/14/2 13/16/2 3/8/2
f 12/15/2 14/17/2 13/16/2 11/14/2
f 59/18/2 15/19/2 13/16/2 14/17/2
f 15/19/2 18/20/2 17/21/2 13/16/2
f 3/8/2 13/16/2 16/22/2 26/23/2
f 21/24/2 16/22/2 13/16/2 17/21/2
f 18/20/2 58/25/2 19/26/2 17/21/2
f 19/26/2 41/27/2 20/28/2 17/21/2
f 20/28/2 22/29/2 17/21/2
f 17/21/2 22/29/2 25/30/2 21/24/2
f 34/31/1 23/32/1 22/33/1 24/34/1
f 23/32/1 40/35/1 3/2/1 22/33/1
f 22/33/1 20/36/1 24/34/1
f 26/23/2 25/30/2 22/29/2 3/8/2
f 25/30/3 26/23/3 29/37/3 27/38/3
f 27/38/4 28/39/4 21/24/4 25/30/4
f 27/38/2 29/37/2 30/40/2 28/39/2
f 30/40/5 29/37/5 26/23/5 16/22/5
f 16/22/1 21/24/1 28/39/1 30/40/1
f 24/34/6 20/36/7 57/41/8 31/42/9
f 31/42/9 43/43/10 33/44/11 24/45/6
f 35/46/1 34/31/1 24/34/1 32/3/1
f 42/47/12 32/48/12 24/45/12 33/44/12
f 34/31/2 35/46/2 38/49/2 36/50/2
f 23/32/4 34/31/4 36/50/4 37/51/4
f 39/52/1 37/51/1 36/50/1 38/49/1
f 35/46/5 40/35/5 39/52/5 38/49/5
f 40/35/12 23/32/12 37/51/12 39/52/12
f 40/35/1 35/46/1 32/3/1 3/2/1
f 41/53/13 33/54/11 43/43/10 44/55/14
f 33/54/3 41/53/3 19/56/3
f 42/57/3 33/54/3 19/56/3 14/58/3
f 31/42/12 46/59/12 45/60/12 43/43/12
f 44/55/3 43/43/3 45/60/3 47/61/3
f 45/60/15 46/59/16 49/62/17 48/63/18
f 48/63/18 50/64/19 47/61/20 45/60/15
f 52/65/2 51/66/2 48/63/2 49/62/2
f 50/64/1 48/63/1 51/66/1 53/67/1
f 52/65/5 54/68/5 53/67/5 51/66/5
f 53/67/12 54/68/12 55/69/12 50/64/12
f 49/62/3 55/69/3 54/68/3 52/65/3
f 55/69/21 56/70/22 47/61/20 50/64/19
f 55/69/21 49/62/17 46/59/16 56/70/22
f 31/42/1 57/41/1 56/70/1 46/59/1
f 47/61/2 56/70/2 57/41/2 44/55/2
f 20/71/7 41/72/13 44/55/14 57/41/8
f 2/73/12 32/48/12 42/47/12
f 42/57/3 14/58/3 12/74/3
f 58/25/2 59/18/2 14/17/2 19/26/2
f 59/18/1 58/25/1 60/75/1 61/76/1
f 58/25/4 18/20/4 62/77/4 60/75/4
f 61/76/2 60/75/2 62/77/2 63/78/2
f 18/20/3 15/19/3 63/78/3 62/77/3
f 15/19/5 59/18/5 61/76/5 63/78/5
