# Blender 4.4.1
# www.blender.org
o House_Small_2
v -0.376726 0.000000 0.180437
v -0.376726 -0.000000 -0.508320
v -0.376726 0.566819 0.180437
v -0.224207 0.000000 0.180437
v -0.224207 0.383635 0.180437
v -0.224207 0.000000 0.147445
v -0.224207 0.383635 0.147445
v 0.035658 0.000000 0.147445
v 0.035658 0.000000 0.180437
v 0.035652 0.383635 0.147445
v 0.035652 0.383635 0.180437
v 0.565280 0.000000 0.180437
v 0.094276 0.566819 0.180437
v 0.565280 0.566819 0.180437
v 0.120349 0.595334 0.180437
v 0.068205 0.595334 0.180437
v 0.094276 0.867969 0.180437
v 0.120349 0.839454 0.180437
v 0.565280 0.867969 0.180437
v -0.376726 0.921319 0.180437
v 0.068205 0.839454 0.180437
v -0.376726 0.867969 0.180437
v -0.376726 0.847964 0.144490
v -0.376726 0.921319 -0.508320
v -0.350657 0.839454 0.180437
v -0.350657 0.595334 0.180437
v -0.350657 0.839454 0.161655
v 0.068205 0.839454 0.161655
v -0.350657 0.595334 0.161655
v 0.068205 0.595334 0.161655
v -0.424571 0.921553 -0.555987
v -0.376726 0.566819 -0.508320
v 0.565280 0.921319 -0.508320
v -0.376726 0.847964 -0.472373
v -0.376726 0.586825 -0.472373
v -0.349237 0.847964 -0.472373
v -0.349237 0.847964 0.144490
v -0.349237 0.586825 -0.472373
v -0.349237 0.586825 0.144490
v -0.376726 0.586825 0.144490
v 0.565280 0.921319 0.180437
v 0.565280 -0.000000 -0.508320
v 0.613125 0.921553 -0.555987
v 0.613125 0.921553 0.228104
v 0.613125 1.001929 -0.555987
v -0.424571 1.001929 -0.555987
v 0.613125 1.001929 0.228104
v 0.565280 1.002163 -0.508320
v -0.376726 1.002163 -0.508320
v 0.565280 1.002163 0.180437
v 0.565280 0.957378 -0.508320
v -0.376726 0.957378 -0.508320
v 0.565280 0.957378 0.180437
v -0.376726 0.957378 0.180437
v -0.376726 1.002163 0.180437
v -0.424571 1.001929 0.228104
v -0.424571 0.921553 0.228104
v 0.539209 0.839454 0.180437
v 0.539209 0.595334 0.180437
v 0.539209 0.839454 0.161655
v 0.539209 0.595334 0.161655
v 0.120349 0.839454 0.161655
v 0.120349 0.595334 0.161655
vn -1.0000 -0.0000 -0.0000
vn -0.0000 -0.0000 1.0000
vn 1.0000 -0.0000 -0.0000
vn -0.0000 -1.0000 -0.0000
vn -0.0000 1.0000 -0.0000
vn -0.0024 -1.0000 -0.0025
vn -0.0024 -1.0000 0.0025
vn -0.0025 -1.0000 0.0024
vn -0.0025 -1.0000 -0.0024
vn 0.0025 -1.0000 -0.0024
vn 0.0024 -1.0000 -0.0025
vn -0.0000 -0.0000 -1.0000
vn 0.0024 -1.0000 0.0025
vn 0.0025 -1.0000 0.0024
vn 0.0025 1.0000 -0.0024
vn -0.0025 1.0000 -0.0024
vn -0.0024 1.0000 -0.0025
vn 0.0024 1.0000 -0.0025
vn 0.0024 1.0000 0.0025
vn 0.0025 1.0000 0.0024
vn -0.0024 1.0000 0.0025
vn -0.0025 1.0000 0.0024
vt 0.865611 0.663724
vt 0.842682 0.638296
vt 0.874650 0.609569
vt 0.897186 0.635632
vt 0.042853 0.347818
vt 0.051911 0.346843
vt 0.052081 0.371143
vt 0.042785 0.382148
vt 0.054023 0.346589
vt 0.053356 0.369836
vt 0.070884 0.348850
vt 0.067093 0.370377
vt 0.072861 0.349244
vt 0.068191 0.371867
vt 0.103252 0.354170
vt 0.071234 0.383320
vt 0.099407 0.385908
vt 0.097780 0.387434
vt 0.072680 0.385207
vt 0.071931 0.401225
vt 0.070291 0.402863
vt 0.069576 0.384991
vt 0.044254 0.383929
vt 0.068834 0.401027
vt 0.097046 0.402810
vt 0.098506 0.404586
vt 0.098394 0.407731
vt 0.041788 0.404447
vt 0.041885 0.401307
vt 0.043529 0.399681
vt 0.860935 0.595987
vt 0.831401 0.623318
vt 0.828860 0.624053
vt 0.859785 0.590725
vt 0.843551 0.635906
vt 0.826581 0.621888
vt 0.044944 0.384717
vt 0.044216 0.398887
vt 0.068152 0.400213
vt 0.068884 0.385797
vt 0.822227 0.622118
vt 0.860248 0.586197
vt 0.814319 0.537347
vt 0.818709 0.537742
vt 0.860129 0.581912
vt 0.872207 0.610109
vt 0.861040 0.500864
vt 0.875205 0.566901
vt 0.870682 0.609886
vt 0.861011 0.597635
vt 0.832999 0.623426
vt 0.843391 0.634380
vt 0.776638 0.569325
vt 0.809712 0.537669
vt 0.776106 0.573772
vt 0.774663 0.566821
vt 0.768985 0.498982
vt 0.762783 0.553188
vt 0.856062 0.586139
vt 0.814220 0.541910
vt 0.780506 0.573533
vt 0.852138 0.585939
vt 0.814149 0.545782
vt 0.784518 0.573764
vt 0.849744 0.586112
vt 0.814159 0.548152
vt 0.786917 0.573696
vt 0.822479 0.611468
vt 0.822385 0.613898
vt 0.822307 0.617684
vt 0.818099 0.621964
vt 0.776234 0.578096
vt 0.900292 0.543552
vt 0.738908 0.528573
vt 0.096359 0.402019
vt 0.097093 0.388191
vt 0.072616 0.400426
vt 0.073349 0.386038
s 1
f 1/1/1 3/2/1 32/3/1 2/4/1
f 1/5/2 4/6/2 5/7/2 3/8/2
f 5/7/3 4/6/3 6/9/3 7/10/3
f 7/10/2 6/9/2 8/11/2 10/12/2
f 9/13/1 11/14/1 10/12/1 8/11/1
f 11/14/4 5/7/4 7/10/4 10/12/4
f 12/15/2 11/14/2 9/13/2
f 5/7/2 11/14/2 13/16/2 3/8/2
f 12/15/2 14/17/2 13/16/2 11/14/2
f 59/18/2 15/19/2 13/16/2 14/17/2
f 15/19/2 18/20/2 17/21/2 13/16/2
f 3/8/2 13/16/2 16/22/2 26/23/2
f 21/24/2 16/22/2 13/16/2 17/21/2
f 18/20/2 58/25/2 19/26/2 17/21/2
f 19/26/2 41/27/2 20/28/2 17/21/2
f 20/28/2 22/29/2 17/21/2
f 17/21/2 22/29/2 25/30/2 21/24/2
f 34/31/1 23/32/1 22/33/1 24/34/1
f 23/32/1 40/35/1 3/2/1 22/33/1
f 22/33/1 20/36/1 24/34/1
f 26/23/2 25/30/2 22/29/2 3/8/2
f 25/30/3 26/23/3 29/37/3 27/38/3
f 27/38/4 28/39/4 21/24/4 25/30/4
f 27/38/2 29/37/2 30/40/2 28/39/2
f 30/40/5 29/37/5 26/23/5 16/22/5
f 16/22/1 21/24/1 28/39/1 30/40/1
f 24/34/6 20/36/7 57/41/8 31/42/9
f 31/42/9 43/43/10 33/44/11 24/45/6
f 35/46/1 34/31/1 24/34/1 32/3/1
f 42/47/12 32/48/12 24/45/12 33/44/12
f 34/31/2 35/46/2 38/49/2 36/50/2
f 23/32/4 34/31/4 36/50/4 37/51/4
f 39/52/1 37/51/1 36/50/1 38/49/1
f 35/46/5 40/35/5 39/52/5 38/49/5
f 40/35/12 23/32/12 37/51/12 39/52/12
f 40/35/1 35/46/1 32/3/1 3/2/1
f 41/53/13 33/54/11 43/43/10 44/55/14
f 33/54/3 41/53/3 19/56/3
f 42/57/3 33/54/3 19/56/3 14/58/3
f 31/42/12 46/59/12 45/60/12 43/43/12
f 44/55/3 43/43/3 45/60/3 47/61/3
f 45/60/15 46/59/16 49/62/17 48/63/18
f 48/63/18 50/64/19 47/61/20 45/60/15
f 52/65/2 51/66/2 48/63/2 49/62/2
f 50/64/1 48/63/1 51/66/1 53/67/1
f 52/65/5 54/68/5 53/67/5 51/66/5
f 53/67/12 54/68/12 55/69/12 50/64/12
f 49/62/3 55/69/3 54/68/3 52/65/3
f 55/69/21 56/70/22 47/61/20 50/64/19
f 55/69/21 49/62/17 46/59/16 56/70/22
f 31/42/1 57/41/1 56/70/1 46/59/1
f 47/61/2 56/70/2 57/41/2 44/55/2
f 20/71/7 41/72/13 44/55/14 57/41/8
f 2/73/12 32/48/12 42/47/12
f 42/57/3 14/58/3 12/74/3
f 58/25/2 59/18/2 14/17/2 19/26/2
f 59/18/1 58/25/1 60/75/1 61/76/1
f 58/25/4 18/20/4 62/77/4 60/75/4
f 61/76/2 60/75/2 62/77/2 63/78/2
f 18/20/3 15/19/3 63/78/3 62/77/3
f 15/19/5 59/18/5 61/76/5 63/78/5
