# Blender 4.4.1
# www.blender.org
o House_Small_4
v -0.388391 0.000000 0.289301
v -0.388391 0.000000 0.289301
v -0.388391 0.220594 0.289301
v -0.388391 0.000000 0.289301
v -0.388391 0.220594 0.289301
v -0.388391 -0.000000 -0.723253
v 0.624163 -0.000000 -0.723253
v -0.388391 0.802643 -0.723253
v -0.388391 0.802643 0.289301
v 0.624163 0.802643 -0.723253
v -0.448154 0.802463 -0.783018
v -0.448154 0.802463 0.349066
v -0.448154 0.900427 -0.783018
v 0.683928 0.802463 -0.783018
v 0.683928 0.802463 0.349066
v 0.683928 0.900427 -0.783018
v 0.624163 0.900247 -0.723253
v 0.683928 0.900427 0.349066
v -0.448154 0.900427 0.349066
v 0.624163 0.900247 0.289301
v -0.388391 0.900247 0.289301
v 0.624163 0.855519 0.289301
v -0.388391 0.855519 0.289301
v 0.624163 0.855519 -0.723253
v -0.388391 0.855519 -0.723253
v -0.388391 0.900247 -0.723253
v 0.624163 0.802643 0.289301
v 0.624163 0.554466 0.289301
v 0.305233 0.554466 0.289301
v 0.305233 0.000000 0.289301
v 0.180035 0.554466 0.289301
v 0.324112 0.534297 0.289301
v 0.603994 0.534297 0.289301
v 0.324112 0.020169 0.289301
v 0.324112 0.534297 0.273753
v 0.324112 0.020169 0.273753
v 0.603994 0.534297 0.273753
v 0.603994 0.020169 0.273753
v 0.603994 0.020169 0.289301
v 0.624163 0.000000 0.289301
v -0.388391 0.554466 0.289301
v 0.152014 0.532443 0.289301
v 0.180035 0.220594 0.289301
v 0.152014 0.242617 0.289301
v -0.388391 0.220594 0.289301
v -0.366367 0.242617 0.289301
v -0.366367 0.242617 0.268572
v -0.366367 0.532443 0.289301
v -0.366367 0.532443 0.268572
v 0.152014 0.532443 0.268572
v 0.152014 0.242617 0.268572
v -0.388391 0.554466 0.289301
vn -0.0000 1.0000 -0.0000
vn -0.0000 -0.0000 1.0000
vn -1.0000 -0.0000 -0.0000
vn -0.0000 -0.0000 -1.0000
vn 0.0015 -1.0000 0.0015
vn 0.0015 -1.0000 -0.0015
vn -0.0015 -1.0000 0.0015
vn -0.0015 -1.0000 -0.0015
vn 1.0000 -0.0000 -0.0000
vn -0.0015 1.0000 0.0015
vn 0.0015 1.0000 0.0015
vn -0.0015 1.0000 -0.0015
vn 0.0015 1.0000 -0.0015
vn -0.0000 -1.0000 -0.0000
vn -0.0001 1.0000 -0.0000
vt 0.836925 0.467962
vt 0.822500 0.466253
vt 0.822500 0.466252
vt 0.836924 0.467961
vt 0.822499 0.466251
vt 0.836924 0.467960
vt 0.856541 0.407618
vt 0.756484 0.321211
vt 0.816823 0.339679
vt 0.810369 0.386464
vt 0.736857 0.371730
vt 0.802516 0.462310
vt 0.792871 0.452697
vt 0.792108 0.452372
vt 0.809732 0.386671
vt 0.738021 0.372346
vt 0.789121 0.448635
vt 0.805312 0.389219
vt 0.741149 0.376288
vt 0.724676 0.446301
vt 0.724966 0.444593
vt 0.728489 0.440811
vt 0.801038 0.391637
vt 0.743888 0.380277
vt 0.732278 0.437630
vt 0.786679 0.445073
vt 0.733976 0.436009
vt 0.785305 0.443403
vt 0.745295 0.382108
vt 0.799041 0.392799
vt 0.687859 0.369245
vt 0.709888 0.441286
vt 0.728362 0.463173
vt 0.750680 0.462807
vt 0.759934 0.463401
vt 0.749407 0.464077
vt 0.729782 0.464403
vt 0.759387 0.483392
vt 0.750524 0.496544
vt 0.749306 0.495365
vt 0.748611 0.464552
vt 0.730589 0.464789
vt 0.748545 0.494939
vt 0.731882 0.496706
vt 0.731293 0.497377
vt 0.730087 0.498795
vt 0.674559 0.430198
vt 0.800466 0.463911
vt 0.762311 0.464517
vt 0.802516 0.462311
vt 0.761464 0.482353
vt 0.795731 0.486172
vt 0.796790 0.487974
vt 0.792383 0.501574
vt 0.762236 0.481527
vt 0.795253 0.485000
vt 0.799532 0.464961
vt 0.763294 0.465237
s 0
f 2/1/1 45/2/2 3/3/1 1/4/2
f 1/4/1 3/3/2 5/5/1 4/6/2
s 1
f 4/6/3 5/5/3 6/7/3
f 7/8/4 6/9/4 8/10/4 10/11/4
f 5/5/3 52/12/3 9/13/3 8/10/3 6/7/3
f 8/10/5 9/13/6 12/14/6 11/15/5
f 10/11/7 8/10/5 11/15/5 14/16/7
f 11/15/3 12/14/3 19/17/3 13/18/3
f 14/16/4 11/15/4 13/18/4 16/19/4
f 27/20/8 10/11/7 14/16/7 15/21/8
f 15/21/9 14/16/9 16/19/9 18/22/9
f 16/19/10 13/18/11 26/23/11 17/24/10
f 17/24/10 20/25/12 18/22/12 16/19/10
f 18/22/2 19/17/2 12/14/2 15/21/2
f 20/25/12 21/26/13 19/17/13 18/22/12
f 22/27/4 23/28/4 21/26/4 20/25/4
f 20/25/3 17/24/3 24/29/3 22/27/3
f 24/29/1 25/30/1 23/28/1 22/27/1
f 17/24/2 26/23/2 25/30/2 24/29/2
f 26/23/9 21/26/9 23/28/9 25/30/9
f 21/26/13 26/23/11 13/18/11 19/17/13
f 15/21/8 12/14/6 9/13/6 27/20/8
f 7/31/9 10/11/9 27/20/9 28/32/9
f 28/33/2 27/20/2 29/34/2
f 9/13/2 31/35/2 29/34/2 27/20/2
f 32/36/2 33/37/2 28/33/2 29/34/2
f 31/35/2 43/38/2 30/39/2 29/34/2
f 34/40/2 32/36/2 29/34/2 30/39/2
f 33/37/14 32/36/14 35/41/14 37/42/14
f 34/40/9 36/43/9 35/41/9 32/36/9
f 38/44/2 37/42/2 35/41/2 36/43/2
f 39/45/3 33/37/3 37/42/3 38/44/3
f 34/40/1 39/45/1 38/44/1 36/43/1
f 39/45/2 40/46/2 28/33/2 33/37/2
f 39/45/2 34/40/2 30/39/2 40/46/2
f 7/31/9 28/32/9 40/47/9
f 48/48/2 42/49/2 31/35/2 41/50/2
f 9/13/2 52/12/2 41/50/2 31/35/2
f 42/49/2 44/51/2 43/38/2 31/35/2
f 44/51/2 46/52/2 45/53/2 43/38/2
f 2/54/2 43/38/2 45/53/2
f 43/38/2 2/54/2 30/39/2
f 46/52/2 48/48/2 41/50/2 45/53/2
s 0
f 45/2/1 41/50/2 52/12/1 3/3/2
s 1
f 46/52/1 44/51/1 51/55/1 47/56/1
f 48/48/9 46/52/9 47/56/9 49/57/9
f 42/49/14 48/48/14 49/57/14 50/58/14
f 51/55/2 50/58/2 49/57/2 47/56/2
f 44/51/3 42/49/3 50/58/3 51/55/3
s 0
f 3/3/1 52/12/15 5/5/2
