# Blender 4.4.1
# www.blender.org
o House_Small_3
v -0.388391 0.000000 0.289301
v -0.388391 0.000000 0.289301
v -0.388391 0.220594 0.289301
v -0.388391 0.000000 0.289301
v -0.388391 0.220594 0.289301
v -0.388391 -0.000000 -0.723253
v 0.624163 -0.000000 -0.723253
v -0.388391 0.751419 -0.723253
v -0.388391 0.751419 0.289301
v 0.624163 0.751419 -0.723253
v -0.448154 0.751239 -0.783018
v -0.448154 0.751239 0.349066
v -0.448154 0.849203 -0.783018
v 0.683928 0.751239 -0.783018
v 0.683928 0.751239 0.349066
v 0.683928 0.849203 -0.783018
v 0.624163 0.849023 -0.723253
v 0.683928 0.849203 0.349066
v -0.448154 0.849203 0.349066
v 0.624163 0.849023 0.289301
v -0.388391 0.849023 0.289301
v 0.624163 0.804295 0.289301
v -0.388391 0.804295 0.289301
v 0.624163 0.804295 -0.723253
v -0.388391 0.804295 -0.723253
v -0.388391 0.849023 -0.723253
v 0.624163 0.751419 0.289301
v 0.624163 0.554466 0.289301
v 0.305233 0.554466 0.289301
v 0.305233 0.000000 0.289301
v 0.180035 0.554466 0.289301
v 0.324112 0.534297 0.289301
v 0.603994 0.534297 0.289301
v 0.324112 0.020169 0.289301
v 0.324112 0.534297 0.273753
v 0.324112 0.020169 0.273753
v 0.603994 0.534297 0.273753
v 0.603994 0.020169 0.273753
v 0.603994 0.020169 0.289301
v 0.624163 0.000000 0.289301
v 0.180035 0.220594 0.289301
v -0.388391 0.554466 0.289301
v 0.152014 0.532443 0.289301
v -0.366367 0.532443 0.289301
v 0.152014 0.242617 0.289301
v 0.152014 0.532443 0.268572
v 0.152014 0.242617 0.268572
v -0.366367 0.532443 0.268572
v -0.366367 0.242617 0.268572
v -0.366367 0.242617 0.289301
v -0.388391 0.220594 0.289301
v -0.388391 0.554466 0.289301
vn -0.0000 1.0000 -0.0000
vn -0.0000 -0.0000 1.0000
vn -1.0000 -0.0000 -0.0000
vn -0.0000 -0.0000 -1.0000
vn 0.0015 -1.0000 0.0015
vn 0.0015 -1.0000 -0.0015
vn -0.0015 -1.0000 0.0015
vn -0.0015 -1.0000 -0.0015
vn 1.0000 -0.0000 -0.0000
vn -0.0015 1.0000 0.0015
vn 0.0015 1.0000 0.0015
vn -0.0015 1.0000 -0.0015
vn 0.0015 1.0000 -0.0015
vn -0.0000 -1.0000 -0.0000
vn -0.0001 1.0000 -0.0000
vt 0.202605 0.754111
vt 0.217244 0.754967
vt 0.217244 0.754968
vt 0.202606 0.754111
vt 0.217244 0.754969
vt 0.202605 0.754112
vt 0.186574 0.815849
vt 0.286158 0.895186
vt 0.225454 0.877976
vt 0.231138 0.833020
vt 0.302420 0.847569
vt 0.237726 0.757408
vt 0.245646 0.765214
vt 0.246367 0.765562
vt 0.231765 0.832785
vt 0.301844 0.847289
vt 0.249424 0.769415
vt 0.236008 0.830047
vt 0.298659 0.843245
vt 0.313973 0.772187
vt 0.313234 0.774287
vt 0.309738 0.778060
vt 0.240145 0.827509
vt 0.295860 0.839131
vt 0.305987 0.781270
vt 0.252032 0.773125
vt 0.304291 0.782851
vt 0.253460 0.774816
vt 0.294437 0.837276
vt 0.242059 0.826273
vt 0.279654 0.757660
vt 0.289136 0.758483
vt 0.348518 0.849657
vt 0.325920 0.776238
vt 0.311710 0.759128
vt 0.281318 0.737444
vt 0.290905 0.724454
vt 0.292097 0.725725
vt 0.290489 0.757244
vt 0.310290 0.757828
vt 0.291305 0.756779
vt 0.309491 0.757390
vt 0.292833 0.726206
vt 0.309854 0.725549
vt 0.310503 0.724914
vt 0.311812 0.723573
vt 0.361531 0.787158
vt 0.237725 0.757407
vt 0.277322 0.756459
vt 0.279145 0.738434
vt 0.239847 0.755869
vt 0.240826 0.754851
vt 0.276396 0.755685
vt 0.278318 0.739238
vt 0.245576 0.734834
vt 0.245056 0.733675
vt 0.244014 0.731830
vt 0.248538 0.718078
s 0
f 2/1/1 51/2/2 3/3/1 1/4/2
f 1/4/1 3/3/2 5/5/1 4/6/2
s 1
f 4/6/3 5/5/3 6/7/3
f 7/8/4 6/9/4 8/10/4 10/11/4
f 5/5/3 52/12/3 9/13/3 8/10/3 6/7/3
f 8/10/5 9/13/6 12/14/6 11/15/5
f 10/11/7 8/10/5 11/15/5 14/16/7
f 11/15/3 12/14/3 19/17/3 13/18/3
f 14/16/4 11/15/4 13/18/4 16/19/4
f 27/20/8 10/11/7 14/16/7 15/21/8
f 15/21/9 14/16/9 16/19/9 18/22/9
f 16/19/10 13/18/11 26/23/11 17/24/10
f 17/24/10 20/25/12 18/22/12 16/19/10
f 18/22/2 19/17/2 12/14/2 15/21/2
f 20/25/12 21/26/13 19/17/13 18/22/12
f 22/27/4 23/28/4 21/26/4 20/25/4
f 20/25/3 17/24/3 24/29/3 22/27/3
f 24/29/1 25/30/1 23/28/1 22/27/1
f 17/24/2 26/23/2 25/30/2 24/29/2
f 26/23/9 21/26/9 23/28/9 25/30/9
f 21/26/13 26/23/11 13/18/11 19/17/13
f 15/21/8 12/14/6 9/13/6 27/20/8
f 9/13/2 31/31/2 29/32/2 27/20/2
f 7/33/9 10/11/9 27/20/9 28/34/9
f 28/35/2 27/20/2 29/32/2
f 31/31/2 41/36/2 30/37/2 29/32/2
f 34/38/2 32/39/2 29/32/2 30/37/2
f 32/39/2 33/40/2 28/35/2 29/32/2
f 33/40/14 32/39/14 35/41/14 37/42/14
f 34/38/9 36/43/9 35/41/9 32/39/9
f 38/44/2 37/42/2 35/41/2 36/43/2
f 39/45/3 33/40/3 37/42/3 38/44/3
f 34/38/1 39/45/1 38/44/1 36/43/1
f 39/45/2 40/46/2 28/35/2 33/40/2
f 39/45/2 34/38/2 30/37/2 40/46/2
f 7/33/9 28/34/9 40/47/9
f 9/13/2 52/12/2 42/48/2 31/31/2
f 43/49/2 45/50/2 41/36/2 31/31/2
f 44/51/2 43/49/2 31/31/2 42/48/2
f 43/49/14 44/51/14 48/52/14 46/53/14
f 45/50/3 43/49/3 46/53/3 47/54/3
f 47/54/2 46/53/2 48/52/2 49/55/2
f 44/51/9 50/56/9 49/55/9 48/52/9
f 50/56/1 45/50/1 47/54/1 49/55/1
f 50/56/2 44/51/2 42/48/2 51/57/2
f 45/50/2 50/56/2 51/57/2 41/36/2
f 2/58/2 41/36/2 51/57/2
s 0
f 51/2/1 42/48/2 52/12/1 3/3/2
f 3/3/1 52/12/15 5/5/2
s 1
f 41/36/2 2/58/2 30/37/2
