# Blender 4.4.1
# www.blender.org
o Plant_Pot
v 0.000000 -0.000000 -0.065581
v 0.046375 -0.000000 -0.046373
v 0.000000 0.042269 -0.073922
v -0.046371 -0.000000 -0.046373
v -0.065578 0.000000 0.000000
v -0.052269 0.042269 -0.052271
v -0.073921 0.042269 -0.000000
v -0.047226 0.085961 -0.047226
v 0.000000 0.085961 -0.066787
v -0.066784 0.085961 -0.000000
v -0.050800 0.090044 -0.050800
v 0.000000 0.090044 -0.071842
v -0.071842 0.090044 -0.000000
v -0.047050 0.094536 -0.047051
v 0.000000 0.094536 -0.066540
v -0.066540 0.094536 -0.000000
v -0.047050 0.094536 0.047051
v 0.000000 0.094536 0.066540
v -0.050800 0.090044 0.050800
v 0.000000 0.090044 0.071842
v -0.047226 0.085961 0.047226
v -0.052269 0.042269 0.052271
v 0.000000 0.085961 0.066787
v 0.000000 0.042269 0.073922
v 0.047226 0.085961 0.047226
v 0.066788 0.085961 -0.000000
v 0.050800 0.090044 0.050800
v 0.052273 0.042269 0.052271
v 0.073925 0.042269 -0.000000
v 0.046375 0.000000 0.046373
v 0.065582 0.000000 0.000000
v 0.000000 0.000000 0.065581
v -0.046371 0.000000 0.046373
v 0.052273 0.042269 -0.052271
v 0.047226 0.085961 -0.047226
v 0.050800 0.090044 -0.050800
v 0.071842 0.090044 -0.000000
v 0.047051 0.094536 -0.047051
v 0.066540 0.094536 -0.000000
v 0.047051 0.094536 0.047051
v -0.045608 0.086626 0.046463
v -0.065475 0.087139 0.001349
v -0.045258 0.115750 0.050653
v 0.000340 0.087200 0.064327
v -0.004307 0.121903 0.068985
v 0.045452 0.088523 0.044476
v 0.063309 0.089821 -0.001460
v 0.043667 0.113720 0.051275
v 0.067745 0.117461 -0.006904
v 0.025143 0.138991 0.038912
v 0.038376 0.150090 -0.000982
v -0.003311 0.153023 0.041497
v -0.030441 0.142102 0.040275
v -0.001377 0.163972 -0.010640
v -0.038162 0.153665 0.007259
v 0.001621 0.148777 -0.038077
v -0.031776 0.144084 -0.036240
v -0.000702 0.121705 -0.070962
v 0.041828 0.141368 -0.024089
v 0.051800 0.119741 -0.049523
v 0.043442 0.090333 -0.046574
v -0.002506 0.089760 -0.064438
v -0.047619 0.088437 -0.044587
v -0.049408 0.118144 -0.053248
v -0.069733 0.123394 0.003448
vn 0.3765 -0.1794 -0.9089
vn -0.3765 -0.1794 -0.9089
vn -0.9089 -0.1794 -0.3765
vn -0.3784 0.1492 -0.9135
vn -0.9136 0.1492 -0.3784
vn -0.2519 -0.7528 -0.6081
vn -0.6080 -0.7529 -0.2518
vn -0.2586 0.7370 -0.6244
vn -0.6244 0.7371 -0.2586
vn -0.6244 0.7371 0.2586
vn -0.2586 0.7370 0.6244
vn -0.2519 -0.7528 0.6081
vn -0.6080 -0.7529 0.2518
vn -0.3784 0.1492 0.9135
vn -0.9136 0.1492 0.3784
vn 0.3784 0.1492 0.9135
vn 0.2519 -0.7528 0.6081
vn 0.6081 -0.7528 0.2519
vn 0.9135 0.1492 0.3784
vn 0.9089 -0.1794 0.3765
vn 0.3765 -0.1794 0.9089
vn -0.3765 -0.1794 0.9089
vn -0.9089 -0.1794 0.3765
vn 0.9089 -0.1794 -0.3765
vn 0.9135 0.1492 -0.3784
vn 0.3784 0.1492 -0.9135
vn 0.2519 -0.7528 -0.6081
vn 0.6081 -0.7528 -0.2519
vn 0.2586 0.7370 -0.6244
vn 0.6244 0.7370 -0.2586
vn 0.6244 0.7370 0.2586
vn 0.2586 0.7370 0.6244
vn -0.9006 -0.0946 0.4242
vn -0.3700 -0.1520 0.9165
vn 0.3619 -0.1375 0.9220
vn 0.9271 -0.0560 0.3707
vn 0.6990 0.6182 0.3595
vn 0.3642 0.6103 0.7035
vn 0.3402 0.9002 0.2717
vn -0.2415 0.9340 0.2633
vn -0.3559 0.5805 0.7324
vn -0.2888 0.8913 -0.3495
vn 0.3391 0.8663 -0.3667
vn -0.2297 0.7115 -0.6641
vn 0.3006 0.7511 -0.5878
vn 0.7332 0.6490 -0.2030
vn 0.3608 -0.2004 -0.9109
vn 0.8924 -0.2549 -0.3724
vn -0.3522 -0.2237 -0.9088
vn -0.9320 -0.1195 -0.3421
vn -0.6685 0.6889 -0.2802
vn -0.6787 0.6044 0.4171
vt 0.528125 0.004278
vt 0.529963 0.006080
vt 0.527443 0.008140
vt 0.525850 0.006208
vt 0.510893 0.016983
vt 0.512238 0.019145
vt 0.509526 0.020913
vt 0.508322 0.018568
vt 0.513441 0.015271
vt 0.514844 0.017380
vt 0.513761 0.021276
vt 0.511233 0.023031
vt 0.516340 0.019510
vt 0.513968 0.021568
vt 0.511357 0.023394
vt 0.516548 0.019807
vt 0.514195 0.021884
vt 0.511696 0.023645
vt 0.516772 0.020123
vt 0.519131 0.018015
vt 0.519357 0.018330
vt 0.521697 0.016187
vt 0.521926 0.016499
vt 0.518921 0.017720
vt 0.521484 0.015894
vt 0.517412 0.015600
vt 0.519952 0.013791
vt 0.522466 0.011949
vt 0.524022 0.014030
vt 0.524238 0.014321
vt 0.526531 0.012128
vt 0.526749 0.012417
vt 0.524960 0.010071
vt 0.523427 0.008071
vt 0.520966 0.009912
vt 0.518480 0.011729
vt 0.515971 0.013516
vt 0.528999 0.010196
vt 0.531404 0.008278
vt 0.531726 0.008499
vt 0.529219 0.010483
vt 0.531869 0.008887
vt 0.529452 0.010789
vt 0.526983 0.012725
vt 0.524471 0.014630
vt 0.454908 0.084950
vt 0.455294 0.086366
vt 0.452312 0.088192
vt 0.450855 0.086988
vt 0.459467 0.086010
vt 0.458027 0.087495
vt 0.461526 0.090271
vt 0.460221 0.090032
vt 0.460452 0.094658
vt 0.458965 0.094147
vt 0.457332 0.092389
vt 0.458256 0.090131
vt 0.456801 0.089241
vt 0.455248 0.091482
vt 0.454263 0.089546
vt 0.455631 0.088128
vt 0.454394 0.092823
vt 0.452919 0.091589
vt 0.456726 0.093608
vt 0.451016 0.091734
vt 0.452809 0.094548
vt 0.456246 0.095443
vt 0.451576 0.095762
vt 0.456212 0.097272
vt 0.449335 0.091389
s 1
f 1/1/1 3/2/1 34/3/1 2/4/1
f 4/5/2 6/6/2 3/7/2 1/8/2
f 5/9/3 7/10/3 6/6/3 4/5/3
f 3/7/4 6/6/4 8/11/4 9/12/4
f 6/6/5 7/10/5 10/13/5 8/11/5
f 9/12/6 8/11/6 11/14/6 12/15/6
f 8/11/7 10/13/7 13/16/7 11/14/7
f 12/15/8 11/14/8 14/17/8 15/18/8
f 11/14/9 13/16/9 16/19/9 14/17/9
f 13/16/10 19/20/10 17/21/10 16/19/10
f 19/20/11 20/22/11 18/23/11 17/21/11
f 21/24/12 23/25/12 20/22/12 19/20/12
f 10/13/13 21/24/13 19/20/13 13/16/13
f 22/26/14 24/27/14 23/25/14 21/24/14
f 7/10/15 22/26/15 21/24/15 10/13/15
f 24/27/16 28/28/16 25/29/16 23/25/16
f 23/25/17 25/29/17 27/30/17 20/22/17
f 25/29/18 26/31/18 37/32/18 27/30/18
f 28/28/19 29/33/19 26/31/19 25/29/19
f 31/34/20 29/33/20 28/28/20 30/35/20
f 30/35/21 28/28/21 24/27/21 32/36/21
f 32/36/22 24/27/22 22/26/22 33/37/22
f 33/37/23 22/26/23 7/10/23 5/9/23
f 2/4/24 34/3/24 29/33/24 31/34/24
f 29/33/25 34/3/25 35/38/25 26/31/25
f 34/3/26 3/2/26 9/39/26 35/38/26
f 35/38/27 9/39/27 12/40/27 36/41/27
f 26/31/28 35/38/28 36/41/28 37/32/28
f 36/41/29 12/40/29 15/42/29 38/43/29
f 37/32/30 36/41/30 38/43/30 39/44/30
f 27/30/31 37/32/31 39/44/31 40/45/31
f 20/22/32 27/30/32 40/45/32 18/23/32
f 41/46/33 43/47/33 65/48/33 42/49/33
f 44/50/34 45/51/34 43/47/34 41/46/34
f 46/52/35 48/53/35 45/51/35 44/50/35
f 47/54/36 49/55/36 48/53/36 46/52/36
f 49/55/37 51/56/37 50/57/37 48/53/37
f 48/53/38 50/57/38 52/58/38 45/51/38
f 51/56/39 54/59/39 52/58/39 50/57/39
f 54/59/40 55/60/40 53/61/40 52/58/40
f 45/51/41 52/58/41 53/61/41 43/47/41
f 56/62/42 57/63/42 55/60/42 54/59/42
f 59/64/43 56/62/43 54/59/43 51/56/43
f 64/65/44 57/63/44 56/62/44 58/66/44
f 58/66/45 56/62/45 59/64/45 60/67/45
f 60/67/46 59/64/46 51/56/46 49/55/46
f 62/68/47 58/66/47 60/67/47 61/69/47
f 61/69/48 60/67/48 49/55/48 47/54/48
f 63/70/49 64/65/49 58/66/49 62/68/49
f 42/49/50 65/48/50 64/65/50 63/70/50
f 65/48/51 55/60/51 57/63/51 64/65/51
f 43/47/52 53/61/52 55/60/52 65/48/52
