# Blender 4.4.1
# www.blender.org
o Store_Small_1
v -0.534952 0.000000 0.531040
v -0.468082 0.176175 0.531040
v -0.534952 0.702681 0.531040
v -0.534952 -0.000000 -0.531040
v 0.262014 0.023441 0.531040
v 0.534952 0.000000 0.531040
v 0.534952 -0.000000 -0.531040
v 0.534952 0.394011 0.531040
v 0.272940 0.023441 0.531040
v 0.501518 0.023441 0.531040
v 0.501518 0.023441 0.519363
v 0.501518 0.394011 0.531040
v 0.501518 0.394011 0.519363
v 0.501518 0.702681 0.531040
v 0.272976 0.394011 0.531040
v 0.272976 0.394011 0.519363
v 0.261976 0.394011 0.531040
v 0.273012 0.702681 0.531040
v 0.565821 0.704066 0.561683
v 0.565821 0.786636 0.561683
v 0.565821 0.704066 -0.561683
v 0.534952 0.702681 0.531040
v -0.565821 0.704066 0.561683
v -0.565821 0.704066 -0.561683
v -0.565821 0.786636 0.561683
v -0.534952 0.788021 0.531040
v -0.565821 0.786636 -0.561683
v 0.565821 0.786636 -0.561683
v -0.534952 0.788021 -0.531040
v -0.520159 0.702951 -0.516356
v 0.534952 0.788021 -0.531040
v 0.534952 0.788021 0.531040
v 0.520161 0.702951 -0.516356
v 0.520161 0.702951 0.516356
v -0.520159 0.702951 0.516356
v -0.534952 0.702681 -0.531040
v 0.534952 0.702681 -0.531040
v 0.261976 0.394011 0.524773
v -0.468082 0.394011 0.531040
v 0.261999 0.176175 0.531040
v 0.261999 0.176175 0.524773
v -0.468082 0.176175 0.524773
v 0.261999 0.168947 0.524773
v 0.261976 0.386783 0.524773
v -0.468082 0.168947 0.524773
v -0.468082 0.386783 0.524773
v -0.468082 0.394011 0.524773
v 0.272940 0.023441 0.519363
v 0.421392 0.578904 0.528771
v 0.421392 0.591573 0.536086
v -0.443491 0.578904 0.528771
v 0.421392 0.566235 0.536086
v 0.421392 0.578904 0.558029
v 0.421392 0.591573 0.550714
v -0.443491 0.578904 0.558029
v 0.421392 0.566235 0.550714
v -0.443491 0.566235 0.550714
v -0.443491 0.566235 0.536086
v -0.443491 0.591573 0.550714
v -0.443491 0.591573 0.536086
v -0.435896 0.488572 0.655644
v -0.400381 0.480162 0.664054
v -0.435598 0.595091 0.549281
v -0.432484 0.595549 0.525707
v -0.400084 0.594566 0.549807
v -0.396971 0.595549 0.525707
v -0.364573 0.595091 0.549281
v -0.361456 0.595549 0.525707
v -0.329058 0.594566 0.549807
v -0.364868 0.488572 0.655644
v -0.329355 0.480162 0.664054
v -0.293840 0.488572 0.655644
v -0.258327 0.480162 0.664054
v -0.293545 0.595091 0.549281
v -0.258030 0.594566 0.549807
v -0.290430 0.595549 0.525707
v -0.254917 0.595549 0.525707
v -0.325943 0.595549 0.525707
v -0.219402 0.595549 0.525707
v -0.183889 0.595549 0.525707
v -0.222517 0.595091 0.549281
v -0.187004 0.594566 0.549807
v -0.222815 0.488572 0.655644
v -0.187302 0.480162 0.664054
v -0.151789 0.488572 0.655644
v -0.116274 0.480162 0.664054
v -0.151491 0.595091 0.549281
v -0.115976 0.594566 0.549807
v -0.148375 0.595549 0.525707
v -0.112864 0.595549 0.525707
v -0.077349 0.595549 0.525707
v -0.041834 0.595549 0.525707
v -0.080463 0.595091 0.549281
v -0.044950 0.594566 0.549807
v -0.080761 0.488572 0.655644
v -0.045246 0.480162 0.664054
v -0.009733 0.488572 0.655644
v 0.025780 0.480162 0.664054
v -0.009436 0.595091 0.549281
v 0.026077 0.594566 0.549807
v -0.006321 0.595549 0.525707
v 0.029192 0.595549 0.525707
v 0.064705 0.595549 0.525707
v 0.100220 0.595549 0.525707
v 0.061590 0.595091 0.549281
v 0.097105 0.594566 0.549807
v 0.061293 0.488572 0.655644
v 0.096807 0.480162 0.664054
v 0.132320 0.488572 0.655644
v 0.167835 0.480162 0.664054
v 0.132618 0.595091 0.549281
v 0.168131 0.594566 0.549807
v 0.135733 0.595549 0.525707
v 0.171247 0.595549 0.525707
v 0.206758 0.595549 0.525707
v 0.242273 0.595549 0.525707
v 0.203646 0.595091 0.549281
v 0.239159 0.594566 0.549807
v 0.203348 0.488572 0.655644
v 0.238861 0.480162 0.664054
v 0.274376 0.488572 0.655644
v 0.309889 0.480162 0.664054
v 0.274672 0.595091 0.549281
v 0.310186 0.594566 0.549807
v 0.277788 0.595549 0.525707
v 0.313301 0.595549 0.525707
v 0.348814 0.595549 0.525707
v 0.384327 0.595549 0.525707
v 0.345699 0.595091 0.549281
v 0.381212 0.594566 0.549807
v 0.345402 0.488572 0.655644
v 0.380915 0.480162 0.664054
v 0.416430 0.488572 0.655644
v 0.416727 0.595091 0.549281
v 0.419842 0.595549 0.525707
vn -0.0000 -0.0000 1.0000
vn -1.0000 -0.0000 -0.0000
vn 1.0000 -0.0000 -0.0000
vn -0.0000 1.0000 -0.0000
vn -0.0000 -1.0000 -0.0000
vn 1.0000 -0.0001 -0.0000
vn -0.0000 -0.9990 0.0452
vn 0.0448 -0.9990 -0.0000
vn -0.0448 -0.9990 -0.0000
vn -0.0000 0.9990 0.0452
vn -0.0448 0.9990 -0.0000
vn -0.0000 -0.0000 -1.0000
vn -0.0000 0.9990 -0.0452
vn 0.9852 0.1713 -0.0000
vn -0.0000 0.1701 0.9854
vn -0.9852 0.1713 -0.0000
vn 0.0448 0.9990 -0.0000
vn -0.0000 0.1701 -0.9854
vn -0.0000 -0.9990 -0.0451
vn -1.0000 -0.0001 -0.0000
vn -0.0001 1.0000 -0.0000
vn -0.0000 0.5000 -0.8660
vn -0.0000 -0.5000 -0.8660
vn -0.0000 0.5000 0.8660
vn -0.0000 -0.5000 0.8660
vn -0.0000 0.7066 0.7076
vn -0.0001 0.7066 0.7076
vn 0.0072 0.9995 0.0311
vn -0.0072 0.9995 0.0293
vn 0.0001 0.7066 0.7076
vt 0.812942 0.012057
vt 0.805339 0.012558
vt 0.801955 0.004290
vt 0.811660 0.006322
vt 0.801214 0.015329
vt 0.789270 0.028504
vt 0.722821 0.094893
vt 0.736571 0.032364
vt 0.777507 0.037004
vt 0.768755 0.109090
vt 0.814551 0.004734
vt 0.905575 0.100304
vt 0.875226 0.036490
vt 0.901110 0.036511
vt 0.826962 0.004364
vt 0.825881 0.006240
vt 0.816837 0.004743
vt 0.811729 0.006461
vt 0.817280 0.004824
vt 0.812085 0.006984
vt 0.825493 0.006586
vt 0.845021 0.028106
vt 0.843096 0.028747
vt 0.816961 0.014307
vt 0.817266 0.013876
vt 0.830307 0.029939
vt 0.816204 0.013908
vt 0.847312 0.031493
vt 0.786637 0.030493
vt 0.849196 0.036767
vt 0.784580 0.035464
vt 0.859823 0.110037
vt 0.854425 0.110912
vt 0.854261 0.036476
vt 0.856259 0.038018
vt 0.861716 0.108013
vt 0.779574 0.035317
vt 0.770584 0.111328
vt 0.776013 0.112521
vt 0.847581 0.039044
vt 0.786201 0.037649
vt 0.778358 0.110344
vt 0.776656 0.117956
vt 0.853953 0.115990
vt 0.852048 0.108955
vt 0.789449 0.041594
vt 0.782359 0.106385
vt 0.847652 0.105578
vt 0.844724 0.043582
vt 0.852006 0.117927
vt 0.778691 0.119924
vt 0.787273 0.166764
vt 0.851776 0.159625
vt 0.801668 0.015030
vt 0.815776 0.013749
vt 0.812732 0.012564
vt 0.805978 0.012723
vt 0.815670 0.013708
vt 0.812652 0.012580
vt 0.806090 0.012732
vt 0.801822 0.014948
vt 0.410411 0.032757
vt 0.410851 0.033494
vt 0.410433 0.034243
vt 0.409553 0.032769
vt 0.365252 0.008035
vt 0.365671 0.007286
vt 0.409972 0.032020
vt 0.409135 0.033519
vt 0.364834 0.008784
vt 0.409575 0.034256
vt 0.410390 0.031271
vt 0.366089 0.006536
vt 0.366507 0.005787
vt 0.410808 0.030521
vt 0.366925 0.005038
vt 0.411227 0.029772
vt 0.367344 0.004288
vt 0.411645 0.029023
vt 0.363976 0.008797
vt 0.363536 0.008060
vt 0.363954 0.007310
vt 0.364812 0.007298
vt 0.242602 0.230784
vt 0.242283 0.240266
vt 0.240199 0.240232
vt 0.240496 0.231407
vt 0.242417 0.241688
vt 0.240336 0.241619
vt 0.244365 0.240378
vt 0.244499 0.241765
vt 0.244659 0.231554
vt 0.246449 0.240412
vt 0.246581 0.241834
vt 0.246765 0.230930
vt 0.248822 0.231701
vt 0.248530 0.240524
vt 0.250928 0.231077
vt 0.250613 0.240559
vt 0.250746 0.241981
vt 0.248664 0.241911
vt 0.252694 0.240670
vt 0.252829 0.242057
vt 0.254778 0.240704
vt 0.254911 0.242126
vt 0.252986 0.231847
vt 0.255092 0.231222
vt 0.257149 0.231992
vt 0.256859 0.240816
vt 0.259255 0.231367
vt 0.258943 0.240849
vt 0.256994 0.242203
vt 0.259076 0.242271
vt 0.261024 0.240960
vt 0.261160 0.242347
vt 0.263108 0.240994
vt 0.263242 0.242416
vt 0.261313 0.232137
vt 0.263419 0.231511
vt 0.265476 0.232281
vt 0.265189 0.241104
vt 0.267582 0.231655
vt 0.267273 0.241137
vt 0.267407 0.242559
vt 0.265325 0.242491
vt 0.269354 0.241248
vt 0.269490 0.242635
vt 0.271438 0.241280
vt 0.271572 0.242703
vt 0.269640 0.232424
vt 0.271746 0.231798
vt 0.273804 0.232567
vt 0.273519 0.241390
vt 0.275909 0.231940
vt 0.275603 0.241423
vt 0.273655 0.242778
vt 0.275737 0.242845
vt 0.277684 0.241533
vt 0.277820 0.242920
vt 0.279768 0.241565
vt 0.279902 0.242987
vt 0.277967 0.232709
vt 0.280073 0.232082
vt 0.282131 0.232850
vt 0.281849 0.241674
vt 0.284236 0.232223
vt 0.283933 0.241706
vt 0.284068 0.243128
vt 0.281986 0.243061
vt 0.286014 0.241815
vt 0.286150 0.243202
vt 0.288098 0.241847
vt 0.288232 0.243269
vt 0.286295 0.232991
vt 0.288400 0.232364
vt 0.290458 0.233131
vt 0.290180 0.241957
vt 0.290313 0.243345
s 1
f 40/1/1 2/2/1 1/3/1 5/4/1
f 2/2/1 39/5/1 3/6/1 1/3/1
f 4/7/2 1/8/2 3/9/2 36/10/2
f 5/4/1 1/3/1 6/11/1
f 7/12/3 8/13/3 6/14/3
f 6/11/1 8/15/1 12/16/1 10/17/1
f 5/4/1 6/11/1 9/18/1
f 9/18/1 6/11/1 10/17/1
f 9/18/4 10/17/4 11/19/4 48/20/4
f 10/17/2 12/16/2 13/21/2 11/19/2
f 8/15/1 22/22/1 14/23/1 12/16/1
f 12/16/5 15/24/5 16/25/5 13/21/5
f 18/26/1 15/24/1 12/16/1 14/23/1
f 9/18/6 48/20/6 16/25/6 15/24/6
f 17/27/1 40/1/1 9/18/1 15/24/1
f 18/26/1 17/27/1 15/24/1
f 18/26/7 14/23/7 19/28/7
f 17/27/1 18/26/1 3/6/1 39/5/1
f 18/26/7 19/28/7 23/29/7 3/6/7
f 19/28/1 20/30/1 25/31/1 23/29/1
f 21/32/3 28/33/3 20/30/3 19/34/3
f 22/35/8 37/36/8 21/32/8 19/34/8
f 14/23/7 22/22/7 19/28/7
f 36/10/9 3/9/9 23/37/9 24/38/9
f 23/37/2 25/31/2 27/39/2 24/38/2
f 32/40/10 26/41/10 25/31/10 20/30/10
f 26/41/11 29/42/11 27/39/11 25/31/11
f 24/43/12 27/39/12 28/33/12 21/44/12
f 29/42/13 31/45/13 28/33/13 27/39/13
f 29/42/14 26/41/14 35/46/14 30/47/14
f 31/45/15 29/42/15 30/47/15 33/48/15
f 32/40/16 31/45/16 33/48/16 34/49/16
f 31/45/17 32/40/17 20/30/17 28/33/17
f 35/46/4 34/49/4 33/48/4 30/47/4
f 26/41/18 32/40/18 34/49/18 35/46/18
f 37/50/19 36/51/19 24/43/19 21/44/19
f 4/52/12 36/51/12 37/50/12 7/53/12
f 7/12/3 37/36/3 22/35/3 8/13/3
f 17/27/5 39/5/5 47/54/5 38/55/5
f 40/1/20 17/27/20 38/55/20 41/56/20
f 40/1/1 5/4/1 9/18/1
f 2/2/4 40/1/4 41/56/4 42/57/4
f 41/56/1 38/55/1 44/58/1 43/59/1
f 42/57/12 41/56/12 43/59/12 45/60/12
f 44/58/1 46/61/1 45/60/1 43/59/1
s 0
f 47/54/21 42/57/4 45/60/4 46/61/4
s 1
f 38/55/1 47/54/1 46/61/1 44/58/1
f 39/5/3 2/2/3 42/57/3 47/54/3
f 16/25/1 48/20/1 11/19/1 13/21/1
f 50/62/3 54/63/3 53/64/3 49/65/3
f 49/65/22 51/66/22 60/67/22 50/68/22
f 52/69/23 58/70/23 51/66/23 49/65/23
f 49/65/3 53/64/3 56/71/3 52/69/3
f 54/72/24 59/73/24 55/74/24 53/75/24
f 53/75/25 55/74/25 57/76/25 56/77/25
f 56/77/5 57/76/5 58/78/5 52/79/5
f 58/70/2 57/80/2 55/81/2 51/66/2
f 51/66/2 55/81/2 59/82/2 60/83/2
f 50/68/4 60/67/4 59/73/4 54/72/4
f 62/84/26 65/85/26 63/86/27 61/87/27
f 63/86/28 65/85/28 66/88/28 64/89/28
f 65/85/29 67/90/29 68/91/29 66/88/29
f 70/92/26 67/90/26 65/85/26 62/84/26
f 67/90/28 69/93/28 78/94/28 68/91/28
f 71/95/26 69/93/26 67/90/26 70/92/26
f 72/96/26 74/97/26 69/93/26 71/95/26
f 73/98/26 75/99/26 74/97/26 72/96/26
f 74/97/28 75/99/28 77/100/28 76/101/28
f 69/93/29 74/97/29 76/101/29 78/94/29
f 75/99/29 81/102/29 79/103/29 77/100/29
f 81/102/28 82/104/28 80/105/28 79/103/28
f 83/106/26 81/102/26 75/99/26 73/98/26
f 84/107/26 82/104/26 81/102/26 83/106/26
f 85/108/26 87/109/26 82/104/26 84/107/26
f 86/110/26 88/111/26 87/109/26 85/108/26
f 82/104/29 87/109/29 89/112/29 80/105/29
f 87/109/28 88/111/28 90/113/28 89/112/28
f 88/111/29 93/114/29 91/115/29 90/113/29
f 93/114/28 94/116/28 92/117/28 91/115/28
f 95/118/26 93/114/26 88/111/26 86/110/26
f 96/119/26 94/116/26 93/114/26 95/118/26
f 97/120/26 99/121/26 94/116/26 96/119/26
f 98/122/26 100/123/26 99/121/26 97/120/26
f 99/121/28 100/123/28 102/124/28 101/125/28
f 94/116/29 99/121/29 101/125/29 92/117/29
f 100/123/29 105/126/29 103/127/29 102/124/29
f 105/126/28 106/128/28 104/129/28 103/127/28
f 107/130/26 105/126/26 100/123/26 98/122/26
f 108/131/26 106/128/26 105/126/26 107/130/26
f 109/132/26 111/133/26 106/128/26 108/131/26
f 110/134/26 112/135/26 111/133/26 109/132/26
f 106/128/29 111/133/29 113/136/29 104/129/29
f 111/133/28 112/135/28 114/137/28 113/136/28
f 112/135/29 117/138/29 115/139/29 114/137/29
f 117/138/28 118/140/28 116/141/28 115/139/28
f 119/142/26 117/138/26 112/135/26 110/134/26
f 120/143/26 118/140/26 117/138/26 119/142/26
f 121/144/26 123/145/26 118/140/26 120/143/26
f 122/146/26 124/147/26 123/145/26 121/144/26
f 123/145/28 124/147/28 126/148/28 125/149/28
f 118/140/29 123/145/29 125/149/29 116/141/29
f 124/147/29 129/150/29 127/151/29 126/148/29
f 129/150/28 130/152/28 128/153/28 127/151/28
f 131/154/26 129/150/26 124/147/26 122/146/26
f 132/155/26 130/152/26 129/150/26 131/154/26
f 133/156/30 134/157/30 130/152/26 132/155/26
f 130/152/29 134/157/29 135/158/29 128/153/29
