# Blender 4.4.1
# www.blender.org
o Store_Medium_2
v -0.725882 0.000000 0.457781
v -0.688483 0.111591 0.457781
v -0.141006 0.000000 0.457781
v -0.725882 0.443811 0.457781
v -0.725882 -0.000000 -0.607340
v 0.699592 -0.000000 -0.607340
v -0.725882 0.788997 -0.607340
v -0.725882 0.788997 0.457781
v -0.757883 0.783067 -0.656064
v 0.699592 0.788997 -0.607340
v 0.728599 0.783067 -0.656064
v 0.699592 0.788997 0.149559
v 0.699592 0.416536 -0.540485
v 0.699592 0.416536 -0.528179
v 0.699592 0.416536 -0.159008
v 0.673267 0.416536 -0.528179
v 0.673267 0.416536 -0.159008
v 0.673267 0.402381 -0.528179
v 0.673267 0.416536 -0.540485
v 0.673267 0.402381 -0.540485
v 0.673267 0.265994 -0.540485
v 0.673267 0.250791 -0.540485
v 0.673267 0.265994 -0.528179
v 0.673267 0.265994 -0.159008
v 0.673267 0.250791 -0.528179
v 0.659935 0.265994 -0.528179
v 0.659935 0.265994 -0.159008
v 0.659935 0.402381 -0.528179
v 0.659935 0.402381 -0.159008
v 0.673267 0.402381 -0.159008
v 0.673267 0.402381 -0.146702
v 0.673267 0.265994 -0.146702
v 0.673267 0.416536 -0.146702
v 0.699592 0.416536 -0.146702
v 0.699592 0.120622 -0.146702
v 0.699592 0.120622 -0.159008
v 0.673267 0.120622 -0.146702
v 0.699592 0.000000 0.149559
v 0.630633 0.118276 0.149559
v 0.193586 0.000000 0.149559
v 0.128992 0.014068 0.209062
v 0.193586 0.443811 0.149559
v 0.262545 0.118276 0.149559
v 0.262545 0.118276 0.127773
v 0.262545 0.393745 0.149559
v 0.262545 0.393745 0.127773
v 0.630633 0.393745 0.149559
v 0.630633 0.393745 0.127773
v 0.630633 0.118276 0.127773
v -0.141006 0.443811 0.457781
v 0.128992 0.416616 0.209062
v 0.193586 0.788997 0.149559
v -0.141006 0.788997 0.457781
v 0.203551 0.783067 0.184716
v -0.147976 0.783067 0.520073
v 0.203551 0.896438 0.184716
v 0.728599 0.783067 0.184716
v 0.728599 0.896438 0.184716
v 0.699592 0.890508 0.149559
v 0.728599 0.896438 -0.656064
v -0.757883 0.896438 -0.656064
v 0.699592 0.890508 -0.607340
v -0.725882 0.890508 -0.607340
v 0.699592 0.845044 -0.607340
v 0.699592 0.845044 0.149559
v 0.193586 0.845044 0.149559
v -0.725882 0.845044 -0.607340
v -0.725882 0.845044 0.457781
v -0.141006 0.845044 0.457781
v -0.141006 0.890508 0.457781
v -0.725882 0.890508 0.457781
v -0.147976 0.896438 0.520073
v 0.193586 0.890508 0.149559
v -0.757883 0.896438 0.520073
v -0.757883 0.783067 0.520073
v -0.076412 0.416616 0.398278
v 0.135643 0.416616 0.216282
v 0.135643 0.014068 0.216282
v -0.069761 0.416616 0.405498
v 0.122806 0.404371 0.228108
v 0.122806 0.220705 0.228108
v 0.122806 0.202967 0.228108
v -0.056924 0.220705 0.393672
v 0.117563 0.220705 0.222417
v -0.062165 0.220705 0.387982
v 0.117563 0.404371 0.222417
v -0.062165 0.404371 0.387982
v -0.056924 0.404371 0.393672
v -0.056924 0.202967 0.393672
v -0.062165 0.202967 0.387982
v -0.056924 0.025874 0.393672
v -0.069761 0.014068 0.405498
v -0.076412 0.014068 0.398278
v -0.062165 0.025874 0.387982
v 0.122806 0.025874 0.228108
v 0.117563 0.025874 0.222417
v 0.117563 0.202967 0.222417
v -0.178405 0.410669 0.457781
v -0.178405 0.410669 0.435995
v -0.178405 0.111591 0.457781
v -0.688483 0.410669 0.457781
v -0.688483 0.410669 0.435995
v -0.688483 0.111591 0.435995
v -0.178405 0.111591 0.435995
v 0.673267 0.132231 -0.146702
v 0.673267 0.120622 -0.159008
v 0.673267 0.132231 -0.159008
v 0.673267 0.120622 -0.528179
v 0.699592 0.120622 -0.528179
v 0.673267 0.120622 -0.540485
v 0.673267 0.132231 -0.528179
v 0.673267 0.132231 -0.540485
v 0.659935 0.132231 -0.528179
v 0.659935 0.132231 -0.159008
v 0.659935 0.250791 -0.528179
v 0.659935 0.250791 -0.159008
v 0.673267 0.250791 -0.159008
v 0.673267 0.250791 -0.146702
v 0.699592 0.120622 -0.540485
v -0.465690 0.964265 0.356807
v -0.450187 0.964265 0.393742
v -0.443426 0.964265 0.328690
v -0.503118 0.964265 0.341508
v -0.465690 0.957037 0.356807
v -0.503118 0.957037 0.341508
v -0.450187 0.957037 0.393742
v -0.503118 0.957037 0.393742
v -0.465690 0.957037 0.430677
v -0.465690 0.964265 0.430677
v -0.503118 0.957037 0.445976
v -0.540544 0.957037 0.430677
v -0.503118 0.964265 0.445976
v -0.562809 0.964265 0.458795
v -0.540544 0.964265 0.430677
v -0.556046 0.964265 0.393742
v -0.540544 0.964265 0.356807
v -0.556046 0.957037 0.393742
v -0.562809 0.964265 0.393742
v -0.562809 0.964265 0.328690
v -0.568126 0.964265 0.393742
v -0.584051 0.964265 0.355262
v -0.568126 0.957037 0.393742
v -0.584051 0.964265 0.432223
v -0.584051 0.957037 0.432223
v -0.622499 0.964265 0.448162
v -0.622499 0.957037 0.448162
v -0.660949 0.964265 0.432223
v -0.676874 0.964265 0.393742
v -0.682192 0.964265 0.458795
v -0.660949 0.957037 0.432223
v -0.676874 0.957037 0.393742
v -0.660949 0.957037 0.355262
v -0.622499 0.957037 0.393742
v -0.622499 0.957037 0.339322
v -0.584051 0.957037 0.355262
v -0.622499 0.964265 0.339322
v -0.660949 0.964265 0.355262
v -0.682192 0.964265 0.328690
v -0.682192 0.861575 0.328690
v -0.682192 0.861575 0.458795
v -0.562809 0.861575 0.328690
v -0.443426 0.861575 0.328690
v -0.443426 0.861575 0.458795
v -0.443426 0.964265 0.458795
v -0.562809 0.861575 0.458795
v -0.540544 0.957037 0.356807
v -0.683224 0.604595 0.585625
v -0.647711 0.596185 0.594035
v -0.682928 0.711114 0.479262
v -0.679812 0.711572 0.455688
v -0.647413 0.710589 0.479788
v -0.644299 0.711572 0.455688
v -0.611900 0.711114 0.479262
v -0.608785 0.711572 0.455688
v -0.576386 0.710589 0.479788
v -0.612198 0.604595 0.585625
v -0.576683 0.596185 0.594035
v -0.541170 0.604595 0.585625
v -0.505656 0.596185 0.594035
v -0.540873 0.711114 0.479262
v -0.537759 0.711572 0.455688
v -0.505359 0.710589 0.479788
v -0.469846 0.711114 0.479262
v -0.502245 0.711572 0.455688
v -0.466732 0.711572 0.455688
v -0.431217 0.711572 0.455688
v -0.395703 0.711572 0.455688
v -0.434333 0.710589 0.479788
v -0.398819 0.711114 0.479262
v -0.434629 0.596185 0.594035
v -0.470143 0.604595 0.585625
v -0.399116 0.604595 0.585625
v -0.363602 0.596185 0.594035
v -0.328089 0.604595 0.585625
v -0.363306 0.710589 0.479788
v -0.360190 0.711572 0.455688
v -0.327791 0.711114 0.479262
v -0.324677 0.711572 0.455688
v -0.292278 0.710589 0.479788
v -0.292576 0.596185 0.594035
v -0.256764 0.711114 0.479262
v -0.289163 0.711572 0.455688
v -0.253650 0.711572 0.455688
v -0.218137 0.711572 0.455688
v -0.182623 0.711572 0.455688
v -0.221251 0.710589 0.479788
v -0.185737 0.711114 0.479262
v -0.221548 0.596185 0.594035
v -0.257061 0.604595 0.585625
v -0.186035 0.604595 0.585625
v -0.573272 0.711572 0.455688
v -0.185742 0.694927 0.458753
v -0.185742 0.707596 0.466067
v -0.687489 0.694927 0.458753
v -0.185742 0.682258 0.466067
v -0.185742 0.694927 0.488010
v -0.687489 0.694927 0.488010
v -0.185742 0.682258 0.480696
v -0.185742 0.707596 0.480696
v -0.687489 0.707596 0.480696
v -0.687489 0.707596 0.466067
v -0.687489 0.682258 0.480696
v -0.687489 0.682258 0.466067
v 0.827107 0.426288 -0.138818
v 0.835516 0.417878 -0.174331
v 0.720745 0.532808 -0.139115
v 0.721271 0.532282 -0.174629
v 0.697170 0.533265 -0.142230
v 0.697170 0.533265 -0.177744
v 0.697170 0.533265 -0.213257
v 0.697170 0.533265 -0.248771
v 0.720745 0.532808 -0.210142
v 0.827107 0.426288 -0.209845
v 0.721271 0.532282 -0.245656
v 0.835516 0.417878 -0.245359
v 0.720745 0.532808 -0.281169
v 0.827107 0.426288 -0.280872
v 0.697170 0.533265 -0.284284
v 0.721271 0.532282 -0.316683
v 0.697170 0.533265 -0.319798
v 0.835516 0.417878 -0.316386
v 0.720745 0.532808 -0.352196
v 0.697170 0.533265 -0.355311
v 0.827107 0.426288 -0.351899
v 0.721271 0.532282 -0.387710
v 0.697170 0.533265 -0.390825
v 0.835516 0.417878 -0.387413
v 0.720745 0.532808 -0.423223
v 0.721271 0.532282 -0.458737
v 0.827107 0.426288 -0.422926
v 0.697170 0.533265 -0.426338
v 0.697170 0.533265 -0.461852
v 0.697170 0.533265 -0.497365
v 0.697170 0.533265 -0.532879
v 0.720745 0.532808 -0.494250
v 0.827107 0.426288 -0.493953
v 0.721271 0.532282 -0.529764
v 0.835516 0.417878 -0.529467
v 0.720745 0.532808 -0.565278
v 0.827107 0.426288 -0.564980
v 0.697170 0.533265 -0.568393
v 0.835516 0.417878 -0.458440
v 0.700235 0.516620 -0.566161
v 0.707550 0.529289 -0.566161
v 0.700235 0.516620 -0.134554
v 0.707550 0.503951 -0.566161
v 0.729492 0.516620 -0.566161
v 0.722178 0.529289 -0.566161
v 0.729492 0.516620 -0.134554
v 0.722178 0.503951 -0.566161
v 0.722178 0.503952 -0.134554
v 0.707550 0.503952 -0.134554
v 0.722178 0.529289 -0.134554
v 0.707550 0.529289 -0.134554
v 0.708952 0.105512 0.120045
v 0.708952 0.105512 -0.009621
v 0.708952 0.055418 0.120045
v 0.698952 0.105512 0.120045
v 0.698952 0.105512 -0.009621
v 0.698952 0.055418 0.120045
v 0.698952 0.055418 -0.009621
v 0.698952 0.037398 -0.009621
v 0.708952 0.055418 -0.009621
v 0.708952 0.080465 -0.086183
v 0.708952 0.037398 -0.009621
v 0.708952 0.123533 -0.009621
v 0.698952 0.080465 -0.086183
v 0.698952 0.123533 -0.009621
vn -0.0000 -0.0000 1.0000
vn -1.0000 -0.0000 -0.0000
vn -0.0000 -0.0000 -1.0000
vn 0.1822 -0.9833 -0.0000
vn -0.0000 -0.9927 0.1208
vn -0.2003 -0.9797 -0.0000
vn 1.0000 -0.0000 -0.0000
vn -0.0000 -1.0000 -0.0000
vn -0.0000 1.0000 -0.0000
vn 0.6775 -0.0000 0.7355
vn -0.1095 -0.9871 -0.1168
vn -0.0000 -0.9861 -0.1663
vn 0.6903 -0.0000 0.7236
vn -0.2003 0.9797 -0.0000
vn -0.0000 0.9861 -0.1663
vn -0.0000 0.9927 0.1208
vn -0.6775 -0.0000 -0.7355
vn -0.0000 0.9955 -0.0948
vn -0.1095 0.9871 -0.1168
vn 0.1822 0.9833 -0.0000
vn -0.0000 -0.9955 -0.0948
vn 0.7355 -0.0000 -0.6775
vn -0.7355 -0.0000 0.6775
vn -0.9221 -0.0000 0.3870
vn -0.3784 -0.0000 0.9257
vn -0.9221 -0.0000 -0.3870
vn -0.3784 -0.0000 -0.9257
vn 0.3784 -0.0000 -0.9256
vn 0.9221 -0.0000 -0.3870
vn 0.9221 -0.0000 0.3870
vn -0.9240 -0.0000 0.3824
vn -0.9240 -0.0000 -0.3824
vn -0.3830 -0.0000 -0.9238
vn 0.3829 -0.0000 -0.9238
vn 0.9240 -0.0000 -0.3824
vn 0.9240 -0.0000 0.3824
vn 0.3830 -0.0000 0.9238
vn -0.3830 -0.0000 0.9238
vn 0.3784 -0.0000 0.9256
vn -0.0000 0.7066 0.7076
vn -0.0001 0.7066 0.7076
vn 0.0072 0.9995 0.0311
vn -0.0072 0.9995 0.0293
vn 0.0001 0.7066 0.7076
vn -0.0000 0.5000 -0.8660
vn -0.0000 -0.5000 -0.8660
vn -0.0000 -0.5000 0.8660
vn -0.0000 0.5000 0.8660
vn 0.7076 0.7066 -0.0000
vn 0.7076 0.7066 0.0001
vn 0.0311 0.9995 -0.0072
vn 0.0293 0.9995 0.0072
vn 0.7076 0.7066 -0.0001
vn -0.8660 0.5000 -0.0000
vn -0.8660 -0.5000 -0.0000
vn 0.8660 0.5000 -0.0000
vn 0.8660 -0.5000 -0.0000
vn -0.0000 -0.8716 -0.4903
vn -0.0000 0.8716 -0.4903
vt 0.674490 0.179665
vt 0.683414 0.197614
vt 0.682261 0.200784
vt 0.669200 0.174545
vt 0.703981 0.162434
vt 0.703284 0.155237
vt 0.678778 0.244978
vt 0.736813 0.282100
vt 0.700813 0.312737
vt 0.658471 0.262867
vt 0.770115 0.324054
vt 0.743406 0.284598
vt 0.812594 0.235751
vt 0.840084 0.275165
vt 0.693637 0.226234
vt 0.740225 0.283240
vt 0.694610 0.230625
vt 0.812200 0.232346
vt 0.790650 0.184149
vt 0.812308 0.228714
vt 0.787837 0.182707
vt 0.820290 0.193095
vt 0.831262 0.213590
vt 0.831951 0.214183
vt 0.848793 0.205640
vt 0.857342 0.205757
vt 0.821670 0.193107
vt 0.831955 0.212447
vt 0.832257 0.212809
vt 0.822411 0.192986
vt 0.832521 0.212029
vt 0.832796 0.212527
vt 0.839778 0.208937
vt 0.840553 0.208553
vt 0.846907 0.205483
vt 0.847477 0.205175
vt 0.839513 0.208347
vt 0.840220 0.207985
vt 0.830879 0.189434
vt 0.830138 0.189757
vt 0.838839 0.208211
vt 0.829865 0.190395
vt 0.832723 0.211363
vt 0.823110 0.193183
vt 0.829868 0.189171
vt 0.822181 0.192438
vt 0.821428 0.192787
vt 0.820091 0.192287
vt 0.838027 0.184305
vt 0.837436 0.185723
vt 0.836975 0.185915
vt 0.830692 0.188812
vt 0.835555 0.164462
vt 0.838491 0.185146
vt 0.837684 0.186143
vt 0.848674 0.204711
vt 0.770443 0.158013
vt 0.763331 0.140667
vt 0.764564 0.132421
vt 0.784854 0.180864
vt 0.740034 0.148004
vt 0.732889 0.142810
vt 0.727589 0.145935
vt 0.709275 0.153630
vt 0.743675 0.168102
vt 0.737537 0.168823
vt 0.746863 0.164087
vt 0.762912 0.141795
vt 0.741226 0.148492
vt 0.747317 0.162976
vt 0.769244 0.157392
vt 0.750874 0.187340
vt 0.715010 0.179620
vt 0.722804 0.196281
vt 0.751213 0.189380
vt 0.722203 0.199150
vt 0.753302 0.196179
vt 0.725653 0.203577
vt 0.785086 0.188140
vt 0.806032 0.230414
vt 0.803231 0.228816
vt 0.784303 0.190440
vt 0.754055 0.198334
vt 0.740668 0.276814
vt 0.740462 0.273499
vt 0.740724 0.270928
vt 0.800794 0.227917
vt 0.783182 0.192533
vt 0.754802 0.201283
vt 0.730213 0.206575
vt 0.705957 0.227789
vt 0.703543 0.227895
vt 0.728731 0.204842
vt 0.699940 0.226325
vt 0.693393 0.220802
vt 0.719835 0.175942
vt 0.720056 0.175416
vt 0.736972 0.168650
vt 0.727359 0.146473
vt 0.731167 0.157935
vt 0.730691 0.156893
vt 0.720840 0.174376
vt 0.735663 0.168365
vt 0.715784 0.163908
vt 0.716262 0.164919
vt 0.735282 0.168128
vt 0.731095 0.158383
vt 0.716704 0.164964
vt 0.721040 0.174000
vt 0.709849 0.153792
vt 0.715873 0.163467
vt 0.730244 0.156859
vt 0.711225 0.154012
vt 0.711613 0.154233
vt 0.726567 0.147486
vt 0.726368 0.147877
vt 0.712096 0.179197
vt 0.710934 0.178882
vt 0.703697 0.163676
vt 0.683666 0.196301
vt 0.675661 0.180042
vt 0.837203 0.186435
vt 0.847312 0.204810
vt 0.846717 0.204945
vt 0.840464 0.207341
vt 0.846032 0.204792
vt 0.836958 0.187076
vt 0.831547 0.189590
vt 0.985802 0.110482
vt 0.985534 0.110221
vt 0.986536 0.108368
vt 0.986909 0.108432
vt 0.986884 0.111888
vt 0.980240 0.112799
vt 0.983642 0.111578
vt 0.983647 0.111168
vt 0.983729 0.108060
vt 0.985949 0.106295
vt 0.986275 0.106110
vt 0.984159 0.105015
vt 0.984237 0.104615
vt 0.982110 0.105465
vt 0.981897 0.105088
vt 0.981226 0.107855
vt 0.980895 0.102787
vt 0.987695 0.104921
vt 0.980896 0.107816
vt 0.980592 0.107789
vt 0.981484 0.110686
vt 0.981756 0.110361
vt 0.980353 0.107768
vt 0.979307 0.110613
vt 0.979727 0.104787
vt 0.979098 0.110233
vt 0.980021 0.107729
vt 0.979456 0.105111
vt 0.977497 0.104290
vt 0.977494 0.103880
vt 0.975543 0.105288
vt 0.975271 0.105033
vt 0.974242 0.103708
vt 0.974530 0.107272
vt 0.974147 0.107234
vt 0.973451 0.110669
vt 0.977440 0.107519
vt 0.976983 0.110704
vt 0.975149 0.109396
vt 0.974819 0.109581
vt 0.976894 0.111105
vt 0.969793 0.114262
vt 0.969494 0.101383
vt 0.980459 0.118925
vt 0.991641 0.114207
vt 0.991362 0.101343
vt 0.980705 0.096666
vt 0.762050 0.004720
vt 0.757349 0.012962
vt 0.755521 0.011960
vt 0.759896 0.004290
vt 0.756805 0.014282
vt 0.754996 0.013252
vt 0.759138 0.014030
vt 0.758611 0.015321
vt 0.763511 0.006361
vt 0.760966 0.015032
vt 0.760421 0.016352
vt 0.765665 0.006791
vt 0.767126 0.008431
vt 0.762755 0.016101
vt 0.769281 0.008860
vt 0.764583 0.017103
vt 0.762228 0.017391
vt 0.764038 0.018423
vt 0.770742 0.010500
vt 0.766372 0.018171
vt 0.765845 0.019462
vt 0.768200 0.019173
vt 0.767655 0.020493
vt 0.769989 0.020241
vt 0.769462 0.021531
vt 0.772896 0.010929
vt 0.774358 0.012569
vt 0.776513 0.012998
vt 0.771817 0.021242
vt 0.777974 0.014638
vt 0.773607 0.022310
vt 0.773080 0.023600
vt 0.771272 0.022562
vt 0.775435 0.023311
vt 0.774890 0.024631
vt 0.780129 0.015066
vt 0.781591 0.016706
vt 0.777225 0.024379
vt 0.776697 0.025669
vt 0.779053 0.025380
vt 0.778507 0.026700
vt 0.780842 0.026449
vt 0.780312 0.027739
vt 0.785207 0.018773
vt 0.783745 0.017134
vt 0.246193 0.004290
vt 0.246582 0.005445
vt 0.245767 0.005714
vt 0.245562 0.004365
vt 0.073508 0.082524
vt 0.041908 0.091033
vt 0.041788 0.090298
vt 0.073118 0.081792
vt 0.232680 0.034775
vt 0.204178 0.018761
vt 0.204558 0.018088
vt 0.233059 0.034101
vt 0.048274 0.008242
vt 0.041897 0.004280
vt 0.041788 0.004469
vt 0.048521 0.008428
vt 0.231921 0.036121
vt 0.203420 0.020107
vt 0.203799 0.019434
vt 0.232301 0.035448
vt 0.231542 0.036794
vt 0.203041 0.020781
vt 0.231163 0.037468
vt 0.202662 0.021454
vt 0.311627 0.005027
vt 0.309911 0.005051
vt 0.310330 0.004302
vt 0.311188 0.004290
vt 0.123083 0.004290
vt 0.123523 0.005027
vt 0.123104 0.005776
vt 0.122225 0.004302
vt 0.516636 0.071931
vt 0.507889 0.068255
vt 0.508663 0.066319
vt 0.516804 0.069741
vt 0.506513 0.067873
vt 0.507318 0.065953
vt 0.507043 0.070159
vt 0.505699 0.069791
vt 0.506268 0.072094
vt 0.504892 0.071711
vt 0.515183 0.073578
vt 0.515015 0.075768
vt 0.513562 0.077416
vt 0.505422 0.073999
vt 0.504078 0.073630
vt 0.513395 0.079606
vt 0.504648 0.075934
vt 0.503271 0.075551
vt 0.503802 0.077838
vt 0.502458 0.077470
vt 0.511942 0.081254
vt 0.503027 0.079773
vt 0.501651 0.079391
vt 0.511775 0.083445
vt 0.502182 0.081678
vt 0.500838 0.081310
vt 0.510323 0.085093
vt 0.510156 0.087283
vt 0.501408 0.083613
vt 0.500032 0.083231
vt 0.500562 0.085518
vt 0.499218 0.085150
vt 0.499788 0.087453
vt 0.498413 0.087070
vt 0.508704 0.088931
vt 0.508538 0.091122
vt 0.507086 0.092770
vt 0.498942 0.089358
vt 0.497597 0.088986
vt 0.863022 0.117496
vt 0.864642 0.117604
vt 0.865487 0.116202
vt 0.862245 0.115986
vt 0.878560 0.109328
vt 0.879344 0.110854
vt 0.863090 0.114585
vt 0.879412 0.107913
vt 0.864711 0.114693
vt 0.880980 0.110964
vt 0.881831 0.109549
vt 0.881047 0.108023
vt 0.128139 0.007167
vt 0.134891 0.011812
vt 0.134432 0.012286
vt 0.127587 0.007353
vt 0.129870 0.004852
vt 0.136550 0.008754
vt 0.129755 0.004262
vt 0.136772 0.008127
vt 0.137481 0.008451
vt 0.137880 0.008019
vt 0.139243 0.012093
vt 0.139799 0.012327
vt 0.135165 0.012745
vt 0.135143 0.013371
s 1
f 2/1/1 101/2/1 4/3/1 1/4/1
f 100/5/1 2/1/1 1/4/1 3/6/1
f 4/7/2 7/8/2 5/9/2 1/10/2
f 5/11/3 7/12/3 10/13/3 6/14/3
f 75/15/4 9/16/4 7/8/4 8/17/4
f 8/17/2 7/8/2 4/7/2
f 9/16/5 11/18/5 10/13/5 7/12/5
f 12/19/6 10/20/6 11/18/6 57/21/6
f 10/20/7 12/19/7 15/22/7 14/23/7
f 13/24/7 119/25/7 6/26/7 10/20/7
f 14/23/7 13/24/7 10/20/7
f 17/27/8 16/28/8 14/23/8 15/22/8
f 13/24/8 14/23/8 16/28/8 19/29/8
f 17/27/7 30/30/7 18/31/7 16/28/7
f 18/31/7 20/32/7 19/29/7 16/28/7
f 119/25/1 13/24/1 19/29/1 20/32/1 21/33/1 22/34/1 112/35/1 110/36/1
f 23/37/7 21/33/7 20/32/7 18/31/7
f 22/34/7 21/33/7 23/37/7 25/38/7
f 117/39/7 25/38/7 23/37/7 24/40/7
f 24/40/9 23/37/9 26/41/9 27/42/9
f 23/37/1 18/31/1 28/43/1 26/41/1
f 27/42/7 26/41/7 28/43/7 29/44/7
f 18/31/8 30/30/8 29/44/8 28/43/8
f 30/30/3 24/40/3 27/42/3 29/44/3
f 32/45/7 24/40/7 30/30/7 31/46/7
f 31/46/7 30/30/7 17/27/7 33/47/7
f 34/48/3 35/49/3 37/50/3 105/51/3 118/52/3 32/45/3 31/46/3 33/47/3
f 15/22/8 34/48/8 33/47/8 17/27/8
f 34/48/7 15/22/7 12/19/7
f 35/49/7 34/48/7 12/19/7 38/53/7
f 35/49/9 36/54/9 106/55/9 37/50/9
f 36/54/7 35/49/7 38/53/7
f 38/53/7 6/26/7 109/56/7 36/54/7
f 47/57/1 39/58/1 38/59/1 12/60/1
f 39/58/1 43/61/1 40/62/1 38/59/1
f 41/63/10 93/64/10 3/6/10 40/62/10
f 41/63/10 40/62/10 42/65/10 51/66/10
f 43/61/1 45/67/1 42/65/1 40/62/1
f 43/61/9 39/58/9 49/68/9 44/69/9
f 45/67/7 43/61/7 44/69/7 46/70/7
f 45/67/1 47/57/1 12/60/1 42/65/1
f 47/57/8 45/67/8 46/70/8 48/71/8
f 39/58/2 47/57/2 48/71/2 49/68/2
f 48/71/1 46/70/1 44/69/1 49/68/1
f 52/72/1 42/65/1 12/60/1
f 50/73/10 51/66/10 42/65/10
f 52/72/10 53/74/10 50/73/10 42/65/10
f 53/74/11 52/72/11 54/75/11 55/76/11
f 52/72/12 12/60/12 57/21/12 54/75/12
f 55/76/13 54/75/13 56/77/13 72/78/13
f 54/75/1 57/21/1 58/79/1 56/77/1
f 57/21/7 11/18/7 60/80/7 58/79/7
f 58/79/14 60/80/14 62/81/14 59/82/14
f 59/82/15 73/83/15 56/77/15 58/79/15
f 61/84/3 60/80/3 11/18/3 9/16/3
f 63/85/16 62/81/16 60/80/16 61/84/16
f 62/81/1 63/85/1 67/86/1 64/87/1
f 59/82/2 62/81/2 64/87/2 65/88/2
f 65/88/9 64/87/9 66/89/9
f 67/86/9 69/90/9 66/89/9 64/87/9
f 68/91/7 67/86/7 63/85/7 71/92/7
f 69/90/9 67/86/9 68/91/9
f 71/92/3 70/93/3 69/90/3 68/91/3
f 70/93/17 73/83/17 66/89/17 69/90/17
f 70/93/18 71/92/18 74/94/18 72/78/18
f 72/78/19 56/77/19 73/83/19 70/93/19
f 73/83/3 59/82/3 65/88/3 66/89/3
f 75/15/1 55/76/1 72/78/1 74/94/1
f 74/94/2 61/84/2 9/16/2 75/15/2
f 71/92/20 63/85/20 61/84/20 74/94/20
f 8/95/21 53/74/21 55/76/21 75/15/21
f 50/73/1 53/74/1 8/95/1 4/3/1
f 76/96/10 51/66/10 50/73/10
f 51/66/9 76/96/9 79/97/9 77/98/9
f 41/63/22 51/66/22 77/98/22 78/99/22
f 78/99/10 77/98/10 81/100/10 82/101/10
f 79/97/10 88/102/10 80/103/10 77/98/10
f 81/100/10 77/98/10 80/103/10
f 89/104/10 82/101/10 81/100/10 83/105/10
f 81/100/23 80/103/23 86/106/23 84/107/23
f 83/105/9 81/100/9 84/107/9 85/108/9
f 84/107/10 86/106/10 87/109/10 85/108/10
f 80/103/8 88/102/8 87/109/8 86/106/8
f 88/102/22 83/105/22 85/108/22 87/109/22
f 79/97/10 83/105/10 88/102/10
f 83/105/10 79/97/10 92/110/10 89/104/10
f 82/101/8 89/104/8 90/111/8 97/112/8
f 89/104/22 91/113/22 94/114/22 90/111/22
f 92/110/10 91/113/10 89/104/10
f 76/96/23 93/64/23 92/110/23 79/97/23
f 93/64/8 41/63/8 78/99/8 92/110/8
f 92/110/10 78/99/10 95/115/10 91/113/10
f 93/64/10 76/96/10 50/73/10 3/6/10
f 91/113/9 95/115/9 96/116/9 94/114/9
f 95/115/23 82/101/23 97/112/23 96/116/23
f 82/101/10 95/115/10 78/99/10
f 96/116/10 97/112/10 90/111/10 94/114/10
f 98/117/1 100/5/1 3/6/1 50/73/1
f 101/2/1 98/117/1 50/73/1 4/3/1
f 100/5/2 98/117/2 99/118/2 104/119/2
f 98/117/8 101/2/8 102/120/8 99/118/8
f 101/2/7 2/1/7 103/121/7 102/120/7
f 104/119/1 99/118/1 102/120/1 103/121/1
f 2/1/9 100/5/9 104/119/9 103/121/9
f 107/122/7 105/51/7 37/50/7 106/55/7
f 36/54/9 109/56/9 108/123/9 106/55/9
f 111/124/7 107/122/7 106/55/7 108/123/7
f 109/56/9 119/25/9 110/36/9 108/123/9
f 112/35/7 111/124/7 108/123/7 110/36/7
f 111/124/1 25/38/1 115/125/1 113/126/1
f 22/34/7 25/38/7 111/124/7 112/35/7
f 107/122/9 111/124/9 113/126/9 114/127/9
f 113/126/7 115/125/7 116/128/7 114/127/7
f 25/38/8 117/39/8 116/128/8 115/125/8
f 117/39/3 107/122/3 114/127/3 116/128/3
f 117/39/7 118/52/7 105/51/7 107/122/7
f 117/39/7 24/40/7 32/45/7 118/52/7
f 119/25/7 109/56/7 6/26/7
f 120/129/24 124/130/24 126/131/24 121/132/24
f 121/132/9 122/133/9 120/129/9
f 120/129/9 122/133/9 139/134/9 123/135/9
f 123/135/25 125/136/25 124/130/25 120/129/25
f 126/131/9 124/130/9 125/136/9 127/137/9
f 121/132/26 126/131/26 128/138/26 129/139/26
f 128/138/9 126/131/9 127/137/9 130/140/9
f 129/139/27 128/138/27 130/140/27 132/141/27
f 132/141/28 130/140/28 131/142/28 134/143/28
f 130/140/9 127/137/9 137/144/9 131/142/9
f 132/141/9 133/145/9 164/146/9 129/139/9
f 134/143/9 133/145/9 132/141/9
f 135/147/9 138/148/9 133/145/9 134/143/9
f 134/143/29 131/142/29 137/144/29 135/147/29
f 136/149/9 139/134/9 138/148/9 135/147/9
f 135/147/30 137/144/30 166/150/30 136/149/30
f 140/151/9 138/148/9 139/134/9 141/152/9
f 143/153/9 133/145/9 138/148/9 140/151/9
f 141/152/31 155/154/31 142/155/31 140/151/31
f 140/151/32 142/155/32 144/156/32 143/153/32
f 143/153/33 144/156/33 146/157/33 145/158/33
f 145/158/9 133/145/9 143/153/9
f 145/158/34 146/157/34 150/159/34 147/160/34
f 147/160/9 149/161/9 133/145/9 145/158/9
f 147/160/35 150/159/35 151/162/35 148/163/35
f 148/163/9 158/164/9 149/161/9 147/160/9
f 146/157/9 153/165/9 151/162/9 150/159/9
f 153/165/9 154/166/9 152/167/9 151/162/9
f 148/163/36 151/162/36 152/167/36 157/168/36
f 142/155/9 155/154/9 154/166/9 153/165/9
f 144/156/9 142/155/9 153/165/9 146/157/9
f 157/168/37 152/167/37 154/166/37 156/169/37
f 156/169/38 154/166/38 155/154/38 141/152/38
f 141/152/9 139/134/9 156/169/9
f 156/169/9 139/134/9 158/164/9 157/168/9
f 157/168/9 158/164/9 148/163/9
f 149/161/2 158/164/2 159/170/2 160/171/2
f 158/164/3 139/134/3 161/172/3 159/170/3
f 139/134/3 122/133/3 162/173/3 161/172/3
f 122/133/7 164/146/7 163/174/7 162/173/7
f 164/146/1 133/145/1 165/175/1 163/174/1
f 133/145/1 149/161/1 160/171/1 165/175/1
f 129/139/9 164/146/9 122/133/9 121/132/9
f 123/135/9 139/134/9 136/149/9
f 127/137/9 125/136/9 166/150/9 137/144/9
f 136/149/39 166/150/39 125/136/39 123/135/39
f 168/176/40 171/177/40 169/178/41 167/179/41
f 169/178/42 171/177/42 172/180/42 170/181/42
f 171/177/43 173/182/43 174/183/43 172/180/43
f 176/184/40 173/182/40 171/177/40 168/176/40
f 173/182/42 175/185/42 211/186/42 174/183/42
f 177/187/40 175/185/40 173/182/40 176/184/40
f 178/188/40 180/189/40 175/185/40 177/187/40
f 179/190/40 182/191/40 180/189/40 178/188/40
f 175/185/43 180/189/43 181/192/43 211/186/43
f 180/189/42 182/191/42 184/193/42 181/192/42
f 191/194/40 183/195/40 182/191/40 179/190/40
f 182/191/43 183/195/43 185/196/43 184/193/43
f 183/195/42 188/197/42 186/198/42 185/196/42
f 188/197/43 189/199/43 187/200/43 186/198/43
f 190/201/40 188/197/40 183/195/40 191/194/40
f 192/202/40 189/199/40 188/197/40 190/201/40
f 193/203/40 195/204/40 189/199/40 192/202/40
f 194/205/40 197/206/40 195/204/40 193/203/40
f 195/204/43 197/206/43 198/207/43 196/208/43
f 189/199/42 195/204/42 196/208/42 187/200/42
f 197/206/42 199/209/42 202/210/42 198/207/42
f 200/211/40 199/209/40 197/206/40 194/205/40
f 209/212/40 201/213/40 199/209/40 200/211/40
f 199/209/43 201/213/43 203/214/43 202/210/43
f 201/213/42 206/215/42 204/216/42 203/214/42
f 206/215/43 207/217/43 205/218/43 204/216/43
f 210/219/44 207/217/44 206/215/40 208/220/40
f 208/220/40 206/215/40 201/213/40 209/212/40
f 213/221/7 219/222/7 216/223/7 212/224/7
f 212/225/45 214/226/45 221/227/45 213/228/45
f 215/229/46 223/230/46 214/231/46 212/232/46
f 212/233/7 216/234/7 218/235/7 215/236/7
f 216/237/47 217/238/47 222/239/47 218/240/47
f 219/241/48 220/242/48 217/238/48 216/237/48
f 213/243/9 221/244/9 220/242/9 219/241/9
f 214/245/2 217/246/2 220/247/2 221/248/2
f 218/240/8 222/239/8 223/230/8 215/229/8
f 223/249/2 222/250/2 217/251/2 214/252/2
f 225/253/49 227/254/49 226/255/50 224/256/50
f 226/255/51 227/254/51 229/257/51 228/258/51
f 227/254/52 232/259/52 230/260/52 229/257/52
f 232/259/51 234/261/51 231/262/51 230/260/51
f 233/263/49 232/259/49 227/254/49 225/253/49
f 235/264/49 234/261/49 232/259/49 233/263/49
f 237/265/49 236/266/49 234/261/49 235/264/49
f 234/261/52 236/266/52 238/267/52 231/262/52
f 241/268/49 239/269/49 236/266/49 237/265/49
f 236/266/51 239/269/51 240/270/51 238/267/51
f 239/269/52 242/271/52 243/272/52 240/270/52
f 244/273/49 242/271/49 239/269/49 241/268/49
f 242/271/51 245/274/51 246/275/51 243/272/51
f 247/276/49 245/274/49 242/271/49 244/273/49
f 245/274/52 248/277/52 251/278/52 246/275/52
f 250/279/49 248/277/49 245/274/49 247/276/49
f 262/280/49 249/281/49 248/277/49 250/279/49
f 248/277/51 249/281/51 252/282/51 251/278/51
f 249/281/52 255/283/52 253/284/52 252/282/52
f 255/283/51 257/285/51 254/286/51 253/284/51
f 256/287/49 255/283/49 249/281/49 262/280/49
f 258/288/49 257/285/49 255/283/49 256/287/49
f 260/289/53 259/290/53 257/285/49 258/288/49
f 257/285/52 259/290/52 261/291/52 254/286/52
f 264/292/3 268/293/3 267/294/3 263/295/3
f 263/295/54 265/296/54 274/297/54 264/292/54
f 266/298/55 272/299/55 265/296/55 263/295/55
f 263/295/3 267/294/3 270/300/3 266/298/3
f 268/293/56 273/301/56 269/302/56 267/294/56
f 267/294/57 269/302/57 271/303/57 270/300/57
f 270/300/8 271/303/8 272/299/8 266/298/8
f 272/299/1 271/303/1 269/302/1 265/296/1
f 265/296/1 269/302/1 273/301/1 274/297/1
f 264/292/9 274/297/9 273/301/9 268/293/9
f 275/304/9 276/305/9 279/306/9 278/307/9
f 275/304/7 277/308/7 283/309/7 276/305/7
f 277/308/1 275/304/1 278/307/1 280/310/1
f 283/309/8 277/308/8 280/310/8 281/311/8
f 285/312/1 283/309/1 281/311/1 282/313/1
f 276/305/7 283/309/7 284/314/7
f 284/314/7 283/309/7 285/312/7
f 284/314/58 285/312/58 282/313/58 287/315/58
f 276/305/7 284/314/7 286/316/7
f 286/316/59 284/314/59 287/315/59 288/317/59
f 276/305/1 286/316/1 288/317/1 279/306/1
