# Blender 4.4.1
# www.blender.org
o Store_Big_1
v -1.641220 0.000000 0.528697
v -0.653029 0.793045 0.528697
v -1.641220 1.168588 0.528697
v -1.641220 -0.000000 -0.528697
v 1.094145 -0.000000 -0.528697
v -1.641220 1.168588 -0.528697
v -1.570594 1.168588 -0.485693
v 1.094145 1.168588 -0.528697
v 1.094145 1.037658 -0.494170
v 1.094145 1.168588 0.528697
v 1.094145 1.127730 -0.000000
v 1.023518 1.168588 -0.485693
v 1.023518 1.168588 0.485692
v 1.019918 1.138659 -0.474737
v 1.019918 1.138659 0.496648
v -1.574195 1.138659 -0.474737
v 0.104784 1.138659 0.375225
v 0.120635 1.168588 0.364269
v 0.104784 1.138659 0.496648
v -0.659061 1.138659 0.375225
v -0.643210 1.168588 0.364269
v -0.659061 1.138659 0.496648
v -0.643210 1.168588 0.485692
v -1.574195 1.138659 0.496648
v -1.570594 1.168588 0.485692
v -0.653029 1.168588 0.528697
v 0.120635 1.168588 0.485692
v 0.105953 1.168588 0.528697
v 0.105953 0.793045 0.528697
v 0.105953 0.000000 0.528697
v 1.094145 0.000000 0.528697
v 0.105953 0.793045 0.362544
v 0.105953 0.000000 0.362544
v -0.653029 0.793045 0.362544
v -0.653029 0.000000 0.362544
v -0.653029 0.000000 0.528697
v 1.094145 0.842693 0.493840
v 1.094145 0.000000 0.000000
v 1.094145 0.842693 0.034856
v 1.094145 0.842364 -0.034528
v 1.094145 1.037658 -0.034528
v 1.094145 0.842364 -0.494170
v 1.060868 0.842364 -0.034528
v 1.060868 1.037658 -0.034528
v 1.060868 0.842364 -0.494170
v 1.060868 1.037658 -0.494170
v 1.094145 1.037329 0.034856
v 1.060868 0.842693 0.034856
v 1.060868 1.037329 0.034856
v 1.060868 0.842693 0.493840
v 1.060868 1.037329 0.493840
v 1.094145 1.037329 0.493840
v -0.651008 0.933429 0.652662
v -0.651008 0.933429 0.404732
v -0.651008 1.181359 0.652662
v 0.103934 0.933429 0.652662
v 0.103934 0.933429 0.404732
v 0.103934 1.181359 0.652662
v 0.103934 1.181359 0.404732
v -0.651008 1.181359 0.404732
v -1.641301 0.002851 0.549903
v -1.641301 0.030216 0.549903
v -1.610262 0.002851 0.549903
v -1.641301 0.002851 0.526494
v -1.641301 0.030216 0.526494
v -1.641301 0.589550 0.526494
v -1.641301 0.589550 0.549903
v -1.641301 0.612903 0.526494
v -1.641301 0.612903 0.549903
v -1.641301 0.775752 0.526494
v -1.641301 0.800685 0.526494
v -1.641301 0.775752 0.549903
v -1.641301 0.800685 0.549903
v -1.610262 0.775752 0.549903
v -1.610262 0.800685 0.549903
v -1.158711 0.775752 0.549903
v -1.610262 0.612903 0.549903
v -1.610262 0.775752 0.534509
v -1.610262 0.612903 0.534509
v -1.158711 0.775752 0.534509
v -1.158711 0.612903 0.534509
v -1.158711 0.612903 0.549903
v -1.130649 0.612903 0.549903
v -1.158711 0.589550 0.549903
v -1.610262 0.589550 0.549903
v -1.130649 0.589550 0.549903
v -1.158711 0.030216 0.549903
v -1.158711 0.589550 0.534509
v -1.158711 0.030216 0.534509
v -1.610262 0.589550 0.534509
v -1.610262 0.030216 0.534509
v -1.610262 0.030216 0.549903
v -1.130649 0.030216 0.549903
v -1.158711 0.002851 0.549903
v -1.130649 0.002851 0.549903
v -0.679100 0.002851 0.549903
v -0.679100 0.030216 0.549903
v -0.648061 0.002851 0.549903
v -0.648061 0.030216 0.549903
v -0.648061 0.002851 0.526494
v -0.648061 0.030216 0.526494
v -0.648061 0.589550 0.526494
v -0.648061 0.589550 0.549903
v -0.648061 0.612903 0.526494
v -0.648061 0.612903 0.549903
v -0.648061 0.775752 0.526494
v -0.648061 0.775752 0.549903
v -0.648061 0.800685 0.526494
v -0.648061 0.800685 0.549903
v -0.679100 0.800685 0.526494
v -0.679100 0.800685 0.549903
v -1.130649 0.800685 0.526494
v -1.158711 0.800685 0.526494
v -1.130649 0.800685 0.549903
v -1.158711 0.800685 0.549903
v -1.130649 0.775752 0.549903
v -1.130649 0.775752 0.534509
v -0.679100 0.775752 0.549903
v -0.679100 0.612903 0.549903
v -0.679100 0.775752 0.534509
v -0.679100 0.612903 0.534509
v -1.130649 0.612903 0.534509
v -0.679100 0.589550 0.549903
v -0.679100 0.589550 0.534509
v -0.679100 0.030216 0.534509
v -1.130649 0.589550 0.534509
v -1.130649 0.030216 0.534509
v -1.610262 0.800685 0.526494
v 0.100302 0.002851 0.549903
v 0.100302 0.030216 0.549903
v 0.131341 0.002851 0.549903
v 0.100302 0.002851 0.526494
v 0.100302 0.030216 0.526494
v 0.100302 0.589550 0.526494
v 0.100302 0.612903 0.526494
v 0.100302 0.589550 0.549903
v 0.131341 0.589550 0.549903
v 0.100302 0.612903 0.549903
v 0.100302 0.775752 0.549903
v 0.131341 0.612903 0.549903
v 0.131341 0.775752 0.549903
v 0.582891 0.612903 0.549903
v 0.131341 0.612903 0.534509
v 0.582891 0.612903 0.534509
v 0.131341 0.775752 0.534509
v 0.582891 0.775752 0.534509
v 0.582891 0.775752 0.549903
v 0.582891 0.800685 0.549903
v 0.610954 0.775752 0.549903
v 1.062503 0.775752 0.549903
v 0.610954 0.800685 0.549903
v 0.610954 0.612903 0.549903
v 0.610954 0.775752 0.534509
v 1.062503 0.775752 0.534509
v 0.610954 0.612903 0.534509
v 1.062503 0.612903 0.534509
v 1.062503 0.612903 0.549903
v 1.062503 0.589550 0.549903
v 1.093542 0.612903 0.549903
v 1.093542 0.775752 0.549903
v 1.093542 0.589550 0.549903
v 1.093542 0.612903 0.526494
v 1.093542 0.589550 0.526494
v 1.093542 0.775752 0.526494
v 1.093542 0.800685 0.526494
v 1.062503 0.800685 0.526494
v 1.093542 0.800685 0.549903
v 1.062503 0.800685 0.549903
v 0.610954 0.800685 0.526494
v 0.582891 0.800685 0.526494
v 0.131341 0.800685 0.526494
v 0.100302 0.800685 0.526494
v 0.131341 0.800685 0.549903
v 0.100302 0.800685 0.549903
v 0.100302 0.775752 0.526494
v 1.093542 0.030216 0.526494
v 1.093542 0.002851 0.526494
v 1.093542 0.030216 0.549903
v 1.093542 0.002851 0.549903
v 1.062503 0.030216 0.549903
v 1.062503 0.002851 0.549903
v 0.610954 0.030216 0.549903
v 1.062503 0.030216 0.534509
v 0.610954 0.030216 0.534509
v 1.062503 0.589550 0.534509
v 0.610954 0.589550 0.534509
v 0.610954 0.589550 0.549903
v 0.582891 0.589550 0.549903
v 0.582891 0.589550 0.534509
v 0.582891 0.030216 0.549903
v 0.582891 0.002851 0.549903
v 0.582891 0.030216 0.534509
v 0.131341 0.030216 0.549903
v 0.131341 0.030216 0.534509
v 0.131341 0.589550 0.534509
v 0.610954 0.002851 0.549903
v -0.655678 -0.000624 0.369714
v -0.655678 0.024188 0.369714
v -0.627987 -0.001060 0.370217
v -0.463876 -0.003859 0.373447
v -0.627987 0.023752 0.370217
v -0.627987 0.023752 0.320076
v -0.463876 0.020953 0.373447
v -0.627987 0.773013 0.370217
v -0.627987 0.773013 0.320076
v -0.463876 0.770214 0.373447
v -0.655678 0.773449 0.369714
v -0.627987 0.792915 0.370217
v -0.655678 0.793352 0.369714
v -0.463876 0.790116 0.373447
v -0.434071 0.790009 0.373571
v -0.109216 0.793205 0.369883
v -0.434071 0.770106 0.373571
v -0.434071 0.020845 0.373571
v -0.109216 0.773302 0.369883
v -0.434071 0.770106 0.323431
v -0.109216 0.773302 0.319742
v -0.434071 0.020845 0.323431
v -0.109216 0.024041 0.319742
v -0.109216 0.024041 0.369883
v -0.109216 -0.000770 0.369883
v -0.079410 0.024188 0.369714
v 0.083240 0.024188 0.369714
v -0.079410 0.024188 0.319573
v -0.079410 -0.000624 0.369714
v -0.079410 0.773449 0.369714
v -0.079410 0.793352 0.369714
v 0.083240 0.773449 0.369714
v -0.079410 0.773449 0.319573
v 0.083240 0.773449 0.319573
v 0.083240 0.024188 0.319573
v 0.108605 0.773449 0.369714
v 0.083240 0.793352 0.369714
v 0.108605 0.793352 0.369714
v 0.108605 0.024188 0.369714
v 0.108605 -0.000624 0.369714
v 0.083240 -0.000624 0.369714
v -0.434071 -0.003967 0.373571
v -0.463876 0.770214 0.323307
v -0.463876 0.020953 0.323307
vn -0.0000 -0.0000 1.0000
vn -1.0000 -0.0000 -0.0000
vn -0.0000 -0.0000 -1.0000
vn -0.0000 1.0000 -0.0000
vn 1.0000 -0.0000 -0.0000
vn -0.0000 0.3438 0.9391
vn -0.9928 0.1194 -0.0000
vn -0.0000 -0.3438 -0.9391
vn 0.8837 -0.4680 -0.0000
vn -0.8837 0.4680 -0.0000
vn 0.9928 -0.1195 -0.0000
vn -0.0000 -1.0000 -0.0000
vn -0.0182 -0.0000 0.9998
vn -0.0189 -0.0000 0.9998
vn -0.0187 -0.0000 0.9998
vn -0.0197 -0.0000 0.9998
vn 0.0171 0.9999 -0.0000
vn -0.0171 -0.9999 -0.0000
vn -0.0042 -0.0000 1.0000
vn 0.0114 -0.0000 0.9999
vn 0.0076 -0.0000 1.0000
vn 0.0085 -0.0000 1.0000
vn 0.0098 -1.0000 -0.0000
vn -0.0098 1.0000 -0.0000
vn 0.0028 -0.0000 1.0000
vn 0.0038 -0.0000 1.0000
vt 0.328609 0.368378
vt 0.340105 0.388451
vt 0.291258 0.419952
vt 0.250750 0.365939
vt 0.229474 0.450891
vt 0.319273 0.474090
vt 0.257842 0.506170
vt 0.492320 0.469174
vt 0.348200 0.536926
vt 0.462473 0.406716
vt 0.321750 0.470111
vt 0.296017 0.419849
vt 0.457783 0.406068
vt 0.458551 0.377775
vt 0.468950 0.402348
vt 0.453039 0.377947
vt 0.480982 0.397669
vt 0.528613 0.381553
vt 0.435936 0.354483
vt 0.439126 0.350874
vt 0.321812 0.468244
vt 0.456106 0.405041
vt 0.434778 0.355689
vt 0.385635 0.379395
vt 0.386275 0.371909
vt 0.346424 0.397915
vt 0.347154 0.395662
vt 0.384803 0.377954
vt 0.385641 0.370251
vt 0.341814 0.390509
vt 0.341374 0.392772
vt 0.297510 0.420002
vt 0.383627 0.368196
vt 0.375735 0.346697
vt 0.423393 0.285201
vt 0.962626 0.489422
vt 0.916228 0.492852
vt 0.915510 0.483131
vt 0.961907 0.479701
vt 0.871824 0.496136
vt 0.871105 0.486415
vt 0.825427 0.499566
vt 0.824708 0.489845
vt 0.459037 0.344653
vt 0.447020 0.349560
vt 0.505449 0.323213
vt 0.468964 0.369479
vt 0.516635 0.352546
vt 0.457106 0.374279
vt 0.470423 0.373094
vt 0.469653 0.374643
vt 0.460217 0.378258
vt 0.479258 0.397301
vt 0.469668 0.400823
vt 0.457791 0.372705
vt 0.467274 0.369082
vt 0.458192 0.346213
vt 0.448689 0.350006
vt 0.907037 0.810220
vt 0.966672 0.801368
vt 0.969241 0.819520
vt 0.908822 0.828851
vt 0.921188 0.837865
vt 0.926571 0.851430
vt 0.914490 0.859727
vt 0.956527 0.826023
vt 0.973201 0.850409
vt 0.961957 0.839690
vt 0.673658 0.308582
vt 0.673355 0.310205
vt 0.671966 0.309975
vt 0.672264 0.308343
vt 0.675199 0.310506
vt 0.675525 0.308895
vt 0.667196 0.343948
vt 0.665807 0.343723
vt 0.666938 0.345384
vt 0.665521 0.345197
vt 0.665233 0.355861
vt 0.663834 0.355940
vt 0.665263 0.357021
vt 0.664379 0.357814
vt 0.667050 0.356209
vt 0.666678 0.357654
vt 0.668819 0.345582
vt 0.693926 0.361636
vt 0.693615 0.363112
vt 0.667670 0.355609
vt 0.693511 0.360856
vt 0.669275 0.346329
vt 0.695508 0.351457
vt 0.696155 0.350852
vt 0.697828 0.351160
vt 0.695573 0.361983
vt 0.696479 0.349482
vt 0.698118 0.349782
vt 0.669043 0.344222
vt 0.669758 0.343722
vt 0.695938 0.348796
vt 0.704619 0.316014
vt 0.702952 0.315684
vt 0.702224 0.316178
vt 0.675749 0.311190
vt 0.703274 0.314073
vt 0.704962 0.314406
vt 0.732308 0.321661
vt 0.732644 0.320053
vt 0.734457 0.320420
vt 0.734136 0.322032
vt 0.735830 0.320680
vt 0.735516 0.322300
vt 0.727196 0.355887
vt 0.728573 0.356167
vt 0.726855 0.357326
vt 0.728225 0.357668
vt 0.724440 0.367659
vt 0.725712 0.368199
vt 0.723948 0.368885
vt 0.724674 0.369768
vt 0.722388 0.368849
vt 0.722325 0.370254
vt 0.695265 0.363458
vt 0.694988 0.364846
vt 0.693308 0.364486
vt 0.722641 0.367382
vt 0.698248 0.351938
vt 0.696215 0.361374
vt 0.722242 0.366616
vt 0.725010 0.356837
vt 0.724351 0.357420
vt 0.725374 0.355493
vt 0.724848 0.354793
vt 0.731578 0.322145
vt 0.698842 0.349291
vt 0.705159 0.316710
vt 0.666206 0.358968
vt 0.829146 0.321725
vt 0.828843 0.323347
vt 0.827455 0.323119
vt 0.827752 0.321486
vt 0.830688 0.323648
vt 0.831014 0.322036
vt 0.822702 0.357094
vt 0.821313 0.356869
vt 0.822444 0.358530
vt 0.821027 0.358343
vt 0.824548 0.357367
vt 0.824325 0.358727
vt 0.820744 0.369008
vt 0.819345 0.369087
vt 0.822562 0.369355
vt 0.824782 0.359474
vt 0.823181 0.368754
vt 0.851664 0.363983
vt 0.851988 0.362614
vt 0.851017 0.364589
vt 0.849025 0.373989
vt 0.849440 0.374768
vt 0.849130 0.376245
vt 0.822190 0.370800
vt 0.851088 0.375115
vt 0.850780 0.376590
vt 0.853337 0.364291
vt 0.878159 0.380500
vt 0.851730 0.374506
vt 0.877759 0.379734
vt 0.877906 0.381967
vt 0.853758 0.365069
vt 0.879863 0.370537
vt 0.880522 0.369954
vt 0.882367 0.370442
vt 0.880885 0.368610
vt 0.882707 0.369003
vt 0.853626 0.362913
vt 0.879958 0.380777
vt 0.883738 0.370784
vt 0.881230 0.381316
vt 0.884085 0.369282
vt 0.879466 0.382003
vt 0.880192 0.382885
vt 0.877844 0.383373
vt 0.850503 0.377978
vt 0.848823 0.377619
vt 0.821718 0.372114
vt 0.820775 0.370168
vt 0.819892 0.370962
vt 0.889630 0.335145
vt 0.891011 0.335412
vt 0.889951 0.333532
vt 0.891324 0.333792
vt 0.887803 0.334775
vt 0.888138 0.333166
vt 0.860110 0.329141
vt 0.860453 0.327533
vt 0.887073 0.335259
vt 0.860651 0.329837
vt 0.880359 0.367911
vt 0.854350 0.362421
vt 0.858444 0.328812
vt 0.851446 0.361927
vt 0.857716 0.329306
vt 0.825264 0.356867
vt 0.858765 0.327200
vt 0.831238 0.324332
vt 0.852235 0.431411
vt 0.854024 0.431401
vt 0.853932 0.432976
vt 0.852180 0.432964
vt 0.868340 0.430936
vt 0.868416 0.432512
vt 0.866130 0.434219
vt 0.856390 0.434862
vt 0.853303 0.480972
vt 0.855513 0.479026
vt 0.851554 0.481000
vt 0.867743 0.481024
vt 0.865335 0.479277
vt 0.867671 0.482282
vt 0.853352 0.482239
vt 0.851520 0.482225
vt 0.869606 0.481087
vt 0.869581 0.482343
vt 0.894030 0.481804
vt 0.893966 0.483063
vt 0.870318 0.432488
vt 0.872657 0.434362
vt 0.871866 0.479377
vt 0.891694 0.479773
vt 0.892478 0.435264
vt 0.894727 0.433344
vt 0.870387 0.430923
vt 0.894758 0.431779
vt 0.896722 0.431877
vt 0.896609 0.433453
vt 0.895912 0.481790
vt 0.910908 0.433699
vt 0.908682 0.435620
vt 0.899007 0.435232
vt 0.910827 0.432128
vt 0.898136 0.479830
vt 0.895978 0.483051
vt 0.910280 0.481842
vt 0.910236 0.483106
vt 0.907853 0.480106
vt 0.912510 0.433693
vt 0.911884 0.481872
vt 0.911915 0.483082
vt 0.912470 0.432130
s 1
f 2/1/1 26/2/1 3/3/1 1/4/1
f 1/5/2 3/3/2 6/6/2 4/7/2
f 5/8/3 4/9/3 6/6/3 8/10/3
f 7/11/4 6/6/4 3/3/4 25/12/4
f 8/10/4 6/6/4 7/11/4 12/13/4
f 41/14/5 9/15/5 8/10/5 11/16/5
f 9/15/5 42/17/5 5/18/5 8/10/5
f 12/13/4 13/19/4 10/20/4 8/10/4
f 10/20/5 11/16/5 8/10/5
f 12/13/6 7/11/6 16/21/6 14/22/6
f 13/19/7 12/13/7 14/22/7 15/23/7
f 14/22/4 17/24/4 19/25/4 15/23/4
f 16/21/4 20/26/4 17/24/4 14/22/4
f 21/27/8 18/28/8 17/24/8 20/26/8
f 18/28/9 27/29/9 19/25/9 17/24/9
f 23/30/10 21/27/10 20/26/10 22/31/10
f 16/21/4 24/32/4 22/31/4 20/26/4
f 25/12/8 23/30/8 22/31/8 24/32/8
f 7/11/11 25/12/11 24/32/11 16/21/11
f 23/30/4 25/12/4 3/3/4 26/2/4
f 18/28/4 21/27/4 23/30/4 27/29/4
f 27/29/4 23/30/4 26/2/4 28/33/4
f 27/29/8 13/19/8 15/23/8 19/25/8
f 27/29/4 28/33/4 10/20/4 13/19/4
f 29/34/1 28/33/1 26/2/1 2/1/1
f 29/34/1 31/35/1 10/20/1 28/33/1
f 30/36/2 29/37/2 32/38/2 33/39/2
f 29/37/12 2/40/12 34/41/12 32/38/12
f 2/40/5 36/42/5 35/43/5 34/41/5
f 37/44/5 52/45/5 10/20/5 31/46/5
f 39/47/5 37/44/5 31/46/5 38/48/5
f 47/49/5 39/47/5 38/48/5 11/16/5
f 40/50/5 41/14/5 11/16/5 38/48/5
f 42/17/5 40/50/5 38/48/5 5/18/5
f 41/14/3 40/50/3 43/51/3 44/52/3
f 40/50/4 42/17/4 45/53/4 43/51/4
f 45/53/5 46/54/5 44/52/5 43/51/5
f 42/17/1 9/15/1 46/54/1 45/53/1
f 9/15/12 41/14/12 44/52/12 46/54/12
f 39/47/1 47/49/1 49/55/1 48/56/1
f 37/44/4 39/47/4 48/56/4 50/57/4
f 48/56/5 49/55/5 51/58/5 50/57/5
f 52/45/3 37/44/3 50/57/3 51/58/3
f 47/49/12 52/45/12 51/58/12 49/55/12
f 52/45/5 47/49/5 11/16/5 10/20/5
f 54/59/12 57/60/12 56/61/12 53/62/12
f 53/62/2 55/63/2 60/64/2 54/65/2
f 56/61/1 58/66/1 55/63/1 53/62/1
f 57/67/5 59/68/5 58/66/5 56/61/5
f 59/68/4 60/64/4 55/63/4 58/66/4
f 54/65/3 60/64/3 59/68/3 57/67/3
f 61/69/2 62/70/2 65/71/2 64/72/2
f 92/73/1 62/70/1 61/69/1 63/74/1
f 62/70/2 67/75/2 66/76/2 65/71/2
f 67/75/2 69/77/2 68/78/2 66/76/2
f 69/77/2 72/79/2 70/80/2 68/78/2
f 72/79/2 73/81/2 71/82/2 70/80/2
f 72/79/1 74/83/1 75/84/1 73/81/1
f 77/85/1 74/83/1 72/79/1 69/77/1
f 74/83/1 76/86/1 115/87/1 75/84/1
f 76/86/12 74/83/12 78/88/12 80/89/12
f 74/83/5 77/85/5 79/90/5 78/88/5
f 81/91/1 80/89/1 78/88/1 79/90/1
f 82/92/2 76/86/2 80/89/2 81/91/2
f 77/85/4 82/92/4 81/91/4 79/90/4
f 83/93/1 116/94/1 76/86/1 82/92/1
f 83/93/1 82/92/1 84/95/1 86/96/1
f 82/92/1 77/85/1 85/97/1 84/95/1
f 84/95/12 85/97/12 90/98/12 88/99/12
f 93/100/1 86/96/1 84/95/1 87/101/1
f 87/101/2 84/95/2 88/99/2 89/102/2
f 88/99/1 90/98/1 91/103/1 89/102/1
f 85/97/5 92/73/5 91/103/5 90/98/5
f 92/73/4 87/101/4 89/102/4 91/103/4
f 67/75/1 62/70/1 92/73/1 85/97/1
f 92/73/1 63/74/1 94/104/1 87/101/1
f 95/105/1 93/100/1 87/101/1 94/104/1
f 97/106/1 93/100/1 95/105/1 96/107/1
f 98/108/1 99/109/1 97/106/1 96/107/1
f 99/109/5 98/108/5 100/110/5 101/111/5
f 103/112/5 99/109/5 101/111/5 102/113/5
f 105/114/5 103/112/5 102/113/5 104/115/5
f 107/116/5 105/114/5 104/115/5 106/117/5
f 109/118/5 107/116/5 106/117/5 108/119/5
f 111/120/4 109/118/4 108/119/4 110/121/4
f 114/122/4 111/120/4 110/121/4 112/123/4
f 115/87/4 114/122/4 112/123/4 113/124/4
f 118/125/1 111/120/1 114/122/1 116/94/1
f 116/94/1 114/122/1 115/87/1 76/86/1
f 116/94/5 83/93/5 122/126/5 117/127/5
f 118/125/12 116/94/12 117/127/12 120/128/12
f 118/125/1 107/116/1 109/118/1 111/120/1
f 119/129/2 118/125/2 120/128/2 121/130/2
f 105/114/1 107/116/1 118/125/1 119/129/1
f 122/126/1 121/130/1 120/128/1 117/127/1
f 83/93/4 119/129/4 121/130/4 122/126/4
f 105/114/1 119/129/1 123/131/1 103/112/1
f 119/129/1 83/93/1 86/96/1 123/131/1
f 103/112/1 123/131/1 97/106/1 99/109/1
f 97/106/2 123/131/2 124/132/2 125/133/2
f 123/131/12 86/96/12 126/134/12 124/132/12
f 124/132/1 126/134/1 127/135/1 125/133/1
f 86/96/5 93/100/5 127/135/5 126/134/5
f 93/100/4 97/106/4 125/133/4 127/135/4
f 75/84/4 115/87/4 113/124/4 128/136/4
f 73/81/4 75/84/4 128/136/4 71/82/4
f 77/85/1 69/77/1 67/75/1 85/97/1
f 129/137/2 130/138/2 133/139/2 132/140/2
f 193/141/1 130/138/1 129/137/1 131/142/1
f 130/138/2 136/143/2 134/144/2 133/139/2
f 136/143/2 138/145/2 135/146/2 134/144/2
f 136/143/1 130/138/1 193/141/1 137/147/1
f 140/148/1 138/145/1 136/143/1 137/147/1
f 138/145/2 139/149/2 175/150/2 135/146/2
f 140/148/1 141/151/1 139/149/1 138/145/1
f 141/151/5 140/148/5 143/152/5 145/153/5
f 142/154/1 140/148/1 137/147/1 188/155/1
f 140/148/4 142/154/4 144/156/4 143/152/4
f 144/156/1 146/157/1 145/153/1 143/152/1
f 147/158/12 141/151/12 145/153/12 146/157/12
f 142/154/2 147/158/2 146/157/2 144/156/2
f 141/151/1 147/158/1 148/159/1 173/160/1
f 149/161/1 151/162/1 148/159/1 147/158/1
f 152/163/1 149/161/1 147/158/1 142/154/1
f 150/164/12 149/161/12 153/165/12 154/166/12
f 150/164/1 168/167/1 151/162/1 149/161/1
f 149/161/5 152/163/5 155/168/5 153/165/5
f 155/168/1 156/169/1 154/166/1 153/165/1
f 152/163/4 157/170/4 156/169/4 155/168/4
f 157/170/2 150/164/2 154/166/2 156/169/2
f 159/171/1 157/170/1 158/172/1 161/173/1
f 157/170/1 152/163/1 187/174/1 158/172/1
f 159/171/1 160/175/1 150/164/1 157/170/1
f 160/175/5 159/171/5 162/176/5 164/177/5
f 159/171/5 161/173/5 163/178/5 162/176/5
f 167/179/5 160/175/5 164/177/5 165/180/5
f 168/167/4 167/179/4 165/180/4 166/181/4
f 150/164/1 160/175/1 167/179/1 168/167/1
f 151/162/4 168/167/4 166/181/4 169/182/4
f 148/159/4 151/162/4 169/182/4 170/183/4
f 173/160/4 148/159/4 170/183/4 171/184/4
f 174/185/4 173/160/4 171/184/4 172/186/4
f 139/149/1 141/151/1 173/160/1 174/185/1
f 139/149/2 174/185/2 172/186/2 175/150/2
f 161/173/5 178/187/5 176/188/5 163/178/5
f 178/187/5 179/189/5 177/190/5 176/188/5
f 179/189/1 178/187/1 180/191/1 181/192/1
f 161/173/1 158/172/1 180/191/1 178/187/1
f 180/191/1 182/193/1 196/194/1 181/192/1
f 182/193/4 180/191/4 183/195/4 184/196/4
f 180/191/2 158/172/2 185/197/2 183/195/2
f 185/197/1 186/198/1 184/196/1 183/195/1
f 158/172/12 187/174/12 186/198/12 185/197/12
f 187/174/5 182/193/5 184/196/5 186/198/5
f 152/163/1 142/154/1 188/155/1 187/174/1
f 182/193/1 187/174/1 188/155/1 190/199/1
f 190/199/2 188/155/2 189/200/2 192/201/2
f 188/155/12 137/147/12 195/202/12 189/200/12
f 196/194/1 182/193/1 190/199/1 191/203/1
f 193/141/1 131/142/1 191/203/1 190/199/1
f 193/141/4 190/199/4 192/201/4 194/204/4
f 137/147/5 193/141/5 194/204/5 195/202/5
f 189/200/1 195/202/1 194/204/1 192/201/1
f 197/205/13 199/206/14 201/207/15 198/208/13
f 199/206/14 200/209/16 203/210/16 201/207/15
f 201/207/17 203/210/17 240/211/17 202/212/17
f 204/213/5 201/207/5 202/212/5 205/214/5
f 201/207/15 204/213/15 207/215/13 198/208/13
f 206/216/18 204/213/18 205/214/18 239/217/18
f 204/213/15 206/216/16 210/218/16 208/219/14
f 207/215/13 204/213/15 208/219/14 209/220/13
f 213/221/19 211/222/19 210/218/19 206/216/19
f 213/221/20 215/223/21 212/224/22 211/222/20
f 214/225/19 213/221/19 206/216/19 203/210/19
f 213/221/5 214/225/5 218/226/5 216/227/5
f 215/223/23 213/221/23 216/227/23 217/228/23
f 219/229/20 217/228/20 216/227/20 218/226/20
f 214/225/24 220/230/24 219/229/24 218/226/24
f 220/230/2 215/223/2 217/228/2 219/229/2
f 238/231/20 221/232/22 220/230/21 214/225/20
f 225/233/25 222/234/26 220/230/21 221/232/22
f 222/234/26 226/235/26 215/223/21 220/230/21
f 222/234/4 223/236/4 231/237/4 224/238/4
f 225/233/25 237/239/1 223/236/1 222/234/26
f 226/235/5 222/234/5 224/238/5 229/240/5
f 226/235/26 227/241/25 212/224/22 215/223/21
f 226/235/26 228/242/1 233/243/1 227/241/25
f 228/242/12 226/235/12 229/240/12 230/244/12
f 231/237/1 230/244/1 229/240/1 224/238/1
f 223/236/2 228/242/2 230/244/2 231/237/2
f 235/245/1 232/246/1 228/242/1 223/236/1
f 228/242/1 232/246/1 234/247/1 233/243/1
f 237/239/1 236/248/1 235/245/1 223/236/1
f 238/231/19 214/225/19 203/210/19 200/209/19
f 203/210/2 206/216/2 239/217/2 240/211/2
f 240/211/16 239/217/16 205/214/16 202/212/16
