# Blender 4.4.1
# www.blender.org
o Store_Medum_1
v -0.683224 0.604595 0.585625
v -0.647710 0.596185 0.594035
v -0.682927 0.711114 0.479262
v -0.679812 0.711572 0.455688
v -0.647412 0.710589 0.479788
v -0.644299 0.711572 0.455688
v -0.611900 0.711114 0.479262
v -0.608786 0.711572 0.455688
v -0.576386 0.710589 0.479788
v -0.612197 0.604595 0.585625
v -0.576683 0.596185 0.594035
v -0.541170 0.604595 0.585625
v -0.505655 0.596185 0.594035
v -0.540874 0.711114 0.479262
v -0.537758 0.711572 0.455688
v -0.505360 0.710589 0.479788
v -0.469845 0.711114 0.479262
v -0.502244 0.711572 0.455688
v -0.466731 0.711572 0.455688
v -0.431216 0.711572 0.455688
v -0.395703 0.711572 0.455688
v -0.434332 0.710589 0.479788
v -0.398818 0.711114 0.479262
v -0.434629 0.596185 0.594035
v -0.470143 0.604595 0.585625
v -0.399117 0.604595 0.585625
v -0.363602 0.596185 0.594035
v -0.328088 0.604595 0.585625
v -0.363305 0.710589 0.479788
v -0.360190 0.711572 0.455688
v -0.327790 0.711114 0.479262
v -0.324677 0.711572 0.455688
v -0.292277 0.710589 0.479788
v -0.292575 0.596185 0.594035
v -0.256764 0.711114 0.479262
v -0.289164 0.711572 0.455688
v -0.253649 0.711572 0.455688
v -0.218136 0.711572 0.455688
v -0.182622 0.711572 0.455688
v -0.221251 0.710589 0.479788
v -0.185738 0.711114 0.479262
v -0.221548 0.596185 0.594035
v -0.257061 0.604595 0.585625
v -0.186033 0.604595 0.585625
v -0.573271 0.711572 0.455688
v -0.725882 0.000000 0.457781
v -0.688482 0.111591 0.457781
v -0.141006 0.000000 0.457781
v -0.725882 0.443811 0.457781
v -0.725882 -0.000000 -0.607340
v 0.699592 -0.000000 -0.607340
v -0.725882 0.788997 -0.607340
v -0.725882 0.788997 0.457781
v -0.757883 0.783067 -0.656064
v 0.699592 0.788997 -0.607340
v 0.728599 0.783067 -0.656064
v 0.699592 0.788997 0.149559
v 0.699592 0.416536 -0.540485
v 0.699592 0.416536 -0.528179
v 0.699592 0.416536 -0.159008
v 0.673267 0.416536 -0.528179
v 0.673267 0.416536 -0.159008
v 0.673267 0.402381 -0.528179
v 0.673267 0.416536 -0.540485
v 0.673267 0.402381 -0.540485
v 0.673267 0.265994 -0.540485
v 0.673267 0.250791 -0.540485
v 0.673267 0.265994 -0.528179
v 0.673267 0.265994 -0.159008
v 0.673267 0.250791 -0.528179
v 0.659934 0.265994 -0.528179
v 0.659934 0.265994 -0.159008
v 0.659934 0.402381 -0.528179
v 0.659934 0.402381 -0.159008
v 0.673267 0.402381 -0.159008
v 0.673267 0.402381 -0.146702
v 0.673267 0.265994 -0.146702
v 0.673267 0.416536 -0.146702
v 0.699592 0.416536 -0.146702
v 0.699592 0.120622 -0.146702
v 0.699592 0.120622 -0.159008
v 0.673267 0.120622 -0.146702
v 0.699592 0.000000 0.149559
v 0.630632 0.118276 0.149559
v 0.193586 0.000000 0.149559
v 0.128993 0.014068 0.209062
v 0.193586 0.443811 0.149559
v 0.262546 0.118276 0.149559
v 0.262546 0.118276 0.127773
v 0.262546 0.393745 0.149559
v 0.262546 0.393745 0.127773
v 0.630632 0.393745 0.149559
v 0.630632 0.393745 0.127773
v 0.630632 0.118276 0.127773
v -0.141006 0.443811 0.457781
v 0.128993 0.416616 0.209062
v 0.193586 0.788997 0.149559
v -0.141006 0.788997 0.457781
v 0.203550 0.783067 0.184716
v -0.147975 0.783067 0.520073
v 0.203550 0.896438 0.184716
v 0.728599 0.783067 0.184716
v 0.728599 0.896438 0.184716
v 0.699592 0.890508 0.149559
v 0.728599 0.896438 -0.656064
v 0.699592 0.890508 -0.607340
v -0.757883 0.896438 -0.656064
v -0.757883 0.896438 0.520073
v -0.725882 0.890508 -0.607340
v -0.725882 0.890508 0.457781
v -0.725882 0.845044 -0.607340
v -0.725882 0.845044 0.457781
v 0.699592 0.845044 -0.607340
v -0.141006 0.845044 0.457781
v 0.193586 0.845044 0.149559
v -0.141006 0.890508 0.457781
v -0.147975 0.896438 0.520073
v 0.193586 0.890508 0.149559
v 0.699592 0.845044 0.149559
v -0.757883 0.783067 0.520073
v -0.076411 0.416616 0.398278
v 0.135644 0.416616 0.216282
v 0.135644 0.014068 0.216282
v -0.069760 0.416616 0.405498
v 0.122806 0.404371 0.228108
v 0.122806 0.220705 0.228108
v 0.122806 0.202967 0.228108
v -0.056923 0.220705 0.393672
v 0.117564 0.220705 0.222417
v -0.062164 0.220705 0.387982
v 0.117564 0.404371 0.222417
v -0.062164 0.404371 0.387982
v -0.056923 0.404371 0.393672
v -0.056923 0.202967 0.393672
v -0.069760 0.014068 0.405498
v -0.062164 0.202967 0.387982
v -0.056923 0.025874 0.393672
v -0.062164 0.025874 0.387982
v 0.122806 0.025874 0.228108
v 0.117564 0.025874 0.222417
v 0.117564 0.202967 0.222417
v -0.076411 0.014068 0.398278
v -0.178404 0.410669 0.457781
v -0.688482 0.410669 0.457781
v -0.178404 0.410669 0.435995
v -0.178404 0.111591 0.457781
v -0.178404 0.111591 0.435995
v -0.688482 0.111591 0.435995
v -0.688482 0.410669 0.435995
v 0.673267 0.132231 -0.146702
v 0.673267 0.120622 -0.159008
v 0.673267 0.132231 -0.159008
v 0.673267 0.120622 -0.528179
v 0.699592 0.120622 -0.528179
v 0.673267 0.120622 -0.540485
v 0.673267 0.132231 -0.528179
v 0.673267 0.132231 -0.540485
v 0.659934 0.132231 -0.528179
v 0.659934 0.250791 -0.528179
v 0.659934 0.132231 -0.159008
v 0.659934 0.250791 -0.159008
v 0.673267 0.250791 -0.159008
v 0.673267 0.250791 -0.146702
v 0.699592 0.120622 -0.540485
v -0.185742 0.694927 0.458753
v -0.185742 0.707596 0.466067
v -0.687489 0.694927 0.458753
v -0.185742 0.682258 0.466067
v -0.185742 0.694927 0.488010
v -0.687489 0.694927 0.488010
v -0.185742 0.682258 0.480696
v -0.185742 0.707596 0.480696
v -0.687489 0.707596 0.480696
v -0.687489 0.707596 0.466067
v -0.687489 0.682258 0.480696
v -0.687489 0.682258 0.466067
v 0.232838 0.604595 0.271943
v 0.268351 0.596185 0.280353
v 0.233133 0.711114 0.165581
v 0.268648 0.710589 0.166106
v 0.236249 0.711572 0.142006
v 0.271763 0.711572 0.142006
v 0.307277 0.711572 0.142006
v 0.342790 0.711572 0.142006
v 0.304161 0.711114 0.165581
v 0.303864 0.604595 0.271943
v 0.339675 0.710589 0.166106
v 0.339378 0.596185 0.280353
v 0.375188 0.711114 0.165581
v 0.374891 0.604595 0.271943
v 0.378303 0.711572 0.142006
v 0.410703 0.710589 0.166106
v 0.413816 0.711572 0.142006
v 0.410405 0.596185 0.280353
v 0.446215 0.711114 0.165581
v 0.449329 0.711572 0.142006
v 0.445918 0.604595 0.271943
v 0.481729 0.710589 0.166106
v 0.484844 0.711572 0.142006
v 0.481432 0.596185 0.280353
v 0.517242 0.711114 0.165581
v 0.552755 0.710589 0.166106
v 0.516946 0.604595 0.271943
v 0.520358 0.711572 0.142006
v 0.555871 0.711572 0.142006
v 0.591385 0.711572 0.142006
v 0.626899 0.711572 0.142006
v 0.588270 0.711114 0.165581
v 0.587973 0.604595 0.271943
v 0.623783 0.710589 0.166106
v 0.623486 0.596185 0.280353
v 0.659297 0.711114 0.165581
v 0.659000 0.604595 0.271943
v 0.662412 0.711572 0.142006
v 0.552460 0.596185 0.280353
v 0.660180 0.694927 0.145071
v 0.660180 0.707596 0.152385
v 0.228573 0.694927 0.145071
v 0.660180 0.682258 0.152385
v 0.660180 0.694927 0.174328
v 0.660180 0.707596 0.167014
v 0.228573 0.694927 0.174328
v 0.660180 0.682258 0.167014
v 0.228573 0.682258 0.167014
v 0.228573 0.682258 0.152385
v 0.228573 0.707596 0.167014
v 0.228573 0.707596 0.152385
v -0.613143 0.892457 0.500743
v -0.656403 0.934898 0.500743
v -0.292715 0.892457 0.500743
v -0.613143 0.892457 0.453453
v -0.292715 0.892457 0.453453
v -0.656403 0.934898 0.453453
v -0.677589 0.977340 0.453453
v -0.677589 0.977340 0.500743
v -0.683290 1.019782 0.453453
v -0.677317 1.062223 0.453453
v -0.683290 1.019782 0.500743
v -0.677317 1.062223 0.500743
v -0.222569 1.019782 0.500743
v -0.222569 1.019782 0.453453
v -0.228540 1.062223 0.500743
v -0.228268 0.977340 0.500743
v -0.249455 0.934898 0.500743
v -0.228268 0.977340 0.453453
v -0.249455 0.934898 0.453453
v -0.228540 1.062223 0.453453
v -0.236753 1.104665 0.500743
v -0.259040 1.147107 0.500743
v -0.669106 1.104665 0.500743
v -0.236753 1.104665 0.453453
v -0.259040 1.147107 0.453453
v -0.290492 1.189548 0.453453
v -0.290492 1.189548 0.500743
v -0.348122 1.231990 0.453453
v -0.557736 1.231990 0.453453
v -0.348122 1.231990 0.500743
v -0.557736 1.231990 0.500743
v -0.615365 1.189548 0.500743
v -0.646818 1.147107 0.500743
v -0.615365 1.189548 0.453453
v -0.646818 1.147107 0.453453
v -0.669106 1.104665 0.453453
v -0.634089 0.987570 0.514531
v -0.645950 1.007546 0.514531
v -0.271769 0.987570 0.514531
v -0.634089 0.987570 0.498908
v -0.645950 1.007546 0.498908
v -0.271769 0.987570 0.498908
v -0.259907 1.007546 0.498908
v -0.253800 1.027523 0.498908
v -0.259907 1.007546 0.514531
v -0.253800 1.027523 0.514531
v -0.259907 1.047500 0.514531
v -0.652058 1.027523 0.514531
v -0.645950 1.047500 0.514531
v -0.652058 1.027523 0.498908
v -0.645950 1.047500 0.498908
v -0.634089 1.067477 0.498908
v -0.634089 1.067477 0.514531
v -0.271769 1.067477 0.498908
v -0.271769 1.067477 0.514531
v -0.259907 1.047500 0.498908
v -0.660210 1.082175 0.514531
v -0.656202 1.109309 0.514531
v -0.245647 1.082175 0.514531
v -0.660210 1.082175 0.497442
v -0.656202 1.109309 0.497442
v -0.245647 1.082175 0.497442
v -0.249655 1.109309 0.497442
v -0.249655 1.109309 0.514531
v -0.268327 1.140127 0.497442
v -0.293150 1.175055 0.497442
v -0.268327 1.140127 0.514531
v -0.637530 1.140127 0.514531
v -0.293150 1.175055 0.514531
v -0.612707 1.175055 0.514531
v -0.326602 1.206488 0.514531
v -0.579255 1.206488 0.514531
v -0.364750 1.224892 0.514531
v -0.326602 1.206488 0.497442
v -0.364750 1.224892 0.497442
v -0.541107 1.224892 0.497442
v -0.579255 1.206488 0.497442
v -0.541107 1.224892 0.514531
v -0.612707 1.175055 0.497442
v -0.637530 1.140127 0.497442
v -0.245648 0.971082 0.514531
v -0.249655 0.952540 0.514531
v -0.660210 0.971082 0.514531
v -0.245648 0.971082 0.497442
v -0.249655 0.952540 0.497442
v -0.660210 0.971082 0.497442
v -0.656202 0.952540 0.497442
v -0.656202 0.952540 0.514531
v -0.638701 0.931482 0.497442
v -0.638701 0.931482 0.514531
v -0.612707 0.907615 0.497442
v -0.612707 0.907615 0.514531
v -0.293150 0.907615 0.497442
v -0.293150 0.907615 0.514531
v -0.267157 0.931482 0.497442
v -0.267157 0.931482 0.514531
v 0.708952 0.105512 0.120045
v 0.708952 0.105512 -0.009621
v 0.708952 0.055418 0.120045
v 0.698953 0.105512 0.120045
v 0.698953 0.105512 -0.009621
v 0.698953 0.055418 0.120045
v 0.698953 0.055418 -0.009621
v 0.698953 0.037398 -0.009621
v 0.708952 0.055418 -0.009621
v 0.708952 0.080465 -0.086183
v 0.708952 0.037398 -0.009621
v 0.708952 0.123533 -0.009621
v 0.698953 0.080465 -0.086183
v 0.698953 0.123533 -0.009621
v -0.465691 0.964265 -0.568419
v -0.450188 0.964265 -0.531484
v -0.443425 0.964265 -0.596536
v -0.503118 0.964265 -0.583718
v -0.465691 0.957037 -0.568419
v -0.503118 0.957037 -0.583718
v -0.450188 0.957037 -0.531484
v -0.503118 0.957037 -0.531484
v -0.465691 0.957037 -0.494549
v -0.465691 0.964265 -0.494549
v -0.503118 0.957037 -0.479250
v -0.540545 0.957037 -0.494549
v -0.503118 0.964265 -0.479250
v -0.562808 0.964265 -0.466432
v -0.540545 0.964265 -0.494549
v -0.556046 0.964265 -0.531484
v -0.540545 0.964265 -0.568419
v -0.556046 0.957037 -0.531484
v -0.562808 0.964265 -0.531484
v -0.562808 0.964265 -0.596536
v -0.568125 0.964265 -0.531484
v -0.584051 0.964265 -0.569965
v -0.568125 0.957037 -0.531484
v -0.584051 0.964265 -0.493003
v -0.584051 0.957037 -0.493003
v -0.622500 0.964265 -0.477064
v -0.622500 0.957037 -0.477064
v -0.660948 0.964265 -0.493003
v -0.676874 0.964265 -0.531484
v -0.682191 0.964265 -0.466432
v -0.660948 0.957037 -0.493003
v -0.676874 0.957037 -0.531484
v -0.660948 0.957037 -0.569965
v -0.622500 0.957037 -0.531484
v -0.622500 0.957037 -0.585904
v -0.622500 0.964265 -0.585904
v -0.584051 0.957037 -0.569965
v -0.660948 0.964265 -0.569965
v -0.682191 0.964265 -0.596536
v -0.682191 0.861575 -0.596536
v -0.682191 0.861575 -0.466432
v -0.562808 0.861575 -0.596536
v -0.443425 0.861575 -0.596536
v -0.443425 0.861575 -0.466432
v -0.443425 0.964265 -0.466432
v -0.562808 0.861575 -0.466432
v -0.540545 0.957037 -0.568419
v -0.465691 0.964265 -0.409134
v -0.450188 0.964265 -0.372199
v -0.443425 0.964265 -0.437252
v -0.503118 0.964265 -0.424434
v -0.465691 0.957037 -0.409134
v -0.503118 0.957037 -0.424434
v -0.450188 0.957037 -0.372199
v -0.503118 0.957037 -0.372199
v -0.465691 0.957037 -0.335264
v -0.465691 0.964265 -0.335264
v -0.503118 0.957037 -0.319965
v -0.540545 0.957037 -0.335264
v -0.503118 0.964265 -0.319965
v -0.562808 0.964265 -0.307147
v -0.540545 0.964265 -0.335264
v -0.556046 0.964265 -0.372199
v -0.540545 0.964265 -0.409135
v -0.556046 0.957037 -0.372199
v -0.562808 0.964265 -0.372199
v -0.562808 0.964265 -0.437252
v -0.568125 0.964265 -0.372199
v -0.584051 0.964265 -0.410680
v -0.568125 0.957037 -0.372199
v -0.584051 0.964265 -0.333719
v -0.584051 0.957037 -0.333719
v -0.622500 0.964265 -0.317780
v -0.622500 0.957037 -0.317780
v -0.660948 0.964265 -0.333719
v -0.676874 0.964265 -0.372199
v -0.682191 0.964265 -0.307147
v -0.660948 0.957037 -0.333719
v -0.676874 0.957037 -0.372199
v -0.660948 0.957037 -0.410680
v -0.622500 0.957037 -0.372199
v -0.622500 0.957037 -0.426619
v -0.584051 0.957037 -0.410680
v -0.622500 0.964265 -0.426619
v -0.660948 0.964265 -0.410680
v -0.682191 0.964265 -0.437252
v -0.682191 0.861575 -0.437252
v -0.682191 0.861575 -0.307147
v -0.562808 0.861575 -0.437252
v -0.443425 0.861575 -0.437252
v -0.443425 0.861575 -0.307147
v -0.443425 0.964265 -0.307147
v -0.562808 0.861575 -0.307147
v -0.540545 0.957037 -0.409135
v 0.827106 0.426288 -0.138818
v 0.835517 0.417878 -0.174331
v 0.720745 0.532808 -0.139115
v 0.697170 0.533265 -0.142230
v 0.721270 0.532282 -0.174629
v 0.697170 0.533265 -0.177744
v 0.720745 0.532808 -0.210142
v 0.697170 0.533265 -0.213257
v 0.827106 0.426288 -0.209845
v 0.721270 0.532282 -0.245656
v 0.835517 0.417878 -0.245359
v 0.720745 0.532808 -0.281169
v 0.697170 0.533265 -0.248771
v 0.697170 0.533265 -0.284284
v 0.697170 0.533265 -0.319798
v 0.697170 0.533265 -0.355311
v 0.721270 0.532282 -0.316683
v 0.720745 0.532808 -0.352196
v 0.835517 0.417878 -0.316386
v 0.827106 0.426288 -0.280872
v 0.827106 0.426288 -0.351899
v 0.835517 0.417878 -0.387413
v 0.827106 0.426288 -0.422926
v 0.721270 0.532282 -0.387710
v 0.720745 0.532808 -0.423223
v 0.697170 0.533265 -0.390825
v 0.697170 0.533265 -0.426338
v 0.697170 0.533265 -0.461852
v 0.697170 0.533265 -0.497365
v 0.721270 0.532282 -0.458737
v 0.835517 0.417878 -0.458440
v 0.720745 0.532808 -0.494250
v 0.827106 0.426288 -0.493953
v 0.721270 0.532282 -0.529764
v 0.835517 0.417878 -0.529467
v 0.720745 0.532808 -0.565278
v 0.697170 0.533265 -0.532879
v 0.697170 0.533265 -0.568393
v 0.827106 0.426288 -0.564980
v 0.700235 0.516620 -0.566161
v 0.707550 0.529289 -0.566161
v 0.700235 0.516620 -0.134554
v 0.707550 0.503951 -0.566161
v 0.729492 0.516620 -0.566161
v 0.722178 0.529289 -0.566161
v 0.729492 0.516620 -0.134554
v 0.722178 0.503951 -0.566161
v 0.722178 0.503952 -0.134554
v 0.707549 0.503952 -0.134554
v 0.722178 0.529289 -0.134554
v 0.707549 0.529289 -0.134554
vn -0.0000 0.7066 0.7076
vn -0.0001 0.7066 0.7076
vn 0.0072 0.9995 0.0311
vn -0.0072 0.9995 0.0293
vn 0.0001 0.7066 0.7076
vn -0.0000 -0.0000 1.0000
vn -1.0000 -0.0000 -0.0000
vn -0.0000 -0.0000 -1.0000
vn 0.1822 -0.9833 -0.0000
vn -0.0000 -0.9927 0.1208
vn -0.2003 -0.9797 -0.0000
vn 1.0000 -0.0000 -0.0000
vn -0.0000 -1.0000 -0.0000
vn -0.0000 1.0000 -0.0000
vn 0.6775 -0.0000 0.7355
vn -0.1095 -0.9871 -0.1168
vn -0.0000 -0.9861 -0.1663
vn 0.6903 -0.0000 0.7236
vn -0.2003 0.9797 -0.0000
vn -0.0000 0.9861 -0.1663
vn -0.0000 0.9927 0.1208
vn 0.1822 0.9833 -0.0000
vn -0.6775 -0.0000 -0.7355
vn -0.0000 0.9955 -0.0948
vn -0.1095 0.9871 -0.1168
vn -0.0000 -0.9955 -0.0948
vn 0.7355 -0.0000 -0.6775
vn -0.7356 -0.0000 0.6775
vn -0.7355 -0.0000 0.6775
vn -0.0000 0.5000 -0.8660
vn -0.0000 -0.5000 -0.8660
vn -0.0000 -0.5000 0.8660
vn -0.0000 0.5000 0.8660
vn -0.7003 -0.7138 -0.0000
vn -0.8947 -0.4466 -0.0000
vn -0.9911 -0.1331 -0.0000
vn -0.9902 0.1394 -0.0000
vn 0.9911 -0.1331 -0.0000
vn 0.9902 0.1393 -0.0000
vn 0.8947 -0.4467 -0.0000
vn 0.7003 -0.7138 -0.0000
vn 0.9818 0.1900 -0.0000
vn 0.8854 0.4649 -0.0000
vn 0.8034 0.5954 -0.0000
vn 0.5930 0.8052 -0.0000
vn -0.5930 0.8052 -0.0000
vn -0.8034 0.5954 -0.0000
vn -0.8854 0.4649 -0.0000
vn -0.9818 0.1899 -0.0000
vn -0.8599 -0.5105 -0.0000
vn 0.8598 -0.5106 -0.0000
vn 0.9563 -0.2923 -0.0000
vn 0.9563 0.2923 -0.0000
vn -0.9563 0.2924 -0.0000
vn -0.9563 -0.2924 -0.0000
vn -0.8599 0.5105 -0.0000
vn 0.8598 0.5106 -0.0000
vn -0.9893 0.1461 -0.0000
vn 0.9893 0.1461 -0.0000
vn 0.8553 0.5182 -0.0000
vn 0.8151 0.5793 -0.0000
vn 0.6848 0.7288 -0.0000
vn 0.4345 0.9007 -0.0000
vn -0.4345 0.9007 -0.0000
vn -0.6848 0.7288 -0.0000
vn -0.8151 0.5793 -0.0000
vn -0.8553 0.5182 -0.0000
vn 0.9774 -0.2112 -0.0000
vn -0.9774 -0.2112 -0.0000
vn -0.7691 -0.6392 -0.0000
vn -0.6763 -0.7366 -0.0000
vn 0.6763 -0.7366 -0.0000
vn 0.7691 -0.6392 -0.0000
vn -0.0000 -0.8716 -0.4903
vn -0.0000 0.8716 -0.4903
vn -0.9221 -0.0000 0.3870
vn -0.3784 -0.0000 0.9257
vn -0.9221 -0.0000 -0.3870
vn -0.3784 -0.0000 -0.9257
vn 0.3784 -0.0000 -0.9257
vn 0.9221 -0.0000 -0.3870
vn 0.9221 -0.0000 0.3870
vn -0.9240 -0.0000 0.3824
vn -0.9240 -0.0000 -0.3824
vn -0.3829 -0.0000 -0.9238
vn 0.3830 -0.0000 -0.9238
vn 0.9240 -0.0000 -0.3824
vn 0.9240 -0.0000 0.3824
vn 0.3830 -0.0000 0.9238
vn -0.3829 -0.0000 0.9238
vn 0.3784 -0.0000 0.9257
vn -0.3784 -0.0000 0.9256
vn 0.7076 0.7066 -0.0000
vn 0.7076 0.7066 0.0001
vn 0.0311 0.9995 -0.0072
vn 0.0293 0.9995 0.0072
vn 0.7076 0.7066 -0.0001
vn -0.8660 0.5000 -0.0000
vn -0.8660 -0.5000 -0.0000
vn 0.8660 0.5000 -0.0000
vn 0.8660 -0.5000 -0.0000
vt 0.944498 0.083453
vt 0.947088 0.092580
vt 0.945093 0.093184
vt 0.942682 0.084689
vt 0.947650 0.093893
vt 0.945648 0.094463
vt 0.949105 0.092051
vt 0.949656 0.093331
vt 0.946692 0.083559
vt 0.951100 0.091448
vt 0.951660 0.092762
vt 0.948507 0.082322
vt 0.950701 0.082428
vt 0.953115 0.090919
vt 0.952516 0.081190
vt 0.955110 0.090316
vt 0.953667 0.092199
vt 0.955671 0.091630
vt 0.954710 0.081296
vt 0.957126 0.089787
vt 0.957678 0.091067
vt 0.959121 0.089183
vt 0.959682 0.090497
vt 0.961137 0.088654
vt 0.961689 0.089934
vt 0.956525 0.080058
vt 0.958720 0.080163
vt 0.960534 0.078925
vt 0.963131 0.088050
vt 0.962729 0.079030
vt 0.965147 0.087521
vt 0.965699 0.088801
vt 0.963692 0.089364
vt 0.967142 0.086917
vt 0.967703 0.088230
vt 0.964543 0.077792
vt 0.966738 0.077897
vt 0.969157 0.086387
vt 0.969709 0.087667
vt 0.971152 0.085783
vt 0.971712 0.087097
vt 0.973168 0.085254
vt 0.973718 0.086536
vt 0.970746 0.076763
vt 0.968552 0.076658
vt 0.642315 0.631456
vt 0.651240 0.649405
vt 0.650087 0.652576
vt 0.637026 0.626336
vt 0.671806 0.614226
vt 0.671110 0.607029
vt 0.646604 0.696770
vt 0.704638 0.733891
vt 0.668638 0.764528
vt 0.626297 0.714658
vt 0.737939 0.775846
vt 0.711232 0.736390
vt 0.780419 0.687543
vt 0.807909 0.726956
vt 0.661463 0.678025
vt 0.708050 0.735032
vt 0.662436 0.682416
vt 0.780025 0.684138
vt 0.758475 0.635941
vt 0.780133 0.680506
vt 0.755663 0.634498
vt 0.788116 0.644886
vt 0.799087 0.665382
vt 0.799776 0.665975
vt 0.816619 0.657432
vt 0.825168 0.657549
vt 0.789496 0.644899
vt 0.799781 0.664239
vt 0.800083 0.664601
vt 0.790236 0.644778
vt 0.800346 0.663821
vt 0.800622 0.664319
vt 0.807603 0.660729
vt 0.808378 0.660345
vt 0.814732 0.657275
vt 0.815303 0.656967
vt 0.807338 0.660139
vt 0.808046 0.659777
vt 0.798704 0.641226
vt 0.797964 0.641549
vt 0.806665 0.660002
vt 0.797691 0.642187
vt 0.800548 0.663154
vt 0.790936 0.644975
vt 0.797693 0.640962
vt 0.790006 0.644230
vt 0.789254 0.644579
vt 0.787917 0.644079
vt 0.805852 0.636097
vt 0.805261 0.637515
vt 0.804801 0.637707
vt 0.798518 0.640604
vt 0.803381 0.616254
vt 0.806316 0.636938
vt 0.805509 0.637935
vt 0.816500 0.656503
vt 0.738268 0.609804
vt 0.731157 0.592458
vt 0.732389 0.584212
vt 0.752680 0.632656
vt 0.707860 0.599795
vt 0.700714 0.594602
vt 0.695415 0.597726
vt 0.677101 0.605421
vt 0.711500 0.619893
vt 0.705363 0.620615
vt 0.714689 0.615878
vt 0.730738 0.593586
vt 0.709052 0.600283
vt 0.715143 0.614768
vt 0.737070 0.609183
vt 0.718699 0.639132
vt 0.682835 0.631411
vt 0.690629 0.648072
vt 0.719038 0.641172
vt 0.690029 0.650941
vt 0.721127 0.647971
vt 0.693479 0.655368
vt 0.752911 0.639932
vt 0.773857 0.682205
vt 0.771057 0.680608
vt 0.752128 0.642231
vt 0.721881 0.650126
vt 0.708287 0.725291
vt 0.708493 0.728606
vt 0.671369 0.679687
vt 0.667766 0.678117
vt 0.673782 0.679581
vt 0.708549 0.722719
vt 0.768620 0.679709
vt 0.698038 0.658366
vt 0.722627 0.653074
vt 0.696556 0.656634
vt 0.751007 0.644324
vt 0.661218 0.672593
vt 0.687660 0.627734
vt 0.687882 0.627207
vt 0.704797 0.620441
vt 0.695185 0.598264
vt 0.698993 0.609726
vt 0.698517 0.608685
vt 0.688666 0.626167
vt 0.703489 0.620156
vt 0.683610 0.615700
vt 0.684088 0.616710
vt 0.703108 0.619919
vt 0.698921 0.610174
vt 0.684530 0.616755
vt 0.688866 0.625791
vt 0.677674 0.605584
vt 0.683699 0.615258
vt 0.698070 0.608650
vt 0.679051 0.605803
vt 0.679439 0.606025
vt 0.694392 0.599277
vt 0.694194 0.599669
vt 0.679922 0.630989
vt 0.651492 0.648092
vt 0.678759 0.630673
vt 0.671523 0.615467
vt 0.643487 0.631833
vt 0.805029 0.638227
vt 0.815138 0.656601
vt 0.814542 0.656737
vt 0.808290 0.659133
vt 0.813858 0.656584
vt 0.804784 0.638867
vt 0.799372 0.641382
vt 0.230021 0.004289
vt 0.230626 0.005595
vt 0.229783 0.005757
vt 0.229474 0.004656
vt 0.285401 0.005643
vt 0.267652 0.010144
vt 0.267011 0.008802
vt 0.285755 0.004287
vt 0.331809 0.022383
vt 0.300566 0.004893
vt 0.300911 0.004278
vt 0.332154 0.021767
vt 0.454994 0.007504
vt 0.449335 0.004406
vt 0.449415 0.004265
vt 0.455018 0.007363
vt 0.331119 0.023614
vt 0.299876 0.006124
vt 0.300221 0.005509
vt 0.331464 0.022998
vt 0.330774 0.024229
vt 0.299531 0.006740
vt 0.330429 0.024845
vt 0.299186 0.007355
vt 0.166841 0.005027
vt 0.165125 0.005051
vt 0.165543 0.004302
vt 0.166401 0.004290
vt 0.182070 0.004290
vt 0.182510 0.005027
vt 0.182091 0.005776
vt 0.181212 0.004302
vt 0.289913 0.034581
vt 0.285443 0.042950
vt 0.283588 0.042000
vt 0.287747 0.034211
vt 0.284936 0.044285
vt 0.283099 0.043306
vt 0.287262 0.043969
vt 0.286771 0.045273
vt 0.289117 0.044919
vt 0.288608 0.046254
vt 0.291418 0.036180
vt 0.293584 0.036550
vt 0.295090 0.038149
vt 0.290935 0.045938
vt 0.290443 0.047242
vt 0.297256 0.038518
vt 0.292790 0.046888
vt 0.292281 0.048223
vt 0.294608 0.047906
vt 0.294117 0.049211
vt 0.298762 0.040117
vt 0.296463 0.048856
vt 0.295955 0.050191
vt 0.300928 0.040485
vt 0.298281 0.049874
vt 0.297791 0.051179
vt 0.302434 0.042084
vt 0.304600 0.042453
vt 0.300136 0.050824
vt 0.299628 0.052159
vt 0.301955 0.051842
vt 0.301464 0.053146
vt 0.303810 0.052792
vt 0.303301 0.054126
vt 0.306107 0.044051
vt 0.308272 0.044419
vt 0.309780 0.046017
vt 0.305629 0.053811
vt 0.305134 0.055115
vt 0.235468 0.004290
vt 0.235857 0.005445
vt 0.235042 0.005714
vt 0.234837 0.004365
vt 0.972102 0.089484
vt 0.942793 0.097376
vt 0.942682 0.096694
vt 0.971740 0.088805
vt 0.128616 0.019743
vt 0.102182 0.004891
vt 0.102533 0.004266
vt 0.128968 0.019119
vt 0.144799 0.008242
vt 0.138421 0.004280
vt 0.138312 0.004469
vt 0.145045 0.008428
vt 0.127561 0.021617
vt 0.101127 0.006764
vt 0.101478 0.006140
vt 0.127913 0.020992
vt 0.101830 0.005515
vt 0.128264 0.020368
vt 0.133808 0.004290
vt 0.134248 0.005027
vt 0.133829 0.005776
vt 0.132950 0.004302
vt 0.306265 0.005027
vt 0.304549 0.005051
vt 0.304967 0.004302
vt 0.305825 0.004290
vt 0.127209 0.022241
vt 0.100775 0.007389
vt 0.332836 0.179331
vt 0.329424 0.180116
vt 0.328508 0.177639
vt 0.333335 0.176701
vt 0.348692 0.188910
vt 0.349559 0.192265
vt 0.350785 0.187109
vt 0.327096 0.181583
vt 0.325402 0.179554
vt 0.325484 0.183491
vt 0.323298 0.181936
vt 0.324416 0.185742
vt 0.321863 0.184658
vt 0.348449 0.197314
vt 0.346969 0.199296
vt 0.349367 0.195006
vt 0.352018 0.195487
vt 0.350899 0.198484
vt 0.349138 0.201042
vt 0.352249 0.191835
vt 0.345241 0.201145
vt 0.323592 0.188126
vt 0.346972 0.203228
vt 0.342867 0.202605
vt 0.344089 0.205072
vt 0.323412 0.190913
vt 0.339977 0.203746
vt 0.340507 0.206398
vt 0.335838 0.204095
vt 0.335187 0.206703
vt 0.325403 0.197824
vt 0.323405 0.199726
vt 0.323775 0.193994
vt 0.321124 0.194825
vt 0.320636 0.191010
vt 0.320921 0.187606
vt 0.006139 0.116860
vt 0.005403 0.118058
vt 0.004601 0.117665
vt 0.005772 0.116023
vt 0.027345 0.116171
vt 0.028124 0.117316
vt 0.027616 0.115285
vt 0.028904 0.116846
vt 0.028500 0.118489
vt 0.029357 0.118437
vt 0.005108 0.119250
vt 0.028205 0.119680
vt 0.029007 0.120074
vt 0.005483 0.120422
vt 0.004704 0.120893
vt 0.004251 0.119302
vt 0.006263 0.121568
vt 0.005992 0.122454
vt 0.027468 0.120879
vt 0.027835 0.121716
vt 0.412620 0.008236
vt 0.412748 0.009816
vt 0.411798 0.009926
vt 0.411967 0.007494
vt 0.436038 0.005230
vt 0.436286 0.006768
vt 0.436378 0.004281
vt 0.437260 0.006606
vt 0.435602 0.008704
vt 0.436580 0.009076
vt 0.434377 0.010973
vt 0.435219 0.011555
vt 0.413871 0.011534
vt 0.415599 0.013413
vt 0.432620 0.013097
vt 0.417843 0.015010
vt 0.433282 0.013860
vt 0.430534 0.014473
vt 0.420206 0.015810
vt 0.430849 0.015438
vt 0.420165 0.016831
vt 0.417405 0.015932
vt 0.414936 0.014195
vt 0.413040 0.012125
vt 0.990372 0.139569
vt 0.991242 0.138898
vt 0.991857 0.139605
vt 0.990168 0.140560
vt 0.975886 0.120552
vt 0.976788 0.119930
vt 0.974857 0.120656
vt 0.976216 0.119177
vt 0.978364 0.119881
vt 0.978442 0.118835
vt 0.980513 0.120302
vt 0.981144 0.119480
vt 0.991928 0.135286
vt 0.992881 0.134853
vt 0.991731 0.137413
vt 0.992750 0.137595
vt 0.583948 0.007186
vt 0.590725 0.011792
vt 0.590269 0.012269
vt 0.583397 0.007375
vt 0.585666 0.004860
vt 0.592367 0.008725
vt 0.585547 0.004271
vt 0.592586 0.008097
vt 0.593296 0.008417
vt 0.593693 0.007983
vt 0.595079 0.012049
vt 0.595637 0.012280
vt 0.591005 0.012724
vt 0.590987 0.013350
vt 0.708126 0.068578
vt 0.707941 0.068924
vt 0.705754 0.068774
vt 0.705643 0.068411
vt 0.709294 0.066851
vt 0.711564 0.073704
vt 0.709733 0.070497
vt 0.709362 0.070612
vt 0.706627 0.071492
vt 0.704063 0.070168
vt 0.703716 0.069986
vt 0.703891 0.072368
vt 0.703519 0.072482
vt 0.705292 0.074063
vt 0.705099 0.074409
vt 0.707501 0.074216
vt 0.703886 0.076156
vt 0.701763 0.069255
vt 0.707613 0.074579
vt 0.707724 0.074929
vt 0.709563 0.072984
vt 0.709209 0.072806
vt 0.707812 0.075205
vt 0.710421 0.075367
vt 0.705780 0.076849
vt 0.710231 0.075716
vt 0.707924 0.075569
vt 0.706134 0.077031
vt 0.705967 0.079294
vt 0.705594 0.079408
vt 0.707439 0.081030
vt 0.707254 0.081378
vt 0.706150 0.083023
vt 0.709723 0.081173
vt 0.709834 0.081537
vt 0.713697 0.080613
vt 0.708824 0.078375
vt 0.711683 0.077459
vt 0.711496 0.079728
vt 0.711844 0.079912
vt 0.712056 0.077345
vt 0.715466 0.086394
vt 0.708058 0.088759
vt 0.717301 0.071864
vt 0.719451 0.078679
vt 0.715088 0.065072
vt 0.699990 0.063475
vt 0.707390 0.061113
vt 0.698146 0.077981
vt 0.696009 0.071167
vt 0.700337 0.084777
vt 0.488265 0.103576
vt 0.488080 0.103921
vt 0.485893 0.103772
vt 0.485782 0.103409
vt 0.489433 0.101848
vt 0.491703 0.108702
vt 0.489872 0.105495
vt 0.489501 0.105609
vt 0.486766 0.106490
vt 0.484202 0.105166
vt 0.483855 0.104984
vt 0.484030 0.107366
vt 0.483658 0.107480
vt 0.485430 0.109061
vt 0.485238 0.109407
vt 0.487640 0.109213
vt 0.484024 0.111154
vt 0.481902 0.104252
vt 0.487752 0.109576
vt 0.487863 0.109927
vt 0.489702 0.107981
vt 0.489348 0.107803
vt 0.487951 0.110202
vt 0.490560 0.110364
vt 0.485919 0.111847
vt 0.490370 0.110714
vt 0.488063 0.110567
vt 0.486273 0.112028
vt 0.486106 0.114291
vt 0.485733 0.114406
vt 0.487578 0.116028
vt 0.487393 0.116376
vt 0.486289 0.118021
vt 0.489861 0.116171
vt 0.489973 0.116534
vt 0.493836 0.115610
vt 0.488963 0.113372
vt 0.491822 0.112457
vt 0.491635 0.114726
vt 0.491983 0.114909
vt 0.492195 0.112342
vt 0.495605 0.121392
vt 0.488197 0.123757
vt 0.497440 0.106862
vt 0.499590 0.113676
vt 0.495227 0.100069
vt 0.480129 0.098473
vt 0.487530 0.096110
vt 0.478285 0.112978
vt 0.476148 0.106165
vt 0.480476 0.119775
vt 0.066572 0.065027
vt 0.057912 0.061152
vt 0.058730 0.059235
vt 0.066790 0.062841
vt 0.056545 0.060739
vt 0.057394 0.058838
vt 0.057023 0.063037
vt 0.055687 0.062638
vt 0.065082 0.066641
vt 0.056204 0.064954
vt 0.054837 0.064540
vt 0.064865 0.068827
vt 0.063375 0.070441
vt 0.055315 0.066839
vt 0.053979 0.066440
vt 0.054496 0.068755
vt 0.053129 0.068342
vt 0.053607 0.070640
vt 0.052272 0.070241
vt 0.061668 0.074241
vt 0.063158 0.072627
vt 0.061451 0.076427
vt 0.052789 0.072557
vt 0.059961 0.078042
vt 0.051900 0.074442
vt 0.051422 0.072143
vt 0.050565 0.074043
vt 0.051082 0.076359
vt 0.049715 0.075945
vt 0.050194 0.078244
vt 0.048859 0.077845
vt 0.059745 0.080228
vt 0.058255 0.081842
vt 0.049375 0.080161
vt 0.048009 0.079747
vt 0.058039 0.084028
vt 0.056550 0.085643
vt 0.048486 0.082046
vt 0.047150 0.081644
vt 0.670013 0.159987
vt 0.671744 0.160102
vt 0.672659 0.158638
vt 0.669196 0.158407
vt 0.684106 0.151294
vt 0.684931 0.152891
vt 0.670111 0.156943
vt 0.685028 0.149814
vt 0.671842 0.157058
vt 0.686679 0.153009
vt 0.687601 0.151529
vt 0.686776 0.149932
s 1
f 2/1/1 5/2/1 3/3/2 1/4/2
f 3/3/3 5/2/3 6/5/3 4/6/3
f 5/2/4 7/7/4 8/8/4 6/5/4
f 10/9/1 7/7/1 5/2/1 2/1/1
f 7/7/3 9/10/3 45/11/3 8/8/3
f 11/12/1 9/10/1 7/7/1 10/9/1
f 12/13/1 14/14/1 9/10/1 11/12/1
f 13/15/1 16/16/1 14/14/1 12/13/1
f 9/10/4 14/14/4 15/17/4 45/11/4
f 14/14/3 16/16/3 18/18/3 15/17/3
f 25/19/1 17/20/1 16/16/1 13/15/1
f 16/16/4 17/20/4 19/21/4 18/18/4
f 17/20/3 22/22/3 20/23/3 19/21/3
f 22/22/4 23/24/4 21/25/4 20/23/4
f 24/26/1 22/22/1 17/20/1 25/19/1
f 26/27/1 23/24/1 22/22/1 24/26/1
f 27/28/1 29/29/1 23/24/1 26/27/1
f 28/30/1 31/31/1 29/29/1 27/28/1
f 29/29/4 31/31/4 32/32/4 30/33/4
f 23/24/3 29/29/3 30/33/3 21/25/3
f 31/31/3 33/34/3 36/35/3 32/32/3
f 34/36/1 33/34/1 31/31/1 28/30/1
f 43/37/1 35/38/1 33/34/1 34/36/1
f 33/34/4 35/38/4 37/39/4 36/35/4
f 35/38/3 40/40/3 38/41/3 37/39/3
f 40/40/4 41/42/4 39/43/4 38/41/4
f 44/44/5 41/42/5 40/40/1 42/45/1
f 42/45/1 40/40/1 35/38/1 43/37/1
f 47/46/6 144/47/6 49/48/6 46/49/6
f 146/50/6 47/46/6 46/49/6 48/51/6
f 49/52/7 52/53/7 50/54/7 46/55/7
f 50/56/8 52/57/8 55/58/8 51/59/8
f 120/60/9 54/61/9 52/53/9 53/62/9
f 53/62/7 52/53/7 49/52/7
f 54/61/10 56/63/10 55/58/10 52/57/10
f 57/64/11 55/65/11 56/63/11 102/66/11
f 55/65/12 57/64/12 60/67/12 59/68/12
f 58/69/12 164/70/12 51/71/12 55/65/12
f 59/68/12 58/69/12 55/65/12
f 62/72/13 61/73/13 59/68/13 60/67/13
f 58/69/13 59/68/13 61/73/13 64/74/13
f 62/72/12 75/75/12 63/76/12 61/73/12
f 63/76/12 65/77/12 64/74/12 61/73/12
f 164/70/6 58/69/6 64/74/6 65/77/6 66/78/6 67/79/6 157/80/6 155/81/6
f 68/82/12 66/78/12 65/77/12 63/76/12
f 67/79/12 66/78/12 68/82/12 70/83/12
f 162/84/12 70/83/12 68/82/12 69/85/12
f 69/85/14 68/82/14 71/86/14 72/87/14
f 68/82/6 63/76/6 73/88/6 71/86/6
f 72/87/12 71/86/12 73/88/12 74/89/12
f 63/76/13 75/75/13 74/89/13 73/88/13
f 75/75/8 69/85/8 72/87/8 74/89/8
f 77/90/12 69/85/12 75/75/12 76/91/12
f 76/91/12 75/75/12 62/72/12 78/92/12
f 79/93/8 80/94/8 82/95/8 150/96/8 163/97/8 77/90/8 76/91/8 78/92/8
f 60/67/13 79/93/13 78/92/13 62/72/13
f 80/94/12 79/93/12 57/64/12 83/98/12
f 79/93/12 60/67/12 57/64/12
f 80/94/14 81/99/14 151/100/14 82/95/14
f 81/99/12 80/94/12 83/98/12
f 83/98/12 51/71/12 154/101/12 81/99/12
f 92/102/6 84/103/6 83/104/6 57/105/6
f 84/103/6 88/106/6 85/107/6 83/104/6
f 86/108/15 142/109/15 48/51/15 85/107/15
f 86/108/15 85/107/15 87/110/15 96/111/15
f 88/106/6 90/112/6 87/110/6 85/107/6
f 88/106/14 84/103/14 94/113/14 89/114/14
f 90/112/12 88/106/12 89/114/12 91/115/12
f 90/112/6 92/102/6 57/105/6 87/110/6
f 92/102/13 90/112/13 91/115/13 93/116/13
f 84/103/7 92/102/7 93/116/7 94/113/7
f 93/116/6 91/115/6 89/114/6 94/113/6
f 97/117/6 87/110/6 57/105/6
f 95/118/15 96/111/15 87/110/15
f 97/117/15 98/119/15 95/118/15 87/110/15
f 98/119/16 97/117/16 99/120/16 100/121/16
f 97/117/17 57/105/17 102/66/17 99/120/17
f 100/121/18 99/120/18 101/122/18 117/123/18
f 99/120/6 102/66/6 103/124/6 101/122/6
f 102/66/12 56/63/12 105/125/12 103/124/12
f 103/124/19 105/125/19 106/126/19 104/127/19
f 104/127/20 118/128/20 101/122/20 103/124/20
f 109/129/21 106/126/21 105/125/21 107/130/21
f 107/130/8 105/125/8 56/63/8 54/61/8
f 110/131/22 109/129/22 107/130/22 108/132/22
f 108/132/7 107/130/7 54/61/7 120/60/7
f 112/133/12 111/134/12 109/129/12 110/131/12
f 106/126/6 109/129/6 111/134/6 113/135/6
f 114/136/14 111/134/14 112/133/14
f 111/134/14 114/136/14 115/137/14 113/135/14
f 116/138/23 118/128/23 115/137/23 114/136/23
f 110/131/8 116/138/8 114/136/8 112/133/8
f 116/138/24 110/131/24 108/132/24 117/123/24
f 117/123/25 101/122/25 118/128/25 116/138/25
f 118/128/8 104/127/8 119/139/8 115/137/8
f 120/60/6 100/121/6 117/123/6 108/132/6
f 119/139/14 113/135/14 115/137/14
f 104/127/7 106/126/7 113/135/7 119/139/7
f 53/140/26 98/119/26 100/121/26 120/60/26
f 95/118/6 98/119/6 53/140/6 49/48/6
f 121/141/15 96/111/15 95/118/15
f 96/111/14 121/141/14 124/142/14 122/143/14
f 86/108/27 96/111/27 122/143/27 123/144/27
f 123/144/15 122/143/15 126/145/15 127/146/15
f 124/142/15 133/147/15 125/148/15 122/143/15
f 126/145/15 122/143/15 125/148/15
f 134/149/15 127/146/15 126/145/15 128/150/15
f 126/145/28 125/148/28 131/151/28 129/152/28
f 128/150/14 126/145/14 129/152/14 130/153/14
f 129/152/15 131/151/15 132/154/15 130/153/15
f 125/148/13 133/147/13 132/154/13 131/151/13
f 133/147/27 128/150/27 130/153/27 132/154/27
f 124/142/15 128/150/15 133/147/15
f 128/150/15 124/142/15 135/155/15 134/149/15
f 127/146/13 134/149/13 136/156/13 141/157/13
f 135/155/15 137/158/15 134/149/15
f 134/149/27 137/158/27 138/159/27 136/156/27
f 137/158/14 139/160/14 140/161/14 138/159/14
f 135/155/15 123/144/15 139/160/15 137/158/15
f 139/160/28 127/146/28 141/157/28 140/161/28
f 127/146/15 139/160/15 123/144/15
f 140/161/15 141/157/15 136/156/15 138/159/15
f 121/141/29 142/109/29 135/155/29 124/142/29
f 142/109/13 86/108/13 123/144/13 135/155/13
f 142/109/15 121/141/15 95/118/15 48/51/15
f 143/162/6 146/50/6 48/51/6 95/118/6
f 144/47/6 143/162/6 95/118/6 49/48/6
f 143/162/13 144/47/13 149/163/13 145/164/13
f 146/50/7 143/162/7 145/164/7 147/165/7
f 47/46/14 146/50/14 147/165/14 148/166/14
f 147/165/6 145/164/6 149/163/6 148/166/6
f 144/47/12 47/46/12 148/166/12 149/163/12
f 152/167/12 150/96/12 82/95/12 151/100/12
f 81/99/14 154/101/14 153/168/14 151/100/14
f 156/169/12 152/167/12 151/100/12 153/168/12
f 154/101/14 164/70/14 155/81/14 153/168/14
f 157/80/12 156/169/12 153/168/12 155/81/12
f 156/169/6 70/83/6 159/170/6 158/171/6
f 67/79/12 70/83/12 156/169/12 157/80/12
f 152/167/14 156/169/14 158/171/14 160/172/14
f 158/171/12 159/170/12 161/173/12 160/172/12
f 162/84/8 152/167/8 160/172/8 161/173/8
f 70/83/13 162/84/13 161/173/13 159/170/13
f 162/84/12 163/97/12 150/96/12 152/167/12
f 162/84/12 69/85/12 77/90/12 163/97/12
f 164/70/12 154/101/12 51/71/12
f 166/174/12 172/175/12 169/176/12 165/177/12
f 165/178/30 167/179/30 174/180/30 166/181/30
f 168/182/31 176/183/31 167/184/31 165/185/31
f 165/186/12 169/187/12 171/188/12 168/189/12
f 169/190/32 170/191/32 175/192/32 171/193/32
f 172/194/33 173/195/33 170/191/33 169/190/33
f 166/196/14 174/197/14 173/195/14 172/194/14
f 167/198/7 170/199/7 173/200/7 174/201/7
f 171/193/13 175/192/13 176/183/13 168/182/13
f 176/202/7 175/203/7 170/204/7 167/205/7
f 178/206/1 180/207/1 179/208/2 177/209/2
f 179/208/3 180/207/3 182/210/3 181/211/3
f 180/207/4 185/212/4 183/213/4 182/210/4
f 185/212/3 187/214/3 184/215/3 183/213/3
f 186/216/1 185/212/1 180/207/1 178/206/1
f 188/217/1 187/214/1 185/212/1 186/216/1
f 190/218/1 189/219/1 187/214/1 188/217/1
f 187/214/4 189/219/4 191/220/4 184/215/4
f 194/221/1 192/222/1 189/219/1 190/218/1
f 189/219/3 192/222/3 193/223/3 191/220/3
f 192/222/4 195/224/4 196/225/4 193/223/4
f 197/226/1 195/224/1 192/222/1 194/221/1
f 195/224/3 198/227/3 199/228/3 196/225/3
f 200/229/1 198/227/1 195/224/1 197/226/1
f 198/227/4 201/230/4 204/231/4 199/228/4
f 203/232/1 201/230/1 198/227/1 200/229/1
f 215/233/1 202/234/1 201/230/1 203/232/1
f 201/230/3 202/234/3 205/235/3 204/231/3
f 202/234/4 208/236/4 206/237/4 205/235/4
f 208/236/3 210/238/3 207/239/3 206/237/3
f 209/240/1 208/236/1 202/234/1 215/233/1
f 211/241/1 210/238/1 208/236/1 209/240/1
f 213/242/5 212/243/5 210/238/1 211/241/1
f 210/238/4 212/243/4 214/244/4 207/239/4
f 217/245/12 221/246/12 220/247/12 216/248/12
f 216/249/30 218/250/30 227/251/30 217/252/30
f 219/253/31 225/254/31 218/255/31 216/256/31
f 216/257/12 220/258/12 223/259/12 219/260/12
f 221/261/33 226/262/33 222/263/33 220/264/33
f 220/264/32 222/263/32 224/265/32 223/266/32
f 223/266/13 224/265/13 225/254/13 219/253/13
f 225/267/7 224/268/7 222/269/7 218/270/7
f 218/271/7 222/272/7 226/273/7 227/274/7
f 217/275/14 227/276/14 226/262/14 221/261/14
f 228/277/34 229/278/34 233/279/34 231/280/34
f 228/277/6 230/281/6 244/282/6 229/278/6
f 230/281/13 228/277/13 231/280/13 232/283/13
f 229/278/35 235/284/35 234/285/35 233/279/35
f 235/284/36 238/286/36 236/287/36 234/285/36
f 238/286/37 239/288/37 237/289/37 236/287/37
f 238/286/6 240/290/6 242/291/6 239/288/6
f 235/284/6 243/292/6 240/290/6 238/286/6
f 240/290/38 243/292/38 245/293/38 241/294/38
f 242/291/39 240/290/39 241/294/39 247/295/39
f 229/278/6 244/282/6 243/292/6 235/284/6
f 243/292/40 244/282/40 246/296/40 245/293/40
f 244/282/41 230/281/41 232/283/41 246/296/41
f 239/288/6 242/291/6 248/297/6 250/298/6
f 248/297/42 242/291/42 247/295/42 251/299/42
f 249/300/43 248/297/43 251/299/43 252/301/43
f 250/298/6 248/297/6 249/300/6 260/302/6
f 254/303/44 249/300/44 252/301/44 253/304/44
f 257/305/45 254/303/45 253/304/45 255/306/45
f 258/307/14 257/305/14 255/306/14 256/308/14
f 254/303/6 257/305/6 258/307/6 259/309/6
f 259/309/46 258/307/46 256/308/46 261/310/46
f 260/302/47 259/309/47 261/310/47 262/311/47
f 260/302/6 249/300/6 254/303/6 259/309/6
f 250/298/48 260/302/48 262/311/48 263/312/48
f 239/288/49 250/298/49 263/312/49 237/289/49
f 264/313/50 265/314/50 268/315/50 267/316/50
f 264/313/6 266/317/6 272/318/6 265/314/6
f 266/317/13 264/313/13 267/316/13 269/319/13
f 272/318/51 266/317/51 269/319/51 270/320/51
f 273/321/52 272/318/52 270/320/52 271/322/52
f 265/314/6 272/318/6 273/321/6 275/323/6
f 274/324/53 273/321/53 271/322/53 283/325/53
f 275/323/6 273/321/6 274/324/6 276/326/6
f 275/323/54 276/326/54 278/327/54 277/328/54
f 265/314/55 275/323/55 277/328/55 268/315/55
f 276/326/56 280/329/56 279/330/56 278/327/56
f 280/329/14 282/331/14 281/332/14 279/330/14
f 282/331/57 274/324/57 283/325/57 281/332/57
f 276/326/6 274/324/6 282/331/6 280/329/6
f 284/333/58 285/334/58 288/335/58 287/336/58
f 284/333/6 286/337/6 291/338/6 285/334/6
f 286/337/13 284/333/13 287/336/13 289/339/13
f 291/338/59 286/337/59 289/339/59 290/340/59
f 294/341/60 291/338/60 290/340/60 292/342/60
f 296/343/61 294/341/61 292/342/61 293/344/61
f 295/345/6 294/341/6 296/343/6 297/346/6
f 285/334/6 291/338/6 294/341/6 295/345/6
f 297/346/6 296/343/6 298/347/6 299/348/6
f 298/347/62 296/343/62 293/344/62 301/349/62
f 299/348/6 298/347/6 300/350/6 305/351/6
f 300/350/63 298/347/63 301/349/63 302/352/63
f 305/351/14 300/350/14 302/352/14 303/353/14
f 299/348/64 305/351/64 303/353/64 304/354/64
f 297/346/65 299/348/65 304/354/65 306/355/65
f 295/345/66 297/346/66 306/355/66 307/356/66
f 285/334/67 295/345/67 307/356/67 288/335/67
f 308/357/68 309/358/68 312/359/68 311/360/68
f 308/357/6 310/361/6 315/362/6 309/358/6
f 310/361/14 308/357/14 311/360/14 313/363/14
f 315/362/69 310/361/69 313/363/69 314/364/69
f 317/365/70 315/362/70 314/364/70 316/366/70
f 319/367/71 317/365/71 316/366/71 318/368/71
f 321/369/13 319/367/13 318/368/13 320/370/13
f 323/371/72 321/369/72 320/370/72 322/372/72
f 309/358/73 323/371/73 322/372/73 312/359/73
f 323/371/6 317/365/6 319/367/6 321/369/6
f 309/358/6 315/362/6 317/365/6 323/371/6
f 324/373/14 325/374/14 328/375/14 327/376/14
f 324/373/12 326/377/12 332/378/12 325/374/12
f 326/377/6 324/373/6 327/376/6 329/379/6
f 332/378/13 326/377/13 329/379/13 330/380/13
f 334/381/6 332/378/6 330/380/6 331/382/6
f 325/374/12 332/378/12 333/383/12
f 333/383/12 332/378/12 334/381/12
f 333/383/74 334/381/74 331/382/74 336/384/74
f 335/385/75 333/383/75 336/384/75 337/386/75
f 325/374/12 333/383/12 335/385/12
f 325/374/6 335/385/6 337/386/6 328/375/6
f 338/387/76 342/388/76 344/389/76 339/390/76
f 339/390/14 340/391/14 338/387/14
f 338/387/14 340/391/14 357/392/14 341/393/14
f 341/393/77 343/394/77 342/388/77 338/387/77
f 344/389/14 342/388/14 343/394/14 345/395/14
f 339/390/78 344/389/78 346/396/78 347/397/78
f 346/396/14 344/389/14 345/395/14 348/398/14
f 347/397/79 346/396/79 348/398/79 350/399/79
f 350/399/80 348/398/80 349/400/80 352/401/80
f 348/398/14 345/395/14 355/402/14 349/400/14
f 350/399/14 351/403/14 382/404/14 347/397/14
f 352/401/14 351/403/14 350/399/14
f 353/405/14 356/406/14 351/403/14 352/401/14
f 352/401/81 349/400/81 355/402/81 353/405/81
f 354/407/14 357/392/14 356/406/14 353/405/14
f 353/405/82 355/402/82 384/408/82 354/407/82
f 358/409/14 356/406/14 357/392/14 359/410/14
f 361/411/14 351/403/14 356/406/14 358/409/14
f 359/410/83 374/412/83 360/413/83 358/409/83
f 358/409/84 360/413/84 362/414/84 361/411/84
f 361/411/85 362/414/85 364/415/85 363/416/85
f 363/416/14 351/403/14 361/411/14
f 363/416/86 364/415/86 368/417/86 365/418/86
f 365/418/14 367/419/14 351/403/14 363/416/14
f 365/418/87 368/417/87 369/420/87 366/421/87
f 366/421/14 376/422/14 367/419/14 365/418/14
f 364/415/14 371/423/14 369/420/14 368/417/14
f 371/423/14 372/424/14 370/425/14 369/420/14
f 366/421/88 369/420/88 370/425/88 375/426/88
f 360/413/14 374/412/14 372/424/14 371/423/14
f 362/414/14 360/413/14 371/423/14 364/415/14
f 375/426/89 370/425/89 372/424/89 373/427/89
f 373/427/90 372/424/90 374/412/90 359/410/90
f 359/410/14 357/392/14 373/427/14
f 373/427/14 357/392/14 376/422/14 375/426/14
f 375/426/14 376/422/14 366/421/14
f 367/419/7 376/422/7 377/428/7 378/429/7
f 376/422/8 357/392/8 379/430/8 377/431/8
f 357/392/8 340/391/8 380/432/8 379/430/8
f 340/391/12 382/404/12 381/433/12 380/434/12
f 382/404/6 351/403/6 383/435/6 381/436/6
f 351/403/6 367/419/6 378/437/6 383/435/6
f 347/397/14 382/404/14 340/391/14 339/390/14
f 341/393/14 357/392/14 354/407/14
f 345/395/14 343/394/14 384/408/14 355/402/14
f 354/407/91 384/408/91 343/394/91 341/393/91
f 385/438/76 389/439/76 391/440/76 386/441/76
f 386/441/14 387/442/14 385/438/14
f 385/438/14 387/442/14 404/443/14 388/444/14
f 388/444/92 390/445/92 389/439/92 385/438/92
f 391/440/14 389/439/14 390/445/14 392/446/14
f 386/441/78 391/440/78 393/447/78 394/448/78
f 393/447/14 391/440/14 392/446/14 395/449/14
f 394/448/79 393/447/79 395/449/79 397/450/79
f 397/450/80 395/449/80 396/451/80 399/452/80
f 395/449/14 392/446/14 402/453/14 396/451/14
f 397/450/14 398/454/14 429/455/14 394/448/14
f 399/452/14 398/454/14 397/450/14
f 400/456/14 403/457/14 398/454/14 399/452/14
f 399/452/81 396/451/81 402/453/81 400/456/81
f 401/458/14 404/443/14 403/457/14 400/456/14
f 400/456/82 402/453/82 431/459/82 401/458/82
f 405/460/14 403/457/14 404/443/14 406/461/14
f 408/462/14 398/454/14 403/457/14 405/460/14
f 406/461/83 420/463/83 407/464/83 405/460/83
f 405/460/84 407/464/84 409/465/84 408/462/84
f 408/462/85 409/465/85 411/466/85 410/467/85
f 410/467/14 398/454/14 408/462/14
f 410/467/86 411/466/86 415/468/86 412/469/86
f 412/469/14 414/470/14 398/454/14 410/467/14
f 412/469/87 415/468/87 416/471/87 413/472/87
f 413/472/14 423/473/14 414/470/14 412/469/14
f 411/466/14 418/474/14 416/471/14 415/468/14
f 418/474/14 419/475/14 417/476/14 416/471/14
f 413/472/88 416/471/88 417/476/88 422/477/88
f 407/464/14 420/463/14 419/475/14 418/474/14
f 409/465/14 407/464/14 418/474/14 411/466/14
f 422/477/89 417/476/89 419/475/89 421/478/89
f 421/478/90 419/475/90 420/463/90 406/461/90
f 406/461/14 404/443/14 421/478/14
f 421/478/14 404/443/14 423/473/14 422/477/14
f 422/477/14 423/473/14 413/472/14
f 414/470/7 423/473/7 424/479/7 425/480/7
f 423/473/8 404/443/8 426/481/8 424/482/8
f 404/443/8 387/442/8 427/483/8 426/481/8
f 387/442/12 429/455/12 428/484/12 427/485/12
f 429/455/6 398/454/6 430/486/6 428/487/6
f 398/454/6 414/470/6 425/488/6 430/486/6
f 394/448/14 429/455/14 387/442/14 386/441/14
f 388/444/14 404/443/14 401/458/14
f 392/446/14 390/445/14 431/459/14 402/453/14
f 401/458/91 431/459/91 390/445/91 388/444/91
f 433/489/93 436/490/93 434/491/94 432/492/94
f 434/491/95 436/490/95 437/493/95 435/494/95
f 436/490/96 438/495/96 439/496/96 437/493/96
f 440/497/93 438/495/93 436/490/93 433/489/93
f 438/495/95 441/498/95 444/499/95 439/496/95
f 442/500/93 441/498/93 438/495/93 440/497/93
f 451/501/93 443/502/93 441/498/93 442/500/93
f 441/498/96 443/502/96 445/503/96 444/499/96
f 443/502/95 448/504/95 446/505/95 445/503/95
f 448/504/96 449/506/96 447/507/96 446/505/96
f 452/508/93 449/506/93 448/504/93 450/509/93
f 450/509/93 448/504/93 443/502/93 451/501/93
f 453/510/93 455/511/93 449/506/93 452/508/93
f 454/512/93 456/513/93 455/511/93 453/510/93
f 449/506/95 455/511/95 457/514/95 447/507/95
f 455/511/96 456/513/96 458/515/96 457/514/96
f 456/513/95 461/516/95 459/517/95 458/515/95
f 461/516/96 463/518/96 460/519/96 459/517/96
f 462/520/93 461/516/93 456/513/93 454/512/93
f 464/521/93 463/518/93 461/516/93 462/520/93
f 463/518/95 465/522/95 468/523/95 460/519/95
f 466/524/93 465/522/93 463/518/93 464/521/93
f 470/525/97 467/526/97 465/522/93 466/524/93
f 465/522/96 467/526/96 469/527/96 468/523/96
f 472/528/8 476/529/8 475/530/8 471/531/8
f 471/531/98 473/532/98 482/533/98 472/528/98
f 474/534/99 480/535/99 473/532/99 471/531/99
f 471/531/8 475/530/8 478/536/8 474/534/8
f 476/529/100 481/537/100 477/538/100 475/530/100
f 475/530/101 477/538/101 479/539/101 478/536/101
f 478/536/13 479/539/13 480/535/13 474/534/13
f 480/535/6 479/539/6 477/538/6 473/532/6
f 473/532/6 477/538/6 481/537/6 482/533/6
f 472/528/14 482/533/14 481/537/14 476/529/14
