# Blender 4.4.1
# www.blender.org
o Store_Small_2
v -0.534952 0.000000 0.531040
v -0.468082 0.176175 0.531040
v -0.534952 0.702681 0.531040
v -0.534952 -0.000000 -0.531040
v 0.262012 0.023441 0.531040
v 0.534951 0.000000 0.531040
v 0.534951 -0.000000 -0.531040
v 0.534951 0.394011 0.531040
v 0.272938 0.023441 0.531040
v 0.501518 0.023441 0.531040
v 0.501518 0.023441 0.519363
v 0.501518 0.394011 0.531040
v 0.501518 0.394011 0.519363
v 0.501518 0.702681 0.531040
v 0.272976 0.394011 0.531040
v 0.272976 0.394011 0.519363
v 0.261976 0.394011 0.531040
v 0.273011 0.702681 0.531040
v 0.565821 0.704066 0.561683
v 0.565821 0.786636 0.561683
v 0.565821 0.704066 -0.561683
v 0.534951 0.702681 0.531040
v -0.565821 0.704066 0.561683
v -0.565821 0.704066 -0.561683
v -0.565821 0.786636 0.561683
v -0.565821 0.786636 -0.561683
v -0.534952 0.788021 0.531040
v -0.534952 0.788021 -0.531040
v -0.520161 0.702951 0.516356
v 0.534951 0.788021 0.531040
v 0.534951 0.788021 -0.531040
v 0.520161 0.702951 0.516356
v 0.520161 0.702951 -0.516356
v -0.520161 0.702951 -0.516356
v 0.565821 0.786636 -0.561683
v -0.534952 0.702681 -0.531040
v 0.534951 0.702681 -0.531040
v -0.468082 0.394011 0.531040
v 0.261999 0.176175 0.531040
v 0.261976 0.394011 0.524773
v 0.261999 0.176175 0.524773
v -0.468082 0.394011 0.524773
v 0.261976 0.386783 0.524773
v -0.468082 0.386783 0.524773
v 0.261999 0.168947 0.524773
v -0.468082 0.168947 0.524773
v -0.468082 0.176175 0.524773
v 0.272938 0.023441 0.519363
v 0.421391 0.578904 0.528771
v 0.421391 0.591573 0.536086
v -0.443493 0.578904 0.528771
v 0.421391 0.566235 0.536086
v 0.421391 0.578904 0.558029
v 0.421391 0.591573 0.550714
v -0.443493 0.578904 0.558029
v 0.421391 0.566235 0.550714
v -0.443493 0.566235 0.550714
v -0.443493 0.566235 0.536086
v -0.443493 0.591573 0.550714
v -0.443493 0.591573 0.536086
v -0.435896 0.488572 0.655644
v -0.400383 0.480162 0.664054
v -0.435600 0.595091 0.549281
v -0.432486 0.595549 0.525707
v -0.400087 0.594566 0.549807
v -0.396971 0.595549 0.525707
v -0.364573 0.595091 0.549281
v -0.361458 0.595549 0.525707
v -0.329058 0.594566 0.549807
v -0.364870 0.488572 0.655644
v -0.329357 0.480162 0.664054
v -0.293842 0.488572 0.655644
v -0.258329 0.480162 0.664054
v -0.293547 0.595091 0.549281
v -0.258032 0.594566 0.549807
v -0.290430 0.595549 0.525707
v -0.254917 0.595549 0.525707
v -0.325945 0.595549 0.525707
v -0.219404 0.595549 0.525707
v -0.183889 0.595549 0.525707
v -0.222519 0.595091 0.549281
v -0.187004 0.594566 0.549807
v -0.222816 0.488572 0.655644
v -0.187302 0.480162 0.664054
v -0.151789 0.488572 0.655644
v -0.116274 0.480162 0.664054
v -0.151491 0.595091 0.549281
v -0.115978 0.594566 0.549807
v -0.148376 0.595549 0.525707
v -0.112864 0.595549 0.525707
v -0.077349 0.595549 0.525707
v -0.041836 0.595549 0.525707
v -0.080465 0.595091 0.549281
v -0.044950 0.594566 0.549807
v -0.080761 0.488572 0.655644
v -0.045248 0.480162 0.664054
v -0.009735 0.488572 0.655644
v 0.025780 0.480162 0.664054
v -0.009436 0.595091 0.549281
v 0.026075 0.594566 0.549807
v -0.006323 0.595549 0.525707
v 0.029192 0.595549 0.525707
v 0.064705 0.595549 0.525707
v 0.100218 0.595549 0.525707
v 0.061590 0.595091 0.549281
v 0.097103 0.594566 0.549807
v 0.061293 0.488572 0.655644
v 0.096806 0.480162 0.664054
v 0.132320 0.488572 0.655644
v 0.167834 0.480162 0.664054
v 0.132618 0.595091 0.549281
v 0.168131 0.594566 0.549807
v 0.135733 0.595549 0.525707
v 0.171246 0.595549 0.525707
v 0.206759 0.595549 0.525707
v 0.242272 0.595549 0.525707
v 0.203644 0.595091 0.549281
v 0.239158 0.594566 0.549807
v 0.203347 0.488572 0.655644
v 0.238860 0.480162 0.664054
v 0.274374 0.488572 0.655644
v 0.309887 0.480162 0.664054
v 0.274672 0.595091 0.549281
v 0.310184 0.594566 0.549807
v 0.277787 0.595549 0.525707
v 0.313299 0.595549 0.525707
v 0.348813 0.595549 0.525707
v 0.384327 0.595549 0.525707
v 0.345698 0.595091 0.549281
v 0.381212 0.594566 0.549807
v 0.345402 0.488572 0.655644
v 0.380915 0.480162 0.664054
v 0.416429 0.488572 0.655644
v 0.416725 0.595091 0.549281
v 0.419840 0.595549 0.525707
vn -0.0000 -0.0000 1.0000
vn -1.0000 -0.0000 -0.0000
vn 1.0000 -0.0000 -0.0000
vn -0.0000 1.0000 -0.0000
vn -0.0000 -1.0000 -0.0000
vn 1.0000 -0.0001 -0.0000
vn -0.0000 -0.9990 0.0452
vn 0.0448 -0.9990 -0.0000
vn -0.0000 -0.9990 0.0451
vn -0.0448 -0.9990 -0.0000
vn -0.0448 0.9990 -0.0000
vn -0.0000 0.9990 0.0452
vn 0.9852 0.1713 -0.0000
vn -0.0000 0.1701 -0.9854
vn -0.9852 0.1713 -0.0000
vn 0.0448 0.9990 -0.0000
vn -0.0000 0.1701 0.9854
vn -0.0000 0.9990 -0.0452
vn -0.0000 -0.0000 -1.0000
vn -0.0000 -0.9990 -0.0451
vn -1.0000 -0.0001 -0.0000
vn -0.0001 1.0000 -0.0000
vn -0.0000 0.5000 -0.8660
vn -0.0000 -0.5000 -0.8660
vn -0.0000 0.5000 0.8660
vn -0.0000 -0.5000 0.8660
vn -0.0000 0.7066 0.7076
vn -0.0001 0.7066 0.7076
vn 0.0072 0.9995 0.0311
vn -0.0072 0.9995 0.0293
vn 0.0001 0.7066 0.7076
vt 0.094144 0.744475
vt 0.088403 0.745136
vt 0.084759 0.737002
vt 0.092980 0.738726
vt 0.084281 0.748527
vt 0.071982 0.761160
vt 0.004251 0.825971
vt 0.019277 0.764174
vt 0.059980 0.769216
vt 0.050084 0.841408
vt 0.095369 0.737174
vt 0.187678 0.832319
vt 0.157039 0.768932
vt 0.183009 0.769036
vt 0.105109 0.735764
vt 0.104876 0.737864
vt 0.097949 0.736932
vt 0.093031 0.738855
vt 0.098332 0.736989
vt 0.093350 0.739389
vt 0.104558 0.738293
vt 0.098038 0.747246
vt 0.098212 0.746748
vt 0.112280 0.762298
vt 0.124869 0.760803
vt 0.126751 0.760054
vt 0.097411 0.746799
vt 0.129197 0.763675
vt 0.069302 0.763101
vt 0.131233 0.769046
vt 0.067061 0.767923
vt 0.141946 0.843147
vt 0.136504 0.844114
vt 0.136265 0.768811
vt 0.138239 0.770316
vt 0.143859 0.841127
vt 0.062060 0.767646
vt 0.051889 0.843639
vt 0.057309 0.844974
vt 0.068677 0.770164
vt 0.059765 0.842744
vt 0.129623 0.771453
vt 0.071910 0.774126
vt 0.063877 0.838761
vt 0.126836 0.776157
vt 0.134036 0.842072
vt 0.129563 0.838634
vt 0.057925 0.850395
vt 0.135899 0.849222
vt 0.133927 0.851154
vt 0.059910 0.852377
vt 0.068644 0.899477
vt 0.132517 0.892561
vt 0.084725 0.748165
vt 0.097017 0.746605
vt 0.093915 0.745077
vt 0.096911 0.746552
vt 0.093861 0.745083
vt 0.084873 0.748067
vt 0.088972 0.745367
vt 0.088905 0.745366
vt 0.297800 0.032757
vt 0.298239 0.033494
vt 0.297821 0.034243
vt 0.296941 0.032769
vt 0.252640 0.008035
vt 0.253059 0.007286
vt 0.297360 0.032020
vt 0.296523 0.033519
vt 0.252222 0.008784
vt 0.296963 0.034256
vt 0.297778 0.031271
vt 0.253477 0.006536
vt 0.253895 0.005787
vt 0.298197 0.030521
vt 0.254314 0.005038
vt 0.298615 0.029772
vt 0.254732 0.004288
vt 0.299033 0.029023
vt 0.251364 0.008797
vt 0.250924 0.008060
vt 0.251342 0.007310
vt 0.252200 0.007298
vt 0.258689 0.220268
vt 0.258371 0.229750
vt 0.256287 0.229717
vt 0.256583 0.220891
vt 0.258504 0.231172
vt 0.256424 0.231104
vt 0.260452 0.229862
vt 0.260587 0.231249
vt 0.260746 0.221039
vt 0.262536 0.229897
vt 0.262669 0.231319
vt 0.262852 0.220415
vt 0.264910 0.221185
vt 0.264617 0.230009
vt 0.267016 0.220561
vt 0.266701 0.230043
vt 0.264752 0.231396
vt 0.266834 0.231465
vt 0.268782 0.230155
vt 0.268917 0.231542
vt 0.270866 0.230189
vt 0.270999 0.231611
vt 0.271179 0.220707
vt 0.269073 0.221331
vt 0.273237 0.221476
vt 0.272947 0.230300
vt 0.275343 0.220852
vt 0.275031 0.230334
vt 0.273082 0.231687
vt 0.275164 0.231756
vt 0.277112 0.230445
vt 0.277247 0.231832
vt 0.279196 0.230478
vt 0.279329 0.231900
vt 0.277400 0.221621
vt 0.279506 0.220996
vt 0.281564 0.221765
vt 0.281277 0.230589
vt 0.283670 0.221140
vt 0.283360 0.230622
vt 0.281412 0.231976
vt 0.283494 0.232044
vt 0.285442 0.230732
vt 0.285577 0.232119
vt 0.287525 0.230765
vt 0.287659 0.232187
vt 0.287833 0.221283
vt 0.285727 0.221908
vt 0.289891 0.222051
vt 0.289607 0.230875
vt 0.291997 0.221425
vt 0.291691 0.230907
vt 0.289743 0.232262
vt 0.291825 0.232329
vt 0.293772 0.231017
vt 0.293908 0.232404
vt 0.295856 0.231049
vt 0.295990 0.232471
vt 0.294055 0.222193
vt 0.296160 0.221567
vt 0.298218 0.222335
vt 0.297937 0.231158
vt 0.300324 0.221708
vt 0.300021 0.231190
vt 0.298073 0.232545
vt 0.300155 0.232612
vt 0.302102 0.231299
vt 0.302238 0.232686
vt 0.304186 0.231331
vt 0.304319 0.232753
vt 0.304487 0.221848
vt 0.302382 0.222476
vt 0.306545 0.222616
vt 0.306267 0.231441
vt 0.306400 0.232830
s 1
f 39/1/1 2/2/1 1/3/1 5/4/1
f 2/2/1 38/5/1 3/6/1 1/3/1
f 4/7/2 1/8/2 3/9/2 36/10/2
f 5/4/1 1/3/1 6/11/1
f 7/12/3 8/13/3 6/14/3
f 6/11/1 8/15/1 12/16/1 10/17/1
f 5/4/1 6/11/1 9/18/1
f 9/18/1 6/11/1 10/17/1
f 9/18/4 10/17/4 11/19/4 48/20/4
f 10/17/2 12/16/2 13/21/2 11/19/2
f 12/16/5 15/22/5 16/23/5 13/21/5
f 18/24/1 15/22/1 12/16/1 14/25/1
f 8/15/1 22/26/1 14/25/1 12/16/1
f 9/18/6 48/20/6 16/23/6 15/22/6
f 17/27/1 39/1/1 9/18/1 15/22/1
f 18/24/1 17/27/1 15/22/1
f 17/27/1 18/24/1 3/6/1 38/5/1
f 18/24/7 19/28/7 23/29/7 3/6/7
f 18/24/7 14/25/7 19/28/7
f 19/28/1 20/30/1 25/31/1 23/29/1
f 21/32/3 35/33/3 20/30/3 19/34/3
f 22/35/8 37/36/8 21/32/8 19/34/8
f 14/25/7 22/26/9 19/28/7
f 36/10/10 3/9/10 23/37/10 24/38/10
f 23/37/2 25/31/2 26/39/2 24/38/2
f 27/40/11 28/41/11 26/39/11 25/31/11
f 30/42/12 27/40/12 25/31/12 20/30/12
f 28/41/13 27/40/13 29/43/13 34/44/13
f 27/40/14 30/42/14 32/45/14 29/43/14
f 30/42/15 31/46/15 33/47/15 32/45/15
f 31/46/16 30/42/16 20/30/16 35/33/16
f 29/43/4 32/45/4 33/47/4 34/44/4
f 31/46/17 28/41/17 34/44/17 33/47/17
f 28/41/18 31/46/18 35/33/18 26/39/18
f 24/48/19 26/39/19 35/33/19 21/49/19
f 37/50/20 36/51/20 24/48/20 21/49/20
f 4/52/19 36/51/19 37/50/19 7/53/19
f 7/12/3 37/36/3 22/35/3 8/13/3
f 17/27/5 38/5/5 42/54/5 40/55/5
f 39/1/21 17/27/21 40/55/21 41/56/21
f 41/56/1 40/55/1 43/57/1 45/58/1
f 40/55/1 42/54/1 44/59/1 43/57/1
f 43/57/1 44/59/1 46/60/1 45/58/1
f 47/61/19 41/56/19 45/58/19 46/60/19
s 0
f 42/54/22 47/61/4 46/60/4 44/59/4
s 1
f 2/2/4 39/1/4 41/56/4 47/61/4
f 38/5/3 2/2/3 47/61/3 42/54/3
f 39/1/1 5/4/1 9/18/1
f 16/23/1 48/20/1 11/19/1 13/21/1
f 50/62/3 54/63/3 53/64/3 49/65/3
f 49/65/23 51/66/23 60/67/23 50/68/23
f 52/69/24 58/70/24 51/66/24 49/65/24
f 49/65/3 53/64/3 56/71/3 52/69/3
f 54/72/25 59/73/25 55/74/25 53/75/25
f 53/75/26 55/74/26 57/76/26 56/77/26
f 56/77/5 57/76/5 58/78/5 52/79/5
f 58/70/2 57/80/2 55/81/2 51/66/2
f 51/66/2 55/81/2 59/82/2 60/83/2
f 50/68/4 60/67/4 59/73/4 54/72/4
f 62/84/27 65/85/27 63/86/28 61/87/28
f 63/86/29 65/85/29 66/88/29 64/89/29
f 65/85/30 67/90/30 68/91/30 66/88/30
f 70/92/27 67/90/27 65/85/27 62/84/27
f 67/90/29 69/93/29 78/94/29 68/91/29
f 71/95/27 69/93/27 67/90/27 70/92/27
f 72/96/27 74/97/27 69/93/27 71/95/27
f 73/98/27 75/99/27 74/97/27 72/96/27
f 69/93/30 74/97/30 76/100/30 78/94/30
f 74/97/29 75/99/29 77/101/29 76/100/29
f 75/99/30 81/102/30 79/103/30 77/101/30
f 81/102/29 82/104/29 80/105/29 79/103/29
f 84/106/27 82/104/27 81/102/27 83/107/27
f 83/107/27 81/102/27 75/99/27 73/98/27
f 85/108/27 87/109/27 82/104/27 84/106/27
f 86/110/27 88/111/27 87/109/27 85/108/27
f 82/104/30 87/109/30 89/112/30 80/105/30
f 87/109/29 88/111/29 90/113/29 89/112/29
f 88/111/30 93/114/30 91/115/30 90/113/30
f 93/114/29 94/116/29 92/117/29 91/115/29
f 95/118/27 93/114/27 88/111/27 86/110/27
f 96/119/27 94/116/27 93/114/27 95/118/27
f 97/120/27 99/121/27 94/116/27 96/119/27
f 98/122/27 100/123/27 99/121/27 97/120/27
f 94/116/30 99/121/30 101/124/30 92/117/30
f 99/121/29 100/123/29 102/125/29 101/124/29
f 100/123/30 105/126/30 103/127/30 102/125/30
f 105/126/29 106/128/29 104/129/29 103/127/29
f 108/130/27 106/128/27 105/126/27 107/131/27
f 107/131/27 105/126/27 100/123/27 98/122/27
f 109/132/27 111/133/27 106/128/27 108/130/27
f 110/134/27 112/135/27 111/133/27 109/132/27
f 106/128/30 111/133/30 113/136/30 104/129/30
f 111/133/29 112/135/29 114/137/29 113/136/29
f 112/135/30 117/138/30 115/139/30 114/137/30
f 117/138/29 118/140/29 116/141/29 115/139/29
f 119/142/27 117/138/27 112/135/27 110/134/27
f 120/143/27 118/140/27 117/138/27 119/142/27
f 121/144/27 123/145/27 118/140/27 120/143/27
f 122/146/27 124/147/27 123/145/27 121/144/27
f 118/140/30 123/145/30 125/148/30 116/141/30
f 123/145/29 124/147/29 126/149/29 125/148/29
f 124/147/30 129/150/30 127/151/30 126/149/30
f 129/150/29 130/152/29 128/153/29 127/151/29
f 132/154/27 130/152/27 129/150/27 131/155/27
f 131/155/27 129/150/27 124/147/27 122/146/27
f 133/156/31 134/157/31 130/152/27 132/154/27
f 130/152/30 134/157/30 135/158/30 128/153/30
