# Blender 4.4.1
# www.blender.org
o Store_Small_4
v -0.739908 0.000000 0.354026
v -0.673038 0.176175 0.354026
v -0.739908 0.702681 0.354026
v 0.057058 0.023441 0.354026
v -0.739908 -0.000000 -0.708053
v 0.057063 0.000000 0.354026
v 0.067985 0.023441 0.354026
v 0.296563 0.000000 0.354026
v 0.563094 0.000000 0.354026
v 0.296563 0.023441 0.354026
v 0.296563 0.023441 0.342349
v 0.296563 0.394011 0.354026
v 0.296563 0.394011 0.342349
v 0.563094 0.702681 0.354026
v 0.068021 0.394011 0.354026
v 0.068021 0.394011 0.342349
v 0.057021 0.394011 0.354026
v -0.673038 0.394011 0.354026
v 0.057045 0.176175 0.354026
v 0.057021 0.394011 0.347759
v 0.057045 0.176175 0.347759
v -0.673038 0.394011 0.347759
v -0.673038 0.176175 0.347759
v 0.067985 0.023441 0.342349
v 0.563094 0.702681 -0.708053
v 0.593963 0.704066 0.384669
v 0.593963 0.786636 0.384669
v 0.593963 0.704066 -0.738697
v -0.770777 0.704066 0.384669
v -0.770777 0.786636 0.384669
v -0.770777 0.704066 -0.738697
v -0.739908 0.702681 -0.708053
v -0.770777 0.786636 -0.738697
v -0.739908 0.788021 -0.708053
v 0.593963 0.786636 -0.738697
v 0.555698 0.788021 -0.708053
v 0.555698 0.788021 0.354026
v 0.555698 0.702951 -0.693370
v -0.725116 0.702951 -0.693370
v 0.555698 0.702951 0.339342
v -0.725116 0.702951 0.339342
v -0.739908 0.788021 0.354026
v 0.563094 -0.000000 -0.708053
v -0.287469 0.701621 0.243106
v -0.287469 0.701621 -0.052317
v -0.287469 0.780098 0.243106
v 0.014061 0.701621 0.243106
v 0.014061 0.701621 -0.052317
v 0.014061 0.780098 0.243106
v 0.014061 0.780098 -0.052317
v -0.287469 0.780098 -0.052317
v -0.286440 0.698008 -0.013388
v -0.286440 0.698008 -0.053260
v -0.286440 1.409472 -0.013388
v -0.246569 0.698008 -0.013388
v -0.246569 0.698008 -0.053260
v -0.246569 1.409472 -0.013388
v -0.246569 1.409472 -0.053260
v -0.286440 1.409472 -0.053260
v -0.022528 0.698008 -0.013388
v -0.022528 0.698008 -0.053260
v -0.022528 1.409472 -0.013388
v 0.017343 0.698008 -0.013388
v 0.017343 0.698008 -0.053260
v 0.017343 1.409472 -0.013388
v 0.017343 1.409472 -0.053260
v -0.022528 1.409472 -0.053260
v -0.286440 0.698008 0.243294
v -0.286440 0.698008 0.203423
v -0.286440 1.409472 0.243294
v -0.246569 0.698008 0.243294
v -0.246569 0.698008 0.203423
v -0.246569 1.409472 0.243294
v -0.246569 1.409472 0.203423
v -0.286440 1.409472 0.203423
v -0.022528 0.698008 0.243294
v -0.022528 0.698008 0.203423
v -0.022528 1.409472 0.243294
v 0.017343 0.698008 0.243294
v 0.017343 0.698008 0.203423
v 0.017343 1.409472 0.243294
v 0.017343 1.409472 0.203423
v -0.022528 1.409472 0.203423
v -0.288449 0.800643 0.242859
v -0.288449 0.800643 0.203858
v -0.017579 1.071513 0.242859
v -0.260871 0.773065 0.242859
v -0.260871 0.773065 0.203858
v 0.009999 1.043935 0.242859
v 0.009999 1.043935 0.203858
v -0.017579 1.071513 0.203858
v -0.018000 1.043366 0.240886
v -0.018000 1.043366 0.205831
v -0.261472 1.286838 0.240886
v 0.006788 1.068155 0.240886
v 0.006788 1.068155 0.205831
v -0.236684 1.311627 0.240886
v -0.236684 1.311627 0.205831
v -0.261472 1.286838 0.205831
v -0.286400 1.341114 0.242669
v -0.286400 1.341114 0.204048
v 0.008394 1.341114 0.242669
v -0.286400 1.302494 0.242669
v -0.286400 1.302494 0.204048
v 0.008394 1.302494 0.242669
v 0.008394 1.302494 0.204048
v 0.008394 1.341114 0.204048
v -0.286231 0.800643 -0.055487
v -0.247230 0.800643 -0.055487
v -0.286231 1.071513 0.215384
v -0.286231 0.773065 -0.027909
v -0.247230 0.773065 -0.027909
v -0.286231 1.043935 0.242961
v -0.247230 1.043935 0.242961
v -0.247230 1.071513 0.215384
v -0.284258 1.043366 0.214960
v -0.249203 1.043366 0.214960
v -0.284258 1.286838 -0.028512
v -0.284258 1.068155 0.239749
v -0.249203 1.068155 0.239749
v -0.284258 1.311627 -0.003723
v -0.249203 1.311627 -0.003723
v -0.249203 1.286838 -0.028512
v -0.286041 1.341114 -0.053440
v -0.247421 1.341114 -0.053440
v -0.286041 1.341114 0.241354
v -0.286041 1.302494 -0.053440
v -0.247421 1.302494 -0.053440
v -0.286041 1.302494 0.241354
v -0.247421 1.302494 0.241354
v -0.247421 1.341114 0.241354
v 0.019165 0.800643 -0.052673
v 0.019165 0.800643 -0.013672
v -0.251706 1.071513 -0.052673
v -0.008413 0.773065 -0.052673
v -0.008413 0.773065 -0.013672
v -0.279283 1.043935 -0.052673
v -0.279283 1.043935 -0.013672
v -0.251706 1.071513 -0.013672
v -0.251284 1.043366 -0.050700
v -0.251284 1.043366 -0.015645
v -0.007812 1.286838 -0.050700
v -0.276072 1.068155 -0.050700
v -0.276072 1.068155 -0.015645
v -0.032601 1.311627 -0.050700
v -0.032601 1.311627 -0.015645
v -0.007812 1.286838 -0.015645
v 0.017116 1.341114 -0.052483
v 0.017116 1.341114 -0.013862
v -0.277678 1.341114 -0.052483
v 0.017116 1.302494 -0.052483
v 0.017116 1.302494 -0.013862
v -0.277678 1.302494 -0.052483
v -0.277678 1.302494 -0.013862
v -0.277678 1.341114 -0.013862
v 0.016946 0.800643 0.245673
v -0.022054 0.800643 0.245673
v 0.016946 1.071513 -0.025198
v 0.016946 0.773065 0.218095
v -0.022054 0.773065 0.218095
v 0.016946 1.043935 -0.052775
v -0.022054 1.043935 -0.052775
v -0.022054 1.071513 -0.025198
v 0.014975 1.043366 -0.024775
v -0.020081 1.043366 -0.024775
v 0.014975 1.286838 0.218697
v 0.014975 1.068155 -0.049563
v -0.020081 1.068155 -0.049563
v 0.014975 1.311627 0.193909
v -0.020081 1.311627 0.193909
v -0.020081 1.286838 0.218697
v 0.016757 1.341114 0.243626
v -0.021863 1.341114 0.243626
v 0.016757 1.341114 -0.051169
v 0.016757 1.302494 0.243626
v -0.021863 1.302494 0.243626
v 0.016757 1.302494 -0.051169
v -0.021863 1.302494 -0.051169
v -0.021863 1.341114 -0.051169
v 0.277237 1.270945 0.393923
v 0.221471 1.479065 0.393923
v 0.222703 1.156005 0.282767
v 0.221471 1.062825 0.393923
v 0.231519 1.270945 0.504295
v 0.122382 1.335104 0.549317
v 0.181879 1.456206 0.504295
v 0.181879 1.085684 0.504295
v 0.046258 0.950064 0.504295
v 0.043375 1.077495 0.550684
v 0.007121 1.225861 0.502777
v -0.208212 1.012653 0.548604
v -0.147627 1.113420 0.499889
v -0.288091 1.236929 0.502777
v -0.079705 1.177252 0.391131
v -0.213505 1.193231 0.395545
v -0.236092 1.327000 0.393923
v -0.208035 1.128616 0.287142
v -0.288787 1.311080 0.284613
v -0.295851 1.039507 0.237833
v -0.025658 1.167552 0.283867
v 0.047252 1.076659 0.238528
v 0.007121 1.316030 0.285068
v -0.035476 1.298685 0.393923
v -0.137239 1.425818 0.288275
v 0.119442 1.346074 0.237137
v 0.181879 1.456206 0.283550
v -0.150269 1.547921 0.239030
v 0.046258 1.591827 0.283550
v -0.139002 1.641467 0.283550
v -0.324264 1.591827 0.283550
v -0.393671 1.347289 0.237161
v -0.459884 1.456206 0.283550
v -0.509526 1.270945 0.283550
v -0.459884 1.085684 0.283550
v -0.555243 1.270945 0.393923
v -0.499478 1.479065 0.393923
v -0.509526 1.270945 0.504295
v -0.499478 1.062825 0.393923
v -0.459884 1.085684 0.504295
v -0.347123 0.910471 0.393923
v -0.324264 0.950064 0.504295
v -0.232479 0.909314 0.278780
v -0.139002 0.854706 0.393923
v -0.139002 0.900423 0.504295
v 0.069117 0.910471 0.393923
v 0.046258 0.950064 0.283550
v -0.419275 1.270945 0.550013
v -0.139002 1.550625 0.552563
v -0.400771 1.537389 0.509065
v -0.243006 1.383051 0.502777
v -0.052771 1.403054 0.499889
v -0.111263 1.374472 0.393923
v -0.057691 1.641662 0.505078
v -0.347123 1.631420 0.393923
v -0.139002 1.687185 0.393923
v 0.069117 1.631420 0.393923
v 0.216437 0.578904 0.351757
v 0.216437 0.591573 0.359072
v -0.648448 0.578904 0.351757
v 0.216437 0.566235 0.359072
v 0.216437 0.578904 0.381015
v 0.216437 0.591573 0.373700
v -0.648448 0.578904 0.381015
v 0.216437 0.566235 0.373700
v -0.648448 0.566235 0.373700
v -0.648448 0.566235 0.359072
v -0.648448 0.591573 0.373700
v -0.648448 0.591573 0.359072
v -0.640851 0.488572 0.478630
v -0.605338 0.480162 0.487040
v -0.640554 0.595091 0.372267
v -0.637439 0.595549 0.348693
v -0.605042 0.594566 0.372793
v -0.601925 0.595549 0.348693
v -0.569527 0.595091 0.372267
v -0.534014 0.594566 0.372793
v -0.569825 0.488572 0.478630
v -0.566412 0.595549 0.348693
v -0.530900 0.595549 0.348693
v -0.495385 0.595549 0.348693
v -0.459872 0.595549 0.348693
v -0.498500 0.595091 0.372267
v -0.462986 0.594566 0.372793
v -0.498797 0.488572 0.478630
v -0.534312 0.480162 0.487040
v -0.463284 0.480162 0.487040
v -0.427770 0.488572 0.478630
v -0.392256 0.480162 0.487040
v -0.427473 0.595091 0.372267
v -0.424357 0.595549 0.348693
v -0.391960 0.594566 0.372793
v -0.388845 0.595549 0.348693
v -0.356446 0.595091 0.372267
v -0.320933 0.594566 0.372793
v -0.356743 0.488572 0.478630
v -0.353331 0.595549 0.348693
v -0.317817 0.595549 0.348693
v -0.282304 0.595549 0.348693
v -0.246790 0.595549 0.348693
v -0.285419 0.595091 0.372267
v -0.249905 0.594566 0.372793
v -0.285716 0.488572 0.478630
v -0.250203 0.480162 0.487040
v -0.321229 0.480162 0.487040
v -0.214689 0.488572 0.478630
v -0.179176 0.480162 0.487040
v -0.214392 0.595091 0.372267
v -0.178878 0.594566 0.372793
v -0.211277 0.595549 0.348693
v -0.175764 0.595549 0.348693
v -0.140250 0.595549 0.348693
v -0.104736 0.595549 0.348693
v -0.143364 0.595091 0.372267
v -0.107851 0.594566 0.372793
v -0.143662 0.488572 0.478630
v -0.108148 0.480162 0.487040
v -0.072635 0.488572 0.478630
v -0.037121 0.480162 0.487040
v -0.072338 0.595091 0.372267
v -0.036824 0.594566 0.372793
v -0.069224 0.595549 0.348693
v -0.033709 0.595549 0.348693
v 0.001805 0.595549 0.348693
v 0.037318 0.595549 0.348693
v -0.001311 0.595091 0.372267
v 0.034203 0.594566 0.372793
v -0.001607 0.488572 0.478630
v 0.033906 0.480162 0.487040
v 0.069419 0.488572 0.478630
v 0.104933 0.480162 0.487040
v 0.069717 0.595091 0.372267
v 0.105230 0.594566 0.372793
v 0.072832 0.595549 0.348693
v 0.108345 0.595549 0.348693
v 0.143858 0.595549 0.348693
v 0.179372 0.595549 0.348693
v 0.140744 0.595091 0.372267
v 0.176257 0.594566 0.372793
v 0.140446 0.488572 0.478630
v 0.175960 0.480162 0.487040
v 0.211474 0.488572 0.478630
v 0.211771 0.595091 0.372267
v 0.214885 0.595549 0.348693
v 0.694006 0.648000 -0.588130
v 0.694006 0.599347 -0.608551
v 0.694006 0.685036 -0.617458
v 0.694006 0.668152 -0.538830
v 0.684485 0.648000 -0.588130
v 0.684485 0.668152 -0.538830
v 0.684485 0.599347 -0.608551
v 0.684485 0.599347 -0.538830
v 0.684485 0.550695 -0.588130
v 0.694006 0.550695 -0.588130
v 0.684485 0.530543 -0.538830
v 0.694006 0.530543 -0.538830
v 0.684485 0.550695 -0.489531
v 0.694006 0.550695 -0.489531
v 0.684485 0.599347 -0.469110
v 0.694006 0.599347 -0.469110
v 0.684485 0.648000 -0.489531
v 0.694006 0.648000 -0.489531
v 0.694006 0.685036 -0.460203
v 0.694006 0.671031 -0.381575
v 0.694006 0.650035 -0.432221
v 0.558738 0.685036 -0.460203
v 0.694006 0.685036 -0.302948
v 0.694006 0.599347 -0.460203
v 0.694006 0.599347 -0.453199
v 0.694006 0.513658 -0.460203
v 0.694006 0.548659 -0.432221
v 0.558738 0.513658 -0.460203
v 0.694006 0.527664 -0.381575
v 0.694006 0.513658 -0.302948
v 0.694006 0.513658 -0.617458
v 0.558738 0.513658 -0.617458
v 0.558738 0.685036 -0.617458
v 0.558738 0.513658 -0.302948
v 0.694006 0.548659 -0.330929
v 0.694006 0.599347 -0.309951
v 0.684485 0.548659 -0.330929
v 0.684485 0.599347 -0.309951
v 0.684485 0.527664 -0.381575
v 0.684485 0.599347 -0.381575
v 0.684485 0.548659 -0.432221
v 0.684485 0.599347 -0.453199
v 0.684485 0.650035 -0.432221
v 0.684485 0.671031 -0.381575
v 0.684485 0.650035 -0.330929
v 0.694006 0.650035 -0.330929
v 0.558738 0.685036 -0.302948
vn -0.0000 -0.0000 1.0000
vn -1.0000 -0.0000 -0.0000
vn -0.0000 1.0000 -0.0000
vn -0.0000 -1.0000 -0.0000
vn 1.0000 -0.0001 -0.0000
vn -1.0000 -0.0001 -0.0000
vn 1.0000 -0.0000 -0.0000
vn 0.0448 -0.9990 -0.0000
vn -0.0000 -0.9990 0.0451
vn -0.0448 -0.9990 -0.0000
vn -0.0000 -0.9990 -0.0451
vn -0.0000 -0.0000 -1.0000
vn -0.0000 0.9990 -0.0452
vn -0.0448 0.9990 -0.0000
vn 0.0362 0.9993 -0.0000
vn -0.0000 0.1701 0.9854
vn -0.0000 0.1701 -0.9854
vn 0.9852 0.1713 -0.0000
vn -0.0000 0.9990 0.0452
vn -0.7071 0.7071 -0.0000
vn 0.7071 -0.7071 -0.0000
vn -0.7071 -0.7071 -0.0000
vn 0.7071 0.7071 -0.0000
vn -0.0000 0.7071 -0.7071
vn -0.0000 -0.7071 0.7071
vn -0.0000 -0.7071 -0.7071
vn -0.0000 0.7071 0.7071
vn 0.8968 0.2403 0.3715
vn 0.8665 0.1654 -0.4710
vn 0.9460 -0.2535 -0.2020
vn 0.8968 -0.2403 0.3715
vn 0.3265 -0.0919 0.9407
vn 0.4367 0.1170 0.8919
vn 0.6565 -0.6565 0.3715
vn 0.3180 -0.3180 0.8932
vn 0.0823 -0.3310 0.9400
vn -0.4932 0.1558 0.8558
vn -0.2033 0.2555 0.9452
vn -0.1349 0.4958 0.8579
vn 0.3400 0.3030 0.8903
vn 0.6543 0.7405 0.1533
vn -0.5858 0.8035 0.1057
vn 0.1166 0.8230 0.5559
vn 0.8392 0.1480 0.5234
vn 0.9065 0.2922 -0.3047
vn 0.0857 0.8577 -0.5069
vn 0.4121 0.1442 -0.8996
vn -0.0722 0.4689 -0.8803
vn -0.2082 0.9591 -0.1916
vn -0.8853 0.2583 -0.3867
vn -0.4195 0.1050 -0.9017
vn -0.6207 -0.7315 -0.2823
vn -0.2913 -0.3726 -0.8811
vn 0.2773 -0.0792 -0.9575
vn 0.5105 0.0717 -0.8569
vn 0.1931 0.2373 -0.9520
vn 0.2825 -0.3380 -0.8978
vn 0.1115 0.4161 -0.9025
vn -0.1174 0.4383 -0.8911
vn -0.2071 0.2388 -0.9487
vn -0.4343 0.1164 -0.8932
vn -0.3023 -0.0917 -0.9488
vn -0.8968 -0.2403 -0.3715
vn -0.8968 0.2403 -0.3715
vn -0.8388 0.2861 0.4632
vn -0.8968 -0.2403 0.3715
vn -0.6565 -0.6565 0.3715
vn -0.5834 -0.6672 -0.4632
vn -0.2403 -0.8968 0.3715
vn -0.2512 -0.9375 -0.2407
vn 0.1774 -0.8722 -0.4558
vn 0.2403 -0.8968 0.3715
vn 0.6644 -0.6107 -0.4309
vn 0.0468 -0.3069 -0.9506
vn 0.3634 -0.3147 -0.8769
vn -0.1138 -0.4248 0.8981
vn -0.3530 -0.4327 -0.8295
vn -0.2266 -0.2028 0.9526
vn -0.4486 -0.1202 0.8856
vn -0.4456 0.1661 0.8797
vn 0.3148 -0.0971 0.9442
vn -0.1697 0.1612 0.9722
vn 0.5141 -0.5214 0.6810
vn 0.0471 -0.3112 0.9492
vn 0.2014 -0.9269 0.3168
vn 0.9347 -0.2884 0.2079
vn -0.4111 -0.5099 0.7556
vn -0.3015 -0.0864 0.9495
vn -0.6114 -0.6114 0.5024
vn -0.9365 -0.3140 0.1564
vn 0.3126 -0.8219 -0.4763
vn -0.2327 0.8148 0.5309
vn -0.1629 0.5667 0.8076
vn -0.6863 0.6863 0.2407
vn -0.2403 0.8968 -0.3715
vn -0.6565 0.6565 -0.3715
vn 0.2403 0.8968 -0.3715
vn 0.2535 0.9460 0.2020
vn 0.6565 0.6565 -0.3715
vn 0.5765 0.6677 0.4710
vn 0.2190 0.2642 0.9393
vn 0.5971 -0.7831 -0.1738
vn -0.8129 0.2844 0.5083
vn -0.0000 0.5000 -0.8660
vn -0.0000 -0.5000 -0.8660
vn -0.0000 0.5000 0.8660
vn -0.0000 -0.5000 0.8660
vn -0.0000 0.7066 0.7076
vn -0.0001 0.7066 0.7076
vn 0.0072 0.9995 0.0311
vn -0.0072 0.9995 0.0293
vn 0.0001 0.7066 0.7076
vn -0.0000 -0.3870 0.9221
vn -0.0000 -0.9257 0.3784
vn -0.0000 0.3870 0.9221
vn -0.0000 0.9257 0.3784
vn -0.0000 0.9257 -0.3784
vn -0.0000 0.3870 -0.9221
vn -0.0000 -0.3870 -0.9221
vn -0.0000 -0.9257 -0.3784
vn -0.0000 0.3824 -0.9240
vn -0.0000 0.9238 -0.3829
vn -0.0000 0.9238 0.3829
vn -0.0000 0.3824 0.9240
vn -0.0000 -0.3824 0.9240
vn -0.0000 -0.9238 0.3830
vn -0.0000 -0.9238 -0.3830
vn -0.0000 -0.3824 -0.9240
vt 0.598468 0.735308
vt 0.553203 0.733740
vt 0.549495 0.723210
vt 0.598531 0.726291
vt 0.552853 0.747331
vt 0.547994 0.765436
vt 0.497597 0.834559
vt 0.501184 0.767974
vt 0.543780 0.769143
vt 0.539974 0.837802
vt 0.598475 0.724864
vt 0.599197 0.726233
vt 0.613445 0.724697
vt 0.613585 0.726111
vt 0.629466 0.724430
vt 0.614307 0.749694
vt 0.613141 0.726600
vt 0.599782 0.726534
vt 0.613769 0.749253
vt 0.598873 0.749056
vt 0.599492 0.748730
vt 0.632010 0.768884
vt 0.598046 0.748896
vt 0.553002 0.746999
vt 0.597938 0.748545
vt 0.598277 0.735620
vt 0.553430 0.734024
vt 0.635645 0.773232
vt 0.630996 0.843648
vt 0.628981 0.845742
vt 0.633926 0.770894
vt 0.673553 0.844968
vt 0.677993 0.777470
vt 0.545773 0.767128
vt 0.626250 0.842129
vt 0.630459 0.773867
vt 0.548592 0.770620
vt 0.545184 0.837141
vt 0.541718 0.840011
vt 0.626749 0.847494
vt 0.543614 0.841958
vt 0.547119 0.835506
vt 0.624137 0.840187
vt 0.550244 0.772412
vt 0.628003 0.775594
vt 0.550737 0.832170
vt 0.621060 0.836237
vt 0.624769 0.779265
vt 0.553782 0.776064
vt 0.540604 0.884032
vt 0.622058 0.890158
vt 0.711923 0.061152
vt 0.709436 0.057278
vt 0.724023 0.047918
vt 0.726509 0.051793
vt 0.696009 0.044876
vt 0.699883 0.042390
vt 0.705562 0.059764
vt 0.711984 0.029155
vt 0.714470 0.033030
vt 0.697397 0.038515
vt 0.727898 0.045432
vt 0.718345 0.030544
vt 0.669032 0.185392
vt 0.668512 0.227127
vt 0.666173 0.227098
vt 0.666693 0.185363
vt 0.671371 0.185421
vt 0.670851 0.227156
vt 0.673710 0.185450
vt 0.673189 0.227185
vt 0.663834 0.227068
vt 0.664354 0.185334
vt 0.009449 0.196271
vt 0.008928 0.238005
vt 0.006590 0.237976
vt 0.007110 0.196241
vt 0.011788 0.196300
vt 0.011267 0.238035
vt 0.014127 0.196329
vt 0.013606 0.238064
vt 0.004251 0.237947
vt 0.004771 0.196212
vt 0.856719 0.208761
vt 0.856198 0.250496
vt 0.853859 0.250467
vt 0.854380 0.208732
vt 0.859057 0.208791
vt 0.858537 0.250525
vt 0.861396 0.208820
vt 0.860876 0.250555
vt 0.851520 0.250438
vt 0.852041 0.208703
vt 0.507638 0.247429
vt 0.508158 0.205694
vt 0.510497 0.205723
vt 0.509977 0.247458
vt 0.505299 0.247399
vt 0.505819 0.205664
vt 0.502960 0.247370
vt 0.503481 0.205635
vt 0.512836 0.205752
vt 0.512315 0.247487
vt 0.324555 0.149892
vt 0.324465 0.176752
vt 0.322550 0.176753
vt 0.322641 0.149893
vt 0.326470 0.149891
vt 0.326379 0.176751
vt 0.328384 0.149890
vt 0.328293 0.176750
vt 0.320636 0.176754
vt 0.320727 0.149894
vt 0.275758 0.078222
vt 0.271792 0.061466
vt 0.274182 0.061090
vt 0.278148 0.077845
vt 0.273367 0.078598
vt 0.269402 0.061843
vt 0.270977 0.078974
vt 0.267011 0.062219
vt 0.276572 0.060713
vt 0.280538 0.077469
vt 0.846020 0.004473
vt 0.845323 0.021753
vt 0.843059 0.021661
vt 0.843756 0.004381
vt 0.848284 0.004564
vt 0.847587 0.021844
vt 0.850548 0.004655
vt 0.849851 0.021935
vt 0.840795 0.021570
vt 0.841493 0.004290
vt 0.968703 0.034883
vt 0.969747 0.057333
vt 0.967462 0.057439
vt 0.966417 0.034989
vt 0.970988 0.034777
vt 0.972033 0.057226
vt 0.973273 0.034670
vt 0.974318 0.057120
vt 0.965176 0.057545
vt 0.964132 0.035096
vt 0.404967 0.158433
vt 0.405215 0.179770
vt 0.403269 0.179795
vt 0.403020 0.158458
vt 0.406913 0.158408
vt 0.407162 0.179744
vt 0.408860 0.158383
vt 0.409109 0.179719
vt 0.401322 0.179820
vt 0.401073 0.158484
vt 0.862107 0.183383
vt 0.861410 0.200663
vt 0.859147 0.200571
vt 0.859844 0.183291
vt 0.864371 0.183474
vt 0.863674 0.200754
vt 0.866635 0.183565
vt 0.865938 0.200845
vt 0.856883 0.200480
vt 0.857580 0.183200
vt 0.511673 0.156626
vt 0.512062 0.125937
vt 0.513737 0.125959
vt 0.513348 0.156648
vt 0.509998 0.156605
vt 0.510387 0.125916
vt 0.508322 0.156583
vt 0.508712 0.125894
vt 0.515413 0.125981
vt 0.515023 0.156669
vt 0.849596 0.184473
vt 0.850034 0.160321
vt 0.851753 0.160360
vt 0.851316 0.184512
vt 0.847877 0.184433
vt 0.848314 0.160281
vt 0.846158 0.184394
vt 0.846595 0.160242
vt 0.853472 0.160400
vt 0.853035 0.184552
vt 0.988497 0.218222
vt 0.988814 0.191341
vt 0.990271 0.191357
vt 0.989954 0.218238
vt 0.987039 0.218206
vt 0.987356 0.191325
vt 0.985582 0.218190
vt 0.985899 0.191309
vt 0.991729 0.191373
vt 0.991412 0.218254
vt 0.912497 0.053386
vt 0.909685 0.031090
vt 0.911954 0.030803
vt 0.914767 0.053099
vt 0.910227 0.053672
vt 0.907414 0.031376
vt 0.907957 0.053958
vt 0.905145 0.031662
vt 0.914225 0.030517
vt 0.917037 0.052813
vt 0.480261 0.185899
vt 0.480347 0.206098
vt 0.478291 0.206107
vt 0.478204 0.185908
vt 0.482317 0.185890
vt 0.482404 0.206090
vt 0.484374 0.185881
vt 0.484461 0.206081
vt 0.476234 0.206116
vt 0.476148 0.185917
vt 0.299049 0.107556
vt 0.298351 0.124836
vt 0.296088 0.124745
vt 0.296785 0.107464
vt 0.301313 0.107647
vt 0.300615 0.124927
vt 0.303576 0.107739
vt 0.302879 0.125019
vt 0.293824 0.124653
vt 0.294521 0.107373
vt 0.981821 0.303697
vt 0.988159 0.299585
vt 0.992557 0.309655
vt 0.985456 0.312010
vt 0.955639 0.284409
vt 0.964337 0.289597
vt 0.949552 0.296128
vt 0.945509 0.289720
vt 0.967811 0.281036
vt 0.975090 0.296605
vt 0.980203 0.290681
vt 0.977343 0.310687
vt 0.968675 0.300348
vt 0.947206 0.372238
vt 0.946435 0.379593
vt 0.937246 0.372398
vt 0.938930 0.369345
vt 0.944092 0.364588
vt 0.956544 0.361127
vt 0.955780 0.369977
vt 0.969301 0.308937
vt 0.941019 0.358762
vt 0.951768 0.355727
vt 0.959782 0.345852
vt 0.967507 0.348033
vt 0.949186 0.345195
vt 0.945044 0.353514
vt 0.955141 0.333979
vt 0.944531 0.332488
vt 0.938770 0.347273
vt 0.931032 0.346156
vt 0.937450 0.330003
vt 0.934703 0.366073
vt 0.940511 0.359345
vt 0.966480 0.304195
vt 0.968331 0.307220
vt 0.963375 0.314228
vt 0.958681 0.308232
vt 0.969377 0.298146
vt 0.956046 0.300660
vt 0.960289 0.322387
vt 0.951410 0.319264
vt 0.944250 0.314738
vt 0.942748 0.302186
vt 0.938633 0.309769
vt 0.933770 0.316212
vt 0.930434 0.324002
vt 0.927495 0.331171
vt 0.924821 0.339424
vt 0.917214 0.338663
vt 0.919966 0.329290
vt 0.923352 0.320914
vt 0.973146 0.352611
vt 0.981513 0.342554
vt 0.985782 0.350708
vt 0.979211 0.357740
vt 0.974391 0.366003
vt 0.969464 0.360170
vt 0.966728 0.373066
vt 0.963196 0.366302
vt 0.915870 0.348653
vt 0.924098 0.352426
vt 0.957569 0.377506
vt 0.916881 0.359405
vt 0.926676 0.366195
vt 0.921218 0.370625
vt 0.937414 0.371817
vt 0.931812 0.373894
vt 0.966570 0.335808
vt 0.977120 0.328901
vt 0.970554 0.321176
vt 0.984875 0.326358
vt 0.992360 0.330805
vt 0.990728 0.341195
vt 0.932428 0.305069
vt 0.927223 0.312385
vt 0.937451 0.296774
vt 0.993394 0.320448
vt 0.176708 0.004290
vt 0.177147 0.005027
vt 0.176729 0.005776
vt 0.175850 0.004302
vt 0.109643 0.031280
vt 0.068600 0.008305
vt 0.069053 0.007498
vt 0.110096 0.030473
vt 0.766559 0.026254
vt 0.728183 0.005230
vt 0.728715 0.004284
vt 0.766735 0.025310
vt 0.213933 0.004290
vt 0.214540 0.005597
vt 0.213697 0.005757
vt 0.213387 0.004659
vt 0.110548 0.029665
vt 0.069505 0.006690
vt 0.069958 0.005883
vt 0.111001 0.028858
vt 0.070411 0.005075
vt 0.111453 0.028050
vt 0.070863 0.004268
vt 0.111906 0.027243
vt 0.050725 0.004535
vt 0.047275 0.005410
vt 0.047150 0.005148
vt 0.050794 0.004271
vt 0.268728 0.005027
vt 0.267011 0.005051
vt 0.267430 0.004302
vt 0.268288 0.004290
vt 0.006653 0.103521
vt 0.006335 0.113003
vt 0.004251 0.112970
vt 0.004547 0.104145
vt 0.006468 0.114426
vt 0.004388 0.114357
vt 0.008416 0.113115
vt 0.008551 0.114502
vt 0.008710 0.104292
vt 0.010816 0.103668
vt 0.010501 0.113150
vt 0.010633 0.114572
vt 0.012581 0.113262
vt 0.012716 0.114649
vt 0.014665 0.113296
vt 0.014798 0.114718
vt 0.012874 0.104438
vt 0.014980 0.103814
vt 0.017037 0.104584
vt 0.016746 0.113408
vt 0.019143 0.103960
vt 0.018830 0.113442
vt 0.018963 0.114864
vt 0.016881 0.114795
vt 0.020911 0.113553
vt 0.021046 0.114940
vt 0.021201 0.104730
vt 0.023307 0.104105
vt 0.022995 0.113587
vt 0.023128 0.115009
vt 0.025076 0.113698
vt 0.025211 0.115085
vt 0.027160 0.113731
vt 0.027293 0.115153
vt 0.027470 0.104249
vt 0.025364 0.104874
vt 0.029528 0.105018
vt 0.029241 0.113842
vt 0.031634 0.104393
vt 0.031325 0.113875
vt 0.029376 0.115229
vt 0.031459 0.115297
vt 0.033406 0.113985
vt 0.033542 0.115373
vt 0.035490 0.114018
vt 0.035624 0.115440
vt 0.033692 0.105162
vt 0.035797 0.104536
vt 0.037855 0.105304
vt 0.037571 0.114128
vt 0.039961 0.104678
vt 0.039655 0.114161
vt 0.037707 0.115515
vt 0.039789 0.115583
vt 0.041736 0.114270
vt 0.041872 0.115657
vt 0.043820 0.114302
vt 0.043954 0.115724
vt 0.044124 0.104820
vt 0.042019 0.105446
vt 0.046182 0.105588
vt 0.045901 0.114412
vt 0.048288 0.104961
vt 0.047985 0.114443
vt 0.046037 0.115799
vt 0.048119 0.115865
vt 0.050066 0.114553
vt 0.050202 0.115939
vt 0.052150 0.114585
vt 0.052283 0.116006
vt 0.050346 0.105729
vt 0.052452 0.105102
vt 0.054510 0.105869
vt 0.054232 0.114695
vt 0.054364 0.116083
vt 0.492109 0.014113
vt 0.491865 0.014568
vt 0.488985 0.014371
vt 0.488838 0.013893
vt 0.493648 0.011837
vt 0.496637 0.020865
vt 0.494226 0.016641
vt 0.493737 0.016791
vt 0.490134 0.017951
vt 0.486758 0.016207
vt 0.486300 0.015968
vt 0.486530 0.019105
vt 0.486040 0.019255
vt 0.488375 0.021338
vt 0.488122 0.021794
vt 0.491286 0.021538
vt 0.491433 0.022017
vt 0.493536 0.019681
vt 0.494002 0.019916
vt 0.491580 0.022479
vt 0.495132 0.023055
vt 0.497285 0.025660
vt 0.499448 0.029965
vt 0.497007 0.029042
vt 0.491696 0.022841
vt 0.504195 0.018441
vt 0.507027 0.027418
vt 0.501279 0.009494
vt 0.486523 0.024094
vt 0.489019 0.025008
vt 0.483727 0.015004
vt 0.488774 0.028378
vt 0.478963 0.026498
vt 0.476148 0.017523
vt 0.489506 0.033140
vt 0.481849 0.035451
vt 0.490961 0.030973
vt 0.481392 0.007391
vt 0.491140 0.004279
vt 0.501777 0.037581
vt 0.492019 0.040696
vt 0.494359 0.031182
vt 0.491204 0.030515
vt 0.494212 0.030703
vt 0.489265 0.028228
vt 0.493029 0.027017
vt 0.489485 0.025246
vt 0.491843 0.023321
vt 0.494881 0.023515
vt 0.496795 0.025811
vt 0.496549 0.028800
s 1
f 19/1/1 2/2/1 1/3/1 4/4/1
f 2/2/1 18/5/1 3/6/1 1/3/1
f 5/7/2 1/8/2 3/9/2 32/10/2
f 4/4/1 1/3/1 6/11/1
f 4/4/1 6/11/1 7/12/1
f 7/12/1 6/11/1 8/13/1 10/14/1
f 9/15/1 10/14/1 8/13/1
f 9/15/1 12/16/1 10/14/1
f 7/12/3 10/14/3 11/17/3 24/18/3
f 10/14/2 12/16/2 13/19/2 11/17/2
f 12/16/4 15/20/4 16/21/4 13/19/4
f 9/15/1 14/22/1 12/16/1
f 14/22/1 15/20/1 12/16/1
f 7/12/5 24/18/5 16/21/5 15/20/5
f 14/22/1 17/23/1 15/20/1
f 17/23/1 19/1/1 7/12/1 15/20/1
f 17/23/4 18/5/4 22/24/4 20/25/4
f 17/23/1 14/22/1 3/6/1 18/5/1
f 19/1/6 17/23/6 20/25/6 21/26/6
f 20/25/1 22/24/1 23/27/1 21/26/1
f 18/5/7 2/2/7 23/27/7 22/24/7
f 2/2/3 19/1/3 21/26/3 23/27/3
f 19/1/1 4/4/1 7/12/1
f 16/21/1 24/18/1 11/17/1 13/19/1
f 14/28/8 25/29/8 28/30/8 26/31/8
f 43/32/7 25/29/7 14/28/7 9/33/7
f 14/22/9 26/31/9 29/34/9 3/6/9
f 28/30/7 35/35/7 27/36/7 26/31/7
f 30/37/1 29/34/1 26/31/1 27/36/1
f 29/34/2 30/37/2 33/38/2 31/39/2
f 32/10/10 3/9/10 29/34/10 31/39/10
f 25/40/11 32/41/11 31/39/11 28/30/11
f 31/39/12 33/38/12 35/35/12 28/30/12
f 34/42/13 36/43/13 35/35/13 33/38/13
f 42/44/14 34/42/14 33/38/14 30/37/14
f 36/43/15 37/45/15 27/36/15 35/35/15
f 36/43/16 34/42/16 39/46/16 38/47/16
f 37/45/2 36/43/2 38/47/2 40/48/2
f 41/49/3 40/48/3 38/47/3 39/46/3
f 42/44/17 37/45/17 40/48/17 41/49/17
f 34/42/18 42/44/18 41/49/18 39/46/18
f 37/45/19 42/44/19 30/37/19 27/36/19
f 5/50/12 32/41/12 25/40/12 43/51/12
f 44/52/2 46/53/2 51/54/2 45/55/2
f 47/56/1 49/57/1 46/53/1 44/58/1
f 48/59/7 50/60/7 49/57/7 47/61/7
f 50/60/3 51/54/3 46/53/3 49/57/3
f 45/62/12 51/54/12 50/60/12 48/63/12
f 52/64/2 54/65/2 59/66/2 53/67/2
f 55/68/1 57/69/1 54/65/1 52/64/1
f 56/70/7 58/71/7 57/69/7 55/68/7
f 53/67/12 59/66/12 58/72/12 56/73/12
f 60/74/2 62/75/2 67/76/2 61/77/2
f 63/78/1 65/79/1 62/75/1 60/74/1
f 64/80/7 66/81/7 65/79/7 63/78/7
f 61/77/12 67/76/12 66/82/12 64/83/12
f 68/84/2 70/85/2 75/86/2 69/87/2
f 71/88/1 73/89/1 70/85/1 68/84/1
f 72/90/7 74/91/7 73/89/7 71/88/7
f 69/87/12 75/86/12 74/92/12 72/93/12
f 76/94/2 78/95/2 83/96/2 77/97/2
f 79/98/1 81/99/1 78/95/1 76/94/1
f 80/100/7 82/101/7 81/99/7 79/98/7
f 77/97/12 83/96/12 82/102/12 80/103/12
f 84/104/20 86/105/20 91/106/20 85/107/20
f 87/108/1 89/109/1 86/105/1 84/104/1
f 88/110/21 90/111/21 89/109/21 87/108/21
f 85/107/12 91/106/12 90/112/12 88/113/12
f 92/114/22 94/115/22 99/116/22 93/117/22
f 95/118/1 97/119/1 94/115/1 92/114/1
f 96/120/23 98/121/23 97/119/23 95/118/23
f 93/117/12 99/116/12 98/122/12 96/123/12
f 100/124/3 102/125/3 107/126/3 101/127/3
f 103/128/1 105/129/1 102/125/1 100/124/1
f 104/130/4 106/131/4 105/129/4 103/128/4
f 101/127/12 107/126/12 106/132/12 104/133/12
f 108/134/24 110/135/24 115/136/24 109/137/24
f 111/138/2 113/139/2 110/135/2 108/134/2
f 112/140/25 114/141/25 113/139/25 111/138/25
f 109/137/7 115/136/7 114/142/7 112/143/7
f 116/144/26 118/145/26 123/146/26 117/147/26
f 119/148/2 121/149/2 118/145/2 116/144/2
f 120/150/27 122/151/27 121/149/27 119/148/27
f 117/147/7 123/146/7 122/152/7 120/153/7
f 124/154/3 126/155/3 131/156/3 125/157/3
f 127/158/2 129/159/2 126/155/2 124/154/2
f 128/160/4 130/161/4 129/159/4 127/158/4
f 125/157/7 131/156/7 130/162/7 128/163/7
f 132/164/23 134/165/23 139/166/23 133/167/23
f 135/168/12 137/169/12 134/165/12 132/164/12
f 136/170/22 138/171/22 137/169/22 135/168/22
f 133/167/1 139/166/1 138/172/1 136/173/1
f 140/174/21 142/175/21 147/176/21 141/177/21
f 143/178/12 145/179/12 142/175/12 140/174/12
f 144/180/20 146/181/20 145/179/20 143/178/20
f 141/177/1 147/176/1 146/182/1 144/183/1
f 148/184/3 150/185/3 155/186/3 149/187/3
f 151/188/12 153/189/12 150/185/12 148/184/12
f 152/190/4 154/191/4 153/189/4 151/188/4
f 149/187/1 155/186/1 154/192/1 152/193/1
f 156/194/27 158/195/27 163/196/27 157/197/27
f 159/198/7 161/199/7 158/195/7 156/194/7
f 160/200/26 162/201/26 161/199/26 159/198/26
f 157/197/2 163/196/2 162/202/2 160/203/2
f 164/204/25 166/205/25 171/206/25 165/207/25
f 167/208/7 169/209/7 166/205/7 164/204/7
f 168/210/24 170/211/24 169/209/24 167/208/24
f 165/207/2 171/206/2 170/212/2 168/213/2
f 172/214/3 174/215/3 179/216/3 173/217/3
f 175/218/7 177/219/7 174/215/7 172/214/7
f 176/220/4 178/221/4 177/219/4 175/218/4
f 173/217/2 179/216/2 178/222/2 176/223/2
f 184/224/28 180/225/28 181/226/28 186/227/28
f 180/228/29 182/229/29 206/230/29 181/231/29
f 182/229/30 180/228/30 183/232/30
f 187/233/31 183/234/31 180/225/31 184/224/31
f 185/235/32 189/236/32 187/233/32 184/224/32
f 184/224/33 186/227/33 185/235/33
f 188/237/34 225/238/34 183/239/34 187/240/34
f 187/240/35 189/241/35 188/237/35
f 189/241/36 191/242/36 224/243/36 188/237/36
f 185/235/37 190/244/37 189/236/37
f 189/241/38 190/245/38 192/246/38
f 191/242/39 189/241/39 192/246/39
f 193/247/40 227/248/40 191/242/40 192/246/40
f 192/246/41 195/249/41 193/247/41
f 190/245/42 194/250/42 192/246/42
f 192/246/43 194/250/43 195/249/43
f 193/247/44 195/249/44 196/251/44
f 198/252/45 196/251/45 195/249/45 197/253/45
f 195/249/46 194/250/46 197/253/46
f 199/254/47 211/255/47 198/252/47 197/253/47
f 201/256/48 199/254/48 197/253/48 200/257/48
f 194/250/49 200/257/49 197/253/49
f 200/258/50 194/259/50 203/260/50 202/261/50
f 201/262/51 200/258/51 202/261/51 205/263/51
f 202/261/52 203/260/52 232/264/52 204/265/52
f 205/263/53 202/261/53 204/265/53 207/266/53
f 205/263/54 182/229/54 201/262/54
f 205/263/55 206/230/55 182/229/55
f 208/267/56 206/230/56 205/263/56 207/266/56
f 207/266/57 204/265/57 198/252/57 211/255/57
f 207/266/58 209/268/58 208/267/58
f 207/266/59 210/269/59 209/268/59
f 210/269/60 207/266/60 211/255/60 212/270/60
f 211/255/61 213/271/61 212/270/61
f 213/271/62 211/255/62 199/254/62 214/272/62
f 218/273/63 215/274/63 213/271/63 214/272/63
f 216/275/64 212/270/64 213/271/64 215/274/64
f 217/276/65 229/277/65 216/278/65 215/279/65
f 217/276/66 215/279/66 218/280/66 219/281/66
f 219/281/67 218/280/67 220/282/67 221/283/67
f 220/284/68 218/273/68 214/272/68 222/285/68
f 221/283/69 220/282/69 223/286/69 224/243/69
f 222/285/70 223/287/70 220/284/70
f 223/287/71 222/285/71 226/288/71 225/289/71
f 224/243/72 223/286/72 225/238/72 188/237/72
f 225/289/73 226/288/73 182/290/73 183/291/73
f 222/285/74 199/254/74 201/256/74 226/288/74
f 201/256/75 182/290/75 226/288/75
f 224/243/76 191/242/76 221/283/76
f 199/254/77 222/285/77 214/272/77
f 227/248/78 219/281/78 221/283/78 191/242/78
f 217/276/79 219/281/79 227/248/79
f 217/276/80 227/248/80 229/277/80
f 227/248/81 193/247/81 230/292/81
f 229/277/82 227/248/82 228/293/82
f 227/248/83 230/292/83 228/293/83
f 228/293/84 230/292/84 231/294/84
f 232/264/85 231/294/85 230/292/85 196/251/85
f 193/247/86 196/251/86 230/292/86
f 185/235/87 228/293/87 231/294/87
f 185/235/88 231/294/88 190/244/88
f 231/294/89 232/264/89 203/260/89
f 231/294/90 203/260/90 190/244/90
f 196/251/91 204/265/91 232/264/91
f 233/295/92 235/296/92 234/297/92 229/277/92
f 229/277/93 228/293/93 233/295/93
f 216/278/94 229/277/94 234/297/94
f 235/298/95 209/268/95 210/269/95 234/299/95
f 216/275/96 234/299/96 210/269/96 212/270/96
f 236/300/97 208/267/97 209/268/97 235/298/97
f 235/296/98 233/295/98 236/301/98
f 181/231/99 206/230/99 208/267/99 236/300/99
f 186/227/100 181/226/100 236/301/100 233/295/100
f 228/293/101 185/235/101 186/227/101 233/295/101
f 196/251/102 198/252/102 204/265/102
f 190/244/103 203/260/103 194/259/103
f 238/302/7 242/303/7 241/304/7 237/305/7
f 237/306/104 239/307/104 248/308/104 238/309/104
f 240/310/105 246/311/105 239/312/105 237/313/105
f 237/314/7 241/315/7 244/316/7 240/317/7
f 242/318/106 247/319/106 243/320/106 241/321/106
f 241/321/107 243/320/107 245/322/107 244/323/107
f 244/323/4 245/322/4 246/324/4 240/325/4
f 246/326/2 245/327/2 243/328/2 239/329/2
f 239/330/2 243/331/2 247/332/2 248/333/2
f 238/309/3 248/308/3 247/319/3 242/318/3
f 250/334/108 253/335/108 251/336/109 249/337/109
f 251/336/110 253/335/110 254/338/110 252/339/110
f 253/335/111 255/340/111 258/341/111 254/338/111
f 257/342/108 255/340/108 253/335/108 250/334/108
f 265/343/108 256/344/108 255/340/108 257/342/108
f 255/340/110 256/344/110 259/345/110 258/341/110
f 256/344/111 262/346/111 260/347/111 259/345/111
f 262/346/110 263/348/110 261/349/110 260/347/110
f 264/350/108 262/346/108 256/344/108 265/343/108
f 266/351/108 263/348/108 262/346/108 264/350/108
f 267/352/108 269/353/108 263/348/108 266/351/108
f 268/354/108 271/355/108 269/353/108 267/352/108
f 269/353/110 271/355/110 272/356/110 270/357/110
f 263/348/111 269/353/111 270/357/111 261/349/111
f 271/355/111 273/358/111 276/359/111 272/356/111
f 275/360/108 273/358/108 271/355/108 268/354/108
f 284/361/108 274/362/108 273/358/108 275/360/108
f 273/358/110 274/362/110 277/363/110 276/359/110
f 274/362/111 280/364/111 278/365/111 277/363/111
f 280/364/110 281/366/110 279/367/110 278/365/110
f 283/368/108 281/366/108 280/364/108 282/369/108
f 282/369/108 280/364/108 274/362/108 284/361/108
f 285/370/108 287/371/108 281/366/108 283/368/108
f 286/372/108 288/373/108 287/371/108 285/370/108
f 281/366/111 287/371/111 289/374/111 279/367/111
f 287/371/110 288/373/110 290/375/110 289/374/110
f 288/373/111 293/376/111 291/377/111 290/375/111
f 293/376/110 294/378/110 292/379/110 291/377/110
f 295/380/108 293/376/108 288/373/108 286/372/108
f 296/381/108 294/378/108 293/376/108 295/380/108
f 297/382/108 299/383/108 294/378/108 296/381/108
f 298/384/108 300/385/108 299/383/108 297/382/108
f 294/378/111 299/383/111 301/386/111 292/379/111
f 299/383/110 300/385/110 302/387/110 301/386/110
f 300/385/111 305/388/111 303/389/111 302/387/111
f 305/388/110 306/390/110 304/391/110 303/389/110
f 308/392/108 306/390/108 305/388/108 307/393/108
f 307/393/108 305/388/108 300/385/108 298/384/108
f 309/394/108 311/395/108 306/390/108 308/392/108
f 310/396/108 312/397/108 311/395/108 309/394/108
f 306/390/111 311/395/111 313/398/111 304/391/111
f 311/395/110 312/397/110 314/399/110 313/398/110
f 312/397/111 317/400/111 315/401/111 314/399/111
f 317/400/110 318/402/110 316/403/110 315/401/110
f 319/404/108 317/400/108 312/397/108 310/396/108
f 320/405/108 318/402/108 317/400/108 319/404/108
f 321/406/112 322/407/112 318/402/108 320/405/108
f 318/402/111 322/407/111 323/408/111 316/403/111
f 324/409/113 328/410/113 330/411/113 325/412/113
f 325/412/7 326/413/7 324/409/7
f 324/409/7 326/413/7 342/414/7 327/415/7
f 327/415/114 329/416/114 328/410/114 324/409/114
f 330/411/7 328/410/7 329/416/7 331/417/7
f 325/412/115 330/411/115 332/418/115 333/419/115
f 332/418/7 330/411/7 331/417/7 334/420/7
f 333/419/116 332/418/116 334/420/116 335/421/116
f 335/421/117 334/420/117 336/422/117 337/423/117
f 334/420/7 331/417/7 338/424/7 336/422/7
f 337/423/118 336/422/118 338/424/118 339/425/118
f 339/425/119 338/424/119 340/426/119 341/427/119
f 331/417/7 329/416/7 340/426/7 338/424/7
f 341/427/120 340/426/120 329/416/120 327/415/120
f 341/427/7 342/414/7 347/428/7 339/425/7
f 327/415/7 342/414/7 341/427/7
f 344/429/7 342/414/7 343/430/7
f 343/430/7 342/414/7 346/431/7 369/432/7
f 348/433/7 347/428/7 342/414/7 344/429/7
f 346/431/3 342/414/3 345/434/3 370/435/3
f 342/414/3 326/413/3 356/436/3 345/434/3
f 339/425/7 347/428/7 349/437/7 337/423/7
f 350/438/7 349/437/7 347/428/7 348/433/7
f 337/423/7 349/437/7 335/421/7
f 335/421/7 349/437/7 354/439/7 333/419/7
f 352/440/7 349/437/7 350/438/7
f 354/439/4 349/437/4 351/441/4 355/442/4
f 349/437/4 353/443/4 357/444/4 351/441/4
f 358/445/7 353/443/7 349/437/7 352/440/7
f 333/419/7 354/439/7 326/413/7 325/412/7
f 326/413/12 354/439/12 355/446/12 356/447/12
f 353/443/1 346/431/1 370/448/1 357/449/1
f 359/450/7 346/431/7 353/443/7 358/445/7
f 358/445/121 360/451/121 361/452/121 359/450/121
f 352/440/122 362/453/122 360/451/122 358/445/122
f 362/453/7 363/454/7 361/452/7 360/451/7
f 364/455/7 365/456/7 363/454/7 362/453/7
f 350/438/123 364/455/123 362/453/123 352/440/123
f 348/433/124 365/456/124 364/455/124 350/438/124
f 365/456/7 366/457/7 367/458/7 363/454/7
f 344/429/125 366/457/125 365/456/125 348/433/125
f 343/430/126 367/458/126 366/457/126 344/429/126
f 363/454/7 367/458/7 368/459/7 361/452/7
f 369/432/127 368/459/127 367/458/127 343/430/127
f 359/450/128 361/452/128 368/459/128 369/432/128
f 369/432/7 346/431/7 359/450/7
