# Blender 4.4.1
# www.blender.org
o Store_Small_3
v -0.534952 0.000000 0.531040
v -0.534952 0.788021 0.531039
v -0.534952 -0.000000 -0.531039
v -0.534952 0.788021 -0.531040
v 0.534952 0.000000 0.531040
v 0.534952 0.788021 0.531039
v 0.534952 -0.000000 -0.531039
v 0.534952 0.788021 -0.531040
v -0.534952 0.702681 0.531039
v 0.261976 0.394011 0.524773
v 0.534952 0.394011 0.531040
v 0.261999 0.176175 0.524773
v -0.534952 0.702681 -0.531040
v 0.534952 0.702681 -0.531040
v 0.534952 0.702681 0.531039
v -0.565821 0.704066 0.561682
v -0.565821 0.786636 0.561682
v -0.565821 0.786636 -0.561684
v 0.565821 0.786636 -0.561684
v 0.565821 0.786636 0.561682
v -0.565821 0.704066 -0.561684
v 0.565821 0.704066 -0.561684
v 0.565821 0.704066 0.561682
v -0.520161 0.702951 0.516355
v -0.520161 0.702951 -0.516357
v 0.520160 0.702951 -0.516357
v 0.520160 0.702951 0.516355
v 0.272975 0.394011 0.519363
v 0.272938 0.023441 0.519363
v 0.501517 0.394011 0.519363
v 0.501517 0.023441 0.519363
v -0.468083 0.176175 0.524773
v 0.501517 0.394011 0.531040
v 0.501517 0.023441 0.531040
v -0.468083 0.394011 0.531040
v -0.468083 0.176175 0.531040
v -0.468083 0.394011 0.524773
v 0.261976 0.394011 0.531040
v 0.272975 0.394011 0.531040
v 0.272938 0.023441 0.531040
v 0.262012 0.023441 0.531040
v 0.261999 0.176175 0.531040
v 0.392495 0.801876 0.398835
v 0.407997 0.801876 0.435770
v 0.414760 0.801876 0.370718
v 0.355068 0.801876 0.383536
v 0.392495 0.794648 0.398835
v 0.407997 0.794648 0.435770
v 0.355068 0.794648 0.383536
v 0.317640 0.794648 0.398835
v 0.355068 0.794648 0.435770
v 0.302138 0.794648 0.435770
v 0.355068 0.794648 0.488004
v 0.355068 0.801876 0.488004
v 0.392495 0.794648 0.472705
v 0.317640 0.794648 0.472705
v 0.317640 0.801876 0.472705
v 0.295376 0.801876 0.500823
v 0.302138 0.801876 0.435770
v 0.317640 0.801876 0.398835
v 0.295376 0.801876 0.435770
v 0.290059 0.801876 0.435770
v 0.295376 0.801876 0.370718
v 0.235684 0.801876 0.381350
v 0.274134 0.801876 0.397290
v 0.295376 0.699186 0.370718
v 0.175993 0.801876 0.370718
v 0.175993 0.801876 0.500823
v 0.197236 0.801876 0.397290
v 0.175993 0.699186 0.370718
v 0.181311 0.801876 0.435770
v 0.197236 0.801876 0.474251
v 0.181311 0.794648 0.435770
v 0.235684 0.794648 0.435770
v 0.197236 0.794648 0.397290
v 0.197236 0.794648 0.474251
v 0.235684 0.794648 0.490190
v 0.235684 0.801876 0.490190
v 0.274134 0.794648 0.474251
v 0.290059 0.794648 0.435770
v 0.274134 0.801876 0.474251
v 0.274134 0.794648 0.397290
v 0.235684 0.794648 0.381350
v 0.175993 0.699186 0.500823
v 0.295376 0.699186 0.500823
v 0.414760 0.699186 0.500823
v 0.414760 0.699186 0.370718
v 0.414760 0.801876 0.500823
v 0.392495 0.801876 0.472705
v 0.421391 0.578904 0.528770
v 0.421391 0.591573 0.536085
v -0.443493 0.578904 0.528770
v 0.421391 0.566235 0.536085
v 0.421391 0.578904 0.558028
v 0.421391 0.591573 0.550713
v -0.443493 0.578904 0.558028
v 0.421391 0.566235 0.550713
v -0.443493 0.566235 0.550713
v -0.443493 0.566235 0.536085
v -0.443493 0.591573 0.550713
v -0.443493 0.591573 0.536085
v -0.435897 0.488572 0.655643
v -0.400384 0.480162 0.664053
v -0.435599 0.595091 0.549280
v -0.432485 0.595549 0.525706
v -0.400085 0.594566 0.549806
v -0.396972 0.595549 0.525706
v -0.364573 0.595091 0.549280
v -0.329059 0.594566 0.549806
v -0.364870 0.488572 0.655643
v -0.361458 0.595549 0.525706
v -0.325944 0.595549 0.525706
v -0.290431 0.595549 0.525706
v -0.254917 0.595549 0.525706
v -0.293545 0.595091 0.549280
v -0.258032 0.594566 0.549806
v -0.293842 0.488572 0.655643
v -0.329357 0.480162 0.664053
v -0.258328 0.480162 0.664053
v -0.222816 0.488572 0.655643
v -0.187302 0.480162 0.664053
v -0.222519 0.595091 0.549280
v -0.219404 0.595549 0.525706
v -0.187005 0.594566 0.549806
v -0.183889 0.595549 0.525706
v -0.151491 0.595091 0.549280
v -0.115977 0.594566 0.549806
v -0.151788 0.488572 0.655643
v -0.148376 0.595549 0.525706
v -0.112863 0.595549 0.525706
v -0.077350 0.595549 0.525706
v -0.041835 0.595549 0.525706
v -0.080464 0.595091 0.549280
v -0.044950 0.594566 0.549806
v -0.080762 0.488572 0.655643
v -0.045248 0.480162 0.664053
v -0.116275 0.480162 0.664053
v -0.009735 0.488572 0.655643
v 0.025780 0.480162 0.664053
v -0.009438 0.595091 0.549280
v 0.026076 0.594566 0.549806
v -0.006323 0.595549 0.525706
v 0.029191 0.595549 0.525706
v 0.064704 0.595549 0.525706
v 0.100218 0.595549 0.525706
v 0.061590 0.595091 0.549280
v 0.097103 0.594566 0.549806
v 0.061293 0.488572 0.655643
v 0.096807 0.480162 0.664053
v 0.132319 0.488572 0.655643
v 0.167833 0.480162 0.664053
v 0.132617 0.595091 0.549280
v 0.168130 0.594566 0.549806
v 0.135733 0.595549 0.525706
v 0.171246 0.595549 0.525706
v 0.206759 0.595549 0.525706
v 0.242272 0.595549 0.525706
v 0.203644 0.595091 0.549280
v 0.239158 0.594566 0.549806
v 0.203348 0.488572 0.655643
v 0.238860 0.480162 0.664053
v 0.274373 0.488572 0.655643
v 0.309887 0.480162 0.664053
v 0.274672 0.595091 0.549280
v 0.310184 0.594566 0.549806
v 0.277787 0.595549 0.525706
v 0.313299 0.595549 0.525706
v 0.348813 0.595549 0.525706
v 0.384326 0.595549 0.525706
v 0.345698 0.595091 0.549280
v 0.381212 0.594566 0.549806
v 0.345402 0.488572 0.655643
v 0.380915 0.480162 0.664053
v 0.416429 0.488572 0.655643
v 0.416725 0.595091 0.549280
v 0.419840 0.595549 0.525706
vn -0.0448 0.9990 -0.0000
vn -0.0000 -0.0000 1.0000
vn 0.0448 0.9990 -0.0000
vn -0.9852 0.1713 -0.0000
vn -1.0000 -0.0000 -0.0000
vn 1.0000 -0.0000 -0.0000
vn 1.0000 -0.0001 -0.0000
vn -0.0000 -0.0000 -1.0000
vn -0.0000 1.0000 -0.0000
vn -0.0448 -0.9990 -0.0000
vn 0.0448 -0.9990 -0.0000
vn -0.0000 0.9990 0.0452
vn 0.9852 0.1713 -0.0000
vn -0.0000 0.9990 -0.0452
vn -1.0000 -0.0001 -0.0000
vn -0.0000 -1.0000 -0.0000
vn -0.0000 -0.9990 -0.0451
vn -0.0000 0.1701 0.9854
vn -0.0000 -0.9990 0.0452
vn -0.0000 0.1701 -0.9854
vn -0.9221 -0.0000 0.3870
vn -0.3784 -0.0000 0.9257
vn 0.3784 -0.0000 0.9257
vn 0.3784 -0.0000 -0.9257
vn -0.3784 -0.0000 -0.9257
vn 0.9221 -0.0000 -0.3870
vn 0.9221 -0.0000 0.3870
vn 0.9240 -0.0000 -0.3824
vn 0.9240 -0.0000 0.3824
vn 0.3830 -0.0000 -0.9238
vn -0.3829 -0.0000 -0.9238
vn -0.9240 -0.0000 -0.3824
vn -0.9240 -0.0000 0.3824
vn -0.3830 -0.0000 0.9238
vn 0.3830 -0.0000 0.9238
vn -0.9221 -0.0000 -0.3870
vn -0.0000 0.5000 -0.8660
vn -0.0000 -0.5000 -0.8660
vn -0.0000 0.5000 0.8660
vn -0.0000 -0.5000 0.8660
vn -0.0000 0.7066 0.7076
vn -0.0001 0.7066 0.7076
vn 0.0072 0.9995 0.0311
vn -0.0072 0.9995 0.0293
vn 0.0001 0.7066 0.7076
vt 0.784060 0.785700
vt 0.769036 0.848498
vt 0.766830 0.849900
vt 0.782611 0.783507
vt 0.837638 0.772932
vt 0.852336 0.795263
vt 0.782968 0.778348
vt 0.793105 0.761767
vt 0.832244 0.863909
vt 0.847763 0.801033
vt 0.849991 0.799617
vt 0.833663 0.866107
vt 0.829359 0.859868
vt 0.843664 0.803924
vt 0.797062 0.749049
vt 0.795752 0.737930
vt 0.855971 0.752817
vt 0.852632 0.775226
vt 0.852143 0.774821
vt 0.855428 0.753096
vt 0.879591 0.875120
vt 0.872588 0.806034
vt 0.895827 0.814307
vt 0.842502 0.749815
vt 0.842966 0.750241
vt 0.838931 0.772808
vt 0.838332 0.773077
vt 0.837978 0.868458
vt 0.855188 0.799971
vt 0.758648 0.898296
vt 0.764474 0.854219
vt 0.833247 0.871265
vt 0.821219 0.910101
vt 0.840155 0.759203
vt 0.839999 0.759531
vt 0.797141 0.749387
vt 0.780558 0.779654
vt 0.762979 0.851927
vt 0.835670 0.869964
vt 0.853869 0.797564
vt 0.761660 0.849531
vt 0.778248 0.781154
vt 0.786992 0.789736
vt 0.773096 0.845619
vt 0.733979 0.775839
vt 0.722821 0.837972
vt 0.841842 0.749679
vt 0.837541 0.772579
vt 0.793389 0.761558
vt 0.854658 0.775497
vt 0.858019 0.751744
vt 0.960162 0.011747
vt 0.959977 0.012093
vt 0.957790 0.011943
vt 0.957679 0.011580
vt 0.961330 0.010019
vt 0.963600 0.016873
vt 0.961769 0.013666
vt 0.961398 0.013781
vt 0.958663 0.014661
vt 0.961599 0.016153
vt 0.961245 0.015975
vt 0.959537 0.017384
vt 0.955926 0.015537
vt 0.957327 0.017232
vt 0.956099 0.013337
vt 0.955555 0.015651
vt 0.957135 0.017578
vt 0.955752 0.013155
vt 0.959649 0.017748
vt 0.955921 0.019325
vt 0.959760 0.018098
vt 0.957816 0.020018
vt 0.959848 0.018374
vt 0.962457 0.018536
vt 0.964092 0.020513
vt 0.965733 0.023782
vt 0.963880 0.023081
vt 0.969337 0.015033
vt 0.971487 0.021847
vt 0.967124 0.008240
vt 0.961870 0.024705
vt 0.958186 0.026192
vt 0.959290 0.024547
vt 0.967502 0.029563
vt 0.960094 0.031928
vt 0.959475 0.024199
vt 0.961759 0.024342
vt 0.963532 0.022897
vt 0.958003 0.022463
vt 0.960860 0.021543
vt 0.963719 0.020628
vt 0.957630 0.022577
vt 0.958170 0.020199
vt 0.959960 0.018738
vt 0.962267 0.018885
vt 0.952373 0.027946
vt 0.950182 0.021150
vt 0.953799 0.012424
vt 0.948045 0.014336
vt 0.952026 0.006644
vt 0.959426 0.004282
vt 0.238813 0.032757
vt 0.239252 0.033494
vt 0.238834 0.034243
vt 0.237954 0.032769
vt 0.193653 0.008035
vt 0.194072 0.007286
vt 0.238373 0.032020
vt 0.237536 0.033519
vt 0.193235 0.008784
vt 0.237976 0.034256
vt 0.238791 0.031271
vt 0.194490 0.006536
vt 0.194908 0.005787
vt 0.239209 0.030521
vt 0.195327 0.005038
vt 0.239628 0.029772
vt 0.195745 0.004288
vt 0.240046 0.029023
vt 0.192377 0.008797
vt 0.191937 0.008060
vt 0.192355 0.007310
vt 0.193213 0.007298
vt 0.840389 0.320920
vt 0.840708 0.311438
vt 0.842792 0.311471
vt 0.842495 0.320297
vt 0.840574 0.310016
vt 0.842655 0.310084
vt 0.838627 0.311326
vt 0.838491 0.309939
vt 0.838332 0.320149
vt 0.836226 0.320773
vt 0.836543 0.311292
vt 0.836410 0.309869
vt 0.834462 0.311179
vt 0.834327 0.309792
vt 0.832378 0.311145
vt 0.832245 0.309723
vt 0.834169 0.320003
vt 0.832063 0.320627
vt 0.830005 0.319857
vt 0.830297 0.311034
vt 0.827899 0.320482
vt 0.828213 0.310999
vt 0.828079 0.309577
vt 0.830162 0.309646
vt 0.826132 0.310888
vt 0.825997 0.309501
vt 0.825842 0.319712
vt 0.823736 0.320337
vt 0.824048 0.310854
vt 0.823915 0.309432
vt 0.821967 0.310743
vt 0.821832 0.309356
vt 0.819883 0.310710
vt 0.819749 0.309288
vt 0.819572 0.320192
vt 0.821678 0.319567
vt 0.817515 0.319423
vt 0.817802 0.310599
vt 0.815409 0.320049
vt 0.815718 0.310566
vt 0.817666 0.309212
vt 0.815585 0.309144
vt 0.813637 0.310456
vt 0.813501 0.309069
vt 0.811553 0.310423
vt 0.811419 0.309001
vt 0.813351 0.319280
vt 0.811245 0.319906
vt 0.809188 0.319137
vt 0.809472 0.310313
vt 0.807082 0.319763
vt 0.807388 0.310281
vt 0.809336 0.308926
vt 0.807254 0.308859
vt 0.805307 0.310171
vt 0.805171 0.308784
vt 0.803223 0.310139
vt 0.803088 0.308717
vt 0.802918 0.319622
vt 0.805024 0.318995
vt 0.800860 0.318854
vt 0.801142 0.310030
vt 0.798755 0.319480
vt 0.799057 0.309998
vt 0.801005 0.308643
vt 0.798924 0.308576
vt 0.796977 0.309889
vt 0.796841 0.308502
vt 0.794892 0.309857
vt 0.794759 0.308435
vt 0.796696 0.318713
vt 0.794592 0.319340
vt 0.792533 0.318573
vt 0.792811 0.309747
vt 0.792678 0.308358
s 1
f 2/1/1 4/2/1 18/3/1 17/4/1
f 38/5/2 15/6/2 9/7/2 35/8/2
f 8/9/3 6/10/3 20/11/3 19/12/3
f 6/10/4 8/9/4 26/13/4 27/14/4
f 36/15/2 35/8/2 9/7/2 1/16/2
f 34/17/5 33/18/5 30/19/5 31/20/5
f 7/21/6 11/22/6 5/23/6
f 40/24/7 29/25/7 28/26/7 39/27/7
f 7/21/6 14/28/6 15/29/6 11/22/6
f 3/30/8 13/31/8 14/32/8 7/33/8
f 36/15/9 42/34/9 12/35/9 32/36/9
f 16/37/5 17/4/5 18/3/5 21/38/5
f 22/39/6 19/12/6 20/11/6 23/40/6
f 17/4/2 16/37/2 23/40/2 20/11/2
f 13/41/10 9/42/10 16/37/10 21/38/10
f 21/38/8 18/3/8 19/12/8 22/39/8
f 15/29/11 14/28/11 22/39/11 23/40/11
f 6/10/12 2/1/12 17/4/12 20/11/12
f 4/2/13 2/1/13 24/43/13 25/44/13
f 1/45/5 9/42/5 13/41/5 3/46/5
f 4/2/14 8/9/14 19/12/14 18/3/14
f 42/34/2 36/15/2 1/16/2 41/47/2
f 42/34/15 38/5/15 10/48/15 12/35/15
f 28/26/2 29/25/2 31/20/2 30/19/2
f 38/5/16 35/8/16 37/49/16 10/48/16
f 24/43/9 27/14/9 26/13/9 25/44/9
f 14/32/17 13/31/17 21/38/17 22/39/17
f 8/9/18 4/2/18 25/44/18 26/13/18
f 11/50/2 15/6/2 33/18/2
f 15/6/19 23/40/19 16/37/19 9/7/19
f 35/8/6 36/15/6 32/36/6 37/49/6
f 33/18/16 39/27/16 28/26/16 30/19/16
f 40/24/2 5/51/2 34/17/2
f 15/6/2 39/27/2 33/18/2
f 41/47/2 5/51/2 40/24/2
f 15/6/2 38/5/2 39/27/2
f 42/34/2 41/47/2 40/24/2
f 38/5/2 42/34/2 40/24/2 39/27/2
f 41/47/2 1/16/2 5/51/2
f 2/1/20 6/10/20 27/14/20 24/43/20
f 40/24/9 34/17/9 31/20/9 29/25/9
f 5/51/2 11/50/2 33/18/2 34/17/2
f 10/48/2 37/49/2 32/36/2 12/35/2
f 43/52/21 47/53/21 48/54/21 44/55/21
f 44/55/9 45/56/9 43/52/9
f 43/52/9 45/56/9 63/57/9 46/58/9
f 46/58/22 49/59/22 47/53/22 43/52/22
f 48/54/9 47/53/9 49/59/9 51/60/9
f 60/61/23 50/62/23 49/59/23 46/58/23
f 51/60/9 49/59/9 50/62/9 52/63/9
f 53/64/9 51/60/9 52/63/9 56/65/9
f 55/66/9 48/54/9 51/60/9 53/64/9
f 54/67/24 53/64/24 56/65/24 57/68/24
f 89/69/25 55/66/25 53/64/25 54/67/25
f 57/68/26 56/65/26 52/63/26 59/70/26
f 57/68/9 58/71/9 54/67/9
f 59/70/9 61/72/9 58/71/9 57/68/9
f 60/61/9 63/57/9 61/72/9 59/70/9
f 59/70/27 52/63/27 50/62/27 60/61/27
f 81/73/9 58/71/9 61/72/9 62/74/9
f 62/74/9 61/72/9 63/57/9 65/75/9
f 46/58/9 63/57/9 60/61/9
f 65/75/9 63/57/9 64/76/9
f 64/76/9 63/57/9 67/77/9 69/78/9
f 67/77/8 63/57/8 66/79/8 70/80/8
f 63/57/8 45/56/8 87/81/8 66/79/8
f 71/82/9 67/77/9 68/83/9 72/84/9
f 68/83/5 67/77/5 70/85/5 84/86/5
f 69/78/9 67/77/9 71/82/9
f 72/84/28 76/87/28 73/88/28 71/82/28
f 71/82/29 73/88/29 75/89/29 69/78/29
f 77/90/9 74/91/9 73/88/9 76/87/9
f 74/91/9 83/92/9 75/89/9 73/88/9
f 78/93/30 77/90/30 76/87/30 72/84/30
f 79/94/9 80/95/9 74/91/9 77/90/9
f 81/73/31 79/94/31 77/90/31 78/93/31
f 62/74/32 80/95/32 79/94/32 81/73/32
f 78/93/9 58/71/9 81/73/9
f 65/75/33 82/96/33 80/95/33 62/74/33
f 80/95/9 82/96/9 83/92/9 74/91/9
f 64/76/34 83/92/34 82/96/34 65/75/34
f 69/78/35 75/89/35 83/92/35 64/76/35
f 72/84/9 68/83/9 58/71/9 78/93/9
f 58/71/2 68/83/2 84/97/2 85/98/2
f 88/99/2 58/71/2 85/98/2 86/100/2
f 45/56/6 88/99/6 86/101/6 87/102/6
f 54/67/9 58/71/9 88/99/9 89/69/9
f 89/69/9 88/99/9 45/56/9 44/55/9
f 44/55/36 48/54/36 55/66/36 89/69/36
f 91/103/6 95/104/6 94/105/6 90/106/6
f 90/106/37 92/107/37 101/108/37 91/109/37
f 93/110/38 99/111/38 92/107/38 90/106/38
f 90/106/6 94/105/6 97/112/6 93/110/6
f 95/113/39 100/114/39 96/115/39 94/116/39
f 94/116/40 96/115/40 98/117/40 97/118/40
f 97/118/16 98/117/16 99/119/16 93/120/16
f 99/111/5 98/121/5 96/122/5 92/107/5
f 92/107/5 96/122/5 100/123/5 101/124/5
f 91/109/9 101/108/9 100/114/9 95/113/9
f 103/125/41 106/126/41 104/127/42 102/128/42
f 104/127/43 106/126/43 107/129/43 105/130/43
f 106/126/44 108/131/44 111/132/44 107/129/44
f 110/133/41 108/131/41 106/126/41 103/125/41
f 118/134/41 109/135/41 108/131/41 110/133/41
f 108/131/43 109/135/43 112/136/43 111/132/43
f 109/135/44 115/137/44 113/138/44 112/136/44
f 115/137/43 116/139/43 114/140/43 113/138/43
f 117/141/41 115/137/41 109/135/41 118/134/41
f 119/142/41 116/139/41 115/137/41 117/141/41
f 120/143/41 122/144/41 116/139/41 119/142/41
f 121/145/41 124/146/41 122/144/41 120/143/41
f 122/144/43 124/146/43 125/147/43 123/148/43
f 116/139/44 122/144/44 123/148/44 114/140/44
f 124/146/44 126/149/44 129/150/44 125/147/44
f 128/151/41 126/149/41 124/146/41 121/145/41
f 137/152/41 127/153/41 126/149/41 128/151/41
f 126/149/43 127/153/43 130/154/43 129/150/43
f 127/153/44 133/155/44 131/156/44 130/154/44
f 133/155/43 134/157/43 132/158/43 131/156/43
f 136/159/41 134/157/41 133/155/41 135/160/41
f 135/160/41 133/155/41 127/153/41 137/152/41
f 138/161/41 140/162/41 134/157/41 136/159/41
f 139/163/41 141/164/41 140/162/41 138/161/41
f 134/157/44 140/162/44 142/165/44 132/158/44
f 140/162/43 141/164/43 143/166/43 142/165/43
f 141/164/44 146/167/44 144/168/44 143/166/44
f 146/167/43 147/169/43 145/170/43 144/168/43
f 148/171/41 146/167/41 141/164/41 139/163/41
f 149/172/41 147/169/41 146/167/41 148/171/41
f 150/173/41 152/174/41 147/169/41 149/172/41
f 151/175/41 153/176/41 152/174/41 150/173/41
f 147/169/44 152/174/44 154/177/44 145/170/44
f 152/174/43 153/176/43 155/178/43 154/177/43
f 153/176/44 158/179/44 156/180/44 155/178/44
f 158/179/43 159/181/43 157/182/43 156/180/43
f 161/183/41 159/181/41 158/179/41 160/184/41
f 160/184/41 158/179/41 153/176/41 151/175/41
f 162/185/41 164/186/41 159/181/41 161/183/41
f 163/187/41 165/188/41 164/186/41 162/185/41
f 159/181/44 164/186/44 166/189/44 157/182/44
f 164/186/43 165/188/43 167/190/43 166/189/43
f 165/188/44 170/191/44 168/192/44 167/190/44
f 170/191/43 171/193/43 169/194/43 168/192/43
f 172/195/41 170/191/41 165/188/41 163/187/41
f 173/196/41 171/193/41 170/191/41 172/195/41
f 174/197/45 175/198/45 171/193/41 173/196/41
f 171/193/44 175/198/44 176/199/44 169/194/44
