# Blender 4.4.1
# www.blender.org
o Store_Big_2
v -1.174253 0.000000 0.271899
v -1.174253 -0.000000 -0.785495
v -1.174253 0.347171 0.271898
v -0.665334 0.000000 0.271899
v -0.665334 0.347171 0.271899
v -0.665334 0.000000 0.105746
v -0.665334 0.347171 0.105746
v -0.665334 0.793045 0.105746
v -0.089447 0.793045 0.105746
v -0.665334 0.794479 0.271899
v -0.089447 0.794479 0.271898
v -1.174253 1.113507 0.271899
v -1.174253 1.113507 -0.785495
v 1.561112 1.113507 0.271899
v 1.561112 1.113507 -0.785495
v 1.221359 0.794479 0.271898
v 1.561112 0.347171 0.271898
v 1.561112 0.000000 0.271899
v 1.221359 0.347171 0.271898
v 1.561112 0.347171 -0.785495
v 1.561112 -0.000000 -0.785495
v -1.174253 0.347171 -0.785495
v 1.194006 0.347171 0.271898
v 1.194006 0.345439 0.227725
v 1.194006 0.794479 0.271898
v 0.906794 0.345439 0.271899
v 0.879441 0.345439 0.271899
v 0.906794 0.794479 0.271898
v 0.735832 0.000000 0.271899
v 0.906794 0.345439 0.227725
v 0.906794 0.794479 0.227725
v 1.194006 0.794479 0.227725
v 0.564873 0.345439 0.271899
v 0.592226 0.345439 0.271899
v -0.089447 0.000000 0.271899
v -0.089447 0.000000 0.105746
v -0.089447 0.345439 0.271899
v 0.277659 0.345439 0.271899
v 0.250305 0.345439 0.271899
v 0.250305 0.794479 0.271898
v 0.277659 0.794479 0.271898
v 0.564873 0.794479 0.271898
v 0.277659 0.794479 0.227725
v 0.277659 0.345439 0.227725
v 0.564873 0.794479 0.227725
v 0.564873 0.345439 0.227725
v 0.592226 0.794479 0.271898
v 0.879441 0.794479 0.271898
v 0.592226 0.794479 0.227725
v 0.592226 0.345439 0.227725
v 0.879441 0.794479 0.227725
v 0.879441 0.345439 0.227725
v -0.089447 0.344770 0.105746
v -0.089447 0.793142 0.105746
v -1.179086 0.827557 0.293059
v -1.179086 0.827557 -0.822688
v -1.179086 0.902211 0.293059
v 1.577320 0.827557 0.293059
v 1.577320 0.827557 -0.822688
v 1.577320 0.902211 0.293059
v 1.577320 0.902211 -0.822688
v -1.179086 0.902211 -0.822688
v 0.199118 1.183406 -0.009404
v 0.152916 1.225879 0.132791
v 0.320076 1.225879 0.078477
v 0.049605 1.225880 -0.009404
v 0.152916 1.225879 -0.151599
v 0.320076 1.225879 -0.097285
v 0.404906 1.340613 -0.158916
v 0.441036 1.318284 -0.009404
v 0.273876 1.318283 -0.239481
v 0.120514 1.340613 -0.251322
v 0.366280 1.467799 -0.239482
v 0.199118 1.467799 -0.293797
v 0.031956 1.467799 -0.239482
v 0.124359 1.617315 -0.239481
v 0.277720 1.594986 -0.251322
v 0.245320 1.709719 -0.151599
v 0.394835 1.617315 -0.151599
v 0.348631 1.709719 -0.009404
v 0.469591 1.467799 -0.097285
v 0.453486 1.594984 -0.009404
v 0.394835 1.617315 0.132792
v 0.469591 1.467799 0.078477
v 0.366280 1.467799 0.220675
v 0.404906 1.340613 0.140109
v 0.273876 1.318283 0.220673
v 0.199118 1.467799 0.274989
v 0.120514 1.340613 0.232515
v 0.031956 1.467799 0.220675
v 0.003401 1.318284 0.132792
v -0.055250 1.340614 -0.009404
v -0.071356 1.467799 0.078477
v -0.006672 1.594985 0.140109
v -0.071356 1.467799 -0.097285
v -0.042801 1.617315 -0.009404
v -0.006672 1.594985 -0.158916
v 0.078160 1.709719 -0.097285
v 0.078160 1.709719 0.078477
v 0.199118 1.752192 -0.009404
v 0.245320 1.709719 0.132791
v 0.124359 1.617315 0.220673
v 0.277720 1.594986 0.232515
v 0.003401 1.318284 -0.151599
v -0.106706 1.103896 0.268485
v -0.106706 1.103896 -0.343161
v -0.106706 1.173423 0.268485
v 0.504940 1.103896 0.268485
v 0.504940 1.103896 -0.343161
v 0.504940 1.173423 0.268485
v 0.504940 1.173423 -0.343161
v -0.106706 1.173423 -0.343161
v -0.669452 -0.000624 0.112916
v -0.669452 0.024188 0.112916
v -0.648197 -0.001060 0.113419
v -0.307756 -0.000770 0.113085
v -0.648197 0.023752 0.113419
v -0.648197 0.023752 0.063278
v -0.307756 0.024041 0.113085
v -0.648197 0.773013 0.113419
v -0.648197 0.773013 0.063278
v -0.669452 0.773449 0.112916
v -0.307756 0.773302 0.113085
v -0.648197 0.792915 0.113419
v -0.669452 0.793352 0.112916
v -0.307756 0.793205 0.113085
v -0.286808 0.793352 0.112916
v -0.286808 0.773449 0.112916
v -0.102255 0.793352 0.112916
v -0.082784 0.793352 0.112916
v -0.102255 0.773449 0.112916
v -0.082784 0.773449 0.112916
v -0.102255 0.773449 0.062775
v -0.102255 0.024188 0.112916
v -0.082784 0.024188 0.112916
v -0.102255 -0.000624 0.112916
v -0.286808 0.024188 0.112916
v -0.102255 0.024188 0.062775
v -0.286808 0.024188 0.062775
v -0.286808 0.773449 0.062775
v -0.286808 -0.000624 0.112916
v -0.082784 -0.000624 0.112916
v -0.307756 0.773302 0.062944
v -0.307756 0.024041 0.062944
v -1.174331 0.002851 0.289356
v -1.174331 0.030216 0.289356
v -1.143293 0.002851 0.289356
v -1.174331 0.002851 0.268414
v -1.174331 0.030216 0.268414
v -1.174331 0.589550 0.268414
v -1.174331 0.612903 0.268414
v -1.174331 0.589550 0.289356
v -1.143293 0.589550 0.289356
v -1.174331 0.612903 0.289356
v -1.174331 0.775752 0.289356
v -1.143293 0.612903 0.289356
v -1.143293 0.612903 0.273962
v -1.143293 0.775752 0.289356
v -0.691744 0.612903 0.289356
v -0.691744 0.612903 0.273962
v -0.663681 0.612903 0.289356
v -0.691744 0.589550 0.289356
v -0.691744 0.775752 0.289356
v -0.691744 0.800685 0.289356
v -0.663681 0.775752 0.289356
v -0.691744 0.775752 0.273962
v -1.143293 0.775752 0.273962
v -0.663681 0.775752 0.268414
v -0.663681 0.800685 0.289356
v -0.663681 0.800685 0.268414
v -0.691744 0.800685 0.268414
v -1.143293 0.800685 0.268414
v -1.174331 0.800685 0.268414
v -1.143293 0.800685 0.289356
v -1.174331 0.800685 0.289356
v -1.174331 0.775752 0.268414
v -0.663681 0.612903 0.268414
v -0.663681 0.589550 0.268414
v -0.663681 0.030216 0.268414
v -0.663681 0.589550 0.289356
v -0.663681 0.030216 0.289356
v -0.663681 0.002851 0.289356
v -0.691744 0.030216 0.289356
v -0.691744 0.002851 0.289356
v -1.143293 0.030216 0.289356
v -0.691744 0.030216 0.273962
v -0.691744 0.589550 0.273962
v -1.143293 0.030216 0.273962
v -1.143293 0.589550 0.273962
vn -1.0000 -0.0000 -0.0000
vn -0.0000 -0.0000 1.0000
vn 1.0000 -0.0000 -0.0000
vn -0.0000 -1.0000 0.0086
vn -0.0000 1.0000 -0.0000
vn -0.0000 -0.0000 -1.0000
vn -0.0030 0.9998 -0.0196
vn -0.0000 -1.0000 -0.0000
vn 0.0046 -1.0000 -0.0000
vn -0.1014 -0.8540 0.5103
vn -0.4494 -0.8933 -0.0000
vn 0.3287 -0.8849 0.3301
vn 0.3287 -0.8849 -0.3301
vn -0.1014 -0.8540 -0.5103
vn 0.8146 -0.5800 -0.0000
vn 0.6716 -0.4824 -0.5623
vn 0.1897 -0.5428 -0.8182
vn -0.2013 -0.4462 -0.8720
vn 0.5030 -0.0114 -0.8642
vn -0.5030 0.0114 -0.8642
vn -0.1897 0.5428 -0.8182
vn 0.2013 0.4462 -0.8720
vn 0.6254 0.5721 -0.5305
vn 0.1014 0.8540 -0.5103
vn 0.4494 0.8933 -0.0000
vn 0.8744 0.4852 -0.0000
vn 0.9402 0.0039 -0.3407
vn 0.6254 0.5722 0.5305
vn 0.9402 0.0039 0.3407
vn 0.5030 -0.0114 0.8642
vn 0.6716 -0.4824 0.5623
vn 0.1897 -0.5428 0.8182
vn -0.2013 -0.4462 0.8720
vn -0.5030 0.0114 0.8642
vn -0.6254 -0.5721 0.5305
vn -0.8744 -0.4852 -0.0000
vn -0.9402 -0.0039 0.3407
vn -0.9402 -0.0039 -0.3407
vn -0.6716 0.4824 0.5623
vn -0.8146 0.5800 -0.0000
vn -0.6716 0.4824 -0.5623
vn -0.3287 0.8849 0.3301
vn -0.3287 0.8849 -0.3301
vn 0.1014 0.8540 0.5103
vn -0.0046 1.0000 -0.0000
vn -0.1897 0.5428 0.8182
vn 0.2013 0.4462 0.8720
vn -0.6254 -0.5721 -0.5305
vn -0.0237 -0.0000 0.9997
vn 0.0010 -0.0000 1.0000
vn 0.0045 -0.0000 1.0000
vn 0.0057 -0.0000 1.0000
vn -0.0008 1.0000 -0.0000
vn 0.0008 -1.0000 -0.0000
vn 0.0054 -0.0000 1.0000
vn 0.0040 -0.0000 1.0000
vt 0.274974 0.647728
vt 0.295323 0.648581
vt 0.292723 0.710559
vt 0.272374 0.709705
vt 0.318942 0.860722
vt 0.327446 0.890150
vt 0.305314 0.896382
vt 0.299186 0.868844
vt 0.473156 0.086473
vt 0.480621 0.092740
vt 0.467526 0.108339
vt 0.460060 0.102071
vt 0.497493 0.072642
vt 0.489974 0.066439
vt 0.518992 0.046580
vt 0.511472 0.040377
vt 0.476745 0.848083
vt 0.346894 0.875100
vt 0.352760 0.852463
vt 0.386488 0.842918
vt 0.340241 0.650466
vt 0.337640 0.712444
vt 0.500570 0.657193
vt 0.497970 0.719171
vt 0.405564 0.839633
vt 0.407131 0.839397
vt 0.423441 0.836777
vt 0.425030 0.836583
vt 0.441457 0.834246
vt 0.443039 0.834101
vt 0.460129 0.832435
vt 0.461756 0.832277
vt 0.545488 0.659078
vt 0.542887 0.721055
vt 0.470112 0.808087
vt 0.490497 0.814658
vt 0.497571 0.791990
vt 0.565837 0.659932
vt 0.563236 0.721909
vt 0.496085 0.764088
vt 0.335756 0.757361
vt 0.495231 0.784437
vt 0.334902 0.777710
vt 0.468370 0.807710
vt 0.458607 0.831192
vt 0.466047 0.808559
vt 0.448588 0.804802
vt 0.450154 0.806263
vt 0.440042 0.782287
vt 0.446943 0.804783
vt 0.444704 0.832370
vt 0.426167 0.805218
vt 0.427818 0.805043
vt 0.406747 0.806639
vt 0.384849 0.784198
vt 0.548381 0.010406
vt 0.535603 0.026134
vt 0.528062 0.019958
vt 0.540816 0.004259
vt 0.383260 0.807140
vt 0.405032 0.806767
vt 0.408656 0.807870
vt 0.408501 0.837430
vt 0.421760 0.835478
vt 0.424312 0.806925
vt 0.426507 0.834673
vt 0.439847 0.832953
vt 0.429545 0.806359
vt 0.445005 0.806351
vt 0.511476 0.040373
vt 0.039580 0.473499
vt 0.156046 0.361321
vt 0.201454 0.408464
vt 0.084988 0.520643
vt 0.081833 0.523681
vt 0.036425 0.476538
vt 0.204492 0.411619
vt 0.088026 0.523797
vt 0.159200 0.358283
vt 0.204608 0.405426
vt 0.275667 0.246104
vt 0.321075 0.293247
vt 0.036541 0.470345
vt 0.153008 0.358166
vt 0.944815 0.637430
vt 0.940958 0.645110
vt 0.933398 0.637586
vt 0.952474 0.646149
vt 0.967275 0.732720
vt 0.974799 0.742171
vt 0.964584 0.741926
vt 0.981417 0.753739
vt 0.971358 0.750403
vt 0.953838 0.736125
vt 0.955773 0.744757
vt 0.961792 0.750419
vt 0.966500 0.757083
vt 0.958918 0.758783
vt 0.952747 0.752447
vt 0.965088 0.765120
vt 0.956043 0.767148
vt 0.951335 0.760484
vt 0.944091 0.756517
vt 0.946478 0.767163
vt 0.936419 0.763828
vt 0.937464 0.750541
vt 0.946596 0.745958
vt 0.948143 0.672831
vt 0.955245 0.677671
vt 0.945190 0.683080
vt 0.957704 0.666329
vt 0.940233 0.738783
vt 0.948273 0.663023
vt 0.953838 0.656563
vt 0.962408 0.654342
vt 0.945836 0.653620
vt 0.937309 0.652674
vt 0.939294 0.660333
vt 0.930315 0.657643
vt 0.930445 0.647835
vt 0.923343 0.642995
vt 0.920884 0.654337
vt 0.980371 0.767025
vt 0.977603 0.778784
vt 0.971239 0.771608
vt 0.924750 0.664103
vt 0.916180 0.666324
vt 0.963997 0.781442
vt 0.962062 0.772810
vt 0.926114 0.674517
vt 0.953251 0.775641
vt 0.950560 0.784846
vt 0.937630 0.675556
vt 0.933773 0.683236
vt 0.943036 0.775396
vt 0.932752 0.667046
vt 0.941279 0.667992
vt 0.973745 0.761050
vt 0.015065 0.046282
vt 0.049279 0.057096
vt 0.038465 0.091310
vt 0.004251 0.080496
vt 0.023218 0.006950
vt 0.027108 0.008179
vt 0.016294 0.042393
vt 0.012405 0.041164
vt 0.062551 0.015104
vt 0.061322 0.018993
vt 0.028337 0.004290
vt 0.054397 0.054436
vt 0.050508 0.053207
vt 0.065211 0.020222
vt 0.493589 0.398722
vt 0.494926 0.398851
vt 0.494722 0.400400
vt 0.493392 0.400247
vt 0.519866 0.402279
vt 0.519693 0.403828
vt 0.488373 0.448666
vt 0.496842 0.402478
vt 0.490809 0.446976
vt 0.517282 0.405510
vt 0.487042 0.448523
vt 0.513464 0.452040
vt 0.511342 0.449963
vt 0.488215 0.449909
vt 0.486873 0.449754
vt 0.513279 0.453279
vt 0.514780 0.452178
vt 0.514695 0.453431
vt 0.530391 0.453930
vt 0.530220 0.455176
vt 0.531606 0.454088
vt 0.531495 0.455286
vt 0.537677 0.406075
vt 0.536459 0.405946
vt 0.517218 0.450484
vt 0.528175 0.451950
vt 0.534036 0.407602
vt 0.536550 0.404382
vt 0.537790 0.404511
vt 0.521224 0.402484
vt 0.520987 0.404037
vt 0.523181 0.406037
vt 0.236433 0.380860
vt 0.235863 0.382407
vt 0.234675 0.381995
vt 0.235242 0.380439
vt 0.237629 0.383015
vt 0.238224 0.381484
vt 0.223994 0.414496
vt 0.222804 0.414088
vt 0.223490 0.415869
vt 0.222273 0.415493
vt 0.225767 0.415078
vt 0.225305 0.416376
vt 0.219996 0.426008
vt 0.218749 0.425853
vt 0.221735 0.426645
vt 0.251315 0.426453
vt 0.251898 0.425183
vt 0.250566 0.426912
vt 0.225617 0.417189
vt 0.222447 0.426150
vt 0.246991 0.436313
vt 0.246738 0.435480
vt 0.252866 0.427201
vt 0.248527 0.436968
vt 0.253458 0.425819
vt 0.247845 0.437991
vt 0.246483 0.437723
vt 0.221147 0.428028
vt 0.248180 0.438922
vt 0.249573 0.437687
vt 0.254011 0.427728
vt 0.246175 0.438942
vt 0.220567 0.429142
vt 0.219833 0.427185
vt 0.218938 0.427774
vt 0.254628 0.426277
vt 0.265638 0.393533
vt 0.266816 0.393971
vt 0.264063 0.392935
vt 0.266229 0.392007
vt 0.264654 0.391403
vt 0.263265 0.393294
vt 0.238050 0.383784
vt 0.251482 0.424410
vt 0.226561 0.414713
s 1
f 1/1/1 3/2/1 22/3/1 2/4/1
f 5/5/2 3/6/2 1/7/2 4/8/2
f 7/9/3 5/10/3 4/11/3 6/12/3
f 10/13/3 5/10/3 7/9/3 8/14/3
f 11/15/4 10/13/4 8/14/4 9/16/4
f 14/17/2 12/18/2 10/19/2 11/20/2
f 5/5/2 10/19/2 12/18/2 3/6/2
f 3/2/1 12/21/1 13/22/1 22/3/1
f 13/22/5 12/21/5 14/23/5 15/24/5
f 11/20/2 40/25/2 41/26/2 42/27/2 47/28/2 48/29/2 28/30/2 25/31/2 16/32/2 14/17/2
f 14/23/3 17/33/3 20/34/3 15/24/3
f 16/32/2 19/35/2 17/36/2 14/17/2
f 19/35/2 18/37/2 17/36/2
f 17/33/3 18/38/3 21/39/3 20/34/3
f 20/40/6 22/41/6 13/22/6 15/24/6
f 21/42/6 2/43/6 22/41/6 20/40/6
f 18/37/2 19/35/2 23/44/2
f 19/35/2 16/32/2 25/31/2 23/44/2
f 23/44/1 25/31/1 32/45/1 24/46/1
f 26/47/7 23/44/7 24/46/7 30/48/7
f 18/37/2 23/44/2 26/47/2 29/49/2
f 27/50/2 29/49/2 26/47/2
f 48/29/2 27/50/2 26/47/2 28/30/2
f 28/30/3 26/47/3 30/48/3 31/51/3
f 24/46/2 32/45/2 31/51/2 30/48/2
f 25/31/8 28/30/8 31/51/8 32/45/8
f 33/52/2 29/49/2 34/53/2
f 29/49/2 33/52/2 38/54/2 35/55/2
f 29/49/2 27/50/2 34/53/2
f 35/56/1 37/57/1 53/58/1 36/59/1
f 37/60/2 35/55/2 39/61/2
f 39/61/2 35/55/2 38/54/2
f 40/25/2 39/61/2 38/54/2 41/26/2
f 11/20/2 37/60/2 39/61/2 40/25/2
f 41/26/3 38/54/3 44/62/3 43/63/3
f 42/27/8 41/26/8 43/63/8 45/64/8
f 46/65/2 45/64/2 43/63/2 44/62/2
f 33/52/1 42/27/1 45/64/1 46/65/1
f 38/54/5 33/52/5 46/65/5 44/62/5
f 42/27/2 33/52/2 34/53/2 47/28/2
f 48/29/8 47/28/8 49/66/8 51/67/8
f 47/28/3 34/53/3 50/68/3 49/66/3
f 52/69/2 51/67/2 49/66/2 50/68/2
f 27/50/1 48/29/1 51/67/1 52/69/1
f 34/53/5 27/50/5 52/69/5 50/68/5
f 37/57/1 11/15/1 54/70/1 53/58/1
f 11/15/3 9/16/3 54/70/3
f 56/71/8 59/72/8 58/73/8 55/74/8
f 55/74/1 57/75/1 62/76/1 56/71/1
f 58/73/2 60/77/2 57/78/2 55/74/2
f 59/72/3 61/79/3 60/80/3 58/73/3
f 61/79/5 62/81/5 57/82/5 60/80/5
f 56/71/6 62/83/6 61/84/6 59/72/6
f 63/85/9 64/86/10 66/87/11
f 63/85/9 65/88/12 64/86/10
f 65/89/12 63/90/9 68/91/13
f 63/90/9 66/92/11 67/93/14
f 63/90/9 67/93/14 68/91/13
f 70/94/15 68/91/13 69/95/16
f 68/91/13 71/96/17 69/95/16
f 70/94/15 65/89/12 68/91/13
f 68/91/13 67/93/14 71/96/17
f 67/93/14 72/97/18 71/96/17
f 71/96/17 72/97/18 74/98/6
f 69/95/16 71/96/17 73/99/19
f 73/99/19 71/96/17 74/98/6
f 72/97/18 75/100/20 74/98/6
f 74/98/6 75/100/20 76/101/21
f 73/99/19 74/98/6 77/102/22
f 74/98/6 76/101/21 77/102/22
f 79/103/23 77/102/22 78/104/24
f 77/102/22 76/101/21 78/104/24
f 73/99/19 77/102/22 79/103/23
f 80/105/25 79/103/23 78/104/24
f 82/106/26 79/103/23 80/105/25
f 81/107/27 73/99/19 79/103/23
f 81/107/27 79/103/23 82/106/26
f 83/108/28 82/109/26 80/110/25
f 84/111/29 82/109/26 83/108/28
f 84/112/29 81/107/27 82/106/26
f 85/113/30 84/111/29 83/108/28
f 86/114/31 84/111/29 85/113/30
f 84/112/29 70/94/15 81/107/27
f 86/114/31 70/115/15 84/111/29
f 86/114/31 65/88/12 70/115/15
f 65/88/12 86/114/31 87/116/32
f 87/116/32 86/114/31 85/113/30
f 64/86/10 65/88/12 87/116/32
f 64/86/10 87/116/32 89/117/33
f 88/118/2 87/116/32 85/113/30
f 89/117/33 87/116/32 88/118/2
f 89/117/33 88/118/2 90/119/34
f 91/120/35 89/117/33 90/119/34
f 64/86/10 89/117/33 91/120/35
f 66/87/11 91/120/35 92/121/36
f 92/121/36 91/120/35 93/122/37
f 66/87/11 64/86/10 91/120/35
f 93/122/37 91/120/35 90/119/34
f 92/123/36 93/124/37 95/125/38
f 93/122/37 90/119/34 94/126/39
f 93/122/37 94/126/39 96/127/40
f 95/125/38 93/124/37 96/128/40
f 95/125/38 96/128/40 97/129/41
f 96/127/40 94/126/39 99/130/42
f 97/129/41 96/128/40 98/131/43
f 98/131/43 96/128/40 99/132/42
f 99/130/42 101/133/44 100/134/45
f 98/131/43 99/132/42 100/135/45
f 99/130/42 102/136/46 101/133/44
f 94/126/39 102/136/46 99/130/42
f 90/119/34 88/118/2 102/136/46
f 90/119/34 102/136/46 94/126/39
f 88/118/2 103/137/47 102/136/46
f 102/136/46 103/137/47 101/133/44
f 103/137/47 83/108/28 101/133/44
f 85/113/30 83/108/28 103/137/47
f 88/118/2 85/113/30 103/137/47
f 101/133/44 80/110/25 100/134/45
f 101/133/44 83/108/28 80/110/25
f 80/105/25 78/104/24 100/135/45
f 78/104/24 98/131/43 100/135/45
f 76/101/21 97/129/41 98/131/43
f 78/104/24 76/101/21 98/131/43
f 75/100/20 97/129/41 76/101/21
f 75/100/20 95/125/38 97/129/41
f 104/138/48 92/123/36 95/125/38
f 75/100/20 104/138/48 95/125/38
f 66/92/11 92/123/36 104/138/48
f 67/93/14 66/92/11 104/138/48
f 67/93/14 104/138/48 72/97/18
f 72/97/18 104/138/48 75/100/20
f 70/94/15 69/95/16 81/107/27
f 69/95/16 73/99/19 81/107/27
f 106/139/8 109/140/8 108/141/8 105/142/8
f 105/143/1 107/144/1 112/145/1 106/146/1
f 108/147/2 110/148/2 107/144/2 105/149/2
f 109/150/3 111/151/3 110/148/3 108/152/3
f 111/151/5 112/145/5 107/144/5 110/148/5
f 106/139/6 112/145/6 111/151/6 109/140/6
f 113/153/49 115/154/49 117/155/49 114/156/49
f 115/154/50 116/157/51 119/158/52 117/155/50
f 120/159/3 117/155/3 118/160/3 121/161/3
f 117/155/53 119/158/53 144/162/53 118/160/53
f 117/155/49 120/159/49 122/163/49 114/156/49
f 123/164/54 120/159/54 121/161/54 143/165/54
f 122/163/49 120/159/49 124/166/49 125/167/49
f 120/159/50 123/164/52 126/168/51 124/166/50
f 128/169/55 127/170/56 126/168/51 123/164/52
f 128/169/55 131/171/2 129/172/2 127/170/56
f 131/171/2 132/173/2 130/174/2 129/172/2
f 135/175/2 132/173/2 131/171/2 134/176/2
f 131/171/8 128/169/8 140/177/8 133/178/8
f 134/176/1 131/171/1 133/178/1 138/179/1
f 136/180/2 142/181/2 135/175/2 134/176/2
f 141/182/56 136/180/2 134/176/2 137/183/55
f 137/183/5 134/176/5 138/179/5 139/184/5
f 138/179/2 133/178/2 140/177/2 139/184/2
f 128/169/3 137/183/3 139/184/3 140/177/3
f 137/183/55 128/169/55 123/164/52 119/158/52
f 141/182/56 137/183/55 119/158/52 116/157/51
f 119/158/1 123/164/1 143/165/1 144/162/1
f 143/165/50 121/161/50 118/160/50 144/162/50
f 145/185/1 146/186/1 149/187/1 148/188/1
f 185/189/2 146/186/2 145/185/2 147/190/2
f 146/186/1 152/191/1 150/192/1 149/187/1
f 152/191/1 154/193/1 151/194/1 150/192/1
f 152/191/2 146/186/2 185/189/2 153/195/2
f 156/196/2 154/193/2 152/191/2 153/195/2
f 154/193/1 155/197/1 176/198/1 151/194/1
f 156/196/2 158/199/2 155/197/2 154/193/2
f 159/200/2 156/196/2 153/195/2 162/201/2
f 156/196/5 159/200/5 160/202/5 157/203/5
f 158/199/3 156/196/3 157/203/3 167/204/3
f 159/200/1 163/205/1 166/206/1 160/202/1
f 161/207/2 165/208/2 163/205/2 159/200/2
f 161/207/2 159/200/2 162/201/2 180/209/2
f 165/208/2 169/210/2 164/211/2 163/205/2
f 158/199/2 163/205/2 164/211/2 174/212/2
f 163/205/8 158/199/8 167/204/8 166/206/8
f 160/202/2 166/206/2 167/204/2 157/203/2
f 170/213/3 169/210/3 165/208/3 168/214/3
f 165/208/3 161/207/3 177/215/3 168/214/3
f 164/211/5 169/210/5 170/213/5 171/216/5
f 174/212/5 164/211/5 171/216/5 172/217/5
f 175/218/5 174/212/5 172/217/5 173/219/5
f 155/197/2 158/199/2 174/212/2 175/218/2
f 155/197/1 175/218/1 173/219/1 176/198/1
f 177/215/3 161/207/3 180/209/3 178/220/3
f 180/209/3 181/221/3 179/222/3 178/220/3
f 181/221/2 180/209/2 162/201/2 183/223/2
f 182/224/2 181/221/2 183/223/2 184/225/2
f 185/189/2 147/190/2 184/225/2 183/223/2
f 185/189/5 183/223/5 186/226/5 188/227/5
f 183/223/1 162/201/1 187/228/1 186/226/1
f 187/228/2 189/229/2 188/227/2 186/226/2
f 153/195/3 185/189/3 188/227/3 189/229/3
f 162/201/8 153/195/8 189/229/8 187/228/8
