# Blender 4.4.1
# www.blender.org
o Store_Big_3
v -1.176333 -0.000163 -0.015324
v -1.176333 -0.000163 -0.914981
v -1.176333 1.113344 -0.015324
v -1.106365 0.310452 -0.015324
v -0.471176 -0.000163 -0.015324
v -0.471398 1.113344 -0.015324
v -0.541132 0.310452 -0.015324
v -0.471176 -0.000163 0.331955
v -0.215563 0.000327 0.331955
v -0.471398 1.113344 0.331955
v 0.469993 1.113344 0.331955
v -0.436276 1.113344 0.294049
v -0.216637 0.733948 0.331955
v 0.215303 0.733948 0.331955
v -0.216637 0.733948 0.281721
v -0.215563 0.000327 0.281721
v 0.215303 0.733948 0.281721
v 0.216377 0.000327 0.281721
v 0.216377 0.000327 0.331955
v 0.472063 -0.000163 0.331955
v 0.472063 -0.000163 -0.015324
v 0.469993 1.113344 -0.015324
v 0.542286 0.310452 -0.015324
v 1.174637 -0.000163 -0.015324
v 1.174637 1.113344 -0.015324
v 1.174637 -0.000163 -0.914981
v 1.104524 0.310452 -0.015324
v 1.104524 0.802728 -0.015324
v 1.104524 0.310452 -0.064246
v 0.542286 0.310452 -0.064246
v 1.104524 0.802728 -0.064246
v 0.539997 0.802728 -0.064246
v 0.539997 0.802728 -0.015324
v 1.174637 1.113344 -0.914981
v -1.176333 1.113344 -0.914981
v 1.139515 1.113344 -0.879481
v 1.139515 1.075446 -0.879481
v -1.141211 1.113344 -0.879481
v 1.139515 1.113344 -0.040061
v 0.434872 1.113344 -0.040061
v 1.139515 1.075447 -0.040061
v 0.434872 1.075447 -0.040061
v -0.436276 1.075447 -0.040061
v 0.434872 1.075447 0.294049
v 0.434872 1.113344 0.294049
v -0.436276 1.075447 0.294049
v -0.436276 1.113344 -0.040061
v -1.141211 1.075446 -0.879481
v -1.141211 1.075447 -0.040061
v -1.141211 1.113344 -0.040061
v -0.541376 0.802728 -0.015324
v -0.541132 0.310452 -0.064246
v -1.106365 0.310452 -0.064246
v -0.541376 0.802728 -0.064246
v -1.106365 0.802728 -0.064246
v -1.106365 0.802728 -0.015324
v -0.220267 0.668766 0.447024
v -0.184044 0.660356 0.455434
v -0.219965 0.775286 0.340661
v -0.216787 0.775743 0.317087
v -0.183741 0.774760 0.341187
v -0.180563 0.775743 0.317087
v -0.147516 0.775286 0.340661
v -0.111294 0.774760 0.341187
v -0.144341 0.775743 0.317087
v -0.147820 0.668766 0.447024
v -0.111597 0.660356 0.455434
v -0.075373 0.668766 0.447024
v -0.039150 0.660356 0.455434
v -0.075070 0.775286 0.340661
v -0.071892 0.775743 0.317087
v -0.038847 0.774760 0.341187
v -0.035669 0.775743 0.317087
v -0.002623 0.775286 0.340661
v -0.002926 0.668766 0.447024
v 0.033602 0.774760 0.341187
v 0.000555 0.775743 0.317087
v 0.036777 0.775743 0.317087
v 0.073002 0.775743 0.317087
v 0.109224 0.775743 0.317087
v 0.069824 0.775286 0.340661
v 0.069521 0.668766 0.447024
v 0.106048 0.774760 0.341187
v 0.105745 0.660356 0.455434
v 0.142271 0.775286 0.340661
v 0.178495 0.774760 0.341187
v 0.145449 0.775743 0.317087
v 0.141968 0.668766 0.447024
v 0.178192 0.660356 0.455434
v 0.214416 0.668766 0.447024
v 0.214718 0.775286 0.340661
v 0.217895 0.775743 0.317087
v 0.181673 0.775743 0.317087
v 0.033298 0.660356 0.455434
v -0.108116 0.775743 0.317087
v 0.215620 0.759098 0.320152
v 0.215620 0.771767 0.327466
v -0.224617 0.759098 0.320151
v 0.215620 0.746429 0.327466
v 0.215620 0.759098 0.349409
v -0.224617 0.759098 0.349409
v 0.215620 0.746429 0.342095
v 0.215620 0.771767 0.342095
v -0.224617 0.771767 0.342094
v -0.224617 0.771767 0.327466
v -0.224617 0.746430 0.342094
v -0.224617 0.746430 0.327466
v -0.215775 -0.000787 0.300686
v -0.215775 0.024025 0.300686
v -0.195030 -0.001223 0.301189
v -0.072086 -0.004022 0.304419
v -0.195030 0.023589 0.301189
v -0.195030 0.023589 0.251048
v -0.072086 0.020790 0.304419
v -0.195030 0.772850 0.301189
v -0.072086 0.770051 0.304419
v -0.215775 0.773286 0.300686
v -0.195030 0.772850 0.251048
v -0.195030 0.792752 0.301189
v -0.215775 0.793189 0.300686
v -0.072086 0.789953 0.304419
v -0.049757 0.789846 0.304543
v -0.049757 0.769943 0.304543
v 0.193607 0.793042 0.300855
v 0.193607 0.773139 0.300855
v 0.215936 0.793189 0.300686
v 0.215936 0.773286 0.300686
v 0.215936 0.024025 0.300686
v 0.215936 -0.000787 0.300686
v 0.193607 0.023878 0.300855
v 0.193607 0.023878 0.250714
v 0.193607 -0.000933 0.300855
v -0.049757 0.020682 0.304543
v -0.049757 -0.004130 0.304543
v -0.049757 0.020682 0.254403
v -0.049757 0.769943 0.254403
v 0.193607 0.773139 0.250714
v -0.072086 0.770051 0.254279
v -0.072086 0.020790 0.254279
v -0.501766 0.839250 -0.012299
v -0.501766 0.851919 -0.004985
v -1.149056 0.839250 -0.012299
v -0.501766 0.826581 -0.004985
v -0.501766 0.839250 0.016959
v -0.501766 0.851919 0.009644
v -1.149056 0.839250 0.016958
v -0.501766 0.826581 0.009644
v -1.149056 0.826581 0.009644
v -1.149056 0.826581 -0.004985
v -1.149056 0.851919 0.009644
v -1.149056 0.851919 -0.004985
v -1.145973 0.748918 0.114573
v -1.110459 0.740508 0.122983
v -1.145676 0.855437 0.008211
v -1.142561 0.855895 -0.015363
v -1.110161 0.854912 0.008737
v -1.074648 0.855437 0.008211
v -1.107046 0.855895 -0.015363
v -1.071533 0.855895 -0.015363
v -1.036020 0.855895 -0.015363
v -1.000506 0.855895 -0.015363
v -1.039135 0.854912 0.008737
v -1.003620 0.855437 0.008211
v -1.039433 0.740508 0.122983
v -1.074946 0.748918 0.114573
v -1.003918 0.748918 0.114573
v -0.968405 0.740508 0.122983
v -0.932892 0.748918 0.114573
v -0.968107 0.854912 0.008737
v -0.964993 0.855895 -0.015363
v -0.932594 0.855437 0.008211
v -0.929480 0.855895 -0.015363
v -0.897082 0.854912 0.008737
v -0.861567 0.855437 0.008211
v -0.893965 0.855895 -0.015363
v -0.897377 0.740508 0.122983
v -0.861864 0.748918 0.114573
v -0.826351 0.740508 0.122983
v -0.790836 0.748918 0.114573
v -0.826054 0.854912 0.008737
v -0.790541 0.855437 0.008211
v -0.822939 0.855895 -0.015363
v -0.787424 0.855895 -0.015363
v -0.858452 0.855895 -0.015363
v -0.751911 0.855895 -0.015363
v -0.716398 0.855895 -0.015363
v -0.755026 0.854912 0.008737
v -0.719513 0.855437 0.008211
v -0.755324 0.740508 0.122983
v -0.719811 0.748918 0.114573
v -0.684296 0.740508 0.122983
v -0.648783 0.748918 0.114573
v -0.684000 0.854912 0.008737
v -0.680884 0.855895 -0.015363
v -0.648485 0.855437 0.008211
v -0.645371 0.855895 -0.015363
v -0.612972 0.854912 0.008737
v -0.577459 0.855437 0.008211
v -0.609858 0.855895 -0.015363
v -0.613270 0.740508 0.122983
v -0.577755 0.748918 0.114573
v -0.542242 0.740508 0.122983
v -0.541945 0.854912 0.008737
v -0.506729 0.748918 0.114573
v -0.506432 0.855437 0.008211
v -0.503317 0.855895 -0.015363
v -0.538830 0.855895 -0.015363
v -0.574343 0.855895 -0.015363
v 1.138168 0.839250 -0.012299
v 1.138168 0.851919 -0.004985
v 0.490877 0.839250 -0.012299
v 1.138168 0.826581 -0.004985
v 1.138168 0.839250 0.016959
v 1.138168 0.851919 0.009644
v 0.490877 0.839250 0.016958
v 1.138168 0.826581 0.009644
v 0.490877 0.826581 0.009644
v 0.490877 0.826581 -0.004985
v 0.490877 0.851919 0.009644
v 0.490877 0.851919 -0.004985
v 0.493961 0.748918 0.114573
v 0.529474 0.740508 0.122983
v 0.494257 0.855437 0.008211
v 0.497373 0.855895 -0.015363
v 0.529772 0.854912 0.008737
v 0.532886 0.855895 -0.015363
v 0.565285 0.855437 0.008211
v 0.600797 0.854912 0.008737
v 0.564987 0.748918 0.114573
v 0.568399 0.855895 -0.015363
v 0.603914 0.855895 -0.015363
v 0.639427 0.855895 -0.015363
v 0.674940 0.855895 -0.015363
v 0.636312 0.855437 0.008211
v 0.671825 0.854912 0.008737
v 0.636015 0.748918 0.114573
v 0.600502 0.740508 0.122983
v 0.671528 0.740508 0.122983
v 0.707043 0.748918 0.114573
v 0.742555 0.740508 0.122983
v 0.707338 0.855437 0.008211
v 0.742853 0.854912 0.008737
v 0.710455 0.855895 -0.015363
v 0.745968 0.855895 -0.015363
v 0.781481 0.855895 -0.015363
v 0.816995 0.855895 -0.015363
v 0.778366 0.855437 0.008211
v 0.778068 0.748918 0.114573
v 0.813879 0.854912 0.008737
v 0.813583 0.740508 0.122983
v 0.849394 0.855437 0.008211
v 0.884907 0.854912 0.008737
v 0.849096 0.748918 0.114573
v 0.852508 0.855895 -0.015363
v 0.888021 0.855895 -0.015363
v 0.923536 0.855895 -0.015363
v 0.959049 0.855895 -0.015363
v 0.920420 0.855437 0.008211
v 0.955934 0.854912 0.008737
v 0.920124 0.748918 0.114573
v 0.884609 0.740508 0.122983
v 0.955637 0.740508 0.122983
v 0.991150 0.748918 0.114573
v 1.026663 0.740508 0.122983
v 0.991447 0.855437 0.008211
v 1.026960 0.854912 0.008737
v 0.994562 0.855895 -0.015363
v 1.030075 0.855895 -0.015363
v 1.065590 0.855895 -0.015363
v 1.101103 0.855895 -0.015363
v 1.062475 0.855437 0.008211
v 1.062177 0.748918 0.114573
v 1.097988 0.854912 0.008737
v 1.097690 0.740508 0.122983
v 1.133501 0.855437 0.008211
v 1.133203 0.748918 0.114573
v 1.136616 0.855895 -0.015363
v -0.000845 1.058198 -0.082775
v 0.124090 1.058198 -0.031024
v -0.000845 1.483815 -0.117661
v -0.125782 1.058198 -0.031024
v -0.177534 1.058198 0.093913
v -0.150452 1.483815 -0.055692
v -0.212420 1.483815 0.093913
v -0.150452 1.483815 0.243518
v -0.000845 1.483815 0.305487
v -0.125782 1.058198 0.218850
v -0.000845 1.058198 0.270601
v 0.124090 1.058198 0.218850
v 0.175842 1.058198 0.093913
v 0.148760 1.483815 0.243518
v 0.210728 1.483815 0.093913
v 0.148760 1.483815 -0.055692
v -0.000845 1.193763 -0.105674
v -0.141976 1.193763 -0.047216
v -0.000845 1.335635 -0.117302
v 0.140283 1.193763 -0.047216
v -0.000845 1.194686 -0.094403
v -0.134007 1.194686 -0.039247
v 0.132315 1.194686 -0.039247
v 0.187471 1.194686 0.093913
v 0.198740 1.193763 0.093913
v 0.132315 1.194686 0.227073
v 0.140283 1.193763 0.235042
v -0.000845 1.194686 0.282229
v -0.000845 1.193763 0.293500
v -0.134007 1.194686 0.227073
v -0.141976 1.193763 0.235042
v -0.189163 1.194686 0.093913
v -0.200432 1.193763 0.093913
v -0.212061 1.335635 0.093913
v -0.150198 1.335635 0.243265
v -0.150198 1.335635 -0.055439
v -0.200791 1.336559 0.093913
v -0.142229 1.336559 0.235296
v -0.142229 1.336559 -0.047470
v -0.000845 1.336559 -0.106032
v 0.140537 1.336559 -0.047470
v 0.148506 1.335635 -0.055439
v 0.199098 1.336559 0.093913
v 0.210369 1.335635 0.093913
v 0.140537 1.336559 0.235296
v 0.148506 1.335635 0.243265
v -0.000845 1.336559 0.293858
v -0.000845 1.335635 0.305128
v -0.000845 1.480627 -0.130966
v -0.159859 1.480627 -0.065100
v -0.000845 1.480627 0.093913
v 0.158167 1.480627 -0.065100
v -0.000845 1.508700 -0.130966
v -0.159859 1.508700 -0.065100
v 0.158167 1.508700 -0.065100
v -0.000847 1.508700 -0.095060
v -0.134470 1.508700 -0.039711
v 0.132778 1.508700 -0.039711
v -0.000847 1.526345 -0.095060
v -0.134470 1.526345 -0.039711
v 0.132778 1.526345 -0.039711
v -0.000847 1.526345 0.093913
v 0.188125 1.526345 0.093913
v -0.189819 1.526345 0.093913
v -0.000847 1.526345 0.282885
v -0.134470 1.526345 0.227536
v -0.000847 1.508700 0.282885
v 0.132778 1.526345 0.227536
v 0.132778 1.508700 0.227536
v 0.158167 1.508700 0.252926
v 0.188125 1.508700 0.093913
v 0.224033 1.508700 0.093913
v 0.224033 1.480627 0.093913
v 0.158167 1.480627 0.252926
v -0.000845 1.480627 0.318792
v -0.159859 1.480627 0.252926
v -0.000845 1.508700 0.318792
v -0.159859 1.508700 0.252926
v -0.225725 1.508700 0.093913
v -0.134470 1.508700 0.227536
v -0.189819 1.508700 0.093913
v -0.225725 1.480627 0.093913
v 0.058605 1.284829 0.072366
v 0.068218 1.282253 0.076489
v 0.172872 1.711283 0.072366
v 0.048990 1.287405 0.076489
v 0.163257 1.713860 0.076489
v 0.045008 1.288472 0.086443
v 0.048990 1.287405 0.096396
v 0.159275 1.714927 0.086443
v 0.163257 1.713860 0.096396
v 0.172872 1.711283 0.100519
v 0.182487 1.708707 0.096396
v 0.058605 1.284829 0.100519
v 0.068218 1.282253 0.096396
v 0.072201 1.281185 0.086443
v 0.186470 1.707640 0.086443
v 0.182487 1.708707 0.076489
v -1.198574 0.954637 0.011948
v -0.496147 0.954636 0.011948
v -1.198574 0.894602 0.011948
v -1.198574 0.954637 -0.940032
v -1.176331 0.954637 -0.015324
v -0.471293 0.954637 -0.015324
v -1.176331 0.954637 -0.914981
v 1.174639 0.954637 -0.914981
v 1.196882 0.954637 -0.940032
v 1.174639 0.954637 -0.015324
v 1.196882 0.954637 0.011948
v 0.470964 0.954637 -0.015324
v 0.470964 0.954637 0.331955
v 0.495825 0.954644 0.011946
v 0.495813 0.954644 0.359229
v 0.495941 0.894609 0.011950
v 0.471092 0.894602 -0.015324
v 0.495954 0.894609 0.359224
v 1.196882 0.894602 0.011948
v 1.196882 0.894602 -0.940032
v 1.174639 0.894602 -0.015324
v 1.174639 0.894602 -0.914981
v -1.176331 0.894602 -0.914981
v -1.198574 0.894602 -0.940032
v -1.176331 0.894602 -0.015324
v -0.471279 0.894602 -0.015324
v -0.496134 0.894601 0.011948
v -0.471279 0.894602 0.331955
v -0.496134 0.894601 0.359227
v 0.471092 0.894602 0.331955
v -0.496149 0.954636 0.359226
v -0.471293 0.954637 0.331955
vn -1.0000 -0.0000 -0.0000
vn -0.0000 -0.0000 1.0000
vn -1.0000 -0.0002 -0.0000
vn -0.0000 1.0000 -0.0000
vn 1.0000 0.0015 -0.0000
vn -0.0000 -1.0000 -0.0000
vn -1.0000 -0.0015 -0.0000
vn 1.0000 0.0019 -0.0000
vn 1.0000 -0.0000 -0.0000
vn 1.0000 0.0047 -0.0000
vn -0.0000 -0.0000 -1.0000
vn -1.0000 -0.0005 -0.0000
vn -0.0000 0.7066 0.7076
vn -0.0001 0.7066 0.7076
vn 0.0070 0.9995 0.0311
vn -0.0064 0.9995 0.0294
vn 0.0064 0.9995 0.0311
vn 0.0063 0.9995 0.0311
vn 0.0001 0.7066 0.7076
vn -0.0070 0.9995 0.0293
vn -0.0000 0.5000 -0.8660
vn -0.0000 -0.5000 -0.8660
vn -0.0000 -0.5000 0.8660
vn -0.0000 0.5000 0.8660
vn -0.0242 -0.0000 0.9997
vn -0.0253 -0.0000 0.9997
vn -0.0249 -0.0000 0.9997
vn -0.0263 -0.0000 0.9997
vn 0.0228 0.9997 -0.0000
vn -0.0228 -0.9997 -0.0000
vn -0.0252 -0.0000 0.9997
vn -0.0056 -0.0000 1.0000
vn 0.0152 -0.0000 0.9999
vn 0.0101 -0.0000 0.9999
vn 0.0113 -0.0000 0.9999
vn 0.0076 -0.0000 1.0000
vn 0.0114 -0.0000 0.9999
vn -0.0131 0.9999 -0.0000
vn 0.0131 -0.9999 -0.0000
vn 0.0072 0.9995 0.0311
vn -0.0072 0.9995 0.0293
vn 0.3816 -0.0755 -0.9212
vn -0.3816 -0.0755 -0.9212
vn -0.9212 -0.0755 -0.3816
vn -0.9212 -0.0755 0.3816
vn -0.3816 -0.0755 0.9212
vn 0.3816 -0.0755 0.9212
vn 0.9212 -0.0755 0.3816
vn 0.9212 -0.0755 -0.3816
vn 0.0338 -0.9961 0.0816
vn -0.0338 -0.9961 0.0816
vn -0.0816 -0.9961 0.0338
vn -0.0816 -0.9961 -0.0338
vn -0.0338 -0.9961 -0.0816
vn 0.0338 -0.9961 -0.0816
vn 0.0816 -0.9961 -0.0338
vn 0.0816 -0.9961 0.0338
vn -0.0817 0.9961 0.0338
vn -0.0817 0.9961 -0.0338
vn -0.0338 0.9961 -0.0817
vn 0.0338 0.9961 -0.0817
vn 0.0817 0.9961 -0.0338
vn 0.0817 0.9961 0.0338
vn 0.0338 0.9961 0.0817
vn -0.0338 0.9961 0.0817
vn -0.3827 -0.0000 -0.9239
vn 0.3827 -0.0000 -0.9239
vn -0.3827 -0.0000 0.9239
vn 0.3827 -0.0000 0.9239
vn 0.9239 -0.0000 0.3827
vn 0.9239 -0.0000 -0.3827
vn -0.9239 -0.0000 0.3827
vn -0.9239 -0.0000 -0.3827
vn 0.3697 -0.0991 -0.9239
vn -0.3696 0.0990 -0.9239
vn -0.8924 0.2391 -0.3826
vn -0.8924 0.2391 0.3827
vn -0.3696 0.0990 0.9239
vn 0.3697 -0.0991 0.9239
vn 0.8924 -0.2391 0.3828
vn 0.8924 -0.2391 -0.3827
vn -0.0000 1.0000 -0.0001
vn -0.0001 1.0000 -0.0001
vn 1.0000 0.0021 -0.0000
vn 0.0001 -1.0000 0.0001
vn -0.0000 -1.0000 0.0001
vt 0.560223 0.350430
vt 0.608930 0.395759
vt 0.572654 0.433318
vt 0.524084 0.389299
vt 0.786030 0.941044
vt 0.795473 0.970704
vt 0.797110 0.989710
vt 0.776446 0.924286
vt 0.819826 0.930329
vt 0.818567 0.911766
vt 0.828744 0.959372
vt 0.837942 0.975666
vt 0.838955 0.906231
vt 0.857407 0.969084
vt 0.854090 0.902349
vt 0.663188 0.421911
vt 0.643665 0.429015
vt 0.643328 0.426588
vt 0.664283 0.419149
vt 0.689820 0.466872
vt 0.692716 0.467328
vt 0.866965 0.945060
vt 0.894451 0.944147
vt 0.901855 0.970183
vt 0.856863 0.901424
vt 0.868765 0.942667
vt 0.892649 0.941836
vt 0.911557 0.903091
vt 0.908919 0.901791
vt 0.926190 0.908751
vt 0.945762 0.916491
vt 0.920641 0.978684
vt 0.942688 0.935113
vt 0.931251 0.963414
vt 0.975467 0.947894
vt 0.986338 0.932250
vt 0.963850 0.976724
vt 0.960560 0.995747
vt 0.725115 0.580896
vt 0.677065 0.602356
vt 0.651280 0.541659
vt 0.697194 0.520921
vt 0.962791 0.974277
vt 0.973130 0.949170
vt 0.943744 0.937525
vt 0.933556 0.962169
vt 0.599242 0.581791
vt 0.519047 0.472464
vt 0.575471 0.433542
vt 0.651990 0.538949
vt 0.694941 0.519556
vt 0.652782 0.536866
vt 0.692964 0.518666
vt 0.577681 0.433328
vt 0.675563 0.479007
vt 0.677787 0.480213
vt 0.673352 0.478562
vt 0.643069 0.431208
vt 0.662163 0.423759
vt 0.687625 0.466845
vt 0.609602 0.398308
vt 0.609884 0.400499
vt 0.826412 0.958212
vt 0.818802 0.932759
vt 0.788398 0.942258
vt 0.796441 0.968219
vt 0.971637 0.004289
vt 0.971620 0.013776
vt 0.969494 0.013809
vt 0.969511 0.004978
vt 0.971803 0.015193
vt 0.969679 0.015191
vt 0.973746 0.013822
vt 0.973928 0.015204
vt 0.973760 0.004994
vt 0.975887 0.004304
vt 0.975871 0.013791
vt 0.976053 0.015208
vt 0.978009 0.005008
vt 0.977997 0.013837
vt 0.980136 0.004318
vt 0.980122 0.013805
vt 0.978179 0.015219
vt 0.980304 0.015222
vt 0.982247 0.013851
vt 0.982430 0.015233
vt 0.982258 0.005022
vt 0.984385 0.004332
vt 0.984373 0.013819
vt 0.984555 0.015236
vt 0.986498 0.013864
vt 0.986681 0.015246
vt 0.988624 0.013832
vt 0.988805 0.015249
vt 0.986508 0.005036
vt 0.988634 0.004345
vt 0.990749 0.013877
vt 0.990931 0.015259
vt 0.990757 0.005049
vt 0.992883 0.004357
vt 0.992875 0.013845
vt 0.993055 0.015262
vt 0.995006 0.005061
vt 0.995000 0.013891
vt 0.995179 0.015275
vt 0.224658 0.004290
vt 0.225265 0.005597
vt 0.224422 0.005757
vt 0.224112 0.004659
vt 0.520167 0.005546
vt 0.503561 0.009756
vt 0.502960 0.008498
vt 0.520499 0.004274
vt 0.286860 0.031911
vt 0.257578 0.015520
vt 0.257901 0.014944
vt 0.287183 0.031335
vt 0.406761 0.007521
vt 0.401073 0.004405
vt 0.401152 0.004265
vt 0.406787 0.007381
vt 0.286214 0.033063
vt 0.256932 0.016672
vt 0.257255 0.016096
vt 0.286537 0.032487
vt 0.285891 0.033640
vt 0.256609 0.017248
vt 0.285568 0.034216
vt 0.256287 0.017824
vt 0.032779 0.005027
vt 0.031063 0.005051
vt 0.031481 0.004302
vt 0.032339 0.004290
vt 0.187433 0.004290
vt 0.187872 0.005027
vt 0.187454 0.005776
vt 0.186574 0.004302
vt 0.440496 0.494402
vt 0.441876 0.494439
vt 0.441650 0.496023
vt 0.440329 0.495976
vt 0.453502 0.494358
vt 0.453554 0.495953
vt 0.439975 0.543983
vt 0.438654 0.543985
vt 0.451259 0.497643
vt 0.444020 0.498032
vt 0.442198 0.542048
vt 0.451875 0.544381
vt 0.449520 0.542507
vt 0.451734 0.545644
vt 0.440023 0.545268
vt 0.438610 0.545206
vt 0.453286 0.544483
vt 0.453261 0.545748
vt 0.472938 0.545272
vt 0.472872 0.546543
vt 0.474359 0.545329
vt 0.474350 0.546561
vt 0.475822 0.497034
vt 0.474399 0.496986
vt 0.475885 0.495489
vt 0.474459 0.495407
vt 0.454979 0.495954
vt 0.472068 0.498851
vt 0.457329 0.497828
vt 0.470560 0.543232
vt 0.455105 0.494381
vt 0.455635 0.542871
vt 0.112358 0.004290
vt 0.112798 0.005027
vt 0.112379 0.005776
vt 0.111500 0.004302
vt 0.415130 0.027654
vt 0.379623 0.007778
vt 0.380015 0.007079
vt 0.415521 0.026955
vt 0.423546 0.023297
vt 0.390348 0.005109
vt 0.390808 0.004290
vt 0.423699 0.022480
vt 0.171033 0.004290
vt 0.171640 0.005597
vt 0.170797 0.005757
vt 0.170487 0.004659
vt 0.415913 0.026256
vt 0.380406 0.006380
vt 0.380798 0.005682
vt 0.416304 0.025558
vt 0.381189 0.004983
vt 0.416696 0.024859
vt 0.381581 0.004284
vt 0.417088 0.024160
vt 0.040000 0.004535
vt 0.036550 0.005410
vt 0.036425 0.005148
vt 0.040070 0.004271
vt 0.258003 0.005027
vt 0.256287 0.005051
vt 0.256705 0.004302
vt 0.257563 0.004290
vt 0.720288 0.103188
vt 0.719539 0.112646
vt 0.717458 0.112518
vt 0.718155 0.103715
vt 0.719608 0.114073
vt 0.717533 0.113910
vt 0.722307 0.104052
vt 0.721613 0.112852
vt 0.721685 0.114244
vt 0.723693 0.112981
vt 0.723761 0.114408
vt 0.725767 0.113188
vt 0.725839 0.114580
vt 0.724440 0.103524
vt 0.726460 0.104387
vt 0.728592 0.103859
vt 0.727847 0.113317
vt 0.730613 0.104721
vt 0.729921 0.113523
vt 0.729993 0.114915
vt 0.727915 0.114743
vt 0.732745 0.104193
vt 0.732001 0.113651
vt 0.732070 0.115078
vt 0.734765 0.105056
vt 0.734075 0.113857
vt 0.734147 0.115249
vt 0.736897 0.104527
vt 0.736155 0.113985
vt 0.738918 0.105389
vt 0.738229 0.114191
vt 0.736224 0.115412
vt 0.738301 0.115582
vt 0.740309 0.114318
vt 0.740378 0.115745
vt 0.742383 0.114523
vt 0.742456 0.115915
vt 0.741050 0.104860
vt 0.743071 0.105722
vt 0.745203 0.105193
vt 0.744464 0.114651
vt 0.747223 0.106054
vt 0.746538 0.114856
vt 0.746610 0.116248
vt 0.744533 0.116078
vt 0.749355 0.105525
vt 0.748618 0.114983
vt 0.748687 0.116410
vt 0.751376 0.106386
vt 0.750692 0.115188
vt 0.750764 0.116579
vt 0.753508 0.105856
vt 0.752772 0.115315
vt 0.755529 0.106717
vt 0.754847 0.115521
vt 0.754916 0.116914
vt 0.752840 0.116742
vt 0.106996 0.004290
vt 0.107435 0.005027
vt 0.107017 0.005776
vt 0.106137 0.004302
vt 0.120194 0.027654
vt 0.084688 0.007778
vt 0.085079 0.007079
vt 0.120586 0.026955
vt 0.235860 0.023297
vt 0.202662 0.005109
vt 0.203122 0.004290
vt 0.236012 0.022480
vt 0.208570 0.004290
vt 0.209177 0.005597
vt 0.208334 0.005757
vt 0.208024 0.004659
vt 0.120977 0.026256
vt 0.085471 0.006380
vt 0.085862 0.005682
vt 0.121369 0.025558
vt 0.086254 0.004983
vt 0.121761 0.024859
vt 0.086645 0.004284
vt 0.122152 0.024160
vt 0.023913 0.004535
vt 0.020463 0.005410
vt 0.020338 0.005148
vt 0.023982 0.004271
vt 0.199016 0.005027
vt 0.197299 0.005051
vt 0.197718 0.004302
vt 0.198576 0.004290
vt 0.688350 0.037870
vt 0.689099 0.028412
vt 0.691179 0.028540
vt 0.690482 0.037343
vt 0.689030 0.026985
vt 0.691105 0.027148
vt 0.686330 0.037006
vt 0.687025 0.028206
vt 0.686953 0.026814
vt 0.684198 0.037534
vt 0.684944 0.028076
vt 0.684876 0.026650
vt 0.682871 0.027870
vt 0.682799 0.026478
vt 0.680790 0.027741
vt 0.680722 0.026314
vt 0.682178 0.036671
vt 0.680045 0.037199
vt 0.678025 0.036336
vt 0.678717 0.027535
vt 0.675893 0.036865
vt 0.676636 0.027407
vt 0.678645 0.026143
vt 0.676568 0.025980
vt 0.674563 0.027201
vt 0.674491 0.025809
vt 0.672482 0.027073
vt 0.672414 0.025646
vt 0.673873 0.036002
vt 0.671740 0.036531
vt 0.669720 0.035669
vt 0.670408 0.026867
vt 0.670336 0.025475
vt 0.667588 0.036198
vt 0.668328 0.026739
vt 0.668260 0.025313
vt 0.666254 0.026534
vt 0.666182 0.025143
vt 0.664174 0.026407
vt 0.664105 0.024980
vt 0.665567 0.035336
vt 0.663435 0.035865
vt 0.661414 0.035004
vt 0.662100 0.026202
vt 0.659282 0.035533
vt 0.660020 0.026075
vt 0.662028 0.024810
vt 0.659951 0.024648
vt 0.657946 0.025870
vt 0.657874 0.024479
vt 0.655865 0.025743
vt 0.655798 0.024316
vt 0.657261 0.034672
vt 0.655130 0.035202
vt 0.653109 0.034341
vt 0.653791 0.025537
vt 0.653722 0.024144
vt 0.193442 0.492355
vt 0.197014 0.517151
vt 0.187574 0.518211
vt 0.185558 0.493240
vt 0.138500 0.488182
vt 0.131224 0.512155
vt 0.122225 0.509113
vt 0.130985 0.485642
vt 0.146160 0.490247
vt 0.140397 0.514628
vt 0.153934 0.491830
vt 0.149705 0.516523
vt 0.161792 0.492924
vt 0.159114 0.517833
vt 0.169702 0.493525
vt 0.168587 0.518553
vt 0.177635 0.493630
vt 0.178086 0.518679
vt 0.247480 0.011999
vt 0.242217 0.004362
vt 0.242914 0.004282
vt 0.247990 0.011674
vt 0.240855 0.016872
vt 0.235113 0.009828
vt 0.290679 0.057385
vt 0.285282 0.064479
vt 0.278286 0.057803
vt 0.283948 0.051877
vt 0.284317 0.051390
vt 0.290826 0.056697
vt 0.277435 0.045558
vt 0.277859 0.045124
vt 0.271081 0.039135
vt 0.271521 0.038716
vt 0.264897 0.032573
vt 0.265350 0.032165
vt 0.258897 0.025853
vt 0.259360 0.025458
vt 0.253088 0.018991
vt 0.253564 0.018615
vt 0.252537 0.031358
vt 0.246583 0.024248
vt 0.252083 0.031754
vt 0.246122 0.024634
vt 0.240417 0.017290
vt 0.234837 0.010477
vt 0.284618 0.064700
vt 0.277846 0.058208
vt 0.271562 0.051502
vt 0.271140 0.051930
vt 0.265036 0.044983
vt 0.264604 0.045404
vt 0.258692 0.038263
vt 0.258249 0.038672
vt 0.325654 0.324724
vt 0.332114 0.317282
vt 0.333193 0.318530
vt 0.327039 0.325595
vt 0.312429 0.324385
vt 0.312754 0.311143
vt 0.322018 0.315257
vt 0.321579 0.333970
vt 0.312108 0.337623
vt 0.323101 0.334634
vt 0.334462 0.320079
vt 0.328726 0.326701
vt 0.325257 0.334652
vt 0.335141 0.320863
vt 0.329605 0.327252
vt 0.326201 0.335060
vt 0.337541 0.324144
vt 0.345349 0.327556
vt 0.337327 0.335274
vt 0.329307 0.342993
vt 0.345045 0.343297
vt 0.337113 0.346404
vt 0.348457 0.335490
vt 0.350372 0.313211
vt 0.359127 0.313577
vt 0.358936 0.314596
vt 0.350491 0.314240
vt 0.367384 0.316510
vt 0.366902 0.317428
vt 0.374423 0.321738
vt 0.373687 0.322475
vt 0.359550 0.311619
vt 0.368366 0.314764
vt 0.375864 0.320369
vt 0.381534 0.328268
vt 0.379505 0.328751
vt 0.378671 0.329369
vt 0.377029 0.319201
vt 0.382892 0.327284
vt 0.369135 0.313304
vt 0.302835 0.333515
vt 0.299186 0.324056
vt 0.359853 0.309997
vt 0.350009 0.309576
vt 0.350198 0.311215
vt 0.303296 0.314789
vt 0.340480 0.312079
vt 0.341144 0.313589
vt 0.341899 0.315445
vt 0.342316 0.316393
vt 0.014122 0.004494
vt 0.004841 0.028674
vt 0.004251 0.028448
vt 0.013532 0.004267
vt 0.014712 0.004720
vt 0.005431 0.028901
vt 0.015302 0.004946
vt 0.006021 0.029127
vt 0.015892 0.005173
vt 0.006611 0.029354
vt 0.016482 0.005399
vt 0.007201 0.029580
vt 0.017072 0.005626
vt 0.007791 0.029807
vt 0.017662 0.005852
vt 0.008381 0.030033
vt 0.018252 0.006079
vt 0.008971 0.030259
vt 0.324418 0.541261
vt 0.358310 0.556158
vt 0.357832 0.557675
vt 0.323459 0.542400
vt 0.325887 0.537719
vt 0.360086 0.552447
vt 0.281999 0.523416
vt 0.283488 0.519839
vt 0.281297 0.524627
vt 0.149037 0.469589
vt 0.149780 0.471645
vt 0.474139 0.603288
vt 0.524810 0.624650
vt 0.522878 0.625399
vt 0.474076 0.604760
vt 0.440259 0.588898
vt 0.439516 0.590288
vt 0.425741 0.582686
vt 0.424786 0.583932
vt 0.442026 0.585184
vt 0.475557 0.599757
vt 0.427089 0.579139
vt 0.427278 0.577557
vt 0.442507 0.583670
vt 0.476579 0.598682
vt 0.526371 0.621036
vt 0.525558 0.619133
vt 0.150540 0.465976
vt 0.152409 0.464983
vt 0.283855 0.518504
vt 0.326036 0.536247
vt 0.360841 0.551064
vt 0.374562 0.558684
vt 0.375524 0.557439
vt 0.373213 0.562231
vt 0.373027 0.563815
s 1
f 1/1/1 3/2/1 35/3/1 2/4/1
f 4/5/2 56/6/2 3/7/2 1/8/2
f 7/9/2 4/5/2 1/8/2 5/10/2
f 51/11/2 7/9/2 5/10/2 6/12/2
f 5/10/3 8/13/3 10/14/3 6/12/3
f 9/15/2 10/14/2 8/13/2
f 12/16/4 47/17/4 6/18/4 10/19/4
f 45/20/4 12/16/4 10/19/4 11/21/4
f 13/22/2 14/23/2 11/24/2 10/14/2
f 9/15/2 13/22/2 10/14/2
f 9/15/5 16/25/5 15/26/5 13/22/5
f 14/23/6 13/22/6 15/26/6 17/27/6
f 19/28/7 14/23/7 17/27/7 18/29/7
f 20/30/2 11/24/2 19/28/2
f 14/23/2 19/28/2 11/24/2
f 21/31/8 22/32/8 11/24/8 20/30/8
f 23/33/2 33/34/2 22/32/2 21/31/2
f 27/35/2 23/33/2 21/31/2 24/36/2
f 28/37/2 27/35/2 24/36/2 25/38/2
f 24/39/9 26/40/9 34/41/9 25/42/9
f 27/35/1 28/37/1 31/43/1 29/44/1
f 23/33/4 27/35/4 29/44/4 30/45/4
f 32/46/2 30/45/2 29/44/2 31/43/2
f 28/37/6 33/34/6 32/46/6 31/43/6
f 33/34/10 23/33/10 30/45/10 32/46/10
f 33/34/2 28/37/2 25/38/2 22/32/2
f 35/3/11 34/41/11 26/47/11 2/48/11
f 38/49/4 36/50/4 34/41/4 35/3/4
f 36/50/4 39/51/4 25/42/4 34/41/4
f 39/51/1 36/50/1 37/52/1 41/53/1
f 36/50/2 38/49/2 48/54/2 37/52/2
f 39/51/4 40/55/4 22/56/4 25/42/4
f 40/55/11 39/51/11 41/53/11 42/57/11
f 37/52/4 42/57/4 41/53/4
f 42/57/4 37/52/4 48/54/4 43/58/4
f 42/57/4 43/58/4 46/59/4 44/60/4
f 45/20/1 40/55/1 42/57/1 44/60/1
f 12/16/11 45/20/11 44/60/11 46/59/11
f 47/17/9 12/16/9 46/59/9 43/58/9
f 40/55/4 45/20/4 11/21/4 22/56/4
f 50/61/11 47/17/11 43/58/11 49/62/11
f 48/54/4 49/62/4 43/58/4
f 38/49/9 50/61/9 49/62/9 48/54/9
f 47/17/4 50/61/4 3/2/4 6/18/4
f 50/61/4 38/49/4 35/3/4 3/2/4
f 7/9/12 51/11/12 54/63/12 52/64/12
f 4/5/4 7/9/4 52/64/4 53/65/4
f 52/64/2 54/63/2 55/66/2 53/65/2
f 51/11/6 56/6/6 55/66/6 54/63/6
f 56/6/9 4/5/9 53/65/9 55/66/9
f 56/6/2 51/11/2 6/12/2 3/7/2
f 58/67/13 61/68/13 59/69/14 57/70/14
f 59/69/15 61/68/16 62/71/17 60/72/15
f 61/68/16 63/73/17 65/74/16 62/71/17
f 66/75/13 63/73/13 61/68/13 58/67/13
f 67/76/13 64/77/13 63/73/13 66/75/13
f 63/73/17 64/77/16 95/78/17 65/74/16
f 68/79/13 70/80/13 64/77/13 67/76/13
f 69/81/13 72/82/13 70/80/13 68/79/13
f 64/77/16 70/80/17 71/83/16 95/78/17
f 70/80/17 72/82/16 73/84/17 71/83/16
f 72/82/16 74/85/17 77/86/16 73/84/17
f 75/87/13 74/85/13 72/82/13 69/81/13
f 94/88/13 76/89/13 74/85/13 75/87/13
f 74/85/17 76/89/16 78/90/17 77/86/16
f 76/89/16 81/91/18 79/92/16 78/90/17
f 81/91/18 83/93/16 80/94/17 79/92/16
f 82/95/13 81/91/13 76/89/13 94/88/13
f 84/96/13 83/93/13 81/91/13 82/95/13
f 83/93/16 85/97/17 87/98/16 80/94/17
f 88/99/13 85/97/13 83/93/13 84/96/13
f 89/100/13 86/101/13 85/97/13 88/99/13
f 85/97/17 86/101/16 93/102/17 87/98/16
f 90/103/19 91/104/19 86/101/13 89/100/13
f 86/101/16 91/104/20 92/105/20 93/102/17
f 97/106/9 103/107/9 100/108/9 96/109/9
f 96/110/21 98/111/21 105/112/21 97/113/21
f 99/114/22 107/115/22 98/116/22 96/117/22
f 96/118/9 100/119/9 102/120/9 99/121/9
f 100/122/23 101/123/23 106/124/23 102/125/23
f 103/126/24 104/127/24 101/123/24 100/122/24
f 97/128/4 105/129/4 104/127/4 103/126/4
f 98/130/1 101/131/1 104/132/1 105/133/1
f 102/125/6 106/124/6 107/115/6 99/114/6
f 107/134/1 106/135/1 101/136/1 98/137/1
f 108/138/25 110/139/26 112/140/27 109/141/25
f 110/139/26 111/142/28 114/143/28 112/140/27
f 112/140/27 115/144/27 117/145/25 109/141/25
f 112/140/29 114/143/29 139/146/29 113/147/29
f 115/144/9 112/140/9 113/147/9 118/148/9
f 116/149/30 115/144/30 118/148/30 138/150/30
f 115/144/27 116/149/28 121/151/28 119/152/31
f 117/145/25 115/144/27 119/152/31 120/153/25
f 123/154/32 122/155/32 121/151/32 116/149/32
f 123/154/33 125/156/34 124/157/35 122/155/33
f 127/158/36 126/159/36 124/157/35 125/156/34
f 128/160/36 127/158/36 125/156/34 130/161/34
f 129/162/36 128/160/36 130/161/34 132/163/37
f 133/164/38 130/161/38 131/165/38 135/166/38
f 130/161/1 125/156/1 137/167/1 131/165/1
f 134/168/33 132/163/37 130/161/34 133/164/33
f 134/168/32 133/164/32 114/143/32 111/142/32
f 133/164/32 123/154/32 116/149/32 114/143/32
f 123/154/9 133/164/9 135/166/9 136/169/9
f 131/165/33 137/167/33 136/169/33 135/166/33
f 125/156/39 123/154/39 136/169/39 137/167/39
f 139/146/28 138/150/28 118/148/28 113/147/28
f 114/143/1 116/149/1 138/150/1 139/146/1
f 141/170/9 145/171/9 144/172/9 140/173/9
f 140/174/21 142/175/21 151/176/21 141/177/21
f 143/178/22 149/179/22 142/180/22 140/181/22
f 140/182/9 144/183/9 147/184/9 143/185/9
f 145/186/24 150/187/24 146/188/24 144/189/24
f 144/189/23 146/188/23 148/190/23 147/191/23
f 147/191/6 148/190/6 149/192/6 143/193/6
f 149/194/1 148/195/1 146/196/1 142/197/1
f 142/198/1 146/199/1 150/200/1 151/201/1
f 141/177/4 151/176/4 150/187/4 145/186/4
f 153/202/13 156/203/13 154/204/14 152/205/14
f 154/204/40 156/203/40 158/206/40 155/207/40
f 165/208/13 157/209/13 156/203/13 153/202/13
f 156/203/41 157/209/41 159/210/41 158/206/41
f 157/209/40 162/211/40 160/212/40 159/210/40
f 162/211/41 163/213/41 161/214/41 160/212/41
f 164/215/13 162/211/13 157/209/13 165/208/13
f 166/216/13 163/213/13 162/211/13 164/215/13
f 167/217/13 169/218/13 163/213/13 166/216/13
f 168/219/13 171/220/13 169/218/13 167/217/13
f 169/218/41 171/220/41 172/221/41 170/222/41
f 163/213/40 169/218/40 170/222/40 161/214/40
f 176/223/13 173/224/13 171/220/13 168/219/13
f 171/220/40 173/224/40 175/225/40 172/221/40
f 177/226/13 174/227/13 173/224/13 176/223/13
f 173/224/41 174/227/41 184/228/41 175/225/41
f 178/229/13 180/230/13 174/227/13 177/226/13
f 179/231/13 181/232/13 180/230/13 178/229/13
f 174/227/40 180/230/40 182/233/40 184/228/40
f 180/230/41 181/232/41 183/234/41 182/233/41
f 181/232/40 187/235/40 185/236/40 183/234/40
f 187/235/41 188/237/41 186/238/41 185/236/41
f 189/239/13 187/235/13 181/232/13 179/231/13
f 190/240/13 188/237/13 187/235/13 189/239/13
f 191/241/13 193/242/13 188/237/13 190/240/13
f 192/243/13 195/244/13 193/242/13 191/241/13
f 193/242/41 195/244/41 196/245/41 194/246/41
f 188/237/40 193/242/40 194/246/40 186/238/40
f 200/247/13 197/248/13 195/244/13 192/243/13
f 195/244/40 197/248/40 199/249/40 196/245/40
f 201/250/13 198/251/13 197/248/13 200/247/13
f 197/248/41 198/251/41 208/252/41 199/249/41
f 202/253/13 203/254/13 198/251/13 201/250/13
f 204/255/19 205/256/19 203/254/13 202/253/13
f 203/254/41 205/256/41 206/257/41 207/258/41
f 198/251/40 203/254/40 207/258/40 208/252/40
f 210/259/9 214/260/9 213/261/9 209/262/9
f 209/263/21 211/264/21 220/265/21 210/266/21
f 212/267/22 218/268/22 211/269/22 209/270/22
f 209/271/9 213/272/9 216/273/9 212/274/9
f 214/275/24 219/276/24 215/277/24 213/278/24
f 213/278/23 215/277/23 217/279/23 216/280/23
f 216/280/6 217/279/6 218/281/6 212/282/6
f 218/283/1 217/284/1 215/285/1 211/286/1
f 211/287/1 215/288/1 219/289/1 220/290/1
f 210/266/4 220/265/4 219/276/4 214/275/4
f 222/291/13 225/292/13 223/293/14 221/294/14
f 223/293/40 225/292/40 226/295/40 224/296/40
f 229/297/13 227/298/13 225/292/13 222/291/13
f 225/292/41 227/298/41 230/299/41 226/295/41
f 237/300/13 228/301/13 227/298/13 229/297/13
f 227/298/40 228/301/40 231/302/40 230/299/40
f 228/301/41 234/303/41 232/304/41 231/302/41
f 234/303/40 235/305/40 233/306/40 232/304/40
f 236/307/13 234/303/13 228/301/13 237/300/13
f 238/308/13 235/305/13 234/303/13 236/307/13
f 239/309/13 241/310/13 235/305/13 238/308/13
f 240/311/13 242/312/13 241/310/13 239/309/13
f 235/305/41 241/310/41 243/313/41 233/306/41
f 241/310/40 242/312/40 244/314/40 243/313/40
f 242/312/41 247/315/41 245/316/41 244/314/41
f 247/315/40 249/317/40 246/318/40 245/316/40
f 248/319/13 247/315/13 242/312/13 240/311/13
f 250/320/13 249/317/13 247/315/13 248/319/13
f 253/321/13 251/322/13 249/317/13 250/320/13
f 249/317/41 251/322/41 254/323/41 246/318/41
f 261/324/13 252/325/13 251/322/13 253/321/13
f 251/322/40 252/325/40 255/326/40 254/323/40
f 252/325/41 258/327/41 256/328/41 255/326/41
f 258/327/40 259/329/40 257/330/40 256/328/40
f 260/331/13 258/327/13 252/325/13 261/324/13
f 262/332/13 259/329/13 258/327/13 260/331/13
f 263/333/13 265/334/13 259/329/13 262/332/13
f 264/335/13 266/336/13 265/334/13 263/333/13
f 259/329/41 265/334/41 267/337/41 257/330/41
f 265/334/40 266/336/40 268/338/40 267/337/40
f 266/336/41 271/339/41 269/340/41 268/338/41
f 271/339/40 273/341/40 270/342/40 269/340/40
f 272/343/13 271/339/13 266/336/13 264/335/13
f 274/344/13 273/341/13 271/339/13 272/343/13
f 276/345/19 275/346/19 273/341/13 274/344/13
f 273/341/41 275/346/41 277/347/41 270/342/41
f 278/348/42 280/349/42 293/350/42 279/351/42
f 281/352/43 283/353/43 280/354/43 278/355/43
f 282/356/44 284/357/44 283/353/44 281/352/44
f 287/358/45 285/359/45 284/357/45 282/356/45
f 288/360/46 286/361/46 285/359/46 287/358/46
f 289/362/47 291/363/47 286/361/47 288/360/47
f 290/364/48 292/365/48 291/363/48 289/362/48
f 279/351/49 293/350/49 292/365/49 290/364/49
f 295/366/50 294/367/50 298/368/50 299/369/50
f 295/366/43 313/370/43 296/371/43 294/367/43
f 294/372/42 296/373/42 319/374/42 297/375/42
f 294/372/51 297/375/51 300/376/51 298/377/51
f 297/375/52 302/378/52 301/379/52 300/376/52
f 302/378/53 304/380/53 303/381/53 301/379/53
f 304/380/54 306/382/54 305/383/54 303/381/54
f 306/382/55 308/384/55 307/385/55 305/383/55
f 308/384/56 310/386/56 309/387/56 307/385/56
f 310/386/57 295/366/57 299/369/57 309/387/57
f 308/384/45 312/388/45 311/389/45 310/386/45
f 310/386/44 311/389/44 313/370/44 295/366/44
f 311/389/58 312/388/58 315/390/58 314/391/58
f 313/370/59 311/389/59 314/391/59 316/392/59
f 296/371/60 313/370/60 316/392/60 317/393/60
f 319/374/61 296/373/61 317/394/61 318/395/61
f 321/396/62 319/374/62 318/395/62 320/397/62
f 323/398/63 321/396/63 320/397/63 322/399/63
f 325/400/64 323/398/64 322/399/64 324/401/64
f 312/388/65 325/400/65 324/401/65 315/390/65
f 304/380/47 323/398/47 325/400/47 306/382/47
f 306/382/46 325/400/46 312/388/46 308/384/46
f 302/378/48 321/396/48 323/398/48 304/380/48
f 297/375/49 319/374/49 321/396/49 302/378/49
f 326/402/66 327/403/66 331/404/66 330/405/66
f 326/402/6 328/406/6 359/407/6 327/408/6
f 329/409/6 350/410/6 328/406/6 326/402/6
f 329/409/67 326/402/67 330/405/67 332/411/67
f 330/405/4 331/404/4 334/412/4 333/413/4
f 332/411/4 330/405/4 333/413/4 335/414/4
f 333/413/66 334/412/66 337/415/66 336/416/66
f 335/414/67 333/413/67 336/416/67 338/417/67
f 337/418/4 341/419/4 339/420/4 336/416/4
f 336/416/4 339/420/4 340/421/4 338/417/4
f 339/420/4 342/422/4 345/423/4 340/421/4
f 341/419/4 343/424/4 342/422/4 339/420/4
f 357/425/68 344/426/68 342/427/68 343/428/68
f 344/426/69 346/429/69 345/430/69 342/427/69
f 346/429/70 348/431/70 340/432/70 345/430/70
f 354/433/4 347/434/4 346/429/4 344/426/4
f 347/434/4 349/435/4 348/431/4 346/429/4
f 349/435/4 332/436/4 335/437/4 348/431/4
f 348/431/71 335/437/71 338/438/71 340/432/71
f 350/439/71 329/440/71 332/436/71 349/435/71
f 351/441/70 350/439/70 349/435/70 347/434/70
f 350/410/6 351/442/6 352/443/6 328/406/6
f 352/444/69 351/441/69 347/434/69 354/433/69
f 353/445/68 352/444/68 354/433/68 355/446/68
f 328/406/6 352/443/6 353/447/6 359/407/6
f 355/446/4 354/433/4 344/426/4 357/425/4
f 359/448/72 353/445/72 355/446/72 356/449/72
f 356/449/4 355/446/4 357/425/4 358/450/4
f 358/450/72 357/425/72 343/428/72 341/451/72
f 334/412/73 358/450/73 341/451/73 337/415/73
f 331/404/4 356/449/4 358/450/4 334/412/4
f 327/403/73 359/448/73 356/449/73 331/404/73
f 360/452/74 362/453/74 375/454/74 361/455/74
f 363/456/75 364/457/75 362/453/75 360/452/75
f 365/458/76 367/459/76 364/457/76 363/456/76
f 366/460/77 368/461/77 367/459/77 365/458/77
f 371/462/78 369/463/78 368/461/78 366/460/78
f 372/464/79 370/465/79 369/463/79 371/462/79
f 373/466/80 374/467/80 370/465/80 372/464/80
f 361/468/81 375/469/81 374/467/81 373/466/81
f 376/470/4 377/471/4 381/472/4 380/473/4
f 377/471/2 376/470/2 378/474/2 402/475/2
f 376/470/1 379/476/1 399/477/1 378/474/1
f 379/476/4 376/470/4 380/473/4 382/478/4
f 384/479/4 379/476/4 382/478/4 383/480/4
f 386/481/82 384/482/4 383/483/4 385/484/82
f 389/485/83 386/481/82 385/484/82 387/486/83
f 390/487/83 389/485/83 387/486/83 388/488/83
f 386/481/2 389/485/2 391/489/2 394/490/2
f 389/485/84 390/487/84 393/491/84 391/489/84
f 391/489/85 393/491/85 405/492/85 392/493/85
f 394/490/86 391/489/85 392/493/85 396/494/86
f 395/495/6 394/490/86 396/494/86 397/496/6
f 384/482/9 386/481/9 394/490/9 395/495/9
f 399/477/6 395/497/6 397/498/6 398/499/6
f 378/474/6 399/477/6 398/499/6 400/500/6
f 402/475/6 378/474/6 400/500/6 401/501/6
f 404/502/86 402/475/6 401/501/6 403/503/86
f 393/491/85 404/502/86 403/503/86 405/492/85
f 406/504/3 377/471/3 402/475/3 404/502/3
f 390/487/2 406/504/2 404/502/2 393/491/2
f 406/504/82 390/487/83 388/488/83 407/505/82
f 377/471/4 406/504/82 407/505/82 381/472/4
f 395/497/11 399/477/11 379/476/11 384/479/11
