# Blender 4.4.1
# www.blender.org
o Street_Light
v 0.041817 0.000000 0.028005
v 0.041817 -0.000000 -0.028005
v 0.028004 0.367182 0.028005
v -0.041817 0.000000 0.028005
v -0.028004 0.367182 0.028005
v -0.041817 -0.000000 -0.028005
v -0.028004 0.367182 -0.028005
v 0.028004 0.367182 -0.028005
v -0.028004 1.134129 -0.028005
v -0.026688 1.193352 -0.028005
v -0.364201 1.278676 -0.028005
v -0.028004 1.134129 0.028005
v 0.028004 1.134129 -0.028005
v 0.364201 1.278676 -0.028005
v 0.026688 1.193352 -0.028005
v 0.028004 1.134129 0.028005
v 0.026688 1.193352 0.028005
v 0.364201 1.278676 0.028005
v 0.406242 1.278676 0.041411
v 0.373375 1.278676 0.021301
v 0.362885 1.306910 0.028005
v 0.362885 1.306910 -0.028005
v 0.404926 1.322598 0.041411
v 0.404926 1.322598 -0.041411
v 0.457932 1.322598 0.041411
v 0.459248 1.278676 0.041411
v 0.457932 1.322598 -0.041411
v 0.491001 1.308283 0.028050
v 0.491001 1.308283 -0.028050
v 0.491982 1.279916 0.028050
v 0.482815 1.279569 0.021884
v 0.491982 1.279916 -0.028050
v 0.459248 1.278676 -0.041411
v 0.482815 1.279569 -0.021884
v 0.470135 1.300504 -0.016597
v 0.457451 1.278608 -0.032237
v 0.450897 1.299775 -0.024448
v 0.407669 1.278676 -0.032237
v 0.373375 1.278676 -0.021301
v 0.413143 1.299827 -0.024448
v 0.406242 1.278676 -0.041411
v 0.387135 1.299827 -0.016155
v 0.413143 1.299827 0.024448
v 0.450897 1.299775 0.024448
v 0.387135 1.299827 0.016155
v 0.407669 1.278676 0.032237
v 0.457451 1.278608 0.032237
v 0.470135 1.300504 0.016597
v -0.026688 1.193352 0.028005
v -0.362885 1.306910 0.028005
v -0.362885 1.306910 -0.028005
v -0.364201 1.278676 0.028005
v -0.404925 1.322598 0.041411
v -0.406242 1.278676 0.041411
v -0.404925 1.322598 -0.041411
v -0.457932 1.322598 0.041411
v -0.459248 1.278676 0.041411
v -0.457932 1.322598 -0.041411
v -0.491000 1.308283 0.028050
v -0.491000 1.308283 -0.028050
v -0.491982 1.279916 0.028050
v -0.482815 1.279569 0.021884
v -0.491982 1.279916 -0.028050
v -0.459248 1.278676 -0.041411
v -0.482815 1.279569 -0.021884
v -0.470135 1.300504 -0.016597
v -0.457451 1.278608 -0.032237
v -0.450896 1.299775 -0.024448
v -0.407669 1.278676 -0.032237
v -0.373375 1.278676 -0.021301
v -0.413142 1.299827 -0.024448
v -0.406242 1.278676 -0.041411
v -0.413142 1.299827 0.024448
v -0.387135 1.299827 -0.016155
v -0.387135 1.299827 0.016155
v -0.373375 1.278676 0.021301
v -0.407669 1.278676 0.032237
v -0.457451 1.278608 0.032237
v -0.450896 1.299775 0.024448
v -0.470135 1.300504 0.016597
vn 0.9993 0.0376 -0.0000
vn -0.0000 -0.0000 1.0000
vn -0.9993 0.0376 -0.0000
vn -0.0000 -0.0000 -1.0000
vn -1.0000 -0.0000 -0.0000
vn -0.3950 -0.9187 -0.0000
vn 1.0000 -0.0000 -0.0000
vn 0.3950 -0.9187 -0.0000
vn -0.0000 -1.0000 -0.0000
vn -0.0003 -1.0000 0.0019
vn -0.3019 -0.0110 0.9533
vn -0.3200 0.9474 -0.0000
vn -0.3496 0.9369 -0.0000
vn -0.0000 1.0000 -0.0000
vn 0.3783 0.0120 0.9256
vn 0.3973 0.9177 -0.0000
vn 0.9994 0.0345 -0.0000
vn 0.0379 -0.9993 -0.0000
vn 0.0378 -0.9993 -0.0000
vn 0.3783 0.0120 -0.9256
vn -0.3304 -0.4143 0.8480
vn -0.8553 -0.5181 -0.0000
vn -0.0005 -0.3455 0.9384
vn -0.0007 -1.0000 -0.0037
vn -0.0003 -1.0000 -0.0019
vn 0.2791 -0.3946 0.8754
vn -0.3019 -0.0110 -0.9533
vn -0.0008 -1.0000 -0.0000
vn -0.0014 -1.0000 -0.0000
vn -0.0005 -0.3455 -0.9384
vn 0.2791 -0.3946 -0.8754
vn -0.0007 -1.0000 0.0037
vn -0.3304 -0.4143 -0.8480
vn 0.8382 -0.5453 -0.0000
vn 0.3200 0.9474 -0.0000
vn 0.3496 0.9369 -0.0000
vn 0.3019 -0.0110 0.9533
vn -0.3783 0.0120 0.9256
vn -0.3973 0.9177 -0.0000
vn -0.9994 0.0346 -0.0000
vn -0.0379 -0.9993 -0.0000
vn -0.0378 -0.9993 -0.0000
vn -0.3783 0.0120 -0.9256
vn 0.8553 -0.5181 -0.0000
vn 0.3304 -0.4143 0.8480
vn 0.0005 -0.3455 0.9384
vn 0.0007 -1.0000 -0.0037
vn 0.0003 -1.0000 -0.0019
vn -0.2792 -0.3946 0.8754
vn 0.3019 -0.0110 -0.9533
vn 0.0008 -1.0000 -0.0000
vn 0.0014 -1.0000 -0.0000
vn -0.8382 -0.5453 -0.0000
vn -0.2792 -0.3946 -0.8754
vn 0.0003 -1.0000 0.0019
vn 0.0007 -1.0000 0.0037
vn 0.0005 -0.3455 -0.9384
vn 0.3304 -0.4143 -0.8480
vt 0.991183 0.029690
vt 0.991032 0.051163
vt 0.987747 0.051247
vt 0.987897 0.029673
vt 0.983008 0.029821
vt 0.984459 0.051383
vt 0.979737 0.030036
vt 0.981173 0.051569
vt 0.974857 0.030537
vt 0.977894 0.051807
vt 0.986660 0.096361
vt 0.983381 0.096523
vt 0.980103 0.096684
vt 0.036501 0.094554
vt 0.036127 0.091262
vt 0.040112 0.091562
vt 0.039324 0.094729
vt 0.015220 0.093314
vt 0.015052 0.091632
vt 0.036362 0.097781
vt 0.014961 0.097085
vt 0.993221 0.096043
vt 0.989938 0.096202
vt 0.039054 0.097955
vt 0.060598 0.096072
vt 0.060398 0.099840
vt 0.060967 0.094421
vt 0.039326 0.101199
vt 0.060584 0.101646
vt 0.035695 0.101017
vt 0.060952 0.099349
vt 0.063075 0.099957
vt 0.063013 0.100347
vt 0.063178 0.102405
vt 0.061120 0.096473
vt 0.039156 0.104540
vt 0.060382 0.105098
vt 0.063063 0.106686
vt 0.066179 0.100477
vt 0.066087 0.102414
vt 0.066678 0.106876
vt 0.068203 0.100230
vt 0.068153 0.102184
vt 0.068901 0.105519
vt 0.069749 0.101727
vt 0.070562 0.105023
vt 0.066099 0.100077
vt 0.067744 0.099708
vt 0.068063 0.096835
vt 0.068636 0.096496
vt 0.066750 0.095464
vt 0.067352 0.093065
vt 0.069271 0.094821
vt 0.066577 0.095898
vt 0.066856 0.097316
vt 0.065877 0.096834
vt 0.066598 0.098875
vt 0.063504 0.095610
vt 0.063810 0.096708
vt 0.063510 0.095158
vt 0.062383 0.097068
vt 0.063789 0.092765
vt 0.062172 0.098628
vt 0.063545 0.098983
vt 0.065577 0.099097
vt 0.035508 0.104351
vt 0.014559 0.098857
vt 0.014345 0.102314
vt 0.011495 0.103567
vt 0.011894 0.099301
vt 0.012305 0.097276
vt 0.009005 0.098962
vt 0.009146 0.097027
vt 0.007885 0.103323
vt 0.006981 0.098486
vt 0.007166 0.096539
vt 0.005840 0.101709
vt 0.005451 0.097843
vt 0.004251 0.101018
vt 0.009274 0.096638
vt 0.007685 0.096075
vt 0.007185 0.092779
vt 0.007713 0.093183
vt 0.009181 0.091979
vt 0.006755 0.091039
vt 0.008870 0.089524
vt 0.009301 0.092430
vt 0.008854 0.093805
vt 0.008923 0.095385
vt 0.009884 0.093444
vt 0.012387 0.092511
vt 0.011952 0.093565
vt 0.012435 0.092061
vt 0.014653 0.093651
vt 0.013325 0.094093
vt 0.012445 0.089651
vt 0.011941 0.095857
vt 0.009910 0.095728
vt 0.013347 0.095668
vt 0.014470 0.096531
vt 0.012290 0.096881
s 1
f 2/1/1 8/2/1 3/3/1 1/4/1
f 4/5/2 1/4/2 3/3/2 5/6/2
f 6/7/3 4/5/3 5/6/3 7/8/3
f 2/9/4 6/7/4 7/8/4 8/10/4
f 5/6/5 12/11/5 9/12/5 7/8/5
f 9/12/4 13/13/4 8/10/4 7/8/4
f 9/14/4 10/15/4 15/16/4 13/17/4
f 9/14/4 11/18/4 51/19/4 10/15/4
f 12/20/6 52/21/6 11/18/6 9/14/6
f 3/3/7 8/2/7 13/22/7 16/23/7
f 16/24/8 13/17/8 14/25/8 18/26/8
f 13/17/4 15/16/4 22/27/4 14/25/4
f 17/28/2 16/24/2 18/26/2 21/29/2
f 17/28/2 49/30/2 12/20/2 16/24/2
f 5/6/2 3/3/2 16/23/2 12/11/2
f 20/31/9 46/32/10 19/33/10 18/26/9
f 21/29/11 18/26/11 19/33/11 23/34/11
f 39/35/9 20/31/9 18/26/9 14/25/9
f 15/36/12 17/28/12 21/29/12 22/37/12
f 22/37/13 21/29/13 23/34/13 24/38/13
f 23/34/2 19/33/2 26/39/2 25/40/2
f 24/38/14 23/34/14 25/40/14 27/41/14
f 25/40/15 26/39/15 30/42/15 28/43/15
f 27/41/16 25/40/16 28/43/16 29/44/16
f 30/45/17 32/46/17 29/44/17 28/43/17
f 47/47/18 31/48/19 30/42/19 26/39/18
f 31/48/19 34/49/19 32/50/19 30/42/19
f 33/51/20 27/52/20 29/53/20 32/50/20
f 34/49/19 36/54/18 33/51/18 32/50/19
f 36/54/21 34/49/21 35/55/21 37/56/21
f 34/49/22 31/48/22 48/57/22 35/55/22
f 38/58/23 36/54/23 37/56/23 40/59/23
f 36/54/24 38/58/25 41/60/25 33/51/24
f 39/35/26 38/58/26 40/59/26 42/61/26
f 38/58/25 39/35/9 14/25/9 41/60/25
f 14/25/27 22/27/27 24/62/27 41/60/27
f 41/60/4 24/62/4 27/52/4 33/51/4
f 45/63/9 42/61/9 40/59/28 43/64/28
f 43/64/28 40/59/28 37/56/29 44/65/29
f 47/47/30 46/32/30 43/64/30 44/65/30
f 46/32/31 20/31/31 45/63/31 43/64/31
f 46/32/10 47/47/32 26/39/32 19/33/10
f 31/48/33 47/47/33 44/65/33 48/57/33
f 20/31/34 39/35/34 42/61/34 45/63/34
f 44/65/18 37/56/18 35/55/18 48/57/18
f 10/66/14 49/30/14 17/28/14 15/36/14
f 49/30/2 50/67/2 52/21/2 12/20/2
f 10/66/35 51/68/35 50/67/35 49/30/35
f 51/68/36 55/69/36 53/70/36 50/67/36
f 50/67/37 53/70/37 54/71/37 52/21/37
f 53/70/2 56/72/2 57/73/2 54/71/2
f 55/69/14 58/74/14 56/72/14 53/70/14
f 56/72/38 59/75/38 61/76/38 57/73/38
f 58/74/39 60/77/39 59/75/39 56/72/39
f 61/78/40 59/75/40 60/77/40 63/79/40
f 78/80/41 57/73/41 61/76/42 62/81/42
f 62/81/42 61/76/42 63/82/42 65/83/42
f 64/84/43 63/82/43 60/85/43 58/86/43
f 65/83/42 63/82/42 64/84/41 67/87/41
f 65/83/44 66/88/44 80/89/44 62/81/44
f 67/87/45 68/90/45 66/88/45 65/83/45
f 69/91/46 71/92/46 68/90/46 67/87/46
f 67/87/47 64/84/47 72/93/48 69/91/48
f 70/94/49 74/95/49 71/92/49 69/91/49
f 69/91/48 72/93/48 11/18/9 70/94/9
f 11/18/50 72/93/50 55/96/50 51/19/50
f 72/93/4 64/84/4 58/86/4 55/96/4
f 73/97/51 79/98/52 68/90/52 71/92/51
f 75/99/9 73/97/51 71/92/51 74/95/9
f 76/100/53 75/99/53 74/95/53 70/94/53
f 77/101/54 73/97/54 75/99/54 76/100/54
f 70/94/9 11/18/9 52/21/9 76/100/9
f 76/100/9 52/21/9 54/71/55 77/101/55
f 77/101/55 54/71/55 57/73/56 78/80/56
f 78/80/57 79/98/57 73/97/57 77/101/57
f 62/81/58 80/89/58 79/98/58 78/80/58
f 79/98/41 80/89/41 66/88/41 68/90/41
