# Blender 4.4.1
# www.blender.org
o Traffic_Light
v -0.036983 0.000000 0.036983
v -0.036983 -0.000000 -0.036983
v -0.036983 0.044785 0.036983
v 0.036983 0.000000 0.036983
v 0.036983 -0.000000 -0.036983
v 0.036983 0.044785 0.036983
v 0.036983 0.044785 -0.036983
v 0.028934 0.044785 0.028933
v 0.028934 0.044785 -0.028933
v 0.028934 0.068130 0.028933
v -0.028934 0.044785 0.028933
v -0.028934 0.044785 -0.028933
v -0.028934 0.068130 0.028933
v -0.027321 0.068130 0.027320
v -0.028934 0.068130 -0.028933
v 0.028934 0.068130 -0.028933
v -0.027321 0.068130 -0.027320
v 0.027321 0.068130 -0.027320
v -0.027321 0.771695 -0.027320
v -0.027321 0.771695 0.027320
v 0.027321 0.771695 -0.027320
v -0.206432 0.771695 -0.027320
v -0.027321 0.821105 -0.027320
v -0.206432 0.821105 -0.027320
v 0.027321 0.821105 -0.027320
v -0.027321 0.974336 -0.027320
v -0.027321 0.821105 0.027320
v 0.027321 0.821105 0.027320
v -0.027321 0.974336 0.027320
v -0.206432 0.821105 0.027320
v -0.206432 0.771695 0.027320
v -0.206432 0.974336 0.027320
v -0.027321 1.023746 0.027320
v 0.027321 0.974336 0.027320
v 0.027321 0.974336 -0.027320
v 0.027321 1.023746 0.027320
v 0.027321 1.023746 -0.027320
v 0.027321 1.196842 0.027320
v -0.027321 1.196842 0.027320
v 0.027321 1.196842 -0.027320
v 0.033104 1.196842 0.033106
v 0.033104 1.196842 -0.033106
v 0.033104 1.218313 0.033106
v -0.033104 1.196842 0.033106
v -0.033104 1.196842 -0.033106
v -0.033104 1.218313 0.033106
v -0.033104 1.218313 -0.033106
v 0.033104 1.218313 -0.033106
v -0.027321 1.196842 -0.027320
v -0.027321 1.023746 -0.027320
v -0.206432 1.023746 -0.027320
v -0.206432 1.023746 0.027320
v -0.206432 0.974336 -0.027320
v 0.027321 0.771695 0.027320
v 0.027321 0.068130 0.027320
v -0.036983 0.044785 -0.036983
v -0.307507 0.770549 0.059062
v -0.339947 0.735292 0.059062
v -0.307507 0.814098 0.059062
v -0.271088 0.748774 0.059062
v -0.307507 0.770549 0.093055
v -0.307507 0.814098 0.093055
v -0.298664 0.770720 0.093055
v -0.298664 0.810925 0.093055
v -0.271088 0.827412 0.093055
v -0.243511 0.810925 0.093055
v -0.271088 0.835873 0.093055
v -0.234665 0.814098 0.093055
v -0.271088 0.835873 0.059062
v -0.234665 0.814098 0.059062
v -0.271088 0.849355 0.059062
v -0.339947 0.849355 0.059062
v -0.271088 0.862837 0.059062
v -0.202229 0.849355 0.059062
v -0.234665 0.884612 0.059062
v -0.202229 0.735292 -0.059062
v -0.202229 0.735292 0.059062
v -0.202229 0.963418 0.059062
v -0.234665 0.928161 0.059062
v -0.234665 0.998675 0.059062
v -0.202229 1.077481 0.059062
v -0.271088 0.963418 0.059062
v -0.202229 1.077481 -0.059062
v -0.339947 1.077481 -0.059062
v -0.339947 0.735292 -0.059062
v -0.339947 0.963418 0.059062
v -0.339947 1.077481 0.059062
v -0.307507 1.042224 0.059062
v -0.271088 1.063999 0.059062
v -0.234665 1.042224 0.059062
v -0.271088 1.063999 0.093055
v -0.307507 1.042224 0.093055
v -0.234665 1.042224 0.093055
v -0.271088 1.055538 0.093055
v -0.298664 1.039051 0.093055
v -0.243511 1.039051 0.093055
v -0.243511 0.998846 0.093055
v -0.234665 0.998675 0.093055
v -0.298664 0.998846 0.093055
v -0.307507 0.998675 0.093055
v -0.307507 0.998675 0.059062
v -0.271088 0.976900 0.059062
v -0.307507 0.928161 0.059062
v -0.307507 0.928161 0.093055
v -0.271088 0.949936 0.059062
v -0.307507 0.884612 0.059062
v -0.307507 0.884612 0.093055
v -0.298664 0.884783 0.093055
v -0.298664 0.924988 0.093055
v -0.271088 0.941475 0.093055
v -0.243511 0.924988 0.093055
v -0.271088 0.949936 0.093055
v -0.234665 0.928161 0.093055
v -0.234665 0.884612 0.093055
v -0.243511 0.884783 0.093055
v -0.234665 0.770549 0.059062
v -0.234665 0.770549 0.093055
v -0.243511 0.770720 0.093055
v -0.226471 0.845608 0.055116
v -0.226471 0.742442 0.055116
v -0.315701 0.845608 0.055116
v -0.315701 0.742442 0.055116
v -0.226471 0.957895 0.055116
v -0.226471 0.851968 0.055116
v -0.315701 0.957895 0.055116
v -0.315701 0.851968 0.055116
v -0.226471 1.076578 0.055116
v -0.226471 0.964373 0.055116
v -0.315701 1.076578 0.055116
v -0.315701 0.964373 0.055116
vn -1.0000 -0.0000 -0.0000
vn -0.0000 -0.0000 1.0000
vn 1.0000 -0.0000 -0.0000
vn -0.0000 1.0000 -0.0000
vn -0.0000 -0.0000 -1.0000
vn -0.0000 -1.0000 -0.0000
vn -0.5132 0.8583 -0.0000
vn 0.5131 0.8583 -0.0000
vt 0.152108 0.284810
vt 0.151004 0.287224
vt 0.146504 0.286704
vt 0.146178 0.284061
vt 0.156870 0.288247
vt 0.154777 0.289654
vt 0.158976 0.292636
vt 0.156635 0.293512
vt 0.154356 0.289935
vt 0.150799 0.287719
vt 0.156058 0.293212
vt 0.155153 0.293584
vt 0.153312 0.290837
vt 0.150352 0.289124
vt 0.146636 0.287221
vt 0.146944 0.288517
vt 0.150310 0.289232
vt 0.146999 0.288604
vt 0.153215 0.290866
vt 0.143291 0.288684
vt 0.143676 0.289569
vt 0.143748 0.289611
vt 0.133118 0.327395
vt 0.130118 0.326284
vt 0.136082 0.328506
vt 0.716472 0.087432
vt 0.717676 0.090403
vt 0.707938 0.094350
vt 0.706734 0.091379
vt 0.132026 0.330222
vt 0.128967 0.329027
vt 0.719969 0.096060
vt 0.721058 0.098746
vt 0.711319 0.102693
vt 0.710231 0.100007
vt 0.718765 0.093089
vt 0.709027 0.097036
vt 0.128802 0.339034
vt 0.125801 0.337729
vt 0.135044 0.331366
vt 0.131751 0.340202
vt 0.138075 0.332485
vt 0.139078 0.329633
vt 0.134732 0.341236
vt 0.928468 0.032479
vt 0.927871 0.035628
vt 0.917547 0.033670
vt 0.918145 0.030520
vt 0.927331 0.038476
vt 0.917007 0.036518
vt 0.133630 0.344079
vt 0.130722 0.343137
vt 0.136611 0.344816
vt 0.137811 0.342221
vt 0.141158 0.333624
vt 0.130987 0.353992
vt 0.127255 0.353361
vt 0.134509 0.353158
vt 0.131046 0.354365
vt 0.127129 0.353709
vt 0.135005 0.353343
vt 0.135491 0.354483
vt 0.131304 0.355619
vt 0.126774 0.354987
vt 0.123870 0.351795
vt 0.123582 0.352049
vt 0.122654 0.353056
vt 0.119110 0.355251
vt 0.116862 0.351877
vt 0.120184 0.349800
vt 0.121201 0.349219
vt 0.121639 0.349329
vt 0.127854 0.341935
vt 0.124898 0.340425
vt 0.926733 0.041625
vt 0.926193 0.044473
vt 0.915870 0.042515
vt 0.916410 0.039667
vt 0.142186 0.330833
vt 0.155078 0.293564
vt 0.142614 0.288526
vt 0.141303 0.286044
vt 0.694283 0.121688
vt 0.691272 0.122727
vt 0.689805 0.120345
vt 0.690910 0.125731
vt 0.688676 0.127672
vt 0.692261 0.123536
vt 0.692192 0.125094
vt 0.692584 0.123573
vt 0.692646 0.124975
vt 0.693548 0.126110
vt 0.693626 0.125740
vt 0.695170 0.125647
vt 0.694834 0.125357
vt 0.693444 0.127495
vt 0.696335 0.126499
vt 0.697970 0.128923
vt 0.693364 0.128176
vt 0.693280 0.128848
vt 0.690254 0.130006
vt 0.695821 0.130787
vt 0.695408 0.133688
vt 0.697052 0.136059
vt 0.696754 0.123554
vt 0.698838 0.121649
vt 0.705986 0.122937
vt 0.703137 0.144046
vt 0.692524 0.134708
vt 0.692450 0.135390
vt 0.694893 0.137975
vt 0.692373 0.136063
vt 0.694454 0.140905
vt 0.695973 0.143223
vt 0.695073 0.150297
vt 0.686568 0.149361
vt 0.687167 0.142197
vt 0.687777 0.134884
vt 0.679921 0.141267
vt 0.682473 0.119738
vt 0.689185 0.140250
vt 0.691665 0.141975
vt 0.689398 0.137249
vt 0.690413 0.139583
vt 0.691751 0.140564
vt 0.693325 0.140064
vt 0.690853 0.139446
vt 0.691822 0.140188
vt 0.692994 0.139778
vt 0.693998 0.138505
vt 0.693620 0.138421
vt 0.690422 0.138021
vt 0.690744 0.138048
vt 0.689960 0.132967
vt 0.691243 0.132324
vt 0.692614 0.133319
vt 0.691280 0.130777
vt 0.691605 0.130807
vt 0.691696 0.132195
vt 0.692687 0.132946
vt 0.694230 0.132844
vt 0.693890 0.132554
vt 0.694909 0.131300
vt 0.694527 0.131212
vt 0.691122 0.113281
vt 0.699689 0.114562
vt 0.695864 0.124093
vt 0.695487 0.124007
vt 0.787477 0.015055
vt 0.782257 0.015443
vt 0.781808 0.009408
vt 0.787028 0.009019
vt 0.283424 0.013823
vt 0.278204 0.014218
vt 0.277736 0.008021
vt 0.282956 0.007627
vt 0.749993 0.010849
vt 0.744773 0.011248
vt 0.744271 0.004685
vt 0.749490 0.004286
s 1
f 1/1/1 3/2/1 56/3/1 2/4/1
f 4/5/2 6/6/2 3/2/2 1/1/2
f 5/7/3 7/8/3 6/6/3 4/5/3
f 3/2/4 6/6/4 8/9/4 11/10/4
f 6/6/4 7/8/4 9/11/4 8/9/4
f 8/9/3 9/11/3 16/12/3 10/13/3
f 11/10/2 8/9/2 10/13/2 13/14/2
f 56/3/4 3/2/4 11/10/4 12/15/4
f 12/15/1 11/10/1 13/14/1 15/16/1
f 15/16/4 13/14/4 14/17/4 17/18/4
f 13/14/4 10/13/4 55/19/4 14/17/4
f 9/20/5 12/15/5 15/16/5 16/21/5
f 16/21/4 15/16/4 17/18/4 18/22/4
f 18/22/5 17/18/5 19/23/5 21/24/5
f 17/18/1 14/17/1 20/25/1 19/23/1
f 19/26/6 20/27/6 31/28/6 22/29/6
f 23/30/5 25/31/5 21/24/5 19/23/5
f 23/32/5 19/33/5 22/34/5 24/35/5
f 27/36/4 23/32/4 24/35/4 30/37/4
f 25/31/5 23/30/5 26/38/5 35/39/5
f 23/30/1 27/40/1 29/41/1 26/38/1
f 28/42/2 27/40/2 20/25/2 54/43/2
f 27/40/2 28/42/2 34/44/2 29/41/2
f 20/27/2 27/36/2 30/37/2 31/28/2
f 26/45/6 29/46/6 32/47/6 53/48/6
f 29/46/2 33/49/2 52/50/2 32/47/2
f 36/51/2 33/52/2 29/41/2 34/44/2
f 37/53/3 36/51/3 34/44/3 35/54/3
f 28/42/3 25/55/3 35/54/3 34/44/3
f 33/52/2 36/51/2 38/56/2 39/57/2
f 36/51/3 37/53/3 40/58/3 38/56/3
f 39/57/6 38/56/6 41/59/6 44/60/6
f 38/56/6 40/58/6 42/61/6 41/59/6
f 41/59/3 42/61/3 48/62/3 43/63/3
f 44/60/2 41/59/2 43/63/2 46/64/2
f 49/65/6 39/57/6 44/60/6 45/66/6
f 45/66/1 44/60/1 46/64/1 47/67/1
f 46/68/4 43/69/4 48/70/4 47/67/4
f 42/71/5 45/66/5 47/67/5 48/70/5
f 40/72/6 49/65/6 45/66/6 42/71/6
f 50/73/1 33/52/1 39/57/1 49/65/1
f 37/74/5 50/73/5 49/65/5 40/72/5
f 50/75/5 26/76/5 53/77/5 51/78/5
f 33/49/4 50/75/4 51/78/4 52/50/4
f 50/73/5 37/74/5 35/39/5 26/38/5
f 25/55/3 28/42/3 54/43/3 21/79/3
f 14/17/2 55/19/2 54/43/2 20/25/2
f 55/19/3 18/80/3 21/79/3 54/43/3
f 10/13/4 16/12/4 18/80/4 55/19/4
f 7/81/4 56/3/4 12/15/4 9/20/4
f 2/4/5 56/3/5 7/81/5 5/82/5
f 60/83/2 57/84/2 58/85/2
f 57/84/2 59/86/2 72/87/2 58/85/2
f 59/86/1 57/84/1 61/88/1 62/89/1
f 62/89/2 61/88/2 63/90/2 64/91/2
f 67/92/2 62/89/2 64/91/2 65/93/2
f 68/94/2 67/92/2 65/93/2 66/95/2
f 69/96/7 59/86/7 62/89/7 67/92/7
f 70/97/8 69/96/8 67/92/8 68/94/8
f 69/96/2 70/97/2 74/98/2 71/99/2
f 59/86/2 69/96/2 71/99/2 72/87/2
f 73/100/2 106/101/2 72/87/2 71/99/2
f 75/102/2 73/100/2 71/99/2 74/98/2
f 79/103/2 75/102/2 74/98/2 78/104/2
f 70/97/2 116/105/2 77/106/2 74/98/2
f 76/107/3 83/108/3 78/104/3 74/98/3
f 76/107/3 74/98/3 77/106/3
f 105/109/2 79/103/2 78/104/2 82/110/2
f 80/111/2 102/112/2 82/110/2 78/104/2
f 90/113/2 80/111/2 78/104/2 81/114/2
f 83/108/3 81/114/3 78/104/3
f 83/115/4 84/116/4 87/117/4 81/114/4
f 72/87/1 86/118/1 84/119/1 85/120/1
f 86/118/1 87/117/1 84/119/1
f 88/121/2 89/122/2 87/117/2
f 101/123/2 88/121/2 87/117/2 86/118/2
f 89/122/2 90/113/2 81/114/2 87/117/2
f 89/122/7 88/121/7 92/124/7 91/125/7
f 90/113/8 89/122/8 91/125/8 93/126/8
f 91/125/2 92/124/2 95/127/2 94/128/2
f 93/126/2 91/125/2 94/128/2 96/129/2
f 98/130/2 93/126/2 96/129/2 97/131/2
f 80/111/3 90/113/3 93/126/3 98/130/3
f 92/124/2 100/132/2 99/133/2 95/127/2
f 88/121/1 101/123/1 100/132/1 92/124/1
f 102/112/2 101/123/2 86/118/2 82/110/2
f 106/101/2 103/134/2 86/118/2 72/87/2
f 103/134/2 105/109/2 82/110/2 86/118/2
f 105/109/7 103/134/7 104/135/7 112/136/7
f 103/134/1 106/101/1 107/137/1 104/135/1
f 104/135/2 107/137/2 108/138/2 109/139/2
f 112/136/2 104/135/2 109/139/2 110/140/2
f 113/141/2 112/136/2 110/140/2 111/142/2
f 79/103/8 105/109/8 112/136/8 113/141/8
f 75/102/3 79/103/3 113/141/3 114/143/3
f 114/143/2 113/141/2 111/142/2 115/144/2
f 58/85/1 72/87/1 85/120/1
f 85/145/6 76/146/6 77/106/6 58/85/6
f 116/105/2 60/83/2 58/85/2 77/106/2
f 116/105/3 70/97/3 68/94/3 117/147/3
f 117/147/2 68/94/2 66/95/2 118/148/2
f 119/149/2 121/150/2 122/151/2 120/152/2
f 123/153/2 125/154/2 126/155/2 124/156/2
f 127/157/2 129/158/2 130/159/2 128/160/2
