# Blender 4.4.1
# www.blender.org
o Trash_Can.001
v 0.003454 0.137052 0.066660
v 0.003454 0.004875 0.060493
v 0.000001 0.141928 0.068317
v 0.044698 0.137052 0.049576
v 0.003816 0.129639 0.053908
v 0.003816 0.014649 0.049182
v 0.035425 0.129639 0.040815
v 0.032083 0.014649 0.037473
v 0.040338 0.004875 0.045215
v 0.043626 0.000000 0.043625
v 0.061696 -0.000000 -0.000000
v 0.048310 0.141928 0.048307
v 0.045217 0.004875 0.040335
v 0.000001 0.000000 0.061695
v -0.003448 0.004875 0.060493
v -0.043623 0.000000 0.043625
v -0.045215 0.004875 0.040335
v -0.048305 0.141928 0.048307
v -0.061694 -0.000000 -0.000000
v -0.040331 0.004875 0.045215
v -0.032076 0.014649 0.037473
v -0.044692 0.137052 0.049576
v -0.035422 0.129639 0.040815
v -0.003448 0.137052 0.066660
v -0.003810 0.129639 0.053908
v -0.003810 0.014649 0.049182
v -0.060493 0.004875 -0.003451
v -0.068316 0.141928 -0.000000
v -0.043623 -0.000000 -0.043625
v -0.060493 0.004875 0.003451
v -0.049178 0.014649 0.003813
v -0.066657 0.137052 0.003451
v -0.049574 0.137052 0.044695
v -0.053905 0.129639 0.003813
v -0.040812 0.129639 0.035423
v -0.037470 0.014649 0.032081
v -0.040331 0.004875 -0.045215
v -0.048305 0.141928 -0.048307
v 0.000001 -0.000000 -0.061695
v -0.045215 0.004875 -0.040334
v -0.049574 0.137052 -0.044695
v -0.037470 0.014649 -0.032081
v -0.049178 0.014649 -0.003813
v -0.040812 0.129639 -0.035423
v -0.053905 0.129639 -0.003813
v -0.066657 0.137052 -0.003451
v 0.003454 0.004875 -0.060493
v 0.000001 0.141928 -0.068316
v 0.043626 -0.000000 -0.043625
v -0.003448 0.004875 -0.060493
v -0.003810 0.014649 -0.049182
v -0.003448 0.137052 -0.066659
v -0.044692 0.137052 -0.049576
v -0.003810 0.129639 -0.053908
v -0.035422 0.129639 -0.040815
v -0.032076 0.014649 -0.037473
v 0.045217 0.004875 -0.040334
v 0.048310 0.141928 -0.048307
v 0.040338 0.004875 -0.045215
v 0.044698 0.137052 -0.049576
v 0.032083 0.014649 -0.037473
v 0.003816 0.014649 -0.049182
v 0.035425 0.129639 -0.040815
v 0.003816 0.129639 -0.053908
v 0.003454 0.137052 -0.066659
v 0.052651 0.141609 -0.052651
v 0.068318 0.141928 -0.000000
v 0.049577 0.137052 -0.044695
v 0.066663 0.137052 -0.003451
v 0.040819 0.129639 -0.035423
v 0.053911 0.129639 -0.003813
v 0.037477 0.014649 -0.032081
v 0.049184 0.014649 -0.003813
v 0.060494 0.004875 -0.003451
v 0.066663 0.137052 0.003451
v 0.074460 0.141609 -0.000000
v 0.052651 0.141609 0.052651
v 0.074460 0.158067 -0.000000
v 0.052651 0.158067 -0.052651
v 0.052651 0.158067 0.052651
v 0.059553 0.157749 -0.000000
v 0.042108 0.157749 -0.042107
v 0.042108 0.157749 0.042107
v 0.000001 0.157749 0.059549
v 0.000001 0.158067 0.074460
v -0.042106 0.157749 0.042107
v -0.059546 0.157749 -0.000000
v -0.052649 0.158067 0.052651
v -0.074458 0.158067 -0.000000
v -0.052649 0.141609 0.052651
v -0.074458 0.141609 -0.000000
v 0.000001 0.141609 0.074460
v -0.052649 0.141609 -0.052651
v 0.000001 0.141609 -0.074460
v -0.052649 0.158067 -0.052651
v 0.000001 0.158067 -0.074460
v -0.042106 0.157749 -0.042107
v 0.000001 0.157749 -0.059549
v 0.049577 0.137052 0.044695
v 0.053911 0.129639 0.003813
v 0.060494 0.004875 0.003451
v 0.049184 0.014649 0.003813
v 0.037477 0.014649 0.032081
v 0.040819 0.129639 0.035423
v -0.037826 0.150831 0.051146
v -0.056548 0.154388 0.035152
v -0.028452 0.151323 0.059514
v -0.034263 0.161176 0.038207
v -0.012568 0.152099 0.062787
v -0.007247 0.170166 0.040109
v 0.001981 0.152867 0.061772
v 0.013277 0.176787 0.036707
v 0.017560 0.156103 0.059004
v 0.030759 0.175233 0.036858
v 0.037831 0.155054 0.058459
v 0.049409 0.155728 0.037494
v 0.062913 0.155238 0.017972
v 0.045835 0.171718 0.018616
v 0.063390 0.151945 -0.012467
v 0.046880 0.166556 -0.012913
v 0.058687 0.150582 -0.032598
v 0.046339 0.156472 -0.043010
v 0.038281 0.151692 -0.056243
v 0.025651 0.175566 -0.042106
v 0.021558 0.189411 -0.014609
v 0.004896 0.186519 -0.041857
v 0.016077 0.156814 -0.065393
v -0.008601 0.157361 -0.064469
v -0.024837 0.156547 -0.058164
v -0.048945 0.157494 -0.053705
v -0.027663 0.171574 -0.043503
v -0.054633 0.156206 -0.031915
v -0.023456 0.182123 -0.017723
v -0.035590 0.169722 0.009007
v -0.062499 0.156432 -0.015106
v -0.005599 0.209205 -0.012069
v -0.002741 0.201884 0.007392
v 0.024037 0.187207 0.011147
v -0.060287 0.158472 0.010599
vn 0.9996 -0.0013 0.0299
vn 0.3822 -0.0430 0.9231
vn 0.3822 -0.0431 0.9231
vn 0.3824 -0.0430 0.9230
vn 0.2055 -0.8435 0.4962
vn 0.3824 -0.0379 0.9232
vn -0.6856 -0.0013 0.7280
vn 0.2633 0.7258 0.6356
vn 0.3824 -0.0431 0.9230
vn 0.3823 -0.0432 0.9230
vn 0.9231 -0.0431 0.3822
vn 0.9231 -0.0431 0.3823
vn 0.9230 -0.0431 0.3823
vn -0.3826 -0.0431 0.9229
vn -0.3824 -0.0431 0.9230
vn -0.3825 -0.0431 0.9230
vn -0.3823 -0.0430 0.9230
vn -0.3823 -0.0429 0.9230
vn -0.9230 -0.0431 0.3825
vn -0.9230 -0.0432 0.3824
vn -0.9230 -0.0432 0.3823
vn -0.9229 -0.0431 0.3826
vn -0.3823 -0.0431 0.9230
vn -0.2633 0.7258 0.6356
vn 0.6857 -0.0013 0.7279
vn -0.2055 -0.8435 0.4962
vn -0.9995 -0.0013 0.0300
vn -0.3824 -0.0380 0.9232
vn -0.9230 -0.0431 -0.3824
vn -0.9230 -0.0432 -0.3823
vn -0.9231 -0.0431 -0.3821
vn -0.9229 -0.0431 -0.3826
vn -0.9230 -0.0432 -0.3824
vn -0.9230 -0.0431 -0.3825
vn -0.9231 -0.0432 0.3822
vn -0.6355 0.7259 0.2632
vn -0.0299 -0.0013 0.9996
vn -0.4962 -0.8435 0.2055
vn -0.9232 -0.0379 0.3824
vn -0.7279 -0.0013 -0.6857
vn -0.3825 -0.0430 -0.9230
vn -0.3824 -0.0429 -0.9230
vn -0.3823 -0.0429 -0.9230
vn -0.3823 -0.0432 -0.9230
vn -0.3822 -0.0431 -0.9231
vn -0.3823 -0.0431 -0.9230
vn -0.6355 0.7259 -0.2632
vn -0.7279 -0.0013 0.6857
vn -0.9232 -0.0379 -0.3824
vn -0.4962 -0.8435 -0.2055
vn -0.0299 -0.0013 -0.9996
vn 0.3824 -0.0431 -0.9230
vn 0.3823 -0.0432 -0.9230
vn 0.3821 -0.0431 -0.9231
vn 0.3822 -0.0430 -0.9231
vn -0.3825 -0.0431 -0.9230
vn -0.3824 -0.0431 -0.9230
vn -0.2633 0.7258 -0.6356
vn -0.9995 -0.0013 -0.0300
vn -0.2055 -0.8435 -0.4962
vn -0.3824 -0.0380 -0.9232
vn 0.6857 -0.0013 -0.7279
vn 0.9231 -0.0431 -0.3822
vn 0.9230 -0.0431 -0.3823
vn 0.9231 -0.0431 -0.3821
vn 0.3824 -0.0430 -0.9230
vn 0.3823 -0.0430 -0.9230
vn 0.2633 0.7258 -0.6356
vn -0.6856 -0.0013 -0.7280
vn 0.3824 -0.0379 -0.9232
vn 0.2055 -0.8435 -0.4962
vn 0.9996 -0.0013 -0.0299
vn -0.0519 -0.9984 0.0215
vn -0.0215 -0.9984 0.0518
vn 0.7280 -0.0013 0.6855
vn 0.4963 -0.8435 -0.2056
vn 0.9232 -0.0380 -0.3824
vn 0.6356 0.7257 -0.2633
vn 0.0299 -0.0013 -0.9996
vn 0.9231 -0.0431 0.3821
vn -0.0519 -0.9984 -0.0215
vn 0.9239 -0.0000 -0.3827
vn 0.9239 -0.0000 0.3827
vn -0.0213 0.9997 0.0088
vn -0.0213 0.9997 -0.0088
vn -0.0088 0.9997 -0.0213
vn 0.0088 0.9997 -0.0213
vn 0.0213 0.9997 -0.0088
vn -0.9239 -0.0000 0.3827
vn -0.3827 -0.0000 0.9239
vn 0.0215 -0.9984 -0.0518
vn 0.0518 -0.9984 -0.0215
vn -0.0215 -0.9984 -0.0519
vn 0.3827 -0.0000 0.9239
vn 0.0516 -0.9984 0.0213
vn 0.0514 -0.9985 0.0213
vn -0.9239 -0.0000 -0.3827
vn 0.0215 -0.9984 0.0518
vn -0.3827 -0.0000 -0.9239
vn 0.0213 0.9997 0.0088
vn 0.0088 0.9997 0.0213
vn -0.0088 0.9997 0.0213
vn 0.3827 -0.0000 -0.9239
vn 0.4963 -0.8435 0.2056
vn 0.0299 -0.0013 0.9996
vn 0.6356 0.7257 0.2633
vn 0.9232 -0.0380 0.3824
vn 0.7281 -0.0013 -0.6855
vn -0.3648 0.7736 0.5181
vn -0.2487 0.8165 0.5210
vn -0.0796 0.7621 0.6425
vn 0.0163 0.7346 0.6783
vn 0.3862 0.7337 0.5590
vn 0.6442 0.6395 0.4197
vn 0.6767 0.7316 -0.0832
vn 0.6202 0.7484 -0.2353
vn 0.4709 0.6205 -0.6271
vn 0.6538 0.7122 -0.2556
vn 0.4839 0.7885 -0.3796
vn 0.1445 0.6473 -0.7484
vn -0.2792 0.6576 -0.6997
vn -0.3635 0.8405 -0.4017
vn -0.5496 0.7975 -0.2490
vn -0.5191 0.7064 -0.4812
vn -0.7582 0.6407 0.1213
vn -0.4961 0.8648 0.0770
vn 0.5332 0.8383 0.1136
vn -0.5069 0.7343 0.4515
vn 0.1296 0.7871 0.6031
vn 0.6367 0.7691 -0.0557
vn 0.3213 0.8878 0.3295
vn -0.3541 0.9024 0.2454
vt 0.515571 0.171270
vt 0.514975 0.170465
vt 0.514937 0.163650
vt 0.515575 0.162972
vt 0.515795 0.162656
vt 0.515798 0.171590
vt 0.512413 0.162962
vt 0.512186 0.162649
vt 0.513056 0.163698
vt 0.513215 0.170466
vt 0.512622 0.171191
vt 0.512403 0.171500
vt 0.512173 0.171194
vt 0.509079 0.171589
vt 0.509284 0.171269
vt 0.511975 0.162970
vt 0.489716 0.174660
vt 0.489581 0.175032
vt 0.487250 0.166389
vt 0.487543 0.166636
vt 0.492541 0.173821
vt 0.492832 0.174060
vt 0.495778 0.173032
vt 0.496058 0.173285
vt 0.492973 0.173701
vt 0.490718 0.165430
vt 0.491006 0.165686
vt 0.490581 0.165797
vt 0.490099 0.173769
vt 0.491773 0.173227
vt 0.490133 0.166625
vt 0.488344 0.167181
vt 0.499019 0.172392
vt 0.499288 0.172657
vt 0.496210 0.172934
vt 0.494245 0.164627
vt 0.494523 0.164891
vt 0.494094 0.164981
vt 0.493373 0.172845
vt 0.495040 0.172399
vt 0.493611 0.165783
vt 0.491793 0.166257
vt 0.502272 0.171890
vt 0.502530 0.172166
vt 0.499453 0.172313
vt 0.497795 0.163938
vt 0.498065 0.164213
vt 0.497632 0.164288
vt 0.496638 0.172100
vt 0.498310 0.171728
vt 0.497123 0.165073
vt 0.495289 0.165485
vt 0.505543 0.171525
vt 0.505791 0.171812
vt 0.502707 0.171830
vt 0.501374 0.163396
vt 0.501633 0.163682
vt 0.501198 0.163739
vt 0.499911 0.171498
vt 0.501591 0.171197
vt 0.500658 0.164502
vt 0.498808 0.164837
vt 0.508841 0.171293
vt 0.505982 0.171483
vt 0.504973 0.163008
vt 0.505220 0.163304
vt 0.504783 0.163342
vt 0.503198 0.171035
vt 0.504889 0.170805
vt 0.504214 0.164081
vt 0.502351 0.164337
vt 0.504937 0.162672
vt 0.508552 0.162434
vt 0.508578 0.162769
vt 0.501327 0.163061
vt 0.508377 0.163096
vt 0.505912 0.163987
vt 0.506505 0.170709
vt 0.507781 0.163810
vt 0.508212 0.170548
vt 0.508815 0.163072
vt 0.512166 0.162317
vt 0.504864 0.161682
vt 0.508506 0.161447
vt 0.512123 0.161348
vt 0.508431 0.160643
vt 0.504763 0.160880
vt 0.512027 0.160557
vt 0.515253 0.160410
vt 0.515759 0.161229
vt 0.490320 0.163351
vt 0.490478 0.164154
vt 0.486873 0.165017
vt 0.487142 0.164053
vt 0.493814 0.162536
vt 0.494001 0.163324
vt 0.490643 0.165108
vt 0.494176 0.164298
vt 0.487050 0.166070
vt 0.515910 0.162289
vt 0.497736 0.163606
vt 0.497587 0.162624
vt 0.501216 0.162074
vt 0.497423 0.161832
vt 0.501084 0.161277
vt 0.511357 0.163665
vt 0.509483 0.163777
vt 0.509841 0.170518
vt 0.511566 0.170424
vt 0.556836 0.004403
vt 0.557631 0.004567
vt 0.556302 0.005263
vt 0.555228 0.004286
vt 0.558489 0.005174
vt 0.557495 0.006566
vt 0.559113 0.005907
vt 0.558120 0.007791
vt 0.559619 0.006861
vt 0.558818 0.008613
vt 0.560421 0.007950
vt 0.560144 0.009526
vt 0.559723 0.011109
vt 0.558748 0.010100
vt 0.558344 0.012637
vt 0.557501 0.011702
vt 0.557139 0.013313
vt 0.556014 0.013072
vt 0.555165 0.011654
vt 0.554946 0.013350
vt 0.553493 0.012498
vt 0.556268 0.010310
vt 0.555394 0.009063
vt 0.554394 0.010497
vt 0.552350 0.011217
vt 0.552722 0.009179
vt 0.551858 0.010115
vt 0.551877 0.007286
vt 0.551222 0.008625
vt 0.552424 0.006168
vt 0.554078 0.008224
vt 0.554797 0.006407
vt 0.556121 0.008439
vt 0.553841 0.005167
vt 0.557420 0.009377
s 1
f 2/1/1 6/2/1 5/3/1 1/4/1
f 1/4/2 3/5/2 14/6/3 2/1/3
f 4/7/4 12/8/4 3/5/2 1/4/2
f 1/4/5 5/3/5 7/9/5 4/7/5
f 7/9/6 5/3/6 6/2/6 8/10/6
f 4/7/7 7/9/7 8/10/7 9/11/7
f 9/11/8 8/10/8 6/2/8 2/1/8
f 9/11/9 10/12/9 12/8/4 4/7/4
f 2/1/3 14/6/3 10/12/10 9/11/10
f 13/13/11 10/12/12 11/14/13 101/15/13
f 99/16/11 12/8/12 10/12/12 13/13/11
f 15/17/14 14/18/14 3/19/15 24/20/16
f 20/21/17 16/22/18 14/18/18 15/17/18
f 30/23/19 19/24/20 16/22/21 17/25/21
f 17/25/22 16/22/22 18/26/20 33/27/19
f 22/28/23 18/26/23 16/22/18 20/21/17
f 15/17/24 26/29/24 21/30/24 20/21/24
f 20/21/25 21/30/25 23/31/25 22/28/25
f 24/20/16 3/19/15 18/26/23 22/28/23
f 22/28/26 23/31/26 25/32/26 24/20/26
f 24/20/27 25/32/27 26/29/27 15/17/27
f 25/32/28 23/31/28 21/30/28 26/29/28
f 40/33/29 29/34/29 19/24/30 27/35/30
f 27/35/31 19/24/32 28/36/33 46/37/34
f 32/38/35 28/36/20 19/24/20 30/23/19
f 17/25/36 36/39/36 31/40/36 30/23/36
f 30/23/37 31/40/37 34/41/37 32/38/37
f 33/27/19 18/26/20 28/36/20 32/38/35
f 32/38/38 34/41/38 35/42/38 33/27/38
f 35/42/39 34/41/39 31/40/39 36/39/39
f 33/27/40 35/42/40 36/39/40 17/25/40
f 50/43/41 39/44/42 29/34/43 37/45/44
f 37/45/45 29/34/45 38/46/46 53/47/46
f 41/48/29 38/46/33 29/34/29 40/33/29
f 27/35/47 43/49/47 42/50/47 40/33/47
f 40/33/48 42/50/48 44/51/48 41/48/48
f 45/52/49 44/51/49 42/50/49 43/49/49
f 41/48/50 44/51/50 45/52/50 46/37/50
f 46/37/51 45/52/51 43/49/51 27/35/51
f 46/37/34 28/36/33 38/46/33 41/48/29
f 59/53/52 49/54/52 39/44/53 47/55/53
f 47/55/54 39/44/54 48/56/55 65/57/55
f 52/58/56 48/56/57 39/44/42 50/43/41
f 37/45/58 56/59/58 51/60/58 50/43/58
f 50/43/59 51/60/59 54/61/59 52/58/59
f 52/58/60 54/61/60 55/62/60 53/47/60
f 53/47/46 38/46/46 48/56/57 52/58/56
f 55/62/61 54/61/61 51/60/61 56/59/61
f 53/47/62 55/62/62 56/59/62 37/45/62
f 74/63/63 11/14/63 49/54/64 57/64/64
f 57/64/65 49/54/65 58/65/63 68/66/63
f 60/67/66 58/65/67 49/54/52 59/53/52
f 47/55/68 62/68/68 61/69/68 59/53/68
f 59/53/69 61/69/69 63/70/69 60/67/69
f 64/71/70 63/70/70 61/69/70 62/68/70
f 60/67/71 63/70/71 64/71/71 65/57/71
f 65/57/72 64/71/72 62/68/72 47/55/72
f 65/57/55 48/56/55 58/65/67 60/67/66
f 58/65/73 66/72/73 76/73/73 67/74/73
f 48/56/74 94/75/74 66/72/74 58/65/74
f 68/66/63 58/65/63 67/74/63 69/76/63
f 68/66/75 70/77/75 72/78/75 57/64/75
f 69/76/76 71/79/76 70/77/76 68/66/76
f 70/77/77 71/79/77 73/80/77 72/78/77
f 57/64/78 72/78/78 73/80/78 74/63/78
f 74/63/79 73/80/79 71/79/79 69/76/79
f 69/76/63 67/74/63 11/14/63 74/63/63
f 75/81/11 67/74/11 12/8/12 99/16/11
f 101/15/80 11/14/80 67/74/11 75/81/11
f 67/74/81 76/73/81 77/82/81 12/8/81
f 66/72/82 79/83/82 78/84/82 76/73/82
f 76/73/83 78/84/83 80/85/83 77/82/83
f 81/86/84 78/84/84 79/83/84 82/87/84
f 83/88/85 80/85/85 78/84/85 81/86/85
f 84/89/86 85/90/86 80/85/86 83/88/86
f 86/91/87 88/92/87 85/93/87 84/94/87
f 87/95/88 89/96/88 88/92/88 86/91/88
f 90/97/89 88/92/89 89/96/89 91/98/89
f 92/99/90 85/93/90 88/92/90 90/97/90
f 3/19/91 92/99/91 90/97/91 18/26/91
f 18/26/92 90/97/92 91/98/92 28/36/92
f 12/8/93 77/82/93 92/100/93 3/5/93
f 77/82/94 80/85/94 85/90/94 92/100/94
f 28/36/95 91/98/96 93/101/96 38/46/96
f 91/98/97 89/96/97 95/102/97 93/101/97
f 38/46/98 93/101/98 94/75/98 48/56/98
f 93/101/99 95/102/99 96/103/99 94/75/99
f 97/104/100 95/102/100 89/96/100 87/95/100
f 98/105/101 96/103/101 95/102/101 97/104/101
f 82/87/102 79/83/102 96/103/102 98/105/102
f 94/75/103 96/103/103 79/83/103 66/72/103
f 99/16/104 104/106/104 100/107/104 75/81/104
f 75/81/105 100/107/105 102/108/105 101/15/105
f 101/15/106 102/108/106 103/109/106 13/13/106
f 100/107/107 104/106/107 103/109/107 102/108/107
f 13/13/108 103/109/108 104/106/108 99/16/108
f 105/110/109 107/111/109 108/112/109 106/113/109
f 107/111/110 109/114/110 110/115/110 108/112/110
f 109/114/111 111/116/111 112/117/111 110/115/111
f 111/116/112 113/118/112 114/119/112 112/117/112
f 113/118/113 115/120/113 116/121/113 114/119/113
f 114/119/114 116/121/114 117/122/114 118/123/114
f 118/123/115 117/122/115 119/124/115 120/125/115
f 120/125/116 119/124/116 121/126/116 122/127/116
f 124/128/117 122/127/117 123/129/117 127/130/117
f 125/131/118 120/125/118 122/127/118 124/128/118
f 136/132/119 125/131/119 124/128/119 126/133/119
f 126/133/120 124/128/120 127/130/120 128/134/120
f 131/135/121 126/133/121 128/134/121 129/136/121
f 132/137/122 131/135/122 129/136/122 130/138/122
f 135/139/123 133/140/123 131/135/123 132/137/123
f 133/140/124 136/132/124 126/133/124 131/135/124
f 134/141/125 137/142/125 136/132/125 133/140/125
f 139/143/126 134/141/126 133/140/126 135/139/126
f 137/142/127 138/144/127 125/131/127 136/132/127
f 108/112/128 110/115/128 137/142/128 134/141/128
f 110/115/129 112/117/129 138/144/129 137/142/129
f 138/144/130 118/123/130 120/125/130 125/131/130
f 112/117/131 114/119/131 118/123/131 138/144/131
f 106/113/132 108/112/132 134/141/132 139/143/132
