# Blender 4.4.1
# www.blender.org
o Trash_Bin.001
v -0.221356 0.168614 0.140505
v -0.221356 0.012241 0.140506
v -0.221356 0.225007 -0.139424
v 0.219897 0.168614 0.140505
v 0.219897 0.012241 0.140506
v 0.219897 0.225007 -0.139424
v 0.219897 0.012241 -0.139423
v -0.221356 0.012241 -0.139423
v 0.182242 0.000000 0.123435
v 0.182242 0.000000 0.110606
v 0.182242 0.012830 0.123435
v 0.195071 0.000000 0.123435
v 0.195071 0.000000 0.110606
v 0.195071 0.012830 0.123435
v 0.195071 0.012830 0.110606
v 0.182242 0.012830 0.110606
v -0.195073 0.000000 0.123435
v -0.195073 0.000000 0.110606
v -0.195073 0.012830 0.123435
v -0.182244 0.000000 0.123435
v -0.182244 0.000000 0.110606
v -0.182244 0.012830 0.123435
v -0.182244 0.012830 0.110606
v -0.195073 0.012830 0.110606
v 0.182242 -0.000000 -0.110606
v 0.182242 -0.000000 -0.123435
v 0.182242 0.012830 -0.110606
v 0.195071 -0.000000 -0.110606
v 0.195071 -0.000000 -0.123435
v 0.195071 0.012830 -0.110606
v 0.195071 0.012830 -0.123435
v 0.182242 0.012830 -0.123435
v -0.195073 -0.000000 -0.110606
v -0.195073 -0.000000 -0.123435
v -0.195073 0.012830 -0.110606
v -0.182244 -0.000000 -0.110606
v -0.182244 -0.000000 -0.123435
v -0.182244 0.012830 -0.110606
v -0.182244 0.012830 -0.123435
v -0.195073 0.012830 -0.123435
v -0.227559 0.181292 0.144293
v -0.160119 0.181292 0.144293
v -0.227559 0.239662 -0.137760
v -0.232460 0.177746 0.147551
v -0.232460 0.236977 -0.146471
v -0.232460 0.167199 0.147551
v -0.155217 0.177746 0.147551
v -0.077973 0.177746 0.147551
v -0.150315 0.181292 0.144293
v -0.155217 0.236977 -0.146471
v -0.232460 0.226431 -0.146471
v -0.150315 0.239662 -0.137760
v -0.077973 0.236977 -0.146471
v -0.160119 0.239662 -0.137760
v -0.000730 0.226431 -0.146471
v -0.000730 0.236977 -0.146471
v -0.082875 0.239662 -0.137760
v -0.073071 0.239662 -0.137760
v -0.005631 0.239662 -0.137760
v -0.073071 0.181292 0.144293
v -0.005631 0.181292 0.144293
v -0.000730 0.177746 0.147551
v -0.000730 0.167199 0.147551
v 0.076514 0.177746 0.147551
v 0.004172 0.181292 0.144293
v 0.004172 0.239662 -0.137760
v 0.071612 0.181292 0.144293
v 0.071612 0.239662 -0.137760
v 0.076514 0.236977 -0.146471
v 0.153759 0.236977 -0.146471
v 0.081420 0.239662 -0.137760
v 0.148857 0.239662 -0.137760
v 0.081420 0.181292 0.144293
v 0.148857 0.181292 0.144293
v 0.153759 0.177746 0.147551
v 0.231006 0.167199 0.147551
v 0.158664 0.181292 0.144293
v 0.231006 0.177746 0.147551
v 0.226101 0.181292 0.144293
v 0.231006 0.236977 -0.146471
v 0.226101 0.239662 -0.137760
v 0.231006 0.226431 -0.146471
v 0.158664 0.239662 -0.137760
v -0.082875 0.181292 0.144293
vn -0.0000 -0.0000 1.0000
vn -1.0000 -0.0000 -0.0000
vn -0.0000 0.9803 0.1975
vn 1.0000 -0.0000 -0.0000
vn -0.0000 -0.0000 -1.0000
vn -0.0000 -1.0000 -0.0000
vn -0.0000 0.6766 0.7364
vn -0.0000 0.9793 0.2027
vn -0.5918 0.7898 0.1612
vn -0.5917 0.7899 0.1612
vn 0.5917 0.7899 0.1612
vn -0.0000 0.9556 -0.2946
vn -0.5914 0.7901 0.1613
vn -0.5917 0.7899 0.1613
vn -0.5915 0.7900 0.1613
vn -0.5917 0.7898 0.1613
vn 0.5915 0.7900 0.1613
vn -0.0000 -0.9803 -0.1975
vt 0.992205 0.231201
vt 0.992149 0.257088
vt 0.982975 0.257068
vt 0.983031 0.231182
vt 0.953797 0.231119
vt 0.953832 0.214697
vt 0.963006 0.214717
vt 0.966279 0.231146
vt 0.966224 0.257032
vt 0.953706 0.273427
vt 0.953742 0.257005
vt 0.962880 0.273447
vt 0.937375 0.231084
vt 0.937320 0.256970
vt 0.080926 0.004512
vt 0.080814 0.005257
vt 0.080069 0.005145
vt 0.080181 0.004400
vt 0.081670 0.004624
vt 0.081558 0.005369
vt 0.082414 0.004736
vt 0.082302 0.005481
vt 0.079325 0.005033
vt 0.079437 0.004289
vt 0.097013 0.004512
vt 0.096901 0.005257
vt 0.096157 0.005145
vt 0.096269 0.004400
vt 0.097757 0.004624
vt 0.097645 0.005369
vt 0.098502 0.004736
vt 0.098390 0.005480
vt 0.095413 0.005033
vt 0.095524 0.004289
vt 0.075563 0.004512
vt 0.075451 0.005257
vt 0.074707 0.005145
vt 0.074819 0.004401
vt 0.076307 0.004624
vt 0.076195 0.005369
vt 0.077052 0.004736
vt 0.076940 0.005481
vt 0.073963 0.005033
vt 0.074075 0.004289
vt 0.091651 0.004512
vt 0.091539 0.005257
vt 0.090794 0.005145
vt 0.090906 0.004400
vt 0.092395 0.004624
vt 0.092283 0.005369
vt 0.093139 0.004736
vt 0.093027 0.005480
vt 0.090050 0.005033
vt 0.090162 0.004289
vt 0.427498 0.176840
vt 0.427411 0.176450
vt 0.431241 0.178959
vt 0.430822 0.179001
vt 0.421537 0.193201
vt 0.418183 0.191104
vt 0.417601 0.191290
vt 0.427346 0.176466
vt 0.417160 0.190855
vt 0.426905 0.176032
vt 0.427753 0.175946
vt 0.431370 0.179358
vt 0.435096 0.181468
vt 0.434680 0.181509
vt 0.439259 0.183435
vt 0.422166 0.193606
vt 0.421576 0.193832
vt 0.417666 0.191409
vt 0.417351 0.191932
vt 0.425534 0.196309
vt 0.429153 0.199297
vt 0.425493 0.195681
vt 0.429475 0.198774
vt 0.429434 0.198148
vt 0.426120 0.196083
vt 0.435224 0.181866
vt 0.438526 0.184003
vt 0.438938 0.183959
vt 0.442828 0.186392
vt 0.439074 0.184353
vt 0.442412 0.186440
vt 0.430057 0.198552
vt 0.433349 0.200663
vt 0.433384 0.201296
vt 0.437317 0.203839
vt 0.440882 0.206886
vt 0.437277 0.203203
vt 0.433968 0.201074
vt 0.442965 0.186788
vt 0.446315 0.188880
vt 0.446731 0.188831
vt 0.437905 0.203613
vt 0.446868 0.189229
vt 0.450914 0.190703
vt 0.450607 0.191228
vt 0.450228 0.191320
vt 0.450630 0.191302
vt 0.441324 0.206368
vt 0.441247 0.205762
vt 0.451209 0.191520
vt 0.441903 0.206586
vt 0.441207 0.206370
vt 0.448767 0.168585
vt 0.460225 0.175836
vt 0.437347 0.161180
s 1
f 2/1/1 5/2/1 4/3/1 1/4/1
f 8/5/2 2/6/2 1/7/2 3/8/2
f 4/3/3 6/9/3 3/8/3 1/4/3
f 5/10/4 7/11/4 6/9/4 4/12/4
f 7/11/5 8/5/5 3/8/5 6/9/5
f 2/13/6 8/5/6 7/11/6 5/14/6
f 9/15/2 11/16/2 16/17/2 10/18/2
f 12/19/1 14/20/1 11/16/1 9/15/1
f 13/21/4 15/22/4 14/20/4 12/19/4
f 10/18/5 16/17/5 15/23/5 13/24/5
f 17/25/2 19/26/2 24/27/2 18/28/2
f 20/29/1 22/30/1 19/26/1 17/25/1
f 21/31/4 23/32/4 22/30/4 20/29/4
f 18/28/5 24/27/5 23/33/5 21/34/5
f 25/35/2 27/36/2 32/37/2 26/38/2
f 28/39/1 30/40/1 27/36/1 25/35/1
f 29/41/4 31/42/4 30/40/4 28/39/4
f 26/38/5 32/37/5 31/43/5 29/44/5
f 33/45/2 35/46/2 40/47/2 34/48/2
f 36/49/1 38/50/1 35/46/1 33/45/1
f 37/51/4 39/52/4 38/50/4 36/49/4
f 34/48/5 40/47/5 39/53/5 37/54/5
f 41/55/7 44/56/7 47/57/7 42/58/7
f 42/58/8 54/59/8 43/60/8 41/55/8
f 43/60/9 45/61/9 44/62/9 41/55/9
f 45/61/2 51/63/2 46/64/2 44/62/2
f 44/56/1 46/65/1 47/57/1
f 49/66/7 47/57/7 48/67/7 84/68/7
f 47/57/1 46/65/1 63/69/1 48/67/1
f 52/70/10 50/71/10 47/57/10 49/66/10
f 42/58/11 47/57/11 50/71/11 54/59/11
f 54/59/12 50/71/12 45/72/12 43/60/12
f 50/71/5 51/73/5 45/72/5
f 53/74/5 55/75/5 51/73/5 50/71/5
f 57/76/12 53/74/12 50/71/12 52/70/12
f 56/77/5 55/75/5 53/74/5
f 59/78/12 56/77/12 53/74/12 58/79/12
f 58/79/10 53/74/10 48/67/10 60/80/10
f 84/68/11 48/67/11 53/74/11 57/76/11
f 61/81/8 59/78/8 58/79/8 60/80/8
f 60/80/7 48/67/7 62/82/7 61/81/7
f 61/81/11 62/82/11 56/77/11 59/78/11
f 62/82/1 63/69/1 64/83/1
f 48/67/1 63/69/1 62/82/1
f 65/84/7 62/82/7 64/83/7 67/85/7
f 66/86/10 56/77/10 62/82/10 65/84/10
f 67/85/8 68/87/8 66/86/8 65/84/8
f 67/85/11 64/83/11 69/88/11 68/87/11
f 68/87/12 69/88/12 56/77/12 66/86/12
f 69/88/5 55/75/5 56/77/5
f 70/89/5 82/90/5 55/75/5 69/88/5
f 72/91/12 70/89/12 69/88/12 71/92/12
f 71/92/13 69/88/13 64/83/14 73/93/13
f 74/94/8 72/91/8 71/92/8 73/93/8
f 73/93/7 64/83/7 75/95/7 74/94/7
f 74/94/11 75/95/11 70/89/11 72/91/11
f 83/96/15 70/89/16 75/95/15 77/97/16
f 64/83/1 63/69/1 76/98/1 75/95/1
f 75/95/1 76/98/1 78/99/1
f 77/97/7 75/95/7 78/99/7 79/100/7
f 79/100/17 78/101/17 80/102/17 81/103/17
f 78/101/4 76/104/4 82/105/4 80/102/4
f 81/103/12 80/106/12 70/89/12 83/96/12
f 80/106/5 82/90/5 70/89/5
f 76/98/18 63/69/18 55/107/18 82/108/18
f 79/100/8 81/103/8 83/96/8 77/97/8
f 63/69/18 46/65/18 51/109/18 55/107/18
f 84/68/8 57/76/8 52/70/8 49/66/8
