# Blender 4.4.1
# www.blender.org
o Tree_2.001
v 0.000002 0.501627 -0.000000
v 0.000002 0.000000 0.041192
v -0.029127 0.000000 0.029127
v -0.041193 0.000000 0.000000
v -0.029127 -0.000000 -0.029127
v 0.000002 -0.000000 -0.041192
v 0.029127 -0.000000 -0.029127
v 0.041193 0.000000 0.000000
v 0.029127 0.000000 0.029127
v 0.032167 0.252573 0.010502
v 0.080812 0.276480 0.061276
v 0.103186 0.278664 -0.008586
v -0.101162 0.286946 -0.003642
v 0.024939 0.263291 0.095766
v -0.034399 0.252226 -0.102273
v 0.085741 0.289308 -0.076161
v 0.099524 0.379306 -0.092242
v 0.032442 0.276849 -0.104629
v 0.131090 0.349850 -0.038574
v 0.072496 0.624167 0.003511
v 0.133604 0.369904 0.037668
v 0.112165 0.402950 0.065545
v -0.039835 0.312364 0.099301
v 0.010771 0.608161 0.073261
v -0.100241 0.380305 0.067802
v 0.008630 0.794203 0.010765
v 0.028955 0.687256 -0.052568
v -0.069498 0.593546 -0.043685
v -0.093317 0.542042 0.001292
v -0.116747 0.385543 0.014929
v -0.098413 0.302577 -0.053473
v -0.047312 0.482478 -0.092595
v 0.030298 0.414061 -0.115421
vn 0.3816 0.0756 0.9212
vn -0.3816 0.0756 0.9212
vn -0.9212 0.0757 0.3816
vn -0.9212 0.0757 -0.3816
vn -0.3816 0.0756 -0.9212
vn 0.3816 0.0756 -0.9212
vn 0.9212 0.0756 -0.3816
vn 0.9212 0.0756 0.3816
vn 0.3109 -0.9394 0.1444
vn 0.3642 -0.9272 0.0876
vn 0.2837 -0.9333 -0.2202
vn -0.2622 -0.9521 0.1577
vn -0.2582 -0.9610 0.0989
vn 0.3271 -0.9257 -0.1902
vn 0.7815 -0.2237 -0.5825
vn 0.4995 -0.2259 -0.8363
vn 0.3307 -0.9184 -0.2172
vn 0.8436 -0.4525 -0.2891
vn 0.9710 0.2213 -0.0902
vn 0.8883 0.2489 -0.3859
vn 0.9376 -0.3426 0.0592
vn 0.6583 -0.1878 0.7289
vn 0.8667 -0.4230 0.2643
vn 0.8901 0.2638 0.3717
vn 0.5458 -0.1631 0.8219
vn 0.6760 0.3088 0.6691
vn 0.1456 0.1215 0.9818
vn 0.1853 0.0547 0.9812
vn -0.3307 0.1388 0.9335
vn -0.5656 0.2568 0.7837
vn 0.7007 0.2344 0.6739
vn 0.8887 0.3466 -0.3001
vn -0.7477 0.2797 0.6023
vn -0.4457 0.3919 -0.8048
vn -0.9247 0.3761 -0.0591
vn -0.9363 0.1671 0.3089
vn -0.9239 0.1063 -0.3676
vn -0.7735 -0.0029 -0.6338
vn -0.9407 -0.2003 0.2738
vn -0.9947 0.0996 -0.0236
vn -0.8016 0.0995 -0.5895
vn -0.3741 0.3102 -0.8740
vn -0.6066 -0.0006 -0.7950
vn -0.0890 0.2229 -0.9708
vn -0.2610 0.0259 -0.9650
vn 0.4025 0.2071 -0.8917
vn 0.2846 -0.0707 -0.9560
vn -0.0062 -0.0785 -0.9969
vn -0.7083 -0.6615 -0.2466
vn 0.8812 0.2534 -0.3992
vn -0.7377 -0.4057 0.5396
vn -0.5126 -0.7113 0.4810
vt 0.092756 0.032950
vt 0.064337 0.040960
vt 0.063891 0.039165
vt 0.063624 0.028135
vt 0.063983 0.026320
vt 0.063380 0.029968
vt 0.063251 0.031813
vt 0.063238 0.033663
vt 0.063340 0.035509
vt 0.063558 0.037346
vt 0.656666 0.379331
vt 0.653704 0.383407
vt 0.649497 0.382090
vt 0.657963 0.383649
vt 0.662145 0.384134
vt 0.653302 0.371547
vt 0.660849 0.372495
vt 0.669733 0.380738
vt 0.662989 0.389222
vt 0.659872 0.387599
vt 0.665822 0.383487
vt 0.656289 0.388628
vt 0.659127 0.403338
vt 0.654899 0.390481
vt 0.654073 0.403249
vt 0.646020 0.387191
vt 0.643841 0.392754
vt 0.658370 0.415545
vt 0.662771 0.407477
vt 0.646215 0.402857
vt 0.671162 0.404236
vt 0.645987 0.407402
vt 0.641665 0.394408
vt 0.637022 0.389244
vt 0.674794 0.385487
vt 0.678057 0.384817
vt 0.670112 0.396188
vt 0.666543 0.391462
s 1
f 1/1/1 2/2/1 9/3/1
f 1/1/2 3/4/2 2/5/2
f 1/1/3 4/6/3 3/4/3
f 1/1/4 5/7/4 4/6/4
f 1/1/5 6/8/5 5/7/5
f 1/1/6 7/9/6 6/8/6
f 1/1/7 8/10/7 7/9/7
f 1/1/8 9/3/8 8/10/8
f 10/11/9 11/12/9 14/13/9
f 11/12/10 10/11/10 12/14/10
f 12/14/11 10/11/11 16/15/11
f 10/11/12 13/16/12 15/17/12
f 10/11/13 14/13/13 13/16/13
f 10/11/14 15/18/14 16/15/14
f 16/15/15 17/19/15 19/20/15
f 16/15/16 18/21/16 17/19/16
f 16/15/17 15/18/17 18/21/17
f 12/14/18 16/15/18 19/20/18
f 21/22/19 19/20/19 20/23/19
f 19/20/20 17/19/20 20/23/20
f 21/22/21 12/14/21 19/20/21
f 11/12/22 21/22/22 22/24/22
f 11/12/23 12/14/23 21/22/23
f 21/22/24 20/23/24 22/24/24
f 14/13/25 11/12/25 22/24/25
f 24/25/26 22/24/26 20/23/26
f 23/26/27 14/13/27 22/24/27
f 23/26/28 22/24/28 24/25/28
f 25/27/29 23/26/29 24/25/29
f 25/27/30 24/25/30 26/28/30
f 24/25/31 20/23/31 26/28/31
f 20/23/32 27/29/32 26/28/32
f 29/30/33 25/27/33 26/28/33
f 27/29/34 28/31/34 26/28/34
f 28/32/35 29/30/35 26/28/35
f 30/33/36 25/27/36 29/30/36
f 28/32/37 30/33/37 29/30/37
f 13/34/38 30/33/38 28/32/38
f 30/33/39 13/34/39 25/27/39
f 31/35/40 13/36/40 28/31/40
f 32/37/41 31/35/41 28/31/41
f 27/29/42 32/37/42 28/31/42
f 15/18/43 31/35/43 32/37/43
f 33/38/44 32/37/44 27/29/44
f 15/18/45 32/37/45 33/38/45
f 17/19/46 33/38/46 27/29/46
f 17/19/47 18/21/47 33/38/47
f 18/21/48 15/18/48 33/38/48
f 15/18/49 13/36/49 31/35/49
f 20/23/50 17/19/50 27/29/50
f 13/34/51 23/26/51 25/27/51
f 14/13/52 23/26/52 13/34/52
