# Blender 4.4.1
# www.blender.org
o Tree_1.001
v -0.000002 0.550907 -0.000000
v 0.027597 0.000000 0.019326
v 0.005848 0.000000 0.033182
v -0.019329 0.000000 0.027601
v -0.033184 0.000000 0.005851
v -0.027603 -0.000000 -0.019326
v -0.005854 -0.000000 -0.033182
v 0.019323 -0.000000 -0.027600
v 0.033180 -0.000000 -0.005850
v 0.053499 0.185920 -0.058967
v -0.021166 0.206566 0.057847
v 0.081717 0.209623 0.033292
v -0.051575 0.216408 -0.062178
v 0.081825 0.286741 -0.085880
v -0.002968 0.275327 -0.135304
v 0.116556 0.256930 -0.003941
v 0.108868 0.419008 0.042151
v 0.084890 0.560995 -0.037880
v 0.006124 0.800850 0.003655
v 0.009571 0.640843 -0.054455
v 0.005687 0.434171 -0.102543
v 0.110882 0.447820 0.104425
v -0.004389 0.624788 0.106216
v -0.010775 0.422485 0.131772
v 0.022728 0.703671 0.065578
v 0.003889 0.270311 0.115053
v -0.083174 0.449951 0.104499
v -0.104008 0.269593 0.065885
v -0.129665 0.294373 -0.026459
v -0.092829 0.449124 -0.083371
v -0.065617 0.650212 0.046781
vn 0.9747 0.0564 0.2161
vn 0.5364 0.0564 0.8420
vn -0.2161 0.0564 0.9747
vn -0.8421 0.0564 0.5364
vn -0.9747 0.0564 -0.2161
vn -0.5364 0.0564 -0.8420
vn 0.2161 0.0564 -0.9747
vn 0.8420 0.0564 -0.5365
vn -0.2784 -0.9604 -0.0082
vn 0.0824 -0.9710 0.2243
vn 0.7738 -0.6290 -0.0751
vn -0.1829 -0.7026 -0.6877
vn 0.8084 -0.3529 -0.4711
vn 0.5062 -0.3523 -0.7871
vn 0.9862 0.0869 -0.1412
vn 0.8004 -0.1286 0.5856
vn 0.9263 0.0549 -0.3727
vn 0.9892 0.1182 -0.0867
vn 0.9513 0.3010 0.0657
vn 0.5014 0.3049 -0.8097
vn 0.4077 0.1997 -0.8910
vn 0.4753 0.1474 -0.8674
vn 0.4807 0.1506 -0.8639
vn 0.4740 0.1467 -0.8682
vn 0.9912 -0.1297 0.0280
vn 0.1946 0.1169 0.9739
vn 0.4477 0.2830 0.8482
vn 0.2351 -0.0837 0.9684
vn 0.5709 -0.2983 0.7649
vn 0.8814 0.3516 0.3154
vn 0.1862 -0.6958 0.6937
vn -0.3436 -0.5488 0.7621
vn -0.4095 -0.1455 0.9006
vn -0.3945 -0.1378 0.9085
vn -0.7052 -0.7090 0.0057
vn -0.9587 0.0508 0.2800
vn -0.5979 -0.7969 0.0861
vn -0.6435 -0.3276 -0.6917
vn -0.6572 -0.1174 -0.7445
vn -0.9756 0.1959 -0.0987
vn -0.9736 0.1378 0.1819
vn -0.6114 0.2682 0.7445
vn -0.8868 0.3296 -0.3239
vn -0.4694 0.5265 0.7088
vn -0.4300 0.4318 0.7929
vn -0.1528 0.2267 -0.9619
vn -0.1564 0.2077 -0.9656
vn -0.3388 0.3147 -0.8866
vn -0.3064 0.1288 0.9431
vn 0.4824 0.1516 -0.8627
vt 0.513881 0.182094
vt 0.481583 0.184385
vt 0.481511 0.182873
vt 0.481725 0.185891
vt 0.482210 0.175358
vt 0.482559 0.173886
vt 0.481930 0.176845
vt 0.481720 0.178343
vt 0.481580 0.179849
vt 0.481510 0.181361
vt 0.191964 0.293486
vt 0.195732 0.285700
vt 0.198925 0.292851
vt 0.189525 0.287898
vt 0.187388 0.298139
vt 0.183616 0.294600
vt 0.198535 0.299752
vt 0.192790 0.300340
vt 0.185628 0.307970
vt 0.188938 0.317165
vt 0.183315 0.309350
vt 0.180105 0.332021
vt 0.189386 0.324077
vt 0.196370 0.310987
vt 0.176969 0.308332
vt 0.178024 0.318999
vt 0.179829 0.323845
vt 0.176589 0.299752
vt 0.172762 0.295635
vt 0.169650 0.301193
vt 0.173322 0.310193
vt 0.160946 0.298616
vt 0.163963 0.304097
vt 0.154400 0.304343
vt 0.162897 0.314177
vt 0.174246 0.321399
vt 0.157936 0.316497
vt 0.169983 0.326267
s 1
f 1/1/1 2/2/1 9/3/1
f 1/1/2 3/4/2 2/2/2
f 1/1/3 4/5/3 3/6/3
f 1/1/4 5/7/4 4/5/4
f 1/1/5 6/8/5 5/7/5
f 1/1/6 7/9/6 6/8/6
f 1/1/7 8/10/7 7/9/7
f 1/1/8 9/3/8 8/10/8
f 10/11/9 11/12/9 13/13/9
f 10/11/10 12/14/10 11/12/10
f 16/15/11 12/16/11 10/11/11
f 10/11/12 13/13/12 15/17/12
f 16/15/13 10/11/13 14/18/13
f 10/11/14 15/17/14 14/18/14
f 17/19/15 16/15/15 18/20/15
f 12/16/16 16/15/16 17/19/16
f 16/15/17 14/18/17 18/20/17
f 17/19/18 18/20/18 22/21/18
f 22/21/19 18/20/19 19/22/19
f 19/22/20 18/20/20 20/23/20
f 18/20/21 21/24/21 20/23/21
f 14/18/22 21/24/23 18/20/24
f 12/16/25 17/19/25 22/21/25
f 24/25/26 22/21/26 23/26/26
f 23/26/27 22/21/27 25/27/27
f 24/25/28 26/28/28 22/21/28
f 26/28/29 12/16/29 22/21/29
f 25/27/30 22/21/30 19/22/30
f 11/29/31 12/16/31 26/28/31
f 11/29/32 26/28/32 28/30/32
f 28/30/33 26/28/33 27/31/33
f 26/28/34 24/25/34 27/31/34
f 13/32/35 28/30/35 29/33/35
f 29/33/36 28/30/36 27/31/36
f 13/32/37 11/29/37 28/30/37
f 13/32/38 29/33/38 15/34/38
f 15/34/39 29/33/39 30/35/39
f 30/35/40 29/33/40 31/36/40
f 29/33/41 27/31/41 31/36/41
f 27/31/42 23/26/42 31/36/42
f 30/35/43 31/36/43 19/22/43
f 31/36/44 23/26/44 25/27/44
f 31/36/45 25/27/45 19/22/45
f 21/37/46 30/35/46 20/38/46
f 15/34/47 30/35/47 21/37/47
f 20/38/48 30/35/48 19/22/48
f 27/31/49 24/25/49 23/26/49
f 14/18/22 15/17/50 21/24/23
