# Blender 4.4.1
# www.blender.org
o Desert_To_Export.082
v 0.007084 0.143205 0.048300
v -0.037994 0.175438 0.045234
v -0.033427 0.218465 0.035419
v 0.055114 0.145867 0.019840
v 0.056283 0.212683 0.020542
v 0.055597 -0.000000 -0.002036
v -0.003318 0.000000 0.056880
v -0.054588 0.144748 0.039720
v 0.008906 0.352648 0.056389
v 0.040719 0.354424 0.041142
v 0.055248 0.351232 0.007831
v 0.010975 0.393519 0.007048
v 0.003963 0.352453 -0.035780
v -0.039579 0.349999 0.012777
v 0.007084 0.143205 -0.050473
v -0.043303 0.226434 0.012780
v -0.146341 0.200535 0.002456
v -0.077860 0.212603 0.025326
v -0.117339 0.234847 0.008493
v -0.104619 0.307055 0.031079
v -0.126881 0.318580 0.008423
v -0.127448 0.231400 0.035420
v -0.112624 0.310723 0.044520
v -0.142059 0.321360 0.043278
v -0.124906 0.328265 0.029812
v -0.143836 0.319223 0.019728
v -0.152697 0.196899 0.028955
v -0.048960 0.000000 0.006106
v 0.054409 0.224850 -0.012064
v 0.054113 0.144049 -0.033233
v -0.003318 -0.000000 -0.060950
v 0.055658 0.134013 -0.006342
v 0.084538 0.155653 0.007647
v 0.084661 0.162956 -0.016497
v 0.146075 0.192055 -0.008093
v 0.138774 0.208149 -0.017506
v 0.085924 0.181722 -0.027117
v 0.088660 0.209442 0.005483
v 0.126708 0.228863 0.011342
v 0.138269 0.210838 0.042117
v 0.138763 0.284343 0.032704
v 0.134505 0.282397 0.011342
v 0.139533 0.283683 -0.009455
v 0.150867 0.304079 0.012306
v 0.161950 0.291484 -0.008093
v 0.161180 0.292144 0.034066
v 0.145884 0.193582 0.034066
v 0.148797 0.186558 0.013269
v 0.085644 0.164110 0.031184
v 0.087309 0.183380 0.040301
v 0.088548 0.202162 0.029646
v 0.178258 0.278910 0.027022
v 0.173808 0.269387 0.031327
v 0.171843 0.286023 0.032688
v 0.167433 0.286649 0.022489
v 0.170621 0.276312 0.019025
v 0.167186 0.265922 0.022580
v 0.160685 0.270571 0.019858
v 0.160559 0.265033 0.023797
v 0.163315 0.264858 0.030008
v 0.171812 0.277137 0.039388
v 0.161236 0.273730 0.037030
v 0.156814 0.269506 0.027285
v 0.160987 0.284876 0.034856
v 0.158048 0.280655 0.024728
v -0.016056 0.374028 0.031948
v 0.000152 0.366108 0.034176
v -0.020244 0.375102 0.049225
v -0.030772 0.361807 0.043787
v -0.020469 0.356530 0.029774
v -0.003798 0.348719 0.029597
v -0.012636 0.341380 0.036707
v -0.001771 0.340972 0.036956
v 0.004376 0.349282 0.040339
v -0.002446 0.374965 0.049834
v -0.000653 0.357895 0.055815
v -0.004462 0.341943 0.047449
v -0.017162 0.362745 0.061673
v -0.021273 0.348316 0.051412
v -0.156692 0.306650 0.023404
v -0.146193 0.301470 0.032626
v -0.167923 0.305224 0.032626
v -0.170250 0.294144 0.023404
v -0.156063 0.292366 0.019199
v -0.144115 0.287582 0.027087
v -0.152257 0.280071 0.027087
v -0.145296 0.280693 0.032626
v -0.144115 0.287582 0.038165
v -0.156692 0.306650 0.041848
v -0.156063 0.292366 0.046053
v -0.152257 0.280071 0.038165
v -0.165932 0.283262 0.032626
v -0.170250 0.294144 0.041848
vn -0.3211 -0.0275 0.9466
vn -0.1584 0.1010 0.9822
vn -0.2962 -0.0260 0.9548
vn -0.4056 0.0915 0.9095
vn -0.6779 0.0571 0.7329
vn 0.6325 -0.0572 0.7725
vn 0.5727 -0.0376 0.8189
vn 0.5749 -0.0458 0.8169
vn 0.5046 -0.0434 0.8623
vn 0.5028 -0.0508 0.8629
vn 0.5750 -0.0458 0.8169
vn 0.6326 -0.0572 0.7724
vn -0.4836 -0.0679 0.8727
vn 0.9811 0.0249 0.1918
vn 0.9812 0.0249 0.1916
vn 0.2573 0.7389 0.6228
vn 0.6709 0.7066 0.2249
vn 0.5936 0.2775 -0.7554
vn 0.5449 0.5589 -0.6251
vn 0.5934 0.2811 -0.7542
vn -0.5960 0.6261 -0.5028
vn -0.5163 0.6700 0.5333
vn -0.7544 0.0303 -0.6557
vn -0.7448 0.0792 0.6625
vn -0.7449 0.0792 0.6624
vn -0.0396 0.5021 -0.8639
vn -0.0863 0.3651 -0.9270
vn -0.1096 0.2902 -0.9507
vn 0.1218 0.8259 0.5504
vn -0.0924 0.8810 0.4640
vn 0.2016 0.7929 0.5750
vn -0.2094 0.8902 0.4047
vn 0.8843 -0.2440 0.3981
vn 0.8843 -0.2440 0.3982
vn 0.7316 0.0828 -0.6767
vn -0.1696 0.0776 -0.9825
vn 0.2015 0.7929 0.5750
vn 0.6965 0.6799 0.2293
vn -0.0443 -0.0306 0.9985
vn -0.0951 -0.1019 0.9902
vn 0.2305 0.7149 0.6602
vn 0.6870 0.6361 -0.3514
vn -0.3160 0.9200 -0.2317
vn -0.3296 0.9211 -0.2072
vn -0.2227 0.8956 -0.3850
vn -0.4078 0.9116 -0.0520
vn -0.1695 0.0776 -0.9825
vn -0.9939 0.0653 -0.0889
vn -0.9939 0.0653 -0.0891
vn -0.4217 -0.8682 -0.2614
vn -0.0032 0.0271 0.9996
vn -0.0974 0.1151 0.9886
vn -0.8206 0.0988 -0.5628
vn -0.8212 0.0994 -0.5620
vn -0.8218 0.0999 -0.5610
vn -0.8212 0.0994 -0.5619
vn -0.8225 0.1007 -0.5598
vn -0.8217 0.0999 -0.5610
vn 0.4833 0.1129 -0.8682
vn 0.3907 0.1099 -0.9139
vn 0.2703 0.1470 -0.9515
vn 0.3432 0.0437 -0.9383
vn 0.8052 -0.1176 -0.5812
vn 0.8052 -0.1175 -0.5812
vn 0.4204 -0.8416 0.3391
vn 0.4114 -0.8493 0.3308
vn 0.9998 0.0002 0.0207
vn 0.6331 -0.7274 -0.2648
vn 0.5472 -0.7931 -0.2673
vn 0.5357 -0.8010 -0.2674
vn 0.4394 -0.8579 -0.2664
vn 0.3500 -0.1677 -0.9216
vn 0.3478 -0.2882 -0.8922
vn 0.3385 -0.4241 -0.8400
vn 0.0675 0.1041 -0.9923
vn 0.0674 0.1041 -0.9923
vn 0.5613 0.6066 -0.5629
vn -0.2660 0.7370 -0.6213
vn -0.3484 0.7535 0.5575
vn -0.3562 0.8182 0.4512
vn -0.3562 0.8183 0.4512
vn -0.9459 0.0849 0.3132
vn -0.9459 0.0849 0.3131
vn -0.9316 0.0838 -0.3536
vn -0.9316 0.0838 -0.3537
vn -0.7961 0.5961 0.1044
vn -0.7976 0.6028 -0.0212
vn -0.7973 0.6029 -0.0277
vn -0.9317 0.0838 -0.3535
vn -0.7856 0.5996 -0.1528
vn 0.7535 0.6574 0.0035
vn -0.2305 0.7670 -0.5988
vn -0.3017 0.7684 0.5644
vn 0.9900 -0.1341 0.0436
vn 0.9887 -0.1305 0.0738
vn 0.2087 -0.1321 0.9690
vn 0.1874 -0.2755 0.9428
vn 0.2269 0.0324 0.9734
vn 0.9893 -0.1425 -0.0307
vn 0.3962 -0.8617 0.3170
vn 0.4053 -0.8544 0.3253
vn 0.1126 -0.4043 0.9077
vn -0.0045 -0.4157 0.9095
vn -0.4537 0.1155 0.8837
vn -0.4537 0.1154 0.8836
vn -0.4044 0.2508 0.8795
vn -0.0847 -0.4201 0.9035
vn -0.3971 0.4946 0.7731
vn 0.2357 0.9216 0.3084
vn 0.9741 -0.1555 -0.1641
vn 0.3433 0.0106 -0.9392
vn -0.2963 -0.0260 0.9547
vn -0.4837 -0.0680 0.8726
vn -0.4837 -0.0679 0.8726
vn 0.7465 -0.4782 -0.4626
vn 0.7465 -0.4782 -0.4625
vn 0.8809 0.0657 0.4686
vn 0.8809 0.0657 0.4687
vn 0.6339 0.6025 -0.4850
vn 0.6339 0.6025 -0.4849
vn 0.6339 0.6024 -0.4851
vn 0.7465 -0.4782 -0.4627
vn 0.0637 -0.4365 -0.8974
vn 0.0637 -0.4365 -0.8975
vn 0.0637 -0.4366 -0.8974
vn 0.3016 -0.9532 0.0205
vn 0.3015 -0.9532 0.0205
vn 0.3017 -0.9532 0.0205
vn 0.1148 -0.6520 0.7495
vn 0.1146 -0.6520 0.7495
vn -0.6366 -0.6291 0.4461
vn -0.6366 -0.6290 0.4461
vn -0.6366 -0.6291 0.4460
vn -0.8744 -0.1124 -0.4719
vn -0.8744 -0.1124 -0.4720
vn -0.8745 -0.1124 -0.4719
vn -0.9463 0.1066 0.3052
vn -0.9463 0.1066 0.3053
vn -0.3407 0.9392 -0.0429
vn -0.3408 0.9392 -0.0430
vn -0.8745 -0.1124 -0.4718
vn -0.3145 0.2804 -0.9069
vn -0.3146 0.2804 -0.9069
vn -0.3406 0.9392 -0.0428
vn -0.0936 0.4024 0.9107
vn -0.0935 0.4024 0.9107
vn -0.0937 0.4023 0.9107
vn 0.8810 0.0657 0.4685
vn -0.3144 0.2804 -0.9069
vn 0.1360 0.1567 -0.9782
vn 0.1361 0.1568 -0.9782
vn 0.2426 0.9415 -0.2339
vn 0.2426 0.9415 -0.2338
vn -0.7563 0.4775 -0.4472
vn -0.7563 0.4776 -0.4471
vn -0.7563 0.4775 -0.4473
vn 0.1359 0.1568 -0.9782
vn -0.1690 -0.5732 -0.8018
vn -0.1689 -0.5733 -0.8018
vn 0.7926 -0.1266 -0.5965
vn 0.7926 -0.1267 -0.5965
vn 0.7926 -0.1265 -0.5965
vn 0.9697 0.2142 0.1174
vn 0.9697 0.2142 0.1175
vn 0.9697 0.2142 0.1173
vn 0.7551 -0.5096 0.4125
vn 0.7551 -0.5096 0.4124
vn -0.2065 -0.9563 0.2072
vn -0.2066 -0.9562 0.2072
vn 0.0683 -0.5344 0.8425
vn 0.0684 -0.5343 0.8425
vn 0.0682 -0.5343 0.8425
vn -0.7953 0.0796 0.6010
vn -0.7953 0.0795 0.6010
vn -0.2065 -0.9562 0.2074
vn -0.7653 -0.5918 -0.2531
vn -0.7653 -0.5918 -0.2530
vn -0.7953 0.0797 0.6010
vn 0.2036 0.5436 0.8143
vn 0.2037 0.5435 0.8143
vn 0.2426 0.9415 -0.2340
vn -0.7653 -0.5918 -0.2532
vn 0.6590 0.3016 -0.6890
vn 0.6591 0.3016 -0.6889
vn 0.1702 0.9854 -0.0000
vn 0.1703 0.9854 0.0001
vn -0.4128 0.4476 -0.7932
vn -0.4128 0.4476 -0.7933
vn -0.4127 0.4475 -0.7933
vn 0.6590 0.3015 -0.6890
vn 0.4378 -0.4746 -0.7636
vn 0.4378 -0.4745 -0.7637
vn 0.4379 -0.4746 -0.7635
vn 0.9991 0.0432 -0.0000
vn 0.9991 0.0431 -0.0000
vn 0.9991 0.0433 -0.0000
vn 0.6590 0.3016 0.6890
vn 0.6591 0.3016 0.6889
vn 0.4378 -0.4746 0.7636
vn 0.4377 -0.4746 0.7637
vn 0.4378 -0.4747 0.7635
vn -0.3538 -0.6326 0.6890
vn -0.3538 -0.6326 0.6889
vn -0.1235 -0.9923 -0.0000
vn -0.1235 -0.9923 -0.0001
vn -0.3537 -0.6326 0.6890
vn -0.9959 -0.0904 -0.0000
vn -0.9959 -0.0902 -0.0000
vn -0.4128 0.4476 0.7933
vn -0.4128 0.4476 0.7932
vn -0.4128 0.4475 0.7933
vn -0.1235 -0.9923 0.0001
vn -0.3538 -0.6326 -0.6890
vn -0.3538 -0.6326 -0.6889
vn 0.1703 0.9854 -0.0001
vn -0.3538 -0.6325 -0.6890
vt 0.926407 0.235130
vt 0.921799 0.237441
vt 0.920687 0.234373
vt 0.921569 0.241560
vt 0.924182 0.254529
vt 0.935154 0.223054
vt 0.931472 0.236119
vt 0.930939 0.242208
vt 0.927419 0.255048
vt 0.927555 0.221779
vt 0.930804 0.255067
vt 0.531376 0.010484
vt 0.527673 0.013633
vt 0.527847 0.008289
vt 0.532721 0.014561
vt 0.526428 0.018722
vt 0.521931 0.012717
vt 0.918223 0.253501
vt 0.912185 0.253311
vt 0.912286 0.233871
vt 0.919222 0.242075
vt 0.816684 0.254861
vt 0.827806 0.256398
vt 0.812969 0.263246
vt 0.810633 0.259868
vt 0.813414 0.255077
vt 0.817549 0.253162
vt 0.803183 0.261487
vt 0.802253 0.260715
vt 0.803335 0.263764
vt 0.808335 0.256819
vt 0.212150 0.008307
vt 0.214092 0.010110
vt 0.211770 0.009924
vt 0.800551 0.258936
vt 0.214032 0.012164
vt 0.215558 0.008595
vt 0.216045 0.010701
vt 0.803717 0.265161
vt 0.813286 0.265935
vt 0.803547 0.267469
vt 0.823979 0.265668
vt 0.808251 0.253447
vt 0.814714 0.247893
vt 0.816615 0.250075
vt 0.910947 0.231647
vt 0.921352 0.220596
vt 0.914094 0.218686
vt 0.933883 0.243611
vt 0.940778 0.237031
vt 0.936922 0.256140
vt 0.936266 0.236448
vt 0.942958 0.223732
vt 0.933965 0.235287
vt 0.794160 0.274417
vt 0.792835 0.275174
vt 0.791972 0.273991
vt 0.793216 0.276886
vt 0.792259 0.277628
vt 0.792541 0.284408
vt 0.795142 0.284617
vt 0.793502 0.279932
vt 0.796446 0.279921
vt 0.797898 0.281034
vt 0.800282 0.283249
vt 0.802704 0.278626
vt 0.806657 0.286287
vt 0.804370 0.287912
vt 0.218015 0.008309
vt 0.219262 0.010598
vt 0.217027 0.010530
vt 0.802480 0.289879
vt 0.217705 0.012802
vt 0.220303 0.012738
vt 0.220621 0.008587
vt 0.813239 0.282140
vt 0.809456 0.285545
vt 0.802809 0.276031
vt 0.803302 0.273431
vt 0.795805 0.274726
vt 0.798170 0.276198
vt 0.798057 0.278293
vt 0.798938 0.278536
vt 0.790037 0.284861
vt 0.801438 0.292538
vt 0.750502 0.009812
vt 0.751387 0.010051
vt 0.750188 0.011742
vt 0.749750 0.009306
vt 0.749486 0.010148
vt 0.750071 0.010860
vt 0.749103 0.011373
vt 0.748936 0.011912
vt 0.385995 0.032169
vt 0.386033 0.031578
vt 0.386669 0.031840
vt 0.386643 0.032983
vt 0.385895 0.033752
vt 0.385250 0.032894
vt 0.385369 0.031758
vt 0.748002 0.011059
vt 0.748598 0.010398
vt 0.747981 0.008982
vt 0.748843 0.009292
vt 0.750067 0.008302
vt 0.967551 0.021069
vt 0.968967 0.021451
vt 0.967048 0.024157
vt 0.966348 0.020258
vt 0.965924 0.021606
vt 0.966861 0.022745
vt 0.965312 0.023565
vt 0.965045 0.024428
vt 0.023712 0.025772
vt 0.023772 0.024826
vt 0.024790 0.025245
vt 0.024748 0.027073
vt 0.023551 0.028306
vt 0.022519 0.026932
vt 0.022709 0.025113
vt 0.963550 0.023064
vt 0.964504 0.022005
vt 0.963517 0.019741
vt 0.964897 0.020236
vt 0.966854 0.018651
vt 0.125709 0.010275
vt 0.126870 0.010588
vt 0.125297 0.012807
vt 0.124723 0.009611
vt 0.124376 0.010716
vt 0.125144 0.011650
vt 0.123873 0.012322
vt 0.123655 0.013030
vt 0.086581 0.032213
vt 0.086630 0.031437
vt 0.087465 0.031781
vt 0.087431 0.033280
vt 0.086449 0.034291
vt 0.085603 0.033164
vt 0.085758 0.031673
vt 0.123533 0.009593
vt 0.123211 0.011043
vt 0.122429 0.011912
vt 0.122401 0.009187
vt 0.125138 0.008293
s 1
f 1/1/1 2/2/2 8/3/3
f 1/1/1 3/4/4 2/2/2
f 1/1/1 9/5/5 3/4/4
f 6/6/6 4/7/7 1/1/8
f 4/7/7 5/8/9 1/1/8
f 1/1/8 5/8/9 10/9/10
f 1/1/11 7/10/12 6/6/12
f 7/10/13 1/1/1 8/3/3
f 10/9/10 9/5/10 1/1/8
f 11/11/14 10/9/14 5/8/15
f 10/12/16 12/13/16 9/14/16
f 11/15/17 12/13/17 10/12/17
f 13/16/18 12/13/19 11/15/20
f 14/17/21 12/13/21 13/16/21
f 9/14/22 12/13/22 14/17/22
f 14/18/23 13/19/23 15/20/23
f 15/20/23 16/21/23 14/18/23
f 9/5/5 14/18/24 16/21/25
f 16/22/26 15/23/26 17/24/27
f 17/24/27 19/25/28 16/22/26
f 16/21/25 3/4/4 9/5/5
f 18/26/29 16/22/30 19/25/31
f 16/22/30 18/26/29 3/27/32
f 19/25/33 20/28/34 23/29/34
f 19/25/35 21/30/35 20/28/35
f 21/30/36 19/25/28 17/24/27
f 19/25/31 22/31/37 18/26/29
f 23/29/34 22/31/33 19/25/33
f 20/32/38 25/33/38 23/34/38
f 22/31/39 23/29/40 24/35/40
f 23/34/41 25/33/41 24/36/41
f 21/37/42 25/33/42 20/32/42
f 26/38/43 25/33/44 21/37/45
f 24/36/46 25/33/44 26/38/43
f 17/24/27 26/39/47 21/30/36
f 26/39/48 17/24/49 27/40/49
f 27/40/49 24/41/48 26/39/48
f 15/23/50 8/42/50 27/40/50
f 27/40/50 17/24/50 15/23/50
f 22/31/39 27/43/51 8/44/3
f 24/35/40 27/43/51 22/31/39
f 8/44/3 18/26/52 22/31/39
f 2/45/2 18/26/52 8/44/3
f 3/27/4 18/26/52 2/45/2
f 8/3/53 15/46/54 28/47/55
f 15/46/56 31/48/57 28/47/58
f 29/49/59 15/50/60 13/51/18
f 15/50/60 29/49/59 30/52/61
f 15/50/60 30/52/61 31/53/62
f 31/53/63 30/52/63 32/54/63
f 32/54/64 6/6/64 31/53/64
f 4/55/65 32/56/65 33/57/66
f 32/54/67 4/7/67 6/6/67
f 32/56/68 30/58/68 34/59/69
f 34/59/69 33/57/70 32/56/68
f 33/57/70 34/59/69 35/60/71
f 36/61/72 35/60/73 34/59/74
f 37/62/75 34/59/76 30/58/61
f 34/59/74 37/62/74 36/61/72
f 30/58/61 29/63/59 37/62/75
f 29/63/77 38/64/77 37/62/77
f 39/65/78 36/61/78 37/62/78
f 37/62/78 38/64/78 39/65/78
f 40/66/79 39/65/80 38/64/81
f 39/65/82 40/66/82 41/67/82
f 41/67/82 42/68/83 39/65/82
f 36/61/84 39/65/85 42/68/84
f 41/69/86 44/70/87 42/71/88
f 42/68/84 43/72/89 36/61/84
f 42/71/88 44/70/87 43/73/90
f 45/74/91 44/70/91 46/75/91
f 43/73/92 44/70/92 45/74/92
f 46/75/93 44/70/93 41/69/93
f 45/76/94 46/77/95 47/78/95
f 40/66/96 47/78/97 46/77/98
f 46/77/98 41/67/98 40/66/96
f 47/78/95 48/79/99 45/76/94
f 48/79/100 47/78/100 49/80/101
f 50/81/102 49/80/103 47/78/97
f 47/78/97 40/66/96 50/81/102
f 5/82/104 4/55/105 50/81/106
f 4/55/107 49/80/103 50/81/102
f 50/81/106 51/83/108 5/82/104
f 40/66/79 51/83/108 50/81/106
f 29/63/109 5/82/109 51/83/109
f 51/83/109 38/64/109 29/63/109
f 38/64/81 51/83/108 40/66/79
f 49/80/101 33/57/66 48/79/100
f 33/57/66 49/80/101 4/55/65
f 35/60/71 48/84/71 33/57/70
f 35/60/110 45/85/94 48/84/99
f 43/72/111 45/85/111 35/60/73
f 35/60/73 36/61/72 43/72/111
f 5/8/15 29/49/15 11/11/14
f 13/51/18 11/11/20 29/49/59
f 8/3/112 28/47/113 7/10/114
f 52/86/115 53/87/116 57/88/115
f 53/87/117 52/86/118 54/89/117
f 55/90/119 54/89/120 52/86/120
f 52/86/120 56/91/121 55/90/119
f 57/88/115 56/91/122 52/86/115
f 58/92/123 56/91/124 57/88/123
f 57/88/123 59/93/125 58/92/123
f 60/94/126 59/95/127 57/96/126
f 57/96/126 53/97/128 60/94/126
f 61/98/129 62/99/130 60/94/129
f 60/94/129 53/97/129 61/98/129
f 60/94/131 62/99/132 63/100/131
f 63/100/131 59/95/133 60/94/131
f 59/93/134 63/101/135 65/102/136
f 63/101/137 62/103/138 64/104/137
f 64/104/137 65/102/137 63/101/137
f 55/90/139 65/102/140 64/104/139
f 65/102/136 58/92/141 59/93/134
f 58/92/142 65/102/143 55/90/142
f 64/104/139 54/89/144 55/90/139
f 61/105/145 54/89/146 64/104/145
f 64/104/145 62/103/147 61/105/145
f 54/89/117 61/105/148 53/87/117
f 55/90/142 56/91/149 58/92/142
f 66/106/150 67/107/151 71/108/150
f 67/107/152 66/106/153 68/109/152
f 69/110/154 68/109/155 66/106/154
f 66/106/154 70/111/156 69/110/154
f 71/108/150 70/111/157 66/106/150
f 72/112/158 70/111/158 71/108/158
f 71/108/158 73/113/159 72/112/158
f 74/114/160 73/115/161 71/116/160
f 71/116/160 67/117/162 74/114/160
f 75/118/163 76/119/164 74/114/163
f 74/114/163 67/117/165 75/118/163
f 74/114/166 76/119/166 77/120/166
f 77/120/166 73/115/167 74/114/166
f 73/113/168 77/121/169 79/122/168
f 77/121/170 76/123/171 78/124/170
f 78/124/170 79/122/172 77/121/170
f 69/110/173 79/122/174 78/124/173
f 79/122/168 72/112/175 73/113/168
f 72/112/176 79/122/177 69/110/176
f 78/124/173 68/109/178 69/110/173
f 75/125/179 68/109/179 78/124/179
f 78/124/179 76/123/180 75/125/179
f 68/109/152 75/125/181 67/107/152
f 69/110/176 70/111/182 72/112/176
f 80/126/183 81/127/184 85/128/183
f 81/127/185 80/126/186 82/129/185
f 83/130/187 82/129/187 80/126/188
f 80/126/188 84/131/189 83/130/187
f 85/128/183 84/131/190 80/126/183
f 86/132/191 84/131/192 85/128/191
f 85/128/191 87/133/193 86/132/191
f 88/134/194 87/135/195 85/136/194
f 85/136/194 81/137/196 88/134/194
f 89/138/197 90/139/197 88/134/197
f 88/134/197 81/137/198 89/138/197
f 88/134/199 90/139/200 91/140/199
f 91/140/199 87/135/201 88/134/199
f 93/141/202 92/142/203 91/143/202
f 87/133/204 91/143/205 92/142/204
f 91/143/202 90/144/206 93/141/202
f 93/141/207 82/129/208 83/130/207
f 89/145/209 82/129/210 93/141/210
f 93/141/210 90/144/211 89/145/209
f 83/130/207 92/142/207 93/141/207
f 92/142/204 86/132/212 87/133/204
f 86/132/213 92/142/214 83/130/213
f 82/129/185 89/145/215 81/127/185
f 83/130/213 84/131/216 86/132/213
