# Blender 4.4.1
# www.blender.org
o Cactus_6
v -0.037305 0.054489 0.037304
v -0.048719 0.057943 0.000000
v -0.033621 0.060062 0.033621
v 0.000000 0.066969 0.040988
v 0.000000 0.057943 0.048719
v -0.040989 0.000000 0.040988
v -0.056450 0.000000 0.000000
v -0.040989 -0.000000 -0.040989
v -0.037305 0.054489 -0.037305
v 0.000000 -0.000000 -0.056450
v 0.040988 -0.000000 -0.040989
v 0.000000 0.057943 -0.048719
v -0.033621 0.060062 -0.033621
v 0.000000 0.066969 -0.040989
v 0.037304 0.054489 -0.037305
v 0.033620 0.060062 -0.033621
v 0.048718 0.057943 0.000000
v 0.056449 0.000000 0.000000
v 0.040988 0.000000 0.040988
v 0.000000 0.000000 0.056449
v 0.037304 0.054489 0.037304
v 0.040988 0.066969 0.000000
v 0.033620 0.060062 0.033621
v 0.000000 0.077826 0.000000
v -0.040989 0.066969 0.000000
v -0.015582 0.120001 0.002672
v -0.021393 0.118613 0.005033
v -0.039254 0.113706 0.003262
v -0.044349 0.110002 -0.007673
v -0.021535 0.119129 -0.002190
v -0.039271 0.082765 -0.011915
v -0.041074 0.082986 0.007612
v -0.011360 0.073228 -0.015169
v -0.011370 0.073244 0.003617
v -0.041266 0.085964 0.020834
v -0.010656 0.073068 0.017969
v -0.042951 0.110385 0.020713
v 0.016956 0.118466 0.000026
v 0.021309 0.116719 -0.002854
v 0.028751 0.107694 0.000026
v 0.034041 0.105305 0.007803
v 0.021309 0.116719 0.002906
v 0.030142 0.083380 0.012566
v 0.029956 0.081928 0.000026
v 0.008822 0.074792 0.013656
v 0.008421 0.074687 -0.000660
v 0.029910 0.083368 -0.010560
v 0.007629 0.074422 -0.011781
v 0.032902 0.105779 -0.014840
v -0.002145 0.070660 -0.003009
v 0.005302 0.073655 -0.010577
v -0.011081 0.075113 -0.007700
v 0.008969 0.079189 -0.001767
v -0.000135 0.078553 0.004431
v -0.010547 0.080927 0.001660
v 0.000567 0.089457 0.002903
v -0.008805 0.090893 -0.002738
v -0.012472 0.085358 -0.011548
v -0.004070 0.075091 -0.016217
v -0.003367 0.085994 -0.017746
v -0.001358 0.093888 -0.010306
v 0.007579 0.089435 -0.005614
v 0.007044 0.083621 -0.014975
vn -0.9391 0.1060 0.3270
vn -0.7196 0.6340 0.2832
vn -0.7196 0.6341 0.2832
vn -0.7195 0.6341 0.2832
vn -0.2832 0.6340 0.7196
vn -0.2832 0.6341 0.7195
vn -0.2832 0.6341 0.7196
vn -0.3270 0.1060 0.9390
vn -0.3270 0.1060 0.9391
vn -0.9391 0.1060 -0.3270
vn -0.9390 0.1060 -0.3270
vn -0.3270 0.1060 -0.9391
vn 0.3271 0.1061 -0.9390
vn 0.3270 0.1061 -0.9390
vn -0.2832 0.6341 -0.7196
vn -0.2832 0.6340 -0.7196
vn 0.2832 0.6341 -0.7196
vn 0.7196 0.6340 -0.2832
vn 0.7196 0.6341 -0.2832
vn 0.2832 0.6341 -0.7195
vn 0.9391 0.1060 -0.3270
vn 0.9390 0.1060 -0.3270
vn 0.9390 0.1060 0.3270
vn 0.9391 0.1060 0.3270
vn 0.3270 0.1060 0.9391
vn 0.7196 0.6341 0.2832
vn 0.7195 0.6341 0.2832
vn 0.2832 0.6341 0.7196
vn 0.2832 0.6341 0.7195
vn 0.2475 0.9368 0.2475
vn 0.2477 0.9368 0.2472
vn 0.2832 0.6340 0.7196
vn 0.2474 0.9368 0.2476
vn 0.2474 0.9368 -0.2474
vn 0.2476 0.9367 -0.2476
vn -0.2474 0.9368 0.2474
vn -0.2476 0.9367 0.2476
vn -0.2475 0.9368 -0.2475
vn -0.2475 0.9368 -0.2474
vn -0.2475 0.9367 -0.2475
vn -0.7195 0.6341 -0.2832
vn -0.7196 0.6341 -0.2832
vn -0.2726 0.9573 0.0966
vn -0.2726 0.9573 0.0967
vn -0.3088 0.9493 -0.0591
vn -0.3088 0.9493 -0.0590
vn -0.9919 -0.0555 0.1144
vn -0.9919 -0.0554 0.1143
vn -0.9919 -0.0555 0.1143
vn -0.3183 -0.9479 -0.0092
vn -0.3394 -0.9351 0.1016
vn -0.3394 -0.9352 0.1016
vn -0.3395 -0.9351 0.1015
vn -0.3394 -0.9351 0.1014
vn -0.3394 -0.9351 0.1015
vn -0.9920 -0.0078 -0.1258
vn -0.9920 -0.0078 -0.1259
vn -0.9920 -0.0078 -0.1260
vn 0.7207 0.6610 0.2091
vn 0.7207 0.6610 0.2090
vn 0.6664 0.6601 -0.3466
vn 0.6664 0.6601 -0.3467
vn 0.9614 -0.0806 -0.2629
vn 0.9615 -0.0806 -0.2628
vn 0.3465 -0.9369 0.0468
vn 0.3483 -0.9352 -0.0641
vn 0.9869 -0.0224 0.1595
vn 0.9869 -0.0225 0.1595
vn 0.9869 -0.0223 0.1597
vn 0.9869 -0.0224 0.1597
vn 0.7207 0.6610 0.2089
vn 0.5192 -0.7390 0.4293
vn 0.5192 -0.7390 0.4292
vn -0.1363 -0.9450 -0.2972
vn -0.1363 -0.9450 -0.2973
vn -0.4620 -0.6516 0.6016
vn -0.4621 -0.6516 0.6015
vn 0.5192 -0.7390 0.4294
vn -0.4620 -0.6516 0.6017
vn -0.3257 0.2934 0.8988
vn -0.3256 0.2935 0.8988
vn -0.3256 0.2933 0.8989
vn -0.9812 0.0874 0.1723
vn -0.9812 0.0873 0.1723
vn -0.9811 0.0875 0.1723
vn -0.6555 -0.2060 -0.7265
vn -0.6556 -0.2061 -0.7265
vn -0.6555 -0.2059 -0.7266
vn -0.5192 0.7390 -0.4293
vn -0.5192 0.7390 -0.4294
vn -0.5192 0.7390 -0.4292
vn 0.4620 0.6516 -0.6016
vn 0.4621 0.6517 -0.6015
vn 0.1363 0.9451 0.2972
vn 0.1363 0.9450 0.2973
vn 0.1363 0.9450 0.2972
vn 0.4620 0.6516 -0.6017
vn 0.3256 -0.2934 -0.8988
vn 0.3257 -0.2935 -0.8988
vn 0.3256 -0.2934 -0.8989
vn 0.9812 -0.0874 -0.1723
vn 0.9812 -0.0875 -0.1723
vn 0.9812 -0.0873 -0.1723
vn 0.6555 0.2059 0.7265
vn 0.6556 0.2061 0.7265
vn 0.6555 0.2060 0.7265
vn 0.1363 0.9451 0.2971
vn -0.1363 -0.9451 -0.2971
vn 0.6555 0.2060 0.7266
vt 0.927334 0.358706
vt 0.926607 0.362248
vt 0.921461 0.362180
vt 0.927828 0.359214
vt 0.930881 0.358977
vt 0.930893 0.358071
vt 0.924671 0.355973
vt 0.924509 0.368469
vt 0.927241 0.365807
vt 0.930716 0.371680
vt 0.937005 0.368632
vt 0.930783 0.366534
vt 0.927749 0.365312
vt 0.930795 0.365628
vt 0.934342 0.365900
vt 0.935069 0.362358
vt 0.933848 0.365392
vt 0.940215 0.362425
vt 0.937167 0.356136
vt 0.930960 0.352926
vt 0.934435 0.358798
vt 0.934163 0.362346
vt 0.933927 0.359293
vt 0.930838 0.362303
vt 0.927513 0.362259
vt 0.406628 0.008895
vt 0.406555 0.008309
vt 0.407589 0.010323
vt 0.408767 0.010246
vt 0.407209 0.008575
vt 0.410167 0.012457
vt 0.408474 0.013069
vt 0.411553 0.014847
vt 0.409964 0.015555
vt 0.407285 0.013422
vt 0.408763 0.016149
vt 0.406278 0.011405
vt 0.100811 0.008396
vt 0.101295 0.008305
vt 0.100286 0.009386
vt 0.100605 0.010244
vt 0.101238 0.008795
vt 0.099288 0.011883
vt 0.098490 0.011040
vt 0.097708 0.013328
vt 0.096830 0.012328
vt 0.097918 0.010260
vt 0.096117 0.011581
vt 0.099064 0.008557
vt 0.349996 0.008296
vt 0.351717 0.009060
vt 0.351095 0.009503
vt 0.277027 0.009322
vt 0.276814 0.010421
vt 0.275699 0.010326
vt 0.349146 0.009688
vt 0.348451 0.009371
vt 0.350095 0.009325
vt 0.350174 0.010158
vt 0.349492 0.010644
vt 0.348650 0.011243
vt 0.276073 0.009441
vt 0.274854 0.009592
vt 0.275494 0.008674
vt 0.350282 0.011283
vt 0.350354 0.012044
vt 0.350935 0.010506
vt 0.351876 0.010936
vt 0.276552 0.008309
s 1
f 1/1/1 2/2/1 7/3/1
f 2/2/2 1/1/3 3/4/4
f 4/5/5 3/4/6 1/1/7
f 1/1/7 5/6/7 4/5/5
f 5/6/8 1/1/9 6/7/8
f 7/3/1 6/7/1 1/1/1
f 8/8/10 7/3/11 2/2/10
f 2/2/10 9/9/10 8/8/10
f 10/10/12 8/8/12 9/9/12
f 11/11/13 10/10/14 12/12/14
f 9/9/12 12/12/12 10/10/12
f 13/13/15 14/14/15 12/12/16
f 12/12/16 9/9/15 13/13/15
f 15/15/17 12/12/17 14/14/17
f 12/12/14 15/15/14 11/11/13
f 17/16/18 15/15/19 16/17/19
f 14/14/17 16/17/20 15/15/17
f 15/15/21 17/16/21 18/18/21
f 18/18/21 11/11/22 15/15/21
f 19/19/23 18/18/24 17/16/23
f 20/20/25 19/19/25 21/21/25
f 17/16/23 21/21/24 19/19/23
f 22/22/26 23/23/27 21/21/26
f 21/21/26 17/16/26 22/22/26
f 5/6/28 21/21/28 23/23/29
f 21/21/25 5/6/25 20/20/25
f 23/23/30 22/22/31 24/24/30
f 23/23/29 4/5/32 5/6/28
f 24/24/30 4/5/33 23/23/30
f 14/14/34 24/24/35 22/22/34
f 4/5/36 24/24/37 25/25/36
f 13/13/38 25/25/39 24/24/38
f 24/24/38 14/14/40 13/13/38
f 25/25/36 3/4/36 4/5/36
f 3/4/4 25/25/3 2/2/2
f 9/9/41 2/2/42 25/25/42
f 25/25/42 13/13/42 9/9/41
f 22/22/34 16/17/34 14/14/34
f 16/17/19 22/22/19 17/16/18
f 6/7/8 20/20/8 5/6/8
f 27/26/43 26/27/43 28/28/44
f 29/29/45 28/28/45 26/27/45
f 26/27/46 30/30/46 29/29/46
f 28/28/47 29/29/47 31/31/47
f 31/31/48 32/32/48 28/28/49
f 32/32/50 31/31/50 33/33/50
f 33/33/50 34/34/50 32/32/50
f 35/35/51 32/32/51 34/34/52
f 34/34/53 36/36/54 35/35/55
f 32/32/56 35/35/56 37/37/56
f 37/37/57 28/28/57 32/32/58
f 28/28/44 37/37/44 27/26/43
f 39/38/59 38/39/59 40/40/60
f 41/41/61 40/40/61 38/39/61
f 38/39/62 42/42/62 41/41/62
f 40/40/63 41/41/63 43/43/63
f 43/43/64 44/44/64 40/40/64
f 44/44/65 43/43/65 45/45/65
f 45/45/65 46/46/65 44/44/65
f 47/47/66 44/44/66 46/46/66
f 46/46/66 48/48/66 47/47/66
f 44/44/67 47/47/67 49/49/68
f 49/49/69 40/40/70 44/44/70
f 40/40/60 49/49/71 39/38/59
f 50/50/72 51/51/73 53/52/72
f 51/53/74 50/54/75 52/55/74
f 55/56/76 52/57/77 50/50/76
f 53/52/72 54/58/78 50/50/72
f 50/50/76 54/58/79 55/56/76
f 56/59/80 57/60/81 55/56/80
f 55/56/80 54/58/82 56/59/80
f 58/61/83 52/57/84 55/56/83
f 55/56/83 57/60/85 58/61/83
f 59/62/86 52/55/87 58/63/86
f 58/63/86 60/64/88 59/62/86
f 61/65/89 60/66/90 58/61/89
f 58/61/89 57/60/91 61/65/89
f 61/65/92 62/67/93 63/68/92
f 62/67/94 61/65/95 57/60/96
f 63/68/92 60/66/97 61/65/92
f 63/69/98 51/53/99 59/62/98
f 59/62/98 60/64/100 63/69/98
f 53/52/101 51/51/102 63/68/101
f 63/68/101 62/67/103 53/52/101
f 53/52/104 62/67/105 56/59/106
f 57/60/96 56/59/107 62/67/94
f 52/55/74 59/62/108 51/53/74
f 56/59/106 54/58/109 53/52/104
