# Blender 4.4.1
# www.blender.org
o Cactus_4
v 0.067335 0.093829 -0.011840
v 0.067335 0.087730 -0.020696
v 0.013129 0.000000 0.006481
v 0.046627 0.125331 -0.004223
v 0.046627 0.125331 0.006292
v -0.024658 0.129196 0.003649
v -0.024658 0.126247 0.013598
v 0.006480 0.049220 0.022965
v -0.054970 0.092801 0.006691
v -0.013130 0.000000 0.008701
v -0.013130 -0.000000 -0.006630
v 0.006480 0.049220 0.011652
v -0.054970 0.092801 -0.004622
v 0.013129 -0.000000 -0.008551
v 0.054442 0.196723 0.016879
v 0.051980 0.196738 0.025801
v 0.031917 0.193968 0.005622
v 0.015161 0.173420 0.008221
v 0.048573 0.163278 0.004889
v 0.076038 0.182384 0.022145
v 0.074719 0.181158 0.031223
v 0.073922 0.160180 0.020523
v 0.074836 0.162400 0.011586
v 0.062249 0.136137 0.008377
v 0.047659 0.161057 0.013827
v 0.038607 0.120066 0.006946
v 0.014247 0.171200 0.017159
v 0.028552 0.194620 0.014219
v 0.016079 0.138432 0.009205
v 0.016993 0.140653 0.000268
v 0.039521 0.122286 -0.001991
v 0.063163 0.138357 -0.000561
v -0.075024 0.147476 -0.003124
v -0.074817 0.147382 -0.009743
v -0.058595 0.154071 0.000778
v -0.041786 0.146185 -0.003546
v -0.058466 0.129411 0.004848
v -0.084284 0.130972 -0.002682
v -0.084388 0.129712 -0.009183
v -0.075312 0.117775 -0.001472
v -0.075312 0.119779 0.004840
v -0.058306 0.107527 0.005394
v -0.058466 0.127406 -0.001464
v -0.038169 0.105079 0.002561
v -0.041786 0.144180 -0.009858
v -0.057999 0.154700 -0.005788
v -0.030783 0.123675 -0.003345
v -0.030783 0.125679 0.002967
v -0.038169 0.107083 0.008873
v -0.058306 0.109532 0.011706
vn 0.8015 0.5703 -0.1797
vn 0.8016 0.5703 -0.1795
vn 0.8609 -0.4930 0.1260
vn 0.8609 -0.4930 0.1258
vn 0.5722 -0.1517 0.8060
vn 0.0483 0.9886 0.1424
vn 0.0483 0.9886 0.1426
vn 0.1027 0.1609 0.9816
vn 0.0801 -0.3068 0.9484
vn -0.2978 -0.0641 0.9525
vn -0.2978 -0.0640 0.9525
vn -0.9116 -0.4110 -0.0000
vn -0.0678 0.3710 -0.9261
vn 0.3227 0.1037 -0.9408
vn 0.3228 0.1037 -0.9408
vn 0.3226 0.1037 -0.9408
vn -0.5459 0.1742 -0.8196
vn -0.7617 0.6418 0.0890
vn -0.7617 0.6418 0.0891
vn -0.7617 0.6418 0.0889
vn -0.1163 -0.1436 -0.9828
vn 0.5238 0.8355 0.1662
vn -0.0744 0.9953 -0.0626
vn 0.1533 0.1067 -0.9824
vn 0.1533 0.1068 -0.9824
vn 0.1532 0.1068 -0.9824
vn 0.3264 0.3305 -0.8856
vn 0.3265 0.3305 -0.8856
vn 0.3264 0.3306 -0.8855
vn -0.3285 -0.3252 0.8868
vn -0.3286 -0.3252 0.8867
vn 0.9894 -0.1018 0.1032
vn -0.3284 -0.3252 0.8868
vn 0.9024 -0.4307 -0.0147
vn -0.0787 -0.2567 0.9633
vn -0.0788 -0.2567 0.9633
vn -0.1568 -0.1008 0.9825
vn -0.1569 -0.1008 0.9825
vn -0.0786 -0.2567 0.9633
vn -0.0024 -0.1969 0.9804
vn -0.0023 -0.1969 0.9804
vn -0.1567 -0.1008 0.9825
vn -0.8164 0.5579 -0.1494
vn -0.8164 0.5579 -0.1492
vn -0.0025 -0.1970 0.9804
vn -0.9936 -0.0291 -0.1089
vn -0.9936 -0.0292 -0.1088
vn -0.6270 -0.7386 -0.2477
vn -0.6270 -0.7386 -0.2476
vn 0.0024 0.1969 -0.9804
vn 0.5622 -0.8142 -0.1448
vn 0.5622 -0.8142 -0.1447
vn 0.0787 0.2567 -0.9633
vn 0.0788 0.2567 -0.9633
vn -0.8752 0.4805 -0.0565
vn -0.3888 0.9212 0.0137
vn 0.0189 0.1629 0.9865
vn 0.0190 0.1630 0.9865
vn 0.0189 0.1630 0.9864
vn -0.2546 0.2697 0.9287
vn -0.2546 0.2696 0.9287
vn 0.2537 -0.2642 -0.9305
vn 0.2536 -0.2642 -0.9305
vn -0.8243 -0.5470 0.1461
vn 0.2535 -0.2642 -0.9305
vn -0.5715 -0.7821 0.2483
vn -0.5715 -0.7821 0.2484
vn -0.0089 -0.3262 -0.9453
vn -0.0088 -0.3262 -0.9453
vn -0.0186 -0.1561 -0.9876
vn -0.0185 -0.1561 -0.9876
vn -0.0090 -0.3262 -0.9453
vn -0.1060 -0.3099 -0.9448
vn -0.1059 -0.3099 -0.9448
vn -0.0187 -0.1561 -0.9876
vn 0.4716 0.8789 -0.0719
vn 0.4716 0.8789 -0.0721
vn 0.8903 0.4340 -0.1378
vn 0.9352 -0.3374 0.1071
vn 0.1060 0.3099 0.9448
vn -0.0731 -0.9506 0.3018
vn -0.0731 -0.9505 0.3019
vn 0.0089 0.3262 0.9453
vn 0.0088 0.3261 0.9453
vn -0.2546 0.2698 0.9287
vt 0.088507 0.054272
vt 0.089253 0.054932
vt 0.084992 0.054866
vt 0.097484 0.049465
vt 0.078854 0.043332
vt 0.086390 0.050371
vt 0.084638 0.053958
vt 0.079122 0.048170
vt 0.078335 0.056614
vt 0.078002 0.055711
vt 0.076344 0.043923
vt 0.074335 0.053326
vt 0.064764 0.059401
vt 0.064575 0.057993
vt 0.073948 0.056919
vt 0.085697 0.066994
vt 0.083240 0.067816
vt 0.083337 0.062638
vt 0.076551 0.060881
vt 0.074087 0.057958
vt 0.097934 0.050783
vt 0.088453 0.057601
vt 0.229898 0.011894
vt 0.229214 0.011943
vt 0.228637 0.009617
vt 0.230573 0.014000
vt 0.233027 0.014650
vt 0.232834 0.011424
vt 0.229667 0.009550
vt 0.226332 0.009858
vt 0.229238 0.008798
vt 0.231539 0.008313
vt 0.226124 0.012460
vt 0.231800 0.009123
vt 0.234433 0.008316
vt 0.223771 0.011084
vt 0.229540 0.014177
vt 0.222284 0.013342
vt 0.227294 0.015586
vt 0.230601 0.014890
vt 0.233251 0.015483
vt 0.224062 0.015457
vt 0.236014 0.013443
vt 0.236309 0.014263
vt 0.236937 0.013500
vt 0.236460 0.010868
vt 0.237247 0.010667
vt 0.234590 0.009196
vt 0.235359 0.008668
vt 0.632519 0.010876
vt 0.632030 0.010911
vt 0.631617 0.009246
vt 0.633003 0.012383
vt 0.634758 0.012848
vt 0.634620 0.010539
vt 0.632354 0.009198
vt 0.629967 0.009419
vt 0.632047 0.008660
vt 0.633694 0.008313
vt 0.629819 0.011280
vt 0.633881 0.008893
vt 0.635765 0.008315
vt 0.628135 0.010296
vt 0.632263 0.012510
vt 0.627071 0.011912
vt 0.630656 0.013518
vt 0.633022 0.013020
vt 0.634919 0.013444
vt 0.628343 0.013425
vt 0.636896 0.011984
vt 0.637107 0.012571
vt 0.637557 0.012025
vt 0.637215 0.010141
vt 0.637779 0.009998
vt 0.635877 0.008945
vt 0.636427 0.008567
s 1
f 1/1/1 2/2/1 4/3/2
f 2/2/3 1/1/3 3/4/4
f 3/5/5 1/6/5 5/7/5
f 4/3/2 5/7/2 1/1/1
f 5/7/5 8/8/5 3/5/5
f 5/7/6 4/3/6 6/9/7
f 6/9/7 7/10/7 5/7/6
f 8/8/8 5/7/8 7/10/8
f 10/11/9 3/5/9 8/8/9
f 8/8/10 7/10/11 9/12/10
f 9/12/10 10/11/10 8/8/10
f 11/13/12 10/14/12 9/15/12
f 14/16/13 11/17/13 12/18/13
f 6/9/14 12/18/15 11/17/14
f 11/17/14 13/19/16 6/9/14
f 9/15/12 13/20/12 11/13/12
f 3/4/4 14/21/4 2/2/3
f 2/22/17 14/16/17 12/18/17
f 7/10/18 6/9/19 13/20/18
f 13/20/18 9/15/20 7/10/18
f 4/3/21 12/18/21 6/9/21
f 12/18/17 4/3/17 2/22/17
f 15/23/22 16/24/22 21/25/22
f 16/24/23 15/23/23 17/26/23
f 18/27/24 17/26/25 15/23/24
f 15/23/24 19/28/26 18/27/24
f 19/28/27 15/23/28 20/29/29
f 21/25/22 20/29/22 15/23/22
f 22/30/30 21/25/31 16/24/30
f 20/29/32 21/31/32 22/32/32
f 16/24/30 25/33/33 22/30/30
f 22/32/32 23/34/32 20/29/32
f 23/34/34 22/32/34 24/35/34
f 24/36/35 22/30/36 25/33/35
f 25/33/37 16/24/38 28/37/37
f 25/33/35 26/38/39 24/36/35
f 26/38/40 25/33/40 27/39/41
f 28/37/37 27/39/42 25/33/37
f 28/40/43 17/26/43 18/27/44
f 17/26/23 28/37/23 16/24/23
f 18/27/44 27/41/44 28/40/43
f 27/39/41 29/42/45 26/38/40
f 30/43/46 29/44/46 27/41/47
f 27/41/47 18/27/47 30/43/46
f 29/45/48 30/43/48 31/46/49
f 19/28/50 31/46/50 30/43/50
f 30/43/50 18/27/50 19/28/50
f 31/46/49 26/47/49 29/45/48
f 26/47/51 31/46/51 32/48/52
f 31/46/53 19/28/54 23/34/53
f 23/34/53 32/48/53 31/46/53
f 32/48/52 24/49/52 26/47/51
f 24/35/34 32/48/34 23/34/34
f 20/29/29 23/34/29 19/28/27
f 33/50/55 34/51/55 39/52/55
f 34/51/56 33/50/56 35/53/56
f 36/54/57 35/53/58 33/50/57
f 33/50/57 37/55/59 36/54/57
f 37/55/60 33/50/61 38/56/60
f 39/52/55 38/56/55 33/50/55
f 40/57/62 39/52/62 34/51/63
f 38/56/64 39/58/64 40/59/64
f 34/51/63 43/60/65 40/57/62
f 40/59/64 41/61/64 38/56/64
f 41/61/66 40/59/66 42/62/67
f 42/63/68 40/57/69 43/60/68
f 43/60/70 34/51/71 46/64/70
f 43/60/68 44/65/72 42/63/68
f 44/65/73 43/60/73 45/66/74
f 46/64/70 45/66/75 43/60/70
f 46/67/76 35/53/76 36/54/77
f 35/53/56 46/64/56 34/51/56
f 36/54/77 45/68/77 46/67/76
f 45/66/74 47/69/74 44/65/73
f 48/70/78 47/71/78 45/68/78
f 45/68/78 36/54/78 48/70/78
f 47/72/79 48/70/79 49/73/79
f 37/55/80 49/73/80 48/70/80
f 48/70/80 36/54/80 37/55/80
f 49/73/79 44/74/79 47/72/79
f 44/74/81 49/73/81 50/75/82
f 49/73/83 37/55/84 41/61/83
f 41/61/83 50/75/83 49/73/83
f 50/75/82 42/76/82 44/74/81
f 42/62/67 50/75/67 41/61/66
f 38/56/60 41/61/85 37/55/60
