# Blender 4.4.1
# www.blender.org
o Desert_To_Export.078
v -0.044609 0.102830 -0.011723
v -0.000197 0.073686 -0.037602
v -0.036605 0.230929 0.004821
v -0.035051 -0.000000 -0.000302
v -0.007682 0.000000 0.039742
v -0.019995 0.101404 0.026503
v -0.013750 0.237358 0.037529
v 0.010179 0.238619 0.030080
v -0.008198 0.251477 0.027269
v 0.008208 0.248436 0.024571
v 0.018095 0.247422 0.008100
v -0.004002 0.252529 -0.014386
v 0.023815 0.236352 0.008157
v -0.019658 0.251487 0.006182
v -0.007755 0.237219 -0.027768
v 0.035467 0.106226 -0.007415
v 0.033575 0.097297 0.016117
v 0.056677 0.076785 -0.013240
v 0.058127 0.094995 0.009348
v 0.055006 0.089823 0.026496
v 0.028200 0.053725 -0.022548
v 0.003392 -0.000000 -0.043231
v 0.028566 0.058547 0.002049
v 0.054613 0.063323 -0.004002
v 0.053226 0.056847 0.015369
v 0.099958 0.082643 0.006720
v 0.095973 0.094076 -0.000746
v 0.084068 0.108792 0.018009
v 0.089527 0.146824 0.018943
v 0.095540 0.147737 0.004982
v 0.100869 0.162227 0.021578
v 0.111074 0.153279 0.008622
v 0.105484 0.153748 0.038051
v 0.099304 0.078738 0.022004
v 0.094772 0.083728 0.036219
v 0.088476 0.095986 0.040944
v 0.049966 0.062790 0.031059
v 0.051715 0.076480 0.035106
v 0.028496 0.050082 0.019230
v 0.039342 0.000000 0.003791
v 0.089949 0.148206 0.034412
vn -0.5666 -0.1428 -0.8115
vn -0.6283 -0.0938 -0.7723
vn -0.6825 -0.0464 -0.7294
vn -0.6082 0.0724 -0.7905
vn -0.6083 0.0724 -0.7904
vn -0.8305 -0.0133 0.5568
vn -0.8318 -0.0178 0.5548
vn -0.8330 -0.0225 0.5528
vn -0.8318 -0.0181 0.5547
vn 0.2211 -0.0740 0.9724
vn 0.2639 -0.0170 0.9644
vn 0.2309 0.5110 0.8280
vn 0.2308 0.5110 0.8280
vn 0.2309 0.5109 0.8280
vn -0.7222 0.5694 0.3927
vn 0.7923 0.4117 0.4502
vn 0.1168 0.9924 0.0382
vn 0.7048 0.3610 -0.6107
vn 0.7048 0.3610 -0.6106
vn 0.6929 0.2221 -0.6860
vn -0.7222 0.5694 0.3928
vn -0.6631 0.5781 -0.4755
vn -0.6631 0.5781 -0.4754
vn 0.5753 0.1067 -0.8110
vn 0.5772 0.1223 -0.8074
vn 0.6901 0.2042 -0.6943
vn 0.1807 0.9222 0.3419
vn 0.9391 0.0850 0.3331
vn 0.9390 0.0850 0.3331
vn 0.9390 0.0850 0.3333
vn 0.4675 0.1028 -0.8780
vn 0.2760 0.0467 -0.9600
vn 0.6524 0.5690 -0.5006
vn 0.5152 0.0902 -0.8523
vn 0.8923 -0.0355 -0.4500
vn 0.8923 -0.0356 -0.4501
vn 0.1728 -0.9844 -0.0330
vn 0.1728 -0.9844 -0.0329
vn 0.2937 -0.9478 -0.1240
vn 0.2758 0.0468 -0.9601
vn 0.3268 -0.9332 -0.1494
vn 0.4362 -0.8687 -0.2346
vn 0.4809 -0.1964 -0.8545
vn 0.4585 -0.3303 -0.8251
vn 0.4197 -0.4832 -0.7683
vn -0.1521 0.7540 -0.6390
vn -0.8587 0.0838 -0.5056
vn -0.8587 0.0838 -0.5057
vn 0.4969 0.0106 -0.8678
vn -0.8587 0.0838 -0.5055
vn -0.7812 0.6029 -0.1618
vn -0.7826 0.6028 -0.1554
vn -0.7485 0.5996 -0.2832
vn -0.1262 0.7670 -0.6291
vn 0.4968 0.0106 -0.8678
vn 0.7421 0.6574 0.1305
vn 0.9685 -0.1341 0.2099
vn 0.9621 -0.1305 0.2394
vn 0.9878 -0.1555 0.0025
vn 0.9803 -0.1425 0.1366
vn 0.0386 -0.2127 0.9764
vn 0.0486 -0.1013 0.9937
vn -0.0540 -0.3001 0.9524
vn 0.0595 0.0324 0.9977
vn 0.3476 -0.8478 0.4005
vn 0.3187 -0.9216 0.2215
vn -0.2513 -0.2539 0.9340
vn -0.5641 0.2314 0.7926
vn -0.5642 0.2313 0.7926
vn -0.5207 0.3502 0.7786
vn -0.3675 -0.2202 0.9036
vn -0.4287 0.7686 0.4749
vn -0.4943 0.5585 0.6661
vn 0.4355 0.0536 0.8986
vn 0.3762 0.0514 0.9251
vn 0.2066 -0.0107 0.9784
vn 0.9786 0.1829 0.0941
vn 0.2565 -0.9653 -0.0482
vn 0.2565 -0.9654 -0.0482
vn 0.3058 -0.9390 0.1571
vn 0.2640 -0.0170 0.9644
vn 0.8923 -0.0355 -0.4501
vn -0.4245 0.8209 0.3820
vn -0.4244 0.8210 0.3819
vn -0.9852 0.0849 0.1492
vn -0.9852 0.0849 0.1491
vn -0.8023 0.5961 -0.0314
vn -0.3925 0.7684 0.5055
vn -0.6284 -0.0937 -0.7723
vn -0.7449 0.0147 -0.6670
vn -0.6827 -0.0463 -0.7293
vt 0.964912 0.298798
vt 0.959778 0.297050
vt 0.963593 0.289485
vt 0.968225 0.310183
vt 0.971973 0.310203
vt 0.968008 0.288283
vt 0.968935 0.297806
vt 0.974263 0.309800
vt 0.798499 0.013649
vt 0.801415 0.014854
vt 0.800645 0.015739
vt 0.799167 0.015292
vt 0.795294 0.016890
vt 0.801314 0.017380
vt 0.798958 0.018889
vt 0.802511 0.017834
vt 0.797768 0.016977
vt 0.798248 0.020836
vt 0.964366 0.311681
vt 0.975956 0.296969
vt 0.979899 0.293527
vt 0.981052 0.308810
vt 0.976577 0.309097
vt 0.147392 0.014494
vt 0.148737 0.013908
vt 0.150795 0.014640
vt 0.973724 0.296512
vt 0.143668 0.016688
vt 0.147191 0.017484
vt 0.149802 0.016138
vt 0.976630 0.292009
vt 0.978940 0.286704
vt 0.974382 0.292768
vt 0.143429 0.018786
vt 0.146025 0.018584
vt 0.145162 0.020328
vt 0.149844 0.020670
vt 0.150806 0.019890
vt 0.152759 0.017956
vt 0.155923 0.020168
vt 0.155432 0.021152
vt 0.774543 0.015429
vt 0.775948 0.016170
vt 0.774266 0.017090
vt 0.775944 0.017861
vt 0.155630 0.022645
vt 0.777443 0.015312
vt 0.160548 0.017445
vt 0.158285 0.019139
vt 0.154528 0.014255
vt 0.149171 0.021985
vt 0.155412 0.013036
vt 0.154205 0.015527
vt 0.151219 0.013194
vt 0.151292 0.011831
vt 0.149583 0.009911
vt 0.973445 0.287337
vt 0.972630 0.292259
vt 0.150342 0.008277
vt 0.151966 0.010379
vt 0.156776 0.019415
vt 0.775867 0.014320
vt 0.958260 0.290322
s 1
f 1/1/1 2/2/2 4/3/3
f 2/2/4 1/1/4 3/4/5
f 7/5/6 3/4/6 1/1/7
f 1/1/7 4/3/8 5/6/8
f 5/6/8 6/7/9 1/1/7
f 1/1/7 6/7/9 7/5/6
f 8/8/10 7/5/10 6/7/11
f 7/9/12 8/10/13 10/11/13
f 10/11/13 9/12/14 7/9/12
f 3/13/15 7/9/15 9/12/15
f 11/14/16 10/11/16 8/10/16
f 9/12/17 10/11/17 11/14/17
f 12/15/18 11/14/19 13/16/20
f 11/14/17 12/15/17 14/17/17
f 8/10/16 13/16/16 11/14/16
f 11/14/17 14/17/17 9/12/17
f 9/12/15 14/17/21 3/13/15
f 15/18/22 3/13/22 14/17/22
f 14/17/22 12/15/23 15/18/22
f 3/4/5 15/19/5 2/2/4
f 16/20/24 2/21/25 15/22/26
f 15/22/26 13/23/20 16/20/24
f 13/16/20 15/18/26 12/15/18
f 16/24/27 17/25/27 20/26/27
f 17/27/28 16/20/29 13/23/30
f 21/28/31 16/24/24 18/29/32
f 16/24/33 19/30/33 18/29/33
f 20/26/27 19/30/27 16/24/27
f 2/21/25 16/20/24 21/31/31
f 2/21/25 21/31/31 22/32/34
f 22/32/35 21/31/36 23/33/36
f 23/34/37 21/28/38 24/35/39
f 18/29/32 24/35/40 21/28/31
f 25/36/41 24/35/39 26/37/42
f 24/35/39 25/36/41 23/34/37
f 27/38/43 26/37/44 24/35/45
f 24/35/45 18/29/45 27/38/43
f 28/39/46 27/38/46 18/29/46
f 27/38/47 28/39/48 29/40/47
f 26/37/44 27/38/43 30/41/49
f 29/40/47 30/41/50 27/38/47
f 29/42/51 31/43/52 30/44/53
f 30/44/54 31/43/54 32/45/54
f 30/41/49 32/46/55 26/37/44
f 32/45/56 31/43/56 33/47/56
f 32/48/57 33/49/58 35/50/58
f 26/37/59 32/46/57 34/51/60
f 35/50/58 34/52/60 32/48/57
f 35/50/61 36/53/62 38/54/63
f 36/53/62 35/50/61 33/49/64
f 34/52/65 35/50/65 37/55/66
f 38/54/63 37/55/67 35/50/61
f 17/25/68 39/56/69 38/54/70
f 39/56/71 37/55/67 38/54/63
f 36/53/72 20/26/73 38/54/70
f 38/54/70 20/26/73 17/25/68
f 40/57/74 39/58/75 6/7/11
f 39/58/75 17/27/76 6/7/11
f 23/33/77 39/58/77 40/57/77
f 39/56/78 23/59/79 25/60/80
f 25/60/80 37/55/66 39/56/78
f 6/7/81 5/6/74 40/57/74
f 23/33/82 40/57/82 22/32/36
f 37/55/66 25/60/80 34/52/65
f 36/53/72 28/39/83 19/30/84
f 28/39/85 36/53/85 41/61/85
f 19/30/84 20/26/73 36/53/72
f 33/49/64 41/61/64 36/53/62
f 41/61/85 29/40/86 28/39/85
f 41/62/87 31/43/52 29/42/51
f 33/47/88 31/43/88 41/62/88
f 26/37/42 34/51/42 25/36/41
f 18/29/46 19/30/46 28/39/46
f 2/2/89 22/63/90 4/3/91
f 6/7/11 17/27/76 8/8/10
f 13/23/30 8/8/30 17/27/28
