# Blender 4.4.1
# www.blender.org
o Desert_To_Export.009
v 0.051292 0.081488 -0.014584
v 0.051455 0.075391 -0.023440
v 0.027853 -0.000061 0.009225
v 0.033645 0.128967 -0.007702
v 0.033645 0.128967 0.002813
v -0.028500 0.134844 0.003235
v -0.028421 0.131896 0.013185
v -0.004813 0.059460 -0.015536
v -0.062962 0.072458 0.004851
v -0.027853 0.000061 0.005956
v -0.027853 0.000061 -0.009375
v -0.004813 0.059460 -0.026849
v -0.062962 0.072458 -0.006463
v 0.027853 -0.000061 -0.005807
v 0.003584 0.221623 0.004891
v 0.003142 0.221208 0.000231
v 0.016357 0.220899 0.006233
v 0.024293 0.210476 0.002858
v 0.009279 0.205334 0.010946
v -0.007285 0.214003 0.006955
v -0.008269 0.212948 0.002482
v -0.005492 0.202871 0.008305
v -0.004362 0.204424 0.012594
v 0.002773 0.191373 0.012968
v 0.008150 0.203781 0.006656
v 0.014601 0.183446 0.010049
v 0.023164 0.208922 -0.001431
v 0.016387 0.220827 0.001534
v 0.024464 0.192738 0.004087
v 0.025593 0.194291 0.008376
v 0.015732 0.184999 0.014338
v 0.003903 0.192926 0.017258
v -0.088914 0.130801 -0.005868
v -0.088688 0.130777 -0.012487
v -0.075445 0.142290 -0.001966
v -0.056999 0.140176 -0.006290
v -0.067459 0.118959 0.002104
v -0.092427 0.112205 -0.005426
v -0.092122 0.110978 -0.011927
v -0.079715 0.102558 -0.004216
v -0.080355 0.104458 0.002096
v -0.060329 0.098268 0.002650
v -0.066819 0.117059 -0.004208
v -0.075081 0.143077 -0.008532
v -0.040463 0.102370 -0.000183
v -0.056360 0.138276 -0.012602
v -0.039392 0.122350 -0.006089
v -0.040031 0.124250 0.000223
v -0.041102 0.104270 0.006129
v -0.060969 0.100169 0.008962
v -0.008377 0.229213 0.004752
v -0.008739 0.229297 0.003022
v -0.003717 0.230534 0.004793
v 0.000158 0.228141 0.002510
v -0.004059 0.223907 0.005556
v -0.011166 0.225024 0.005267
v -0.011631 0.224804 0.003573
v -0.009109 0.221297 0.004857
v -0.008664 0.221721 0.006516
v -0.004545 0.218079 0.005435
v -0.004506 0.223484 0.003896
v -0.003956 0.230801 0.003060
v 0.000422 0.217031 0.003389
v -0.000287 0.227717 0.000850
v 0.002439 0.221911 0.001601
v 0.002885 0.222335 0.003261
v 0.000867 0.217455 0.005049
v -0.004100 0.218502 0.007095
v 0.106811 0.145395 0.014135
v 0.105159 0.147220 0.023057
v 0.089565 0.160143 0.002878
v 0.063096 0.158618 0.005477
v 0.078186 0.127130 0.002145
v 0.110826 0.119785 0.019401
v 0.109031 0.119930 0.028479
v 0.093026 0.106346 0.017779
v 0.095279 0.107172 0.008842
v 0.067411 0.098712 0.005633
v 0.075931 0.126304 0.011083
v 0.039591 0.105289 0.004202
v 0.060840 0.157792 0.014415
v 0.087771 0.163065 0.011475
v 0.037915 0.134307 0.006461
v 0.040170 0.135133 -0.002476
v 0.041846 0.106115 -0.004735
v 0.069666 0.099538 -0.003305
v 0.015718 0.233605 0.004752
v 0.015506 0.233910 0.003022
v 0.020064 0.231465 0.004793
v 0.021338 0.227092 0.002510
v 0.015370 0.226774 0.005556
v 0.010841 0.232362 0.005267
v 0.010348 0.232510 0.003573
v 0.009873 0.228217 0.004857
v 0.010488 0.228233 0.006516
v 0.011108 0.222770 0.005435
v 0.014756 0.226757 0.003896
v 0.020065 0.231823 0.003060
v 0.014094 0.218665 0.003389
v 0.020724 0.227076 0.000850
v 0.018860 0.220938 0.001601
v 0.019475 0.220955 0.003261
v 0.014708 0.218682 0.005049
v 0.011721 0.222787 0.007095
v 0.017437 0.187542 0.009285
v 0.015552 0.187798 0.016093
v 0.000494 0.183440 0.000890
v -0.010895 0.166840 0.003856
v 0.015207 0.161200 0.001686
v 0.034816 0.178324 0.013895
v 0.033884 0.177720 0.020876
v 0.034682 0.161244 0.013679
v 0.035241 0.162582 0.006760
v 0.027411 0.141651 0.005547
v 0.014648 0.159862 0.008605
v 0.010490 0.127811 0.005256
v -0.011454 0.165501 0.010775
v -0.002121 0.184105 0.007424
v -0.007875 0.140370 0.006202
v -0.007316 0.141708 -0.000717
v 0.011049 0.129149 -0.001663
v 0.027970 0.142990 -0.001372
vn 0.9270 0.3598 -0.1055
vn 0.9270 0.3598 -0.1054
vn 0.9605 -0.2680 0.0750
vn 0.9605 -0.2680 0.0751
vn -0.0370 0.0513 0.9980
vn -0.0371 0.0513 0.9980
vn -0.0369 0.0513 0.9980
vn 0.9271 0.3598 -0.1054
vn 0.0942 0.9854 0.1415
vn 0.0942 0.9854 0.1417
vn 0.1410 -0.3249 0.9352
vn 0.3204 -0.0505 0.9459
vn 0.3204 -0.0506 0.9459
vn 0.3204 -0.0504 0.9459
vn -0.0539 0.3582 0.9321
vn -0.8998 -0.4363 -0.0000
vn 0.0602 -0.3031 -0.9510
vn -0.3122 0.0870 -0.9460
vn 0.0654 -0.0176 -0.9977
vn 0.0654 -0.0177 -0.9977
vn -0.8724 0.4837 0.0703
vn 0.0654 -0.0175 -0.9977
vn -0.1331 0.3310 -0.9342
vn -0.5849 0.8101 -0.0389
vn 0.0478 0.9974 -0.0539
vn 0.2012 0.1989 0.9591
vn 0.2013 0.1990 0.9591
vn -0.0048 0.4106 0.9118
vn -0.0048 0.4105 0.9118
vn 0.0060 -0.4054 -0.9141
vn 0.0061 -0.4054 -0.9141
vn -0.9560 -0.1216 0.2669
vn 0.0059 -0.4054 -0.9141
vn -0.8183 -0.4367 0.3737
vn -0.8184 -0.4367 0.3737
vn -0.2574 -0.3472 -0.9018
vn -0.2573 -0.3472 -0.9018
vn -0.1982 -0.1930 -0.9610
vn -0.1981 -0.1930 -0.9610
vn -0.2575 -0.3472 -0.9018
vn -0.3374 -0.2901 -0.8955
vn -0.1983 -0.1930 -0.9610
vn 0.7907 0.5782 -0.2011
vn 0.7907 0.5782 -0.2013
vn 0.9677 -0.0081 -0.2518
vn 0.7060 -0.7048 0.0693
vn 0.7059 -0.7049 0.0691
vn 0.3374 0.2901 0.8955
vn 0.3374 0.2901 0.8956
vn 0.7060 -0.7048 0.0694
vn -0.4375 -0.8024 0.4059
vn -0.4376 -0.8024 0.4058
vn 0.2574 0.3472 0.9018
vn 0.2573 0.3471 0.9018
vn -0.4376 -0.8024 0.4057
vn -0.8184 -0.4367 0.3736
vn -0.0048 0.4107 0.9118
vn -0.9827 0.1764 -0.0565
vn -0.6622 0.7492 0.0137
vn -0.0341 0.1604 0.9865
vn -0.0341 0.1605 0.9865
vn -0.0341 0.1605 0.9864
vn -0.3273 0.1744 0.9287
vn -0.3273 0.1743 0.9287
vn 0.3246 -0.1695 -0.9305
vn 0.3247 -0.1695 -0.9305
vn -0.6068 -0.7813 0.1461
vn 0.3245 -0.1695 -0.9306
vn -0.2923 -0.9235 0.2484
vn -0.2923 -0.9235 0.2483
vn -0.2923 -0.9235 0.2485
vn 0.0956 -0.3120 -0.9453
vn 0.0957 -0.3120 -0.9453
vn 0.0322 -0.1539 -0.9876
vn 0.0321 -0.1539 -0.9876
vn 0.0323 -0.1539 -0.9876
vn 0.0955 -0.3120 -0.9453
vn -0.0016 -0.3275 -0.9448
vn 0.1667 0.9834 -0.0721
vn 0.1667 0.9834 -0.0719
vn -0.0015 -0.3275 -0.9449
vn 0.7054 0.6952 -0.1379
vn 0.7055 0.6952 -0.1379
vn 0.9940 -0.0216 0.1071
vn 0.0016 0.3275 0.9448
vn -0.0956 0.3120 0.9453
vn -0.0956 0.3119 0.9453
vn 0.2338 -0.9242 0.3019
vn 0.2339 -0.9242 0.3020
vn 0.2339 -0.9242 0.3021
vn -0.3273 0.1745 0.9287
vn -0.8140 0.5541 0.1746
vn -0.2847 0.9475 0.1457
vn 0.2643 0.0968 0.9596
vn 0.2643 0.0969 0.9596
vn -0.0036 0.2293 0.9733
vn -0.0036 0.2292 0.9734
vn -0.8159 -0.4851 0.3147
vn 0.0028 -0.2237 -0.9747
vn 0.0027 -0.2237 -0.9747
vn 0.0026 -0.2237 -0.9747
vn -0.5699 -0.7465 0.3435
vn -0.5698 -0.7464 0.3436
vn -0.5700 -0.7464 0.3436
vn -0.2606 -0.2626 -0.9290
vn -0.2605 -0.2626 -0.9291
vn -0.2636 -0.0900 -0.9604
vn -0.2637 -0.0900 -0.9604
vn -0.2635 -0.0900 -0.9604
vn -0.2607 -0.2626 -0.9290
vn -0.3529 -0.2384 -0.9048
vn 0.5237 0.8396 -0.1445
vn 0.5237 0.8396 -0.1443
vn -0.3528 -0.2384 -0.9048
vn 0.8708 0.3666 -0.3275
vn 0.8709 0.3667 -0.3272
vn 0.8709 0.3667 -0.3271
vn 0.8976 -0.4201 -0.1337
vn 0.8975 -0.4201 -0.1338
vn 0.8977 -0.4200 -0.1335
vn 0.3529 0.2384 0.9048
vn 0.8977 -0.4200 -0.1334
vn -0.0912 -0.9587 0.2692
vn -0.0912 -0.9587 0.2693
vn -0.0913 -0.9587 0.2694
vn 0.2606 0.2626 0.9290
vn 0.2606 0.2625 0.9291
vn -0.5700 -0.7466 0.3430
vn -0.0913 -0.9587 0.2693
vn -0.0036 0.2294 0.9733
vn 0.9699 0.1782 0.1662
vn 0.6836 0.7272 -0.0626
vn 0.1822 -0.0410 -0.9824
vn 0.1822 -0.0409 -0.9824
vn 0.4642 -0.0174 -0.8855
vn 0.4642 -0.0175 -0.8856
vn 0.4642 -0.0173 -0.8855
vn -0.4617 0.0226 0.8867
vn 0.5933 -0.7984 0.1032
vn -0.4616 0.0226 0.8868
vn 0.2920 -0.9563 -0.0148
vn 0.2920 -0.9563 -0.0147
vn -0.2425 -0.1154 0.9633
vn -0.2426 -0.1154 0.9632
vn -0.1802 0.0476 0.9825
vn -0.1803 0.0476 0.9825
vn -0.2424 -0.1154 0.9633
vn -0.1468 -0.1313 0.9804
vn -0.1469 -0.1313 0.9804
vn -0.1801 0.0475 0.9825
vn -0.1401 0.9788 -0.1494
vn -0.1401 0.9788 -0.1492
vn -0.6926 0.7130 -0.1089
vn -0.9681 -0.0366 -0.2477
vn -0.9682 -0.0366 -0.2477
vn 0.1468 0.1313 -0.9804
vn -0.2206 -0.9646 -0.1448
vn 0.2425 0.1154 -0.9633
vn 0.2425 0.1153 -0.9633
vn -0.2334 0.9566 0.1746
vn 0.4231 0.8943 0.1457
vn 0.2610 -0.1051 0.9596
vn 0.2611 -0.1051 0.9596
vn 0.1509 0.1727 0.9733
vn 0.1508 0.1727 0.9734
vn 0.1510 0.1728 0.9733
vn -0.1478 -0.1679 -0.9747
vn -0.1477 -0.1679 -0.9747
vn -0.9308 0.1862 0.3147
vn -0.1478 -0.1678 -0.9747
vn -0.9231 -0.1728 0.3436
vn -0.9230 -0.1728 0.3438
vn -0.9232 -0.1726 0.3433
vn -0.3694 -0.0205 -0.9290
vn -0.3693 -0.0206 -0.9291
vn -0.2560 0.1097 -0.9604
vn -0.2561 0.1098 -0.9604
vn -0.2560 0.1096 -0.9605
vn -0.3695 -0.0204 -0.9290
vn -0.4217 0.0593 -0.9048
vn 0.9512 0.2727 -0.1445
vn 0.9512 0.2727 -0.1443
vn 0.8923 -0.3110 -0.3273
vn 0.8923 -0.3110 -0.3274
vn 0.8922 -0.3110 -0.3275
vn 0.8924 -0.3110 -0.3270
vn 0.3852 -0.9131 -0.1338
vn 0.3852 -0.9131 -0.1337
vn 0.4217 -0.0593 0.9048
vn 0.3853 -0.9131 -0.1335
vn -0.7100 -0.6507 0.2692
vn -0.7099 -0.6508 0.2693
vn -0.7099 -0.6508 0.2692
vn 0.3694 0.0205 0.9290
vn 0.3693 0.0205 0.9291
vn -0.9231 -0.1726 0.3437
vn 0.4489 0.8863 0.1141
vn -0.1605 0.9795 -0.1217
vn 0.1450 0.0606 -0.9876
vn 0.1449 0.0606 -0.9876
vn 0.1449 0.0607 -0.9876
vn 0.2979 0.3040 -0.9049
vn 0.2979 0.3039 -0.9049
vn 0.2978 0.3041 -0.9049
vn -0.3005 -0.2988 0.9058
vn -0.3004 -0.2988 0.9058
vn 0.9944 -0.0091 0.1055
vn 0.9364 -0.3508 0.0078
vn -0.0576 -0.2045 0.9772
vn -0.0577 -0.2045 0.9772
vn -0.3003 -0.2988 0.9058
vn -0.0575 -0.2045 0.9772
vn 0.0132 -0.1374 0.9904
vn 0.0133 -0.1373 0.9904
vn -0.1490 -0.0550 0.9873
vn -0.1489 -0.0550 0.9873
vn -0.1491 -0.0550 0.9873
vn -0.8615 0.4749 -0.1796
vn -0.8616 0.4749 -0.1794
vn -0.8615 0.4749 -0.1794
vn 0.0131 -0.1374 0.9904
vn -0.9872 -0.1218 -0.1033
vn -0.5600 -0.8038 -0.2007
vn -0.0132 0.1374 -0.9904
vn 0.6311 -0.7695 -0.0978
vn 0.6311 -0.7695 -0.0979
vn 0.0576 0.2045 -0.9772
vn 0.0577 0.2045 -0.9772
vn 0.2978 0.3040 -0.9049
vt 0.025815 0.241997
vt 0.026636 0.242560
vt 0.021257 0.243270
vt 0.032205 0.236928
vt 0.018097 0.230008
vt 0.021810 0.237420
vt 0.020871 0.242377
vt 0.015458 0.244653
vt 0.015107 0.243758
vt 0.016382 0.236422
vt 0.011054 0.238629
vt 0.012977 0.231278
vt 0.001669 0.247570
vt 0.001491 0.246162
vt 0.008893 0.245331
vt 0.024998 0.255219
vt 0.019951 0.256737
vt 0.020307 0.250685
vt 0.014576 0.251372
vt 0.009024 0.246370
vt 0.032744 0.238211
vt 0.024687 0.247594
vt 0.078955 0.010132
vt 0.078608 0.010156
vt 0.078315 0.008975
vt 0.079298 0.011201
vt 0.080544 0.011531
vt 0.080446 0.009893
vt 0.078838 0.008941
vt 0.077144 0.009098
vt 0.078620 0.008560
vt 0.079788 0.008313
vt 0.077039 0.010419
vt 0.079921 0.008725
vt 0.081258 0.008315
vt 0.075844 0.009720
vt 0.078773 0.011291
vt 0.075089 0.010867
vt 0.077633 0.012007
vt 0.079312 0.011653
vt 0.080658 0.011954
vt 0.075992 0.011941
vt 0.082061 0.010918
vt 0.082211 0.011335
vt 0.082530 0.010947
vt 0.082288 0.009611
vt 0.082687 0.009509
vt 0.081338 0.008762
vt 0.081729 0.008494
vt 0.438011 0.010876
vt 0.437522 0.010911
vt 0.437109 0.009246
vt 0.438495 0.012383
vt 0.440250 0.012848
vt 0.440112 0.010539
vt 0.437846 0.009198
vt 0.435459 0.009419
vt 0.437539 0.008660
vt 0.439186 0.008313
vt 0.435311 0.011280
vt 0.439373 0.008893
vt 0.441257 0.008315
vt 0.433627 0.010296
vt 0.437755 0.012510
vt 0.436148 0.013518
vt 0.432563 0.011912
vt 0.440411 0.013444
vt 0.438514 0.013020
vt 0.433835 0.013425
vt 0.442388 0.011984
vt 0.442599 0.012571
vt 0.443049 0.012025
vt 0.442707 0.010141
vt 0.441369 0.008945
vt 0.443271 0.009998
vt 0.441919 0.008567
vt 0.108087 0.008998
vt 0.107956 0.009007
vt 0.107845 0.008563
vt 0.108216 0.009401
vt 0.108685 0.009525
vt 0.108648 0.008908
vt 0.108043 0.008550
vt 0.107960 0.008406
vt 0.108400 0.008313
vt 0.107405 0.008609
vt 0.107365 0.009106
vt 0.108450 0.008468
vt 0.108954 0.008314
vt 0.106915 0.008843
vt 0.108018 0.009435
vt 0.107589 0.009704
vt 0.106631 0.009275
vt 0.108728 0.009684
vt 0.108221 0.009571
vt 0.106971 0.009679
vt 0.109256 0.009294
vt 0.109313 0.009451
vt 0.109433 0.009305
vt 0.109341 0.008802
vt 0.109492 0.008764
vt 0.108984 0.008482
vt 0.109131 0.008381
vt 0.545316 0.011894
vt 0.544632 0.011943
vt 0.544055 0.009617
vt 0.545992 0.014000
vt 0.548445 0.014650
vt 0.548252 0.011424
vt 0.545085 0.009550
vt 0.541750 0.009858
vt 0.544656 0.008798
vt 0.546957 0.008313
vt 0.541543 0.012459
vt 0.547218 0.009123
vt 0.549851 0.008316
vt 0.539189 0.011084
vt 0.544958 0.014177
vt 0.537702 0.013342
vt 0.542712 0.015586
vt 0.546019 0.014890
vt 0.548669 0.015483
vt 0.539480 0.015457
vt 0.551432 0.013443
vt 0.551727 0.014263
vt 0.552355 0.013500
vt 0.551878 0.010868
vt 0.552666 0.010667
vt 0.550009 0.009196
vt 0.550777 0.008668
vt 0.066031 0.008998
vt 0.065900 0.009007
vt 0.065790 0.008563
vt 0.066160 0.009401
vt 0.066629 0.009525
vt 0.066592 0.008908
vt 0.065987 0.008550
vt 0.065349 0.008609
vt 0.065905 0.008406
vt 0.066345 0.008313
vt 0.065309 0.009106
vt 0.066395 0.008468
vt 0.066898 0.008314
vt 0.064859 0.008843
vt 0.065962 0.009435
vt 0.065533 0.009704
vt 0.064575 0.009275
vt 0.066672 0.009684
vt 0.066165 0.009571
vt 0.064915 0.009679
vt 0.067200 0.009294
vt 0.067257 0.009451
vt 0.067377 0.009305
vt 0.067286 0.008802
vt 0.067436 0.008764
vt 0.066928 0.008482
vt 0.067075 0.008381
vt 0.338496 0.011049
vt 0.337974 0.011086
vt 0.337533 0.009309
vt 0.339012 0.012657
vt 0.340886 0.013154
vt 0.340738 0.010689
vt 0.338320 0.009258
vt 0.335772 0.009493
vt 0.337992 0.008684
vt 0.339749 0.008313
vt 0.339949 0.008932
vt 0.341960 0.008315
vt 0.333816 0.010430
vt 0.335614 0.011480
vt 0.332680 0.012154
vt 0.336507 0.013869
vt 0.338223 0.012793
vt 0.339033 0.013337
vt 0.341057 0.013790
vt 0.334038 0.013770
vt 0.343168 0.012232
vt 0.343393 0.012858
vt 0.343873 0.012275
vt 0.343508 0.010264
vt 0.344110 0.010111
vt 0.342080 0.008988
vt 0.342668 0.008584
s 1
f 1/1/1 2/2/1 4/3/2
f 2/2/3 1/1/4 3/4/3
f 3/5/5 1/6/6 5/7/7
f 4/3/2 5/7/8 1/1/1
f 5/7/9 4/3/9 6/8/10
f 6/8/10 7/9/10 5/7/9
f 8/10/11 5/7/11 7/9/11
f 5/7/7 8/10/5 3/5/5
f 8/10/12 7/9/13 9/11/12
f 9/11/12 10/12/14 8/10/12
f 10/12/15 3/5/15 8/10/15
f 11/13/16 10/14/16 9/15/16
f 14/16/17 11/17/17 12/18/17
f 6/8/18 12/18/18 11/17/18
f 11/17/18 13/19/18 6/8/18
f 9/15/16 13/20/16 11/13/16
f 3/4/3 14/21/3 2/2/3
f 2/22/19 14/16/20 12/18/19
f 7/9/21 6/8/21 13/20/21
f 13/20/21 9/15/21 7/9/21
f 12/18/19 4/3/22 2/22/19
f 4/3/23 12/18/23 6/8/23
f 15/23/24 16/24/24 21/25/24
f 16/24/25 15/23/25 17/26/25
f 18/27/26 17/26/27 15/23/26
f 15/23/26 19/28/27 18/27/26
f 19/28/28 15/23/29 20/29/28
f 21/25/24 20/29/24 15/23/24
f 22/30/30 21/25/31 16/24/30
f 20/29/32 21/31/32 22/32/32
f 16/24/30 25/33/33 22/30/30
f 22/32/32 23/34/32 20/29/32
f 23/34/34 22/32/34 24/35/35
f 24/36/36 22/30/37 25/33/36
f 25/33/38 16/24/39 28/37/38
f 25/33/36 26/38/40 24/36/36
f 26/38/41 25/33/41 27/39/41
f 28/37/38 27/39/42 25/33/38
f 28/40/43 17/26/43 18/27/44
f 17/26/25 28/37/25 16/24/25
f 18/27/44 27/41/44 28/40/43
f 27/39/41 29/42/41 26/38/41
f 30/43/45 29/44/45 27/41/45
f 27/41/45 18/27/45 30/43/45
f 29/45/46 30/43/46 31/46/47
f 19/28/48 31/46/49 30/43/48
f 30/43/48 18/27/48 19/28/48
f 31/46/47 26/47/50 29/45/46
f 26/47/51 31/46/51 32/48/52
f 31/46/53 19/28/54 23/34/53
f 23/34/53 32/48/53 31/46/53
f 32/48/52 24/49/55 26/47/51
f 24/35/35 32/48/56 23/34/34
f 20/29/28 23/34/57 19/28/28
f 33/50/58 34/51/58 39/52/58
f 34/51/59 33/50/59 35/53/59
f 36/54/60 35/53/61 33/50/60
f 33/50/60 37/55/62 36/54/60
f 37/55/63 33/50/64 38/56/63
f 39/52/58 38/56/58 33/50/58
f 40/57/65 39/52/66 34/51/65
f 38/56/67 39/58/67 40/59/67
f 34/51/65 43/60/68 40/57/65
f 40/59/67 41/61/67 38/56/67
f 41/61/69 40/59/70 42/62/71
f 42/63/72 40/57/73 43/60/72
f 44/64/74 46/65/75 43/60/74
f 43/60/74 34/51/76 44/64/74
f 43/60/72 45/66/77 42/63/72
f 45/66/78 43/60/78 46/65/78
f 36/54/79 46/67/79 44/68/80
f 46/65/78 47/69/81 45/66/78
f 48/70/82 47/71/82 46/67/83
f 46/67/83 36/54/83 48/70/82
f 47/72/84 48/70/84 49/73/84
f 37/55/85 49/73/85 48/70/85
f 48/70/85 36/54/85 37/55/85
f 49/73/86 37/55/87 41/61/86
f 41/61/86 50/74/86 49/73/86
f 45/75/88 49/73/88 50/74/89
f 49/73/84 45/75/84 47/72/84
f 50/74/89 42/76/90 45/75/88
f 42/62/71 50/74/71 41/61/69
f 44/68/80 35/53/80 36/54/79
f 35/53/59 44/64/59 34/51/59
f 38/56/63 41/61/91 37/55/63
f 51/77/92 52/78/92 57/79/92
f 52/78/93 51/77/93 53/80/93
f 54/81/94 53/80/95 51/77/94
f 51/77/94 55/82/95 54/81/94
f 55/82/96 51/77/97 56/83/96
f 57/79/92 56/83/92 51/77/92
f 56/83/98 57/84/98 58/85/98
f 58/86/99 57/79/99 52/78/100
f 52/78/100 61/87/101 58/86/99
f 58/85/98 59/88/98 56/83/98
f 59/88/102 58/85/103 60/89/104
f 60/90/105 58/86/106 61/87/105
f 62/91/107 64/92/108 61/87/107
f 61/87/107 52/78/109 62/91/107
f 61/87/105 63/93/110 60/90/105
f 63/93/111 61/87/111 64/92/111
f 54/81/112 64/94/112 62/95/113
f 64/92/111 65/96/114 63/93/111
f 66/97/115 65/98/115 64/94/116
f 64/94/116 54/81/117 66/97/115
f 65/99/118 66/97/119 67/100/120
f 55/82/121 67/100/121 66/97/121
f 66/97/121 54/81/121 55/82/121
f 67/100/120 63/101/122 65/99/118
f 63/101/123 67/100/124 68/102/125
f 67/100/126 55/82/127 59/88/126
f 59/88/126 68/102/126 67/100/126
f 60/89/104 68/102/128 59/88/102
f 68/102/125 60/103/129 63/101/123
f 62/95/113 53/80/113 54/81/112
f 53/80/93 62/91/93 52/78/93
f 56/83/96 59/88/130 55/82/96
f 69/104/131 70/105/131 75/106/131
f 70/105/132 69/104/132 71/107/132
f 72/108/133 71/107/134 69/104/133
f 69/104/133 73/109/134 72/108/133
f 73/109/135 69/104/136 74/110/137
f 75/106/131 74/110/131 69/104/131
f 76/111/138 75/106/138 70/105/138
f 74/110/139 75/112/139 76/113/139
f 70/105/138 79/114/140 76/111/138
f 76/113/139 77/115/139 74/110/139
f 77/115/141 76/113/141 78/116/142
f 78/117/143 76/111/144 79/114/143
f 79/114/145 70/105/146 82/118/145
f 79/114/143 80/119/147 78/117/143
f 80/119/148 79/114/148 81/120/149
f 82/118/145 81/120/150 79/114/145
f 82/121/151 71/107/151 72/108/152
f 71/107/132 82/118/132 70/105/132
f 72/108/152 81/122/152 82/121/151
f 81/120/149 83/123/149 80/119/148
f 84/124/153 83/125/153 81/122/153
f 81/122/153 72/108/153 84/124/153
f 83/126/154 84/124/154 85/127/155
f 73/109/156 85/127/156 84/124/156
f 84/124/156 72/108/156 73/109/156
f 85/127/155 80/128/155 83/126/154
f 80/128/157 85/127/157 86/129/157
f 85/127/158 73/109/159 77/115/158
f 77/115/158 86/129/158 85/127/158
f 86/129/157 78/130/157 80/128/157
f 78/116/142 86/129/142 77/115/141
f 74/110/137 77/115/137 73/109/135
f 87/131/160 88/132/160 93/133/160
f 88/132/161 87/131/161 89/134/161
f 90/135/162 89/134/163 87/131/162
f 87/131/162 91/136/163 90/135/162
f 91/136/164 87/131/165 92/137/166
f 93/133/160 92/137/160 87/131/160
f 94/138/167 93/133/168 88/132/167
f 92/137/169 93/139/169 94/140/169
f 88/132/167 97/141/170 94/138/167
f 94/140/169 95/142/169 92/137/169
f 95/142/171 94/140/172 96/143/173
f 96/144/174 94/138/175 97/141/174
f 98/145/176 100/146/177 97/141/176
f 97/141/176 88/132/178 98/145/176
f 97/141/174 99/147/179 96/144/174
f 99/147/180 97/141/180 100/146/180
f 90/135/181 100/148/181 98/149/182
f 100/146/180 101/150/180 99/147/180
f 102/151/183 101/152/184 100/148/185
f 100/148/185 90/135/186 102/151/183
f 101/153/187 102/151/187 103/154/188
f 91/136/189 103/154/189 102/151/189
f 102/151/189 90/135/189 91/136/189
f 103/154/188 99/155/190 101/153/187
f 99/155/191 103/154/192 104/156/193
f 103/154/194 91/136/195 95/142/194
f 95/142/194 104/156/194 103/154/194
f 104/156/193 96/157/192 99/155/191
f 96/143/173 104/156/196 95/142/171
f 89/134/161 98/145/161 88/132/161
f 98/149/182 89/134/182 90/135/181
f 92/137/166 95/142/166 91/136/164
f 105/158/197 106/159/197 111/160/197
f 106/159/198 105/158/198 107/161/198
f 108/162/199 107/161/200 105/158/199
f 105/158/199 109/163/201 108/162/199
f 109/163/202 105/158/203 110/164/204
f 111/160/197 110/164/197 105/158/197
f 112/165/205 111/160/205 106/159/206
f 110/164/207 111/166/207 112/167/207
f 112/167/207 113/168/207 110/164/207
f 113/168/208 112/167/208 114/169/208
f 114/170/209 112/165/210 115/171/209
f 106/159/206 115/171/211 112/165/205
f 115/171/209 116/172/212 114/170/209
f 116/172/213 115/171/213 117/173/214
f 118/174/215 117/173/216 115/171/215
f 115/171/215 106/159/217 118/174/215
f 118/175/218 107/161/218 108/162/219
f 107/161/198 118/174/198 106/159/198
f 108/162/219 117/176/220 118/175/218
f 117/173/214 119/177/221 116/172/213
f 120/178/222 119/179/222 117/176/222
f 117/176/222 108/162/222 120/178/222
f 119/180/223 120/178/223 121/181/223
f 109/163/224 121/181/224 120/178/224
f 120/178/224 108/162/224 109/163/224
f 121/181/223 116/182/223 119/180/223
f 116/182/225 121/181/225 122/183/226
f 121/181/227 109/163/228 113/168/227
f 113/168/227 122/183/227 121/181/227
f 122/183/226 114/184/226 116/182/225
f 114/169/208 122/183/208 113/168/208
f 110/164/204 113/168/229 109/163/202
