# Blender 4.4.1
# www.blender.org
o Cactus_5
v -0.046062 0.067281 0.046062
v -0.060155 0.071545 -0.000000
v -0.041513 0.074162 0.041513
v -0.000000 0.082689 0.050610
v -0.000000 0.071545 0.060156
v -0.050611 0.000000 0.050610
v -0.069700 -0.000000 -0.000000
v -0.050611 -0.000000 -0.050610
v -0.046062 0.067281 -0.046062
v -0.000000 -0.000000 -0.069701
v 0.050611 -0.000000 -0.050610
v -0.000000 0.071545 -0.060156
v -0.041513 0.074162 -0.041513
v -0.000000 0.082689 -0.050610
v 0.046062 0.067281 -0.046062
v 0.041513 0.074162 -0.041513
v 0.060157 0.071545 -0.000000
v 0.069701 -0.000000 -0.000000
v 0.050611 0.000000 0.050610
v 0.046062 0.067281 0.046062
v -0.000000 0.000000 0.069701
v 0.050611 0.082689 -0.000000
v 0.041513 0.074162 0.041513
v -0.000000 0.096095 -0.000000
v -0.050611 0.082689 -0.000000
v -0.028894 0.156559 -0.000000
v -0.035414 0.153539 0.004410
v -0.046075 0.139146 -0.000000
v -0.053974 0.135072 -0.011909
v -0.035414 0.153539 -0.004410
v -0.046268 0.101855 -0.019201
v -0.012981 0.090419 -0.020871
v -0.045867 0.099649 -0.000000
v -0.052270 0.135888 0.022764
v -0.045912 0.101855 0.016211
v -0.012359 0.090290 0.001051
v -0.011127 0.089948 0.018080
v -0.009908 0.088159 0.012870
v -0.000713 0.091857 0.003525
v -0.020943 0.093659 0.007077
v 0.003814 0.098692 0.014404
v -0.007427 0.097906 0.022057
v -0.020283 0.100837 0.018636
v -0.022660 0.106309 0.002326
v -0.006561 0.111369 0.020170
v -0.018132 0.113143 0.013205
v 0.002097 0.111342 0.009653
v -0.008937 0.116841 0.003860
v 0.001436 0.104164 -0.001905
v -0.011418 0.107094 -0.005327
v -0.012285 0.093631 -0.003439
v 0.009759 0.092349 -0.000903
v 0.015994 0.088116 -0.007137
v 0.005527 0.098583 -0.007137
v 0.022228 0.092349 -0.000903
v 0.015994 0.098583 0.003330
v 0.009759 0.104816 -0.000903
v 0.015994 0.109049 -0.007137
v 0.009759 0.104816 -0.013370
v 0.022228 0.104816 -0.000903
v 0.026459 0.098583 -0.007137
v 0.022228 0.092349 -0.013370
v 0.022228 0.104816 -0.013370
v 0.015994 0.098583 -0.017603
v 0.009759 0.092349 -0.013370
v -0.000354 0.151704 -0.051385
v -0.004361 0.147408 -0.057980
v 0.001215 0.130781 -0.066103
v 0.014367 0.125402 -0.072468
v 0.004844 0.147540 -0.057185
v 0.021274 0.092486 -0.058199
v 0.001197 0.089988 -0.059140
v 0.019978 0.086356 -0.021818
v -0.002960 0.086002 -0.023130
v -0.015719 0.092020 -0.061023
v -0.020846 0.085604 -0.023338
v -0.021978 0.126020 -0.073977
v -0.000766 0.139376 0.043682
v 0.002792 0.135594 0.048069
v -0.000766 0.122075 0.053155
v -0.010367 0.117169 0.058379
v -0.004322 0.135594 0.048069
v -0.016248 0.093115 0.045059
v -0.000766 0.091493 0.044261
v -0.017595 0.091607 0.016718
v 0.000082 0.091644 0.016207
v 0.012306 0.093194 0.044782
v 0.013813 0.091651 0.015176
v 0.017591 0.118179 0.057239
v 0.041827 0.139226 -0.005490
v 0.046566 0.135761 -0.009093
v 0.052798 0.122521 -0.005490
v 0.058471 0.117990 0.004240
v 0.046566 0.135761 -0.001887
v 0.046968 0.092617 0.010197
v 0.018470 0.088796 0.011562
v 0.046294 0.090913 -0.005490
v 0.057238 0.118917 -0.024087
v 0.046684 0.092674 -0.018734
v 0.017951 0.088792 -0.006348
v 0.016909 0.088715 -0.020261
vn -0.9391 0.1060 0.3270
vn -0.7196 0.6340 0.2832
vn -0.7196 0.6341 0.2832
vn -0.2832 0.6341 0.7196
vn -0.2832 0.6341 0.7195
vn -0.3270 0.1060 0.9391
vn -0.9391 0.1060 -0.3270
vn -0.9390 0.1060 -0.3270
vn -0.3270 0.1060 -0.9391
vn 0.3270 0.1060 -0.9391
vn 0.3270 0.1060 -0.9390
vn -0.2832 0.6341 -0.7196
vn -0.2832 0.6340 -0.7196
vn 0.2832 0.6341 -0.7195
vn 0.2832 0.6341 -0.7196
vn 0.7196 0.6340 -0.2832
vn 0.7196 0.6341 -0.2832
vn 0.9391 0.1060 -0.3270
vn 0.9390 0.1060 -0.3270
vn 0.9390 0.1060 0.3271
vn 0.9390 0.1060 0.3270
vn 0.9391 0.1060 0.3270
vn 0.3270 0.1060 0.9390
vn 0.3270 0.1060 0.9391
vn -0.3270 0.1060 0.9390
vn 0.7196 0.6341 0.2832
vn 0.2832 0.6341 0.7195
vn 0.2832 0.6341 0.7196
vn 0.2475 0.9368 0.2475
vn 0.2475 0.9368 0.2474
vn 0.2474 0.9368 0.2475
vn 0.2474 0.9368 -0.2474
vn 0.2476 0.9367 -0.2476
vn -0.2474 0.9368 0.2474
vn -0.2476 0.9367 0.2476
vn -0.2475 0.9368 -0.2475
vn -0.2475 0.9368 -0.2474
vn -0.7195 0.6341 -0.2832
vn -0.7196 0.6341 -0.2832
vn -0.7541 0.6226 -0.2091
vn -0.7541 0.6226 -0.2090
vn -0.6998 0.6246 0.3466
vn -0.6998 0.6246 0.3467
vn -0.9560 -0.1304 0.2629
vn -0.2973 -0.9536 -0.0468
vn -0.9560 -0.1304 0.2628
vn -0.9560 -0.1303 0.2628
vn -0.9844 -0.0737 -0.1597
vn -0.9844 -0.0737 -0.1595
vn -0.9844 -0.0738 -0.1595
vn -0.2992 -0.9520 0.0641
vn 0.5192 -0.7390 0.4293
vn 0.5192 -0.7390 0.4292
vn -0.1364 -0.9450 -0.2972
vn -0.1363 -0.9450 -0.2973
vn -0.4620 -0.6517 0.6016
vn -0.4621 -0.6516 0.6015
vn 0.5192 -0.7390 0.4294
vn -0.4619 -0.6516 0.6017
vn -0.9812 0.0874 0.1723
vn -0.9811 0.0875 0.1723
vn -0.9812 0.0873 0.1722
vn -0.3257 0.2934 0.8988
vn -0.3256 0.2935 0.8988
vn -0.3256 0.2933 0.8989
vn -0.5192 0.7390 -0.4293
vn -0.5192 0.7390 -0.4292
vn 0.1363 0.9450 0.2972
vn 0.1363 0.9450 0.2973
vn 0.1363 0.9451 0.2971
vn 0.4620 0.6516 -0.6016
vn 0.4621 0.6516 -0.6015
vn 0.4620 0.6516 -0.6017
vn -0.5192 0.7390 -0.4294
vn -0.6555 -0.2061 -0.7265
vn -0.6555 -0.2059 -0.7266
vn 0.3257 -0.2934 -0.8988
vn 0.3256 -0.2934 -0.8989
vn -0.6556 -0.2061 -0.7265
vn -0.1363 -0.9451 -0.2971
vn 0.3257 -0.2935 -0.8988
vn 0.9812 -0.0873 -0.1723
vn 0.9811 -0.0875 -0.1723
vn 0.9812 -0.0876 -0.1722
vn 0.6555 0.2060 0.7265
vn 0.6556 0.2060 0.7265
vn 0.6555 0.2060 0.7266
vn -0.0000 -0.7071 0.7071
vn -0.0000 -0.7072 0.7070
vn -0.7071 -0.7071 -0.0000
vn -0.7071 -0.7071 -0.0001
vn -0.7071 -0.0000 0.7071
vn -0.7072 -0.0000 0.7070
vn -0.0000 -0.7071 0.7072
vn -0.7070 -0.0000 0.7072
vn -0.0000 0.7071 0.7071
vn -0.0000 0.7070 0.7072
vn -0.7071 0.7071 -0.0000
vn -0.7072 0.7070 -0.0000
vn -0.7070 0.7072 -0.0000
vn -0.0000 0.7072 0.7070
vn 0.7071 0.7071 -0.0000
vn 0.7071 0.7071 -0.0001
vn 0.7072 -0.0000 0.7070
vn 0.7070 -0.0000 0.7072
vn 0.7072 -0.0000 -0.7071
vn 0.7072 -0.7070 -0.0000
vn 0.7071 0.7071 0.0001
vn -0.0000 0.7071 -0.7071
vn -0.0000 0.7072 -0.7070
vn 0.7070 -0.0000 -0.7072
vn -0.0000 0.7070 -0.7072
vn -0.7071 -0.0000 -0.7071
vn -0.7070 -0.0000 -0.7072
vn -0.0000 -0.7071 -0.7071
vn -0.0000 -0.7071 -0.7072
vn -0.7072 -0.0000 -0.7070
vn -0.7071 -0.7071 0.0001
vn -0.0000 -0.7072 -0.7070
vn 0.7071 -0.7072 -0.0000
vn 0.2740 0.4948 -0.8247
vn 0.2739 0.4948 -0.8247
vn -0.2843 0.4977 -0.8194
vn -0.2844 0.4976 -0.8195
vn -0.2844 0.4976 -0.8194
vn -0.1785 -0.2877 -0.9409
vn -0.1786 -0.2877 -0.9409
vn -0.1784 -0.2877 -0.9410
vn 0.0725 -0.9885 -0.1327
vn -0.0378 -0.9888 -0.1443
vn 0.2447 -0.2304 -0.9418
vn 0.2449 -0.2303 -0.9418
vn -0.2091 0.3920 0.8959
vn -0.2090 0.3920 0.8959
vn 0.3466 0.4088 0.8442
vn 0.3467 0.4087 0.8442
vn 0.3467 0.4088 0.8442
vn 0.2629 -0.3875 0.8836
vn 0.2628 -0.3875 0.8836
vn -0.0468 -0.9986 0.0244
vn 0.0641 -0.9976 0.0267
vn -0.1595 -0.3408 0.9265
vn -0.1597 -0.3408 0.9265
vn 0.8617 0.4624 0.2091
vn 0.8617 0.4624 0.2090
vn 0.8088 0.4750 -0.3466
vn 0.8088 0.4750 -0.3467
vn 0.9117 -0.3156 -0.2629
vn 0.9118 -0.3156 -0.2629
vn 0.1043 -0.9934 0.0468
vn 0.9118 -0.3155 -0.2628
vn 0.9508 -0.2655 0.1597
vn 0.9508 -0.2656 0.1595
vn 0.1064 -0.9923 -0.0641
vt 0.008743 0.030040
vt 0.007845 0.034414
vt 0.001491 0.034331
vt 0.009353 0.030667
vt 0.013123 0.030376
vt 0.013138 0.029257
vt 0.005455 0.026667
vt 0.005254 0.042096
vt 0.008628 0.038809
vt 0.012919 0.046060
vt 0.020684 0.042297
vt 0.013001 0.039706
vt 0.009255 0.038198
vt 0.013016 0.038588
vt 0.017396 0.038923
vt 0.016786 0.038296
vt 0.018294 0.034550
vt 0.024648 0.034633
vt 0.020885 0.026868
vt 0.017511 0.030155
vt 0.013221 0.022903
vt 0.017176 0.034535
vt 0.016884 0.030766
vt 0.013070 0.034482
vt 0.008963 0.034428
vt 0.958405 0.009066
vt 0.958374 0.008311
vt 0.959787 0.010081
vt 0.961158 0.009788
vt 0.959104 0.008506
vt 0.963349 0.012148
vt 0.961894 0.013169
vt 0.965186 0.014864
vt 0.958260 0.011748
vt 0.960585 0.013863
vt 0.963475 0.015972
vt 0.962186 0.016886
vt 0.171622 0.008304
vt 0.173747 0.009247
vt 0.172979 0.009794
vt 0.382677 0.032664
vt 0.382414 0.034021
vt 0.381037 0.033904
vt 0.170572 0.010024
vt 0.169714 0.009632
vt 0.171744 0.009575
vt 0.171000 0.011203
vt 0.169960 0.011943
vt 0.171842 0.010604
vt 0.171974 0.011993
vt 0.172782 0.011033
vt 0.173943 0.011564
vt 0.172064 0.012932
vt 0.379993 0.032998
vt 0.380783 0.031864
vt 0.381499 0.032811
vt 0.382090 0.031413
vt 0.565357 0.014894
vt 0.566882 0.015571
vt 0.566331 0.015964
vt 0.397691 0.025659
vt 0.397502 0.026634
vt 0.396513 0.026549
vt 0.564603 0.016129
vt 0.563987 0.015847
vt 0.565444 0.015806
vt 0.565514 0.016545
vt 0.564163 0.017507
vt 0.564910 0.016975
vt 0.566189 0.016853
vt 0.565610 0.017542
vt 0.567023 0.017234
vt 0.565674 0.018217
vt 0.395764 0.025899
vt 0.396331 0.025085
vt 0.396845 0.025765
vt 0.397269 0.024761
vt 0.464909 0.013686
vt 0.465062 0.012910
vt 0.466069 0.015059
vt 0.467537 0.015096
vt 0.465758 0.013287
vt 0.469191 0.018036
vt 0.467459 0.018720
vt 0.470398 0.021252
vt 0.468384 0.021962
vt 0.465955 0.019106
vt 0.466847 0.022578
vt 0.464104 0.016383
vt 0.712077 0.008878
vt 0.712275 0.008302
vt 0.712818 0.010046
vt 0.713934 0.010227
vt 0.712766 0.008662
vt 0.714888 0.012642
vt 0.713496 0.012982
vt 0.715472 0.015221
vt 0.713863 0.015551
vt 0.712309 0.013120
vt 0.712626 0.015860
vt 0.711182 0.010850
vt 0.164452 0.018439
vt 0.165036 0.018240
vt 0.163976 0.019757
vt 0.164523 0.020763
vt 0.165052 0.018857
vt 0.163181 0.023026
vt 0.162045 0.022122
vt 0.161479 0.025094
vt 0.162317 0.018946
vt 0.161198 0.021257
vt 0.160215 0.024010
vt 0.159200 0.023212
s 1
f 1/1/1 2/2/1 7/3/1
f 2/2/2 1/1/3 3/4/3
f 4/5/4 3/4/5 1/1/5
f 1/1/5 5/6/4 4/5/4
f 5/6/6 1/1/6 6/7/6
f 7/3/1 6/7/1 1/1/1
f 8/8/7 7/3/8 2/2/7
f 2/2/7 9/9/7 8/8/7
f 10/10/9 8/8/9 9/9/9
f 11/11/10 10/10/11 12/12/10
f 9/9/9 12/12/9 10/10/9
f 13/13/12 14/14/12 12/12/13
f 12/12/13 9/9/12 13/13/12
f 15/15/14 12/12/15 14/14/15
f 12/12/10 15/15/10 11/11/10
f 14/14/15 16/16/14 15/15/14
f 17/17/16 15/15/17 16/16/17
f 15/15/18 17/17/18 18/18/18
f 18/18/18 11/11/19 15/15/18
f 19/19/20 18/18/21 17/17/21
f 17/17/21 20/20/22 19/19/20
f 21/21/23 19/19/24 20/20/24
f 20/20/24 5/6/24 21/21/23
f 6/7/6 21/21/25 5/6/6
f 22/22/26 23/23/26 20/20/26
f 20/20/26 17/17/26 22/22/26
f 5/6/27 20/20/27 23/23/28
f 23/23/29 22/22/30 24/24/29
f 23/23/28 4/5/28 5/6/27
f 24/24/29 4/5/31 23/23/29
f 14/14/32 24/24/33 22/22/32
f 4/5/34 24/24/35 25/25/34
f 13/13/36 25/25/37 24/24/36
f 24/24/36 14/14/36 13/13/36
f 9/9/38 2/2/39 25/25/39
f 3/4/3 25/25/3 2/2/2
f 25/25/39 13/13/39 9/9/38
f 25/25/34 3/4/34 4/5/34
f 16/16/17 22/22/17 17/17/16
f 22/22/32 16/16/32 14/14/32
f 27/26/40 26/27/40 28/28/41
f 29/29/42 28/28/42 26/27/42
f 26/27/43 30/30/43 29/29/43
f 28/28/44 29/29/44 31/31/44
f 33/32/45 31/31/45 32/33/45
f 31/31/46 33/32/46 28/28/47
f 34/34/48 28/28/48 33/32/48
f 33/32/49 35/35/49 34/34/50
f 35/35/51 33/32/51 36/36/51
f 32/33/45 36/36/45 33/32/45
f 36/36/51 37/37/51 35/35/51
f 28/28/41 34/34/41 27/26/40
f 38/38/52 39/39/53 41/40/52
f 39/41/54 38/42/55 40/43/54
f 43/44/56 40/45/57 38/38/56
f 41/40/52 42/46/58 38/38/52
f 38/38/56 42/46/59 43/44/56
f 43/44/60 46/47/61 44/48/60
f 44/48/60 40/45/62 43/44/60
f 45/49/63 46/47/64 43/44/63
f 43/44/63 42/46/65 45/49/63
f 44/48/66 46/47/67 48/50/66
f 47/51/68 48/50/69 46/47/68
f 46/47/68 45/49/70 47/51/68
f 48/50/71 47/51/72 49/52/71
f 49/52/71 50/53/73 48/50/71
f 48/50/66 50/53/74 44/48/66
f 44/54/75 50/55/76 51/56/75
f 51/56/77 50/55/78 49/57/77
f 51/56/75 40/43/79 44/54/75
f 40/43/54 51/56/80 39/41/54
f 49/57/77 39/41/81 51/56/77
f 41/40/82 39/39/83 49/52/84
f 49/52/84 47/51/82 41/40/82
f 41/40/85 47/51/86 45/49/85
f 45/49/85 42/46/87 41/40/85
f 52/58/88 53/59/89 55/60/88
f 53/61/90 52/62/91 54/63/90
f 57/64/92 54/65/93 52/58/92
f 55/60/88 56/66/94 52/58/88
f 52/58/92 56/66/95 57/64/92
f 57/64/96 56/66/97 60/67/96
f 59/68/98 54/65/99 57/64/98
f 57/64/98 58/69/100 59/68/98
f 60/67/96 58/69/101 57/64/96
f 58/69/102 60/67/103 61/70/102
f 55/60/104 61/70/104 60/67/104
f 60/67/104 56/66/105 55/60/104
f 63/71/106 61/70/106 62/72/106
f 62/72/107 61/70/107 55/60/107
f 61/70/102 63/71/108 58/69/102
f 59/68/109 58/69/110 63/71/109
f 62/72/106 64/73/111 63/71/106
f 63/71/109 64/73/112 59/68/109
f 59/74/113 64/75/114 65/76/113
f 65/76/115 64/75/116 62/77/115
f 65/76/113 54/63/117 59/74/113
f 54/63/90 65/76/118 53/61/90
f 62/77/115 53/61/119 65/76/115
f 55/60/107 53/59/120 62/72/107
f 67/78/121 66/79/121 68/80/122
f 69/81/123 68/80/123 66/79/123
f 66/79/124 70/82/124 69/81/125
f 68/80/126 69/81/127 71/83/127
f 71/83/128 72/84/128 68/80/128
f 72/84/129 71/83/129 73/85/129
f 73/85/129 74/86/129 72/84/129
f 75/87/130 72/84/130 74/86/130
f 74/86/130 76/88/130 75/87/130
f 72/84/131 75/87/131 77/89/131
f 77/89/132 68/80/132 72/84/132
f 68/80/122 77/89/122 67/78/121
f 79/90/133 78/91/133 80/92/134
f 81/93/135 80/92/135 78/91/135
f 78/91/136 82/94/137 81/93/137
f 80/92/138 81/93/138 83/95/138
f 83/95/139 84/96/139 80/92/139
f 84/96/140 83/95/140 85/97/140
f 85/97/140 86/98/140 84/96/140
f 87/99/141 84/96/141 86/98/141
f 86/98/141 88/100/141 87/99/141
f 84/96/142 87/99/142 89/101/142
f 89/101/143 80/92/143 84/96/143
f 80/92/134 89/101/134 79/90/133
f 91/102/144 90/103/144 92/104/145
f 93/105/146 92/104/146 90/103/146
f 90/103/147 94/106/147 93/105/147
f 92/104/148 93/105/149 95/107/148
f 97/108/150 95/107/150 96/109/150
f 95/107/151 97/108/151 92/104/151
f 98/110/152 92/104/152 97/108/152
f 97/108/153 99/111/153 98/110/153
f 99/111/154 97/108/154 100/112/154
f 96/109/150 100/112/150 97/108/150
f 100/112/154 101/113/154 99/111/154
f 92/104/145 98/110/145 91/102/144
