# Blender 4.4.1
# www.blender.org
o Desert_Stone_8
v -0.018435 -0.000045 -0.011166
v 0.020681 -0.000227 -0.010974
v -0.013943 0.012228 -0.009018
v -0.001350 0.004894 0.012504
v -0.002247 0.000272 0.022139
v 0.011108 0.007347 -0.006079
vn 0.0732 0.3502 -0.9338
vn 0.0726 0.3503 -0.9338
vn 0.0732 0.3501 -0.9339
vn -0.7665 0.4484 0.4598
vn -0.7666 0.4482 0.4598
vn -0.7666 0.4483 0.4597
vn 0.6318 0.6268 0.4561
vn 0.1595 0.9592 0.2335
vn 0.6318 0.6267 0.4562
vn 0.0732 0.3501 -0.9338
vt 0.038290 0.008298
vt 0.042657 0.009914
vt 0.041201 0.010280
vt 0.039824 0.011948
vt 0.039457 0.013248
vt 0.039350 0.009466
s 1
f 2/1/1 1/2/2 3/3/3
f 4/4/4 3/3/5 1/2/5
f 1/2/5 5/5/6 4/4/4
f 4/4/7 5/5/7 2/1/7
f 4/4/8 6/6/8 3/3/8
f 2/1/9 6/6/9 4/4/9
f 3/3/3 6/6/10 2/1/1
