# Blender 4.4.1
# www.blender.org
o Palm_1
v -0.025213 0.000000 0.000191
v 0.000192 -0.000000 -0.025213
v -0.030278 0.109563 0.000230
v -0.000231 0.109563 0.030278
v -0.000192 0.000000 0.025212
v 0.030278 0.109563 -0.000231
v 0.025212 -0.000000 -0.000192
v 0.000230 0.109563 -0.030279
v -0.054959 1.075887 -0.007148
v -0.053613 1.094386 0.018381
v -0.027815 1.079054 0.008629
v -0.027815 1.079054 -0.022926
v -0.069558 1.103862 -0.007148
v -0.053613 1.094386 -0.032677
v -0.051437 1.124318 -0.022926
v -0.025639 1.108986 -0.032677
v -0.024294 1.127485 -0.007148
v -0.009694 1.099510 -0.007148
v -0.025639 1.108986 0.018381
v -0.051437 1.124318 0.008629
v -0.028120 0.617692 0.000213
v 0.000214 0.617692 -0.028120
v -0.014270 1.135704 0.000108
v -0.000109 1.135704 0.014269
v -0.000214 0.617692 0.028119
v 0.014270 1.135704 -0.000109
v 0.028120 0.617692 -0.000215
v 0.000108 1.135704 -0.014270
v -0.025213 0.208610 0.000191
v 0.000192 0.208610 -0.025213
v -0.030278 0.318173 0.000230
v -0.000231 0.318173 0.030278
v -0.000192 0.208610 0.025212
v 0.025213 0.208610 -0.000192
v 0.030278 0.318173 -0.000231
v 0.000230 0.318173 -0.030279
v -0.025213 0.520120 0.000191
v 0.000192 0.520120 -0.025213
v -0.030278 0.629683 0.000230
v -0.000231 0.629683 0.030278
v -0.000192 0.520120 0.025212
v 0.030278 0.629683 -0.000231
v 0.025213 0.520120 -0.000192
v 0.000230 0.629683 -0.030279
v 0.023187 1.073217 0.048955
v 0.024868 1.096330 0.080851
v 0.057102 1.077173 0.068668
v 0.057102 1.077173 0.029241
v 0.004946 1.108170 0.048955
v 0.024868 1.096330 0.017058
v 0.027587 1.133729 0.029241
v 0.059821 1.114572 0.017058
v 0.061502 1.137685 0.048955
v 0.079743 1.102732 0.048955
v 0.059821 1.114572 0.080851
v 0.027587 1.133729 0.068668
v 0.053309 1.127962 0.037552
v 0.023476 1.128512 -0.040845
v 0.051486 1.138358 0.037552
v 0.101976 1.193769 -0.029786
v 0.207009 1.205181 0.031969
v 0.206022 1.215512 0.031969
v 0.100366 1.204161 -0.029786
v 0.381869 1.269204 0.035544
v 0.258922 1.246995 -0.053115
v 0.257952 1.236876 -0.053115
v 0.437040 1.237174 -0.069696
v 0.443141 1.246493 -0.069696
v 0.517224 1.109590 -0.016072
v 0.522365 1.117729 -0.016072
v 0.483769 1.194124 0.044269
v 0.477816 1.185237 0.044269
v 0.377835 1.259266 0.035544
v 0.021653 1.138908 -0.040845
v 0.029464 1.088393 -0.003880
v 0.030809 1.106892 0.021649
v 0.056607 1.091560 0.011897
v 0.056607 1.091560 -0.019658
v 0.014864 1.116368 -0.003880
v 0.030809 1.106892 -0.029409
v 0.032985 1.136824 -0.019658
v 0.058784 1.121492 -0.029409
v 0.060129 1.139991 -0.003880
v 0.074728 1.112016 -0.003880
v 0.058784 1.121492 0.021649
v 0.032985 1.136824 0.011897
v 0.010478 1.127705 -0.036965
v -0.033412 1.118211 0.000901
v 0.009193 1.152849 -0.045740
v -0.100958 1.312017 -0.179550
v -0.098053 1.297347 -0.177259
v -0.180658 1.289084 -0.170034
v -0.238707 1.221908 -0.258289
v -0.229096 1.212734 -0.250289
v -0.189262 1.301007 -0.177174
v -0.043508 1.137424 0.006192
v -0.025213 0.105518 0.000191
v 0.000192 0.105518 -0.025213
v -0.030278 0.215081 0.000230
v -0.000231 0.215081 0.030278
v -0.000192 0.105518 0.025212
v 0.025213 0.105518 -0.000192
v 0.030278 0.215081 -0.000231
v 0.000230 0.215081 -0.030279
v -0.003502 1.132561 0.043490
v -0.012208 1.129245 0.011787
v 0.014222 1.113190 0.023428
v -0.035359 1.129245 0.035365
v 0.007406 1.103267 0.054201
v -0.023236 1.113190 0.061577
v -0.017709 1.081846 0.052695
v -0.044139 1.097901 0.041054
v -0.037323 1.107824 0.010282
v -0.026415 1.078530 0.020993
v -0.006680 1.097901 0.002905
v 0.005442 1.081846 0.029118
v -0.025213 0.309277 0.000191
v 0.000192 0.309277 -0.025213
v -0.030278 0.418840 0.000230
v -0.000231 0.418840 0.030278
v -0.000192 0.309277 0.025212
v 0.030278 0.418840 -0.000231
v 0.025213 0.309277 -0.000192
v 0.000230 0.418840 -0.030279
v -0.016895 1.096700 -0.017948
v -0.007372 1.110238 -0.001844
v 0.006058 1.099017 -0.016911
v -0.004634 1.099017 -0.037379
v -0.026365 1.117173 -0.013000
v -0.024673 1.110238 -0.034963
v -0.019957 1.132144 -0.029375
v -0.006527 1.120923 -0.044442
v 0.002996 1.134461 -0.028338
v 0.012466 1.113988 -0.033285
v 0.010774 1.120923 -0.011323
v -0.009265 1.132144 -0.008907
v 0.010997 1.110386 0.052207
v 0.054577 1.121052 0.020298
v -0.001381 1.128277 0.041400
v 0.181360 1.222942 0.240476
v 0.179066 1.205334 0.238101
v 0.382775 1.153902 0.387439
v 0.377710 1.137574 0.382207
v 0.324425 1.188144 0.264548
v 0.042259 1.138965 0.009551
v 0.328516 1.204985 0.268768
v -0.025213 0.413582 0.000191
v 0.000192 0.413582 -0.025213
v -0.030278 0.523145 0.000230
v -0.000231 0.523145 0.030278
v -0.000192 0.413582 0.025212
v 0.030278 0.523145 -0.000231
v 0.025213 0.413582 -0.000192
v 0.000230 0.523145 -0.030279
v -0.052446 1.116120 -0.004993
v 0.010051 1.108130 0.047498
v -0.046107 1.124607 -0.010314
v -0.032139 1.228809 0.099126
v -0.161425 1.304546 0.067771
v -0.160521 1.313511 0.067015
v -0.027939 1.238721 0.095601
v -0.331358 1.383546 0.211018
v -0.173353 1.354745 0.218222
v -0.170307 1.346043 0.215680
v -0.320834 1.340684 0.342997
v -0.329015 1.347023 0.349793
v -0.397219 1.120956 0.338766
v -0.405742 1.123949 0.345907
v -0.429661 1.246043 0.295276
v -0.325561 1.374749 0.206209
v -0.420834 1.241853 0.287906
v 0.015761 1.117436 0.042706
v 0.027927 1.123606 -0.035003
v -0.019095 1.136379 -0.042833
v 0.027640 1.134029 -0.015887
v 0.059023 1.240530 -0.204678
v 0.058714 1.223598 -0.207541
v 0.043190 1.139643 -0.379601
v -0.006891 1.218890 -0.247956
v 0.043863 1.155591 -0.381020
v -0.006351 1.235788 -0.247556
v -0.019375 1.146846 -0.023783
vn -0.7067 -0.0324 -0.7067
vn -0.7067 -0.0329 0.7067
vn 0.7067 -0.0324 0.7067
vn 0.7067 -0.0329 -0.7067
vn -0.0000 1.0000 -0.0000
vn -0.8282 -0.4322 0.3568
vn -0.2447 -0.7790 0.5774
vn 0.1159 -0.9933 -0.0000
vn -0.2447 -0.7790 -0.5774
vn -0.8282 -0.4322 -0.3568
vn 0.1651 -0.3163 -0.9342
vn -0.7790 0.2447 -0.5774
vn -0.1651 0.3163 -0.9342
vn 0.2447 0.7790 -0.5774
vn 0.8282 0.4322 -0.3568
vn 0.7790 -0.2447 -0.5774
vn 0.7790 -0.2447 0.5774
vn 0.7485 -0.6631 -0.0000
vn 0.8282 0.4322 0.3568
vn 0.1651 -0.3164 0.9342
vn -0.1651 0.3164 0.9342
vn 0.2447 0.7790 0.5774
vn -0.1159 0.9933 -0.0000
vn -0.7485 0.6631 -0.0000
vn -0.7789 0.2447 0.5774
vn -0.7070 0.0188 -0.7070
vn -0.7070 0.0190 0.7070
vn 0.7070 0.0188 0.7070
vn 0.7070 0.0190 -0.7070
vn -0.7067 -0.0324 -0.7068
vn -0.2447 -0.7789 0.5774
vn -0.2447 -0.7790 -0.5773
vn -0.7790 0.2447 -0.5773
vn 0.2447 0.7790 -0.5773
vn 0.7790 -0.2447 -0.5773
vn 0.7486 -0.6631 -0.0000
vn 0.1651 -0.3163 0.9342
vn -0.1651 0.3163 0.9342
vn 0.2447 0.7790 0.5773
vn -0.7790 0.2447 0.5774
vn 0.6397 -0.7274 -0.2485
vn -0.9227 -0.1618 0.3500
vn -0.9227 -0.1618 0.3499
vn 0.0339 0.0046 0.9994
vn 0.0339 0.0045 0.9994
vn 0.0339 0.0047 0.9994
vn 0.3758 -0.7838 -0.4944
vn -0.3737 0.7843 0.4952
vn -0.2258 0.9509 0.2115
vn -0.0216 0.0033 0.9998
vn -0.2910 0.9419 0.1676
vn -0.1455 -0.0045 -0.9893
vn -0.0172 0.9752 -0.2205
vn -0.0908 0.0330 -0.9953
vn 0.3076 -0.1981 -0.9307
vn 0.3075 -0.1981 -0.9307
vn 0.8634 0.4984 -0.0788
vn 0.5762 0.8010 0.1626
vn -0.0619 0.0329 0.9975
vn 0.5287 -0.3445 0.7758
vn 0.0217 -0.9759 0.2171
vn 0.3007 -0.9385 -0.1696
vn -0.5787 -0.8002 -0.1576
vn -0.8583 -0.5076 0.0758
vn 0.2300 -0.9490 -0.2158
vn -0.6387 0.7284 0.2482
vn 0.1228 0.0203 -0.9922
vn 0.1229 0.0202 -0.9922
vn -0.2447 -0.7789 -0.5774
vn 0.7789 -0.2448 0.5774
vn -0.3572 -0.7203 -0.5946
vn 0.6330 0.2207 0.7421
vn 0.6993 -0.1221 -0.7043
vn 0.6991 -0.1223 -0.7045
vn 0.6992 -0.1222 -0.7044
vn 0.6993 -0.1221 -0.7044
vn 0.0082 -0.7037 -0.7105
vn 0.1317 -0.7567 0.6404
vn 0.5312 -0.0850 -0.8430
vn -0.7480 -0.1893 0.6361
vn -0.8400 -0.4907 0.2314
vn -0.1105 0.7444 -0.6585
vn -0.0706 0.7158 0.6947
vn 0.3561 0.7333 0.5792
vn -0.0827 0.9933 -0.0812
vn 0.5791 0.7790 -0.2405
vn 0.8409 0.4322 0.3256
vn -0.2299 0.7790 0.5834
vn 0.3409 0.4322 0.8349
vn -0.5367 -0.3163 0.7823
vn 0.1513 -0.2447 0.9577
vn -0.7723 0.3163 0.5509
vn -0.8409 -0.4322 -0.3256
vn -0.9603 0.2447 -0.1338
vn -0.5791 -0.7790 0.2405
vn -0.3409 -0.4322 -0.8348
vn 0.2299 -0.7790 -0.5834
vn 0.0827 -0.9933 0.0812
vn 0.7723 -0.3163 -0.5509
vn 0.5341 -0.6631 0.5245
vn 0.9603 -0.2447 0.1338
vn -0.1513 0.2447 -0.9577
vn 0.5367 0.3163 -0.7822
vn -0.5341 0.6631 -0.5244
vn -0.5688 -0.4322 0.6997
vn 0.0504 -0.7790 0.6251
vn 0.1027 -0.9933 -0.0537
vn -0.4842 -0.7790 -0.3985
vn -0.8993 -0.4322 0.0672
vn -0.2862 -0.3163 -0.9044
vn -0.9578 0.2447 -0.1510
vn -0.5789 0.3163 -0.7516
vn -0.0504 0.7790 -0.6251
vn 0.5689 0.4322 -0.6997
vn 0.4231 -0.2447 -0.8724
vn 0.9578 -0.2447 0.1511
vn 0.6635 -0.6631 -0.3466
vn 0.8993 0.4322 -0.0672
vn 0.5789 -0.3163 0.7516
vn 0.2862 0.3163 0.9044
vn 0.4842 0.7790 0.3984
vn -0.1027 0.9933 0.0536
vn -0.6635 0.6631 0.3466
vn -0.4231 0.2447 0.8724
vn 0.3443 -0.9249 0.1611
vn -0.3409 -0.6463 -0.6827
vn -0.3409 -0.6462 -0.6828
vn -0.7275 -0.0440 0.6847
vn -0.5986 -0.0494 0.7995
vn -0.0404 -0.9245 -0.3791
vn -0.1846 -0.8765 0.4447
vn 0.6686 0.0186 -0.7434
vn 0.8845 -0.1153 -0.4521
vn 0.0398 0.9243 0.3797
vn 0.1910 0.8799 -0.4350
vn -0.3308 0.9332 -0.1401
vn -0.3409 -0.6461 -0.6828
vn -0.5986 -0.4828 0.6392
vn 0.4436 -0.6507 -0.6163
vn -0.5949 -0.0328 -0.8031
vn -0.4850 -0.5447 0.6841
vn 0.4644 0.5616 -0.6848
vn 0.5128 0.8383 -0.1851
vn -0.6449 -0.0044 -0.7642
vn -0.6455 -0.0036 -0.7638
vn -0.6455 -0.0035 -0.7638
vn 0.1847 0.9520 -0.2440
vn 0.6449 0.0004 0.7643
vn 0.6448 0.0069 0.7644
vn 0.6433 0.0022 0.7656
vn 0.1627 0.9549 0.2486
vn 0.6454 0.0076 0.7638
vn 0.5560 -0.2070 0.8050
vn -0.6126 0.1974 0.7654
vn -0.7438 0.6432 0.1818
vn -0.6442 -0.0082 -0.7648
vn -0.6442 -0.0061 -0.7648
vn -0.6802 -0.3918 -0.6195
vn -0.6803 -0.3918 -0.6195
vn 0.7407 -0.6455 -0.1864
vn 0.6169 -0.1998 -0.7613
vn -0.1630 -0.9587 -0.2331
vn -0.1908 -0.9481 0.2545
vn -0.5309 -0.8237 0.1992
vn 0.5988 0.4915 -0.6323
vn 0.7036 -0.0562 0.7084
vn -0.1437 -0.8449 -0.5153
vn -0.3038 -0.8376 0.4539
vn -0.3038 -0.8377 0.4539
vn 0.9887 -0.0942 0.1163
vn 0.9968 -0.0265 -0.0750
vn -0.2110 -0.8709 0.4440
vn 0.2766 -0.8972 -0.3444
vn 0.2245 0.8703 -0.4385
vn -0.9304 0.0230 -0.3658
vn -0.9983 0.0399 -0.0428
vn -0.2875 0.8957 0.3393
vn 0.1472 0.8508 0.5044
vn -0.3038 -0.8376 0.4540
vt 0.138535 0.042046
vt 0.138172 0.038742
vt 0.148217 0.037305
vt 0.148739 0.049190
vt 0.148398 0.053107
vt 0.138323 0.051900
vt 0.138607 0.048639
vt 0.148824 0.045200
vt 0.138678 0.045316
vt 0.148652 0.041272
vt 0.152754 0.045284
vt 0.152669 0.049275
vt 0.039726 0.032298
vt 0.038290 0.029756
vt 0.041209 0.029784
vt 0.240916 0.026003
vt 0.238055 0.026583
vt 0.238983 0.023815
vt 0.217027 0.031941
vt 0.219569 0.030505
vt 0.219541 0.033424
vt 0.979288 0.027336
vt 0.981943 0.028549
vt 0.979565 0.030242
vt 0.243312 0.024724
vt 0.245285 0.022573
vt 0.246161 0.025358
vt 0.227541 0.027986
vt 0.229861 0.026214
vt 0.230235 0.029109
vt 0.070800 0.027546
vt 0.069832 0.024792
vt 0.072701 0.025330
vt 0.968774 0.025052
vt 0.971635 0.024472
vt 0.970706 0.027239
vt 0.419704 0.029616
vt 0.418072 0.032036
vt 0.416792 0.029412
vt 0.428399 0.025670
vt 0.430196 0.027970
vt 0.427306 0.028377
vt 0.229024 0.015342
vt 0.230460 0.017884
vt 0.227541 0.017856
vt 0.466954 0.023199
vt 0.464980 0.025350
vt 0.464104 0.022565
vt 0.390743 0.028680
vt 0.393145 0.030339
vt 0.390507 0.031590
vt 0.232798 0.026020
vt 0.235541 0.025021
vt 0.235035 0.027896
vt 0.445917 0.022089
vt 0.445081 0.024886
vt 0.443077 0.022764
vt 0.950401 0.030757
vt 0.947746 0.029544
vt 0.950124 0.027851
vt 0.238157 0.032325
vt 0.238055 0.029407
vt 0.240633 0.030777
vt 0.461654 0.024576
vt 0.458848 0.023772
vt 0.460947 0.021744
vt 0.238055 0.029447
vt 0.238387 0.026547
vt 0.240733 0.028285
vt 0.414453 0.010742
vt 0.411535 0.010812
vt 0.412933 0.008250
vt 0.048021 0.036478
vt 0.053529 0.038225
vt 0.029014 0.075241
vt 0.029995 0.074694
vt 0.058371 0.041249
vt 0.029828 0.075808
vt 0.062327 0.045382
vt 0.027776 0.077744
vt 0.065807 0.049866
vt 0.753600 0.013045
vt 0.753238 0.009741
vt 0.763282 0.008304
vt 0.763804 0.020190
vt 0.763463 0.024106
vt 0.753389 0.022900
vt 0.753672 0.019639
vt 0.753744 0.016316
vt 0.763890 0.016199
vt 0.767820 0.016284
vt 0.763717 0.012272
vt 0.767734 0.020274
vt 0.942851 0.245475
vt 0.942489 0.242171
vt 0.952533 0.240734
vt 0.953055 0.252620
vt 0.952714 0.256536
vt 0.942640 0.255329
vt 0.942923 0.252068
vt 0.953141 0.248629
vt 0.942995 0.248745
vt 0.952968 0.244701
vt 0.957071 0.248713
vt 0.956985 0.252704
vt 0.839143 0.017075
vt 0.837349 0.013899
vt 0.840997 0.013933
vt 0.646416 0.011012
vt 0.642841 0.011736
vt 0.644001 0.008278
vt 0.826835 0.015694
vt 0.830011 0.013900
vt 0.829977 0.017547
vt 0.963517 0.008295
vt 0.966834 0.009810
vt 0.963863 0.011926
vt 0.516674 0.010954
vt 0.519140 0.008267
vt 0.520235 0.011746
vt 0.763752 0.010478
vt 0.766650 0.008264
vt 0.767119 0.011881
vt 0.649308 0.011747
vt 0.648098 0.008306
vt 0.651683 0.008978
vt 0.532445 0.009038
vt 0.536020 0.008313
vt 0.534860 0.011771
vt 0.904072 0.008564
vt 0.902032 0.011589
vt 0.900433 0.008311
vt 0.659978 0.008288
vt 0.662224 0.011162
vt 0.658612 0.011670
vt 0.592125 0.013657
vt 0.593919 0.016833
vt 0.590272 0.016798
vt 0.504464 0.009096
vt 0.501998 0.011784
vt 0.500903 0.008304
vt 0.574795 0.013614
vt 0.577797 0.015687
vt 0.574501 0.017249
vt 0.653355 0.009555
vt 0.656783 0.008307
vt 0.656150 0.011899
vt 0.488681 0.008300
vt 0.487637 0.011795
vt 0.485132 0.009143
vt 0.898494 0.011905
vt 0.895176 0.010390
vt 0.898147 0.008274
vt 0.832220 0.017505
vt 0.832092 0.013860
vt 0.835313 0.015572
vt 0.273243 0.012598
vt 0.269597 0.012685
vt 0.271344 0.009484
vt 0.889919 0.011910
vt 0.890335 0.008287
vt 0.893265 0.010458
vt 0.157450 0.011818
vt 0.153943 0.010813
vt 0.156567 0.008279
vt 0.952414 0.035348
vt 0.957363 0.043456
vt 0.947746 0.041547
vt 0.005111 0.073513
vt 0.001491 0.066384
vt 0.002400 0.065998
vt 0.014471 0.054826
vt 0.001553 0.065492
vt 0.956637 0.054754
vt 0.013657 0.054322
vt 0.012309 0.066074
vt 0.024153 0.056790
vt 0.026328 0.042765
vt 0.024612 0.057599
vt 0.037215 0.045968
vt 0.037728 0.046585
vt 0.045215 0.033292
vt 0.044381 0.033101
vt 0.034625 0.034399
vt 0.025565 0.042367
vt 0.034397 0.033521
vt 0.966220 0.055717
vt 0.975542 0.069499
vt 0.964185 0.069516
vt 0.969202 0.079905
vt 0.977908 0.084106
vt 0.044592 0.032244
vt 0.012724 0.066945
vt 0.006022 0.073131
vt 0.006362 0.074041
vt 0.439255 0.028590
vt 0.437820 0.026049
vt 0.440739 0.026076
vt 0.435424 0.026711
vt 0.432563 0.027290
vt 0.433491 0.024523
vt 0.953003 0.032351
vt 0.955544 0.030915
vt 0.955517 0.033834
vt 0.232798 0.027826
vt 0.235453 0.029039
vt 0.233075 0.030732
vt 0.001491 0.024461
vt 0.003465 0.022310
vt 0.004341 0.025095
vt 0.264340 0.027775
vt 0.266660 0.026003
vt 0.267034 0.028898
vt 0.444045 0.027606
vt 0.443077 0.024852
vt 0.445946 0.025391
vt 0.274854 0.024427
vt 0.277715 0.023847
vt 0.276786 0.026615
vt 0.030688 0.029202
vt 0.029056 0.031622
vt 0.027776 0.028999
vt 0.391600 0.026015
vt 0.393398 0.028315
vt 0.390507 0.028722
vt 0.108114 0.022284
vt 0.109550 0.024826
vt 0.106631 0.024798
vt 0.156793 0.023269
vt 0.154819 0.025420
vt 0.153943 0.022635
vt 0.254061 0.028335
vt 0.256463 0.029994
vt 0.253826 0.031245
vt 0.947746 0.026051
vt 0.950489 0.025052
vt 0.949982 0.027927
vt 0.456431 0.021986
vt 0.455595 0.024783
vt 0.453591 0.022661
vt 0.077744 0.030130
vt 0.075089 0.028918
vt 0.077467 0.027224
vt 0.222386 0.033175
vt 0.222284 0.030257
vt 0.224862 0.031627
vt 0.251375 0.024234
vt 0.248569 0.023430
vt 0.250668 0.021402
vt 0.259083 0.030093
vt 0.259415 0.027193
vt 0.261761 0.028931
vt 0.388168 0.015352
vt 0.385250 0.015422
vt 0.386649 0.012859
vt 0.725294 0.329107
vt 0.736267 0.350592
vt 0.721696 0.333179
vt 0.669219 0.343557
vt 0.672112 0.338417
vt 0.674905 0.338673
vt 0.695843 0.347677
vt 0.673653 0.336605
vt 0.695756 0.346650
vt 0.743499 0.347923
vt 0.751265 0.355972
vt 0.705189 0.357288
vt 0.705993 0.358048
vt 0.694778 0.356119
vt 0.696010 0.356166
vt 0.670690 0.345270
vt 0.669126 0.346596
vt 0.969136 0.253468
vt 0.968774 0.250164
vt 0.978818 0.248726
vt 0.979340 0.260612
vt 0.978999 0.264528
vt 0.968924 0.263322
vt 0.969208 0.260061
vt 0.969279 0.256738
vt 0.979425 0.256621
vt 0.983356 0.256706
vt 0.979253 0.252694
vt 0.983270 0.260696
vt 0.485132 0.021782
vt 0.487794 0.020278
vt 0.487765 0.023335
vt 0.588011 0.016550
vt 0.585015 0.017157
vt 0.585987 0.014259
vt 0.055564 0.019453
vt 0.054061 0.016792
vt 0.057118 0.016821
vt 0.506160 0.019183
vt 0.508941 0.020453
vt 0.506451 0.022226
vt 0.979288 0.010507
vt 0.981354 0.008254
vt 0.982271 0.011170
vt 0.842606 0.014499
vt 0.845602 0.013891
vt 0.844630 0.016789
vt 0.317923 0.017795
vt 0.316909 0.014911
vt 0.319914 0.015475
vt 0.527188 0.020043
vt 0.529618 0.018188
vt 0.530010 0.021219
vt 0.459992 0.015917
vt 0.461874 0.018325
vt 0.458848 0.018751
vt 0.355262 0.008256
vt 0.356765 0.010918
vt 0.353708 0.010889
vt 0.966566 0.016128
vt 0.964857 0.018663
vt 0.963517 0.015915
vt 0.222284 0.016617
vt 0.225156 0.015571
vt 0.224626 0.018581
vt 0.763859 0.023353
vt 0.763752 0.020298
vt 0.766451 0.021732
vt 0.072770 0.011258
vt 0.069832 0.010416
vt 0.072030 0.008292
vt 0.456371 0.022000
vt 0.453591 0.020731
vt 0.456080 0.018957
vt 0.301138 0.021364
vt 0.301487 0.018327
vt 0.303943 0.020147
vt 0.093916 0.010873
vt 0.090860 0.010947
vt 0.092324 0.008263
vt 0.177955 0.008968
vt 0.175888 0.011220
vt 0.174971 0.008304
vt 0.141146 0.008300
vt 0.140271 0.011229
vt 0.138172 0.009006
vt 0.101620 0.019540
vt 0.104136 0.021277
vt 0.101373 0.022587
vt 0.490752 0.013045
vt 0.490389 0.009741
vt 0.500434 0.008304
vt 0.500956 0.020190
vt 0.500615 0.024106
vt 0.490540 0.022900
vt 0.490824 0.019639
vt 0.501041 0.016199
vt 0.490895 0.016316
vt 0.500869 0.012272
vt 0.504972 0.016284
vt 0.504886 0.020274
vt 0.554524 0.019769
vt 0.553473 0.017909
vt 0.555609 0.017929
vt 0.750075 0.013482
vt 0.747981 0.013906
vt 0.748660 0.011881
vt 0.127658 0.032480
vt 0.129519 0.031430
vt 0.129498 0.033566
vt 0.474618 0.023497
vt 0.476562 0.024385
vt 0.474822 0.025624
vt 0.500903 0.013335
vt 0.502348 0.011760
vt 0.502989 0.013798
vt 0.164457 0.017261
vt 0.166155 0.015965
vt 0.166429 0.018083
vt 0.081054 0.013956
vt 0.080346 0.011941
vt 0.082445 0.012335
vt 0.916204 0.008721
vt 0.918298 0.008297
vt 0.917618 0.010322
vt 0.771140 0.021673
vt 0.769946 0.023445
vt 0.769009 0.021525
vt 0.853920 0.013851
vt 0.855236 0.015534
vt 0.853120 0.015832
vt 0.601871 0.014279
vt 0.602922 0.016139
vt 0.600786 0.016119
vt 0.913032 0.008768
vt 0.911588 0.010342
vt 0.910947 0.008304
vt 0.459020 0.024538
vt 0.460778 0.025752
vt 0.458848 0.026667
vt 0.606043 0.014369
vt 0.608050 0.013638
vt 0.607680 0.015742
vt 0.676462 0.008298
vt 0.675850 0.010345
vt 0.674383 0.008792
vt 0.061261 0.021656
vt 0.059318 0.020769
vt 0.061058 0.019529
vt 0.075164 0.032212
vt 0.075089 0.030077
vt 0.076975 0.031080
vt 0.450387 0.010370
vt 0.448334 0.009782
vt 0.449870 0.008297
vt 0.542959 0.020357
vt 0.543203 0.018234
vt 0.544919 0.019506
vt 0.319045 0.010133
vt 0.316909 0.010184
vt 0.317933 0.008308
vt 0.427306 0.020616
vt 0.451783 0.020070
vt 0.427638 0.025699
vt 0.932100 0.263336
vt 0.931975 0.258141
vt 0.934255 0.258065
vt 0.960676 0.262445
vt 0.935518 0.256123
vt 0.960650 0.260928
vt 0.982028 0.272585
vt 0.982455 0.270920
vt 0.459361 0.008585
vt 0.472190 0.008312
vt 0.934370 0.263275
vt 0.968937 0.273219
vt 0.968281 0.274542
vt 0.935201 0.265515
vt 0.982006 0.274262
vt 0.837712 0.229549
vt 0.837349 0.226245
vt 0.847394 0.224808
vt 0.847916 0.236694
vt 0.847575 0.240610
vt 0.837500 0.239404
vt 0.837784 0.236142
vt 0.848001 0.232703
vt 0.837855 0.232820
vt 0.847829 0.228776
vt 0.851932 0.232787
vt 0.851846 0.236778
vt 0.424145 0.104060
vt 0.426298 0.116632
vt 0.416792 0.105926
vt 0.128063 0.035377
vt 0.124255 0.042488
vt 0.123291 0.041903
vt 0.101996 0.034983
vt 0.123035 0.042988
vt 0.416825 0.127158
vt 0.102144 0.035745
vt 0.115420 0.029250
vt 0.095926 0.021398
vt 0.082010 0.027294
vt 0.096717 0.021056
vt 0.078666 0.014520
vt 0.079433 0.013976
vt 0.059318 0.008302
vt 0.060002 0.009086
vt 0.065400 0.019141
vt 0.082298 0.028141
vt 0.064814 0.019990
vt 0.429685 0.154644
vt 0.420117 0.164822
vt 0.418459 0.147993
vt 0.425727 0.175801
vt 0.427545 0.136524
vt 0.116048 0.028445
vt 0.127086 0.034796
vt 0.127868 0.034003
vt 0.883090 0.221496
vt 0.892133 0.237847
vt 0.879405 0.224191
vt 0.763752 0.280034
vt 0.765793 0.275501
vt 0.767770 0.276358
vt 0.785808 0.286893
vt 0.769817 0.275392
vt 0.786873 0.285935
vt 0.798901 0.298366
vt 0.797275 0.297553
vt 0.898619 0.234857
vt 0.907380 0.246972
vt 0.784584 0.294428
vt 0.765705 0.280923
vt 0.784125 0.295760
vt 0.765966 0.283183
s 1
f 2/1/1 1/2/1 3/3/1
f 4/4/2 3/5/2 1/6/2
f 1/6/2 5/7/2 4/4/2
f 6/8/3 4/4/3 5/7/3
f 5/7/3 7/9/3 6/8/3
f 8/10/4 6/8/4 7/9/4
f 7/9/4 2/1/4 8/10/4
f 8/11/5 3/12/5 4/4/5
f 3/3/1 8/10/1 2/1/1
f 4/4/5 6/8/5 8/11/5
f 9/13/6 10/14/6 13/15/6
f 9/16/7 11/17/7 10/18/7
f 11/19/8 9/20/8 12/21/8
f 9/22/9 14/23/9 12/24/9
f 9/25/10 13/26/10 14/27/10
f 12/28/11 14/29/11 16/30/11
f 14/31/12 13/32/12 15/33/12
f 14/34/13 15/35/13 16/36/13
f 16/37/14 15/38/14 17/39/14
f 18/40/15 16/41/15 17/42/15
f 12/43/16 16/44/16 18/45/16
f 11/46/17 18/47/17 19/48/17
f 11/49/18 12/50/18 18/51/18
f 19/52/19 18/53/19 17/54/19
f 10/55/20 11/56/20 19/57/20
f 10/58/21 19/59/21 20/60/21
f 20/61/22 19/62/22 17/63/22
f 15/64/23 20/65/23 17/66/23
f 13/67/24 20/68/24 15/69/24
f 13/70/25 10/71/25 20/72/25
f 22/73/26 21/74/26 23/75/26
f 24/76/27 23/75/27 21/74/27
f 21/74/27 25/77/27 24/76/27
f 26/78/28 24/76/28 25/77/28
f 25/77/28 27/79/28 26/78/28
f 28/80/29 26/78/29 27/79/29
f 27/79/29 22/81/29 28/80/29
f 28/80/5 23/75/5 24/76/5
f 23/75/26 28/80/26 22/73/26
f 24/76/5 26/78/5 28/80/5
f 30/82/1 29/83/1 31/84/1
f 32/85/2 31/86/2 29/87/2
f 29/87/2 33/88/2 32/85/2
f 33/88/3 34/89/3 35/90/3
f 35/90/3 32/85/3 33/88/3
f 32/85/5 35/90/5 36/91/5
f 36/92/4 35/90/4 34/89/4
f 36/91/5 31/93/5 32/85/5
f 31/84/1 36/92/1 30/82/1
f 34/89/4 30/82/4 36/92/4
f 38/94/1 37/95/30 39/96/1
f 40/97/2 39/98/2 37/99/2
f 37/99/2 41/100/2 40/97/2
f 42/101/3 40/97/3 41/100/3
f 41/100/3 43/102/3 42/101/3
f 44/103/4 42/101/4 43/102/4
f 43/102/4 38/94/4 44/103/4
f 44/104/5 39/105/5 40/97/5
f 39/96/1 44/103/1 38/94/1
f 40/97/5 42/101/5 44/104/5
f 45/106/6 46/107/6 49/108/6
f 45/109/31 47/110/31 46/111/31
f 47/112/8 45/113/8 48/114/8
f 45/115/32 50/116/32 48/117/32
f 45/118/10 49/119/10 50/120/10
f 48/121/11 50/122/11 52/123/11
f 50/124/33 49/125/33 51/126/33
f 50/127/13 51/128/13 52/129/13
f 52/130/34 51/131/34 53/132/34
f 54/133/15 52/134/15 53/135/15
f 48/136/35 52/137/35 54/138/35
f 47/139/17 54/140/17 55/141/17
f 47/142/36 48/143/36 54/144/36
f 55/145/19 54/146/19 53/147/19
f 46/148/37 47/149/37 55/150/37
f 46/151/38 55/152/38 56/153/38
f 56/154/39 55/155/39 53/156/39
f 49/157/40 46/158/40 56/159/40
f 49/160/24 56/161/24 51/162/24
f 51/163/23 56/164/23 53/165/23
f 58/166/41 60/167/41 57/168/41
f 58/169/42 57/170/43 59/171/42
f 62/172/44 59/171/45 57/173/46
f 60/167/47 61/174/47 57/168/47
f 57/173/46 61/175/44 62/172/44
f 63/176/48 59/171/48 62/172/48
f 65/177/49 63/176/49 62/172/49
f 64/178/50 62/172/50 61/175/50
f 65/177/51 62/172/51 64/178/51
f 63/176/52 65/177/52 66/179/52
f 68/180/53 65/177/53 64/178/53
f 67/181/54 66/179/54 65/177/54
f 65/177/54 68/180/54 67/181/54
f 69/182/55 67/181/55 68/180/55
f 68/180/55 70/183/56 69/182/55
f 70/183/57 68/180/57 71/184/57
f 68/180/58 64/178/58 71/184/58
f 73/185/59 72/186/59 71/184/59
f 70/183/60 71/184/60 72/186/60
f 71/184/59 64/178/59 73/185/59
f 66/187/61 67/188/61 73/189/61
f 66/187/62 73/189/62 61/174/62
f 67/188/63 72/190/63 73/189/63
f 61/175/50 73/185/50 64/178/50
f 67/188/64 69/191/64 72/190/64
f 72/186/60 69/192/60 70/183/60
f 66/179/52 60/193/52 63/176/52
f 60/167/65 66/187/65 61/174/65
f 63/176/66 74/194/66 59/171/66
f 74/194/67 63/176/67 60/193/67
f 59/171/42 74/194/42 58/169/42
f 60/193/67 58/195/68 74/194/67
f 75/196/6 76/197/6 79/198/6
f 75/199/7 77/200/7 76/201/7
f 77/202/8 75/203/8 78/204/8
f 75/205/69 80/206/69 78/207/69
f 75/208/10 79/209/10 80/210/10
f 78/211/11 80/212/11 82/213/11
f 80/214/12 79/215/12 81/216/12
f 80/217/13 81/218/13 82/219/13
f 82/220/34 81/221/34 83/222/34
f 84/223/15 82/224/15 83/225/15
f 78/226/35 82/227/35 84/228/35
f 77/229/70 84/230/70 85/231/70
f 77/232/18 78/233/18 84/234/18
f 85/235/19 84/236/19 83/237/19
f 76/238/20 77/239/20 85/240/20
f 76/241/21 85/242/21 86/243/21
f 86/244/39 85/245/39 83/246/39
f 81/247/23 86/248/23 83/249/23
f 79/250/24 86/251/24 81/252/24
f 79/253/40 76/254/40 86/255/40
f 88/256/71 91/257/71 87/258/71
f 88/259/72 87/260/72 89/261/72
f 90/262/73 89/261/74 87/263/75
f 87/263/75 91/264/76 90/262/73
f 88/256/77 92/265/77 91/257/77
f 92/265/78 94/266/78 91/257/78
f 93/267/79 90/262/79 91/264/79
f 91/264/79 94/268/79 93/267/79
f 94/268/80 92/269/80 95/270/80
f 95/270/80 93/267/80 94/268/80
f 96/271/81 95/270/81 92/269/81
f 95/270/82 90/262/82 93/267/82
f 95/270/83 96/271/83 90/262/83
f 96/271/84 89/261/84 90/262/84
f 89/261/72 96/271/72 88/259/72
f 92/269/81 88/272/81 96/271/81
f 98/273/1 97/274/1 99/275/1
f 100/276/2 99/277/2 97/278/2
f 97/278/2 101/279/2 100/276/2
f 101/279/3 102/280/3 103/281/3
f 103/281/3 100/276/3 101/279/3
f 100/276/5 103/281/5 104/282/5
f 104/283/4 103/281/4 102/280/4
f 104/282/5 99/284/5 100/276/5
f 99/275/1 104/283/1 98/273/1
f 102/280/4 98/273/4 104/283/4
f 106/285/85 108/286/85 105/287/85
f 105/288/86 107/289/86 106/290/86
f 105/291/87 109/292/87 107/293/87
f 105/294/88 108/295/88 110/296/88
f 105/297/89 110/298/89 109/299/89
f 110/300/90 112/301/90 111/302/90
f 110/303/91 111/304/91 109/305/91
f 108/306/92 112/307/92 110/308/92
f 113/309/93 114/310/93 112/311/93
f 108/312/94 113/313/94 112/314/94
f 112/315/95 114/316/95 111/317/95
f 115/318/96 114/319/96 113/320/96
f 116/321/97 114/322/97 115/323/97
f 111/324/98 114/325/98 116/326/98
f 107/327/99 116/328/99 115/329/99
f 109/330/100 111/331/100 116/332/100
f 109/333/101 116/334/101 107/335/101
f 106/336/102 115/337/102 113/338/102
f 107/339/103 115/340/103 106/341/103
f 106/342/104 113/343/104 108/344/104
f 118/345/1 117/346/1 119/347/1
f 120/348/2 119/349/2 117/350/2
f 117/350/2 121/351/2 120/348/2
f 122/352/3 120/348/3 121/351/3
f 121/351/3 123/353/3 122/352/3
f 124/354/4 122/352/4 123/353/4
f 123/353/4 118/345/4 124/354/4
f 124/355/5 119/356/5 120/348/5
f 119/347/1 124/354/1 118/345/1
f 120/348/5 122/352/5 124/355/5
f 125/357/105 126/358/105 129/359/105
f 125/360/106 127/361/106 126/362/106
f 127/363/107 125/364/107 128/365/107
f 125/366/108 130/367/108 128/368/108
f 125/369/109 129/370/109 130/371/109
f 128/372/110 130/373/110 132/374/110
f 130/375/111 129/376/111 131/377/111
f 130/378/112 131/379/112 132/380/112
f 132/381/113 131/382/113 133/383/113
f 134/384/114 132/385/114 133/386/114
f 128/387/115 132/388/115 134/389/115
f 127/390/116 134/391/116 135/392/116
f 127/393/117 128/394/117 134/395/117
f 135/396/118 134/397/118 133/398/118
f 126/399/119 127/400/119 135/401/119
f 126/402/120 135/403/120 136/404/120
f 136/405/121 135/406/121 133/407/121
f 131/408/122 136/409/122 133/410/122
f 129/411/123 136/412/123 131/413/123
f 129/414/124 126/415/124 136/416/124
f 138/417/125 141/418/125 137/419/125
f 138/420/126 137/421/127 139/422/126
f 140/423/128 139/422/128 137/424/128
f 137/424/128 141/425/128 140/423/128
f 142/426/129 140/423/129 141/425/129
f 141/425/129 143/427/129 142/426/129
f 144/428/130 143/429/130 141/418/130
f 138/417/131 144/428/131 141/418/131
f 145/430/132 146/431/132 144/432/132
f 144/432/132 138/433/132 145/430/132
f 143/434/133 144/432/133 146/431/133
f 146/431/133 142/426/133 143/434/133
f 146/431/134 140/423/134 142/426/134
f 146/431/135 145/430/135 140/423/135
f 145/430/136 139/422/136 140/423/136
f 139/422/126 145/430/137 138/420/126
f 148/435/1 147/436/1 149/437/1
f 150/438/2 149/439/2 147/440/2
f 147/440/2 151/441/2 150/438/2
f 152/442/3 150/438/3 151/441/3
f 151/441/3 153/443/3 152/442/3
f 154/444/4 152/442/4 153/443/4
f 153/443/4 148/435/4 154/444/4
f 154/445/5 149/446/5 150/438/5
f 149/437/1 154/444/1 148/435/1
f 150/438/5 152/442/5 154/445/5
f 156/447/138 158/448/138 155/449/138
f 156/450/139 155/451/139 157/452/139
f 160/453/140 157/452/140 155/454/140
f 158/448/141 159/455/141 155/449/141
f 155/454/140 159/456/140 160/453/140
f 161/457/142 157/452/142 160/453/142
f 163/458/143 161/457/143 160/453/143
f 162/459/144 160/453/145 159/456/146
f 163/458/147 160/453/147 162/459/147
f 161/457/148 163/458/149 164/460/150
f 166/461/151 163/458/151 162/459/151
f 165/462/152 164/460/150 163/458/149
f 163/458/149 166/461/152 165/462/152
f 167/463/153 165/462/153 166/461/153
f 166/461/153 168/464/153 167/463/153
f 168/464/154 166/461/154 169/465/154
f 166/461/155 162/459/155 169/465/155
f 169/465/156 162/459/144 170/466/157
f 170/466/157 171/467/156 169/465/156
f 168/464/158 169/465/159 171/467/159
f 165/468/160 171/469/160 170/470/160
f 165/468/161 167/471/161 171/469/161
f 171/467/159 167/463/159 168/464/158
f 159/456/146 170/466/157 162/459/144
f 164/472/162 165/468/162 170/470/162
f 164/472/163 170/470/163 159/455/163
f 164/460/150 158/473/148 161/457/148
f 158/448/164 164/472/164 159/455/164
f 161/457/165 172/474/165 157/452/165
f 172/474/166 161/457/166 158/473/166
f 157/452/139 172/474/139 156/450/139
f 158/473/166 156/475/166 172/474/166
f 174/476/167 177/477/167 173/478/167
f 174/479/168 173/480/169 175/481/169
f 176/482/170 175/481/170 173/483/170
f 173/483/170 177/484/170 176/482/170
f 177/484/171 178/485/171 180/486/171
f 179/487/172 178/488/172 177/477/172
f 180/486/171 176/482/171 177/484/171
f 174/476/173 179/487/173 177/477/173
f 181/489/174 176/482/174 180/486/174
f 181/489/175 180/486/175 178/485/175
f 182/490/176 181/489/176 179/491/176
f 181/489/177 182/490/177 176/482/177
f 178/485/175 179/491/175 181/489/175
f 182/490/178 175/481/178 176/482/178
f 175/481/169 182/490/179 174/479/168
f 179/491/176 174/492/176 182/490/176
