# Blender 4.4.1
# www.blender.org
o Desert_Doorframe
v -0.661049 1.487057 -0.195177
v 0.661049 1.487057 -0.195177
v -0.661049 1.557216 -0.195177
v -0.661049 1.557216 0.195177
v -0.661049 1.487057 0.195177
v 0.661049 1.487057 0.195177
v 0.661049 1.557216 -0.195177
v 0.661049 1.557216 0.195177
v -0.655027 1.485173 -0.195177
v -0.305722 1.485173 -0.195177
v -0.432984 -0.000000 -0.195177
v -0.655028 -0.000000 -0.195177
v -0.305722 1.485172 0.195177
v -0.432984 0.000000 0.195177
v -0.655027 1.485173 0.195177
v -0.655028 0.000000 0.195177
v -0.128453 1.485648 0.262578
v -0.114560 1.480725 0.263234
v -0.114560 1.473898 0.263234
v -0.127604 1.485648 0.244589
v -0.114436 1.473898 0.245226
v -0.097167 1.469701 0.245225
v -0.097167 1.469701 0.263234
v -0.068078 1.471199 0.245225
v -0.068078 1.471199 0.263234
v -0.023396 1.484094 0.245225
v 0.020687 1.484994 0.245225
v -0.023396 1.484094 0.263234
v -0.068078 1.478025 0.263234
v -0.023396 1.490920 0.263234
v 0.020687 1.484994 0.263234
v 0.020687 1.491821 0.263234
v 0.057873 1.470199 0.263233
v 0.057873 1.470199 0.245225
v 0.090963 1.458568 0.245225
v 0.090963 1.458568 0.263233
v 0.127496 1.438743 0.245225
v 0.134321 1.442799 0.245224
v 0.127496 1.438743 0.263233
v 0.092555 1.468466 0.263233
v 0.129195 1.449304 0.263233
v 0.134322 1.442799 0.263233
v 0.129195 1.449304 0.245225
v 0.092555 1.468466 0.245225
v 0.057873 1.480224 0.245225
v 0.057873 1.480224 0.263233
v 0.020687 1.491821 0.245225
v -0.023396 1.490920 0.245225
v -0.068078 1.478025 0.245225
v -0.097167 1.476527 0.245225
v -0.113953 1.480725 0.245236
v -0.097167 1.476527 0.263234
v -0.132538 1.336739 0.195107
v -0.132538 1.517168 0.195107
v -0.132538 1.336739 0.254051
v 0.140098 1.336739 0.254051
v 0.140098 1.336739 0.195107
v 0.140098 1.517168 0.254051
v 0.140098 1.517168 0.195107
v -0.132538 1.517168 0.254051
v -0.110596 1.461841 0.262661
v -0.098573 1.457581 0.263229
v -0.098573 1.451674 0.263229
v -0.109746 1.461841 0.244673
v -0.098448 1.451674 0.245221
v -0.083521 1.448041 0.245221
v -0.083521 1.448041 0.263229
v -0.061423 1.449180 0.245221
v -0.061423 1.449180 0.263229
v -0.055827 1.441339 0.245221
v -0.055827 1.441339 0.263229
v -0.041242 1.428856 0.245220
v -0.020490 1.420698 0.245220
v -0.041242 1.428856 0.263229
v -0.052475 1.446072 0.263229
v -0.037066 1.432165 0.263229
v -0.020490 1.420698 0.263228
v -0.017634 1.424729 0.263228
v 0.012328 1.416952 0.263228
v 0.012328 1.416952 0.245220
v 0.041229 1.421012 0.245220
v 0.041229 1.421012 0.263228
v 0.039752 1.411002 0.245220
v 0.039752 1.411002 0.263228
v 0.033005 1.398506 0.245220
v 0.018511 1.382263 0.245220
v 0.033005 1.398506 0.263228
v 0.045042 1.407667 0.263228
v 0.038295 1.395172 0.263228
v 0.018511 1.382263 0.263228
v 0.023800 1.378928 0.263228
v 0.003016 1.373765 0.263228
v 0.003017 1.373765 0.245220
v -0.024928 1.366570 0.245219
v -0.045199 1.369957 0.245219
v -0.024928 1.366570 0.263227
v 0.008306 1.370431 0.263228
v -0.022227 1.363131 0.263227
v -0.045198 1.369957 0.263227
v -0.046440 1.366741 0.263227
v -0.060055 1.379426 0.263229
v -0.060055 1.379426 0.245221
v -0.063940 1.391086 0.245221
v -0.058162 1.402831 0.245221
v -0.063940 1.391086 0.263229
v -0.064568 1.376763 0.263229
v -0.069180 1.391093 0.263229
v -0.058162 1.402831 0.263230
v -0.064462 1.402839 0.263230
v -0.052356 1.405810 0.263229
v -0.052357 1.405810 0.245221
v -0.047132 1.400989 0.245221
v -0.046944 1.393869 0.245221
v -0.047132 1.400989 0.263229
v -0.053277 1.410602 0.263229
v -0.044257 1.404925 0.263229
v -0.046944 1.393869 0.263229
v -0.042696 1.390552 0.263229
v -0.050171 1.393355 0.263229
v -0.050168 1.393355 0.245221
v -0.052027 1.394826 0.245220
v -0.053398 1.396766 0.245221
v -0.052025 1.394825 0.263228
v -0.051264 1.388519 0.263229
v -0.054714 1.393446 0.263228
v -0.053393 1.396764 0.263229
v -0.054710 1.393446 0.245220
v -0.051262 1.388519 0.245221
v -0.042696 1.390552 0.245221
v -0.044256 1.404925 0.245221
v -0.053278 1.410602 0.245221
v -0.064463 1.402839 0.245221
v -0.069180 1.391093 0.245221
v -0.064570 1.376763 0.245221
v -0.046440 1.366741 0.245219
v -0.022227 1.363131 0.245219
v 0.008306 1.370431 0.245220
v 0.023800 1.378928 0.245220
v 0.038295 1.395172 0.245220
v 0.045042 1.407667 0.245220
v 0.048565 1.422651 0.245220
v 0.048565 1.422651 0.263228
v 0.050383 1.362807 0.245220
v 0.050384 1.362807 0.263228
v 0.071849 1.396325 0.245219
v 0.058032 1.411063 0.245220
v 0.071854 1.395088 0.263227
v 0.058032 1.411063 0.263228
v 0.056830 1.425135 0.263228
v 0.056830 1.425135 0.245220
v 0.074029 1.432916 0.245220
v 0.074029 1.432916 0.263229
v 0.100004 1.430399 0.245219
v 0.100005 1.430399 0.263227
v 0.101980 1.433535 0.245219
v 0.102803 1.436849 0.245219
v 0.101981 1.433535 0.263227
v 0.077324 1.448103 0.263229
v 0.082501 1.436537 0.263229
v 0.102805 1.436849 0.263227
v 0.077324 1.448103 0.245220
v 0.045549 1.463147 0.245220
v 0.028260 1.467113 0.245221
v 0.045549 1.463147 0.263229
v 0.045549 1.454471 0.263229
v 0.028260 1.467113 0.263229
v 0.075952 1.439578 0.263229
v 0.048157 1.427629 0.263228
v 0.075952 1.439578 0.245220
v 0.048157 1.427629 0.245220
v 0.011924 1.421877 0.245220
v 0.011924 1.421877 0.263228
v -0.017634 1.424729 0.245220
v -0.037067 1.432165 0.245220
v -0.052476 1.446072 0.245221
v -0.055274 1.450227 0.245221
v -0.055274 1.450227 0.263229
v -0.027778 1.460499 0.245221
v -0.027778 1.460499 0.263229
v -0.008404 1.462837 0.245221
v -0.014498 1.446365 0.245221
v -0.008404 1.462837 0.263229
v 0.028260 1.459823 0.263229
v -0.008404 1.468744 0.263229
v -0.027778 1.466405 0.263229
v 0.010637 1.448030 0.263229
v -0.014498 1.446365 0.263229
v -0.004278 1.436975 0.263228
v -0.004278 1.436975 0.245219
v 0.009769 1.431109 0.245221
v 0.021897 1.436261 0.245219
v 0.009769 1.431109 0.263229
v 0.032119 1.445093 0.263229
v 0.021898 1.436261 0.263227
v 0.032118 1.445093 0.245221
v 0.028260 1.459823 0.245221
v 0.045549 1.454471 0.245220
v -0.061423 1.455087 0.263229
v -0.061423 1.455087 0.245221
v -0.027778 1.466405 0.245221
v -0.008404 1.468744 0.245221
v -0.083521 1.453948 0.245221
v -0.097965 1.457581 0.245231
v -0.083521 1.453948 0.263229
v 0.655029 1.485172 -0.195177
v 0.305724 1.485172 -0.195177
v 0.655028 -0.000000 -0.195177
v 0.655028 0.000000 0.195177
v 0.655029 1.485172 0.195177
v 0.432984 0.000000 0.195177
v 0.305724 1.485172 0.195177
v 0.432984 -0.000000 -0.195177
vn -0.0000 -1.0000 -0.0000
vn -0.0000 -0.0000 -1.0000
vn -1.0000 -0.0000 -0.0000
vn 1.0000 -0.0000 -0.0000
vn -0.0000 -0.0000 1.0000
vn 0.9963 -0.0854 -0.0000
vn 0.3359 0.9418 0.0136
vn -0.0472 -0.0000 0.9989
vn -0.6550 -0.7554 -0.0177
vn -0.2354 -0.9719 -0.0008
vn 0.0514 -0.9987 -0.0000
vn 0.2773 -0.9608 -0.0000
vn 0.0204 -0.9998 -0.0000
vn -0.3697 -0.9292 -0.0000
vn -0.3316 -0.9434 -0.0000
vn -0.4770 -0.8789 -0.0000
vn 0.5109 -0.8597 -0.0000
vn 0.5108 -0.8597 -0.0001
vn 0.7854 0.6189 -0.0001
vn 0.7854 0.6190 -0.0000
vn 0.4634 0.8861 -0.0000
vn 0.3211 0.9471 -0.0000
vn 0.2977 0.9547 -0.0000
vn -0.0204 0.9998 -0.0000
vn -0.2773 0.9608 -0.0000
vn -0.0514 0.9987 -0.0000
vn 0.2386 0.9711 0.0040
vn 0.3360 0.9418 0.0136
vn 0.3364 0.9416 0.0136
vn -0.6566 -0.7540 -0.0178
vn -0.2357 -0.9718 -0.0009
vn -0.2355 -0.9719 -0.0008
vn -0.2356 -0.9719 -0.0008
vn 0.0515 -0.9987 -0.0000
vn -0.8140 -0.5809 -0.0000
vn -0.6502 -0.7597 -0.0000
vn -0.3659 -0.9307 -0.0000
vn -0.1134 -0.9935 -0.0000
vn 0.1391 -0.9903 -0.0000
vn -0.9893 0.1460 -0.0000
vn -0.8799 0.4751 -0.0000
vn -0.7461 0.6658 -0.0000
vn -0.4809 0.8768 -0.0000
vn -0.2493 0.9684 -0.0000
vn 0.1648 0.9863 -0.0000
vn 0.0001 -0.0000 1.0000
vn 0.5375 0.8433 -0.0000
vn 0.9487 0.3161 -0.0000
vn 0.8973 -0.4414 -0.0000
vn -0.0000 0.0002 1.0000
vn 0.4565 -0.8897 -0.0000
vn -0.6781 -0.7350 0.0001
vn -0.9997 -0.0264 -0.0000
vn -0.6782 -0.7349 -0.0000
vn -0.0002 0.0001 1.0000
vn -0.1573 0.9875 -0.0000
vn -0.1575 0.9875 -0.0000
vn 0.6205 0.7842 0.0001
vn 0.6210 0.7838 -0.0000
vn 0.8166 0.5772 -0.0001
vn -0.0001 0.0001 1.0000
vn -0.0001 -0.0001 1.0000
vn -0.0000 -0.0004 1.0000
vn 0.0002 -0.0004 1.0000
vn 0.8169 0.5768 -0.0001
vn 0.8168 0.5769 -0.0001
vn -0.9295 0.3688 -0.0000
vn -0.9295 0.3687 -0.0000
vn -0.8194 -0.5733 0.0001
vn -0.8194 -0.5732 -0.0001
vn -0.8192 -0.5736 -0.0001
vn 0.2309 -0.9730 -0.0000
vn 0.9942 0.1079 -0.0000
vn 0.9942 0.1080 0.0001
vn 0.5326 0.8464 -0.0000
vn 0.5327 0.8463 -0.0000
vn -0.5702 0.8215 -0.0000
vn -0.5702 0.8215 0.0001
vn -0.9280 0.3727 0.0001
vn -0.9520 -0.3062 -0.0000
vn -0.9279 0.3727 -0.0000
vn -0.9519 -0.3064 0.0001
vn -0.4838 -0.8752 0.0001
vn -0.4838 -0.8752 -0.0000
vn -0.1474 -0.9891 -0.0000
vn 0.2325 -0.9726 -0.0000
vn 0.4808 -0.8768 -0.0000
vn 0.7461 -0.6658 -0.0000
vn 0.8799 -0.4751 -0.0000
vn 0.9735 -0.2289 -0.0000
vn -0.9995 -0.0304 -0.0000
vn -0.9995 -0.0304 0.0001
vn 0.8275 -0.5611 0.0193
vn 0.7757 0.6301 -0.0364
vn 0.7757 0.6300 -0.0365
vn 0.9964 0.0851 -0.0000
vn 0.4122 -0.9111 -0.0000
vn -0.0964 -0.9953 -0.0000
vn 0.8461 -0.5331 -0.0001
vn 0.9705 -0.2410 -0.0000
vn 0.8461 -0.5331 -0.0000
vn 0.0001 -0.0001 1.0000
vn 0.9705 -0.2413 -0.0001
vn 0.4040 0.9147 -0.0001
vn 0.4040 0.9148 -0.0000
vn 0.4279 0.9038 -0.0000
vn 0.2236 0.9747 -0.0000
vn -0.3949 0.9187 -0.0000
vn -0.4399 -0.8980 -0.0000
vn -0.1568 0.9876 -0.0000
vn 0.0960 0.9954 -0.0000
vn 0.3574 0.9340 -0.0000
vn 0.6700 0.7424 -0.0001
vn 0.6700 0.7424 -0.0000
vn 0.8294 0.5586 -0.0000
vn 0.8293 0.5587 -0.0000
vn 0.3500 -0.9368 -0.0000
vn 0.1198 -0.9928 -0.0000
vn -0.9379 0.3470 -0.0000
vn -0.0000 -0.0001 1.0000
vn -0.6766 -0.7364 -0.0000
vn -0.3853 -0.9228 -0.0000
vn -0.3854 -0.9228 -0.0000
vn 0.3910 -0.9204 -0.0000
vn 0.3909 -0.9204 -0.0000
vn 0.6538 -0.7566 -0.0001
vn 0.6538 -0.7566 -0.0000
vn 0.9674 0.2534 -0.0001
vn 0.9674 0.2534 -0.0000
vn -0.2957 -0.9553 -0.0000
vn -0.1199 0.9928 -0.0000
vn -0.3188 0.9478 -0.0000
vn 0.0444 0.9990 -0.0000
vn -0.0515 0.9987 -0.0000
vn 0.2392 0.9710 0.0040
vn 0.3365 0.9416 0.0136
vn -0.9963 -0.0854 -0.0000
vt 0.063376 0.960551
vt 0.007258 0.851876
vt 0.039345 0.835307
vt 0.057609 0.963529
vt 0.098441 0.949749
vt 0.066354 0.966318
vt 0.095463 0.943983
vt 0.004280 0.846109
vt 0.036367 0.829540
vt 0.045112 0.832329
vt 0.101230 0.941005
vt 0.001491 0.854854
vt 0.648885 0.812686
vt 0.688912 0.944121
vt 0.657999 0.953536
vt 0.629234 0.818670
vt 0.622681 0.961068
vt 0.593916 0.826203
vt 0.590617 0.965086
vt 0.573534 0.828757
vt 0.554785 0.969576
vt 0.537702 0.833247
vt 0.301741 0.012444
vt 0.302236 0.010838
vt 0.303623 0.010835
vt 0.303734 0.010213
vt 0.302552 0.008649
vt 0.301138 0.009587
vt 0.303169 0.008710
vt 0.304760 0.008301
vt 0.305329 0.010223
vt 0.305448 0.008422
vt 0.308219 0.008694
vt 0.308282 0.010495
vt 0.308904 0.008770
vt 0.313152 0.010190
vt 0.312829 0.011937
vt 0.313542 0.010287
vt 0.317037 0.011029
vt 0.308321 0.011196
vt 0.312800 0.012633
vt 0.316971 0.012443
vt 0.316870 0.013152
vt 0.321105 0.012042
vt 0.320916 0.010353
vt 0.317059 0.010874
vt 0.321374 0.010214
vt 0.324662 0.010644
vt 0.324759 0.011608
vt 0.324687 0.010792
vt 0.326855 0.010614
vt 0.327854 0.011645
vt 0.329466 0.010614
vt 0.329849 0.011281
vt 0.324486 0.012691
vt 0.327858 0.012549
vt 0.328353 0.012088
vt 0.329811 0.013087
vt 0.329299 0.013701
vt 0.328508 0.014109
vt 0.325082 0.014520
vt 0.324721 0.014468
vt 0.321228 0.014787
vt 0.320788 0.013025
vt 0.320843 0.014843
vt 0.317141 0.014920
vt 0.316410 0.014986
vt 0.312556 0.014327
vt 0.311892 0.014320
vt 0.307756 0.012791
vt 0.307552 0.012893
vt 0.305120 0.011789
vt 0.305243 0.010973
vt 0.305141 0.011625
vt 0.304358 0.011461
vt 0.303120 0.012706
vt 0.001491 0.278538
vt 0.001840 0.261850
vt 0.007292 0.261964
vt 0.032508 0.262491
vt 0.007406 0.256512
vt 0.032622 0.257039
vt 0.032159 0.279179
vt 0.037960 0.262604
vt 0.037611 0.279293
vt 0.006943 0.278652
vt 0.007579 0.226188
vt 0.007439 0.224739
vt 0.008266 0.224787
vt 0.006990 0.224700
vt 0.007027 0.224907
vt 0.007184 0.226503
vt 0.006912 0.224863
vt 0.006755 0.224971
vt 0.007051 0.224262
vt 0.006741 0.224930
vt 0.006443 0.224369
vt 0.006818 0.223709
vt 0.006269 0.224522
vt 0.004854 0.224378
vt 0.005848 0.223009
vt 0.004134 0.225100
vt 0.002352 0.223475
vt 0.004018 0.221696
vt 0.001512 0.221565
vt 0.001491 0.218001
vt 0.004662 0.221559
vt 0.006159 0.222333
vt 0.004033 0.217080
vt 0.004755 0.216765
vt 0.007370 0.210913
vt 0.004634 0.210718
vt 0.001910 0.215789
vt 0.006289 0.208714
vt 0.010808 0.205916
vt 0.013424 0.206831
vt 0.010852 0.205898
vt 0.011335 0.204650
vt 0.013503 0.204831
vt 0.010601 0.204372
vt 0.010881 0.202571
vt 0.013018 0.202519
vt 0.010120 0.202076
vt 0.010247 0.199333
vt 0.015163 0.203911
vt 0.014541 0.202070
vt 0.012395 0.199176
vt 0.013867 0.199010
vt 0.011954 0.196501
vt 0.009908 0.196352
vt 0.009495 0.198453
vt 0.009087 0.195857
vt 0.009142 0.192406
vt 0.011254 0.192433
vt 0.008167 0.191636
vt 0.008311 0.189534
vt 0.013232 0.196646
vt 0.012164 0.192515
vt 0.009993 0.189813
vt 0.012828 0.188934
vt 0.009927 0.188862
vt 0.009908 0.188666
vt 0.009840 0.188520
vt 0.009900 0.188234
vt 0.010109 0.188267
vt 0.010170 0.188515
vt 0.010199 0.188207
vt 0.010217 0.188196
vt 0.012499 0.187991
vt 0.012095 0.187864
vt 0.010234 0.188185
vt 0.011793 0.187734
vt 0.010356 0.188108
vt 0.010326 0.188127
vt 0.010293 0.188148
vt 0.010109 0.187583
vt 0.010238 0.187588
vt 0.010295 0.187810
vt 0.010264 0.187422
vt 0.010393 0.187430
vt 0.011627 0.187295
vt 0.011882 0.187337
vt 0.010447 0.187656
vt 0.011434 0.187247
vt 0.010577 0.187515
vt 0.010540 0.187237
vt 0.010390 0.187293
vt 0.010477 0.186712
vt 0.010695 0.186657
vt 0.010719 0.187323
vt 0.010722 0.185917
vt 0.010891 0.185979
vt 0.011434 0.186988
vt 0.011130 0.187061
vt 0.011025 0.187127
vt 0.010972 0.185757
vt 0.010879 0.185700
vt 0.011022 0.185931
vt 0.011394 0.185988
vt 0.011465 0.185882
vt 0.011590 0.186214
vt 0.011497 0.186931
vt 0.011643 0.187051
vt 0.011692 0.186949
vt 0.011940 0.186998
vt 0.011992 0.186840
vt 0.011899 0.187267
vt 0.011919 0.187283
vt 0.012162 0.187444
vt 0.012245 0.187402
vt 0.012531 0.187575
vt 0.012608 0.187511
vt 0.013658 0.187721
vt 0.013775 0.187696
vt 0.014728 0.191091
vt 0.014244 0.191376
vt 0.015551 0.195245
vt 0.015390 0.195539
vt 0.016315 0.197833
vt 0.016300 0.198278
vt 0.016982 0.201179
vt 0.016681 0.201535
vt 0.016951 0.203074
vt 0.017599 0.202786
vt 0.018705 0.203923
vt 0.017338 0.204921
vt 0.017382 0.205020
vt 0.017408 0.205078
vt 0.017641 0.206238
vt 0.018876 0.203953
vt 0.022143 0.205677
vt 0.020329 0.207507
vt 0.021906 0.207632
vt 0.020979 0.209118
vt 0.018360 0.209389
vt 0.018360 0.209428
vt 0.018360 0.209422
vt 0.018360 0.209416
vt 0.018361 0.209455
vt 0.018362 0.209559
vt 0.018362 0.209587
vt 0.020942 0.209237
vt 0.021899 0.210733
vt 0.021226 0.211364
vt 0.023760 0.212170
vt 0.023521 0.212624
vt 0.021257 0.211680
vt 0.023444 0.213081
vt 0.023140 0.213455
vt 0.021107 0.211923
vt 0.019368 0.213056
vt 0.019193 0.211064
vt 0.021005 0.213746
vt 0.020091 0.213726
vt 0.020648 0.214333
vt 0.021967 0.218934
vt 0.020056 0.219029
vt 0.021176 0.221532
vt 0.018995 0.222543
vt 0.019395 0.218088
vt 0.018317 0.211537
vt 0.017686 0.220542
vt 0.015755 0.207154
vt 0.016017 0.209454
vt 0.016382 0.210502
vt 0.018608 0.213431
vt 0.013430 0.209592
vt 0.010249 0.211563
vt 0.007990 0.211211
vt 0.008115 0.213705
vt 0.006865 0.216317
vt 0.005628 0.218899
vt 0.005434 0.220223
vt 0.006147 0.221951
vt 0.005532 0.221998
vt 0.006149 0.221635
vt 0.006451 0.221647
vt 0.007653 0.222716
vt 0.007646 0.220514
vt 0.009405 0.219340
vt 0.011325 0.219828
vt 0.010910 0.217519
vt 0.011768 0.216459
vt 0.013392 0.217652
vt 0.013419 0.214947
vt 0.014060 0.214807
vt 0.016401 0.218540
vt 0.017717 0.219959
vt 0.013676 0.218853
vt 0.012058 0.220299
vt 0.014742 0.215690
vt 0.015696 0.216352
vt 0.015884 0.214613
vt 0.016086 0.213916
vt 0.018041 0.216178
vt 0.017308 0.216535
vt 0.016419 0.217129
vt 0.016988 0.218110
vt 0.016830 0.217874
vt 0.016961 0.219139
vt 0.016956 0.219034
vt 0.016961 0.219094
vt 0.016971 0.219105
vt 0.016975 0.219120
vt 0.017014 0.219189
vt 0.018215 0.218889
vt 0.018690 0.218845
vt 0.018522 0.215940
vt 0.012747 0.222042
vt 0.009693 0.225467
vt 0.008322 0.223665
vt 0.013086 0.222925
vt 0.014165 0.220337
vt 0.014024 0.219871
vt 0.015524 0.220887
vt 0.009807 0.226204
vt 0.008195 0.227124
vt 0.008280 0.224787
vt 0.008271 0.224787
vt 0.008268 0.224787
vt 0.008262 0.224786
vt 0.804588 0.349881
vt 0.779523 0.329486
vt 0.866238 0.222912
vt 0.929933 0.266259
vt 0.961414 0.283953
vt 0.894093 0.403725
vt 0.862613 0.386031
vt 0.912026 0.256194
vt 0.834443 0.370198
vt 0.882171 0.235877
s 1
f 1/1/1 2/2/1 6/3/1
f 2/2/2 1/1/2 3/4/2
f 4/5/3 3/6/3 1/1/3
f 1/1/3 5/7/3 4/5/3
f 6/3/1 5/7/1 1/1/1
f 7/8/4 8/9/4 6/3/4
f 6/3/4 2/2/4 7/8/4
f 5/7/5 6/3/5 8/10/5
f 8/10/5 4/11/5 5/7/5
f 3/4/2 7/12/2 2/2/2
f 12/13/2 9/14/2 10/15/2
f 10/15/2 11/16/2 12/13/2
f 11/16/6 10/15/6 13/17/6
f 13/17/6 14/18/6 11/16/6
f 14/18/5 13/17/5 15/19/5
f 15/19/5 16/20/5 14/18/5
f 9/21/3 12/22/3 16/20/3
f 16/20/3 15/19/3 9/21/3
f 20/23/7 17/24/7 18/25/7
f 17/24/8 19/26/8 18/25/8
f 21/27/9 19/26/9 17/24/9
f 17/24/9 20/28/9 21/27/9
f 19/26/10 21/29/10 22/30/10
f 22/30/10 23/31/10 19/26/10
f 23/31/11 22/32/11 24/33/11
f 24/33/11 25/34/11 23/31/11
f 25/34/12 24/35/12 26/36/12
f 28/37/13 26/38/13 27/39/13
f 26/36/12 28/37/12 25/34/12
f 29/40/5 25/34/5 28/37/5
f 28/37/5 30/41/5 29/40/5
f 30/41/5 28/37/5 31/42/5
f 27/39/13 31/42/13 28/37/13
f 32/43/5 31/42/5 33/44/5
f 31/42/5 32/43/5 30/41/5
f 34/45/14 33/44/14 31/42/14
f 31/42/14 27/46/14 34/45/14
f 33/44/15 34/47/15 35/48/15
f 35/48/15 36/49/15 33/44/15
f 36/49/16 35/50/16 37/51/16
f 39/52/17 37/53/17 38/54/17
f 37/51/16 39/52/16 36/49/16
f 40/55/5 36/49/5 39/52/5
f 39/52/5 41/56/5 40/55/5
f 39/52/5 42/57/5 41/56/5
f 38/54/18 42/57/18 39/52/18
f 42/57/19 38/58/19 43/59/19
f 43/59/20 41/56/20 42/57/20
f 41/56/21 43/60/21 44/61/21
f 44/61/21 40/55/21 41/56/21
f 40/55/22 44/62/22 45/63/22
f 45/63/22 46/64/22 40/55/22
f 46/64/23 45/65/23 47/66/23
f 47/66/23 32/43/23 46/64/23
f 32/43/24 47/67/24 48/68/24
f 48/68/24 30/41/24 32/43/24
f 30/41/25 48/69/25 49/70/25
f 49/70/25 29/40/25 30/41/25
f 29/40/26 49/71/26 50/72/26
f 52/73/27 50/74/27 51/75/27
f 50/72/26 52/73/26 29/40/26
f 51/75/27 18/25/27 52/73/27
f 23/31/5 52/73/5 18/25/5
f 52/73/5 23/31/5 25/34/5
f 25/34/5 29/40/5 52/73/5
f 18/25/28 51/76/28 20/23/28
f 33/44/5 46/64/5 32/43/5
f 46/64/5 33/44/5 36/49/5
f 36/49/5 40/55/5 46/64/5
f 18/25/5 19/26/5 23/31/5
f 54/77/3 53/78/3 55/79/3
f 56/80/1 55/79/1 53/81/1
f 53/81/1 57/82/1 56/80/1
f 58/83/4 56/80/4 57/84/4
f 57/84/4 59/85/4 58/83/4
f 56/80/5 58/83/5 60/86/5
f 60/86/5 55/79/5 56/80/5
f 55/79/3 60/86/3 54/77/3
f 64/87/29 61/88/29 62/89/29
f 61/88/8 63/90/8 62/89/8
f 65/91/30 63/90/30 61/88/30
f 61/88/30 64/92/30 65/91/30
f 63/90/31 65/93/31 66/94/31
f 66/94/32 67/95/33 63/90/33
f 67/95/34 66/96/34 68/97/34
f 68/97/34 69/98/34 67/95/34
f 69/98/35 68/99/35 70/100/35
f 70/100/35 71/101/35 69/98/35
f 71/101/36 70/102/36 72/103/36
f 74/104/37 72/105/37 73/106/37
f 72/103/36 74/104/36 71/101/36
f 74/104/5 76/107/5 75/108/5
f 75/108/5 71/101/5 74/104/5
f 76/107/5 74/104/5 77/109/5
f 73/106/37 77/109/37 74/104/37
f 77/109/5 78/110/5 76/107/5
f 78/110/5 77/109/5 79/111/5
f 80/112/38 79/111/38 77/109/38
f 77/109/38 73/113/38 80/112/38
f 79/111/39 80/114/39 81/115/39
f 81/115/39 82/116/39 79/111/39
f 82/116/40 81/117/40 83/118/40
f 83/118/40 84/119/40 82/116/40
f 84/119/41 83/120/41 85/121/41
f 85/121/41 87/122/41 84/119/41
f 87/122/42 85/123/42 86/124/42
f 88/125/5 84/119/5 87/122/5
f 87/122/5 89/126/5 88/125/5
f 89/126/5 87/122/5 90/127/5
f 86/124/42 90/127/42 87/122/42
f 90/127/5 91/128/5 89/126/5
f 91/128/5 90/127/5 92/129/5
f 93/130/43 92/129/43 90/127/43
f 90/127/43 86/131/43 93/130/43
f 92/129/44 93/132/44 94/133/44
f 94/133/44 96/134/44 92/129/44
f 96/134/45 94/135/45 95/136/45
f 97/137/5 92/129/5 96/134/5
f 96/134/5 98/138/5 97/137/5
f 98/138/5 96/134/5 99/139/46
f 95/136/45 99/139/45 96/134/45
f 99/139/46 100/140/46 98/138/5
f 100/140/46 99/139/46 101/141/5
f 102/142/47 101/141/47 99/139/47
f 99/139/47 95/143/47 102/142/47
f 101/141/48 102/144/48 103/145/48
f 103/145/48 105/146/48 101/141/48
f 105/146/49 103/147/49 104/148/49
f 106/149/5 101/141/5 105/146/5
f 105/146/5 107/150/5 106/149/5
f 107/150/5 105/146/5 108/151/50
f 104/148/49 108/151/49 105/146/49
f 108/151/50 109/152/5 107/150/5
f 109/152/5 108/151/50 110/153/5
f 111/154/51 110/153/51 108/151/51
f 108/151/51 104/155/51 111/154/51
f 110/153/52 111/156/52 112/157/52
f 114/158/53 112/159/53 113/160/53
f 112/157/54 114/158/54 110/153/54
f 114/158/5 116/161/5 115/162/46
f 115/162/46 110/153/5 114/158/5
f 116/161/5 114/158/5 117/163/5
f 113/160/53 117/163/53 114/158/53
f 117/163/5 118/164/5 116/161/5
f 118/164/5 117/163/5 119/165/55
f 120/166/56 119/165/56 117/163/56
f 117/163/57 113/167/57 120/166/57
f 119/165/58 120/168/58 121/169/58
f 121/169/59 123/170/59 119/165/59
f 123/170/60 121/171/60 122/172/60
f 124/173/61 119/165/55 123/170/62
f 123/170/62 125/174/63 124/173/61
f 123/170/62 126/175/64 125/174/63
f 122/172/65 126/175/65 123/170/66
f 127/176/67 125/174/67 126/175/68
f 126/175/67 122/177/67 127/176/67
f 125/174/69 127/178/69 128/179/69
f 128/179/70 124/173/70 125/174/71
f 124/173/72 128/180/72 129/181/72
f 118/164/73 129/182/73 130/183/73
f 129/181/72 118/164/72 124/173/72
f 130/183/74 116/161/74 118/164/74
f 116/161/75 130/184/75 131/185/75
f 131/185/76 115/162/76 116/161/76
f 115/162/77 131/186/77 132/187/77
f 132/187/78 109/152/78 115/162/78
f 109/152/79 132/188/79 133/189/79
f 107/150/80 133/190/80 134/191/80
f 133/189/81 107/150/81 109/152/81
f 134/191/82 106/149/82 107/150/82
f 106/149/83 134/192/83 135/193/83
f 135/193/84 100/140/84 106/149/84
f 100/140/85 135/194/85 136/195/85
f 136/195/85 98/138/85 100/140/85
f 98/138/86 136/196/86 137/197/86
f 97/137/87 137/198/87 138/199/87
f 137/197/86 97/137/86 98/138/86
f 138/199/87 91/128/87 97/137/87
f 91/128/88 138/200/88 139/201/88
f 139/201/88 89/126/88 91/128/88
f 89/126/89 139/202/89 140/203/89
f 140/203/89 88/125/89 89/126/89
f 88/125/90 140/204/90 141/205/90
f 142/206/91 141/207/91 143/208/91
f 141/205/90 142/206/90 88/125/90
f 143/208/92 144/209/92 142/206/92
f 144/209/93 143/210/93 145/211/93
f 147/212/94 145/213/94 146/214/94
f 145/211/93 147/212/93 144/209/93
f 146/214/95 148/215/95 147/212/95
f 148/215/5 144/209/5 147/212/46
f 144/209/5 148/215/5 149/216/5
f 150/217/96 149/216/96 148/215/96
f 148/215/96 146/218/96 150/217/96
f 149/216/97 150/219/97 151/220/97
f 151/220/97 152/221/97 149/216/97
f 152/221/98 151/222/98 153/223/98
f 153/223/98 154/224/98 152/221/98
f 154/224/99 153/225/99 155/226/99
f 157/227/100 155/228/100 156/229/100
f 155/226/101 157/227/101 154/224/101
f 157/227/46 160/230/46 158/231/5
f 158/231/5 159/232/46 157/227/46
f 154/224/102 157/227/46 159/232/46
f 156/229/103 160/230/103 157/227/103
f 160/230/104 156/233/104 161/234/104
f 161/234/105 158/231/105 160/230/105
f 158/231/106 161/235/106 162/236/106
f 162/236/106 164/237/106 158/231/106
f 164/237/107 162/238/107 163/239/107
f 164/237/5 165/240/5 167/241/5
f 165/240/5 164/237/5 166/242/5
f 163/239/107 166/242/107 164/237/107
f 167/241/5 158/231/5 164/237/5
f 158/231/5 167/241/5 159/232/46
f 167/241/5 152/221/5 159/232/46
f 152/221/5 167/241/5 168/243/5
f 170/244/108 168/243/108 167/241/108
f 167/241/108 169/245/108 170/244/108
f 169/246/109 167/241/109 165/240/109
f 168/243/110 170/247/110 171/248/110
f 171/248/110 172/249/110 168/243/110
f 172/249/111 171/250/111 173/251/111
f 173/251/111 78/110/111 172/249/111
f 78/110/112 173/252/112 174/253/112
f 174/253/112 76/107/112 78/110/112
f 76/107/113 174/254/113 175/255/113
f 175/255/114 75/108/114 76/107/114
f 75/108/115 175/256/115 176/257/115
f 176/257/116 177/258/116 75/108/116
f 177/258/117 176/259/117 178/260/117
f 178/260/117 179/261/117 177/258/117
f 179/261/118 178/262/118 180/263/118
f 180/263/118 182/264/118 179/261/118
f 182/264/119 180/265/119 181/266/119
f 182/264/5 186/267/5 183/268/5
f 184/269/5 182/264/5 183/268/5
f 182/264/5 184/269/5 185/270/5
f 185/270/5 179/261/5 182/264/5
f 182/264/5 187/271/5 186/267/5
f 181/266/119 187/271/119 182/264/119
f 186/267/5 187/271/5 188/272/120
f 189/273/121 188/272/121 187/271/121
f 187/271/121 181/274/121 189/273/121
f 188/272/122 189/275/122 190/276/122
f 190/276/123 192/277/123 188/272/123
f 192/277/124 190/278/124 191/279/124
f 188/272/120 192/277/120 186/267/5
f 193/280/120 186/267/5 192/277/120
f 192/277/120 194/281/46 193/280/120
f 191/279/125 194/281/125 192/277/125
f 195/282/126 193/280/126 194/281/126
f 194/281/127 191/283/127 195/282/127
f 193/280/128 195/284/128 196/285/128
f 196/285/129 183/268/129 193/280/129
f 183/268/130 196/286/130 197/287/130
f 197/287/130 165/240/130 183/268/130
f 165/240/109 197/288/109 169/246/109
f 186/267/5 193/280/120 183/268/5
f 200/289/131 185/270/131 184/269/131
f 199/290/132 198/291/132 185/270/132
f 179/261/5 185/270/5 198/291/5
f 185/270/132 200/292/132 199/290/132
f 184/269/131 201/293/131 200/289/131
f 201/294/133 184/269/133 166/242/133
f 166/242/133 163/295/133 201/294/133
f 198/291/134 199/296/134 202/297/134
f 204/298/135 202/299/135 203/300/135
f 202/297/134 204/298/134 198/291/134
f 203/300/135 62/89/135 204/298/135
f 67/95/5 204/298/5 62/89/5
f 204/298/5 67/95/5 69/98/5
f 69/98/5 198/291/5 204/298/5
f 62/89/136 203/301/136 64/87/29
f 198/291/5 177/258/5 179/261/5
f 198/291/5 69/98/5 177/258/5
f 183/268/5 166/242/5 184/269/5
f 166/242/5 183/268/5 165/240/5
f 71/101/5 75/108/5 177/258/5
f 177/258/5 69/98/5 71/101/5
f 79/111/5 172/249/5 78/110/5
f 172/249/5 79/111/5 82/116/5
f 82/116/5 168/243/5 172/249/5
f 168/243/5 82/116/5 142/206/5
f 168/243/5 149/216/5 152/221/5
f 168/243/5 142/206/5 149/216/5
f 159/232/46 152/221/5 154/224/102
f 149/216/5 142/206/5 144/209/5
f 142/206/5 82/116/5 84/119/5
f 84/119/5 88/125/5 142/206/5
f 119/165/55 124/173/61 118/164/5
f 110/153/5 115/162/46 109/152/5
f 101/141/5 106/149/5 100/140/46
f 92/129/5 97/137/5 91/128/5
f 62/89/5 63/90/5 67/95/5
f 206/302/2 205/303/2 207/304/2
f 208/305/4 207/306/4 205/307/4
f 205/307/4 209/308/4 208/305/4
f 210/309/5 208/305/5 209/308/5
f 209/308/5 211/310/5 210/309/5
f 212/311/137 210/309/137 211/310/137
f 211/310/137 206/302/137 212/311/137
f 207/304/2 212/311/2 206/302/2
