# Blender 4.4.1
# www.blender.org
o Desert_Stone_9
v -0.007147 0.000000 0.006927
v -0.010303 -0.000000 -0.009030
v 0.001163 0.007685 0.007757
v 0.001163 0.000000 0.007757
v 0.006068 0.004603 0.006927
v 0.006401 0.000000 0.009086
v 0.008726 -0.000000 -0.007369
v -0.008310 0.004603 -0.005708
v 0.001163 -0.000000 -0.007369
vn -0.7804 0.5609 0.2762
vn -0.7804 0.5611 0.2761
vn -0.7804 0.5610 0.2762
vn -0.0994 -0.0000 0.9950
vn 0.0042 0.1732 0.9849
vn 0.0043 0.1731 0.9849
vn 0.0042 0.1733 0.9849
vn 0.9810 0.1361 0.1386
vn 0.9810 0.1358 0.1386
vn 0.5015 0.8464 -0.1793
vn 0.2111 0.9100 -0.3568
vn 0.0766 0.4741 -0.8771
vn 0.0766 0.4740 -0.8772
vn -0.7803 0.5611 0.2761
vt 0.027776 0.009901
vt 0.028689 0.008312
vt 0.029485 0.008915
vt 0.029728 0.008375
vt 0.029885 0.009052
vt 0.030309 0.008825
vt 0.029837 0.010623
vt 0.028323 0.009653
vt 0.029059 0.010385
s 1
f 2/1/1 1/2/2 3/3/3
f 4/4/4 3/3/4 1/2/4
f 5/5/5 3/3/6 4/4/5
f 4/4/5 6/6/7 5/5/5
f 7/7/8 5/5/9 6/6/8
f 7/7/10 3/3/10 5/5/10
f 7/7/11 8/8/11 3/3/11
f 8/8/12 7/7/13 9/9/13
f 9/9/13 2/1/12 8/8/12
f 3/3/3 8/8/14 2/1/1
