# Blender 4.4.1
# www.blender.org
o Desert_To_Export.067
v 0.057412 0.286858 -0.057412
v 0.057412 0.286858 0.013351
v -0.047235 0.286858 -0.057412
v -0.054574 0.270522 -0.064750
v 0.064750 0.270574 -0.064750
v 0.064750 0.215144 -0.064750
v 0.064750 0.215144 0.054574
v 0.064750 0.270735 0.024976
v 0.023527 0.286858 0.047236
v 0.035152 0.270735 0.054574
v -0.047235 0.286858 0.047236
v -0.054574 0.270574 0.054574
v -0.054574 0.215144 0.054574
v -0.054574 0.143429 0.054574
v -0.054574 0.215144 -0.064750
v -0.054574 0.143429 -0.064750
v -0.054574 0.019681 -0.064750
v 0.064750 0.143429 -0.064750
v 0.064750 0.019691 -0.064750
v 0.064750 0.019681 0.054574
v -0.046281 -0.000000 -0.056457
v 0.056458 -0.000000 -0.056457
v 0.056458 0.000000 0.046281
v -0.020353 0.000000 0.046281
v -0.028006 0.019650 0.054574
v -0.054574 0.019650 0.028006
v 0.064750 0.143429 0.054574
v -0.046281 -0.000000 0.020353
vn 0.9110 0.4125 -0.0004
vn 0.9109 0.4127 -0.0005
vn -0.0000 1.0000 -0.0000
vn -0.0001 0.4105 -0.9119
vn -0.0001 0.4102 -0.9120
vn -0.0001 0.4103 -0.9120
vn -0.0001 0.4103 -0.9119
vn -0.0000 -0.0000 -1.0000
vn 1.0000 -0.0000 -0.0000
vn 0.5437 0.6394 0.5437
vn 0.6618 0.3523 0.6618
vn -0.0000 -0.0000 1.0000
vn -0.0004 0.4125 0.9110
vn -0.0004 0.4125 0.9109
vn -0.0004 0.4124 0.9110
vn -1.0000 -0.0000 -0.0000
vn 0.9216 -0.3881 -0.0000
vn -0.0000 -0.3883 -0.9215
vn -0.0000 -0.3881 -0.9216
vn 0.9216 -0.3883 -0.0000
vn 0.0001 -0.3884 0.9215
vn -0.0000 -0.3888 0.9213
vn -0.6133 -0.4977 0.6133
vn -0.6991 -0.1501 0.6991
vn -0.9213 -0.3887 -0.0001
vn -0.9215 -0.3883 -0.0000
vn -0.9119 0.4104 -0.0001
vn -0.9119 0.4103 -0.0001
vt 0.197932 0.042376
vt 0.194640 0.041545
vt 0.198471 0.035883
vt 0.190790 0.034173
vt 0.189364 0.033789
vt 0.191670 0.041861
vt 0.200269 0.035166
vt 0.183160 0.039431
vt 0.203439 0.030133
vt 0.207529 0.040451
vt 0.198126 0.033516
vt 0.199508 0.032717
vt 0.194693 0.025556
vt 0.194618 0.030399
vt 0.194462 0.028976
vt 0.195010 0.020774
vt 0.183445 0.024247
vt 0.186080 0.030231
vt 0.175335 0.032216
vt 0.169714 0.017511
vt 0.182211 0.012920
vt 0.218786 0.015153
vt 0.219245 0.017786
vt 0.208366 0.013530
vt 0.214711 0.032557
vt 0.181928 0.010822
vt 0.170359 0.014905
vt 0.208649 0.011451
vt 0.197658 0.010358
vt 0.198442 0.008421
vt 0.192957 0.010189
vt 0.206098 0.024800
vt 0.192344 0.008313
s 1
f 5/1/1 1/2/1 2/3/2
f 2/3/3 1/2/3 3/4/3
f 4/5/4 3/4/5 1/2/6
f 1/2/6 5/6/7 4/5/4
f 2/3/2 8/7/1 5/1/1
f 4/5/8 5/6/8 6/8/8
f 7/9/9 6/10/9 5/1/9
f 5/1/9 8/7/9 7/9/9
f 9/11/10 10/12/10 8/7/10
f 8/7/10 2/3/10 9/11/10
f 8/7/11 10/12/11 7/9/11
f 13/13/12 7/9/12 10/12/12
f 10/12/13 9/11/13 11/14/14
f 11/14/14 12/15/15 10/12/13
f 10/12/12 12/15/12 13/13/12
f 7/9/12 13/13/12 14/16/12
f 16/17/16 14/16/16 13/13/16
f 13/13/16 15/18/16 16/17/16
f 15/18/16 13/13/16 12/15/16
f 18/19/8 16/17/8 15/18/8
f 19/20/8 17/21/8 16/17/8
f 14/16/16 16/17/16 17/21/16
f 16/17/8 18/19/8 19/20/8
f 22/22/17 19/23/17 20/24/17
f 20/24/9 19/23/9 18/25/9
f 21/26/18 17/21/18 19/20/18
f 19/20/19 22/27/19 21/26/19
f 20/24/20 23/28/20 22/22/20
f 23/28/21 20/24/21 25/29/21
f 25/29/22 24/30/22 23/28/22
f 24/30/23 25/29/23 26/31/23
f 26/31/24 25/29/24 14/16/24
f 27/32/12 14/16/12 25/29/12
f 25/29/12 20/24/12 27/32/12
f 6/10/9 7/9/9 27/32/9
f 14/16/12 27/32/12 7/9/12
f 18/25/9 27/32/9 20/24/9
f 27/32/9 18/25/9 6/10/9
f 17/21/16 26/31/16 14/16/16
f 28/33/25 26/31/25 17/21/25
f 26/31/23 28/33/23 24/30/23
f 17/21/26 21/26/26 28/33/26
f 15/18/8 6/8/8 18/19/8
f 6/8/8 15/18/8 4/5/8
f 12/15/16 4/5/16 15/18/16
f 3/4/27 4/5/27 12/15/28
f 12/15/28 11/14/27 3/4/27
f 9/11/3 3/4/3 11/14/3
f 3/4/3 9/11/3 2/3/3
