# Blender 4.4.1
# www.blender.org
o Desert_Stone_6
v -0.053728 0.109238 -0.050554
v -0.023042 0.034072 0.002979
v -0.050282 -0.000000 -0.017280
v -0.006353 -0.000000 -0.057896
v -0.012709 0.077691 -0.080382
v -0.014228 0.074004 -0.038014
v 0.012046 0.052697 -0.011464
v 0.014822 0.071506 -0.046520
v 0.027496 0.031942 -0.058397
v 0.048524 0.079806 -0.035195
v 0.055135 0.051321 -0.007575
v 0.067995 0.068322 -0.017803
v 0.066754 -0.000000 -0.023233
v 0.063483 0.034492 -0.007795
v 0.034999 0.000000 0.034338
v 0.032563 0.031364 0.027745
v 0.000431 0.000000 0.038421
v -0.045549 0.000000 0.025649
vn 0.3458 0.6339 0.6918
vn -0.7867 0.3125 0.5324
vn -0.7867 0.3124 0.5325
vn -0.7867 0.3126 0.5323
vn -0.6711 -0.2440 -0.7000
vn 0.6471 0.7572 0.0891
vn 0.2125 0.8539 0.4750
vn -0.1031 0.7235 0.6826
vn 0.1115 0.9897 0.0901
vn 0.7458 0.3990 -0.5335
vn 0.2216 0.3448 -0.9121
vn -0.3479 0.8373 0.4217
vn 0.6881 0.0487 -0.7240
vn -0.0292 0.7957 0.6050
vn -0.0292 0.7956 0.6051
vn -0.2688 0.6376 0.7219
vn 0.8910 0.0199 -0.4535
vn 0.8909 0.0199 -0.4537
vn 0.3880 -0.4240 -0.8183
vn 0.8909 0.0198 -0.4537
vn 0.8680 -0.1320 0.4788
vn 0.7316 0.1942 0.6535
vn 0.1146 0.2129 0.9703
vn -0.1381 0.6667 0.7324
vn -0.4500 0.6642 0.5969
vn -0.1380 0.6667 0.7325
vn 0.6955 0.3367 0.6347
vn -0.0292 0.7957 0.6049
vn 0.4314 0.2025 0.8791
vn 0.2256 -0.2538 -0.9406
vt 0.734408 0.365838
vt 0.731627 0.362962
vt 0.736208 0.364218
vt 0.729617 0.370167
vt 0.739362 0.373371
vt 0.737995 0.368391
vt 0.738976 0.364913
vt 0.736265 0.361425
vt 0.741680 0.367783
vt 0.740912 0.363503
vt 0.748103 0.362466
vt 0.741078 0.360732
vt 0.741055 0.362541
vt 0.743375 0.360855
vt 0.739241 0.353919
vt 0.738196 0.357282
vt 0.732128 0.355490
vt 0.726953 0.362652
s 1
f 1/1/1 2/2/1 6/3/1
f 2/2/2 1/1/3 3/4/4
f 4/5/5 3/4/5 1/1/5
f 1/1/5 5/6/5 4/5/5
f 6/3/6 5/6/6 1/1/6
f 8/7/7 6/3/7 7/8/7
f 2/2/8 7/8/8 6/3/8
f 8/7/9 5/6/9 6/3/9
f 9/9/10 5/6/10 8/7/10
f 8/7/11 10/10/11 9/9/11
f 8/7/12 7/8/12 10/10/12
f 10/10/13 13/11/13 9/9/13
f 11/12/14 10/10/15 7/8/14
f 11/12/16 12/13/16 10/10/16
f 13/11/17 10/10/18 12/13/18
f 9/9/19 13/11/19 4/5/19
f 12/13/18 14/14/20 13/11/17
f 14/14/21 15/15/21 13/11/21
f 16/16/22 15/15/22 14/14/22
f 16/16/23 17/17/23 15/15/23
f 18/18/24 17/17/24 7/8/24
f 16/16/25 7/8/25 17/17/25
f 3/4/4 18/18/2 2/2/2
f 7/8/24 2/2/26 18/18/24
f 11/12/27 16/16/27 14/14/27
f 7/8/14 16/16/28 11/12/14
f 12/13/29 11/12/29 14/14/29
f 9/9/30 4/5/30 5/6/30
