# Blender 4.4.1
# www.blender.org
o Desert_Stone_2
v -0.053001 -0.001079 -0.036475
v -0.000571 -0.008294 -0.045403
v -0.045417 0.063195 -0.042940
v -0.050613 0.067211 -0.017348
v -0.048692 -0.001562 -0.016656
v -0.039085 0.005157 0.047710
v 0.001519 0.031794 0.076039
v 0.004519 0.063627 0.055464
v -0.035116 0.055674 0.045554
v 0.001519 -0.000285 0.056580
v 0.050137 0.054446 0.035600
v 0.042124 0.005157 0.047710
v 0.051730 -0.001562 -0.016656
v 0.059247 0.088842 -0.032215
v 0.045268 0.069260 -0.064587
v 0.001519 0.070954 -0.048400
v 0.045973 0.002466 -0.036809
vn -0.1428 -0.0555 -0.9882
vn -0.9989 0.0413 -0.0228
vn -0.9989 0.0413 -0.0226
vn -0.9807 0.0215 0.1943
vn -0.2483 -0.5024 0.8282
vn -0.5064 0.2690 0.8193
vn -0.5064 0.2691 0.8192
vn -0.5063 0.2689 0.8193
vn 0.5101 -0.1271 0.8507
vn 0.9888 -0.0857 0.1221
vn -0.1393 0.8728 -0.4678
vn 0.9403 -0.1277 -0.3155
vn 0.3633 0.8103 0.4598
vn -0.1847 0.9648 0.1874
vn -0.1847 0.9647 0.1874
vn -0.2085 0.9492 -0.2356
vn -0.2085 0.9492 -0.2357
vn -0.0614 -0.2052 -0.9768
vn -0.0614 -0.2051 -0.9768
vn -0.0615 -0.2052 -0.9768
vn -0.0616 -0.2053 -0.9768
vn 0.4306 0.4609 0.7759
vt 0.973424 0.213690
vt 0.965526 0.208801
vt 0.969609 0.206743
vt 0.969114 0.204345
vt 0.963517 0.205611
vt 0.967752 0.195012
vt 0.975297 0.192300
vt 0.975085 0.194695
vt 0.974760 0.197626
vt 0.970499 0.198039
vt 0.979638 0.199852
vt 0.982208 0.196270
vt 0.984351 0.208345
vt 0.977966 0.204583
vt 0.977111 0.206837
vt 0.973834 0.207227
vt 0.981348 0.210310
s 1
f 2/1/1 1/2/1 3/3/1
f 4/4/2 3/3/2 1/2/3
f 1/2/3 5/5/3 4/4/2
f 4/4/4 5/5/4 6/6/4
f 10/7/5 7/8/5 6/6/5
f 6/6/6 7/8/7 8/9/6
f 8/9/6 9/10/8 6/6/6
f 6/6/4 9/10/4 4/4/4
f 11/11/9 7/8/9 10/7/9
f 10/7/9 12/12/9 11/11/9
f 12/12/10 13/13/10 14/14/10
f 14/14/10 11/11/10 12/12/10
f 15/15/11 16/16/11 14/14/11
f 15/15/12 14/14/12 13/13/12
f 14/14/13 8/9/13 11/11/13
f 8/9/14 14/14/14 4/4/15
f 3/3/16 4/4/16 14/14/16
f 14/14/16 16/16/17 3/3/16
f 3/3/1 16/16/1 2/1/1
f 17/17/18 2/1/19 16/16/20
f 16/16/20 15/15/21 17/17/18
f 13/13/12 17/17/12 15/15/12
f 11/11/22 8/9/22 7/8/22
f 4/4/15 9/10/14 8/9/14
