# Blender 4.4.1
# www.blender.org
o Desert_To_Export.083
v -0.063045 0.075907 0.061720
v -0.097414 0.000000 0.055630
v -0.062674 0.169931 -0.068149
v -0.071033 0.024634 0.098422
v 0.009514 0.150330 0.061241
v -0.027410 0.093445 0.096196
v 0.089325 0.044460 0.096728
v -0.058886 0.000000 0.094123
v 0.108850 0.000000 0.076312
v 0.077101 -0.000000 -0.059137
v 0.115863 0.016127 0.069135
v 0.120083 0.037932 -0.044538
v 0.060454 0.164075 -0.055227
v 0.084438 0.051395 -0.086542
v -0.067705 0.062959 -0.094569
v -0.027414 0.157564 -0.082867
v 0.036161 -0.000000 -0.095215
v -0.065809 -0.000000 -0.071711
v 0.068908 0.164319 -0.017492
vn -0.8711 0.3683 0.3250
vn -0.8847 0.3788 0.2717
vn -0.6378 0.6247 0.4505
vn -0.7216 0.4738 0.5048
vn -0.6675 0.6531 0.3577
vn 0.1799 -0.0823 0.9802
vn -0.0121 -0.0181 0.9998
vn 0.1763 0.4297 0.8856
vn -0.6392 -0.4268 0.6398
vn 0.0977 -0.3796 0.9200
vn 0.6832 -0.7125 -0.1601
vn 0.7190 -0.0034 0.6950
vn 0.9084 -0.4155 -0.0460
vn 0.6110 -0.4386 -0.6590
vn 0.8941 0.4325 0.1162
vn 0.7708 0.3176 -0.5523
vn 0.0601 0.1022 -0.9930
vn 0.0601 0.1021 -0.9930
vn 0.0601 0.1020 -0.9930
vn 0.2643 0.3101 -0.9132
vn 0.5927 -0.4432 -0.6725
vn -0.2113 -0.3392 -0.9167
vn -0.9640 -0.1159 -0.2393
vn -0.3003 0.2420 -0.9227
vn -0.0773 0.9969 0.0109
vn -0.1247 0.9888 0.0816
vn 0.3181 0.9474 -0.0340
vn 0.8276 0.4546 0.3291
vn 0.9600 0.1778 -0.2162
vn 0.5737 0.6142 0.5419
vn -0.9836 0.0855 -0.1587
vt 0.957125 0.225333
vt 0.947746 0.225109
vt 0.955549 0.218944
vt 0.961653 0.236914
vt 0.966104 0.226767
vt 0.962476 0.222571
vt 0.955647 0.214917
vt 0.977296 0.219868
vt 0.984381 0.218680
vt 0.981649 0.236324
vt 0.984716 0.242743
vt 0.982800 0.221032
vt 0.978644 0.242065
vt 0.972038 0.235186
vt 0.974910 0.248738
vt 0.960035 0.243726
vt 0.964954 0.238438
vt 0.956426 0.246162
vt 0.971710 0.232172
s 1
f 1/1/1 2/2/1 4/3/1
f 1/1/2 3/4/2 2/2/2
f 3/4/3 1/1/3 5/5/3
f 4/3/4 6/6/4 1/1/4
f 5/5/5 1/1/5 6/6/5
f 8/7/6 6/6/6 4/3/6
f 7/8/7 6/6/7 8/7/7
f 7/8/8 5/5/8 6/6/8
f 2/2/9 8/7/9 4/3/9
f 7/8/10 8/7/10 9/9/10
f 12/10/11 9/9/11 10/11/11
f 11/12/12 7/8/12 9/9/12
f 9/9/13 12/10/13 11/12/13
f 14/13/14 12/10/14 10/11/14
f 13/14/15 11/12/15 12/10/15
f 14/13/16 13/14/16 12/10/16
f 14/13/17 17/15/18 15/16/19
f 15/16/19 16/17/18 14/13/17
f 16/17/20 13/14/20 14/13/20
f 17/15/21 14/13/21 10/11/21
f 15/16/22 17/15/22 18/18/22
f 2/2/23 15/16/23 18/18/23
f 15/16/24 3/4/24 16/17/24
f 16/17/25 19/19/25 13/14/25
f 19/19/26 16/17/26 5/5/26
f 3/4/27 5/5/27 16/17/27
f 19/19/28 7/8/28 11/12/28
f 13/14/29 19/19/29 11/12/29
f 19/19/30 5/5/30 7/8/30
f 3/4/31 15/16/31 2/2/31
