# Blender 4.4.1
# www.blender.org
o Desert_Stone_5
v -0.041653 -0.000000 -0.034934
v -0.022640 -0.000000 -0.041132
v -0.042758 0.042018 -0.044135
v -0.041204 0.000000 0.018553
v -0.049055 0.041864 -0.020811
v -0.030187 0.051765 0.040301
v -0.042883 0.074760 -0.016891
v -0.010252 0.068208 0.042727
v -0.005737 0.081553 -0.006560
v 0.038103 0.051951 -0.052928
v 0.003143 -0.000000 -0.043474
v 0.046576 -0.000000 -0.034932
v 0.054533 0.045814 -0.012562
v 0.048539 0.065169 0.018014
v 0.020364 0.080483 0.027383
v 0.057237 -0.000000 -0.007707
v 0.044212 0.000000 0.043297
v 0.042943 0.049459 0.044053
v -0.014546 0.000000 0.056157
v -0.031127 0.000000 0.044172
v -0.008883 0.057387 0.051982
vn -0.1849 -0.1579 -0.9700
vn -0.1850 -0.1579 -0.9700
vn -0.9620 -0.0823 -0.2603
vn -0.9842 -0.1768 0.0083
vn -0.9546 0.1099 0.2769
vn -0.9546 0.1098 0.2769
vn -0.9448 0.2075 -0.2537
vn -0.6099 0.6791 0.4084
vn -0.2374 0.9429 0.2336
vn -0.0035 0.8413 -0.5405
vn -0.1601 0.6310 -0.7591
vn -0.0931 -0.1173 -0.9887
vn 0.1844 -0.2947 -0.9376
vn 0.9271 0.0216 -0.3741
vn 0.5032 0.8610 -0.0739
vn 0.9310 0.0163 -0.3646
vn 0.9864 0.0738 0.1467
vn 0.2965 0.8322 -0.4686
vn 0.4579 0.8270 -0.3261
vn 0.9684 0.0316 0.2473
vn 0.9747 0.0216 0.2225
vn 0.1863 0.0238 0.9822
vn -0.5819 0.1160 0.8050
vn -0.4944 0.0737 0.8661
vn 0.2090 0.5766 0.7899
vn -0.5121 0.5200 0.6837
vn 0.1127 0.6540 0.7480
vn -0.9297 0.0442 0.3657
vn 0.5350 0.6676 0.5178
vn -0.2607 0.9376 0.2300
vt 0.792426 0.375941
vt 0.790037 0.373226
vt 0.793172 0.372517
vt 0.792314 0.370041
vt 0.790307 0.363935
vt 0.795676 0.364799
vt 0.794917 0.369778
vt 0.797929 0.365487
vt 0.798090 0.369579
vt 0.800193 0.374726
vt 0.795949 0.378487
vt 0.803827 0.377118
vt 0.803457 0.372039
vt 0.807169 0.372809
vt 0.803072 0.368616
vt 0.800540 0.367528
vt 0.806318 0.363974
vt 0.802986 0.365763
vt 0.797417 0.359624
vt 0.794065 0.360718
vt 0.798093 0.364419
s 1
f 2/1/1 1/2/2 3/3/1
f 5/4/3 3/3/3 1/2/3
f 4/5/4 5/4/4 1/2/4
f 6/6/5 7/7/6 5/4/6
f 5/4/6 4/5/6 6/6/5
f 5/4/7 7/7/7 3/3/7
f 8/8/8 7/7/8 6/6/8
f 9/9/9 7/7/9 8/8/9
f 9/9/10 10/10/10 7/7/10
f 7/7/11 10/10/11 3/3/11
f 11/11/12 3/3/12 10/10/12
f 11/11/13 10/10/13 12/12/13
f 12/12/14 10/10/14 13/13/14
f 10/10/15 9/9/15 13/13/15
f 13/13/16 16/14/16 12/12/16
f 16/14/17 13/13/17 14/15/17
f 13/13/18 15/16/18 14/15/18
f 15/16/19 13/13/19 9/9/19
f 14/15/20 17/17/20 16/14/20
f 14/15/21 18/18/21 17/17/21
f 19/19/22 17/17/22 18/18/22
f 20/20/23 19/19/23 21/21/23
f 18/18/22 21/21/22 19/19/22
f 21/21/24 6/6/24 20/20/24
f 15/16/25 21/21/25 18/18/25
f 21/21/26 8/8/26 6/6/26
f 15/16/27 8/8/27 21/21/27
f 4/5/28 20/20/28 6/6/28
f 18/18/29 14/15/29 15/16/29
f 15/16/30 9/9/30 8/8/30
f 3/3/1 11/11/1 2/1/1
