# Blender 4.4.1
# www.blender.org
o Desert_Stone_3
v -0.050102 -0.007028 -0.036252
v 0.002650 -0.004887 -0.045915
v -0.054477 0.032998 -0.024761
v -0.058110 0.058319 -0.009780
v -0.066994 0.003468 -0.017582
v -0.035888 -0.007796 0.048110
v -0.001430 0.024312 0.074239
v -0.001564 0.053055 0.053278
v -0.039917 0.042650 0.051485
v 0.005214 -0.007697 0.056332
v 0.037266 0.054523 0.034864
v 0.044307 0.004999 0.048110
v 0.033433 0.053290 -0.021012
v 0.053738 0.006860 -0.016605
v 0.033803 0.027839 -0.046807
v 0.047075 0.012080 -0.036197
v -0.032922 0.039134 -0.035603
vn -0.2762 0.1162 -0.9540
vn -0.2762 0.1163 -0.9540
vn -0.7541 0.1651 -0.6356
vn -0.7540 0.1651 -0.6357
vn -0.7541 0.1651 -0.6357
vn -0.7540 0.1651 -0.6358
vn -0.9318 0.0046 0.3629
vn -0.9318 0.0046 0.3628
vn -0.9319 0.0044 0.3627
vn -0.1678 -0.5076 0.8451
vn -0.4390 0.1727 0.8817
vn 0.5071 0.0359 0.8611
vn 0.5072 0.0359 0.8611
vn 0.9584 0.2816 0.0460
vn 0.9585 0.2815 0.0460
vn 0.9584 0.2817 0.0460
vn 0.8683 0.3970 -0.2974
vn 0.8683 0.3971 -0.2973
vn -0.0126 -0.0153 -0.9998
vn -0.0125 -0.0152 -0.9998
vn -0.0126 -0.0154 -0.9998
vn -0.0126 -0.0152 -0.9998
vn -0.1387 0.7254 -0.6742
vn -0.1387 0.7253 -0.6743
vn -0.2763 0.1161 -0.9540
vn 0.0026 0.7119 -0.7023
vn -0.0329 0.9931 0.1124
vn -0.0328 0.9931 0.1124
vn -0.0467 0.9987 -0.0188
vn 0.3391 0.5553 0.7593
vn -0.0330 0.9931 0.1124
vt 0.484588 0.381658
vt 0.477017 0.380594
vt 0.478136 0.376823
vt 0.478991 0.375018
vt 0.474618 0.377108
vt 0.475453 0.366916
vt 0.478620 0.369613
vt 0.481038 0.363659
vt 0.481331 0.366257
vt 0.482152 0.369040
vt 0.485779 0.369515
vt 0.487276 0.365268
vt 0.486568 0.374539
vt 0.491470 0.374091
vt 0.487334 0.377392
vt 0.489684 0.376790
vt 0.480641 0.377565
s 1
f 2/1/1 1/2/2 3/3/1
f 4/4/3 3/3/4 1/2/5
f 1/2/5 5/5/6 4/4/3
f 4/4/7 5/5/8 6/6/7
f 6/6/9 9/7/9 4/4/9
f 10/8/10 7/9/10 6/6/10
f 6/6/11 7/9/11 8/10/11
f 8/10/11 9/7/11 6/6/11
f 11/11/12 7/9/13 10/8/12
f 10/8/12 12/12/12 11/11/12
f 13/13/14 11/11/15 12/12/14
f 12/12/14 14/14/16 13/13/14
f 15/15/17 13/13/17 14/14/17
f 14/14/17 16/16/18 15/15/17
f 17/17/19 15/15/20 16/16/21
f 16/16/21 2/1/22 17/17/19
f 13/13/23 17/17/24 3/3/23
f 3/3/1 17/17/25 2/1/1
f 15/15/26 17/17/26 13/13/26
f 3/3/23 4/4/24 13/13/23
f 8/10/27 13/13/28 4/4/27
f 13/13/29 8/10/29 11/11/29
f 11/11/30 8/10/30 7/9/30
f 4/4/27 9/7/31 8/10/27
