# Blender 4.4.1
# www.blender.org
o Desert_Stone_7
v 0.015971 0.005397 0.009865
v 0.022148 0.000000 0.015992
v -0.012311 0.000000 0.015992
v 0.022148 -0.000000 -0.022147
v -0.019826 0.008815 0.010870
v 0.022148 0.003041 -0.022147
v -0.010061 0.009761 0.016216
v -0.015992 0.000000 0.012312
v -0.015992 -0.000000 -0.022147
v -0.013847 0.004176 -0.018628
vn 0.6580 0.7530 -0.0000
vn -0.0000 0.7504 0.6610
vn 0.2246 -0.0741 0.9716
vn 0.9819 -0.0000 0.1895
vn 0.0617 0.9837 -0.1689
vn 0.0814 0.9453 -0.3159
vn 0.0924 0.9922 -0.0839
vn 0.0591 0.9934 -0.0986
vn -0.5584 0.0076 0.8295
vn -0.4746 -0.0628 0.8780
vn -0.5908 0.0366 0.8060
vn -0.6995 0.1452 0.6997
vn -0.8895 0.4568 -0.0000
vn -0.9034 -0.4122 -0.1183
vn -0.0000 0.6444 -0.7647
vn -0.0973 -0.0000 -0.9953
vn 0.0163 0.9882 -0.1521
vt 0.147786 0.012791
vt 0.147253 0.009386
vt 0.148078 0.008721
vt 0.144100 0.008311
vt 0.144696 0.009031
vt 0.147580 0.012574
vt 0.144078 0.009509
vt 0.143429 0.008886
vt 0.144117 0.012223
vt 0.143759 0.012720
s 1
f 4/1/1 1/2/1 2/3/1
f 1/2/2 3/4/2 2/3/2
f 1/2/3 7/5/3 3/4/3
f 4/1/4 6/6/4 1/2/4
f 5/7/5 7/5/6 1/2/7
f 5/7/5 1/2/7 6/6/8
f 7/5/9 5/7/10 8/8/11
f 7/5/9 8/8/11 3/4/12
f 8/8/13 10/9/13 9/10/13
f 8/8/14 5/7/14 10/9/14
f 10/9/15 4/1/15 9/10/15
f 10/9/16 6/6/16 4/1/16
f 5/7/5 6/6/8 10/9/17
