# Blender 4.4.1
# www.blender.org
o House_1
v -0.549704 0.814317 0.236052
v -0.496848 0.902498 0.236052
v -0.366478 0.916344 0.236052
v -0.527757 0.409803 0.167603
v -0.532727 0.394478 0.224265
v -0.549704 0.916334 0.131017
v -0.549704 0.903596 0.204954
v -0.352758 0.409803 0.217762
v -0.177750 0.409803 0.217762
v -0.183235 0.000000 0.236052
v -0.366469 0.000000 0.236052
v -0.549704 0.000000 0.236052
v -0.549704 -0.000000 -0.680121
v 0.347054 0.409803 -0.660853
v -0.527757 0.409803 -0.657255
v 0.366469 -0.000000 -0.680121
v 0.347260 0.409803 -0.186364
v 0.366469 -0.000000 -0.187081
v 0.366469 0.000000 0.131008
v 0.366469 0.000000 0.236052
v 0.347260 0.409803 0.117436
v 0.359072 0.395888 0.220553
v 0.366469 0.814306 0.236052
v 0.172256 0.409803 0.217762
v 0.183234 0.638769 0.236052
v 0.183234 0.814306 0.236052
v 0.000000 0.638769 0.175211
v 0.183211 0.638769 0.236052
v 0.183234 0.638769 0.175211
v 0.183234 0.814306 0.175211
v 0.000000 0.814306 0.175211
v 0.000000 0.814306 0.236052
v 0.000000 0.916342 0.236052
v -0.183235 0.916344 0.236052
v 0.000000 0.814283 0.236052
v 0.000000 0.518132 0.236052
v 0.000000 0.638769 0.212097
v -0.002747 0.409803 0.217762
v 0.183234 0.000000 0.236052
v 0.000000 0.000000 0.236052
v -0.371774 0.966420 0.242320
v -0.183640 0.966420 0.242292
v -0.089584 0.966420 0.199819
v 0.004453 0.966420 0.242204
v -0.517394 0.966420 0.199827
v -0.517385 0.966420 0.154935
v -0.486041 0.826186 0.172389
v -0.512454 0.966420 0.243842
v -0.565227 0.966420 0.215388
v -0.554410 0.950092 0.246987
v -0.560751 0.966420 0.154943
v -0.560776 0.966420 -0.699173
v 0.383265 0.941679 -0.700831
v -0.549704 0.916329 -0.680121
v -0.517385 0.966420 -0.655781
v 0.338214 0.966420 -0.655781
v 0.302806 0.826186 -0.616457
v -0.486041 0.826186 -0.616457
v -0.091618 0.826186 -0.616457
v -0.091618 0.826186 0.172389
v 0.338214 0.966420 0.199819
v 0.167096 0.966420 0.199819
v 0.302806 0.826186 0.172389
v 0.302806 0.826186 0.131008
v 0.314478 0.975127 0.154935
v 0.302806 0.826186 -0.187081
v 0.366469 0.814306 -0.187081
v 0.366469 0.814306 0.131008
v 0.349080 0.904630 0.131008
v 0.380214 0.966420 0.241817
v 0.366469 0.916330 0.236052
v 0.362823 0.959757 0.154935
v 0.183234 0.916336 0.236052
v 0.192433 0.966420 0.242050
v 0.418567 0.955678 -0.193074
v 0.366037 0.866879 -0.687655
v 0.350170 0.966420 -0.190070
vn -0.5065 -0.0867 0.8579
vn -0.5065 -0.0865 0.8579
vn -0.5065 -0.0866 0.8579
vn 0.0223 -0.0251 0.9994
vn 0.0118 -0.0765 0.9970
vn -0.0000 -0.0000 1.0000
vn 0.0111 0.0025 0.9999
vn -0.9980 -0.0363 -0.0519
vn -0.9993 -0.0346 -0.0153
vn -0.9995 -0.0014 -0.0328
vn -0.9975 0.0054 -0.0706
vn 0.0219 0.0044 0.9998
vn -1.0000 -0.0000 -0.0000
vn -0.0167 -0.0017 0.9999
vn -0.0000 0.0446 0.9990
vn 0.0083 0.0406 0.9991
vn 0.0163 0.0367 0.9992
vn -0.9986 0.0524 -0.0067
vn -0.9986 0.0535 -0.0000
vn -0.0048 -0.0000 -1.0000
vn -0.0020 0.0513 -0.9987
vn -0.0048 0.0001 -1.0000
vn -1.0000 0.0053 -0.0000
vn 0.9989 0.0473 -0.0004
vn 1.0000 0.0014 -0.0018
vn 1.0000 0.0004 -0.0007
vn 0.9989 0.0468 -0.0000
vn 0.9989 0.0388 -0.0279
vn 0.9984 0.0030 -0.0564
vn 0.9980 0.0310 -0.0546
vn 0.9996 -0.0013 -0.0278
vn 0.9969 0.0305 -0.0732
vn 0.0042 -0.0032 1.0000
vn 0.0039 -0.0133 0.9999
vn 0.0197 -0.0619 0.9979
vn 0.0120 -0.0204 0.9997
vn -0.0060 0.0418 0.9991
vn -0.0000 1.0000 0.0003
vn -0.0000 1.0000 -0.0000
vn -0.0000 1.0000 0.0001
vn 0.0403 -0.0780 0.9961
vn -0.0000 -1.0000 -0.0000
vn 0.0012 -0.0691 0.9976
vn -0.0001 -0.0000 1.0000
vn 0.0363 0.0379 0.9986
vn 1.0000 -0.0000 -0.0000
vn -0.0030 -0.0504 0.9987
vn 0.0549 0.0573 0.9968
vn -0.0078 -0.0198 0.9998
vn -0.0030 0.0432 0.9991
vn 0.0147 -0.1198 0.9927
vn 0.0001 -0.1235 0.9923
vn 0.0002 -0.1221 0.9925
vn -0.0370 0.9970 0.0686
vn 0.0003 -0.1217 0.9926
vn -0.0725 0.9883 0.1345
vn 0.9759 0.2181 0.0001
vn 0.9759 0.2181 0.0002
vn 0.9759 0.2181 -0.0000
vn -0.0000 0.1920 -0.9814
vn -0.0611 0.9917 0.1133
vn -0.9741 -0.2261 0.0004
vn -0.9741 -0.2261 0.0005
vn -0.1265 0.9638 0.2346
vn -0.9756 -0.2197 0.0002
vn -0.9750 -0.2223 0.0003
vn -0.9764 -0.2158 -0.0000
vn 0.0066 0.9907 -0.1359
vn -0.0116 -0.1616 -0.9868
vn -0.0147 -0.2492 -0.9683
vn -0.0147 -0.2492 -0.9684
vn 0.1581 0.9765 -0.1466
vn 0.0066 0.9907 -0.1357
vn 0.1523 0.9766 -0.1517
vn -0.0000 0.2700 0.9629
vn -1.0000 -0.0001 -0.0000
vn 1.0000 0.0001 -0.0000
vn 0.0614 0.9981 -0.0000
vn -0.1030 0.1544 -0.9826
vn -0.1030 0.1546 -0.9826
vn -0.1030 0.1545 -0.9826
vn -0.9558 0.1070 0.2739
vn -0.9558 0.1070 0.2737
vn 0.0001 -0.0000 -1.0000
vn 0.1834 0.9830 -0.0000
vn 0.0615 0.9981 -0.0000
vn -0.1029 0.1544 -0.9826
vn 0.9657 -0.2085 -0.1550
vn 0.9988 0.0042 -0.0491
vn 0.9921 0.0898 -0.0872
vn 0.9922 0.0897 -0.0871
vn -0.1029 0.1546 -0.9826
vn 0.1020 0.9945 -0.0235
vn 0.0807 0.9966 -0.0186
vn 0.1870 0.9814 -0.0432
vn 0.1871 0.9814 -0.0432
vn 0.0006 -0.1168 0.9932
vn 0.0005 -0.1186 0.9929
vn 0.0005 -0.1189 0.9929
vn 0.9917 -0.1274 -0.0151
vn 0.0266 0.0225 0.9994
vn 0.9501 -0.3087 -0.0455
vn 0.9802 -0.1960 -0.0273
vn -0.0114 -0.1558 -0.9877
vn 0.2876 0.9573 -0.0277
vn -0.9585 0.2848 0.0128
vn -0.9991 -0.0433 -0.0000
vn 0.0274 -0.1161 0.9929
vt 0.794006 0.587186
vt 0.795260 0.597518
vt 0.789706 0.589200
vt 0.273909 0.534657
vt 0.294554 0.540222
vt 0.281973 0.541892
vt 0.288242 0.492665
vt 0.263150 0.543471
vt 0.265614 0.494462
vt 0.270938 0.492411
vt 0.268850 0.543642
vt 0.305080 0.489641
vt 0.297322 0.451825
vt 0.282447 0.453515
vt 0.267203 0.454407
vt 0.184616 0.456651
vt 0.100718 0.491214
vt 0.101145 0.453519
vt 0.186228 0.496191
vt 0.393117 0.390831
vt 0.407941 0.421601
vt 0.380242 0.452667
vt 0.358171 0.420910
vt 0.342317 0.437887
vt 0.353108 0.476680
vt 0.336285 0.440952
vt 0.362472 0.474419
vt 0.376075 0.514632
vt 0.348116 0.503208
vt 0.337256 0.483438
vt 0.353957 0.520454
vt 0.345877 0.506516
vt 0.330274 0.510134
vt 0.348113 0.503207
vt 0.349540 0.518841
vt 0.333703 0.522366
vt 0.331450 0.526403
vt 0.313455 0.537855
vt 0.333448 0.535661
vt 0.331449 0.526400
vt 0.327511 0.508735
vt 0.324717 0.497409
vt 0.321395 0.487077
vt 0.325017 0.446171
vt 0.311880 0.449579
vt 0.781030 0.591247
vt 0.784639 0.595171
vt 0.777258 0.605287
vt 0.773004 0.601737
vt 0.772977 0.601730
vt 0.772926 0.601717
vt 0.772907 0.601712
vt 0.765375 0.595114
vt 0.784420 0.580578
vt 0.789566 0.581809
vt 0.790240 0.578337
vt 0.776664 0.570676
vt 0.765937 0.579008
vt 0.786389 0.583935
vt 0.789535 0.584361
vt 0.797653 0.586901
vt 0.794267 0.580756
vt 0.800246 0.581454
vt 0.836458 0.509553
vt 0.841942 0.512618
vt 0.908876 0.459380
vt 0.833818 0.506855
vt 0.839765 0.514797
vt 0.903893 0.455893
vt 0.892031 0.445589
vt 0.828799 0.490336
vt 0.817273 0.505115
vt 0.860939 0.468052
vt 0.401584 0.512587
vt 0.460920 0.466618
vt 0.483091 0.490175
vt 0.437225 0.535867
vt 0.752792 0.598488
vt 0.752110 0.588705
vt 0.754378 0.587373
vt 0.769382 0.600778
vt 0.398328 0.514945
vt 0.398827 0.514596
vt 0.438229 0.448624
vt 0.755953 0.588401
vt 0.740491 0.606268
vt 0.749858 0.602244
vt 0.748250 0.607395
vt 0.738704 0.604718
vt 0.737467 0.600271
vt 0.409537 0.473703
vt 0.407294 0.476152
vt 0.389206 0.508564
vt 0.740787 0.611416
vt 0.755568 0.602539
vt 0.758114 0.608309
vt 0.748927 0.606818
vt 0.751401 0.604557
vt 0.746388 0.612121
vt 0.754873 0.618567
vt 0.374803 0.525928
vt 0.355282 0.529696
vt 0.757337 0.606502
vt 0.772807 0.601686
vt 0.769835 0.606913
vt 0.772828 0.601692
vt 0.772880 0.601705
vt 0.957001 0.415189
vt 0.959101 0.421675
vt 0.945898 0.429375
vt 0.958054 0.439743
vt 0.916750 0.463506
vt 0.441186 0.435727
vt 0.912583 0.466719
vt 0.182901 0.544748
vt 0.096117 0.533629
vt 0.942595 0.423632
vt 0.935674 0.410077
vt 0.900801 0.438112
vt 0.784999 0.595246
s 1
f 7/1/1 1/2/2 2/3/3
f 1/4/4 3/5/5 2/6/6
f 8/7/7 3/5/5 1/4/4
f 1/4/8 6/8/9 4/9/10
f 4/9/10 5/10/11 1/4/8
f 1/4/4 5/10/12 8/7/7
f 6/8/9 1/4/8 7/11/13
f 3/5/5 8/7/7 9/12/14
f 10/13/15 9/12/14 8/7/7
f 8/7/7 11/14/16 10/13/15
f 11/14/16 8/7/7 5/10/12
f 5/10/12 12/15/17 11/14/16
f 12/15/18 5/10/11 4/9/10
f 13/16/19 12/15/18 4/9/10
f 14/17/20 16/18/21 13/16/21
f 13/16/21 15/19/22 14/17/20
f 4/9/10 15/19/23 13/16/19
f 16/20/24 14/21/25 17/22/26
f 17/22/26 18/23/27 16/20/27
f 19/24/28 18/23/27 17/22/26
f 22/25/29 20/26/30 19/24/28
f 17/22/26 21/27/31 19/24/28
f 19/24/28 21/27/31 22/25/29
f 23/28/32 22/25/29 21/27/31
f 22/25/33 23/28/34 25/29/35
f 25/29/35 24/30/36 22/25/33
f 20/26/37 22/25/33 24/30/36
f 23/28/34 26/31/6 25/29/35
f 29/32/13 25/29/13 26/31/13
f 25/29/38 29/32/39 27/33/39
f 27/33/39 28/34/40 25/29/38
f 24/30/36 25/29/35 28/34/41
f 26/31/13 30/35/13 29/32/13
f 27/33/6 29/32/6 30/35/6
f 30/35/6 31/36/6 27/33/6
f 32/37/42 31/36/42 30/35/42
f 30/35/42 26/31/42 32/37/42
f 34/38/43 32/37/44 33/39/6
f 33/39/6 32/37/44 26/31/6
f 34/38/43 35/40/45 32/37/44
f 31/36/46 32/37/46 35/40/46
f 31/36/46 35/40/46 37/41/46
f 34/38/43 36/42/47 35/40/45
f 36/42/47 37/41/48 35/40/45
f 37/41/46 27/33/46 31/36/46
f 27/33/39 37/41/39 28/34/40
f 36/42/47 28/34/41 37/41/48
f 36/42/47 38/43/49 24/30/36
f 24/30/36 28/34/41 36/42/47
f 38/43/49 36/42/47 34/38/43
f 39/44/50 24/30/36 38/43/49
f 38/43/49 40/45/15 39/44/50
f 40/45/15 38/43/49 9/12/14
f 34/38/43 9/12/14 38/43/49
f 9/12/14 10/13/15 40/45/15
f 24/30/36 39/44/50 20/26/37
f 9/12/14 34/38/43 3/5/5
f 41/46/51 3/47/5 34/48/43
f 42/49/52 34/50/43 33/51/53
f 34/48/43 42/49/52 41/46/51
f 42/49/39 44/52/39 43/53/39
f 42/49/39 43/53/39 45/54/54
f 33/51/53 44/52/55 42/49/52
f 45/54/54 41/46/39 42/49/39
f 49/55/56 45/54/54 46/56/39
f 46/56/57 45/54/58 47/57/59
f 47/58/60 45/54/60 43/53/60
f 45/54/54 48/59/61 41/46/39
f 48/59/61 45/54/54 49/55/56
f 7/1/62 50/60/63 49/55/62
f 49/55/56 50/60/64 48/59/61
f 49/55/62 6/61/65 7/1/62
f 49/55/62 51/62/66 6/61/65
f 46/56/39 51/62/39 49/55/56
f 6/63/65 51/62/66 52/64/67
f 52/64/68 51/62/39 46/56/39
f 54/65/69 52/64/70 53/66/71
f 53/66/72 52/64/68 55/67/73
f 52/64/67 54/68/67 6/63/65
f 46/56/39 55/67/73 52/64/68
f 55/67/73 56/69/74 53/66/72
f 57/70/75 56/69/75 55/67/75
f 57/70/75 55/67/75 58/71/75
f 55/67/59 46/56/57 47/57/59
f 47/57/59 58/72/59 55/67/59
s 0
f 58/71/76 59/73/13 57/70/77
s 1
f 60/74/39 59/75/39 58/76/39
f 58/76/39 47/77/39 60/74/39
f 61/78/60 63/79/60 60/80/60
f 60/80/60 62/81/60 61/78/60
f 43/53/60 62/81/60 60/80/60
f 64/82/78 60/74/39 63/83/39
f 57/84/39 60/74/39 64/82/78
f 43/53/60 60/85/60 47/58/60
f 60/74/39 57/84/39 59/75/39
f 64/86/79 65/87/80 69/88/81
f 65/87/82 64/89/83 63/90/83
s 0
f 64/82/44 66/91/6 57/84/84
s 1
f 67/92/85 66/91/86 64/82/86
f 64/82/86 68/93/85 67/92/85
f 69/88/81 68/94/87 64/86/79
f 70/95/88 71/96/88 69/97/88
f 69/97/88 72/98/88 70/95/88
f 68/99/89 69/97/90 71/96/91
f 72/98/92 69/88/81 65/87/80
f 61/78/93 70/95/94 72/98/95
f 72/98/95 65/87/96 61/78/93
f 71/96/91 23/100/32 68/99/89
f 23/28/34 71/101/6 73/102/6
f 71/103/97 70/95/97 74/104/98
f 74/104/98 73/105/99 71/103/97
f 62/81/39 74/104/39 70/95/94
f 73/106/99 74/104/98 44/52/55
f 74/104/39 62/81/39 43/53/39
f 43/53/39 44/52/39 74/104/39
f 73/102/6 26/31/6 23/28/34
f 44/52/55 33/107/53 73/106/99
f 26/31/6 73/102/6 33/39/6
f 70/95/94 61/78/93 62/81/39
f 21/27/31 68/93/89 23/28/32
f 67/92/100 68/93/89 21/27/31
f 66/108/101 67/109/101 75/110/101
f 75/110/102 67/111/100 76/112/103
f 14/21/25 76/113/103 67/92/100
f 21/27/31 17/22/26 67/92/100
f 67/92/100 17/22/26 14/21/25
f 53/66/71 76/114/104 54/65/69
f 15/19/22 54/115/69 76/116/104
f 76/112/103 53/66/102 75/110/102
f 76/116/104 14/17/20 15/19/22
f 77/117/105 75/110/105 53/66/72
f 75/110/101 77/117/101 66/108/101
f 66/118/106 77/117/106 56/69/106
f 53/66/72 56/69/74 77/117/105
f 56/69/106 57/119/106 66/118/106
f 63/90/83 61/78/82 65/87/82
f 6/8/9 54/115/107 15/19/23
f 2/3/3 50/60/3 7/1/1
f 48/59/108 50/60/108 2/3/108
f 2/3/108 41/46/51 48/59/108
f 2/3/108 3/120/5 41/46/51
f 15/19/23 4/9/10 6/8/9
