# Blender 4.4.1
# www.blender.org
o Desert_To_Export.068
v 0.307675 0.000000 0.296743
v 0.249232 0.167407 0.281230
v 0.268892 0.418517 0.257960
v 0.259412 0.041852 0.292865
v 0.170643 0.041852 0.292865
v -0.410232 0.000000 0.296743
v 0.307675 0.000000 0.183693
v 0.268892 0.418517 0.183693
v 0.268892 0.418517 -0.118546
v 0.307675 -0.000000 -0.118546
v 0.307675 -0.000000 -0.421164
v 0.268892 0.418517 -0.382381
v -0.410232 -0.000000 -0.421164
v -0.371449 0.418517 -0.382381
v -0.371449 0.418517 0.183693
v -0.410232 0.000000 0.183693
v -0.371449 0.418517 0.257960
v 0.153676 0.334814 0.265717
v -0.300133 0.292962 0.269595
v -0.286463 0.321219 0.265717
v -0.303041 0.251110 0.273473
v -0.366417 0.466043 0.252928
v 0.125455 0.321762 0.265717
v -0.226003 0.321219 0.265717
v -0.256233 0.334814 0.265717
v -0.256233 0.334814 0.249393
v -0.226003 0.321219 0.249393
v -0.217181 0.292962 0.253271
v -0.219121 0.251110 0.257149
v -0.303041 0.251110 0.257149
v -0.217181 0.292962 0.269595
v -0.300133 0.292962 0.253271
v -0.286463 0.321219 0.249393
v 0.114624 0.292962 0.269595
v -0.219121 0.251110 0.273473
v 0.116563 0.251110 0.273473
v 0.114624 0.292962 0.258636
v 0.116563 0.251110 0.262514
v 0.200484 0.251110 0.273473
v 0.200484 0.251110 0.262514
v 0.163371 0.167407 0.281230
v 0.197576 0.292962 0.269595
v 0.181896 0.321762 0.267666
v 0.197576 0.292962 0.258636
v 0.153676 0.334814 0.254757
v 0.181896 0.321762 0.254757
v 0.125455 0.321762 0.254757
v 0.249232 0.167407 0.251048
v 0.163371 0.167407 0.251048
v 0.170643 0.041852 0.262683
v 0.259412 0.041852 0.262683
v -0.324418 0.466043 0.210929
v 0.263860 0.466043 0.252928
v -0.366417 0.466043 -0.377349
v 0.263860 0.466043 -0.377349
v 0.221861 0.466043 -0.335349
v -0.324418 0.466043 -0.335349
v 0.226222 0.418517 -0.339711
v -0.328779 0.418517 -0.339711
v -0.328779 0.418517 0.215290
v 0.041222 0.418517 -0.030616
v 0.226222 0.418517 0.215290
v 0.221861 0.466043 0.210929
v 0.221861 0.466043 0.183693
v 0.263860 0.466043 0.183693
v 0.226222 0.418517 0.183693
v 0.226222 0.418517 -0.118546
v 0.221861 0.466043 -0.118546
v 0.263860 0.466043 -0.118546
v 0.079751 0.421433 0.254234
v 0.092491 0.414077 0.254234
v 0.079751 0.421433 0.283655
v 0.067012 0.414077 0.283655
v 0.067012 0.414077 0.254234
v 0.067012 0.399367 0.283655
v 0.067012 0.399367 0.254234
v 0.079751 0.392012 0.283655
v 0.079751 0.392012 0.254234
v 0.092491 0.399367 0.283655
v 0.092491 0.399367 0.254234
v 0.092491 0.414077 0.283655
v -0.323473 0.421433 0.254234
v -0.310734 0.414077 0.254234
v -0.323473 0.421433 0.283655
v -0.336213 0.414077 0.283655
v -0.336213 0.414077 0.254234
v -0.336213 0.399367 0.283655
v -0.336213 0.399367 0.254234
v -0.323473 0.392012 0.254234
v -0.323473 0.392012 0.283655
v -0.310734 0.399367 0.283655
v -0.310734 0.414077 0.283655
v -0.310734 0.399367 0.254234
v 0.198865 0.421433 0.254234
v 0.211604 0.414077 0.254234
v 0.198865 0.421433 0.283655
v 0.186125 0.414077 0.283655
v 0.186125 0.414077 0.254234
v 0.186125 0.399367 0.283655
v 0.186125 0.399367 0.254234
v 0.198865 0.392012 0.283655
v 0.198865 0.392012 0.254234
v 0.211604 0.399367 0.283655
v 0.211604 0.399367 0.254234
v 0.211604 0.414077 0.283655
v -0.041592 0.421433 0.254234
v -0.028852 0.414077 0.254234
v -0.041592 0.421433 0.283655
v -0.054332 0.414077 0.283655
v -0.054332 0.414077 0.254234
v -0.054332 0.399367 0.283655
v -0.054332 0.399367 0.254234
v -0.041592 0.392012 0.283655
v -0.041592 0.392012 0.254234
v -0.028852 0.399367 0.283655
v -0.028852 0.399367 0.254234
v -0.028852 0.414077 0.283655
v 0.160658 -0.000008 0.348245
v 0.160658 -0.000008 0.293610
v 0.160658 0.016077 0.348245
v 0.277357 0.016077 0.348245
v 0.277357 -0.000008 0.348245
v 0.277357 -0.000008 0.293610
v 0.277357 0.016077 0.293610
v 0.160658 0.016077 0.293610
v 0.160658 0.016150 0.326774
v 0.160658 0.016150 0.291590
v 0.160658 0.032234 0.326774
v 0.277357 0.032234 0.326774
v 0.277357 0.016150 0.326774
v 0.277357 0.016150 0.291590
v 0.277357 0.032234 0.291590
v 0.160658 0.032234 0.291590
v -0.204359 0.421433 0.254234
v -0.191621 0.414077 0.254234
v -0.204359 0.421433 0.283655
v -0.217100 0.414077 0.283655
v -0.217100 0.414077 0.254234
v -0.217100 0.399367 0.283655
v -0.217100 0.399367 0.254234
v -0.204359 0.392012 0.283655
v -0.204359 0.392012 0.254234
v -0.191621 0.399367 0.283655
v -0.191621 0.399367 0.254234
v -0.191621 0.414077 0.283655
vn -0.0000 0.0923 0.9957
vn -0.0001 0.0928 0.9957
vn 0.9958 0.0920 -0.0000
vn 0.9957 0.0923 -0.0000
vn 0.9946 0.1034 -0.0000
vn 0.9945 0.1050 -0.0000
vn 0.9956 0.0937 -0.0000
vn -0.0000 0.0923 -0.9957
vn -0.9957 0.0923 -0.0000
vn -0.9945 0.1050 -0.0000
vn -0.0000 0.1050 -0.9945
vn -0.0000 0.0946 -0.9955
vn -0.9958 0.0920 -0.0000
vn -0.0014 0.0977 0.9952
vn -0.0083 0.0931 0.9956
vn 0.0003 0.0850 0.9964
vn 0.0019 0.0933 0.9956
vn 0.0369 0.1129 0.9929
vn -0.0000 0.0924 0.9957
vn -0.9944 0.1053 -0.0000
vn -0.0000 0.1053 0.9944
vn -0.0013 0.0988 0.9951
vn -0.4101 -0.9120 -0.0000
vn -0.4102 -0.9120 -0.0000
vn 0.4102 -0.9120 -0.0000
vn 0.4101 -0.9120 -0.0000
vn -0.0040 0.1002 0.9950
vn 0.0707 0.1573 0.9850
vn 0.0112 0.1204 0.9927
vn -0.9546 -0.2980 -0.0000
vn -0.9908 -0.1355 -0.0000
vn -0.9918 -0.1279 -0.0000
vn -0.9989 0.0463 -0.0000
vn -0.0062 0.0987 0.9951
vn 0.9628 -0.2703 -0.0000
vn 0.9650 -0.2624 -0.0000
vn 0.9976 -0.0693 -0.0000
vn 0.9002 -0.4355 -0.0000
vn -0.0127 0.1054 0.9943
vn -0.0001 0.1138 0.9935
vn -0.0001 0.1140 0.9935
vn 1.0000 0.0001 -0.0000
vn 1.0000 -0.0000 -0.0000
vn -1.0000 -0.0001 -0.0000
vn 0.9989 0.0463 -0.0000
vn 0.9860 -0.1669 -0.0000
vn 0.9874 -0.1582 -0.0000
vn -0.0000 1.0000 -0.0000
vn 0.0011 0.0917 0.9958
vn -0.9976 -0.0693 -0.0000
vn -0.9570 -0.2901 -0.0000
vn 0.0182 0.0836 0.9963
vn -0.9547 -0.2974 -0.0000
vn -0.8783 -0.4782 -0.0000
vn -0.8783 -0.4781 -0.0000
vn -0.0038 0.0994 0.9950
vn -0.0060 0.0978 0.9952
vn 0.0117 0.1223 0.9924
vn 0.0817 0.1766 0.9809
vn -0.4198 -0.9076 -0.0000
vn -0.0122 0.1035 0.9946
vn 0.4198 -0.9076 -0.0000
vn 0.9360 -0.3520 -0.0000
vn -0.0000 -1.0000 -0.0000
vn 0.9983 0.0578 -0.0000
vn -0.9967 -0.0808 -0.0000
vn -0.0000 0.1053 -0.9944
vn -0.0000 -0.0914 0.9958
vn 0.9958 -0.0914 -0.0000
vn -0.0000 -0.0914 -0.9958
vn -0.9958 -0.0914 -0.0000
vn -0.0000 -0.0000 -1.0000
vn 0.9944 0.1053 -0.0000
vn -0.0000 -0.0000 1.0000
vn 0.5000 0.8660 -0.0000
vn -0.5001 0.8660 -0.0000
vn -1.0000 -0.0000 -0.0000
vn -0.5000 -0.8660 -0.0000
vn 0.5000 -0.8660 -0.0000
vn 0.5001 0.8660 -0.0000
vn -0.5000 0.8660 -0.0000
vn 0.5000 -0.8661 -0.0000
vn 0.4999 -0.8661 -0.0000
vn 0.4997 0.8662 -0.0000
vn -0.4999 -0.8661 -0.0000
vn 0.5001 -0.8660 -0.0000
vt 0.098169 0.569650
vt 0.082227 0.566957
vt 0.093963 0.566070
vt 0.058392 0.572134
vt 0.097692 0.580143
vt 0.092463 0.557076
vt 0.088657 0.503234
vt 0.057580 0.607069
vt 0.058298 0.579024
vt 0.096708 0.608192
vt 0.095847 0.636274
vt 0.056921 0.631551
vt 0.081754 0.701416
vt 0.048343 0.504385
vt 0.034108 0.453606
vt 0.070689 0.439503
vt 0.044372 0.689654
vt 0.085850 0.493375
vt 0.050227 0.511171
vt 0.065420 0.557126
vt 0.064604 0.560121
vt 0.066834 0.515640
vt 0.062722 0.516205
vt 0.060121 0.517928
vt 0.059427 0.521248
vt 0.427306 0.017917
vt 0.431452 0.012439
vt 0.434696 0.015478
vt 0.784154 0.397706
vt 0.789274 0.394785
vt 0.829804 0.446420
vt 0.061185 0.524085
vt 0.061725 0.523115
vt 0.060522 0.521038
vt 0.063921 0.523543
vt 0.066078 0.516545
vt 0.066920 0.522789
vt 0.064147 0.524617
vt 0.062962 0.517300
vt 0.061105 0.518693
vt 0.068018 0.555614
vt 0.072027 0.555684
vt 0.068112 0.523306
vt 0.073299 0.563634
vt 0.071406 0.556260
vt 0.068155 0.556439
vt 0.080446 0.558239
vt 0.069162 0.564102
vt 0.072501 0.563142
vt 0.066135 0.562920
vt 0.069127 0.563261
vt 0.066688 0.562150
vt 0.065432 0.560012
vt 0.066076 0.557693
vt 0.083210 0.565519
vt 0.082372 0.559674
vt 0.091235 0.558490
vt 0.091927 0.564588
vt 0.767483 0.326543
vt 0.780480 0.399696
vt 0.824878 0.449523
vt 0.772750 0.323777
vt 0.787727 0.387372
vt 0.765409 0.326952
vt 0.763134 0.327832
vt 0.759045 0.332791
vt 0.758689 0.338151
vt 0.759112 0.331271
vt 0.757588 0.336666
vt 0.775170 0.402126
vt 0.753238 0.340443
vt 0.001491 0.625994
vt 0.002976 0.574492
vt 0.036651 0.598301
vt 0.054439 0.575978
vt 0.818288 0.449805
vt 0.814288 0.454169
vt 0.776647 0.404057
vt 0.820628 0.451593
vt 0.820645 0.451316
vt 0.823120 0.451366
vt 0.825089 0.454822
vt 0.824590 0.453911
vt 0.820912 0.451443
vt 0.820724 0.451369
vt 0.054353 0.578910
vt 0.053606 0.606955
vt 0.053005 0.627478
vt 0.759342 0.332299
vt 0.759362 0.332265
vt 0.759177 0.332570
vt 0.762578 0.328451
vt 0.758975 0.329977
vt 0.758336 0.325823
vt 0.762890 0.328062
vt 0.762806 0.328142
vt 0.766755 0.323140
vt 0.826238 0.455161
vt 0.771787 0.021533
vt 0.769792 0.020384
vt 0.771636 0.019058
vt 0.771314 0.018132
vt 0.769009 0.018267
vt 0.771957 0.017033
vt 0.769599 0.016188
vt 0.773562 0.016924
vt 0.770681 0.014895
vt 0.773581 0.018403
vt 0.775654 0.020246
vt 0.773989 0.021321
vt 0.772669 0.019131
vt 0.884233 0.013161
vt 0.881938 0.013342
vt 0.882708 0.011205
vt 0.881919 0.010624
vt 0.880095 0.012040
vt 0.881827 0.009354
vt 0.879405 0.009991
vt 0.879566 0.008313
vt 0.883089 0.008356
vt 0.883942 0.009565
vt 0.886694 0.009912
vt 0.883602 0.010681
vt 0.885929 0.011740
vt 0.519161 0.021919
vt 0.517273 0.020604
vt 0.519224 0.019440
vt 0.518983 0.018490
vt 0.516674 0.018427
vt 0.519718 0.017451
vt 0.517441 0.016406
vt 0.521326 0.017480
vt 0.518630 0.015211
vt 0.521218 0.018955
vt 0.523125 0.020970
vt 0.521373 0.021897
vt 0.520247 0.019602
vt 0.535549 0.021178
vt 0.533445 0.020243
vt 0.535141 0.018731
vt 0.534724 0.017844
vt 0.532445 0.018220
vt 0.535248 0.016684
vt 0.532815 0.016090
vt 0.536833 0.016408
vt 0.533756 0.014692
vt 0.537007 0.017877
vt 0.539261 0.019494
vt 0.537717 0.020736
vt 0.536176 0.018696
vt 0.127658 0.012686
vt 0.132277 0.008302
vt 0.132289 0.009826
vt 0.141022 0.014330
vt 0.142236 0.013457
vt 0.140434 0.019063
vt 0.142078 0.018905
vt 0.128705 0.014135
vt 0.043547 0.011065
vt 0.046747 0.008295
vt 0.046777 0.009837
vt 0.056166 0.013649
vt 0.057257 0.012630
vt 0.057759 0.016335
vt 0.056136 0.016798
vt 0.044570 0.012616
vt 0.820768 0.019214
vt 0.818468 0.019140
vt 0.819470 0.017102
vt 0.818750 0.016436
vt 0.816780 0.017642
vt 0.818799 0.015164
vt 0.816321 0.015529
vt 0.820164 0.014312
vt 0.816667 0.013879
vt 0.820877 0.015608
vt 0.823574 0.016258
vt 0.822611 0.017990
vt 0.820416 0.016679
s 1
f 1/1/1 2/2/1 4/3/1
f 2/2/1 1/1/1 3/4/2
f 3/4/3 1/1/4 7/5/4
f 1/1/1 4/3/1 5/6/1
f 5/6/1 6/7/1 1/1/1
f 9/8/4 8/9/5 7/5/4
f 7/5/4 8/9/5 3/4/3
f 7/5/4 10/10/4 9/8/4
f 9/8/4 10/10/4 11/11/4
f 11/11/4 12/12/6 9/8/7
f 12/12/8 11/11/8 13/13/8
f 15/14/9 14/15/10 13/16/9
f 13/13/8 14/17/11 12/12/12
f 13/16/9 16/18/9 15/14/9
f 17/19/13 15/14/9 16/18/9
f 16/18/9 6/7/9 17/19/13
f 23/20/14 18/21/15 17/19/16
f 3/4/2 17/19/16 18/21/15
f 21/22/1 19/23/17 17/19/16
f 19/23/17 20/24/18 17/19/16
f 17/19/16 20/24/18 25/25/19
f 6/7/1 21/22/1 17/19/16
f 15/26/9 17/27/13 22/28/20
f 22/29/21 17/30/21 3/31/21
f 17/19/16 24/32/22 23/20/14
f 17/19/16 25/25/19 24/32/22
f 27/33/23 24/32/23 25/25/24
f 26/34/25 25/25/25 20/24/26
f 25/25/24 26/34/24 27/33/23
f 28/35/27 27/33/28 26/34/29
f 24/32/30 27/33/30 28/35/31
f 30/36/1 29/37/1 28/35/27
f 31/38/32 28/35/31 29/37/33
f 32/39/34 28/35/27 26/34/29
f 28/35/27 32/39/34 30/36/1
f 28/35/31 31/38/32 24/32/30
f 32/39/35 19/23/36 21/22/37
f 19/23/36 32/39/35 33/40/38
f 26/34/29 33/40/39 32/39/34
f 21/22/37 30/36/37 32/39/35
f 33/40/38 20/24/38 19/23/36
f 20/24/26 33/40/26 26/34/25
f 24/32/22 31/38/40 34/41/41
f 36/42/1 34/41/41 31/38/40
f 29/37/33 35/43/33 31/38/32
f 31/38/40 35/43/1 36/42/1
s 0
f 39/44/42 36/42/43 35/43/44
s 1
f 36/42/45 38/45/45 37/46/46
f 37/46/46 34/41/47 36/42/45
f 38/45/48 36/42/48 39/44/48
f 2/2/1 39/44/1 41/47/1
f 2/2/1 42/48/49 39/44/1
f 39/44/48 40/49/48 38/45/48
f 40/49/50 39/44/50 42/48/51
f 6/7/1 41/47/1 39/44/1
f 39/44/1 35/43/1 6/7/1
f 42/48/49 3/4/2 43/50/52
f 3/4/2 42/48/49 2/2/1
f 44/51/53 42/48/51 43/50/54
f 42/48/51 44/51/53 40/49/50
f 43/50/54 46/52/55 44/51/53
f 38/45/1 40/49/1 44/51/56
f 37/46/57 44/51/56 45/53/58
f 44/51/56 46/52/59 45/53/58
f 44/51/56 37/46/57 38/45/1
f 18/21/60 45/53/60 46/52/60
f 46/52/60 43/50/60 18/21/60
f 45/53/58 47/54/61 37/46/57
f 45/53/62 18/21/62 23/20/62
f 23/20/62 47/54/62 45/53/62
f 47/54/63 23/20/63 34/41/47
f 34/41/47 37/46/46 47/54/63
f 43/50/52 3/4/2 18/21/15
f 48/55/64 2/2/64 41/47/64
f 41/47/1 6/7/1 5/6/1
f 49/56/65 41/47/65 5/6/65
f 41/47/64 49/56/64 48/55/64
f 5/6/65 50/57/65 49/56/65
f 48/55/1 49/56/1 50/57/1
f 4/3/48 51/58/48 50/57/48
f 50/57/48 5/6/48 4/3/48
f 50/57/1 51/58/1 48/55/1
f 4/3/66 48/55/66 51/58/66
f 4/3/66 2/2/66 48/55/66
f 35/43/48 29/37/48 30/36/48
f 6/7/1 35/43/1 21/22/1
f 30/36/48 21/22/48 35/43/48
f 34/41/41 23/20/14 24/32/22
f 54/59/48 22/29/48 52/60/48
f 52/60/48 22/29/48 53/61/48
f 3/31/21 53/61/21 22/29/21
f 14/62/10 15/63/9 22/29/20
f 22/29/20 54/59/20 14/62/10
f 14/64/11 54/59/67 55/65/67
f 56/66/48 55/65/48 54/59/48
f 54/59/48 57/67/48 56/66/48
f 52/60/48 57/67/48 54/59/48
f 58/68/68 56/66/68 57/67/68
f 57/67/68 59/69/68 58/68/68
f 60/70/69 59/71/69 57/67/69
f 57/67/69 52/60/69 60/70/69
f 59/72/48 60/73/48 61/74/48
f 60/73/48 62/75/48 61/74/48
f 63/76/70 62/77/70 60/78/70
f 60/78/70 52/60/70 63/76/70
f 53/61/48 63/76/48 52/60/48
f 62/79/71 63/76/71 64/80/71
f 65/81/48 64/80/48 63/76/48
f 63/76/48 53/61/48 65/81/48
f 64/80/72 65/81/72 8/82/72
f 8/83/5 65/81/73 53/61/73
f 8/82/72 66/84/72 64/80/72
f 64/80/71 66/85/71 62/79/71
f 62/75/48 66/86/48 61/74/48
f 66/86/48 67/87/48 61/74/48
f 9/8/48 67/87/48 66/86/48
f 66/86/48 8/9/48 9/8/48
f 67/87/48 58/88/48 61/74/48
f 67/89/71 68/90/71 56/66/71
f 56/66/71 58/91/71 67/89/71
f 69/92/74 68/90/74 67/93/74
f 67/93/74 9/94/74 69/92/74
f 12/95/6 55/65/73 69/92/73
f 68/90/48 69/92/48 55/65/48
f 69/92/73 9/96/7 12/95/6
f 55/65/48 56/66/48 68/90/48
f 58/88/48 59/72/48 61/74/48
f 55/65/67 12/97/12 14/64/11
f 53/61/73 3/98/3 8/83/5
f 71/99/75 70/100/75 72/101/75
f 73/102/76 72/101/76 70/100/76
f 70/100/76 74/103/76 73/102/76
f 75/104/77 73/102/77 74/103/77
f 74/103/77 76/105/77 75/104/77
f 77/106/78 75/104/78 76/105/78
f 76/105/78 78/107/78 77/106/78
f 79/108/79 77/106/79 78/109/79
f 78/109/79 80/110/79 79/108/79
f 81/111/43 79/108/43 80/110/43
f 80/110/43 71/99/43 81/111/43
f 72/101/75 81/111/75 71/99/75
f 79/108/74 81/111/74 75/104/74
f 73/102/74 75/104/74 81/111/74
f 81/111/74 72/101/74 73/102/74
f 75/104/74 77/106/74 79/108/74
f 83/112/80 82/113/80 84/114/80
f 85/115/81 84/114/81 82/113/81
f 82/113/81 86/116/81 85/115/81
f 87/117/77 85/115/77 86/116/77
f 86/116/77 88/118/77 87/117/77
f 88/118/78 89/119/78 90/120/78
f 90/120/78 87/117/78 88/118/78
f 87/117/74 90/120/74 91/121/74
f 91/121/79 90/120/79 89/122/79
f 91/121/74 92/123/74 87/117/74
f 92/123/43 91/121/43 93/124/43
f 89/122/79 93/124/79 91/121/79
f 93/124/43 83/112/43 92/123/43
f 92/123/74 84/114/74 85/115/74
f 84/114/80 92/123/80 83/112/80
f 85/115/74 87/117/74 92/123/74
f 95/125/80 94/126/80 96/127/80
f 97/128/81 96/127/81 94/126/81
f 94/126/81 98/129/81 97/128/81
f 99/130/77 97/128/77 98/129/77
f 98/129/77 100/131/77 99/130/77
f 101/132/78 99/130/78 100/131/78
f 100/131/78 102/133/78 101/132/78
f 103/134/79 101/132/79 102/135/79
f 102/135/79 104/136/79 103/134/79
f 105/137/43 103/134/43 104/136/43
f 104/136/43 95/125/43 105/137/43
f 105/137/74 96/127/74 97/128/74
f 96/127/80 105/137/80 95/125/80
f 103/134/74 105/137/74 99/130/74
f 97/128/74 99/130/74 105/137/74
f 99/130/74 101/132/74 103/134/74
f 107/138/75 106/139/75 108/140/75
f 109/141/81 108/140/81 106/139/81
f 106/139/81 110/142/81 109/141/81
f 111/143/77 109/141/77 110/142/77
f 110/142/77 112/144/77 111/143/77
f 113/145/78 111/143/78 112/144/78
f 112/144/78 114/146/78 113/145/78
f 115/147/79 113/145/79 114/148/82
f 114/148/82 116/149/83 115/147/79
f 117/150/43 115/147/43 116/149/43
f 116/149/43 107/138/43 117/150/43
f 117/150/74 108/140/74 109/141/74
f 108/140/75 117/150/75 107/138/75
f 115/147/74 117/150/74 111/143/74
f 109/141/74 111/143/74 117/150/74
f 111/143/74 113/145/74 115/147/74
f 119/151/77 118/152/77 120/153/77
f 121/154/74 120/153/74 118/152/74
f 118/152/74 122/155/74 121/154/74
f 124/156/43 121/154/43 122/155/43
f 122/155/43 123/157/43 124/156/43
f 121/154/48 124/156/48 125/158/48
f 125/158/48 120/153/48 121/154/48
f 120/153/77 125/158/77 119/151/77
f 127/159/77 126/160/77 128/161/77
f 129/162/74 128/161/74 126/160/74
f 126/160/74 130/163/74 129/162/74
f 130/163/43 131/164/43 132/165/43
f 132/165/43 129/162/43 130/163/43
f 129/162/48 132/165/48 133/166/48
f 133/166/48 128/161/48 129/162/48
f 128/161/77 133/166/77 127/159/77
f 135/167/80 134/168/84 136/169/80
f 137/170/81 136/169/81 134/168/81
f 134/168/81 138/171/81 137/170/81
f 139/172/77 137/170/77 138/171/77
f 138/171/77 140/173/77 139/172/77
f 141/174/85 139/172/85 140/173/85
f 140/173/85 142/175/85 141/174/85
f 143/176/86 141/174/86 142/177/79
f 142/177/79 144/178/79 143/176/86
f 144/178/43 135/167/43 145/179/43
f 145/179/43 143/176/43 144/178/43
f 145/179/74 136/169/74 137/170/74
f 136/169/80 145/179/80 135/167/80
f 143/176/74 145/179/74 139/172/74
f 137/170/74 139/172/74 145/179/74
f 139/172/74 141/174/74 143/176/74
