# Blender 4.4.1
# www.blender.org
o Desert_To_Export.119
v -0.135174 0.000000 0.135174
v -0.135174 -0.000000 -0.135174
v -0.135174 0.034557 0.135174
v 0.135174 0.034557 0.135174
v 0.135174 0.000000 0.135174
v 0.135174 0.034557 -0.135174
v 0.135174 -0.000000 -0.135174
v -0.135174 0.034557 -0.135174
v -0.135174 0.178335 0.135174
v -0.135174 0.178335 -0.135174
v -0.135174 0.184276 0.135174
v 0.135174 0.184276 0.135174
v 0.135174 0.178335 0.135174
v 0.135174 0.178335 -0.135174
v -0.135174 0.184276 -0.135174
v 0.135174 0.184276 -0.135174
v 0.128121 0.188643 -0.128121
v 0.128121 0.188643 0.128122
v -0.128121 0.188643 0.128122
v -0.128121 0.194260 0.128122
v 0.128121 0.194260 0.128122
v 0.128121 0.194260 -0.128121
v 0.136130 0.201124 0.136130
v -0.136130 0.201124 0.136130
v -0.136130 0.201124 -0.136130
v -0.136130 0.213943 0.136130
v -0.136130 0.213943 -0.136130
v 0.136130 0.213943 -0.136130
v 0.136130 0.213943 0.136130
v 0.136130 0.201124 -0.136130
v -0.128121 0.194260 -0.128121
v -0.128121 0.188643 -0.128121
v -0.116817 0.208663 0.116816
v -0.116817 0.208663 -0.116816
v -0.032346 1.198738 0.032347
v 0.032347 1.198738 0.032347
v 0.116816 0.208663 0.116816
v 0.032347 1.198738 -0.032346
v 0.116816 0.208663 -0.116816
v -0.032346 1.198738 -0.032346
v 0.000000 1.266015 -0.000000
v -0.116817 0.034294 0.116816
v -0.116817 0.034294 -0.116816
v -0.102308 0.182164 0.102309
v 0.102309 0.182164 0.102309
v 0.116816 0.034294 0.116816
v 0.102309 0.182164 -0.102308
v 0.116816 0.034294 -0.116816
v -0.102308 0.182164 -0.102308
vn -1.0000 -0.0000 -0.0000
vn -0.0000 -0.0000 1.0000
vn 1.0000 -0.0000 -0.0000
vn -0.0000 -0.0000 -1.0000
vn -0.0000 1.0000 -0.0000
vn -0.0000 -1.0000 -0.0000
vn -0.0000 0.8502 -0.5264
vn 0.5265 0.8502 -0.0000
vn 0.5264 0.8502 -0.0000
vn -0.0000 0.8502 0.5265
vn -0.0000 -0.7593 0.6508
vn 0.6507 -0.7593 -0.0000
vn 0.6508 -0.7593 -0.0000
vn -0.6507 -0.7593 -0.0000
vn -0.0000 -0.7593 -0.6507
vn -0.5264 0.8502 -0.0000
vn -0.5265 0.8502 -0.0000
vn -0.9964 0.0850 -0.0000
vn -0.0000 0.0850 0.9964
vn 0.9964 0.0850 -0.0000
vn -0.0000 0.0850 -0.9964
vn -0.9012 0.4333 -0.0000
vn -0.0000 0.4333 -0.9012
vn 0.9012 0.4333 -0.0000
vn -0.0000 0.4333 0.9012
vn -0.9952 0.0977 -0.0000
vn -0.9953 0.0972 -0.0000
vn -0.0000 0.0976 0.9952
vn -0.0000 0.0972 0.9953
vn -0.0000 0.0973 0.9953
vn 0.9952 0.0976 -0.0000
vn 0.9953 0.0973 -0.0000
vn -0.0000 0.0973 -0.9953
vn -0.0000 0.0976 -0.9952
vn -0.0000 0.0971 -0.9953
vt 0.765634 0.272464
vt 0.763752 0.247524
vt 0.766940 0.247284
vt 0.791879 0.245401
vt 0.766699 0.244096
vt 0.791638 0.242213
vt 0.793761 0.270341
vt 0.795067 0.245161
vt 0.796949 0.270100
vt 0.794002 0.273528
vt 0.769063 0.275411
vt 0.768822 0.272223
vt 0.491439 0.389370
vt 0.491414 0.414580
vt 0.466123 0.414416
vt 0.432695 0.414657
vt 0.432563 0.389514
vt 0.433119 0.389511
vt 0.465532 0.389445
vt 0.464265 0.366445
vt 0.464820 0.366410
vt 0.466090 0.389424
vt 0.465569 0.414396
vt 0.464750 0.437305
vt 0.465305 0.437337
vt 0.464851 0.414333
vt 0.464793 0.389488
vt 0.463529 0.367146
vt 0.463011 0.367178
vt 0.464262 0.389501
vt 0.464323 0.414320
vt 0.462006 0.366585
vt 0.463350 0.389464
vt 0.434426 0.390159
vt 0.435410 0.389410
vt 0.435542 0.414725
vt 0.460807 0.366653
vt 0.436742 0.414716
vt 0.436611 0.389404
vt 0.462148 0.389487
vt 0.462203 0.414311
vt 0.462474 0.437352
vt 0.461274 0.437294
vt 0.463399 0.414318
vt 0.463488 0.436668
vt 0.434550 0.413988
vt 0.433900 0.390162
vt 0.464007 0.436692
vt 0.434025 0.413992
vt 0.433251 0.414653
vt 0.911448 0.470747
vt 0.930521 0.459126
vt 0.970221 0.540966
vt 0.975737 0.539320
vt 0.951408 0.451482
vt 0.981744 0.539955
vt 0.972925 0.447914
vt 0.895176 0.485753
vt 0.965743 0.544436
vt 0.962716 0.549303
vt 0.973483 0.547328
vt 0.001491 0.008311
vt 0.023074 0.009457
vt 0.021006 0.023112
vt 0.039357 0.027753
vt 0.044028 0.014756
vt 0.056465 0.035856
vt 0.063562 0.024008
vt 0.071682 0.047115
vt 0.080936 0.036864
vt 0.002103 0.022108
s 1
f 2/1/1 1/2/1 3/3/1
f 4/4/2 3/3/2 1/5/2
f 1/5/2 5/6/2 4/4/2
f 6/7/3 4/4/3 5/8/3
f 5/8/3 7/9/3 6/7/3
f 7/10/4 2/11/4 8/12/4
f 8/12/4 6/7/4 7/10/4
f 8/12/5 3/3/5 4/4/5
f 3/3/1 8/12/1 2/1/1
f 4/4/5 6/7/5 8/12/5
f 9/13/6 10/14/6 14/15/6
f 10/16/1 9/17/1 11/18/1
f 12/19/2 11/20/2 9/21/2
f 9/21/2 13/22/2 12/19/2
f 14/15/6 13/22/6 9/13/6
f 13/22/3 14/15/3 16/23/3
f 15/24/4 16/23/4 14/15/4
f 14/15/4 10/25/4 15/24/4
f 17/26/7 16/23/7 15/24/7
f 16/23/3 12/19/3 13/22/3
f 18/27/8 12/19/8 16/23/9
f 16/23/9 17/26/9 18/27/8
f 12/19/10 18/27/10 19/28/10
f 20/29/2 19/28/2 18/27/2
f 21/30/3 18/27/3 17/26/3
f 18/27/2 21/30/2 20/29/2
f 17/26/3 22/31/3 21/30/3
f 24/32/11 20/29/11 21/30/11
f 23/33/12 21/30/12 22/31/13
f 21/30/11 23/33/11 24/32/11
f 20/34/14 24/35/14 25/36/14
f 26/37/2 24/32/2 23/33/2
f 27/38/1 25/36/1 24/35/1
f 24/35/1 26/39/1 27/38/1
f 27/38/5 26/39/5 29/40/5
f 29/40/5 28/41/5 27/38/5
f 25/42/4 27/43/4 28/41/4
f 30/44/3 28/41/3 29/40/3
f 29/40/3 23/33/3 30/44/3
f 23/33/2 29/40/2 26/37/2
f 31/45/15 25/42/15 30/44/15
f 30/44/15 22/31/15 31/45/15
f 22/31/13 30/44/13 23/33/12
f 28/41/4 30/44/4 25/42/4
f 25/36/14 31/46/14 20/34/14
f 19/47/1 20/34/1 31/46/1
f 32/48/4 31/45/4 22/31/4
f 31/46/1 32/49/1 19/47/1
f 11/18/16 19/47/16 32/49/17
f 32/49/17 15/50/17 11/18/16
f 22/31/4 17/26/4 32/48/4
f 15/24/7 32/48/7 17/26/7
f 19/28/10 11/20/10 12/19/10
f 11/18/1 15/50/1 10/16/1
f 34/51/18 33/52/18 35/53/18
f 36/54/19 35/53/19 33/52/19
f 33/52/19 37/55/19 36/54/19
f 38/56/20 36/54/20 37/55/20
f 37/55/20 39/57/20 38/56/20
f 39/58/21 34/51/21 40/59/21
f 40/59/21 38/60/21 39/58/21
f 40/59/22 35/53/22 41/61/22
f 35/53/18 40/59/18 34/51/18
f 38/60/23 40/59/23 41/61/23
f 36/54/24 38/56/24 41/61/24
f 35/53/25 36/54/25 41/61/25
f 43/62/26 42/63/27 44/64/26
f 45/65/28 44/64/29 42/63/30
f 42/63/30 46/66/28 45/65/28
f 47/67/31 45/65/31 46/66/32
f 46/66/32 48/68/31 47/67/31
f 49/69/33 47/67/34 48/68/34
f 48/68/34 43/70/35 49/69/33
f 44/64/26 49/71/26 43/62/26
