# Blender 4.4.1
# www.blender.org
o Desert_To_Export.033
v -0.013690 0.000000 0.000104
v 0.000105 -0.000000 -0.013690
v -0.006946 0.396962 0.000052
v -0.000053 0.396962 0.006946
v -0.000104 0.000000 0.013690
v 0.013690 -0.000000 -0.000105
v 0.006947 0.396962 -0.000054
v 0.000052 0.396962 -0.006947
v 0.010393 0.437579 0.007893
v 0.002378 0.410840 0.015619
v 0.006613 0.408877 0.005410
v 0.014626 0.466074 0.023562
v 0.019494 0.465964 0.013017
v 0.004616 0.387716 -0.002458
v 0.024091 0.463775 0.001845
v 0.001392 0.387552 0.005773
v 0.001742 0.407206 0.015193
v 0.023008 0.492819 0.024805
v 0.025520 0.467842 0.002294
v 0.030424 0.497293 0.014218
v 0.046240 0.524329 0.011937
v 0.052644 0.552829 0.039291
v 0.036257 0.498625 0.003760
v 0.024624 0.496780 0.025484
v 0.079872 0.570462 0.038921
v -0.019116 0.437514 -0.000617
v -0.018569 0.409600 -0.008327
v -0.011683 0.409448 0.000537
v -0.038074 0.463296 -0.007782
v -0.031435 0.465048 0.001585
v 0.000565 0.390691 0.006594
v -0.023875 0.464841 0.011257
v -0.005222 0.389057 -0.001645
v -0.017454 0.406058 -0.008262
v -0.041647 0.496183 0.006954
v -0.046505 0.489803 -0.004127
v -0.025457 0.468836 0.011820
v -0.035735 0.499382 0.016954
v -0.050795 0.523822 0.018732
v -0.096228 0.566327 0.029532
v -0.080868 0.547833 0.007750
v -0.048367 0.493664 -0.003502
v 0.007849 0.432018 -0.012350
v 0.013195 0.409223 -0.008836
v 0.003417 0.407515 -0.008371
v 0.022644 0.455144 -0.022519
v 0.012571 0.454284 -0.022038
v -0.004176 0.388981 -0.003714
v 0.001616 0.451845 -0.021208
v 0.005005 0.388954 -0.003751
v 0.012717 0.406065 -0.008171
v 0.021929 0.475412 -0.032106
v 0.001876 0.454848 -0.022667
v 0.010873 0.477075 -0.033810
v 0.001028 0.493548 -0.048837
v 0.014408 0.513954 -0.071696
v 0.000251 0.476689 -0.034190
v 0.021825 0.478206 -0.034122
v -0.000160 0.519055 -0.095038
vn -0.7071 0.0119 -0.7071
vn -0.7071 0.0119 -0.7070
vn -0.7071 0.0121 0.7070
vn -0.7071 0.0121 0.7071
vn 0.7071 0.0119 0.7071
vn 0.7070 0.0121 -0.7071
vn 0.7071 0.0121 -0.7071
vn -0.9276 0.2762 -0.2515
vn -0.9276 0.2762 -0.2516
vn -0.9019 0.1537 -0.4037
vn -0.7844 0.2119 -0.5829
vn -0.9275 0.2762 -0.2517
vn -0.9276 0.2762 -0.2517
vn -0.8423 0.3448 -0.4142
vn -0.7844 0.2119 -0.5830
vn -0.9104 0.2169 -0.3523
vn -0.8890 0.2107 -0.4066
vn -0.8502 0.3009 -0.4321
vn -0.8479 0.3141 -0.4271
vn -0.8479 0.3141 -0.4272
vn -0.8145 0.4758 -0.3320
vn -0.8073 0.4390 -0.3944
vn -0.4425 0.6707 -0.5952
vn 0.6457 0.2770 -0.7116
vn 0.7781 0.1814 -0.6014
vn 0.8328 0.2762 -0.4798
vn 0.6457 0.2770 -0.7115
vn 0.7346 0.3740 -0.5661
vn 0.8328 0.2762 -0.4797
vn 0.7513 0.3009 -0.5874
vn 0.7410 0.2991 -0.6013
vn 0.7521 0.3454 -0.5613
vn 0.7521 0.3454 -0.5612
vn 0.7591 0.3331 -0.5593
vn 0.6889 0.4649 -0.5560
vn 0.6518 0.7395 -0.1682
vn 0.6346 0.4911 -0.5968
vn 0.2106 0.2775 0.9374
vn 0.0196 0.1568 0.9874
vn -0.2587 0.2590 0.9306
vn 0.2104 0.2776 0.9374
vn -0.0203 0.4025 0.9152
vn 0.0046 0.2419 0.9703
vn 0.0170 0.2429 0.9699
vn -0.0350 0.4425 0.8961
vn -0.0382 0.4601 0.8870
vn 0.0328 0.7147 0.6987
vn -0.0511 0.6563 0.7528
vn -0.0508 0.6563 0.7528
vn -0.4364 0.7829 0.4435
vt 0.726953 0.070309
vt 0.728681 0.069787
vt 0.738870 0.105074
vt 0.739740 0.104834
vt 0.730394 0.069314
vt 0.732145 0.068876
vt 0.740628 0.104612
vt 0.741508 0.104414
vt 0.737994 0.105339
vt 0.733879 0.068486
vt 0.089667 0.011387
vt 0.088354 0.009052
vt 0.092566 0.012264
vt 0.087548 0.009740
vt 0.085603 0.008950
vt 0.091874 0.013099
vt 0.090988 0.013845
vt 0.086108 0.008305
vt 0.088052 0.008851
vt 0.094430 0.014070
vt 0.094042 0.015276
vt 0.091309 0.014101
vt 0.099376 0.018030
vt 0.095691 0.017668
vt 0.093456 0.016224
vt 0.094734 0.014328
vt 0.100658 0.020744
vt 0.384328 0.012422
vt 0.386695 0.011169
vt 0.383387 0.015302
vt 0.386031 0.010348
vt 0.386662 0.008292
vt 0.382569 0.014594
vt 0.381844 0.013696
vt 0.387390 0.008894
vt 0.386910 0.010871
vt 0.381579 0.014006
vt 0.380346 0.016714
vt 0.381542 0.017127
vt 0.379411 0.016107
vt 0.377918 0.018310
vt 0.374736 0.023209
vt 0.377477 0.021986
vt 0.381278 0.017426
vt 0.981903 0.016105
vt 0.982716 0.014072
vt 0.982938 0.018601
vt 0.981813 0.013779
vt 0.981325 0.011939
vt 0.982015 0.018385
vt 0.981013 0.017996
vt 0.982169 0.012039
vt 0.982684 0.013748
vt 0.982592 0.020647
vt 0.981547 0.020717
vt 0.981024 0.018326
vt 0.981164 0.025610
vt 0.980346 0.022626
vt 0.980573 0.020571
vt 0.982536 0.020961
vt 0.979288 0.027394
s 1
f 2/1/1 1/2/1 3/3/2
f 4/4/3 3/3/3 1/2/4
f 1/2/4 5/5/4 4/4/3
f 5/5/5 6/6/5 7/7/5
f 7/7/5 4/4/5 5/5/5
f 8/8/6 7/7/6 6/6/7
f 3/3/2 8/9/2 2/1/1
f 6/6/7 2/10/7 8/8/6
f 9/11/8 10/12/9 12/13/9
f 9/11/10 11/14/10 10/12/10
f 14/15/11 11/14/11 9/11/11
f 12/13/12 13/16/13 9/11/12
f 15/17/14 9/11/14 13/16/14
f 9/11/15 15/17/15 14/15/15
f 14/15/16 16/18/16 11/14/16
f 11/14/17 16/18/17 17/19/17
f 13/16/18 12/13/18 18/20/18
f 18/20/18 20/21/18 13/16/18
f 19/22/19 13/16/19 20/21/20
f 22/23/21 21/24/21 20/21/21
f 21/24/22 23/25/22 20/21/22
f 20/21/21 24/26/21 22/23/21
f 20/21/20 23/25/19 19/22/19
f 25/27/23 21/24/23 22/23/23
f 26/28/24 27/29/24 29/30/24
f 26/28/25 28/31/25 27/29/25
f 31/32/26 28/31/26 26/28/26
f 29/30/27 30/33/27 26/28/27
f 32/34/28 26/28/28 30/33/28
f 26/28/29 32/34/29 31/32/29
f 31/32/30 33/35/30 28/31/30
f 28/31/31 33/35/31 34/36/31
f 37/37/32 30/33/33 35/38/33
f 36/39/34 35/38/34 30/33/34
f 30/33/34 29/30/34 36/39/34
f 35/38/33 38/40/33 37/37/32
f 39/41/35 38/40/35 35/38/35
f 40/42/36 39/41/36 41/43/36
f 41/43/37 39/41/37 35/38/37
f 35/38/37 42/44/37 41/43/37
f 43/45/38 44/46/38 46/47/38
f 43/45/39 45/48/39 44/46/39
f 48/49/40 45/48/40 43/45/40
f 46/47/41 47/50/41 43/45/41
f 49/51/42 43/45/42 47/50/42
f 43/45/40 49/51/40 48/49/40
f 48/49/43 50/52/43 45/48/43
f 45/48/44 50/52/44 51/53/44
f 47/50/45 46/47/45 52/54/45
f 52/54/45 54/55/45 47/50/45
f 53/56/46 47/50/46 54/55/46
f 56/57/47 55/58/47 54/55/47
f 55/58/48 57/59/49 54/55/48
f 54/55/47 58/60/47 56/57/47
f 54/55/46 57/59/46 53/56/46
f 59/61/50 55/58/50 56/57/50
