# Blender 4.4.1
# www.blender.org
o Palm_2
v -0.025212 0.000000 0.000192
v 0.000192 -0.000000 -0.025212
v -0.030278 0.109563 0.000231
v -0.000230 0.109563 0.030278
v -0.000192 0.000000 0.025213
v 0.030279 0.109563 -0.000230
v 0.025213 -0.000000 -0.000192
v 0.000231 0.109563 -0.030278
v 0.042135 0.788308 -0.001222
v 0.084885 0.794394 0.040450
v 0.058050 0.800665 -0.019229
v -0.084503 1.004759 0.174375
v -0.088918 0.985244 0.175421
v -0.101701 1.001556 0.337291
v -0.231730 1.022588 0.417958
v -0.233144 1.002852 0.415510
v -0.099201 1.021277 0.338498
v 0.100755 0.806808 0.022509
v -0.020879 0.203228 0.000192
v 0.004387 0.200582 -0.025212
v -0.014508 0.312723 0.000231
v 0.015377 0.309594 0.030279
v 0.004005 0.200623 0.025213
v 0.045719 0.306417 -0.000230
v 0.029272 0.197977 -0.000191
v 0.015835 0.309546 -0.030278
v 0.007412 0.759071 -0.007147
v 0.010676 0.777329 0.018382
v 0.034738 0.759394 0.008630
v 0.034738 0.759394 -0.022924
v -0.004195 0.788414 -0.007147
v 0.010676 0.777329 -0.032676
v 0.015958 0.806872 -0.022924
v 0.040019 0.788936 -0.032676
v 0.054891 0.777851 -0.007147
v 0.043284 0.807195 -0.007147
v 0.040019 0.788936 0.018382
v 0.015958 0.806872 0.008631
v 0.092677 0.762717 -0.003879
v 0.095942 0.780975 0.021650
v 0.120003 0.763040 0.011898
v 0.120003 0.763040 -0.019657
v 0.081070 0.792060 -0.003879
v 0.095942 0.780975 -0.029408
v 0.101223 0.810518 -0.019657
v 0.125285 0.792583 -0.029408
v 0.128549 0.810841 -0.003879
v 0.140156 0.781498 -0.003879
v 0.125285 0.792583 0.021650
v 0.101223 0.810518 0.011898
v 0.084855 0.748276 0.048956
v 0.088934 0.771089 0.080853
v 0.118998 0.748680 0.068669
v 0.118998 0.748680 0.029242
v 0.070353 0.784939 0.048956
v 0.088934 0.771089 0.017059
v 0.095533 0.808002 0.029242
v 0.125597 0.785592 0.017059
v 0.129675 0.808405 0.048956
v 0.144178 0.771742 0.048956
v 0.125597 0.785592 0.080853
v 0.095533 0.808002 0.068669
v 0.093393 0.803791 -0.032882
v 0.045607 0.798920 0.000928
v 0.095497 0.828933 -0.041506
v 0.014600 0.998705 -0.182947
v 0.015756 0.983813 -0.180545
v -0.067574 0.984197 -0.180621
v -0.124322 0.923431 -0.274207
v -0.116453 0.913306 -0.265485
v -0.074236 0.996952 -0.188374
v 0.037135 0.819080 0.005494
v 0.064491 0.810077 0.043491
v 0.055487 0.807686 0.011789
v 0.080102 0.788965 0.023430
v 0.032463 0.810096 0.035366
v 0.072290 0.779806 0.054202
v 0.042847 0.792866 0.061579
v 0.045081 0.761118 0.052696
v 0.020467 0.779838 0.041055
v 0.036077 0.758726 0.020994
v 0.028278 0.788997 0.010283
v 0.057721 0.775937 0.002906
v 0.068106 0.758707 0.029119
v 0.110084 0.797899 -0.029444
v 0.065509 0.815499 -0.041225
v 0.109206 0.808295 -0.010332
v 0.167886 0.910949 -0.194691
v 0.166074 0.894141 -0.197725
v 0.157058 0.812259 -0.371241
v 0.104130 0.896291 -0.243743
v 0.159504 0.828050 -0.372451
v 0.106382 0.913041 -0.243144
v 0.064648 0.825938 -0.022177
v 0.081538 0.798823 -0.051365
v 0.092614 0.784368 0.028593
v 0.090446 0.806603 -0.050580
v 0.036372 0.908785 0.047733
v -0.033154 0.997573 -0.055789
v -0.031282 1.006396 -0.055139
v -0.248492 1.093840 -0.055235
v -0.137913 1.048741 0.052401
v 0.042609 0.918206 0.048550
v -0.134638 1.039770 0.051907
v 0.100767 0.793029 0.029416
v -0.331540 1.050114 0.047515
v -0.241672 1.084487 -0.055617
v -0.377130 0.962235 -0.066509
v -0.388262 0.967321 -0.066527
v -0.341642 1.057271 0.047642
v -0.413556 0.843400 -0.021291
v -0.402710 0.839536 -0.021219
v 0.076603 0.786513 0.052208
v 0.121057 0.792583 0.020299
v 0.066155 0.805596 0.041401
v 0.257761 0.880716 0.240477
v 0.253646 0.863442 0.238102
v 0.444154 0.775365 0.382208
v 0.396424 0.831208 0.264549
v 0.450892 0.791077 0.387440
v 0.402248 0.847532 0.268769
v 0.110672 0.811681 0.009552
v -0.024603 0.100985 0.000192
v 0.000772 0.099776 -0.025212
v -0.024449 0.210665 0.000231
v 0.005565 0.209234 0.030279
v 0.000389 0.099794 0.025213
v 0.036038 0.207783 -0.000230
v 0.025765 0.098585 -0.000191
v 0.006025 0.209213 -0.030278
v -0.013610 0.300572 0.000214
v 0.014570 0.297621 -0.028120
v 0.054109 0.814326 0.000109
v 0.068193 0.812851 0.014270
v 0.014144 0.297666 0.028120
v 0.082493 0.811354 -0.000109
v 0.042324 0.294715 -0.000214
v 0.068409 0.812828 -0.014270
v 0.047436 0.775807 -0.017946
v 0.058317 0.788280 -0.001843
v 0.070506 0.775721 -0.016910
v 0.059872 0.776835 -0.037378
v 0.040150 0.797155 -0.012999
v 0.041111 0.790081 -0.034962
v 0.048082 0.811376 -0.029374
v 0.060271 0.798818 -0.044441
v 0.071152 0.811291 -0.028337
v 0.078438 0.789943 -0.033284
v 0.077478 0.797017 -0.011322
v 0.058716 0.810263 -0.008905
v 0.120514 0.799587 0.037554
v 0.090901 0.803242 -0.040843
v 0.119784 0.810117 0.037554
v 0.175770 0.859969 -0.029784
v 0.281421 0.860380 0.031971
v 0.281514 0.870759 0.031971
v 0.175251 0.870472 -0.029784
v 0.461997 0.905847 0.035546
v 0.337406 0.896561 -0.053114
v 0.520571 0.876878 -0.069695
v 0.335388 0.886598 -0.053114
v 0.513532 0.868245 -0.069695
v 0.579994 0.733004 -0.016070
v 0.548678 0.812344 0.044270
v 0.456950 0.896383 0.035546
v 0.555524 0.820563 0.044270
v 0.585955 0.740564 -0.016070
v 0.090171 0.813771 -0.040843
vn -0.7067 -0.0324 -0.7067
vn -0.7067 -0.0329 0.7067
vn 0.7067 -0.0324 0.7067
vn 0.7067 -0.0329 -0.7067
vn -0.0000 1.0000 -0.0000
vn -0.4083 -0.7449 0.5276
vn 0.3867 -0.8828 -0.2667
vn 0.3866 -0.8829 -0.2666
vn 0.3865 -0.8829 -0.2666
vn -0.7522 0.0895 -0.6528
vn 0.0522 -0.9932 0.1042
vn -0.7357 -0.6772 0.0101
vn -0.8429 0.1437 -0.5185
vn 0.5076 -0.1293 0.8518
vn 0.5076 -0.1293 0.8519
vn 0.7905 -0.1415 0.5959
vn -0.0529 0.9931 -0.1047
vn 0.7287 0.6848 -0.0037
vn 0.3930 0.7623 -0.5143
vn -0.7063 0.0413 -0.7067
vn -0.7063 0.0409 0.7067
vn 0.6995 -0.1059 0.7067
vn 0.6995 -0.1058 0.7067
vn 0.6995 -0.1063 -0.7067
vn 0.1041 0.9946 -0.0000
vn -0.8687 -0.3436 0.3568
vn -0.3245 -0.7493 0.5773
vn 0.0118 -0.9999 -0.0000
vn -0.3245 -0.7493 -0.5773
vn -0.8687 -0.3436 -0.3568
vn -0.1313 0.3318 -0.9342
vn -0.7492 0.3245 -0.5773
vn 0.1313 -0.3318 -0.9342
vn 0.8687 0.3436 -0.3569
vn 0.7492 -0.3245 -0.5774
vn 0.3245 0.7492 -0.5774
vn 0.8687 0.3436 0.3568
vn 0.3245 0.7492 0.5774
vn -0.0118 0.9999 -0.0000
vn -0.1312 0.3318 0.9342
vn -0.6754 0.7374 -0.0000
vn -0.7492 0.3245 0.5773
vn 0.7492 -0.3245 0.5774
vn 0.1313 -0.3318 0.9342
vn 0.6754 -0.7375 -0.0000
vn -0.7492 0.3245 -0.5774
vn 0.3245 0.7493 -0.5773
vn 0.8687 0.3436 -0.3568
vn 0.7492 -0.3245 -0.5773
vn 0.6754 -0.7374 -0.0000
vn 0.3245 0.7493 0.5773
vn -0.1313 0.3318 0.9342
vn -0.7492 0.3245 0.5774
vn -0.3245 -0.7492 0.5774
vn -0.3245 -0.7492 -0.5774
vn -0.1312 0.3318 -0.9342
vn -0.3765 -0.6792 -0.6300
vn 0.5850 0.1536 0.7964
vn 0.7418 -0.1944 -0.6419
vn 0.7417 -0.1945 -0.6420
vn -0.0026 -0.7007 -0.7135
vn -0.0041 -0.7663 0.6425
vn 0.5913 -0.1398 -0.7942
vn -0.8164 -0.1104 0.5668
vn -0.8165 -0.1104 0.5668
vn -0.9034 -0.4006 0.1529
vn -0.0565 0.7193 0.6924
vn 0.0254 0.7519 -0.6588
vn 0.3781 0.6923 0.6147
vn 0.0212 0.9965 -0.0812
vn 0.6571 0.7144 -0.2405
vn 0.8814 0.3423 0.3256
vn -0.1475 0.7987 0.5834
vn 0.3841 0.3944 0.8348
vn -0.7352 0.3950 0.5509
vn 0.1250 -0.2592 0.9577
vn -0.5667 -0.2588 0.7822
vn -0.6571 -0.7144 0.2405
vn -0.8814 -0.3423 -0.3256
vn -0.9296 0.3434 -0.1338
vn -0.1250 0.2592 -0.9577
vn -0.4622 0.7151 -0.5244
vn -0.3841 -0.3943 -0.8348
vn 0.7352 -0.3950 -0.5509
vn 0.5667 0.2587 -0.7822
vn 0.1475 -0.7987 -0.5834
vn 0.9296 -0.3434 0.1338
vn 0.4621 -0.7151 0.5244
vn -0.0212 -0.9965 0.0812
vn -0.1849 -0.8253 -0.5335
vn -0.4277 -0.8015 0.4181
vn -0.4277 -0.8015 0.4180
vn -0.4276 -0.8016 0.4179
vn 0.9596 -0.1967 0.2011
vn 0.9914 -0.1302 0.0119
vn -0.3383 -0.8441 0.4159
vn 0.2111 -0.9211 -0.3272
vn 0.3511 0.8421 -0.4093
vn -0.8873 0.1198 -0.4453
vn -0.9812 0.1436 -0.1292
vn -0.2216 0.9207 0.3211
vn 0.1899 0.8309 0.5231
vn -0.4277 -0.8014 0.4181
vn -0.9072 -0.4178 0.0501
vn 0.6882 -0.6933 -0.2136
vn 0.0873 0.0294 -0.9957
vn -0.8572 -0.4912 0.1544
vn 0.0266 0.0629 -0.9977
vn 0.0259 0.0637 -0.9976
vn 0.0259 0.0638 -0.9976
vn 0.3734 0.9276 0.0050
vn 0.5698 0.7804 0.2577
vn 0.8436 0.5102 -0.1673
vn 0.9034 0.4265 -0.0442
vn -0.0270 -0.0669 0.9974
vn -0.0265 -0.0603 0.9978
vn -0.0289 -0.0648 0.9975
vn -0.0269 -0.0668 0.9974
vn 0.0494 -0.1292 0.9904
vn 0.6883 -0.6933 -0.2136
vn -0.0256 -0.0596 0.9979
vn -0.0414 -0.9365 -0.3482
vn -0.5914 -0.7640 -0.2580
vn -0.3847 -0.9230 -0.0009
vn 0.0274 0.0610 -0.9978
vn 0.0273 0.0588 -0.9979
vn 0.6246 -0.7192 0.3045
vn -0.6241 0.7171 -0.3102
vn -0.9482 0.2601 0.1823
vn -0.1260 -0.3188 -0.9394
vn -0.1363 -0.2638 0.9549
vn 0.9485 -0.2629 -0.1766
vn 0.0307 0.9327 0.3593
vn 0.2461 -0.9558 0.1611
vn -0.4064 -0.6071 -0.6828
vn -0.4064 -0.6072 -0.6828
vn -0.4064 -0.6073 -0.6827
vn -0.7282 0.0320 0.6847
vn -0.6005 0.0132 0.7995
vn -0.1364 -0.9153 -0.3791
vn -0.2748 -0.8525 0.4447
vn 0.1358 0.9151 0.3797
vn 0.8677 -0.2068 -0.4521
vn 0.6669 -0.0511 -0.7434
vn 0.2816 0.8552 -0.4350
vn -0.2318 0.9626 -0.1401
vn -0.7075 0.0012 -0.7067
vn -0.7075 0.0007 0.7067
vn 0.7044 -0.0660 0.7067
vn 0.7044 -0.0665 -0.7067
vn 0.7043 -0.0665 -0.7067
vn 0.0476 0.9989 -0.0000
vn -0.7012 0.0923 -0.7070
vn -0.7012 0.0926 0.7070
vn 0.7051 -0.0550 0.7070
vn 0.7051 -0.0547 -0.7070
vn -0.6107 -0.3706 0.6997
vn -0.0310 -0.7800 0.6251
vn -0.0013 -0.9986 -0.0537
vn -0.5627 -0.7243 -0.3984
vn -0.9394 -0.3362 0.0672
vn -0.3176 -0.2848 -0.9044
vn -0.9271 0.3431 -0.1511
vn -0.5428 0.3749 -0.7516
vn 0.6108 0.3706 -0.6997
vn 0.0310 0.7800 -0.6250
vn 0.3953 -0.2875 -0.8724
vn 0.5908 -0.7286 -0.3466
vn 0.9394 0.3362 -0.0672
vn 0.9271 -0.3432 0.1511
vn 0.3176 0.2848 0.9045
vn 0.5428 -0.3749 0.7516
vn 0.5627 0.7243 0.3984
vn -0.3953 0.2874 0.8724
vn -0.5908 0.7286 0.3466
vn 0.0013 0.9986 0.0536
vn 0.5604 -0.7900 -0.2485
vn -0.9345 -0.0648 0.3500
vn 0.0342 0.0009 0.9994
vn 0.0342 0.0011 0.9994
vn 0.0342 0.0010 0.9994
vn 0.2922 -0.8187 -0.4944
vn -0.0212 0.0055 0.9998
vn -0.2900 0.8190 0.4952
vn -0.1255 0.9693 0.2115
vn -0.1913 0.9671 0.1676
vn -0.0869 0.0423 -0.9953
vn 0.0845 0.9717 -0.2205
vn -0.1452 0.0106 -0.9893
vn -0.9065 -0.4154 0.0758
vn 0.2853 -0.2290 -0.9307
vn -0.6589 -0.7355 -0.1576
vn -0.0800 -0.9729 0.2171
vn 0.2013 -0.9647 -0.1696
vn -0.0582 0.0391 0.9975
vn 0.6565 0.7366 0.1626
vn 0.9106 0.4058 -0.0788
vn 0.4900 -0.3977 0.7757
vn 0.4900 -0.3977 0.7758
vn 0.1299 -0.9678 -0.2158
vn -0.5594 0.7909 0.2482
vn 0.1242 0.0074 -0.9922
vn 0.1243 0.0073 -0.9922
vn 0.1242 0.0073 -0.9922
vn 0.1242 0.0075 -0.9922
vt 0.474981 0.013045
vt 0.474618 0.009742
vt 0.484663 0.008304
vt 0.485185 0.020190
vt 0.484844 0.024106
vt 0.474769 0.022900
vt 0.475053 0.019639
vt 0.485270 0.016199
vt 0.475124 0.016316
vt 0.485098 0.012272
vt 0.489201 0.016284
vt 0.489115 0.020274
vt 0.222284 0.021866
vt 0.249225 0.021265
vt 0.222612 0.027408
vt 0.784940 0.237894
vt 0.784780 0.232234
vt 0.787316 0.232155
vt 0.816388 0.236884
vt 0.788642 0.229994
vt 0.816387 0.235182
vt 0.257579 0.008690
vt 0.271725 0.008313
vt 0.839933 0.248110
vt 0.840439 0.246262
vt 0.839920 0.249981
vt 0.824760 0.250170
vt 0.825486 0.248686
vt 0.787467 0.237832
vt 0.788363 0.240329
vt 0.737829 0.013045
vt 0.737467 0.009742
vt 0.747511 0.008304
vt 0.748033 0.020190
vt 0.747692 0.024106
vt 0.737618 0.022900
vt 0.737902 0.019639
vt 0.748119 0.016199
vt 0.737973 0.016316
vt 0.747946 0.012272
vt 0.752049 0.016284
vt 0.751963 0.020274
vt 0.244747 0.033431
vt 0.243312 0.030889
vt 0.246231 0.030917
vt 0.740328 0.025685
vt 0.737467 0.026265
vt 0.738395 0.023498
vt 0.411535 0.032390
vt 0.414077 0.030954
vt 0.414049 0.033873
vt 0.033033 0.027474
vt 0.035688 0.028687
vt 0.033311 0.030380
vt 0.264340 0.025420
vt 0.266313 0.023269
vt 0.267189 0.026053
vt 0.164457 0.024014
vt 0.167318 0.023434
vt 0.166390 0.026201
vt 0.270565 0.027570
vt 0.269597 0.024816
vt 0.272466 0.025354
vt 0.027776 0.027889
vt 0.030096 0.026117
vt 0.030470 0.029012
vt 0.244405 0.025334
vt 0.246203 0.027634
vt 0.243312 0.028041
vt 0.034516 0.030309
vt 0.035952 0.032851
vt 0.033033 0.032824
vt 0.230453 0.029299
vt 0.228821 0.031720
vt 0.227541 0.029096
vt 0.217027 0.025851
vt 0.219770 0.024852
vt 0.219264 0.027727
vt 0.248671 0.032710
vt 0.248569 0.029792
vt 0.251147 0.031163
vt 0.472168 0.024431
vt 0.469361 0.023627
vt 0.471461 0.021598
vt 0.219682 0.030557
vt 0.217027 0.029344
vt 0.219405 0.027651
vt 0.248569 0.029832
vt 0.248901 0.026932
vt 0.251247 0.028670
vt 0.209431 0.010742
vt 0.206513 0.010812
vt 0.207912 0.008250
vt 0.440669 0.023941
vt 0.438695 0.026091
vt 0.437820 0.023307
vt 0.398604 0.022014
vt 0.397768 0.024811
vt 0.395764 0.022689
vt 0.385486 0.028688
vt 0.387888 0.030347
vt 0.385250 0.031598
vt 0.949182 0.033267
vt 0.947746 0.030725
vt 0.950665 0.030753
vt 0.251430 0.026388
vt 0.248569 0.026968
vt 0.249497 0.024200
vt 0.232798 0.032141
vt 0.235340 0.030705
vt 0.235312 0.033624
vt 0.222284 0.027380
vt 0.224939 0.028592
vt 0.222562 0.030286
vt 0.947746 0.024449
vt 0.949719 0.022298
vt 0.950595 0.025083
vt 0.164457 0.027923
vt 0.166777 0.026152
vt 0.167152 0.029047
vt 0.260051 0.027288
vt 0.259083 0.024534
vt 0.261952 0.025072
vt 0.448334 0.024043
vt 0.451195 0.023463
vt 0.450266 0.026231
vt 0.456503 0.024957
vt 0.454871 0.027378
vt 0.453591 0.024754
vt 0.254919 0.025670
vt 0.256716 0.027970
vt 0.253826 0.028377
vt 0.849347 0.013818
vt 0.850782 0.016360
vt 0.847863 0.016332
vt 0.272446 0.022715
vt 0.270472 0.024866
vt 0.269597 0.022081
vt 0.243548 0.027999
vt 0.245950 0.029658
vt 0.243312 0.030909
vt 0.159200 0.026050
vt 0.161943 0.025051
vt 0.161437 0.027926
vt 0.080448 0.032319
vt 0.080346 0.029401
vt 0.082923 0.030771
vt 0.971429 0.030116
vt 0.968774 0.028904
vt 0.971151 0.027210
vt 0.282951 0.021986
vt 0.282115 0.024783
vt 0.280111 0.022661
vt 0.971580 0.024493
vt 0.968774 0.023689
vt 0.970873 0.021661
vt 0.416792 0.029433
vt 0.417124 0.026533
vt 0.419470 0.028271
vt 0.393425 0.010742
vt 0.390507 0.010812
vt 0.391906 0.008250
vt 0.511876 0.014328
vt 0.510045 0.011758
vt 0.513755 0.011793
vt 0.508865 0.015275
vt 0.511846 0.017484
vt 0.514868 0.015332
vt 0.515373 0.019239
vt 0.517627 0.012519
vt 0.312915 0.017179
vt 0.310995 0.020792
vt 0.309469 0.017664
vt 0.310073 0.014236
vt 0.508286 0.019172
vt 0.506160 0.012411
vt 0.306395 0.016030
vt 0.511933 0.008300
vt 0.306966 0.020082
vt 0.409876 0.163132
vt 0.420849 0.184618
vt 0.406278 0.167204
vt 0.695504 0.339815
vt 0.698397 0.334675
vt 0.701190 0.334931
vt 0.722127 0.343935
vt 0.699938 0.332863
vt 0.722041 0.342909
vt 0.428081 0.181949
vt 0.435847 0.189998
vt 0.731474 0.353547
vt 0.732278 0.354306
vt 0.721062 0.352378
vt 0.722294 0.352425
vt 0.696975 0.341528
vt 0.695411 0.342854
vt 0.274854 0.022326
vt 0.277515 0.020823
vt 0.277486 0.023880
vt 0.298877 0.012147
vt 0.295881 0.012754
vt 0.296853 0.009856
vt 0.165961 0.023467
vt 0.164457 0.020805
vt 0.167514 0.020834
vt 0.511417 0.019219
vt 0.514198 0.020489
vt 0.511708 0.022262
vt 0.905690 0.010507
vt 0.907757 0.008254
vt 0.908674 0.011170
vt 0.295881 0.020185
vt 0.298311 0.018330
vt 0.298703 0.021361
vt 0.543973 0.018282
vt 0.542959 0.015398
vt 0.545963 0.015962
vt 0.579758 0.015495
vt 0.582754 0.014888
vt 0.581782 0.017786
vt 0.088652 0.013976
vt 0.086943 0.016510
vt 0.085603 0.013763
vt 0.323311 0.014638
vt 0.325193 0.017047
vt 0.322166 0.017472
vt 0.449887 0.020807
vt 0.451390 0.023469
vt 0.448334 0.023440
vt 0.666853 0.008968
vt 0.664787 0.011220
vt 0.663869 0.008304
vt 0.748228 0.020291
vt 0.750743 0.022028
vt 0.747981 0.023338
vt 0.548216 0.016514
vt 0.551088 0.015468
vt 0.550558 0.018479
vt 0.282891 0.022000
vt 0.280111 0.020731
vt 0.282600 0.018957
vt 0.114862 0.008300
vt 0.113987 0.011229
vt 0.111888 0.009006
vt 0.501011 0.023353
vt 0.500903 0.020298
vt 0.503603 0.021732
vt 0.672182 0.010874
vt 0.669126 0.010947
vt 0.670591 0.008264
vt 0.458848 0.021766
vt 0.459196 0.018729
vt 0.461652 0.020549
vt 0.056999 0.011258
vt 0.054061 0.010416
vt 0.056259 0.008292
vt 0.783208 0.336687
vt 0.792250 0.353037
vt 0.779523 0.339382
vt 0.001491 0.283387
vt 0.003533 0.278854
vt 0.005509 0.279711
vt 0.023547 0.290246
vt 0.007557 0.278745
vt 0.024612 0.289288
vt 0.036640 0.301718
vt 0.035015 0.300906
vt 0.798736 0.350047
vt 0.807498 0.362162
vt 0.022324 0.297781
vt 0.003445 0.284276
vt 0.021865 0.299113
vt 0.003706 0.286535
vt 0.403117 0.053376
vt 0.405271 0.065947
vt 0.395764 0.055242
vt 0.170120 0.035377
vt 0.166311 0.042488
vt 0.165347 0.041903
vt 0.144052 0.034982
vt 0.165091 0.042987
vt 0.395797 0.076474
vt 0.144200 0.035744
vt 0.124067 0.027293
vt 0.137982 0.021397
vt 0.157476 0.029249
vt 0.169142 0.034796
vt 0.138774 0.021055
vt 0.158104 0.028445
vt 0.169924 0.034003
vt 0.121489 0.013975
vt 0.406517 0.085840
vt 0.408657 0.103959
vt 0.397431 0.097309
vt 0.124354 0.028140
vt 0.107456 0.019140
vt 0.399089 0.114138
vt 0.106870 0.019990
vt 0.120722 0.014519
vt 0.102058 0.009086
vt 0.101373 0.008302
vt 0.404699 0.125116
vt 0.253826 0.020617
vt 0.278303 0.020070
vt 0.254158 0.025699
vt 0.085728 0.043858
vt 0.085603 0.038663
vt 0.087883 0.038587
vt 0.114304 0.042966
vt 0.089146 0.036645
vt 0.114278 0.041450
vt 0.136083 0.051442
vt 0.135656 0.053107
vt 0.285881 0.008585
vt 0.298710 0.008312
vt 0.122565 0.053741
vt 0.135634 0.054784
vt 0.087998 0.043797
vt 0.121909 0.055064
vt 0.088829 0.046037
vt 0.001853 0.297044
vt 0.001491 0.293740
vt 0.011535 0.292303
vt 0.012057 0.304189
vt 0.011717 0.308105
vt 0.001642 0.306899
vt 0.001926 0.303637
vt 0.012143 0.300198
vt 0.001997 0.300314
vt 0.011971 0.296271
vt 0.016073 0.300282
vt 0.015988 0.304273
vt 0.968774 0.144917
vt 0.972449 0.144431
vt 0.977831 0.192067
vt 0.979676 0.191893
vt 0.976083 0.144089
vt 0.981554 0.191788
vt 0.979785 0.143882
vt 0.983406 0.191755
vt 0.983435 0.143815
vt 0.975966 0.192314
vt 0.749031 0.025178
vt 0.747981 0.023318
vt 0.750117 0.023338
vt 0.487226 0.013373
vt 0.485132 0.013797
vt 0.485812 0.011772
vt 0.169714 0.032417
vt 0.171574 0.031366
vt 0.171554 0.033502
vt 0.148686 0.022458
vt 0.150630 0.023345
vt 0.148889 0.024585
vt 0.532445 0.013314
vt 0.533890 0.011739
vt 0.534531 0.013777
vt 0.469361 0.017435
vt 0.471059 0.016138
vt 0.471333 0.018257
vt 0.265048 0.014548
vt 0.264340 0.012532
vt 0.266439 0.012926
vt 0.763752 0.012273
vt 0.765846 0.011848
vt 0.765166 0.013874
vt 0.328223 0.014185
vt 0.329539 0.015868
vt 0.327423 0.016166
vt 0.539833 0.015731
vt 0.538639 0.017502
vt 0.537702 0.015582
vt 0.775351 0.021074
vt 0.776402 0.022934
vt 0.774266 0.022914
vt 0.164630 0.029014
vt 0.166387 0.030228
vt 0.164457 0.031143
vt 0.096117 0.014021
vt 0.098124 0.013290
vt 0.097753 0.015394
vt 0.639670 0.011850
vt 0.638226 0.013424
vt 0.637585 0.011386
vt 0.066518 0.024435
vt 0.064575 0.023548
vt 0.066315 0.022309
vt 0.324245 0.008298
vt 0.323633 0.010345
vt 0.322166 0.008792
vt 0.968849 0.032199
vt 0.968774 0.030064
vt 0.970660 0.031066
vt 0.681776 0.010132
vt 0.679640 0.010183
vt 0.680664 0.008308
vt 0.379993 0.021008
vt 0.380236 0.018886
vt 0.381953 0.020158
vt 0.329477 0.010370
vt 0.327423 0.009781
vt 0.328960 0.008297
vt 0.952414 0.008277
vt 0.957363 0.016385
vt 0.947746 0.014476
vt 0.388870 0.049580
vt 0.385250 0.042451
vt 0.386159 0.042065
vt 0.398230 0.030893
vt 0.385312 0.041559
vt 0.956637 0.027683
vt 0.397416 0.030389
vt 0.410087 0.018831
vt 0.396068 0.042141
vt 0.407912 0.032857
vt 0.420973 0.022035
vt 0.421487 0.022652
vt 0.408372 0.033666
vt 0.975542 0.042428
vt 0.977908 0.057034
vt 0.969203 0.052834
vt 0.428974 0.009359
vt 0.964185 0.042445
vt 0.966221 0.028645
vt 0.409324 0.018434
vt 0.418156 0.009588
vt 0.418385 0.010466
vt 0.428141 0.009168
vt 0.428351 0.008311
vt 0.396483 0.043012
vt 0.389781 0.049198
vt 0.390121 0.050108
s 1
f 2/1/1 1/2/1 3/3/1
f 4/4/2 3/5/2 1/6/2
f 1/6/2 5/7/2 4/4/2
f 6/8/3 4/4/3 5/7/3
f 5/7/3 7/9/3 6/8/3
f 8/10/4 6/8/4 7/9/4
f 7/9/4 2/1/4 8/10/4
f 8/11/5 3/12/5 4/4/5
f 3/3/1 8/10/1 2/1/1
f 4/4/5 6/8/5 8/11/5
f 10/13/6 13/14/6 9/15/6
f 10/16/7 9/17/8 11/18/9
f 12/19/10 11/18/10 9/20/10
f 9/20/10 13/21/10 12/19/10
f 14/22/11 16/23/11 13/14/11
f 10/13/12 14/22/12 13/14/12
f 15/24/13 12/19/13 13/21/13
f 13/21/13 16/25/13 15/24/13
f 16/26/14 14/27/15 17/28/15
f 17/28/15 15/24/14 16/26/14
f 18/29/16 17/28/16 14/27/16
f 17/28/17 12/19/17 15/24/17
f 17/28/18 18/29/18 12/19/18
f 18/29/19 11/18/19 12/19/19
f 11/18/9 18/29/8 10/16/7
f 14/27/16 10/30/16 18/29/16
f 20/31/20 19/32/20 21/33/20
f 22/34/21 21/35/21 19/36/21
f 19/36/21 23/37/21 22/34/21
f 24/38/22 22/34/22 23/37/23
f 23/37/23 25/39/23 24/38/22
f 26/40/24 24/38/24 25/39/24
f 25/39/24 20/31/24 26/40/24
f 26/41/25 21/42/25 22/34/25
f 21/33/20 26/40/20 20/31/20
f 22/34/25 24/38/25 26/41/25
f 27/43/26 28/44/26 31/45/26
f 27/46/27 29/47/27 28/48/27
f 29/49/28 27/50/28 30/51/28
f 27/52/29 32/53/29 30/54/29
f 27/55/30 31/56/30 32/57/30
f 32/58/31 33/59/31 34/60/31
f 32/61/32 31/62/32 33/63/32
f 30/64/33 32/65/33 34/66/33
f 35/67/34 34/68/34 36/69/34
f 30/70/35 34/71/35 35/72/35
f 34/73/36 33/74/36 36/75/36
f 37/76/37 35/77/37 36/78/37
f 38/79/38 37/80/38 36/81/38
f 33/82/39 38/83/39 36/84/39
f 28/85/40 37/86/40 38/87/40
f 31/88/41 38/89/41 33/90/41
f 31/91/42 28/92/42 38/93/42
f 29/94/43 35/95/43 37/96/43
f 28/97/44 29/98/44 37/99/44
f 29/100/45 30/101/45 35/102/45
f 39/103/26 40/104/26 43/105/26
f 39/106/27 41/107/27 40/108/27
f 41/109/28 39/110/28 42/111/28
f 39/112/29 44/113/29 42/114/29
f 39/115/30 43/116/30 44/117/30
f 42/118/33 44/119/33 46/120/33
f 44/121/46 43/122/46 45/123/46
f 44/124/31 45/125/31 46/126/31
f 46/127/47 45/128/47 47/129/47
f 48/130/48 46/131/48 47/132/48
f 42/133/49 46/134/49 48/135/49
f 41/136/43 48/137/43 49/138/43
f 41/139/50 42/140/50 48/141/50
f 49/142/37 48/143/37 47/144/37
f 50/145/51 49/146/51 47/147/51
f 40/148/52 49/149/52 50/150/52
f 40/151/44 41/152/44 49/153/44
f 45/154/39 50/155/39 47/156/39
f 43/157/41 50/158/41 45/159/41
f 43/160/53 40/161/53 50/162/53
f 51/163/26 52/164/26 55/165/26
f 51/163/54 53/166/54 52/164/54
f 53/166/28 51/163/28 54/167/28
f 51/163/55 56/168/55 54/167/55
f 51/163/30 55/165/30 56/168/30
f 54/167/33 56/168/33 58/169/33
f 56/168/46 55/165/46 57/170/46
f 56/168/56 57/170/56 58/169/56
f 58/171/47 57/172/47 59/173/47
f 60/174/48 58/171/48 59/173/48
f 54/167/35 58/169/35 60/175/35
f 53/166/43 60/175/43 61/176/43
f 53/166/50 54/167/50 60/175/50
f 61/177/37 60/174/37 59/173/37
f 52/164/44 53/166/44 61/176/44
f 52/164/52 61/176/52 62/178/52
f 62/179/51 61/177/51 59/173/51
f 55/165/53 52/164/53 62/178/53
f 55/165/41 62/178/41 57/170/41
f 57/172/39 62/179/39 59/173/39
f 64/180/57 67/181/57 63/182/57
f 64/183/58 63/184/58 65/185/58
f 66/186/59 65/185/60 63/187/60
f 63/187/60 67/188/59 66/186/59
f 64/180/61 68/189/61 67/181/61
f 68/189/62 70/190/62 67/181/62
f 69/191/63 66/186/63 67/188/63
f 67/188/63 70/192/63 69/191/63
f 70/192/64 68/193/64 71/194/64
f 71/194/64 69/191/65 70/192/64
f 72/195/66 71/194/66 68/193/66
f 71/194/67 72/195/67 66/186/67
f 71/194/68 66/186/68 69/191/68
f 72/195/69 65/185/69 66/186/69
f 65/185/58 72/195/58 64/183/58
f 68/193/66 64/196/66 72/195/66
f 74/197/70 76/198/70 73/199/70
f 73/200/71 75/201/71 74/202/71
f 73/203/72 77/204/72 75/205/72
f 73/206/73 76/207/73 78/208/73
f 73/209/74 78/210/74 77/211/74
f 76/212/75 80/213/75 78/214/75
f 78/215/76 79/216/76 77/217/76
f 78/218/77 80/219/77 79/220/77
f 80/221/78 81/222/78 79/223/78
f 82/224/79 81/225/79 80/226/79
f 76/227/80 82/228/80 80/229/80
f 74/230/81 83/231/81 82/232/81
f 74/233/82 82/234/82 76/235/82
f 83/236/83 81/237/83 82/238/83
f 75/239/84 84/240/84 83/241/84
f 75/242/85 83/243/85 74/244/85
f 84/245/86 81/246/86 83/247/86
f 77/248/87 84/249/87 75/250/87
f 77/251/88 79/252/88 84/253/88
f 79/254/89 81/255/89 84/256/89
f 86/257/90 89/258/90 85/259/90
f 86/260/91 85/261/92 87/262/93
f 88/263/94 87/262/94 85/264/94
f 85/264/94 89/265/94 88/263/94
f 89/265/95 90/266/95 92/267/95
f 91/268/96 90/269/96 89/258/96
f 92/267/95 88/263/95 89/265/95
f 86/257/97 91/268/97 89/258/97
f 93/270/98 88/263/98 92/267/98
f 93/270/99 92/267/99 90/266/99
f 94/271/100 93/270/100 91/272/100
f 93/270/101 94/271/101 88/263/101
f 90/266/99 91/272/99 93/270/99
f 94/271/102 87/262/102 88/263/102
f 87/262/93 94/271/103 86/260/91
f 91/272/100 86/273/100 94/271/100
f 96/274/104 98/275/104 95/276/104
f 96/277/105 95/278/105 97/279/105
f 100/280/106 97/279/106 95/281/106
f 98/275/107 99/282/107 95/276/107
f 95/281/106 99/283/106 100/280/106
f 101/284/108 100/280/109 99/283/110
f 102/285/111 100/280/111 101/284/111
f 102/285/112 103/286/112 100/280/112
f 103/286/113 97/279/113 100/280/113
f 103/286/114 105/287/114 97/279/114
f 103/286/115 102/285/116 104/288/117
f 104/288/117 98/289/118 103/286/115
f 105/287/119 103/286/119 98/289/119
f 97/279/105 105/287/120 96/277/105
f 98/289/119 96/290/119 105/287/119
f 106/291/121 104/288/117 102/285/116
f 104/292/122 106/293/122 107/294/122
f 98/275/123 104/292/123 99/282/123
f 104/292/124 107/294/124 99/282/124
f 99/283/110 107/295/125 101/284/108
f 109/296/126 101/284/108 107/295/125
f 106/293/127 108/297/127 107/294/127
f 107/295/125 108/298/126 109/296/126
f 110/299/128 101/284/128 109/296/128
f 111/300/129 110/299/129 109/296/129
f 111/300/130 109/296/130 108/298/130
f 110/299/131 111/300/131 112/301/131
f 108/298/130 112/301/130 111/300/130
f 106/293/132 112/302/132 108/297/132
f 112/301/131 106/291/131 110/299/131
f 102/285/116 110/299/121 106/291/121
f 110/299/133 102/285/133 101/284/133
f 114/303/134 117/304/134 113/305/134
f 114/306/135 113/307/136 115/308/137
f 116/309/138 115/308/138 113/310/138
f 113/310/138 117/311/138 116/309/138
f 117/311/139 118/312/139 120/313/139
f 119/314/140 118/315/140 117/304/140
f 120/313/139 116/309/139 117/311/139
f 114/303/141 119/314/141 117/304/141
f 121/316/142 116/309/142 120/313/142
f 121/316/143 120/313/143 118/317/143
f 122/318/144 121/316/144 119/319/144
f 121/316/145 122/318/145 116/309/145
f 118/317/143 119/319/143 121/316/143
f 122/318/146 115/308/146 116/309/146
f 115/308/137 122/318/135 114/306/135
f 119/319/144 114/320/144 122/318/144
f 124/321/147 123/322/147 125/323/147
f 126/324/148 125/325/148 123/326/148
f 123/326/148 127/327/148 126/324/148
f 128/328/149 126/324/149 127/327/149
f 127/327/149 129/329/149 128/328/149
f 130/330/150 128/328/150 129/329/150
f 129/329/150 124/321/151 130/330/150
f 130/331/152 125/332/152 126/324/152
f 125/323/147 130/330/147 124/321/147
f 126/324/152 128/328/152 130/331/152
f 132/333/153 131/334/153 133/335/153
f 134/336/154 133/335/154 131/334/154
f 131/334/154 135/337/154 134/336/154
f 136/338/155 134/336/155 135/337/155
f 135/337/155 137/339/155 136/338/155
f 138/340/156 136/338/156 137/339/156
f 137/339/156 132/341/156 138/340/156
f 133/335/153 138/342/153 132/333/153
f 139/343/157 140/344/157 143/345/157
f 139/346/158 141/347/158 140/348/158
f 141/349/159 139/350/159 142/351/159
f 139/352/160 144/353/160 142/354/160
f 139/355/161 143/356/161 144/357/161
f 142/358/162 144/359/162 146/360/162
f 144/361/163 143/362/163 145/363/163
f 144/364/164 145/365/164 146/366/164
f 148/367/165 146/368/165 147/369/165
f 146/370/166 145/371/166 147/372/166
f 142/373/167 146/374/167 148/375/167
f 141/376/168 142/377/168 148/378/168
f 149/379/169 148/380/169 147/381/169
f 141/382/170 148/383/170 149/384/170
f 140/385/171 149/386/171 150/387/171
f 140/388/172 141/389/172 149/390/172
f 150/391/173 149/392/173 147/393/173
f 143/394/174 140/395/174 150/396/174
f 143/397/175 150/398/175 145/399/175
f 145/400/176 150/401/176 147/402/176
f 152/403/177 154/404/177 151/405/177
f 152/406/178 151/407/178 153/408/178
f 156/409/179 153/408/180 151/410/181
f 154/404/182 155/411/182 151/405/182
f 151/410/181 155/412/181 156/409/179
f 158/413/183 156/409/183 155/412/183
f 157/414/184 153/408/184 156/409/184
f 159/415/185 157/414/185 156/409/185
f 159/415/186 156/409/186 158/413/186
f 159/415/187 160/416/187 162/417/187
f 160/416/188 159/415/188 158/413/188
f 157/414/189 159/415/189 161/418/189
f 162/417/187 161/418/187 159/415/187
f 162/419/190 163/420/190 164/421/190
f 163/422/191 162/417/191 160/416/191
f 162/419/192 164/421/192 165/423/192
f 161/424/193 162/419/193 165/423/193
f 155/412/183 165/425/183 158/413/183
f 161/424/194 165/423/194 155/411/194
f 165/425/195 164/426/195 166/427/195
f 166/427/195 158/413/195 165/425/195
f 160/416/196 158/413/196 166/427/196
f 167/428/197 160/416/197 166/427/197
f 167/428/198 166/427/198 164/426/199
f 160/416/191 167/428/191 163/422/191
f 164/426/199 163/429/198 167/428/198
f 161/418/189 154/430/189 157/414/189
f 154/404/200 161/424/200 155/411/200
f 157/414/201 168/431/201 153/408/201
f 168/431/202 157/414/203 154/430/204
f 153/408/178 168/431/178 152/406/178
f 154/430/204 152/432/205 168/431/202
