# Blender 4.4.1
# www.blender.org
o Palm_3
v -0.028120 0.000000 0.000214
v 0.000214 -0.000000 -0.028120
v -0.014270 0.861494 0.000109
v -0.000108 0.861494 0.014270
v -0.000214 0.000000 0.028120
v 0.028120 -0.000000 -0.000214
v 0.014270 0.861494 -0.000108
v 0.000109 0.861494 -0.014269
v -0.002013 0.856539 0.016142
v 0.020960 0.873051 -0.009192
v -0.014639 0.861751 0.006798
v 0.053649 0.967880 0.108036
v 0.057145 0.952665 0.109753
v 0.112830 0.962526 0.085382
v 0.190244 0.923751 0.186483
v 0.193301 0.909582 0.185276
v 0.110782 0.978066 0.084974
v 0.008479 0.878391 -0.018545
v -0.018059 0.867877 -0.016160
v -0.016416 0.877106 0.016208
v -0.003222 0.867106 -0.016737
v -0.075806 0.997135 -0.030495
v -0.083515 0.988304 -0.030169
v -0.106404 0.998610 0.016183
v -0.208051 1.010394 -0.013032
v -0.212909 1.000597 -0.012630
v -0.100145 1.008306 0.015799
v -0.001601 0.876384 0.015629
v -0.010321 0.851391 -0.015375
v 0.000162 0.866295 0.002354
v 0.014948 0.853942 -0.014234
v 0.003177 0.853942 -0.036767
v -0.020747 0.873929 -0.009928
v -0.018884 0.866295 -0.034107
v -0.013693 0.890411 -0.027955
v 0.001093 0.878058 -0.044543
v 0.022003 0.870423 -0.032260
v 0.011577 0.892962 -0.026814
v 0.020140 0.878058 -0.008082
v -0.001921 0.890411 -0.005421
v 0.004122 0.848647 0.005569
v 0.004960 0.860172 0.021474
v 0.021033 0.850620 0.015399
v 0.021033 0.850620 -0.004260
v -0.004974 0.866076 0.005569
v 0.004960 0.860172 -0.010336
v 0.006316 0.878821 -0.004260
v 0.022389 0.869268 -0.010336
v 0.023227 0.880794 0.005569
v 0.032323 0.863365 0.005569
v 0.022389 0.869268 0.021474
v 0.006316 0.878821 0.015399
v 0.016662 0.878021 -0.020053
v -0.014156 0.886393 -0.025185
v 0.016474 0.884853 -0.007525
v 0.037041 0.954652 -0.131257
v 0.036839 0.943555 -0.133133
v -0.006157 0.940470 -0.159621
v 0.027106 0.898984 -0.246830
v 0.026665 0.888532 -0.245899
v -0.005804 0.951545 -0.159359
v -0.014340 0.893253 -0.012700
v -0.029674 0.846940 0.001826
v -0.028732 0.859888 0.019694
v -0.010675 0.849157 0.012869
v -0.010675 0.849157 -0.009217
v -0.039892 0.866520 0.001826
v -0.028732 0.859888 -0.016042
v -0.027209 0.880838 -0.009217
v -0.009152 0.870106 -0.016042
v -0.008211 0.883054 0.001826
v 0.002008 0.863474 0.001826
v -0.009152 0.870106 0.019694
v -0.027209 0.880838 0.012869
vn -0.7071 0.0113 -0.7071
vn -0.7070 0.0113 -0.7071
vn -0.7070 0.0115 0.7071
vn -0.7071 0.0115 0.7071
vn 0.7071 0.0113 0.7071
vn 0.7071 0.0115 -0.7071
vn 0.7187 -0.6588 0.2223
vn 0.0339 -0.8502 -0.5254
vn 0.0339 -0.8502 -0.5253
vn -0.7130 -0.1985 0.6724
vn -0.7129 -0.1986 0.6725
vn 0.3425 -0.8256 0.4484
vn -0.0363 -0.8948 -0.4450
vn -0.5131 -0.0996 0.8525
vn 0.8122 0.1546 -0.5626
vn 0.6566 0.1078 -0.7465
vn -0.3331 0.8219 -0.4622
vn 0.0255 0.8896 0.4560
vn -0.7149 0.6653 -0.2153
vn -0.8736 -0.4546 0.1740
vn -0.0373 -0.9603 0.2765
vn -0.0376 -0.9603 0.2764
vn -0.0378 -0.9603 0.2763
vn -0.0004 -0.1104 -0.9939
vn -0.1279 0.0476 -0.9906
vn -0.7769 -0.5754 -0.2557
vn -0.0682 -0.9805 0.1843
vn -0.2521 0.1821 0.9504
vn 0.0348 0.0254 0.9991
vn 0.7723 0.5765 0.2669
vn 0.0718 0.9775 -0.1981
vn 0.8673 0.4654 -0.1769
vn -0.0375 -0.9603 0.2764
vn -0.5688 -0.4322 0.6997
vn 0.0504 -0.7790 0.6250
vn 0.1027 -0.9933 -0.0536
vn -0.4842 -0.7790 -0.3984
vn -0.8993 -0.4322 0.0672
vn -0.2862 -0.3164 -0.9044
vn -0.9578 0.2447 -0.1510
vn -0.5789 0.3163 -0.7516
vn 0.4231 -0.2447 -0.8724
vn 0.5688 0.4322 -0.6997
vn -0.0504 0.7790 -0.6250
vn 0.8993 0.4322 -0.0672
vn 0.4842 0.7790 0.3984
vn -0.1027 0.9933 0.0537
vn -0.6635 0.6631 0.3466
vn -0.4231 0.2447 0.8724
vn 0.2862 0.3163 0.9045
vn 0.9577 -0.2447 0.1511
vn 0.5789 -0.3163 0.7516
vn 0.6635 -0.6631 -0.3466
vn -0.8282 -0.4322 0.3568
vn -0.2447 -0.7790 0.5774
vn 0.1159 -0.9933 -0.0000
vn -0.2447 -0.7790 -0.5774
vn -0.8282 -0.4322 -0.3568
vn 0.1651 -0.3164 -0.9342
vn -0.7789 0.2447 -0.5774
vn -0.1651 0.3164 -0.9342
vn 0.2447 0.7790 -0.5774
vn 0.8282 0.4322 -0.3568
vn 0.7789 -0.2448 -0.5774
vn 0.7789 -0.2448 0.5774
vn 0.7485 -0.6631 -0.0000
vn 0.8282 0.4322 0.3569
vn 0.2447 0.7789 0.5774
vn -0.1651 0.3163 0.9342
vn 0.1651 -0.3163 0.9342
vn -0.1159 0.9933 -0.0000
vn -0.7485 0.6631 -0.0000
vn -0.7790 0.2447 0.5774
vn -0.1437 -0.8449 -0.5153
vn -0.3039 -0.8376 0.4540
vn -0.3038 -0.8376 0.4540
vn -0.3038 -0.8377 0.4539
vn 0.9887 -0.0942 0.1163
vn 0.2766 -0.8972 -0.3444
vn -0.2110 -0.8708 0.4440
vn 0.9968 -0.0265 -0.0750
vn -0.9304 0.0230 -0.3658
vn -0.9983 0.0399 -0.0428
vn -0.2875 0.8957 0.3393
vn 0.2245 0.8703 -0.4385
vn 0.1472 0.8508 0.5044
vn -0.3038 -0.8376 0.4539
vn -0.2447 -0.7789 0.5774
vn 0.1651 -0.3163 -0.9342
vn -0.7790 0.2447 -0.5774
vn -0.1651 0.3163 -0.9342
vn 0.2448 0.7789 -0.5774
vn 0.7790 -0.2447 -0.5774
vn 0.7789 -0.2447 0.5774
vn 0.8282 0.4322 0.3568
vt 0.958260 0.082157
vt 0.961966 0.082111
vt 0.962041 0.161820
vt 0.963894 0.161839
vt 0.965617 0.082149
vt 0.969322 0.082272
vt 0.965774 0.161901
vt 0.967624 0.162004
vt 0.960160 0.161843
vt 0.972967 0.082475
vt 0.958624 0.068378
vt 0.953003 0.080825
vt 0.955237 0.067444
vt 0.398744 0.008302
vt 0.403831 0.011416
vt 0.402754 0.010944
vt 0.393220 0.023259
vt 0.394160 0.024187
vt 0.958220 0.083113
vt 0.955244 0.095601
vt 0.381254 0.030176
vt 0.379993 0.031434
vt 0.386414 0.019143
vt 0.387383 0.020120
vt 0.399624 0.009213
vt 0.389967 0.050851
vt 0.385250 0.062705
vt 0.386948 0.050073
vt 0.664009 0.338025
vt 0.668242 0.341047
vt 0.667284 0.340575
vt 0.658526 0.351560
vt 0.659108 0.352389
vt 0.648965 0.357734
vt 0.389637 0.064835
vt 0.387034 0.074707
vt 0.648098 0.358720
vt 0.652512 0.348774
vt 0.653338 0.349396
vt 0.664783 0.338651
vt 0.783208 0.017623
vt 0.782028 0.015965
vt 0.784420 0.015988
vt 0.781267 0.018233
vt 0.783189 0.019658
vt 0.785138 0.018270
vt 0.785463 0.020789
vt 0.786916 0.016456
vt 0.780894 0.020746
vt 0.119516 0.008299
vt 0.121349 0.010196
vt 0.119126 0.010509
vt 0.120111 0.012526
vt 0.117144 0.009456
vt 0.117512 0.012068
vt 0.783245 0.013736
vt 0.779523 0.016387
vt 0.240905 0.011292
vt 0.239992 0.010010
vt 0.241842 0.010027
vt 0.239404 0.011764
vt 0.240890 0.012865
vt 0.242397 0.011792
vt 0.242649 0.013740
vt 0.243772 0.010390
vt 0.572495 0.015773
vt 0.571537 0.017575
vt 0.570776 0.016015
vt 0.571077 0.014306
vt 0.239115 0.013707
vt 0.238055 0.010336
vt 0.569244 0.015200
vt 0.569528 0.017221
vt 0.240933 0.008286
vt 0.395034 0.076518
vt 0.390507 0.087895
vt 0.392137 0.075770
vt 0.027276 0.059180
vt 0.031340 0.062081
vt 0.030420 0.061628
vt 0.022014 0.072172
vt 0.022572 0.072968
vt 0.394717 0.089940
vt 0.392219 0.099415
vt 0.012837 0.078098
vt 0.012005 0.079044
vt 0.016242 0.069498
vt 0.017034 0.070095
vt 0.028019 0.059782
vt 0.809009 0.017268
vt 0.807984 0.015828
vt 0.810062 0.015848
vt 0.807323 0.017798
vt 0.808993 0.019036
vt 0.810685 0.017830
vt 0.810968 0.020019
vt 0.812231 0.016255
vt 0.036685 0.009939
vt 0.035610 0.011963
vt 0.034755 0.010210
vt 0.035093 0.008290
vt 0.806999 0.019981
vt 0.805808 0.016194
vt 0.033033 0.009295
vt 0.033352 0.011565
vt 0.809041 0.013891
s 1
f 2/1/1 1/2/1 3/3/2
f 4/4/3 3/3/3 1/2/4
f 1/2/4 5/5/4 4/4/3
f 5/5/5 6/6/5 7/7/5
f 7/7/5 4/4/5 5/5/5
f 8/8/6 7/7/6 6/6/6
f 3/3/2 8/9/2 2/1/1
f 6/6/6 2/10/6 8/8/6
f 10/11/7 13/12/7 9/13/7
f 10/14/8 9/15/8 11/16/9
f 12/17/10 11/16/11 9/15/11
f 9/15/11 13/18/10 12/17/10
f 10/11/12 14/19/12 13/12/12
f 14/19/13 16/20/13 13/12/13
f 15/21/14 12/17/14 13/18/14
f 13/18/14 16/22/14 15/21/14
f 16/22/15 14/23/15 17/24/15
f 17/24/15 15/21/15 16/22/15
f 18/25/16 17/24/16 14/23/16
f 17/24/17 18/25/17 12/17/17
f 17/24/18 12/17/18 15/21/18
f 14/23/16 10/14/16 18/25/16
f 11/16/9 18/25/8 10/14/8
f 18/25/19 11/16/19 12/17/19
f 20/26/20 23/27/20 19/28/20
f 20/29/21 19/30/22 21/31/23
f 22/32/24 21/31/24 19/30/24
f 19/30/24 23/33/24 22/32/24
f 25/34/25 22/32/25 23/33/25
f 20/26/26 24/35/26 23/27/26
f 24/35/27 26/36/27 23/27/27
f 23/33/25 26/37/25 25/34/25
f 26/37/28 24/38/28 27/39/28
f 27/39/28 25/34/28 26/37/28
f 28/40/29 27/39/29 24/38/29
f 27/39/30 28/40/30 22/32/30
f 27/39/31 22/32/31 25/34/31
f 28/40/32 21/31/32 22/32/32
f 21/31/23 28/40/33 20/29/21
f 24/38/29 20/29/29 28/40/29
f 29/41/34 30/42/34 33/43/34
f 29/41/35 31/44/35 30/42/35
f 31/44/36 29/41/36 32/45/36
f 29/41/37 34/46/37 32/45/37
f 29/41/38 33/43/38 34/46/38
f 32/45/39 34/46/39 36/47/39
f 34/46/40 33/43/40 35/48/40
f 34/46/41 35/48/41 36/47/41
f 32/45/42 36/47/42 37/49/42
f 37/50/43 36/51/43 38/52/43
f 36/51/44 35/53/44 38/52/44
f 39/54/45 37/50/45 38/52/45
f 40/55/46 39/54/46 38/52/46
f 35/53/47 40/55/47 38/52/47
f 33/43/48 40/56/48 35/48/48
f 33/43/49 30/42/49 40/56/49
f 30/42/50 39/57/50 40/56/50
f 31/44/51 37/49/51 39/57/51
f 30/42/52 31/44/52 39/57/52
f 31/44/53 32/45/53 37/49/53
f 41/58/54 42/59/54 45/60/54
f 41/58/55 43/61/55 42/59/55
f 43/61/56 41/58/56 44/62/56
f 41/58/57 46/63/57 44/62/57
f 41/58/58 45/60/58 46/63/58
f 44/62/59 46/63/59 48/64/59
f 46/63/60 45/60/60 47/65/60
f 46/63/61 47/65/61 48/64/61
f 48/66/62 47/67/62 49/68/62
f 50/69/63 48/66/63 49/68/63
f 44/62/64 48/64/64 50/70/64
f 43/61/65 50/70/65 51/71/65
f 43/61/66 44/62/66 50/70/66
f 51/72/67 50/69/67 49/68/67
f 52/73/68 51/72/68 49/68/68
f 42/59/69 51/71/69 52/74/69
f 42/59/70 43/61/70 51/71/70
f 47/67/71 52/73/71 49/68/71
f 45/60/72 52/74/72 47/65/72
f 45/60/73 42/59/73 52/74/73
f 54/75/74 57/76/74 53/77/74
f 54/78/75 53/79/76 55/80/77
f 56/81/78 55/80/78 53/79/78
f 53/79/78 57/82/78 56/81/78
f 54/75/79 58/83/79 57/76/79
f 58/83/80 60/84/80 57/76/80
f 59/85/81 56/81/81 57/82/81
f 57/82/81 60/86/81 59/85/81
f 60/86/82 58/87/82 61/88/82
f 61/88/82 59/85/82 60/86/82
f 62/89/83 61/88/83 58/87/83
f 61/88/84 62/89/84 56/81/84
f 61/88/85 56/81/85 59/85/85
f 62/89/86 55/80/86 56/81/86
f 55/80/77 62/89/87 54/78/75
f 58/87/83 54/78/83 62/89/83
f 63/90/54 64/91/54 67/92/54
f 63/90/88 65/93/88 64/91/88
f 65/93/56 63/90/56 66/94/56
f 63/90/57 68/95/57 66/94/57
f 63/90/58 67/92/58 68/95/58
f 66/94/89 68/95/89 70/96/89
f 68/95/90 67/92/90 69/97/90
f 68/95/91 69/97/91 70/96/91
f 70/98/92 69/99/92 71/100/92
f 72/101/63 70/98/63 71/100/63
f 66/94/93 70/96/93 72/102/93
f 65/93/94 72/102/94 73/103/94
f 65/93/66 66/94/66 72/102/66
f 73/104/95 72/101/95 71/100/95
f 74/105/68 73/104/68 71/100/68
f 64/91/69 73/103/69 74/106/69
f 64/91/70 65/93/70 73/103/70
f 69/99/71 74/105/71 71/100/71
f 67/92/72 74/106/72 69/97/72
f 67/92/73 64/91/73 74/106/73
