# Blender 4.4.1
# www.blender.org
o Pot_1
v 0.000000 -0.000000 -0.020798
v 0.014708 -0.000000 -0.014707
v 0.000000 0.008133 -0.020798
v -0.014706 0.008133 -0.014707
v -0.014706 -0.000000 -0.014707
v -0.020798 0.008133 0.000000
v -0.020798 0.000000 0.000000
v -0.014706 0.008133 0.014706
v -0.014706 0.000000 0.014706
v 0.000000 0.000000 0.020797
v 0.000000 0.008133 0.020797
v 0.014708 0.008133 0.014706
v 0.000000 0.031691 0.034284
v -0.024241 0.031691 0.024242
v -0.045925 0.060396 0.000000
v -0.034284 0.031691 0.000000
v -0.032474 0.060396 0.032474
v -0.051209 0.087350 0.000000
v 0.000000 0.060396 0.045925
v -0.036211 0.087350 0.036211
v -0.046373 0.101691 0.000000
v 0.000000 0.087350 0.051210
v -0.032791 0.101691 0.032791
v 0.000000 0.101691 0.046374
v -0.032791 0.107155 0.032791
v -0.046373 0.107155 0.000000
v -0.032791 0.107155 -0.032792
v -0.052915 0.117398 0.000000
v -0.037416 0.117398 -0.037417
v 0.000000 0.117398 -0.052916
v 0.037417 0.117398 -0.037417
v 0.000000 0.107155 -0.046375
v -0.032791 0.101691 -0.032792
v 0.000000 0.101691 -0.046375
v 0.032793 0.107155 -0.032792
v 0.032793 0.101691 -0.032792
v 0.046375 0.107155 0.000000
v 0.052916 0.117398 0.000000
v 0.037417 0.117398 0.037416
v 0.000000 0.117398 0.052915
v 0.032793 0.107155 0.032791
v 0.000000 0.107155 0.046374
v 0.046375 0.101691 0.000000
v 0.032793 0.101691 0.032791
v 0.051211 0.087350 0.000000
v 0.036212 0.087350 0.036211
v 0.032475 0.060396 0.032474
v 0.045927 0.060396 0.000000
v 0.024243 0.031691 -0.024243
v 0.034285 0.031691 0.000000
v 0.032475 0.060396 -0.032475
v 0.036212 0.087350 -0.036212
v 0.000000 0.060396 -0.045926
v 0.000000 0.031691 -0.034285
v -0.024241 0.031691 -0.024243
v -0.032474 0.060396 -0.032475
v 0.000000 0.087350 -0.051211
v -0.036211 0.087350 -0.036212
v 0.014708 0.008133 -0.014707
v 0.020800 0.008133 0.000000
v 0.024243 0.031691 0.024242
v 0.020800 0.000000 0.000000
v 0.014708 0.000000 0.014706
v -0.037416 0.117398 0.037416
vn 0.3826 -0.0000 -0.9239
vn 0.3700 -0.2547 -0.8934
vn -0.3701 -0.2547 -0.8934
vn -0.3700 -0.2547 -0.8934
vn -0.3827 -0.0000 -0.9239
vn -0.8934 -0.2547 -0.3701
vn -0.9239 -0.0000 -0.3827
vn -0.8934 -0.2546 0.3701
vn -0.8934 -0.2547 0.3701
vn -0.9239 -0.0000 0.3827
vn -0.3827 -0.0000 0.9239
vn -0.3701 -0.2547 0.8934
vn -0.3700 -0.2546 0.8934
vn 0.3501 -0.4037 0.8453
vn 0.3700 -0.2547 0.8934
vn 0.3826 -0.0000 0.9239
vn -0.3501 -0.4037 0.8452
vn -0.8922 -0.2594 0.3696
vn -0.8452 -0.4037 0.3502
vn -0.8452 -0.4037 0.3501
vn -0.8922 -0.2595 0.3696
vn -0.3696 -0.2595 0.8922
vn -0.9224 0.0573 0.3820
vn -0.3821 0.0573 0.9224
vn -0.9126 0.1561 0.3780
vn -0.3780 0.1561 0.9126
vn -0.7957 -0.5082 0.3296
vn -0.9126 0.1561 -0.3780
vn -0.7957 -0.5081 -0.3296
vn -0.7957 -0.5082 -0.3296
vn -0.3296 -0.5081 -0.7957
vn 0.3296 -0.5081 -0.7957
vn -0.3296 -0.5082 -0.7957
vn -0.3780 0.1561 -0.9125
vn -0.3780 0.1561 -0.9126
vn 0.3780 0.1561 -0.9126
vn 0.3827 -0.0000 -0.9239
vn 0.9126 0.1561 -0.3780
vn 0.9239 -0.0000 -0.3827
vn 0.7957 -0.5081 -0.3296
vn 0.7958 -0.5081 -0.3296
vn 0.7957 -0.5081 0.3296
vn 0.3296 -0.5081 0.7957
vn 0.9126 0.1561 0.3780
vn 0.9239 -0.0000 0.3827
vn 0.3780 0.1561 0.9126
vn 0.3827 -0.0000 0.9239
vn 0.9224 0.0573 0.3821
vn 0.3820 0.0573 0.9224
vn 0.8922 -0.2595 0.3696
vn 0.3696 -0.2595 0.8922
vn 0.8922 -0.2595 -0.3696
vn 0.8453 -0.4037 -0.3501
vn 0.8453 -0.4037 0.3501
vn 0.9224 0.0573 -0.3820
vn 0.3820 0.0573 -0.9224
vn 0.3696 -0.2595 -0.8922
vn 0.3501 -0.4037 -0.8453
vn -0.3501 -0.4037 -0.8452
vn -0.3696 -0.2595 -0.8922
vn -0.8453 -0.4037 -0.3501
vn -0.8452 -0.4037 -0.3501
vn -0.8922 -0.2595 -0.3696
vn -0.3821 0.0573 -0.9224
vn -0.9224 0.0573 -0.3820
vn 0.8934 -0.2546 -0.3701
vn 0.8934 -0.2546 0.3701
vn 0.3700 -0.2546 -0.8934
vn -0.3296 -0.5081 0.7957
vn -0.7957 -0.5081 0.3296
vt 0.778198 0.298739
vt 0.778403 0.297243
vt 0.779157 0.297337
vt 0.771737 0.305750
vt 0.770162 0.305832
vt 0.770115 0.305103
vt 0.771605 0.305000
vt 0.773361 0.305281
vt 0.773085 0.304575
vt 0.774916 0.304470
vt 0.774498 0.303838
vt 0.775777 0.302831
vt 0.776314 0.303365
vt 0.778033 0.305249
vt 0.777492 0.302020
vt 0.776192 0.306671
vt 0.775044 0.310413
vt 0.774106 0.307716
vt 0.777663 0.309123
vt 0.775985 0.312749
vt 0.779001 0.311255
vt 0.779961 0.307369
vt 0.776495 0.314011
vt 0.781663 0.309226
vt 0.779710 0.312410
vt 0.779977 0.312836
vt 0.782563 0.310241
vt 0.776688 0.314477
vt 0.777102 0.315514
vt 0.773188 0.315511
vt 0.773430 0.316601
vt 0.769698 0.317125
vt 0.789573 0.298186
vt 0.790705 0.298270
vt 0.789697 0.301888
vt 0.769751 0.316019
vt 0.773059 0.315013
vt 0.769649 0.315523
vt 0.789093 0.298029
vt 0.788644 0.301480
vt 0.788163 0.301289
vt 0.787263 0.304801
vt 0.788233 0.305351
vt 0.786219 0.308595
vt 0.785349 0.307897
vt 0.783638 0.311451
vt 0.786821 0.304555
vt 0.782899 0.310615
vt 0.784953 0.307586
vt 0.785632 0.303881
vt 0.783891 0.306738
vt 0.781885 0.305211
vt 0.783392 0.302711
vt 0.780782 0.301491
vt 0.781597 0.299258
vt 0.784463 0.299911
vt 0.786883 0.300747
vt 0.785110 0.296810
vt 0.781900 0.296827
vt 0.769465 0.308339
vt 0.769009 0.311395
vt 0.771835 0.308317
vt 0.772150 0.311186
vt 0.769156 0.314122
vt 0.772704 0.313662
vt 0.787805 0.297391
vt 0.778960 0.298889
vt 0.778391 0.300499
vt 0.779578 0.303504
vt 0.777682 0.300217
vt 0.776857 0.301604
vt 0.780561 0.313788
s 1
f 2/1/1 1/2/1 3/3/2
f 4/4/3 3/5/4 1/6/5
f 1/6/5 5/7/5 4/4/3
f 6/8/6 4/4/6 5/7/7
f 5/7/7 7/9/7 6/8/6
f 8/10/8 6/8/9 7/9/10
f 7/9/10 9/11/10 8/10/8
f 9/11/11 10/12/11 11/13/12
f 11/13/12 8/10/13 9/11/11
f 13/14/14 11/13/15 12/15/15
f 12/15/15 11/13/15 10/12/16
f 14/16/17 8/10/13 11/13/12
f 11/13/12 13/14/17 14/16/17
f 15/17/18 16/18/19 14/16/20
f 14/16/20 17/19/21 15/17/18
f 8/10/8 14/16/20 16/18/19
f 17/19/22 14/16/17 13/14/17
f 18/20/23 15/17/18 17/19/21
f 17/19/21 20/21/23 18/20/23
f 13/14/17 19/22/22 17/19/22
f 20/21/24 17/19/22 19/22/22
f 21/23/25 18/20/23 20/21/23
f 19/22/22 22/24/24 20/21/24
f 20/21/23 23/25/25 21/23/25
f 23/25/26 20/21/24 22/24/24
f 25/26/11 23/25/26 24/27/26
f 22/24/24 24/27/26 23/25/26
f 23/25/25 25/26/10 26/28/10
f 26/28/10 21/23/25 23/25/25
f 28/29/27 26/28/27 25/26/27
f 21/23/28 26/28/7 27/30/7
f 29/31/29 27/30/29 26/28/29
f 26/28/30 28/29/30 29/31/30
f 27/30/31 29/31/31 30/32/31
f 32/33/32 30/34/32 31/35/32
f 30/32/33 32/36/33 27/30/33
f 33/37/34 27/30/5 32/36/5
f 32/36/5 34/38/35 33/37/34
f 34/39/36 32/33/37 35/40/37
f 31/35/32 35/40/32 32/33/32
f 35/40/37 36/41/36 34/39/36
f 36/41/38 35/40/39 37/42/39
f 38/43/40 37/42/40 35/40/40
f 35/40/41 31/35/41 38/43/41
f 37/42/42 38/43/42 39/44/42
f 39/44/42 41/45/42 37/42/42
f 41/45/43 39/44/43 40/46/43
f 43/47/44 37/42/45 41/45/45
f 40/46/43 42/48/43 41/45/43
f 44/49/46 41/45/47 42/48/47
f 41/45/45 44/49/44 43/47/44
f 45/50/48 43/47/44 44/49/44
f 44/49/44 46/51/48 45/50/48
f 42/48/47 24/27/46 44/49/46
f 46/51/49 44/49/46 24/27/46
f 46/51/48 47/52/50 48/53/50
f 47/52/51 46/51/49 22/24/49
f 24/27/46 22/24/49 46/51/49
f 48/53/50 45/50/48 46/51/48
f 48/53/52 50/54/53 49/55/53
f 49/55/53 51/56/52 48/53/52
f 50/54/54 48/53/50 47/52/50
f 45/50/55 48/53/52 51/56/52
f 51/56/52 52/57/55 45/50/55
f 52/57/56 51/56/57 53/58/57
f 54/59/58 53/58/57 51/56/57
f 51/56/57 49/55/58 54/59/58
f 54/60/59 3/5/4 4/4/3
f 3/3/2 54/59/58 49/55/58
f 53/61/60 54/60/59 55/62/59
f 4/4/3 55/62/59 54/60/59
f 55/62/59 56/63/60 53/61/60
f 6/8/6 16/18/61 55/62/62
f 55/62/62 4/4/6 6/8/6
f 56/63/63 55/62/62 16/18/61
f 57/64/64 53/61/60 56/63/60
f 56/63/60 58/65/64 57/64/64
f 58/65/65 56/63/63 15/17/63
f 16/18/61 15/17/63 56/63/63
f 15/17/63 18/20/65 58/65/65
f 33/37/28 58/65/65 18/20/65
f 34/38/35 57/64/64 58/65/64
f 58/65/64 33/37/34 34/38/35
f 53/58/57 57/66/56 52/57/56
f 36/41/36 52/57/56 57/66/56
f 57/66/56 34/39/36 36/41/36
f 43/47/38 45/50/55 52/57/55
f 52/57/55 36/41/38 43/47/38
f 59/67/66 49/55/53 50/54/53
f 50/54/53 60/68/66 59/67/66
f 60/68/67 50/54/54 61/69/54
f 47/52/50 61/69/54 50/54/54
f 61/69/54 12/15/67 60/68/67
f 19/22/51 13/14/14 61/69/14
f 61/69/14 47/52/51 19/22/51
f 12/15/15 61/69/14 13/14/14
f 59/67/66 60/68/66 62/70/39
f 63/71/45 62/70/45 60/68/67
f 60/68/67 12/15/67 63/71/45
f 10/12/16 63/71/16 12/15/15
f 62/70/39 2/1/39 59/67/66
f 49/55/58 59/67/68 3/3/2
f 3/3/2 59/67/68 2/1/1
f 22/24/49 19/22/51 47/52/51
f 37/42/39 43/47/38 36/41/38
f 24/27/26 42/48/11 25/26/11
f 64/72/69 25/26/69 42/48/69
f 42/48/69 40/46/69 64/72/69
f 25/26/70 64/72/70 28/29/70
f 18/20/65 21/23/28 33/37/28
f 27/30/7 33/37/28 21/23/28
f 16/18/19 6/8/9 8/10/8
