# Blender 4.4.1
# www.blender.org
o Pot_2
v -0.020308 -0.000000 -0.034192
v 0.019459 -0.000000 -0.033702
v -0.027348 0.016549 -0.046047
v -0.053551 0.016549 -0.000660
v -0.039765 0.000000 -0.000490
v -0.026205 0.016549 0.045388
v -0.019458 0.000000 0.033703
v 0.020306 0.000000 0.034193
v 0.027346 0.016549 0.046048
v 0.053552 0.016549 0.000660
v -0.029468 0.038149 0.051039
v 0.030752 0.038149 0.051781
v 0.027346 0.061415 0.046048
v 0.060220 0.038149 0.000742
v -0.026205 0.061415 0.045388
v -0.053551 0.061415 -0.000660
v -0.019458 0.079920 0.033703
v 0.020306 0.079920 0.034193
v 0.039764 0.079920 0.000490
v -0.016369 0.079920 0.028351
v 0.017083 0.079920 0.028764
v 0.033450 0.079920 0.000412
v 0.019459 0.079920 -0.033702
v 0.016368 0.079920 -0.028351
v -0.020308 0.079920 -0.034192
v -0.017082 0.079920 -0.028763
v -0.039765 0.079920 -0.000490
v -0.033452 0.079920 -0.000412
v -0.027348 0.061415 -0.046047
v -0.030752 0.038149 -0.051781
v 0.026204 0.061415 -0.045387
v -0.060220 0.038149 -0.000742
v 0.053552 0.061415 0.000660
v 0.029466 0.038149 -0.051039
v 0.026204 0.016549 -0.045387
v 0.039764 0.000000 0.000490
v -0.000452 0.093468 -0.000110
v 0.011206 0.079058 -0.032139
v 0.031577 0.079058 0.011548
v -0.014857 0.079058 -0.031001
v -0.032480 0.079058 -0.011767
v -0.012109 0.079058 0.031919
v 0.013953 0.079058 0.030781
v -0.031343 0.079058 0.014295
v 0.030439 0.079058 -0.014514
vn 0.0100 -0.5795 -0.8149
vn -0.7006 -0.5878 -0.4045
vn -0.7007 -0.5795 0.4161
vn -0.0100 -0.5795 0.8149
vn 0.7006 -0.5878 0.4045
vn -0.0119 -0.2548 0.9669
vn 0.8362 -0.2600 0.4828
vn 0.8402 0.2425 0.4851
vn -0.0120 0.2376 0.9713
vn -0.8352 0.2376 0.4960
vn -0.7255 0.5366 0.4309
vn -0.0104 0.5366 0.8438
vn -0.0000 1.0000 -0.0000
vn 0.7262 0.5449 0.4193
vn -0.7262 0.5449 -0.4192
vn -0.7262 0.5449 -0.4193
vn -0.8402 0.2425 -0.4851
vn 0.0104 0.5366 -0.8438
vn -0.8402 0.2424 -0.4851
vn 0.0120 0.2376 -0.9713
vn -0.8362 -0.2600 -0.4828
vn -0.8363 -0.2600 -0.4828
vn -0.8314 -0.2548 0.4938
vn 0.8352 0.2376 -0.4960
vn 0.7255 0.5366 -0.4309
vn 0.0119 -0.2548 -0.9669
vn 0.8314 -0.2548 -0.4938
vn 0.8314 -0.2547 -0.4938
vn 0.7007 -0.5795 -0.4162
vn 0.7007 -0.5795 -0.4161
vn -0.1646 0.9211 -0.3529
vn -0.1645 0.9211 -0.3529
vn 0.3530 0.9210 -0.1646
vn 0.1646 0.9211 0.3529
vn 0.1647 0.9211 0.3529
vn -0.1647 0.9211 -0.3529
vn -0.3530 0.9210 0.1646
vn 0.1645 0.9211 0.3529
vn -0.3528 0.9211 0.1646
vn -0.3528 0.9211 0.1645
vn 0.3528 0.9211 -0.1646
vn 0.3528 0.9211 -0.1645
vt 0.640078 0.360453
vt 0.629962 0.358879
vt 0.630948 0.357540
vt 0.628270 0.349154
vt 0.627071 0.348948
vt 0.634560 0.342659
vt 0.634208 0.341851
vt 0.644306 0.343455
vt 0.643297 0.344780
vt 0.645968 0.353149
vt 0.634966 0.343895
vt 0.642228 0.345863
vt 0.640980 0.347181
vt 0.644157 0.352637
vt 0.635664 0.346102
vt 0.632022 0.350027
vt 0.636234 0.348107
vt 0.639496 0.348624
vt 0.636379 0.348589
vt 0.640444 0.351817
vt 0.639127 0.349035
vt 0.639920 0.351688
vt 0.638005 0.354212
vt 0.637863 0.353729
vt 0.634755 0.353721
vt 0.635103 0.353299
vt 0.633813 0.350503
vt 0.634342 0.350630
vt 0.633252 0.355134
vt 0.630082 0.349674
vt 0.638570 0.356225
vt 0.632004 0.356450
vt 0.639270 0.358429
vt 0.642223 0.352293
vt 0.639697 0.359656
vt 0.647172 0.353355
vt 0.288657 0.020705
vt 0.290744 0.023270
vt 0.288319 0.023994
vt 0.291222 0.018618
vt 0.288995 0.017415
vt 0.286092 0.022791
vt 0.286570 0.018140
vt 0.285367 0.020367
vt 0.291946 0.021043
s 1
f 2/1/1 1/2/1 3/3/1
f 4/4/2 3/3/2 1/2/2
f 1/2/2 5/5/2 4/4/2
f 6/6/3 4/4/3 5/5/3
f 5/5/3 7/7/3 6/6/3
f 7/7/4 8/8/4 9/9/4
f 9/9/4 6/6/4 7/7/4
f 10/10/5 9/9/5 8/8/5
f 11/11/6 6/6/6 9/9/6
f 12/12/7 9/9/7 10/10/7
f 9/9/6 12/12/6 11/11/6
f 13/13/8 12/12/8 14/14/8
f 12/12/9 13/13/9 15/15/9
f 10/10/7 14/14/7 12/12/7
f 15/15/9 11/11/9 12/12/9
f 11/11/10 15/15/10 16/16/10
f 16/16/11 15/15/11 17/17/11
f 18/18/12 17/17/12 15/15/12
f 15/15/12 13/13/12 18/18/12
f 20/19/13 17/17/13 18/18/13
f 19/20/14 18/18/14 13/13/14
f 21/21/13 18/18/13 19/20/13
f 18/18/13 21/21/13 20/19/13
f 19/20/13 22/22/13 21/21/13
f 22/22/13 19/20/13 23/23/13
f 23/23/13 24/24/13 22/22/13
f 25/25/13 26/26/13 24/24/13
f 24/24/13 23/23/13 25/25/13
f 27/27/13 28/28/13 26/26/13
f 26/26/13 25/25/13 27/27/13
f 17/17/13 20/19/13 28/28/13
f 28/28/13 27/27/13 17/17/13
f 17/17/11 27/27/11 16/16/11
f 29/29/15 16/16/16 27/27/16
f 27/27/16 25/25/15 29/29/15
f 32/30/17 16/16/17 29/29/17
f 31/31/18 29/29/18 25/25/18
f 29/29/17 30/32/19 32/30/17
f 30/32/20 29/29/20 31/31/20
f 4/4/21 32/30/21 30/32/22
f 6/6/23 11/11/23 32/30/23
f 16/16/10 32/30/10 11/11/10
f 32/30/23 4/4/23 6/6/23
f 34/33/24 31/31/24 33/34/24
f 33/34/25 31/31/25 23/23/25
f 25/25/18 23/23/18 31/31/18
f 31/31/20 34/33/20 30/32/20
f 34/33/26 35/35/26 3/3/26
f 3/3/26 30/32/26 34/33/26
f 35/35/27 34/33/28 14/14/27
f 33/34/24 14/14/24 34/33/24
f 3/3/1 35/35/1 2/1/1
f 36/36/29 2/1/30 35/35/30
f 35/35/30 10/10/29 36/36/29
f 14/14/27 10/10/27 35/35/27
f 8/8/5 36/36/5 10/10/5
f 14/14/8 33/34/8 13/13/8
f 13/13/14 33/34/14 19/20/14
f 23/23/25 19/20/25 33/34/25
f 30/32/22 3/3/22 4/4/21
f 37/37/31 38/38/32 40/39/31
f 38/38/33 37/37/33 39/40/33
f 43/41/34 39/40/35 37/37/34
f 40/39/31 41/42/36 37/37/31
f 42/43/37 37/37/37 41/42/37
f 37/37/34 42/43/38 43/41/34
f 41/42/39 44/44/40 42/43/39
f 39/40/41 45/45/42 38/38/41
