# Blender 4.4.1
# www.blender.org
o Pyramid_2
v 1.447185 0.000000 0.908362
v -1.447186 0.000000 0.908362
v -1.019972 1.195033 0.481148
v 1.447185 0.000000 0.655789
v -1.019972 1.195033 0.237417
v -1.447186 0.000000 0.655789
v -0.936660 1.185230 0.154583
v -0.936660 1.185230 -1.718735
v -0.847877 1.467669 0.065800
v 0.847876 1.467669 0.065800
v 0.936659 1.185230 0.154583
v 0.847876 1.467669 -1.629952
v 0.936659 1.185230 -1.718735
v -0.847877 1.467669 -1.629952
v -0.821171 1.373105 0.039094
v -0.821171 1.373105 -1.603246
v -0.743335 1.620721 -0.038742
v 0.743333 1.620721 -0.038742
v 0.821169 1.373105 0.039094
v 0.743333 1.620721 -1.525410
v 0.821169 1.373105 -1.603246
v -0.743335 1.620721 -1.525410
v -1.447186 0.000000 0.665110
v -1.447186 -0.000000 -2.229261
v -1.019972 1.195033 0.237896
v 1.019971 1.195033 0.237896
v 1.447185 0.000000 0.665110
v 1.019971 1.195033 -1.802047
v 1.447185 -0.000000 -2.229261
v -1.019972 1.195033 -1.802047
vn -0.0000 0.3366 0.9416
vn 0.4359 0.9000 -0.0000
vn -0.9416 0.3366 -0.0000
vn -0.9540 0.2999 -0.0000
vn -0.0000 0.2999 0.9540
vn 0.9540 0.2999 -0.0000
vn -0.0000 0.2999 -0.9540
vn -0.0000 1.0000 -0.0000
vn 0.9416 0.3366 -0.0000
vn -0.0000 0.3366 -0.9416
vt 0.755993 0.639078
vt 0.559565 0.806647
vt 0.480417 0.710390
vt 0.766853 0.661684
vt 0.561255 0.829968
vt 0.469361 0.734598
vt 0.756013 0.232584
vt 0.737467 0.026789
vt 0.761073 0.048541
vt 0.921512 0.031969
vt 0.943270 0.008313
vt 0.938210 0.192371
vt 0.961805 0.214135
vt 0.777770 0.208943
vt 0.332641 0.963508
vt 0.316909 0.783041
vt 0.337549 0.802171
vt 0.478248 0.788054
vt 0.497384 0.767371
vt 0.492476 0.928721
vt 0.513105 0.947862
vt 0.351775 0.942838
vt 0.078682 0.455295
vt 0.001491 0.085758
vt 0.109255 0.172231
vt 0.285090 0.116339
vt 0.371531 0.008305
vt 0.341284 0.291669
vt 0.448387 0.378899
vt 0.165390 0.347649
s 1
f 1/1/1 3/2/1 2/3/1
f 3/2/2 1/1/2 4/4/2
f 4/4/2 5/5/2 3/2/2
f 3/2/3 5/5/3 6/6/3
f 6/6/3 2/3/3 3/2/3
f 8/7/4 7/8/4 9/9/4
f 10/10/5 9/9/5 7/8/5
f 7/8/5 11/11/5 10/10/5
f 12/12/6 10/10/6 11/11/6
f 11/11/6 13/13/6 12/12/6
f 14/14/7 12/12/7 13/13/7
f 13/13/7 8/7/7 14/14/7
f 14/14/8 9/9/8 10/10/8
f 9/9/4 14/14/4 8/7/4
f 10/10/8 12/12/8 14/14/8
f 16/15/4 15/16/4 17/17/4
f 18/18/5 17/17/5 15/16/5
f 15/16/5 19/19/5 18/18/5
f 20/20/6 18/18/6 19/19/6
f 19/19/6 21/21/6 20/20/6
f 22/22/7 20/20/7 21/21/7
f 21/21/7 16/15/7 22/22/7
f 22/22/8 17/17/8 18/18/8
f 17/17/4 22/22/4 16/15/4
f 18/18/8 20/20/8 22/22/8
f 24/23/3 23/24/3 25/25/3
f 26/26/1 25/25/1 23/24/1
f 23/24/1 27/27/1 26/26/1
f 28/28/9 26/26/9 27/27/9
f 27/27/9 29/29/9 28/28/9
f 30/30/10 28/28/10 29/29/10
f 29/29/10 24/23/10 30/30/10
f 30/30/8 25/25/8 26/26/8
f 25/25/3 30/30/3 24/23/3
f 26/26/8 28/28/8 30/30/8
