# Blender 4.4.1
# www.blender.org
o Pyramid_1
v 1.197413 0.438519 -1.701045
v 1.197413 0.438519 0.689995
v -1.193600 0.449729 -1.701045
v 1.468482 -0.004505 -1.974012
v -1.468466 0.008098 -1.974012
v 1.468482 -0.004505 0.962962
v -1.468466 0.008098 0.962962
v -1.468514 -0.003302 1.011050
v 1.468484 -0.003882 1.011050
v 1.197362 0.426496 0.738083
v -0.135355 0.220616 0.828431
v -1.193600 0.449729 0.689995
v -0.088665 0.444987 0.689995
v 0.002691 0.407992 0.653391
v 0.094364 0.444202 0.689995
v 0.512382 0.746808 0.512820
v 0.497928 0.457995 0.691027
v -0.868739 0.988385 0.367447
v 1.198516 0.454989 0.691026
v 0.877191 0.980893 0.367447
v 0.702561 0.457117 0.691027
v 0.573882 0.517567 0.631129
v 0.600245 0.457556 0.391888
v -1.194566 0.465258 0.691026
v -1.194566 0.465258 -1.702077
v 1.198516 0.454989 -1.702077
v -0.868739 0.988385 -1.378498
v -1.015121 0.753363 -1.014698
v -0.868739 0.988385 -1.014538
v -0.868739 0.988385 -0.869484
v -0.845589 0.955010 -0.942011
v 0.877191 0.980893 -1.378498
v -0.411331 1.769893 -0.104488
v -0.411331 1.769893 -0.954919
v 0.016923 2.476994 -0.529704
v 0.439093 1.766244 -0.104488
v 0.439093 1.766244 -0.954919
v 0.879146 0.990921 0.369360
v 0.789321 1.145111 0.278874
v 0.786602 1.149778 0.180824
v 0.386330 1.184083 0.256964
v -0.333157 0.996123 0.369360
v 0.879146 0.990921 -1.380410
v 0.879146 0.990921 -0.505525
v 0.751381 1.175693 0.095481
v 0.748539 1.215116 0.142481
v 0.432845 1.757023 -0.133388
v 0.742357 1.173760 0.234729
v 0.745820 1.219783 0.235053
v 0.432845 1.757023 -0.080225
v -0.290824 1.695989 -0.050987
v -0.290549 1.760127 -0.133388
v -0.329877 1.760296 -0.133388
v -0.329877 1.760296 -0.930825
v 0.432845 1.757023 -0.930825
v -0.870608 0.998430 -1.380410
v -0.417748 1.760673 -0.930825
v -0.870608 0.998430 0.369360
v -0.474356 1.665393 -0.024027
v -0.417748 1.760673 -0.133388
v -0.369205 1.760465 -0.133388
v -0.369481 1.696327 -0.050987
v -0.330289 1.664401 -0.031864
vn 0.8530 0.5219 -0.0000
vn 0.0049 1.0000 -0.0002
vn 0.0047 1.0000 -0.0000
vn 0.0048 1.0000 -0.0001
vn 0.0023 0.5252 -0.8510
vn 0.0025 0.5257 -0.8507
vn 0.0024 0.5255 -0.8508
vn 0.8287 0.5558 0.0663
vn 0.8286 0.5558 0.0663
vn -0.0022 -0.9938 -0.1115
vn -0.0022 -0.9938 -0.1113
vn 0.0001 0.5357 0.8444
vn 0.8286 0.5559 0.0664
vn -0.1344 0.9679 0.2126
vn 0.0027 0.5244 0.8515
vn 0.0023 0.5247 0.8513
vn 0.0023 0.5248 0.8513
vn 0.4740 0.3888 0.7900
vn -0.4763 0.7615 0.4396
vn -0.4375 0.8673 0.2376
vn 0.0052 1.0000 -0.0005
vn 0.3204 0.9359 -0.1462
vn 0.0043 1.0000 -0.0000
vn -0.8490 0.5284 -0.0000
vn 0.2623 0.4972 0.8271
vn 0.0023 0.5250 0.8511
vn -0.2269 0.3979 0.8889
vn 0.7103 -0.6603 0.2439
vn -0.4807 -0.8616 0.1631
vn -0.0043 -1.0000 -0.0000
vn 0.0023 0.5250 -0.8511
vn -0.8488 0.5287 -0.0000
vn -0.7550 0.4700 0.4573
vn -0.5745 0.6583 -0.4863
vn 0.0860 0.9152 0.3937
vn -0.1267 0.8851 -0.4478
vn 0.8533 0.5214 -0.0000
vn -0.8554 0.5180 -0.0000
vn 0.0022 0.5144 0.8576
vn 0.8598 0.5107 -0.0000
vn 0.0022 0.5144 -0.8576
vn 0.0022 0.5071 0.8619
vn -0.0009 0.5094 0.8605
vn 0.8641 0.5034 -0.0000
vn 0.0020 0.5132 0.8583
vn -0.0000 -0.0000 -0.0000
vn 0.6972 0.7134 -0.0711
vn 0.9236 -0.2644 0.2776
vn 0.9981 -0.0355 0.0510
vn 0.0620 -0.0117 0.9980
vn 0.0005 0.5079 0.8614
vn 0.0010 0.5126 0.8586
vn -0.0417 0.7885 0.6136
vn -0.1403 0.7472 0.6496
vn -0.1402 0.7472 0.6496
vn 0.0022 0.5070 -0.8619
vn 0.0022 0.5071 -0.8619
vn -0.0022 -0.5071 0.8619
vn -0.8597 0.5108 -0.0000
vn -0.0443 0.7746 0.6309
vn 0.0010 0.5147 0.8573
vn 0.0022 0.5147 0.8573
vn 0.0135 0.5088 0.8608
vn 0.1467 0.7460 0.6496
vn 0.1468 0.7460 0.6496
vn 0.1466 0.7460 0.6496
vn -0.1404 0.7472 0.6496
vn 0.5111 0.8587 0.0375
vn 0.0563 0.8638 0.5007
vt 0.769261 0.322369
vt 0.718280 0.286628
vt 0.674835 0.067349
vt 0.487833 0.318564
vt 0.709771 0.008311
vt 0.452838 0.367420
vt 0.706159 0.013939
vt 0.439922 0.032163
vt 0.427306 0.029828
vt 0.673513 0.064860
vt 0.555480 0.053946
vt 0.579252 0.077676
vt 0.470672 0.073113
vt 0.562074 0.078102
vt 0.570996 0.080786
vt 0.682747 0.395252
vt 0.687163 0.361314
vt 0.695328 0.372090
vt 0.547396 0.410093
vt 0.710918 0.425409
vt 0.713241 0.368311
vt 0.768107 0.392192
vt 0.260375 0.883959
vt 0.260351 0.907410
vt 0.251307 0.912300
vt 0.273869 0.910428
vt 0.318409 0.904835
vt 0.080346 0.702233
vt 0.094752 0.921002
vt 0.298712 0.685005
vt 0.730787 0.645224
vt 0.474618 0.612212
vt 0.531263 0.571186
vt 0.510931 0.539886
vt 0.501760 0.360571
vt 0.534879 0.539146
vt 0.536290 0.524544
vt 0.536612 0.531899
vt 0.686547 0.586279
vt 0.980314 0.907021
vt 0.960905 0.983265
vt 0.884662 0.963856
vt 0.101373 0.598153
vt 0.176037 0.619181
vt 0.155009 0.693844
vt 0.197065 0.544517
vt 0.904070 0.887613
vt 0.250700 0.640209
vt 0.905451 0.738561
vt 0.889298 0.753660
vt 0.845839 0.743320
vt 0.890760 0.764279
vt 0.917398 0.843375
vt 0.768134 0.706352
vt 0.966655 0.724438
vt 0.855213 0.711831
vt 0.984850 0.563590
vt 0.975753 0.644014
vt 0.888384 0.774901
vt 0.883970 0.770411
vt 0.879387 0.942744
vt 0.883393 0.757854
vt 0.880480 0.761480
vt 0.837760 0.802862
vt 0.837479 0.798352
vt 0.777287 0.780769
vt 0.777179 0.790407
vt 0.829003 0.869441
vt 0.761799 0.857190
vt 0.774123 0.790031
vt 0.684897 0.920560
vt 0.754828 0.855097
vt 0.698838 0.720508
vt 0.767295 0.789429
vt 0.760686 0.777801
vt 0.770344 0.780653
vt 0.771082 0.789774
vt 0.773573 0.777509
vt 0.805808 0.706243
vt 0.824003 0.545395
s 1
f 4/1/1 1/2/1 2/3/1
f 2/3/2 1/2/3 3/4/4
f 3/4/5 1/2/6 4/1/7
f 2/3/1 6/5/1 4/1/1
f 4/1/7 5/6/5 3/4/5
f 9/7/8 6/5/8 2/3/9
f 8/8/10 7/9/10 6/5/10
f 6/5/11 9/7/11 8/8/11
f 8/8/12 9/7/12 10/10/12
f 2/3/9 10/10/13 9/7/8
f 10/10/14 2/3/14 11/11/14
f 7/9/14 8/8/14 10/10/14
f 10/10/14 11/11/14 7/9/14
f 11/11/15 2/3/15 15/12/15
f 12/13/16 7/9/16 11/11/17
f 11/11/17 13/14/17 12/13/16
f 13/14/18 11/11/18 14/15/18
f 14/15/19 11/11/19 15/12/19
f 3/4/20 14/15/20 15/12/20
f 3/4/4 15/12/21 2/3/2
f 3/4/22 13/14/22 14/15/22
f 3/4/23 12/13/23 13/14/23
f 7/9/24 12/13/24 3/4/24
f 3/4/24 5/6/24 7/9/24
f 16/16/25 17/17/25 22/18/25
f 17/17/26 16/16/26 18/19/26
f 16/16/26 20/20/26 18/19/26
f 16/16/26 21/21/26 19/22/26
f 19/22/26 20/20/26 16/16/26
f 22/18/27 21/21/27 16/16/27
f 23/23/28 22/24/28 17/25/28
f 23/23/29 21/26/29 22/24/29
f 19/27/30 23/23/30 25/28/30
f 19/27/30 21/26/30 23/23/30
f 23/23/30 17/25/30 24/29/30
f 24/29/30 25/28/30 23/23/30
f 25/28/30 26/30/30 19/27/30
f 26/31/31 25/32/31 27/33/31
f 28/34/32 27/33/32 25/32/32
f 28/34/32 25/32/32 24/35/32
f 28/34/32 29/36/32 27/33/32
f 28/34/32 18/19/32 30/37/32
f 24/35/32 18/19/32 28/34/32
f 28/34/33 31/38/33 29/36/33
f 28/34/34 30/37/34 31/38/34
f 31/38/35 32/39/35 29/36/35
f 30/37/36 32/39/36 31/38/36
f 27/33/31 32/39/31 26/31/31
f 26/31/37 32/39/37 20/20/37
f 32/39/23 27/33/23 29/36/23
f 18/19/23 20/20/23 32/39/23
f 32/39/23 30/37/23 18/19/23
f 20/20/37 19/22/37 26/31/37
f 18/19/26 24/35/26 17/17/26
f 33/40/30 34/41/30 37/42/30
f 33/43/38 35/44/38 34/45/38
f 36/46/39 35/44/39 33/43/39
f 37/42/30 36/47/30 33/40/30
f 37/48/40 35/44/40 36/46/40
f 34/45/41 35/44/41 37/48/41
f 38/49/42 39/50/42 41/51/43
f 38/49/44 40/52/44 39/50/44
f 44/53/44 40/52/44 38/49/44
f 41/51/43 42/54/45 38/49/42
f 38/55/30 42/56/30 43/57/30
s 0
f 43/57/46 44/58/46 38/55/46
s 1
f 44/53/47 45/59/47 40/52/47
f 44/53/48 46/60/48 45/59/48
f 46/60/44 44/53/44 43/61/44
f 48/62/49 45/59/49 46/60/49
f 49/63/44 46/60/44 47/64/44
f 43/61/44 47/64/44 46/60/44
f 46/60/49 49/63/49 48/62/49
f 49/63/50 41/51/50 48/62/50
f 49/63/42 50/65/51 41/51/43
f 47/64/44 50/65/44 49/63/44
f 42/54/45 41/51/43 50/65/51
f 50/65/51 51/66/52 42/54/45
f 51/66/53 50/65/53 52/67/53
f 47/64/23 52/67/23 50/65/23
f 52/67/23 47/64/23 55/68/23
f 54/69/23 53/70/23 52/67/23
f 51/66/54 52/67/55 53/70/54
f 55/68/23 54/69/23 52/67/23
f 43/61/44 55/68/44 47/64/44
f 55/68/56 43/61/57 56/71/57
f 55/68/56 56/71/57 57/72/56
f 57/72/56 54/69/58 55/68/56
f 57/72/59 56/71/59 58/73/59
f 54/69/23 57/72/23 60/74/23
f 57/72/59 58/73/59 59/75/59
f 59/75/59 60/74/59 57/72/59
f 60/74/60 59/75/60 62/76/60
f 62/76/60 61/77/60 60/74/60
f 60/74/23 61/77/23 54/69/23
f 62/76/61 42/54/45 63/78/62
f 58/73/63 42/54/63 62/76/63
f 62/76/64 63/78/65 53/70/64
f 53/70/64 61/77/66 62/76/64
f 62/76/63 59/75/63 58/73/63
f 63/78/62 42/54/45 51/66/52
f 53/70/54 63/78/67 51/66/54
f 54/69/23 61/77/23 53/70/23
f 43/57/30 42/56/30 58/79/30
f 58/79/30 56/80/30 43/57/30
f 40/52/68 45/59/68 48/62/68
f 48/62/68 39/50/68 40/52/68
f 48/62/69 41/51/69 39/50/69
