# Blender 4.4.1
# www.blender.org
o Stall
v 0.052818 0.000000 0.004508
v 0.043919 0.000000 0.004508
v 0.052818 0.055252 0.004508
v 0.052818 0.055252 -0.004508
v 0.052818 -0.000000 -0.004508
v 0.043919 0.055252 -0.004508
v 0.043919 -0.000000 -0.004508
v 0.043919 0.055252 0.004508
v 0.052817 -0.000000 -0.053229
v 0.043919 -0.000000 -0.053229
v 0.052817 0.055252 -0.053229
v 0.052817 0.055252 -0.062245
v 0.052817 -0.000000 -0.062245
v 0.043919 0.055252 -0.062245
v 0.043919 -0.000000 -0.062245
v 0.043919 0.055252 -0.053229
v 0.004449 -0.000000 -0.053229
v -0.004449 -0.000000 -0.053229
v 0.004449 0.055252 -0.053229
v 0.004449 0.055252 -0.062245
v 0.004449 -0.000000 -0.062245
v -0.004449 -0.000000 -0.062245
v -0.004449 0.055252 -0.062245
v -0.004449 0.055252 -0.053229
v 0.048993 0.021167 0.003905
v -0.000289 0.021167 0.003905
v 0.048993 0.027432 0.003905
v 0.048993 0.027432 -0.060572
v 0.048993 0.021167 -0.060572
v -0.000289 0.021167 -0.060572
v -0.000289 0.027432 -0.060572
v -0.000289 0.027432 0.003905
v -0.010042 0.055118 0.008216
v -0.010560 0.062098 0.006856
v 0.006952 0.065676 0.007853
v -0.010042 0.055118 -0.064883
v 0.024251 0.064710 0.008216
v 0.058546 0.055118 0.008216
v 0.058546 0.064710 -0.064883
v 0.058546 0.064710 0.008216
v 0.058546 0.055118 -0.064883
v 0.006952 0.065676 -0.065245
v 0.024251 0.064710 -0.064883
v 0.006950 0.065676 -0.065245
v -0.009967 0.061913 -0.018822
v 0.004449 0.000000 0.004508
v -0.004449 0.000000 0.004508
v 0.004449 0.055252 0.004508
v 0.004449 0.055252 -0.004508
v 0.004449 -0.000000 -0.004508
v -0.004449 -0.000000 -0.004508
v -0.004449 0.055252 -0.004508
v -0.004449 0.055252 0.004508
vn -0.0000 -0.0000 1.0000
vn 1.0000 -0.0000 -0.0000
vn -0.0000 -0.0000 -1.0000
vn -1.0000 -0.0000 -0.0000
vn -0.0000 1.0000 -0.0000
vn -0.9999 -0.0129 -0.0060
vn -0.0933 0.1837 0.9785
vn -0.0041 0.0145 0.9999
vn 0.0041 -0.0145 -0.9999
vn 0.0041 -0.0144 -0.9999
vn 0.0558 0.9984 -0.0000
vn -0.2125 0.9772 -0.0031
vn -0.2124 0.9772 -0.0031
vn -0.2881 0.4244 -0.8584
vn -0.9999 -0.0128 -0.0060
vn -0.5256 0.8417 -0.1233
vt 0.790789 0.014316
vt 0.791603 0.014437
vt 0.790851 0.019493
vt 0.791676 0.019616
vt 0.792428 0.014560
vt 0.792490 0.019737
vt 0.793242 0.014681
vt 0.793315 0.019860
vt 0.794067 0.014804
vt 0.792367 0.020562
vt 0.791553 0.020441
vt 0.790037 0.019372
vt 0.375488 0.008309
vt 0.376303 0.008430
vt 0.375550 0.013486
vt 0.376375 0.013609
vt 0.377128 0.008553
vt 0.377190 0.013730
vt 0.377942 0.008674
vt 0.378767 0.008797
vt 0.378015 0.013853
vt 0.377067 0.014555
vt 0.376253 0.014434
vt 0.374736 0.013365
vt 0.470114 0.009914
vt 0.470928 0.010035
vt 0.470176 0.015091
vt 0.471001 0.015214
vt 0.471753 0.010158
vt 0.472567 0.010279
vt 0.471815 0.015335
vt 0.471692 0.016160
vt 0.472640 0.015457
vt 0.470878 0.016039
vt 0.469361 0.014970
vt 0.473392 0.010402
vt 0.159200 0.013562
vt 0.161143 0.008288
vt 0.161344 0.008840
vt 0.167178 0.010952
vt 0.167717 0.010716
vt 0.165773 0.015991
vt 0.165573 0.015439
vt 0.159739 0.013326
vt 0.553473 0.016355
vt 0.555924 0.008294
vt 0.556249 0.009045
vt 0.557745 0.009784
vt 0.559373 0.010281
vt 0.563335 0.010939
vt 0.560276 0.017755
vt 0.562461 0.011235
vt 0.560729 0.018484
vt 0.555623 0.016154
vt 0.557269 0.016694
vt 0.555509 0.011500
vt 0.555621 0.016155
vt 0.401773 0.015069
vt 0.402587 0.015190
vt 0.401835 0.020246
vt 0.402660 0.020369
vt 0.403412 0.015313
vt 0.404227 0.015434
vt 0.403474 0.020490
vt 0.403352 0.021315
vt 0.404299 0.020613
vt 0.402537 0.021194
vt 0.401021 0.020125
vt 0.405052 0.015557
s 1
f 2/1/1 1/2/1 3/3/1
f 4/4/2 3/3/2 1/2/2
f 1/2/2 5/5/2 4/4/2
f 6/6/3 4/4/3 5/5/3
f 5/5/3 7/7/3 6/6/3
f 8/8/4 6/6/4 7/7/4
f 7/7/4 2/9/4 8/8/4
f 8/10/5 3/11/5 4/4/5
f 3/3/1 8/12/1 2/1/1
f 4/4/5 6/6/5 8/10/5
f 10/13/1 9/14/1 11/15/1
f 12/16/2 11/15/2 9/14/2
f 9/14/2 13/17/2 12/16/2
f 14/18/3 12/16/3 13/17/3
f 13/17/3 15/19/3 14/18/3
f 15/19/4 10/20/4 16/21/4
f 16/21/4 14/18/4 15/19/4
f 16/22/5 11/23/5 12/16/5
f 11/15/1 16/24/1 10/13/1
f 12/16/5 14/18/5 16/22/5
f 18/25/1 17/26/1 19/27/1
f 20/28/2 19/27/2 17/26/2
f 17/26/2 21/29/2 20/28/2
f 21/29/3 22/30/3 23/31/3
f 23/31/3 20/28/3 21/29/3
f 20/28/5 23/31/5 24/32/5
f 24/33/4 23/31/4 22/30/4
f 24/32/5 19/34/5 20/28/5
f 19/27/1 24/35/1 18/25/1
f 22/30/4 18/36/4 24/33/4
f 26/37/1 25/38/1 27/39/1
f 28/40/2 27/39/2 25/38/2
f 25/38/2 29/41/2 28/40/2
f 29/41/3 30/42/3 31/43/3
f 31/43/3 28/40/3 29/41/3
f 28/40/5 31/43/5 32/44/5
f 32/44/4 31/43/4 30/42/4
f 32/44/5 27/39/5 28/40/5
f 27/39/1 32/44/1 26/37/1
f 30/42/4 26/37/4 32/44/4
f 36/45/6 33/46/6 34/47/6
f 33/46/7 35/48/7 34/47/7
f 37/49/8 35/48/8 33/46/8
f 33/46/8 38/50/8 37/49/8
f 39/51/2 40/52/2 38/50/2
f 38/50/2 41/53/2 39/51/2
f 38/50/1 40/52/1 37/49/1
f 41/53/9 36/45/9 42/54/9
f 42/54/9 43/55/10 41/53/9
f 41/53/3 43/55/3 39/51/3
f 39/51/5 43/55/5 37/49/5
f 35/48/11 37/49/11 43/55/11
f 43/55/11 42/54/11 35/48/11
f 34/47/12 35/48/12 42/54/13
f 42/54/13 45/56/12 34/47/12
f 36/45/14 44/57/14 42/54/14
f 42/54/13 44/57/13 45/56/12
f 34/47/6 45/56/15 36/45/6
f 44/57/16 36/45/16 45/56/16
f 37/49/5 40/52/5 39/51/5
f 47/58/1 46/59/1 48/60/1
f 49/61/2 48/60/2 46/59/2
f 46/59/2 50/62/2 49/61/2
f 50/62/3 51/63/3 52/64/3
f 52/64/3 49/61/3 50/62/3
f 49/61/5 52/64/5 53/65/5
f 53/66/4 52/64/4 51/63/4
f 53/65/5 48/67/5 49/61/5
f 48/60/1 53/68/1 47/58/1
f 51/63/4 47/69/4 53/66/4
