# Blender 4.4.1
# www.blender.org
o Tent_2
v 0.145261 0.226119 0.004239
v 0.145261 0.237276 -0.005157
v 0.147197 0.226119 0.008112
v 0.135074 0.221913 0.006900
v 0.145261 0.221466 -0.005157
v 0.110741 0.221466 0.004211
v 0.004424 0.221466 0.008112
v 0.019985 0.221466 -0.001256
v 0.110655 0.218271 0.008112
v 0.004424 0.210552 0.008112
v 0.147201 0.218263 0.008112
v 0.145261 0.210554 0.008112
v 0.145261 0.053507 0.008112
v 0.151896 0.210552 0.008112
v 0.145261 0.053507 -0.005157
v 0.145261 0.210552 -0.005157
v 0.004424 0.210552 -0.005157
v 0.002818 0.100148 -0.005157
v 0.002807 0.215070 -0.005157
v 0.004424 0.100629 -0.001335
v 0.039030 0.218271 -0.005157
v -0.001110 0.210552 -0.005157
v -0.000363 0.234617 -0.002924
v -0.002212 0.221466 0.008112
v -0.001110 0.053507 -0.005157
v 0.002810 0.222945 -0.005157
v 0.004424 0.237274 -0.005157
v -0.002212 0.053507 0.008112
v 0.004424 0.041406 0.008112
v -0.002212 -0.000000 0.008112
v -0.001110 0.041406 -0.005157
v 0.004424 0.053507 0.008112
v 0.122576 0.053507 -0.005157
v 0.002808 0.049948 -0.005157
v 0.004424 0.041408 -0.005157
v 0.004424 -0.000000 -0.005157
v 0.145261 0.041406 0.008112
v 0.145261 0.041406 -0.005157
v 0.151896 0.053507 -0.005157
v 0.151896 -0.000000 0.003658
v 0.151896 0.041406 0.008112
v 0.151896 0.221466 -0.005157
v 0.151896 0.221466 0.008112
v 0.151896 0.237276 0.008112
v -0.002212 -0.000000 -0.002954
v 0.004424 0.226119 -0.001284
v 0.004424 0.237276 0.008112
v 0.000203 0.237276 -0.001292
v 0.145261 0.226119 -0.337362
v 0.145261 0.237276 -0.346758
v 0.147197 0.226119 -0.333490
v 0.135074 0.221913 -0.334701
v 0.145261 0.221466 -0.346758
v 0.110741 0.221466 -0.337390
v 0.004424 0.221466 -0.333490
v 0.019985 0.221466 -0.342857
v 0.110655 0.218271 -0.333490
v 0.004424 0.210552 -0.333490
v 0.147201 0.218263 -0.333490
v 0.145261 0.210554 -0.333490
v 0.145261 0.053507 -0.333490
v 0.151896 0.210552 -0.333490
v 0.145261 0.053507 -0.346758
v 0.145261 0.210552 -0.346758
v 0.004424 0.210552 -0.346758
v -0.001110 0.210552 -0.346758
v 0.002818 0.100148 -0.346758
v 0.002807 0.215070 -0.346758
v 0.004424 0.100629 -0.342936
v 0.039030 0.218271 -0.346758
v 0.002810 0.222945 -0.346758
v 0.004424 0.237274 -0.346758
v 0.004424 0.226119 -0.342885
v 0.004424 0.237276 -0.333490
v -0.002212 0.221466 -0.333490
v 0.000203 0.237276 -0.342894
v -0.000363 0.234617 -0.344525
v -0.002212 0.053507 -0.333490
v 0.004424 0.041406 -0.333490
v -0.002212 -0.000000 -0.333490
v -0.001110 0.041406 -0.346758
v 0.004424 0.053507 -0.333490
v -0.001110 0.053507 -0.346758
v 0.002808 0.049948 -0.346758
v 0.004424 0.041408 -0.346758
v 0.122576 0.053507 -0.346758
v 0.145261 0.041406 -0.346758
v 0.145261 0.041406 -0.333490
v 0.151896 0.053507 -0.346758
v 0.151896 -0.000000 -0.337943
v 0.151896 0.041406 -0.333490
v 0.151896 0.221466 -0.346758
v 0.151896 0.221466 -0.333490
v 0.151896 0.237276 -0.333490
v 0.004424 -0.000000 -0.346758
v -0.002212 -0.000000 -0.344555
v 0.099607 0.111858 -0.358857
v 0.124270 0.141417 -0.358857
v 0.063458 0.160149 -0.358830
v 0.035140 0.099297 -0.349067
v 0.009174 0.159752 -0.356246
v 0.071782 0.083721 -0.355226
v 0.112185 0.102094 -0.358180
v 0.095697 0.086246 -0.353570
v 0.130998 0.100621 -0.357700
v 0.142721 0.115983 -0.354496
v 0.140713 0.144910 -0.358857
v 0.140713 0.159722 -0.356246
v 0.075685 0.187238 -0.352322
v 0.140713 0.187592 -0.351023
v 0.107866 0.222668 -0.349668
v 0.140713 0.222617 -0.349652
v 0.108140 0.225406 -0.336802
v 0.140713 0.225693 -0.336674
v 0.111433 0.226389 -0.326296
v 0.141617 0.229059 -0.325812
v 0.108180 0.215507 -0.257832
v 0.140713 0.221671 -0.263039
v 0.108510 0.197232 -0.197826
v 0.140883 0.208108 -0.199197
v 0.110498 0.189003 -0.148103
v 0.142608 0.204814 -0.143858
v 0.116549 0.199590 -0.096536
v 0.142873 0.209768 -0.086586
v 0.141258 0.222822 -0.026164
v 0.108713 0.217569 -0.027117
v 0.108841 0.226468 0.007496
v 0.075985 0.214792 -0.026593
v 0.082888 0.226404 0.007701
v 0.042203 0.224903 0.007947
v 0.075652 0.222969 0.016178
v 0.042216 0.221496 0.016466
v 0.077456 0.182112 0.006860
v 0.009143 0.221227 0.016505
v 0.009174 0.185872 0.016548
v 0.008976 0.225122 0.007880
v 0.008276 0.220601 -0.027141
v 0.042082 0.216255 -0.026365
v 0.045695 0.191021 -0.077585
v 0.076498 0.188899 -0.081355
v 0.076728 0.174120 -0.136306
v 0.077354 0.179524 -0.189728
v 0.042936 0.181728 -0.139672
v 0.042600 0.188050 -0.197042
v 0.009004 0.209253 -0.083773
v 0.007693 0.198728 -0.144068
v 0.008647 0.201178 -0.198753
v 0.005489 0.207340 -0.253135
v 0.041236 0.208641 -0.255981
v 0.042594 0.226799 -0.325027
v 0.077405 0.221390 -0.323622
v 0.075341 0.209888 -0.255624
v 0.075109 0.224569 -0.336435
v 0.042059 0.225561 -0.336674
v 0.074964 0.222637 -0.349623
v 0.042059 0.222760 -0.349652
v 0.042613 0.187416 -0.351993
v 0.009174 0.222662 -0.349652
v 0.009174 0.225785 -0.336674
v 0.008968 0.228004 -0.325121
v 0.009174 0.187636 -0.351023
v 0.049778 0.140796 0.012747
v 0.009233 0.123698 0.016305
v 0.029629 0.118511 0.016852
v 0.020845 0.114939 0.016952
v 0.038398 0.107093 0.018258
v 0.053663 0.103574 0.010670
v 0.076228 0.112251 0.015453
v 0.077363 0.127231 0.014781
v 0.103838 0.133838 0.010518
v 0.088892 0.110168 0.013965
v 0.102030 0.114469 0.012082
v 0.117452 0.135952 0.008771
v 0.142165 0.138050 0.015293
v 0.127412 0.128445 0.010836
v 0.136686 0.123026 0.012261
v 0.141160 0.147365 0.016162
v 0.141294 0.186066 0.016204
v 0.144533 0.222963 0.014282
v 0.144218 0.226980 0.005941
v 0.010690 0.088313 -0.348281
vn -1.0000 -0.0000 -0.0000
vn -0.8370 0.3525 0.4185
vn -0.8371 0.3523 0.4185
vn -0.8371 0.3524 0.4185
vn -0.3381 0.9258 0.1690
vn -0.1320 0.9802 -0.1477
vn -0.1319 0.9802 -0.1478
vn -0.1320 0.9802 -0.1479
vn 0.0032 0.7736 0.6337
vn -0.0000 1.0000 -0.0000
vn -0.0000 -0.0000 1.0000
vn -0.0000 0.1061 0.9944
vn -0.0000 0.1062 0.9943
vn -0.0000 0.1060 0.9944
vn -0.0000 -1.0000 -0.0000
vn -0.0000 -1.0000 0.0002
vn -0.0000 -1.0000 0.0001
vn -0.0000 -0.0000 -1.0000
vn 0.9223 -0.0093 -0.3863
vn 0.9223 -0.0094 -0.3863
vn 0.9223 -0.0092 -0.3863
vn 1.0000 -0.0000 -0.0000
vn -0.4641 0.0961 -0.8806
vn -0.9923 0.0416 -0.1166
vn -0.9229 -0.0000 0.3849
vn -0.9229 -0.0000 0.3851
vn -0.9966 -0.0000 -0.0828
vn -0.9229 -0.0000 0.3850
vn 0.9931 -0.0230 -0.1148
vn -0.0287 0.9663 -0.2557
vn -0.0000 -1.0000 -0.0002
vn -0.0000 -1.0000 -0.0001
vn -1.0000 -0.0001 -0.0000
vn 0.8944 -0.0000 -0.4473
vn 0.8944 -0.0000 -0.4472
vn 0.8944 -0.0001 -0.4473
vn 0.8944 0.0001 -0.4472
vn -0.0000 -0.0001 1.0000
vn 0.8945 -0.0000 0.4471
vn 0.8944 -0.0000 0.4474
vn 0.8944 -0.0000 0.4473
vn 0.8944 -0.0000 0.4472
vn 0.8944 -0.0000 -0.4474
vn 0.8374 0.3514 -0.4187
vn -0.0719 -0.0000 0.9974
vn -0.0718 -0.0000 0.9974
vn 0.8854 -0.1419 0.4427
vn -0.3148 -0.0421 -0.9482
vn -0.9996 0.0266 -0.0000
vn 0.9458 -0.1065 -0.3068
vn -0.5798 0.5124 -0.6335
vn 0.0003 1.0000 -0.0002
vn -0.8945 0.3214 0.3107
vn -0.8946 0.3214 0.3106
vn -0.8946 0.3213 0.3106
vn 0.2856 0.9557 0.0717
vn 0.2856 0.9557 0.0718
vn 0.2856 0.9556 0.0719
vn 0.0082 0.7929 -0.6093
vn 0.0083 0.7929 -0.6093
vn 0.0082 0.7929 -0.6094
vn 0.9458 -0.1065 -0.3069
vn -0.8946 0.3213 0.3105
vn -0.5798 0.5122 -0.6336
vn -0.9229 0.0001 0.3849
vn -0.9230 -0.0000 0.3849
vn 0.8853 -0.1419 0.4428
vn -0.0146 -0.0879 -0.9960
vn -0.0004 0.0003 -1.0000
vn -0.0473 -0.0348 -0.9983
vn -0.1267 -0.1174 -0.9850
vn -0.1267 -0.1175 -0.9850
vn 0.0900 -0.2145 -0.9726
vn -0.0147 -0.0880 -0.9960
vn 0.0236 -0.0245 -0.9994
vn 0.1518 -0.0591 -0.9866
vn 0.1519 -0.0590 -0.9866
vn 0.1517 -0.0591 -0.9867
vn -0.0369 0.1735 -0.9841
vn 0.0098 0.1639 -0.9864
vn 0.0133 0.0510 -0.9986
vn -0.0030 0.9756 -0.2194
vn -0.0443 0.9806 -0.1909
vn -0.0443 0.9806 -0.1910
vn -0.1284 0.9828 0.1328
vn -0.2230 0.9439 0.2436
vn -0.2232 0.9439 0.2436
vn -0.2231 0.9439 0.2436
vn -0.3842 0.9162 0.1141
vn -0.3841 0.9162 0.1142
vn -0.3817 0.9178 -0.1089
vn -0.2039 0.9487 -0.2416
vn -0.0847 0.9786 -0.1876
vn -0.0499 0.9586 -0.2803
vn -0.2412 0.9099 -0.3376
vn -0.2411 0.9099 -0.3376
vn -0.2412 0.9098 -0.3376
vn -0.0348 0.9321 0.3605
vn -0.0023 0.9591 -0.2830
vn -0.0022 0.9592 -0.2829
vn 0.0083 0.9160 0.4010
vn -0.0009 0.9200 0.3919
vn 0.0182 -0.2216 0.9750
vn 0.0924 -0.0834 0.9922
vn 0.0923 -0.0835 0.9922
vn 0.0691 0.9799 -0.1869
vn 0.3176 0.9018 -0.2932
vn 0.3176 0.9017 -0.2932
vn 0.3177 0.9017 -0.2932
vn 0.0231 0.9008 -0.4336
vn -0.3837 0.9028 -0.1940
vn -0.3838 0.9028 -0.1940
vn -0.2413 0.9098 -0.3377
vn 0.1446 0.9686 -0.2023
vn 0.1445 0.9686 -0.2023
vn -0.4144 0.9015 0.1246
vn 0.2125 0.9717 0.1033
vn 0.2126 0.9717 0.1034
vn 0.1447 0.9686 -0.2023
vn 0.3926 0.9167 0.0739
vn 0.2126 0.9716 0.1034
vn 0.4530 0.8776 -0.1572
vn 0.1668 0.9611 0.2202
vn 0.1666 0.9611 0.2202
vn 0.0092 0.9640 0.2657
vn 0.0535 0.9757 0.2125
vn 0.0536 0.9757 0.2125
vn 0.0534 0.9757 0.2125
vn 0.0559 0.9249 0.3760
vn 0.0558 0.9249 0.3760
vn 0.0560 0.9249 0.3760
vn -0.2702 0.8964 0.3513
vn -0.2701 0.8964 0.3513
vn -0.1439 0.9774 0.1547
vn -0.0811 0.9903 0.1126
vn -0.0811 0.9903 0.1125
vn -0.0811 0.9903 0.1127
vn 0.0920 0.9934 0.0681
vn 0.0920 0.9934 0.0683
vn 0.0920 0.9934 0.0682
vn 0.0173 0.9839 -0.1780
vn -0.0141 0.9843 -0.1761
vn -0.0043 0.0709 -0.9975
vn -0.0035 0.0728 -0.9973
vn -0.0015 0.0744 -0.9972
vn -0.0014 0.0760 -0.9971
vn 0.0019 0.9749 -0.2225
vn -0.0042 0.0710 -0.9975
vn -0.0145 0.0526 -0.9985
vn 0.0215 0.9888 -0.1477
vn -0.0401 0.1990 -0.9792
vn -0.0084 0.2372 -0.9714
vn 0.3178 0.9017 -0.2931
vn -0.2703 0.8964 0.3513
vn 0.1428 0.0452 0.9887
vn 0.0890 -0.0038 0.9960
vn 0.0248 0.1594 0.9869
vn 0.0247 0.1595 0.9869
vn -0.0121 0.0577 0.9983
vn 0.4445 -0.0036 0.8958
vn -0.1797 -0.0735 0.9810
vn -0.0497 0.0485 0.9976
vn 0.1509 0.0329 0.9880
vn 0.1268 0.0641 0.9899
vn 0.1207 0.0678 0.9904
vn 0.1235 0.0661 0.9901
vn 0.1170 0.0690 0.9907
vn 0.1164 0.0691 0.9908
vn -0.1515 -0.6168 0.7724
vn -0.1515 -0.6166 0.7725
vn -0.1515 -0.6166 0.7726
vn -0.1515 -0.6167 0.7725
vn -0.2170 -0.1165 0.9692
vn -0.1117 -0.1042 0.9883
vn -0.1448 -0.0006 0.9895
vn -0.0388 0.0544 0.9978
vn -0.0388 0.0543 0.9978
vn -0.0530 -0.0936 0.9942
vn -0.0530 -0.0935 0.9942
vn -0.0530 -0.0937 0.9942
vn 0.0060 0.9010 0.4337
vn -0.0846 0.9786 -0.1875
vn -0.0027 0.1429 0.9897
vn 0.0631 0.2061 -0.9765
vn 0.0177 -0.1104 -0.9937
vt 0.009963 0.180880
vt 0.011030 0.181329
vt 0.010416 0.181763
vt 0.011416 0.181544
vt 0.011481 0.180890
vt 0.621387 0.011539
vt 0.623583 0.011027
vt 0.624645 0.011037
vt 0.624629 0.012145
vt 0.611611 0.012421
vt 0.621305 0.010974
vt 0.613062 0.013285
vt 0.611472 0.011249
vt 0.624322 0.009749
vt 0.624625 0.010530
vt 0.011747 0.179635
vt 0.011119 0.179727
vt 0.007718 0.162343
vt 0.006225 0.162659
vt 0.011810 0.180641
vt 0.009614 0.179993
vt 0.611300 0.009806
vt 0.624151 0.008304
vt 0.624772 0.013302
vt 0.611902 0.014905
vt 0.614879 0.013641
vt 0.394192 0.060622
vt 0.394579 0.072680
vt 0.393750 0.060693
vt 0.395085 0.072671
vt 0.611680 0.014506
vt 0.394720 0.073195
vt 0.393118 0.072785
vt 0.395164 0.075433
vt 0.394661 0.075734
vt 0.391552 0.072831
vt 0.392824 0.074004
vt 0.391788 0.075511
vt 0.391947 0.055647
vt 0.394326 0.055477
vt 0.390507 0.055634
vt 0.394761 0.074109
vt 0.392547 0.055596
vt 0.392301 0.054278
vt 0.392013 0.049683
vt 0.390727 0.054264
vt 0.393949 0.055092
vt 0.863634 0.012929
vt 0.863750 0.011421
vt 0.874648 0.012583
vt 0.876711 0.011085
vt 0.863715 0.010098
vt 0.393779 0.054158
vt 0.394289 0.054146
vt 0.863779 0.013865
vt 0.393578 0.049660
vt 0.876676 0.009762
vt 0.863678 0.008648
vt 0.876638 0.008312
vt 0.876743 0.013907
vt 0.005635 0.162893
vt 0.005231 0.161467
vt 0.876733 0.012561
vt 0.012803 0.162013
vt 0.008430 0.160688
vt 0.009272 0.159411
vt 0.001491 0.158343
vt 0.003885 0.162384
vt 0.008664 0.161249
vt 0.009338 0.162338
vt 0.009421 0.181177
vt 0.008060 0.180579
vt 0.008696 0.182059
vt 0.010511 0.182988
vt 0.012175 0.181248
vt 0.394235 0.049628
vt 0.390801 0.049727
vt 0.394321 0.074476
vt 0.393193 0.075684
vt 0.395230 0.075776
vt 0.222284 0.008282
vt 0.223441 0.009158
vt 0.222869 0.009213
vt 0.392021 0.075785
vt 0.393357 0.073972
vt 0.611539 0.013316
vt 0.611532 0.013764
vt 0.430521 0.258737
vt 0.431588 0.259186
vt 0.430974 0.259621
vt 0.431974 0.259402
vt 0.432039 0.258748
vt 0.574074 0.011539
vt 0.576271 0.011027
vt 0.577332 0.011037
vt 0.577316 0.012145
vt 0.564298 0.012422
vt 0.573992 0.010974
vt 0.565750 0.013285
vt 0.564159 0.011250
vt 0.577009 0.009749
vt 0.577313 0.010530
vt 0.432305 0.257492
vt 0.431677 0.257585
vt 0.428275 0.240200
vt 0.426782 0.240517
vt 0.432368 0.258499
vt 0.430172 0.257850
vt 0.563987 0.009806
vt 0.576839 0.008304
vt 0.426628 0.044620
vt 0.426262 0.045145
vt 0.426121 0.044629
vt 0.425733 0.032571
vt 0.425292 0.032642
vt 0.424660 0.044735
vt 0.577459 0.013302
vt 0.564589 0.014906
vt 0.567567 0.013641
vt 0.564367 0.014506
vt 0.564219 0.013764
vt 0.426204 0.047684
vt 0.425863 0.046426
vt 0.426303 0.046059
vt 0.564227 0.013316
vt 0.424735 0.047634
vt 0.424899 0.045922
vt 0.424366 0.045954
vt 0.423563 0.047734
vt 0.201256 0.008282
vt 0.202413 0.009158
vt 0.201841 0.009213
vt 0.423331 0.047461
vt 0.426772 0.047725
vt 0.426706 0.047383
vt 0.423094 0.044781
vt 0.423489 0.027597
vt 0.424088 0.027546
vt 0.423843 0.026228
vt 0.423554 0.021633
vt 0.422269 0.026214
vt 0.422049 0.027584
vt 0.425868 0.027427
vt 0.425491 0.027042
vt 0.425831 0.026096
vt 0.832092 0.012929
vt 0.832208 0.011421
vt 0.843106 0.012583
vt 0.832238 0.013865
vt 0.425321 0.026108
vt 0.845169 0.011085
vt 0.845201 0.013907
vt 0.845191 0.012561
vt 0.832136 0.008648
vt 0.845096 0.008312
vt 0.845134 0.009762
vt 0.433361 0.239870
vt 0.428988 0.238546
vt 0.429829 0.237268
vt 0.426193 0.240751
vt 0.425789 0.239324
vt 0.422049 0.236201
vt 0.424442 0.240241
vt 0.429222 0.239106
vt 0.429896 0.240196
vt 0.429979 0.259035
vt 0.428618 0.258436
vt 0.431069 0.260846
vt 0.429254 0.259916
vt 0.432733 0.259105
vt 0.832174 0.010098
vt 0.425120 0.021610
vt 0.425777 0.021578
vt 0.422343 0.021676
vt 0.725710 0.011029
vt 0.723526 0.013855
vt 0.724513 0.010170
vt 0.729213 0.015372
vt 0.734230 0.015150
vt 0.728192 0.008307
vt 0.731686 0.009589
vt 0.725982 0.008592
vt 0.722772 0.010093
vt 0.721696 0.011550
vt 0.722016 0.014241
vt 0.722072 0.015627
vt 0.728186 0.017994
vt 0.722178 0.018246
vt 0.725329 0.021395
vt 0.722283 0.021472
vt 0.725338 0.022616
vt 0.722310 0.022696
vt 0.725046 0.023600
vt 0.722235 0.023740
vt 0.725574 0.030006
vt 0.722501 0.029564
vt 0.725759 0.035811
vt 0.722600 0.035681
vt 0.725808 0.040533
vt 0.722560 0.041075
vt 0.725343 0.045475
vt 0.722867 0.046653
vt 0.726455 0.052141
vt 0.723413 0.052450
vt 0.726600 0.055454
vt 0.729003 0.055369
vt 0.729547 0.052029
vt 0.732800 0.055268
vt 0.732824 0.056126
vt 0.729711 0.056177
vt 0.735891 0.056017
vt 0.729714 0.060048
vt 0.735883 0.055149
vt 0.736018 0.059258
vt 0.732748 0.051969
vt 0.735931 0.051894
vt 0.732142 0.046776
vt 0.729316 0.046498
vt 0.729159 0.041439
vt 0.728935 0.036739
vt 0.732289 0.041070
vt 0.735846 0.040567
vt 0.732095 0.035779
vt 0.735965 0.046478
vt 0.735382 0.035290
vt 0.731914 0.030040
vt 0.735262 0.030176
vt 0.731512 0.023443
vt 0.728251 0.023776
vt 0.728701 0.030165
vt 0.728424 0.022536
vt 0.731504 0.022364
vt 0.728384 0.021291
vt 0.731443 0.021142
vt 0.734548 0.022215
vt 0.731248 0.017878
vt 0.734487 0.020989
vt 0.734623 0.023295
vt 0.734344 0.017764
vt 0.732506 0.063686
vt 0.736424 0.064924
vt 0.734601 0.065582
vt 0.735443 0.065833
vt 0.733920 0.066716
vt 0.732381 0.067151
vt 0.730206 0.066457
vt 0.729980 0.065102
vt 0.727377 0.064648
vt 0.729072 0.066737
vt 0.727830 0.066455
vt 0.726060 0.064780
vt 0.723758 0.064145
vt 0.724974 0.065287
vt 0.724014 0.065604
vt 0.723874 0.063311
vt 0.723762 0.059733
vt 0.723340 0.056316
vt 0.723318 0.055458
vt 0.733922 0.008512
s 1
f 5/1/1 1/2/1 2/3/1
f 2/3/2 1/2/3 3/4/4
f 1/2/5 4/5/5 3/4/5
f 6/6/6 4/7/7 1/8/8
f 1/8/8 5/9/8 6/6/6
f 6/6/9 7/10/9 9/11/9
f 8/12/10 7/10/10 6/6/10
f 6/6/10 5/9/10 8/12/10
f 9/11/9 4/7/9 6/6/9
f 9/11/11 7/10/11 10/13/11
f 10/13/11 12/14/11 9/11/11
f 11/15/12 4/7/13 9/11/12
f 9/11/12 12/14/14 11/15/12
f 14/16/11 12/17/11 13/18/11
f 15/19/1 13/18/1 12/17/1
f 11/20/11 12/17/11 14/16/11
f 12/17/1 16/21/1 15/19/1
f 17/22/15 16/23/16 12/14/17
f 12/14/17 10/13/15 17/22/15
f 16/24/18 17/25/18 21/26/18
f 18/27/19 17/28/20 20/29/21
f 22/30/18 17/28/18 18/27/18
f 21/26/18 17/25/18 19/31/18
f 22/30/18 19/32/18 17/28/18
f 20/29/22 17/28/22 10/33/22
f 22/30/23 23/34/23 27/35/23
f 22/36/24 24/37/24 23/38/24
f 24/37/25 22/36/25 28/39/26
f 18/27/18 25/40/18 22/30/18
f 25/41/27 28/39/27 22/36/27
f 22/30/18 26/42/18 19/32/18
f 26/42/18 22/30/18 27/35/18
f 32/43/11 10/33/11 28/39/11
f 28/39/26 10/33/28 24/37/25
f 32/43/11 28/39/11 29/44/11
f 30/45/25 29/44/28 28/39/25
f 28/39/25 31/46/25 30/45/25
f 28/39/27 25/41/27 31/46/27
f 20/29/29 32/43/29 34/47/29
f 10/33/22 32/43/22 20/29/22
f 34/48/30 32/49/30 33/50/30
f 33/50/10 32/49/10 13/51/10
f 13/51/11 32/49/11 29/52/11
f 34/47/18 35/53/18 31/54/18
f 31/54/18 25/40/18 34/47/18
f 25/40/18 18/27/18 34/47/18
f 20/29/21 34/47/19 18/27/19
f 33/50/18 35/55/18 34/48/18
f 31/54/18 35/53/18 36/56/18
f 36/56/22 35/53/22 29/44/22
f 37/57/15 29/52/31 35/58/32
f 35/58/32 38/59/15 37/57/15
f 38/60/18 35/55/18 33/50/18
f 15/19/18 39/61/18 38/62/18
f 33/50/18 15/63/18 38/60/18
f 40/64/33 37/65/33 38/66/33
f 40/67/34 38/62/35 39/61/36
f 39/61/36 41/68/37 40/67/34
f 41/69/11 37/65/11 40/64/38
f 13/18/11 37/65/11 41/69/11
f 14/16/39 13/18/40 41/69/41
f 41/69/41 39/70/42 14/16/39
f 42/71/34 14/72/35 39/61/34
f 39/61/34 16/21/43 42/71/34
f 15/19/18 16/21/18 39/61/18
f 43/73/22 42/71/22 44/74/22
f 42/71/22 43/73/22 14/72/22
f 5/1/18 42/71/18 16/21/18
f 5/1/18 2/3/18 42/71/18
f 42/71/44 2/3/44 44/74/44
f 43/75/11 44/74/11 3/4/11
f 3/4/4 44/74/2 2/3/2
f 11/20/45 43/75/46 3/4/45
f 14/16/11 43/75/11 11/20/11
f 29/52/11 37/57/11 13/51/11
f 36/56/47 29/44/47 30/45/47
f 45/76/48 31/54/48 36/56/48
f 45/77/49 30/45/49 31/46/49
f 13/51/10 15/63/10 33/50/10
f 27/35/50 46/78/50 26/42/50
f 46/78/22 27/35/22 47/79/22
f 48/80/51 27/35/51 23/34/51
f 47/81/52 27/82/52 48/83/52
f 24/37/53 47/79/54 48/84/55
f 48/84/55 23/38/55 24/37/53
f 47/79/22 7/85/22 46/78/22
f 7/85/11 47/79/11 24/37/11
f 46/86/56 7/10/57 8/12/57
f 8/12/57 26/87/58 46/86/56
f 19/31/18 26/87/18 21/26/18
f 21/26/59 26/87/60 8/12/59
f 7/85/11 24/37/11 10/33/11
f 21/26/18 5/9/18 16/24/18
f 8/12/59 5/9/61 21/26/59
f 3/4/45 4/5/45 11/20/45
f 53/88/1 49/89/1 50/90/1
f 50/90/2 49/89/4 51/91/2
f 49/89/5 52/92/5 51/91/5
f 54/93/6 52/94/7 49/95/8
f 49/95/8 53/96/8 54/93/6
f 54/93/9 55/97/9 57/98/9
f 56/99/10 55/97/10 54/93/10
f 54/93/10 53/96/10 56/99/10
f 57/98/9 52/94/9 54/93/9
f 57/98/11 55/97/11 58/100/11
f 58/100/11 60/101/11 57/98/11
f 59/102/12 52/94/13 57/98/12
f 57/98/12 60/101/14 59/102/12
f 62/103/11 60/104/11 61/105/11
f 63/106/1 61/105/1 60/104/1
f 59/107/11 60/104/11 62/103/11
f 60/104/1 64/108/1 63/106/1
f 65/109/15 64/110/16 60/101/17
f 60/101/17 58/100/15 65/109/15
f 66/111/18 68/112/18 65/113/18
f 66/111/18 65/113/18 67/114/18
f 69/115/22 65/113/22 58/116/22
f 64/117/18 65/118/18 70/119/18
f 67/114/19 65/113/20 69/115/21
f 70/119/18 65/118/18 68/120/18
f 70/119/59 71/121/60 56/99/59
f 56/99/59 53/96/61 70/119/59
f 68/120/18 71/121/18 70/119/18
f 70/119/18 53/96/18 64/117/18
f 72/122/62 73/123/62 71/124/62
f 71/124/18 66/111/18 72/122/18
f 66/111/18 71/124/18 68/112/18
f 56/99/57 71/121/58 73/125/56
f 73/125/56 55/97/58 56/99/57
f 74/126/22 55/127/22 73/123/22
f 73/123/22 72/122/22 74/126/22
f 55/127/11 74/126/11 75/128/11
f 75/128/54 74/126/54 76/129/55
f 74/130/52 72/131/52 76/132/52
f 76/129/55 77/133/63 75/128/54
f 76/134/64 72/122/64 77/135/64
f 66/111/23 77/135/23 72/122/23
f 66/136/24 75/128/24 77/133/24
f 55/127/11 75/128/11 58/116/11
f 75/128/25 66/136/65 78/137/26
f 78/137/26 58/116/28 75/128/25
f 82/138/11 58/116/11 78/137/11
f 82/138/11 78/137/11 79/139/11
f 80/140/66 79/139/28 78/137/28
f 78/137/28 81/141/25 80/140/66
f 78/137/27 83/142/27 81/141/27
f 83/142/27 78/137/27 66/136/27
f 67/114/18 83/143/18 66/111/18
f 83/143/18 67/114/18 84/144/18
f 81/145/18 83/143/18 84/144/18
f 69/115/29 82/138/29 84/144/29
f 84/146/30 82/147/30 86/148/30
f 69/115/21 84/144/19 67/114/19
f 86/148/18 85/149/18 84/146/18
f 84/144/18 85/150/18 81/145/18
f 86/148/10 82/147/10 61/151/10
f 87/152/18 85/149/18 86/148/18
f 61/151/10 63/153/10 86/148/10
f 86/148/18 63/153/18 87/152/18
f 85/154/32 87/155/15 88/156/15
f 90/157/33 88/158/33 87/159/33
f 63/106/18 89/160/18 87/161/18
f 90/162/34 87/161/35 89/160/36
f 89/160/36 91/163/35 90/162/34
f 91/164/11 88/158/11 90/157/38
f 61/105/11 88/158/11 91/164/11
f 62/103/42 61/105/41 91/164/41
f 91/164/41 89/165/42 62/103/42
f 92/166/34 62/167/37 89/160/43
f 89/160/43 64/108/43 92/166/34
f 63/106/18 64/108/18 89/160/18
f 92/166/44 50/90/44 94/168/44
f 53/88/18 50/90/18 92/166/18
f 92/166/22 93/169/22 62/167/22
f 93/169/22 92/166/22 94/168/22
f 53/88/18 92/166/18 64/108/18
f 93/170/11 94/168/11 51/91/11
f 51/91/2 94/168/2 50/90/2
f 62/103/11 93/170/11 59/107/11
f 59/107/46 93/170/46 51/91/45
f 79/171/11 88/156/11 61/151/11
f 88/156/15 79/171/31 85/154/32
f 81/145/18 85/150/18 95/172/18
f 95/172/22 85/150/22 79/139/22
f 95/172/67 79/139/67 80/140/67
f 96/173/48 81/145/48 95/172/48
f 96/174/49 80/140/49 81/141/49
f 58/116/22 82/138/22 69/115/22
f 61/151/11 82/147/11 79/171/11
f 51/91/45 52/92/45 59/107/46
f 97/175/68 98/176/68 103/177/68
f 97/175/69 99/178/69 98/176/69
f 101/179/70 99/178/70 97/175/70
f 97/175/71 102/180/71 100/181/71
f 100/181/72 101/179/72 97/175/72
f 102/180/73 97/175/73 104/182/73
f 103/177/68 104/182/74 97/175/68
f 103/177/75 98/176/75 105/183/75
f 106/184/76 105/183/77 98/176/76
f 98/176/76 107/185/78 106/184/76
f 98/176/79 108/186/79 107/185/79
f 109/187/80 110/188/80 108/186/80
f 108/186/80 98/176/80 109/187/80
f 111/189/81 112/190/81 110/188/81
f 110/188/81 109/187/81 111/189/81
f 112/190/82 111/189/82 113/191/82
f 113/191/82 114/192/82 112/190/82
f 114/192/83 113/191/83 115/193/83
f 115/193/84 116/194/84 114/192/84
f 116/194/85 115/193/85 117/195/85
f 117/195/85 118/196/85 116/194/85
f 118/196/86 117/195/86 119/197/86
f 119/197/87 120/198/87 118/196/88
f 121/199/89 122/200/89 120/198/89
f 120/198/90 119/197/89 121/199/90
f 122/200/91 121/199/91 123/201/91
f 123/201/91 124/202/91 122/200/91
f 126/203/92 125/204/92 124/202/92
f 124/202/92 123/201/92 126/203/92
f 125/204/93 126/203/93 127/205/93
f 129/206/94 127/205/94 126/203/94
f 128/207/95 126/203/96 123/201/97
f 126/203/94 128/207/94 129/206/94
f 129/206/98 130/208/98 132/209/98
f 130/208/99 129/206/99 128/207/100
f 132/209/98 131/210/98 129/206/98
f 127/205/101 129/206/101 131/210/101
f 134/211/102 132/209/102 130/208/102
f 131/210/103 132/209/103 133/212/103
f 133/212/104 132/209/105 134/211/104
f 130/208/102 136/213/102 134/211/102
f 134/211/104 135/214/104 133/212/104
f 136/213/106 130/208/106 138/215/106
f 138/215/106 137/216/106 136/213/106
f 137/216/107 138/215/108 139/217/109
f 140/218/110 139/217/110 138/215/110
f 138/215/110 128/207/110 140/218/110
f 128/207/100 138/215/99 130/208/99
f 140/218/111 123/201/111 121/199/111
f 121/199/111 141/219/112 140/218/111
f 123/201/97 140/218/113 128/207/95
f 139/217/114 140/218/115 141/219/114
f 141/219/116 121/199/116 119/197/116
f 119/197/116 142/220/116 141/219/116
f 143/221/117 141/219/118 142/220/117
f 141/219/114 143/221/119 139/217/114
f 146/222/120 143/221/120 144/223/120
f 142/220/117 144/223/121 143/221/117
f 145/224/122 139/217/122 143/221/122
f 143/221/122 146/222/122 145/224/122
f 144/223/120 147/225/120 146/222/120
f 147/225/123 144/223/123 149/226/123
f 149/226/124 148/227/124 147/225/124
f 148/227/125 149/226/125 150/228/125
f 151/229/126 150/228/127 149/226/126
f 149/226/126 152/230/128 151/229/126
f 152/230/129 149/226/130 144/223/129
f 144/223/129 142/220/131 152/230/129
f 117/195/132 152/230/133 142/220/132
f 152/230/134 117/195/134 115/193/134
f 115/193/134 151/229/134 152/230/134
f 151/229/135 115/193/136 113/191/136
f 113/191/136 153/231/137 151/229/135
f 150/228/138 151/229/139 153/231/140
f 153/231/140 154/232/138 150/228/138
f 154/232/141 153/231/141 155/233/141
f 111/189/142 155/233/142 153/231/142
f 153/231/142 113/191/142 111/189/142
f 156/234/143 155/233/144 109/187/145
f 155/233/141 156/234/141 154/232/141
f 109/187/145 155/233/144 111/189/146
f 159/235/147 154/232/147 156/234/147
f 109/187/145 157/236/148 156/234/143
f 158/237/149 156/234/149 157/236/149
f 156/234/147 158/237/147 159/235/147
f 154/232/150 159/235/150 160/238/150
f 160/238/150 150/228/150 154/232/150
f 150/228/125 160/238/125 148/227/125
f 157/236/149 161/239/149 158/237/149
f 161/239/151 157/236/151 99/178/151
f 99/178/151 101/179/151 161/239/151
f 99/178/152 157/236/152 109/187/152
f 139/217/153 145/224/153 137/216/153
f 142/220/132 119/197/154 117/195/132
f 133/212/155 135/214/155 162/240/155
f 135/214/156 163/241/156 162/240/156
f 162/240/157 163/241/158 164/242/157
f 163/241/159 165/243/159 164/242/159
f 164/242/157 166/244/158 162/240/157
f 162/240/160 166/244/160 167/245/160
f 162/240/161 167/245/161 168/246/161
f 162/240/162 168/246/162 169/247/162
f 169/247/163 168/246/163 170/248/163
f 168/246/164 171/249/165 170/248/166
f 170/248/166 171/249/165 172/250/167
f 170/248/166 172/250/167 173/251/168
f 170/248/169 173/251/170 174/252/171
f 173/251/170 175/253/172 174/252/171
f 174/252/173 175/253/173 176/254/173
f 170/248/174 174/252/174 177/255/174
f 178/256/175 133/212/175 177/255/175
f 177/255/176 133/212/176 169/247/176
f 169/247/176 170/248/177 177/255/176
f 178/256/178 179/257/179 131/210/178
f 131/210/178 133/212/180 178/256/178
f 131/210/101 179/257/101 127/205/101
f 179/257/181 180/258/181 127/205/181
f 127/205/182 180/258/182 125/204/182
f 133/212/183 162/240/183 169/247/183
f 99/178/184 109/187/184 98/176/184
f 100/181/185 181/259/185 101/179/185
