# Blender 4.4.1
# www.blender.org
o Tent_1
v 0.144496 0.267262 0.005010
v 0.144496 0.280449 -0.006096
v 0.146422 0.267262 0.009587
v 0.134363 0.262291 0.008155
v 0.144496 0.261762 -0.006096
v 0.110158 0.261762 0.004977
v 0.004400 0.261762 0.009587
v 0.019879 0.261762 -0.001485
v 0.110073 0.257986 0.009587
v 0.144496 0.248865 0.009587
v 0.004400 0.248862 0.009587
v 0.146426 0.257976 0.009587
v 0.151096 0.248862 0.009587
v 0.151096 0.261762 0.009587
v 0.151096 0.261762 -0.006096
v 0.151096 0.280449 0.009587
v 0.151096 0.063242 -0.006096
v 0.144496 0.248862 -0.006096
v 0.144496 0.063242 -0.006096
v 0.038825 0.257986 -0.006096
v 0.004400 0.248862 -0.006096
v 0.002803 0.118370 -0.006096
v 0.002792 0.254203 -0.006096
v 0.004400 0.118938 -0.001578
v -0.001103 0.248862 -0.006096
v -0.002200 0.063242 0.009587
v -0.000361 0.277306 -0.003456
v -0.002200 0.261762 0.009587
v -0.001103 0.063242 -0.006096
v 0.002795 0.263510 -0.006096
v 0.004400 0.280446 -0.006096
v 0.004400 0.280449 0.009587
v 0.000202 0.280449 -0.001528
v 0.004400 0.267262 -0.001518
v -0.001103 0.048939 -0.006096
v 0.002793 0.059036 -0.006096
v 0.121931 0.063242 -0.006096
v 0.004400 0.063242 0.009587
v 0.004400 0.048942 -0.006096
v 0.004400 -0.000000 -0.006096
v 0.004400 0.048939 0.009587
v 0.144496 0.048939 0.009587
v 0.144496 0.048939 -0.006096
v 0.151096 0.000000 0.004324
v 0.151096 0.048939 0.009587
v 0.144496 0.063242 0.009587
v -0.002200 0.000000 0.009587
v -0.002200 -0.000000 -0.003492
v 0.085062 0.157599 -0.406924
v 0.124015 0.164152 -0.413779
v 0.063022 0.186667 -0.413748
v 0.034616 0.113526 -0.402512
v 0.008574 0.186189 -0.410773
v 0.068652 0.132297 -0.406901
v 0.111894 0.116887 -0.413000
v 0.097685 0.126861 -0.408653
v 0.117484 0.088863 -0.409560
v 0.141949 0.083803 -0.407259
v 0.140506 0.168350 -0.413779
v 0.140506 0.186153 -0.410773
v 0.075284 0.219227 -0.406258
v 0.140506 0.219652 -0.404763
v 0.107562 0.261812 -0.403203
v 0.140506 0.261750 -0.403185
v 0.107836 0.265102 -0.388398
v 0.140506 0.265447 -0.388250
v 0.111139 0.266284 -0.376307
v 0.141414 0.269493 -0.375750
v 0.109794 0.247979 -0.304410
v 0.143868 0.261360 -0.304021
v 0.108207 0.231238 -0.228463
v 0.142316 0.248280 -0.226078
v 0.108387 0.222058 -0.170405
v 0.142408 0.240352 -0.166356
v 0.117563 0.242013 -0.101349
v 0.143131 0.249114 -0.096719
v 0.141054 0.261997 -0.030913
v 0.108411 0.255683 -0.032009
v 0.108540 0.266380 0.007823
v 0.075586 0.252345 -0.031406
v 0.082508 0.266303 0.008059
v 0.041716 0.260403 0.018146
v 0.075252 0.262174 0.017814
v 0.041704 0.264498 0.008343
v 0.041581 0.254104 -0.031144
v 0.008544 0.263879 0.018191
v 0.008377 0.268406 0.008265
v 0.007674 0.259327 -0.032037
v 0.008404 0.245687 -0.097210
v 0.045205 0.223773 -0.090089
v 0.039345 0.213812 -0.160117
v 0.064567 0.209666 -0.155539
v 0.071028 0.220377 -0.093328
v 0.076960 0.209955 -0.219144
v 0.042101 0.220203 -0.227561
v 0.079076 0.236767 -0.307989
v 0.077010 0.260276 -0.373230
v 0.046461 0.245595 -0.297295
v 0.042095 0.266777 -0.374847
v 0.008048 0.235982 -0.229530
v -0.002013 0.242337 -0.293885
v 0.008368 0.268226 -0.374954
v 0.041557 0.265289 -0.388250
v 0.008574 0.265558 -0.388250
v 0.041557 0.261922 -0.403185
v 0.008574 0.261804 -0.403185
v 0.008574 0.219705 -0.404763
v 0.042114 0.219441 -0.405880
v 0.074560 0.261775 -0.403152
v 0.074707 0.264096 -0.387974
v 0.007090 0.233037 -0.166598
v 0.008574 0.217584 0.018241
v 0.077060 0.213065 0.007092
v 0.141088 0.217817 0.017844
v 0.049300 0.163405 0.013866
v 0.078889 0.160777 0.015772
v 0.140955 0.171300 0.017796
v 0.103523 0.155043 0.011301
v 0.141962 0.160105 0.016796
v 0.121410 0.114192 0.006612
v 0.138533 0.111202 0.010994
v 0.104629 0.130784 0.012747
v 0.089195 0.117808 0.015308
v 0.076772 0.145030 0.016637
v 0.053197 0.118666 0.011476
v 0.039806 0.141542 0.019704
v 0.029091 0.136620 0.018590
v 0.008632 0.142855 0.017960
v 0.009408 0.126692 0.020154
v 0.144338 0.262167 0.015633
v 0.144024 0.266994 0.006034
v 0.017889 0.095615 -0.402733
v 0.144496 0.267262 -0.390455
v 0.144496 0.280449 -0.401561
v 0.146422 0.267262 -0.385878
v 0.134363 0.262291 -0.387310
v 0.144496 0.261762 -0.401561
v 0.110158 0.261762 -0.390488
v 0.004400 0.261762 -0.385878
v 0.019879 0.261762 -0.396950
v 0.110073 0.257986 -0.385878
v 0.144496 0.248865 -0.385878
v 0.004400 0.248862 -0.385878
v 0.146426 0.257976 -0.385878
v 0.151096 0.248862 -0.385878
v 0.151096 0.261762 -0.385878
v 0.151096 0.261762 -0.401561
v 0.151096 0.280449 -0.385878
v 0.144496 0.248862 -0.401561
v 0.151096 0.063242 -0.401561
v 0.151096 0.048939 -0.385878
v 0.151096 -0.000000 -0.391141
v 0.144496 0.048939 -0.401561
v 0.144496 0.063242 -0.401561
v 0.121931 0.063242 -0.401561
v 0.144496 0.063242 -0.385878
v 0.004400 0.048939 -0.385878
v 0.004400 0.063242 -0.385878
v 0.144496 0.048939 -0.385878
v 0.004400 0.048942 -0.401561
v 0.004400 -0.000000 -0.401561
v -0.001103 0.048939 -0.401561
v 0.002793 0.059036 -0.401561
v 0.004400 0.118938 -0.397043
v -0.001103 0.063242 -0.401561
v 0.002803 0.118370 -0.401561
v 0.004400 0.248862 -0.401561
v -0.001103 0.248862 -0.401561
v -0.002200 0.063242 -0.385878
v -0.000361 0.277306 -0.398921
v -0.002200 0.261762 -0.385878
v 0.002795 0.263510 -0.401561
v 0.004400 0.280446 -0.401561
v 0.002792 0.254203 -0.401561
v 0.038825 0.257986 -0.401561
v 0.004400 0.280449 -0.385878
v 0.000202 0.280449 -0.396993
v 0.004400 0.267262 -0.396983
v -0.002200 -0.000000 -0.385878
v -0.002200 -0.000000 -0.398957
vn -1.0000 -0.0000 -0.0000
vn -0.8762 0.3105 0.3687
vn -0.8762 0.3104 0.3686
vn -0.3926 0.9048 0.1651
vn -0.1563 0.9767 -0.1472
vn -0.1562 0.9767 -0.1473
vn -0.1563 0.9767 -0.1473
vn -0.1563 0.9766 -0.1474
vn -0.0000 1.0000 -0.0000
vn 0.0038 0.7736 0.6337
vn 0.0037 0.7736 0.6337
vn -0.0000 0.1061 0.9944
vn -0.0000 0.1060 0.9944
vn -0.0000 -0.0000 1.0000
vn -0.0000 0.1062 0.9943
vn -0.0853 -0.0000 0.9964
vn 1.0000 -0.0000 -0.0000
vn -0.8761 0.3106 0.3687
vn 0.8765 0.3095 -0.3688
vn 0.9217 -0.0000 -0.3879
vn 0.9217 -0.0000 -0.3878
vn 0.9217 -0.0000 -0.3880
vn -0.0000 -0.0000 -1.0000
vn -0.0000 -1.0000 -0.0000
vn -0.0000 -1.0000 0.0002
vn 0.9431 -0.0080 -0.3324
vn 0.9431 -0.0079 -0.3324
vn -0.9976 -0.0000 -0.0698
vn -0.9436 -0.0000 0.3312
vn -0.9436 -0.0000 0.3311
vn -0.9435 -0.0000 0.3314
vn -0.5286 0.0921 -0.8438
vn -0.9945 0.0351 -0.0984
vn -0.6457 0.4801 -0.5938
vn 0.0005 1.0000 -0.0002
vn 0.9607 -0.0911 -0.2622
vn 0.3338 0.9400 0.0705
vn 0.3338 0.9400 0.0707
vn -0.9218 0.2787 0.2694
vn -0.9218 0.2787 0.2693
vn 0.0098 0.7929 -0.6093
vn 0.0097 0.7929 -0.6093
vn 0.0098 0.7929 -0.6092
vn -0.0341 0.9662 -0.2556
vn 0.9951 -0.0194 -0.0968
vn -0.0000 -1.0000 -0.0002
vn -1.0000 -0.0001 -0.0000
vn 0.9217 -0.0001 -0.3880
vn -0.0000 -0.0001 1.0000
vn 0.9216 -0.0000 0.3881
vn 0.9217 -0.0000 0.3880
vn 0.9217 -0.0000 0.3879
vn 0.9217 -0.0000 0.3878
vn 0.9147 -0.1233 0.3849
vn -0.9435 0.0001 0.3313
vn -0.9435 -0.0000 0.3312
vn -0.9997 0.0224 -0.0000
vn -0.3667 -0.0412 -0.9294
vn -0.9435 -0.0000 0.3313
vn 0.0098 0.7928 -0.6094
vn -0.2054 0.0107 -0.9786
vn -0.2055 0.0106 -0.9786
vn -0.1143 -0.3084 -0.9444
vn -0.0503 -0.2642 -0.9631
vn -0.0125 -0.0854 -0.9963
vn -0.0124 -0.0855 -0.9963
vn -0.0539 0.0340 -0.9980
vn -0.2056 0.0106 -0.9786
vn 0.2264 -0.0741 -0.9712
vn 0.0546 -0.0687 -0.9961
vn 0.0545 -0.0687 -0.9961
vn -0.0423 0.1663 -0.9852
vn 0.0113 0.1571 -0.9875
vn 0.0152 0.0488 -0.9987
vn 0.0153 0.0488 -0.9987
vn -0.0036 0.9735 -0.2287
vn -0.0530 0.9786 -0.1989
vn -0.0531 0.9786 -0.1990
vn -0.2480 0.9524 0.1773
vn -0.2482 0.9524 0.1772
vn -0.4075 0.8981 0.1657
vn -0.4075 0.8980 0.1657
vn -0.4661 0.8754 0.1282
vn -0.3666 0.9159 -0.1635
vn -0.3665 0.9160 -0.1634
vn -0.3665 0.9160 -0.1635
vn -0.2006 0.9580 -0.2049
vn -0.1013 0.9755 -0.1953
vn -0.1013 0.9755 -0.1954
vn -0.0595 0.9547 -0.2915
vn -0.3158 0.8927 -0.3214
vn -0.3159 0.8927 -0.3214
vn -0.0415 0.9264 0.3742
vn 0.0099 0.9094 0.4158
vn -0.0027 0.9556 -0.2945
vn 0.0826 0.9774 -0.1947
vn -0.0009 0.9137 0.4065
vn 0.3713 0.8793 -0.2984
vn 0.3713 0.8792 -0.2984
vn 0.3712 0.8793 -0.2985
vn 0.5285 0.8333 -0.1623
vn 0.1484 0.9749 -0.1662
vn 0.1483 0.9749 -0.1662
vn 0.0497 0.8876 -0.4579
vn 0.0496 0.8876 -0.4579
vn -0.3842 0.9081 -0.1664
vn -0.3841 0.9082 -0.1664
vn -0.4008 0.9156 0.0310
vn -0.4007 0.9157 0.0311
vn -0.4009 0.9156 0.0310
vn 0.2171 0.9733 0.0747
vn 0.2170 0.9733 0.0747
vn 0.2682 0.9117 0.3111
vn 0.2683 0.9117 0.3111
vn -0.4368 0.8721 0.2206
vn -0.4369 0.8720 0.2206
vn -0.2481 0.9263 0.2837
vn -0.2482 0.9262 0.2837
vn -0.2481 0.9263 0.2838
vn -0.2480 0.9263 0.2838
vn 0.2481 0.9276 0.2792
vn 0.2482 0.9276 0.2792
vn 0.2481 0.9277 0.2791
vn -0.0097 0.9587 0.2841
vn 0.1501 0.9635 0.2218
vn 0.1502 0.9635 0.2218
vn 0.1500 0.9635 0.2217
vn -0.0096 0.9587 0.2841
vn 0.0257 0.9877 -0.1541
vn 0.0022 0.9727 -0.2319
vn -0.0167 0.0503 -0.9986
vn -0.0166 0.0503 -0.9986
vn -0.0024 0.0709 -0.9975
vn -0.0049 0.0680 -0.9977
vn -0.0047 0.0681 -0.9977
vn -0.0096 0.2276 -0.9737
vn -0.0461 0.1908 -0.9805
vn -0.0040 0.0698 -0.9976
vn 0.0207 0.9824 -0.1857
vn -0.0169 0.9828 -0.1837
vn -0.0168 0.9828 -0.1837
vn -0.0016 0.0728 -0.9973
vn 0.1101 0.9914 0.0710
vn 0.1100 0.9914 0.0709
vn 0.1101 0.9914 0.0711
vn -0.0969 0.9884 0.1173
vn -0.0969 0.9883 0.1175
vn -0.0969 0.9883 0.1174
vn 0.4578 0.8858 0.0764
vn 0.5283 0.8334 -0.1625
vn 0.5284 0.8333 -0.1624
vn 0.4578 0.8858 0.0765
vn -0.0970 0.9883 0.1173
vn 0.1059 -0.0797 0.9912
vn 0.1058 -0.0798 0.9912
vn 0.0209 -0.2125 0.9769
vn -0.0608 -0.0896 0.9941
vn -0.0609 -0.0897 0.9941
vn -0.1656 -0.0005 0.9862
vn -0.0491 0.1619 0.9856
vn 0.1633 0.0432 0.9856
vn -0.0416 0.0534 0.9977
vn -0.0416 0.0535 0.9977
vn -0.1279 -0.0996 0.9868
vn -0.1682 -0.1411 0.9756
vn -0.1683 -0.1411 0.9756
vn 0.4051 0.0728 0.9114
vn 0.1106 0.0642 0.9918
vn 0.1850 0.0297 0.9823
vn 0.1827 0.0354 0.9825
vn -0.1432 -0.0652 0.9875
vn -0.0586 0.0626 0.9963
vn 0.1851 0.0291 0.9823
vn 0.5236 0.0001 0.8519
vn -0.0460 0.2070 0.9773
vn -0.0460 0.2070 0.9772
vn -0.0459 0.2070 0.9773
vn 0.0106 0.1350 0.9908
vn 0.1020 -0.0037 0.9948
vn -0.0608 -0.0895 0.9941
vn 0.0072 0.8935 0.4491
vn -0.1011 0.9755 -0.1953
vn -0.1011 0.9755 -0.1952
vn 0.0724 0.1976 -0.9776
vn 0.0968 -0.0781 -0.9922
vn -0.8762 0.3105 0.3686
vn -0.3926 0.9048 0.1652
vn 1.0000 -0.0001 -0.0000
vn 0.9147 -0.1234 0.3849
vn -0.3663 -0.0411 -0.9296
vn -0.3664 -0.0411 -0.9295
vt 0.435777 0.283334
vt 0.436845 0.283783
vt 0.436231 0.284218
vt 0.437231 0.283999
vt 0.437295 0.283345
vt 0.605616 0.011539
vt 0.607812 0.011027
vt 0.608874 0.011037
vt 0.608858 0.012145
vt 0.597291 0.013285
vt 0.605534 0.010974
vt 0.595840 0.012421
vt 0.608551 0.009749
vt 0.608854 0.010530
vt 0.595701 0.011249
vt 0.437625 0.283096
vt 0.436934 0.282182
vt 0.437562 0.282089
vt 0.437989 0.283703
vt 0.435236 0.283632
vt 0.434511 0.284514
vt 0.433874 0.283034
vt 0.436326 0.285443
vt 0.431449 0.265348
vt 0.435429 0.282447
vt 0.432039 0.265114
vt 0.595529 0.009806
vt 0.608380 0.008304
vt 0.599108 0.013641
vt 0.609001 0.013302
vt 0.596131 0.014905
vt 0.982972 0.094612
vt 0.983359 0.106670
vt 0.982531 0.094683
vt 0.983866 0.106661
vt 0.595909 0.014506
vt 0.983500 0.107185
vt 0.981898 0.106775
vt 0.979288 0.089625
vt 0.980728 0.089637
vt 0.980332 0.106821
vt 0.981604 0.107994
vt 0.983944 0.109424
vt 0.983441 0.109724
vt 0.980569 0.109501
vt 0.983106 0.089468
vt 0.983541 0.108100
vt 0.984010 0.109766
vt 0.983101 0.108467
vt 0.981973 0.109675
vt 0.180228 0.008282
vt 0.181385 0.009158
vt 0.180813 0.009213
vt 0.982137 0.107962
vt 0.595769 0.013316
vt 0.595761 0.013764
vt 0.980801 0.109775
vt 0.979508 0.088254
vt 0.982730 0.089082
vt 0.983069 0.088136
vt 0.290624 0.017364
vt 0.290740 0.015856
vt 0.301638 0.017019
vt 0.290770 0.018300
vt 0.981327 0.089586
vt 0.982560 0.088149
vt 0.982359 0.083651
vt 0.981082 0.088268
vt 0.303666 0.014198
vt 0.290706 0.014534
vt 0.290668 0.013083
vt 0.303628 0.012747
vt 0.303733 0.018343
vt 0.438617 0.264468
vt 0.434245 0.263143
vt 0.435086 0.261866
vt 0.431046 0.263922
vt 0.427306 0.260798
vt 0.303723 0.016997
vt 0.434479 0.263704
vt 0.429699 0.264839
vt 0.433532 0.264798
vt 0.435153 0.264793
vt 0.303701 0.015521
vt 0.980793 0.083673
vt 0.979582 0.083717
vt 0.983016 0.083619
vt 0.412461 0.041349
vt 0.408936 0.042463
vt 0.409468 0.037961
vt 0.414768 0.043868
vt 0.419741 0.043202
vt 0.413684 0.038851
vt 0.416614 0.036740
vt 0.410942 0.038695
vt 0.408584 0.035445
vt 0.406278 0.035276
vt 0.407476 0.043042
vt 0.407680 0.044691
vt 0.414028 0.047075
vt 0.408070 0.047812
vt 0.411541 0.051360
vt 0.408505 0.051650
vt 0.411662 0.052763
vt 0.408637 0.053044
vt 0.411448 0.053913
vt 0.408636 0.054240
vt 0.412338 0.060726
vt 0.408966 0.060890
vt 0.413185 0.067877
vt 0.409683 0.068305
vt 0.413981 0.073287
vt 0.410528 0.074100
vt 0.413555 0.080015
vt 0.411229 0.080825
vt 0.415422 0.086466
vt 0.412393 0.087024
vt 0.415832 0.090258
vt 0.418244 0.090030
vt 0.418523 0.086150
vt 0.422082 0.089733
vt 0.422168 0.090748
vt 0.419016 0.090922
vt 0.425209 0.089360
vt 0.421724 0.085892
vt 0.425260 0.090344
vt 0.424891 0.085608
vt 0.420658 0.079927
vt 0.424606 0.079375
vt 0.420563 0.073489
vt 0.418267 0.074126
vt 0.418292 0.079814
vt 0.416611 0.068621
vt 0.419741 0.067358
vt 0.415358 0.060308
vt 0.414705 0.053903
vt 0.418645 0.060626
vt 0.423148 0.060428
vt 0.417948 0.053215
vt 0.423071 0.066556
vt 0.421043 0.052767
vt 0.417816 0.051983
vt 0.420841 0.051545
vt 0.417621 0.050588
vt 0.420643 0.050151
vt 0.417066 0.046700
vt 0.420140 0.046317
vt 0.414582 0.051014
vt 0.414751 0.052450
vt 0.423936 0.072589
vt 0.425486 0.094571
vt 0.419242 0.095528
vt 0.413255 0.095474
vt 0.413577 0.099758
vt 0.422150 0.099951
vt 0.419389 0.100410
vt 0.417122 0.101176
vt 0.413523 0.100798
vt 0.415654 0.105048
vt 0.414024 0.105341
vt 0.417217 0.103413
vt 0.418760 0.104479
vt 0.419702 0.101850
vt 0.422039 0.104148
vt 0.423315 0.101927
vt 0.424354 0.102249
vt 0.426130 0.101420
vt 0.426275 0.102922
vt 0.412623 0.091427
vt 0.412538 0.090447
vt 0.417977 0.034931
vt 0.977245 0.030815
vt 0.978312 0.031264
vt 0.977698 0.031699
vt 0.978698 0.031480
vt 0.978763 0.030826
vt 0.794867 0.011539
vt 0.797063 0.011027
vt 0.798125 0.011037
vt 0.798109 0.012145
vt 0.794785 0.010974
vt 0.785090 0.012421
vt 0.786542 0.013285
vt 0.797802 0.009749
vt 0.798105 0.010530
vt 0.784952 0.011249
vt 0.979092 0.030577
vt 0.978401 0.029663
vt 0.979029 0.029571
vt 0.979457 0.031184
vt 0.976703 0.031113
vt 0.975978 0.031995
vt 0.975342 0.030515
vt 0.977793 0.032924
vt 0.972917 0.012829
vt 0.976896 0.029929
vt 0.971167 0.012320
vt 0.968774 0.008279
vt 0.975946 0.011185
vt 0.976620 0.012274
vt 0.973507 0.012595
vt 0.972514 0.011403
vt 0.975000 0.012279
vt 0.811565 0.012583
vt 0.813649 0.012561
vt 0.813659 0.013907
vt 0.813627 0.011085
vt 0.975713 0.010624
vt 0.800632 0.010098
vt 0.813592 0.009762
vt 0.800666 0.011421
vt 0.800594 0.008648
vt 0.813554 0.008312
vt 0.980085 0.011949
vt 0.976554 0.009347
vt 0.983069 0.035832
vt 0.982560 0.035845
vt 0.982358 0.031346
vt 0.981082 0.035964
vt 0.982730 0.036778
vt 0.800696 0.013865
vt 0.800551 0.012929
vt 0.982531 0.042379
vt 0.981327 0.037282
vt 0.982972 0.042308
vt 0.983106 0.037163
vt 0.983866 0.054357
vt 0.983359 0.054366
vt 0.979288 0.037320
vt 0.980728 0.037333
vt 0.980333 0.054517
vt 0.981604 0.055690
vt 0.983945 0.057119
vt 0.983442 0.057420
vt 0.980569 0.057197
vt 0.983500 0.054881
vt 0.983542 0.055795
vt 0.788359 0.013641
vt 0.785381 0.014905
vt 0.785160 0.014505
vt 0.785012 0.013763
vt 0.798252 0.013302
vt 0.983102 0.056162
vt 0.981974 0.057371
vt 0.164457 0.008282
vt 0.165614 0.009158
vt 0.165043 0.009213
vt 0.984011 0.057462
vt 0.982138 0.055658
vt 0.785019 0.013316
vt 0.980802 0.057471
vt 0.981899 0.054471
vt 0.979508 0.035950
vt 0.980793 0.031369
vt 0.979582 0.031413
vt 0.983015 0.031314
vt 0.784780 0.009805
vt 0.797631 0.008304
s 1
f 5/1/1 1/2/1 2/3/1
f 2/3/2 1/2/3 3/4/2
f 1/2/4 4/5/4 3/4/4
f 6/6/5 4/7/6 1/8/7
f 1/8/7 5/9/8 6/6/5
f 6/6/9 5/9/9 8/10/9
f 9/11/10 4/7/11 6/6/10
f 6/6/10 7/12/10 9/11/10
f 8/10/9 7/12/9 6/6/9
f 9/11/12 10/13/13 12/14/12
f 11/15/14 10/13/14 9/11/14
f 12/14/12 4/7/15 9/11/12
f 9/11/14 7/12/14 11/15/14
f 12/16/14 10/17/14 13/18/14
f 13/18/14 14/19/14 12/16/14
f 3/4/16 4/5/16 12/16/16
f 12/16/16 14/19/16 3/4/16
f 15/20/17 14/21/17 13/22/17
f 14/21/17 15/20/17 16/23/17
f 14/19/14 16/23/14 3/4/14
f 3/4/2 16/23/18 2/3/2
f 15/20/19 2/3/19 16/23/19
f 15/20/20 13/22/21 17/24/22
f 17/24/22 18/25/22 15/20/20
f 5/1/23 15/20/23 18/25/23
f 5/1/23 2/3/23 15/20/23
f 19/26/23 18/25/23 17/24/23
f 21/27/24 18/28/25 10/13/25
f 10/17/1 18/25/1 19/26/1
f 20/29/23 5/9/23 18/30/23
f 18/30/23 21/31/23 20/29/23
f 10/13/25 11/15/24 21/27/24
f 22/32/26 21/33/26 24/34/27
f 25/35/23 21/33/23 22/32/23
f 20/29/23 21/31/23 23/36/23
f 25/35/23 23/37/23 21/33/23
f 24/34/17 21/33/17 11/38/17
f 29/39/28 26/40/28 25/41/28
f 28/42/29 25/41/30 26/40/31
f 25/35/32 27/43/32 31/44/32
f 25/41/33 28/42/33 27/45/33
f 22/32/23 29/46/23 25/35/23
f 25/35/23 30/47/23 23/37/23
f 30/47/23 25/35/23 31/44/23
f 33/48/34 31/44/34 27/43/34
f 34/49/17 31/44/17 32/50/17
f 32/51/35 31/52/35 33/53/35
f 31/44/36 34/49/36 30/47/36
f 32/50/17 7/54/17 34/49/17
f 34/55/37 7/12/38 8/10/37
f 8/10/37 30/56/38 34/55/37
f 33/57/39 27/45/40 28/42/39
f 28/42/39 32/50/39 33/57/39
f 7/54/14 32/50/14 28/42/14
f 23/36/23 30/56/23 20/29/23
f 20/29/41 30/56/42 8/10/43
f 26/40/28 29/39/28 35/58/28
f 29/46/23 22/32/23 36/59/23
f 35/60/23 29/46/23 36/59/23
f 36/61/44 38/62/44 37/63/44
f 37/63/23 39/64/23 36/61/23
f 24/34/45 38/65/45 36/59/45
f 24/34/27 36/59/26 22/32/26
f 36/59/23 39/66/23 35/60/23
f 35/60/23 39/66/23 40/67/23
f 40/67/17 39/66/17 41/68/17
f 42/69/24 41/70/46 39/71/46
f 39/71/46 43/72/24 42/69/24
f 43/73/23 39/64/23 37/63/23
f 44/74/47 42/75/47 43/76/47
f 19/26/23 17/24/23 43/77/23
f 44/78/20 43/77/21 17/24/48
f 37/63/23 19/79/23 43/73/23
f 45/80/14 42/75/14 44/74/49
f 17/24/48 45/81/21 44/78/20
f 46/82/14 42/75/14 45/80/14
f 13/18/50 46/82/51 45/80/52
f 45/80/52 17/83/53 13/18/50
f 13/18/14 10/17/14 46/82/14
f 46/84/9 19/79/9 37/63/9
f 19/26/1 46/82/1 10/17/1
f 41/70/14 42/69/14 46/84/14
f 46/84/14 38/62/14 41/70/14
f 37/63/9 38/62/9 46/84/9
f 40/67/54 41/68/54 47/85/54
f 47/85/29 41/68/55 26/40/56
f 38/65/14 26/40/14 41/68/14
f 26/40/56 35/58/30 47/85/29
f 48/86/57 47/85/57 35/58/57
f 48/87/58 35/60/58 40/67/58
f 38/65/14 11/38/14 26/40/14
f 11/38/17 38/65/17 24/34/17
f 26/40/31 11/38/59 28/42/29
f 7/54/14 28/42/14 11/38/14
f 8/10/43 5/9/60 20/29/41
f 49/88/61 50/89/62 55/90/62
f 49/88/63 51/91/63 50/89/63
f 53/92/64 51/91/64 49/88/64
f 49/88/65 54/93/65 52/94/65
f 52/94/66 53/92/66 49/88/66
f 54/93/67 49/88/67 56/95/67
f 55/90/62 56/95/68 49/88/61
f 55/90/69 50/89/69 57/96/69
f 58/97/70 57/96/71 50/89/71
f 50/89/71 59/98/71 58/97/70
f 50/89/72 60/99/72 59/98/72
f 61/100/73 62/101/73 60/99/73
f 60/99/73 50/89/73 61/100/73
f 63/102/74 64/103/74 62/101/74
f 62/101/75 61/100/75 63/102/75
f 64/103/76 63/102/76 65/104/76
f 65/104/76 66/105/76 64/103/76
f 66/105/77 65/104/77 67/106/77
f 67/106/78 68/107/78 66/105/78
f 68/107/79 67/106/79 69/108/79
f 69/108/80 70/109/80 68/107/80
f 70/109/81 69/108/81 71/110/81
f 71/110/82 72/111/82 70/109/82
f 72/111/83 71/110/83 73/112/83
f 73/112/83 74/113/83 72/111/83
f 74/113/84 73/112/84 75/114/84
f 75/114/85 76/115/86 74/113/85
f 78/116/87 77/117/87 76/115/87
f 76/115/87 75/114/87 78/116/87
f 77/117/88 78/116/89 79/118/88
f 81/119/90 79/118/90 78/116/90
f 80/120/91 78/116/91 75/114/92
f 78/116/90 80/120/90 81/119/90
f 81/119/93 84/121/93 82/122/93
f 82/122/93 83/123/93 81/119/93
f 79/118/94 81/119/94 83/123/94
f 84/121/95 81/119/95 80/120/95
f 87/124/96 84/121/96 85/125/96
f 80/120/95 85/125/95 84/121/95
f 84/121/97 87/124/97 86/126/97
f 86/126/97 82/122/97 84/121/97
f 85/125/96 88/127/96 87/124/96
f 90/128/98 89/129/98 88/127/99
f 88/127/100 85/125/100 90/128/100
f 89/129/101 90/128/101 91/130/101
f 92/131/102 91/130/102 90/128/103
f 90/128/103 93/132/103 92/131/102
f 93/132/104 90/128/104 85/125/105
f 93/132/106 75/114/106 73/112/107
f 73/112/107 92/131/107 93/132/106
f 75/114/92 93/132/92 80/120/91
f 85/125/105 80/120/105 93/132/104
f 92/131/108 73/112/109 71/110/108
f 71/110/108 94/133/110 92/131/108
f 91/130/111 92/131/112 94/133/111
f 94/133/111 95/134/111 91/130/111
f 95/134/113 94/133/114 96/135/114
f 94/133/115 71/110/116 69/108/115
f 69/108/115 96/135/115 94/133/115
f 96/135/117 69/108/118 67/106/119
f 67/106/119 97/136/120 96/135/117
f 98/137/121 96/135/122 97/136/123
f 96/135/114 98/137/114 95/134/113
f 101/138/124 98/137/124 99/139/124
f 97/136/123 99/139/123 98/137/121
f 100/140/125 95/134/126 98/137/126
f 98/137/127 101/138/127 100/140/127
f 99/139/128 102/141/128 101/138/128
f 102/141/129 99/139/129 103/142/129
f 103/142/129 104/143/129 102/141/129
f 104/143/130 103/142/130 105/144/130
f 105/144/130 106/145/130 104/143/130
f 108/146/131 107/147/131 106/145/131
f 106/145/132 105/144/132 108/146/132
f 61/100/133 108/146/134 105/144/135
f 51/91/136 108/146/136 61/100/136
f 107/147/137 108/146/137 51/91/137
f 51/91/137 53/92/137 107/147/137
f 105/144/135 109/148/138 61/100/133
f 109/148/139 105/144/139 103/142/139
f 103/142/139 110/149/139 109/148/139
f 63/102/140 109/148/141 110/149/140
f 61/100/133 109/148/138 63/102/142
f 110/149/143 103/142/144 99/139/144
f 99/139/144 97/136/145 110/149/143
f 65/104/146 110/149/147 97/136/148
f 110/149/140 65/104/140 63/102/140
f 95/134/149 100/140/149 111/150/149
f 91/130/150 111/150/151 89/129/101
f 111/150/152 91/130/149 95/134/149
f 97/136/148 67/106/153 65/104/146
f 86/126/154 112/151/154 113/152/154
f 113/152/154 82/122/155 86/126/154
f 83/123/156 82/122/156 113/152/156
f 83/123/157 113/152/158 114/153/157
f 114/153/159 113/152/159 117/154/159
f 113/152/160 115/155/160 116/156/160
f 113/152/161 112/151/161 115/155/161
f 117/154/162 113/152/163 116/156/162
f 116/156/162 118/157/162 117/154/162
f 118/157/164 119/158/164 117/154/164
f 119/158/165 118/157/165 120/159/165
f 120/159/166 121/160/166 119/158/166
f 118/157/167 122/161/167 120/159/167
f 118/157/168 123/162/168 122/161/168
f 124/163/169 123/162/170 118/157/169
f 115/155/171 125/164/171 124/163/171
f 115/155/172 124/163/172 116/156/172
f 116/156/173 124/163/169 118/157/169
f 115/155/174 126/165/174 125/164/174
f 127/166/175 126/165/176 115/155/175
f 115/155/175 128/167/177 127/166/175
f 128/167/178 129/168/178 127/166/178
f 112/151/179 128/167/179 115/155/179
f 114/153/157 130/169/180 83/123/157
f 83/123/94 130/169/94 79/118/94
f 130/169/181 131/170/181 79/118/181
f 79/118/182 131/170/183 77/117/183
f 51/91/184 61/100/184 50/89/184
f 52/94/185 132/171/185 53/92/185
f 137/172/1 133/173/1 134/174/1
f 134/174/2 133/173/186 135/175/186
f 133/173/187 136/176/187 135/175/187
f 138/177/5 136/178/6 133/179/7
f 133/179/7 137/180/8 138/177/5
f 141/181/10 136/178/11 138/177/10
f 138/177/10 139/182/10 141/181/10
f 140/183/9 139/182/9 138/177/9
f 138/177/9 137/180/9 140/183/9
f 141/181/12 142/184/13 144/185/12
f 143/186/14 142/184/14 141/181/14
f 144/185/12 136/178/15 141/181/12
f 141/181/14 139/182/14 143/186/14
f 144/187/14 142/188/14 145/189/14
f 145/189/14 146/190/14 144/187/14
f 135/175/16 136/176/16 144/187/16
f 144/187/16 146/190/16 135/175/16
f 147/191/17 146/192/17 145/193/17
f 146/192/17 147/191/17 148/194/17
f 146/190/14 148/194/14 135/175/14
f 135/175/186 148/194/2 134/174/2
f 147/191/19 134/174/19 148/194/19
f 147/191/20 145/193/21 150/195/22
f 137/172/23 147/191/23 149/196/23
f 150/195/22 149/196/22 147/191/20
f 137/172/23 134/174/23 147/191/23
f 150/195/20 151/197/21 152/198/20
f 151/199/52 150/200/53 145/189/51
f 154/201/23 149/196/23 150/195/23
f 152/198/20 153/202/21 150/195/20
f 154/201/23 150/195/23 153/202/23
f 142/188/1 149/196/1 154/201/1
f 154/201/1 156/203/1 142/188/1
f 155/204/23 154/205/23 153/206/23
f 156/207/9 154/205/9 155/204/9
f 145/189/14 142/188/14 156/203/14
f 145/189/51 156/203/51 151/199/52
f 156/203/14 159/208/14 151/199/14
f 157/209/14 159/210/14 156/207/14
f 156/207/14 158/211/14 157/209/14
f 155/204/9 158/211/9 156/207/9
f 160/212/46 153/213/24 159/210/24
f 159/210/24 157/209/46 160/212/46
f 151/199/14 159/208/14 152/214/49
f 152/214/47 159/208/47 153/215/47
f 162/216/23 160/217/23 161/218/23
f 161/218/17 160/217/17 157/219/17
f 163/220/23 160/217/23 162/216/23
f 155/204/23 160/221/23 163/222/23
f 153/206/23 160/221/23 155/204/23
f 163/222/44 158/211/44 155/204/44
f 164/223/45 158/224/45 163/220/45
f 164/223/27 163/220/26 166/225/26
f 162/216/23 165/226/23 163/220/23
f 165/226/23 166/225/23 163/220/23
f 166/225/23 165/226/23 168/227/23
f 166/225/26 167/228/26 164/223/27
f 168/227/23 167/228/23 166/225/23
f 165/229/28 169/230/28 168/231/28
f 171/232/29 168/231/30 169/230/59
f 168/227/32 170/233/32 173/234/32
f 168/231/33 171/232/33 170/235/33
f 168/227/23 174/236/23 167/228/23
f 168/227/23 172/237/23 174/236/23
f 172/237/23 168/227/23 173/234/23
f 175/238/23 167/239/23 174/240/23
f 174/240/23 172/241/23 175/238/23
f 175/238/23 137/180/23 149/242/23
f 149/242/23 167/239/23 175/238/23
f 175/238/41 172/241/41 140/183/43
f 140/183/43 137/180/60 175/238/41
f 178/243/17 173/234/188 176/244/17
f 176/245/35 173/246/35 177/247/35
f 177/248/34 173/234/34 170/233/34
f 173/234/36 178/243/36 172/237/36
f 176/244/17 139/249/17 178/243/17
f 178/250/37 139/182/38 140/183/37
f 140/183/37 172/241/38 178/250/37
f 171/232/39 176/244/39 177/251/39
f 177/251/39 170/235/40 171/232/39
f 139/249/14 176/244/14 171/232/14
f 169/230/59 143/252/59 171/232/29
f 139/249/14 171/232/14 143/252/14
f 169/230/56 162/253/30 179/254/29
f 179/254/29 157/219/55 169/230/56
f 169/230/28 165/229/28 162/253/28
f 158/224/14 143/252/14 169/230/14
f 158/224/14 169/230/14 157/219/14
f 180/255/57 179/254/57 162/253/57
f 161/218/189 157/219/189 179/254/189
f 180/256/190 162/216/191 161/218/191
f 167/257/24 149/258/25 142/184/25
f 142/184/25 143/186/24 167/257/24
f 164/223/17 167/228/17 143/252/17
f 143/252/17 158/224/17 164/223/17
