# Blender 4.4.1
# www.blender.org
o Tent_3
v 0.145261 0.226119 0.004239
v 0.145261 0.237276 -0.005157
v 0.147197 0.226119 0.008112
v 0.135074 0.221913 0.006900
v 0.145261 0.221466 -0.005157
v 0.110741 0.221466 0.004211
v 0.110655 0.218271 0.008112
v 0.004423 0.221466 0.008112
v 0.019984 0.221466 -0.001256
v 0.039030 0.218271 -0.005157
v 0.004423 0.226119 -0.001284
v 0.002810 0.222945 -0.005157
v 0.004423 0.237273 -0.005157
v -0.001110 0.210552 -0.005157
v 0.002807 0.215070 -0.005157
v 0.004423 0.210552 -0.005157
v 0.145261 0.210554 0.008112
v 0.145261 0.210552 -0.005157
v 0.002818 0.100148 -0.005157
v 0.004423 0.100628 -0.001334
v 0.004423 0.210552 0.008112
v -0.002212 0.053507 0.008112
v -0.002212 0.221466 0.008112
v 0.004423 0.053507 0.008112
v 0.004423 0.041405 0.008112
v 0.122576 0.053507 -0.005157
v 0.002808 0.049948 -0.005157
v 0.145261 0.053507 0.008112
v 0.151896 0.210552 0.008112
v 0.151896 0.041405 0.008112
v 0.145261 0.053507 -0.005157
v 0.145261 0.041405 0.008112
v 0.151896 -0.000000 0.003659
v 0.145261 0.041405 -0.005157
v 0.004423 0.041408 -0.005157
v 0.004423 -0.000000 -0.005157
v -0.001110 0.041405 -0.005157
v -0.002212 -0.000000 0.008112
v -0.001110 0.053507 -0.005157
v -0.002212 -0.000000 -0.002954
v 0.151896 0.053507 -0.005157
v 0.151896 0.221466 -0.005157
v 0.151896 0.221466 0.008112
v 0.151896 0.237276 0.008112
v 0.147201 0.218262 0.008112
v -0.000364 0.234617 -0.002923
v 0.000203 0.237276 -0.001292
v 0.004423 0.237276 0.008112
v 0.145261 0.226119 -0.214196
v 0.145261 0.237276 -0.223592
v 0.147197 0.226119 -0.210323
v 0.135074 0.221913 -0.211535
v 0.145261 0.221466 -0.223592
v 0.110741 0.221466 -0.214224
v 0.004423 0.221466 -0.210323
v 0.019984 0.221466 -0.219691
v 0.110655 0.218271 -0.210323
v 0.004423 0.210552 -0.210323
v 0.147201 0.218262 -0.210323
v 0.145261 0.210554 -0.210323
v 0.145261 0.053507 -0.210323
v 0.151896 0.210552 -0.210323
v 0.145261 0.053507 -0.223592
v 0.145261 0.210552 -0.223592
v 0.004423 0.210552 -0.223592
v 0.002818 0.100148 -0.223592
v 0.002807 0.215070 -0.223592
v 0.004423 0.100628 -0.219770
v 0.039030 0.218271 -0.223592
v -0.001110 0.210552 -0.223592
v -0.000364 0.234617 -0.221358
v -0.002212 0.221466 -0.210323
v -0.001110 0.053507 -0.223592
v 0.002810 0.222945 -0.223592
v 0.004423 0.237273 -0.223592
v -0.002212 0.053507 -0.210323
v 0.004423 0.041405 -0.210323
v -0.002212 -0.000000 -0.210323
v -0.001110 0.041405 -0.223592
v 0.004423 0.053507 -0.210323
v 0.122576 0.053507 -0.223592
v 0.002808 0.049948 -0.223592
v 0.004423 0.041408 -0.223592
v 0.004423 -0.000000 -0.223592
v 0.145261 0.041405 -0.210323
v 0.145261 0.041405 -0.223592
v 0.151896 0.053507 -0.223592
v 0.151896 -0.000000 -0.214777
v 0.151896 0.041405 -0.210323
v 0.151896 0.221466 -0.223592
v 0.151896 0.221466 -0.210323
v 0.151896 0.237276 -0.210323
v -0.002212 -0.000000 -0.221389
v 0.004423 0.226119 -0.219719
v 0.004423 0.237276 -0.210323
v 0.000203 0.237276 -0.219727
v 0.099080 0.130724 -0.230732
v 0.123817 0.144127 -0.230732
v 0.060327 0.159340 -0.227867
v 0.008376 0.158104 -0.229029
v 0.055391 0.121470 -0.226027
v 0.111695 0.117738 -0.230291
v 0.092100 0.108642 -0.223872
v 0.120360 0.086300 -0.230472
v 0.135339 0.087798 -0.229449
v 0.140308 0.144207 -0.230732
v 0.140308 0.158074 -0.229029
v 0.140308 0.185944 -0.225622
v 0.074342 0.185776 -0.225622
v 0.041359 0.221112 -0.224728
v 0.074362 0.220990 -0.224709
v 0.107363 0.221021 -0.224738
v 0.041359 0.185907 -0.225622
v 0.008376 0.221014 -0.224728
v 0.008376 0.185989 -0.225622
v 0.008376 0.224137 -0.216261
v 0.041359 0.223913 -0.216261
v 0.008170 0.226357 -0.208725
v 0.041897 0.225151 -0.208664
v 0.004681 0.206664 -0.165838
v 0.040535 0.209739 -0.167694
v 0.007849 0.204542 -0.130362
v 0.041902 0.197549 -0.129247
v 0.006891 0.203792 -0.094690
v 0.008206 0.210748 -0.055357
v 0.042239 0.194372 -0.091822
v 0.076762 0.192512 -0.124475
v 0.076132 0.189991 -0.089626
v 0.045007 0.196748 -0.051320
v 0.075901 0.197342 -0.053780
v 0.041383 0.215507 -0.017908
v 0.007476 0.218990 -0.018414
v 0.008177 0.223474 0.004431
v 0.008346 0.219579 0.010057
v 0.041362 0.223255 0.004524
v 0.075308 0.214656 -0.018030
v 0.081694 0.224757 0.004524
v 0.041359 0.219848 0.010086
v 0.074342 0.221322 0.010086
v 0.076834 0.180465 0.003776
v 0.140308 0.184204 0.010086
v 0.041359 0.144839 0.010086
v 0.008376 0.184224 0.010086
v 0.074346 0.144815 0.010081
v 0.142044 0.141173 0.011132
v 0.142053 0.129682 0.011181
v 0.094972 0.136343 0.009304
v 0.105921 0.120173 0.009205
v 0.092460 0.116204 0.007918
v 0.073679 0.112573 0.008591
v 0.055753 0.104037 0.008288
v 0.041444 0.099688 0.013258
v 0.029940 0.093780 0.012466
v 0.006240 0.120002 0.009181
v 0.013506 0.097219 0.006721
v 0.117433 0.104501 0.010649
v 0.136888 0.106155 0.012137
v 0.140308 0.219906 0.010086
v 0.107436 0.224539 0.004523
v 0.140308 0.224039 0.004523
v 0.140308 0.221218 -0.017566
v 0.108213 0.217039 -0.018398
v 0.142474 0.212722 -0.057192
v 0.142209 0.210355 -0.094552
v 0.116072 0.207485 -0.063683
v 0.110005 0.201554 -0.097322
v 0.108009 0.205451 -0.129758
v 0.140479 0.210160 -0.130652
v 0.140308 0.219106 -0.168227
v 0.107678 0.214987 -0.168322
v 0.141215 0.227311 -0.209176
v 0.110941 0.224691 -0.209492
v 0.140308 0.224033 -0.216261
v 0.107636 0.223758 -0.216345
v 0.140308 0.220969 -0.224728
v 0.074509 0.222921 -0.216105
v 0.076812 0.219757 -0.207747
v 0.074741 0.211366 -0.167462
v 0.037560 0.081815 -0.226104
v 0.009898 0.086665 -0.223833
vn -1.0000 -0.0000 -0.0000
vn -0.8370 0.3525 0.4185
vn -0.8371 0.3524 0.4184
vn -0.3381 0.9258 0.1690
vn -0.1320 0.9802 -0.1477
vn -0.1319 0.9802 -0.1478
vn -0.1320 0.9802 -0.1479
vn -0.1320 0.9801 -0.1479
vn 0.0032 0.7736 0.6337
vn -0.0000 1.0000 -0.0000
vn 0.0083 0.7929 -0.6093
vn 0.0082 0.7928 -0.6094
vn 0.0082 0.7929 -0.6093
vn 0.2856 0.9557 0.0717
vn 0.2856 0.9557 0.0719
vn 0.2856 0.9557 0.0718
vn 0.2857 0.9556 0.0719
vn 0.9459 -0.1065 -0.3066
vn -0.0000 -0.0000 -1.0000
vn -0.0000 -1.0000 -0.0000
vn -0.0000 -1.0000 0.0002
vn -0.0000 -1.0000 0.0001
vn 0.9223 -0.0093 -0.3863
vn 0.9223 -0.0092 -0.3863
vn 1.0000 -0.0000 -0.0000
vn -0.0000 -0.0000 1.0000
vn -0.9228 -0.0000 0.3852
vn -0.9229 -0.0000 0.3850
vn 0.9931 -0.0230 -0.1147
vn -0.0287 0.9663 -0.2557
vn 0.8943 -0.0000 0.4474
vn 0.8944 -0.0000 0.4474
vn 0.8944 -0.0000 0.4473
vn -0.0000 -0.0001 1.0000
vn -0.0000 -1.0000 -0.0002
vn -1.0000 -0.0001 -0.0000
vn -0.9966 -0.0000 -0.0828
vn -0.9229 -0.0000 0.3849
vn -0.9230 -0.0000 0.3849
vn -0.9996 0.0266 -0.0000
vn -0.3148 -0.0421 -0.9482
vn 0.8854 -0.1419 0.4427
vn 0.8944 -0.0000 -0.4473
vn 0.8944 -0.0000 -0.4472
vn 0.8944 -0.0001 -0.4473
vn 0.8944 -0.0000 0.4472
vn 0.8944 -0.0000 -0.4474
vn 0.8374 0.3514 -0.4187
vn -0.8370 0.3526 0.4185
vn -0.0719 -0.0000 0.9974
vn -0.0718 -0.0000 0.9974
vn -0.0000 0.1061 0.9944
vn -0.0000 0.1062 0.9943
vn -0.0000 0.1060 0.9944
vn -0.8946 0.3213 0.3106
vn -0.9923 0.0416 -0.1166
vn -0.8945 0.3214 0.3107
vn 0.0005 1.0000 -0.0002
vn -0.5795 0.5125 -0.6337
vn -0.5799 0.5123 -0.6335
vn -0.4642 0.0961 -0.8805
vn 0.9223 -0.0094 -0.3863
vn -0.9229 -0.0000 0.3851
vn 0.8944 0.0001 -0.4472
vn 1.0000 -0.0001 -0.0000
vn -0.5796 0.5124 -0.6336
vn 0.0082 0.7929 -0.6094
vn -0.0846 -0.1158 -0.9897
vn -0.0845 -0.1158 -0.9897
vn -0.0312 0.0576 -0.9979
vn 0.0192 0.1253 -0.9919
vn -0.0050 -0.0880 -0.9961
vn -0.0430 -0.2840 -0.9579
vn -0.0846 -0.1159 -0.9897
vn -0.0306 -0.0027 -0.9995
vn 0.0333 -0.0160 -0.9993
vn -0.0003 0.1216 -0.9926
vn -0.0004 0.1215 -0.9926
vn -0.0006 0.1219 -0.9925
vn -0.0003 0.1214 -0.9926
vn -0.0003 0.1213 -0.9926
vn -0.0219 0.0961 -0.9951
vn 0.0002 0.0255 -0.9997
vn -0.0008 0.0253 -0.9997
vn -0.0000 0.0256 -0.9997
vn -0.0000 0.0254 -0.9997
vn -0.0005 0.0259 -0.9997
vn -0.0001 0.0251 -0.9997
vn 0.0003 0.0844 -0.9964
vn -0.0001 0.0254 -0.9997
vn 0.0001 0.0255 -0.9997
vn 0.0122 0.1074 -0.9941
vn 0.0018 0.9439 -0.3303
vn 0.0211 0.9746 -0.2231
vn -0.0149 0.9226 0.3854
vn 0.0569 0.9808 0.1864
vn 0.0569 0.9808 0.1863
vn 0.0570 0.9808 0.1865
vn 0.2269 0.9724 0.0542
vn 0.3171 0.9400 -0.1260
vn 0.2268 0.9724 0.0542
vn 0.1275 0.9887 0.0785
vn 0.1276 0.9887 0.0786
vn 0.0573 0.9901 -0.1280
vn 0.0574 0.9901 -0.1280
vn -0.0150 0.8862 -0.4631
vn -0.0149 0.8862 -0.4631
vn 0.2463 0.9098 -0.3340
vn 0.2465 0.9098 -0.3339
vn 0.0556 0.9637 -0.2612
vn -0.0016 0.8374 0.5466
vn 0.0555 0.9637 -0.2612
vn -0.0088 0.9299 -0.3677
vn -0.0350 0.8614 0.5067
vn 0.0068 -0.1522 0.9883
vn 0.0598 -0.0554 0.9967
vn 0.0598 -0.0555 0.9967
vn -0.0471 -0.0836 0.9954
vn -0.1001 0.0201 0.9948
vn 0.0003 0.1741 0.9847
vn 0.0959 0.0803 0.9922
vn -0.0089 0.1207 0.9926
vn -0.0096 0.1208 0.9926
vn -0.0089 0.1207 0.9927
vn -0.0089 0.1206 0.9927
vn -0.0392 0.0042 0.9992
vn 0.0185 -0.0465 0.9987
vn -0.0554 0.0031 0.9985
vn -0.0778 -0.0588 0.9952
vn 0.0501 -0.0748 0.9959
vn 0.0035 -0.0428 0.9991
vn 0.0001 -0.0462 0.9989
vn 0.3091 0.0672 0.9487
vn -0.0784 0.0639 0.9949
vn -0.0783 0.0639 0.9949
vn -0.3619 -0.2134 0.9075
vn -0.0162 -0.0136 0.9998
vn -0.0811 0.0582 0.9950
vn -0.0470 -0.0835 0.9954
vn 0.0147 0.8252 0.5647
vn 0.0122 0.8027 0.5963
vn -0.0522 0.9732 -0.2239
vn -0.1280 0.9669 -0.2206
vn -0.0523 0.9732 -0.2241
vn -0.2178 0.9715 -0.0941
vn -0.2041 0.9226 -0.3272
vn -0.2041 0.9227 -0.3272
vn -0.2041 0.9226 -0.3273
vn -0.3114 0.9379 -0.1531
vn -0.2178 0.9714 -0.0941
vn -0.2042 0.9226 -0.3273
vn -0.3336 0.9378 0.0962
vn -0.2058 0.9765 0.0639
vn -0.3114 0.9379 -0.1532
vn -0.1278 0.9636 0.2348
vn -0.1056 0.9727 0.2068
vn -0.1132 0.9717 0.2073
vn -0.1112 0.9720 0.2070
vn -0.0424 0.9599 -0.2773
vn -0.0423 0.9599 -0.2771
vn -0.0424 0.9599 -0.2771
vn -0.0028 0.9456 -0.3254
vn 0.0003 0.0255 -0.9997
vn -0.0138 0.9643 -0.2645
vn -0.0792 0.9817 0.1731
vn -0.0791 0.9817 0.1733
vn 0.0476 0.9581 0.2826
vn 0.0476 0.9580 0.2827
vn 0.0475 0.9581 0.2826
vn 0.0913 0.9904 0.1033
vn 0.0913 0.9904 0.1035
vn 0.0914 0.9904 0.1035
vn -0.1159 0.9712 0.2082
vn -0.1158 0.9712 0.2082
vn -0.2066 0.9222 0.3270
vn 0.0203 0.9345 0.3554
vn 0.0204 0.9345 0.3554
vn 0.0169 0.9635 -0.2673
vn 0.0170 0.9635 -0.2673
vn -0.2067 0.9222 0.3269
vn -0.0367 0.9335 -0.3568
vn -0.0945 -0.0742 -0.9928
vt 0.409492 0.147573
vt 0.410560 0.148022
vt 0.409946 0.148457
vt 0.410946 0.148238
vt 0.411010 0.147584
vt 0.779096 0.011539
vt 0.781292 0.011027
vt 0.782354 0.011037
vt 0.782338 0.012145
vt 0.779014 0.010974
vt 0.769320 0.012421
vt 0.770771 0.013285
vt 0.772588 0.013641
vt 0.769248 0.013316
vt 0.769241 0.013764
vt 0.720594 0.034415
vt 0.720254 0.033158
vt 0.720694 0.032791
vt 0.721018 0.031352
vt 0.720652 0.031877
vt 0.769389 0.014506
vt 0.769611 0.014905
vt 0.720511 0.031361
vt 0.769009 0.009805
vt 0.781860 0.008304
vt 0.782031 0.009749
vt 0.769181 0.011249
vt 0.782481 0.013302
vt 0.720124 0.019303
vt 0.719682 0.019374
vt 0.719051 0.031466
vt 0.719290 0.032653
vt 0.718756 0.032686
vt 0.718479 0.014278
vt 0.717879 0.014328
vt 0.718233 0.012959
vt 0.829398 0.011085
vt 0.816437 0.011421
vt 0.816403 0.010098
vt 0.719881 0.013773
vt 0.816321 0.012929
vt 0.827335 0.012583
vt 0.411277 0.146329
vt 0.410649 0.146421
vt 0.407247 0.129037
vt 0.408194 0.127943
vt 0.407960 0.127382
vt 0.829420 0.012561
vt 0.405754 0.129353
vt 0.829363 0.009762
vt 0.412333 0.128707
vt 0.816365 0.008648
vt 0.408802 0.126105
vt 0.829325 0.008312
vt 0.720221 0.012827
vt 0.719711 0.012840
vt 0.719510 0.008342
vt 0.816467 0.013865
vt 0.829430 0.013907
vt 0.716439 0.014316
vt 0.716659 0.012945
vt 0.717945 0.008364
vt 0.716733 0.008408
vt 0.720258 0.014159
vt 0.720167 0.008310
vt 0.717485 0.031512
vt 0.405165 0.129587
vt 0.404761 0.128161
vt 0.401021 0.125037
vt 0.403415 0.129078
vt 0.408868 0.129032
vt 0.408951 0.147871
vt 0.407590 0.147273
vt 0.409144 0.146686
vt 0.408226 0.148753
vt 0.410041 0.149682
vt 0.411705 0.147942
vt 0.411340 0.147335
vt 0.782334 0.010530
vt 0.717954 0.034466
vt 0.717721 0.034192
vt 0.719126 0.034366
vt 0.022519 0.008282
vt 0.023676 0.009158
vt 0.023104 0.009213
vt 0.721162 0.034457
vt 0.721096 0.034115
vt 0.052018 0.382213
vt 0.053085 0.382662
vt 0.052472 0.383097
vt 0.053472 0.382878
vt 0.053536 0.382224
vt 0.589845 0.011539
vt 0.592042 0.011027
vt 0.593103 0.011037
vt 0.593087 0.012145
vt 0.580069 0.012422
vt 0.589763 0.010974
vt 0.581520 0.013285
vt 0.579930 0.011250
vt 0.592780 0.009749
vt 0.593084 0.010530
vt 0.053803 0.380969
vt 0.053175 0.381061
vt 0.049773 0.363677
vt 0.048280 0.363993
vt 0.053866 0.381975
vt 0.051670 0.381326
vt 0.579758 0.009806
vt 0.592609 0.008304
vt 0.593230 0.013302
vt 0.580360 0.014906
vt 0.583337 0.013641
vt 0.982972 0.068460
vt 0.983359 0.080518
vt 0.982531 0.068531
vt 0.983866 0.080509
vt 0.580138 0.014506
vt 0.983500 0.081033
vt 0.981898 0.080623
vt 0.983944 0.083272
vt 0.983442 0.083572
vt 0.980333 0.080669
vt 0.981604 0.081842
vt 0.980569 0.083349
vt 0.980728 0.063485
vt 0.983106 0.063315
vt 0.979288 0.063473
vt 0.983542 0.081948
vt 0.981327 0.063434
vt 0.981082 0.062116
vt 0.980793 0.057521
vt 0.979508 0.062102
vt 0.982730 0.062930
vt 0.847863 0.012929
vt 0.847979 0.011421
vt 0.858877 0.012583
vt 0.860940 0.011085
vt 0.847944 0.010098
vt 0.982560 0.061997
vt 0.983069 0.061984
vt 0.848009 0.013865
vt 0.982359 0.057499
vt 0.860905 0.009762
vt 0.847907 0.008648
vt 0.860867 0.008312
vt 0.860972 0.013907
vt 0.047691 0.364227
vt 0.047287 0.362800
vt 0.860962 0.012561
vt 0.054859 0.363347
vt 0.050486 0.362022
vt 0.051328 0.360745
vt 0.043547 0.359677
vt 0.045940 0.363717
vt 0.050720 0.362583
vt 0.051394 0.363672
vt 0.051477 0.382511
vt 0.050115 0.381912
vt 0.050752 0.383393
vt 0.052566 0.384322
vt 0.054230 0.382582
vt 0.983016 0.057467
vt 0.979582 0.057565
vt 0.983102 0.082315
vt 0.981973 0.083523
vt 0.984010 0.083614
vt 0.243312 0.008282
vt 0.244469 0.009158
vt 0.243897 0.009213
vt 0.980801 0.083623
vt 0.982138 0.081810
vt 0.579998 0.013316
vt 0.579990 0.013764
vt 0.425819 0.194491
vt 0.423570 0.195785
vt 0.424623 0.193318
vt 0.429458 0.197066
vt 0.434244 0.196815
vt 0.429844 0.193505
vt 0.426451 0.192344
vt 0.423749 0.190432
vt 0.422369 0.190604
vt 0.422049 0.195829
vt 0.422081 0.197117
vt 0.428229 0.199565
vt 0.422144 0.199706
vt 0.431375 0.202732
vt 0.428307 0.202843
vt 0.431270 0.199484
vt 0.425239 0.202903
vt 0.434421 0.202620
vt 0.434316 0.199399
vt 0.434455 0.203449
vt 0.431407 0.203553
vt 0.434504 0.204170
vt 0.431386 0.204263
vt 0.434954 0.208514
vt 0.431614 0.208304
vt 0.434728 0.211820
vt 0.431554 0.212015
vt 0.434920 0.215210
vt 0.431578 0.215466
vt 0.434889 0.219043
vt 0.428385 0.212584
vt 0.428474 0.215691
vt 0.431273 0.219149
vt 0.428482 0.218972
vt 0.431722 0.222621
vt 0.434883 0.222617
vt 0.434787 0.224791
vt 0.431709 0.224829
vt 0.434768 0.225428
vt 0.428548 0.222580
vt 0.427950 0.224810
vt 0.431709 0.225439
vt 0.428637 0.225394
vt 0.428461 0.229180
vt 0.422574 0.228853
vt 0.422454 0.232852
vt 0.431796 0.232444
vt 0.428734 0.232494
vt 0.434788 0.228716
vt 0.426821 0.233280
vt 0.422462 0.233916
vt 0.428816 0.235470
vt 0.425815 0.234781
vt 0.427069 0.235148
vt 0.430480 0.236243
vt 0.431880 0.236640
vt 0.432958 0.237156
vt 0.435092 0.234665
vt 0.434562 0.236825
vt 0.424751 0.236238
vt 0.422947 0.236095
vt 0.422543 0.225530
vt 0.425576 0.224831
vt 0.422535 0.224879
vt 0.422483 0.222785
vt 0.425466 0.222590
vt 0.422197 0.218954
vt 0.424644 0.218258
vt 0.422166 0.215373
vt 0.425224 0.215049
vt 0.425355 0.211970
vt 0.422331 0.211931
vt 0.422280 0.208319
vt 0.425319 0.208273
vt 0.422092 0.204466
vt 0.424907 0.204364
vt 0.422187 0.203750
vt 0.425219 0.203722
vt 0.422186 0.202924
vt 0.428317 0.203667
vt 0.428114 0.204503
vt 0.428406 0.208310
vt 0.431422 0.189806
vt 0.433992 0.190193
s 1
f 5/1/1 1/2/1 2/3/1
f 2/3/2 1/2/3 3/4/2
f 1/2/4 4/5/4 3/4/4
f 6/6/5 4/7/6 1/8/7
f 1/8/7 5/9/8 6/6/5
f 7/10/9 4/7/9 6/6/9
f 6/6/9 8/11/9 7/10/9
f 6/6/10 5/9/10 9/12/10
f 9/12/10 8/11/10 6/6/10
f 9/12/11 5/9/12 10/13/13
f 11/14/14 8/11/15 9/12/16
f 10/13/13 12/15/11 9/12/11
f 9/12/16 12/15/17 11/14/14
f 13/16/18 11/17/18 12/18/18
f 12/18/19 14/19/19 13/16/19
f 14/19/19 12/18/19 15/20/19
f 15/21/19 12/15/19 10/13/19
f 10/13/19 16/22/19 15/21/19
f 14/19/19 15/20/19 16/23/19
f 16/24/20 18/25/21 17/26/22
f 17/26/22 21/27/20 16/24/20
f 18/28/19 16/22/19 10/13/19
f 19/29/23 16/23/23 20/30/24
f 14/19/19 16/23/19 19/29/19
f 20/30/25 16/23/25 21/31/25
f 21/27/26 17/26/26 7/10/26
f 8/32/26 23/33/26 21/31/26
f 7/10/26 8/11/26 21/27/26
f 24/34/26 21/31/26 22/35/26
f 22/35/27 21/31/28 23/33/28
f 21/31/25 24/34/25 20/30/25
f 24/34/26 22/35/26 25/36/26
f 28/37/26 24/38/26 25/39/26
f 20/30/29 24/34/29 27/40/29
f 27/41/30 24/38/30 26/42/30
f 26/42/10 24/38/10 28/37/10
f 29/43/26 17/44/26 28/45/26
f 29/43/31 28/45/32 30/46/33
f 28/45/26 32/47/26 30/46/26
f 28/37/10 31/48/10 26/42/10
f 31/49/1 28/45/1 17/44/1
f 25/39/26 32/50/26 28/37/26
f 30/46/26 32/47/26 33/51/34
f 32/50/20 25/39/35 35/52/35
f 33/51/36 32/47/36 34/53/36
f 35/52/35 34/54/20 32/50/20
f 37/55/19 35/56/19 36/57/19
f 36/57/25 35/56/25 25/36/25
f 27/40/19 35/56/19 37/55/19
f 26/42/19 35/58/19 27/41/19
f 34/59/19 35/58/19 26/42/19
f 22/35/37 39/60/37 37/61/37
f 22/35/28 37/61/38 38/62/39
f 40/63/40 38/62/40 37/61/40
f 37/55/19 39/64/19 27/40/19
f 40/65/41 37/55/41 36/57/41
f 39/60/37 22/35/37 14/66/37
f 39/64/19 19/29/19 27/40/19
f 19/29/19 39/64/19 14/19/19
f 36/57/42 25/36/42 38/62/42
f 38/62/39 25/36/28 22/35/28
f 31/49/19 41/67/19 34/68/19
f 33/69/43 34/68/44 41/67/45
f 26/42/19 31/48/19 34/59/19
f 41/67/45 30/70/44 33/69/43
f 30/46/33 41/71/46 29/43/31
f 42/72/43 29/73/44 41/67/43
f 41/67/43 18/74/47 42/72/43
f 31/49/19 18/74/19 41/67/19
f 42/72/25 43/75/25 29/73/25
f 43/75/25 42/72/25 44/76/25
f 5/1/19 42/72/19 18/74/19
f 5/1/19 2/3/19 42/72/19
f 42/72/48 2/3/48 44/76/48
f 43/77/26 44/76/26 3/4/26
f 3/4/2 44/76/49 2/3/2
f 29/43/26 43/77/26 45/78/26
f 45/78/50 43/77/51 3/4/50
f 45/79/52 4/7/53 7/10/52
f 7/10/52 17/26/54 45/79/52
f 45/78/26 17/44/26 29/43/26
f 3/4/50 4/5/50 45/78/50
f 17/44/1 18/74/1 31/49/1
f 20/30/24 27/40/23 19/29/23
f 47/80/55 46/81/55 23/33/55
f 14/66/56 23/33/56 46/81/56
f 23/33/55 48/82/57 47/80/55
f 8/32/26 48/82/26 23/33/26
f 23/33/28 14/66/38 22/35/27
f 48/83/58 13/84/58 47/85/58
f 11/17/25 13/16/25 48/82/25
f 48/82/25 8/32/25 11/17/25
f 47/86/59 13/16/59 46/87/60
f 14/19/61 46/87/61 13/16/61
f 10/13/19 5/9/19 18/28/19
f 53/88/1 49/89/1 50/90/1
f 50/90/2 49/89/3 51/91/2
f 49/89/4 52/92/4 51/91/4
f 54/93/5 52/94/6 49/95/7
f 49/95/7 53/96/8 54/93/5
f 54/93/9 55/97/9 57/98/9
f 56/99/10 55/97/10 54/93/10
f 54/93/10 53/96/10 56/99/10
f 57/98/9 52/94/9 54/93/9
f 57/98/26 55/97/26 58/100/26
f 58/100/26 60/101/26 57/98/26
f 59/102/52 52/94/53 57/98/52
f 57/98/52 60/101/54 59/102/52
f 62/103/26 60/104/26 61/105/26
f 63/106/1 61/105/1 60/104/1
f 59/107/26 60/104/26 62/103/26
f 60/104/1 64/108/1 63/106/1
f 65/109/20 64/110/21 60/101/22
f 60/101/22 58/100/20 65/109/20
f 64/111/19 65/112/19 69/113/19
f 66/114/23 65/115/23 68/116/62
f 70/117/19 65/115/19 66/114/19
f 69/113/19 65/112/19 67/118/19
f 70/117/19 67/119/19 65/115/19
f 68/116/25 65/115/25 58/120/25
f 70/117/61 71/121/61 75/122/61
f 70/123/56 72/124/56 71/125/56
f 72/124/28 70/123/38 76/126/63
f 66/114/19 73/127/19 70/117/19
f 73/128/37 76/126/37 70/123/37
f 70/117/19 74/129/19 67/119/19
f 74/129/19 70/117/19 75/122/19
f 80/130/26 58/120/26 76/126/26
f 76/126/63 58/120/28 72/124/28
f 80/130/26 76/126/26 77/131/26
f 78/132/39 77/131/28 76/126/28
f 76/126/28 79/133/38 78/132/39
f 76/126/37 73/128/37 79/133/37
f 68/116/29 80/130/29 82/134/29
f 58/120/25 80/130/25 68/116/25
f 82/135/30 80/136/30 81/137/30
f 81/137/10 80/136/10 61/138/10
f 61/138/26 80/136/26 77/139/26
f 82/134/19 83/140/19 79/141/19
f 79/141/19 73/127/19 82/134/19
f 73/127/19 66/114/19 82/134/19
f 68/116/62 82/134/23 66/114/23
f 81/137/19 83/142/19 82/135/19
f 79/141/19 83/140/19 84/143/19
f 84/143/25 83/140/25 77/131/25
f 85/144/20 77/139/35 83/145/35
f 83/145/35 86/146/20 85/144/20
f 86/147/19 83/142/19 81/137/19
f 63/106/19 87/148/19 86/149/19
f 81/137/19 63/150/19 86/147/19
f 88/151/36 85/152/36 86/153/36
f 88/154/43 86/149/44 87/148/45
f 87/148/45 89/155/64 88/154/43
f 89/156/26 85/152/26 88/151/34
f 61/105/26 85/152/26 89/156/26
f 62/103/31 61/105/33 89/156/33
f 89/156/33 87/157/46 62/103/31
f 90/158/43 62/159/44 87/148/43
f 87/148/43 64/108/47 90/158/43
f 63/106/19 64/108/19 87/148/19
f 91/160/25 90/158/25 92/161/25
f 90/158/25 91/160/25 62/159/25
f 53/88/19 90/158/19 64/108/19
f 53/88/19 50/90/19 90/158/19
f 90/158/48 50/90/48 92/161/48
f 91/162/26 92/161/26 51/91/26
f 51/91/2 92/161/49 50/90/2
f 59/107/50 91/162/51 51/91/50
f 62/103/26 91/162/26 59/107/26
f 77/139/26 85/144/26 61/138/26
f 84/143/42 77/131/42 78/132/42
f 93/163/41 79/141/41 84/143/41
f 93/164/40 78/132/40 79/133/40
f 61/138/10 63/150/10 81/137/10
f 75/122/18 94/165/18 74/129/18
f 94/165/25 75/122/65 95/166/25
f 96/167/66 75/122/66 71/121/66
f 95/168/58 75/169/58 96/170/58
f 72/124/55 95/166/57 96/171/55
f 96/171/55 71/125/55 72/124/55
f 95/166/25 55/172/25 94/165/25
f 55/172/26 95/166/26 72/124/26
f 94/173/14 55/97/16 56/99/16
f 56/99/16 74/174/17 94/173/14
f 67/118/19 74/174/19 69/113/19
f 69/113/13 74/174/11 56/99/13
f 55/172/26 72/124/26 58/120/26
f 69/113/19 53/96/19 64/111/19
f 56/99/13 53/96/67 69/113/13
f 51/91/50 52/92/50 59/107/50
f 97/175/68 98/176/69 102/177/69
f 97/175/70 99/178/70 98/176/70
f 100/179/71 99/178/71 97/175/71
f 100/179/72 97/175/72 101/180/72
f 101/180/73 97/175/73 103/181/73
f 102/177/69 103/181/74 97/175/68
f 102/177/75 98/176/75 104/182/75
f 105/183/76 104/182/76 98/176/76
f 98/176/76 106/184/76 105/183/76
f 98/176/77 107/185/78 106/184/79
f 107/185/78 98/176/77 109/186/80
f 109/186/80 108/187/81 107/185/78
f 99/178/82 109/186/82 98/176/82
f 110/188/83 111/189/84 109/186/85
f 109/186/85 113/190/86 110/188/83
f 109/186/85 111/189/84 112/191/87
f 108/187/88 109/186/85 112/191/87
f 99/178/89 113/190/89 109/186/89
f 114/192/90 110/188/83 113/190/86
f 113/190/91 115/193/91 114/192/91
f 115/193/92 113/190/92 99/178/92
f 99/178/92 100/179/92 115/193/92
f 110/188/93 114/192/93 116/194/93
f 116/194/93 117/195/93 110/188/93
f 117/195/94 116/194/94 118/196/94
f 118/196/94 119/197/94 117/195/94
f 119/197/95 118/196/95 120/198/95
f 120/198/95 121/199/95 119/197/95
f 121/199/96 120/198/97 122/200/96
f 122/200/98 123/201/98 121/199/98
f 123/201/99 122/200/99 124/202/99
f 126/203/100 124/202/100 125/204/100
f 124/202/101 126/203/101 123/201/99
f 127/205/102 123/201/102 126/203/103
f 126/203/103 128/206/102 127/205/102
f 128/206/104 126/203/105 129/207/104
f 125/204/100 129/207/100 126/203/100
f 130/208/106 129/207/106 131/209/107
f 129/207/104 130/208/104 128/206/104
f 132/210/108 131/209/108 129/207/108
f 129/207/109 125/204/109 132/210/109
f 131/209/110 132/210/110 133/211/110
f 135/212/111 133/211/111 134/213/111
f 133/211/112 135/212/112 131/209/112
f 136/214/113 131/209/113 135/212/113
f 135/212/113 137/215/113 136/214/113
f 137/215/114 135/212/114 138/216/114
f 134/213/111 138/216/111 135/212/111
f 138/216/114 139/217/114 137/215/114
f 139/217/115 138/216/115 140/218/115
f 140/218/116 138/216/117 134/213/116
f 139/217/118 140/218/118 141/219/118
f 141/219/119 140/218/119 145/220/119
f 140/218/120 142/221/120 144/222/120
f 140/218/121 143/223/121 142/221/121
f 134/213/116 143/223/116 140/218/116
f 145/220/122 140/218/123 144/222/124
f 144/222/124 147/224/125 145/220/122
f 147/224/126 146/225/126 145/220/126
f 144/222/127 150/226/127 147/224/127
f 146/225/128 147/224/128 148/227/128
f 147/224/129 149/228/129 148/227/129
f 147/224/130 150/226/130 149/228/130
f 142/221/131 151/229/131 150/226/131
f 142/221/132 150/226/132 144/222/132
f 142/221/133 152/230/133 151/229/133
f 153/231/134 152/230/134 142/221/135
f 154/232/136 155/233/136 153/231/136
f 142/221/135 154/232/134 153/231/134
f 143/223/137 154/232/137 142/221/137
f 148/227/128 156/234/128 146/225/128
f 146/225/138 156/234/138 157/235/138
f 141/219/118 158/236/139 139/217/118
f 139/217/140 158/236/140 159/237/140
f 158/236/141 160/238/141 159/237/141
f 159/237/142 160/238/142 161/239/142
f 162/240/143 161/239/143 163/241/143
f 161/239/144 162/240/144 159/237/144
f 163/241/143 165/242/143 162/240/143
f 165/242/145 163/241/145 164/243/145
f 136/214/146 162/240/147 165/242/148
f 130/208/149 165/242/149 166/244/149
f 164/243/150 166/244/150 165/242/150
f 165/242/148 130/208/151 136/214/146
f 128/206/152 166/244/152 167/245/152
f 168/246/153 167/245/153 166/244/153
f 166/244/153 164/243/153 168/246/153
f 166/244/149 128/206/154 130/208/149
f 167/245/155 168/246/155 169/247/155
f 169/247/155 170/248/155 167/245/155
f 170/248/156 169/247/156 171/249/156
f 171/249/156 172/250/157 170/248/158
f 172/250/159 171/249/159 173/251/159
f 173/251/160 174/252/161 172/250/160
f 174/252/162 173/251/162 175/253/162
f 112/191/163 175/253/163 108/187/163
f 175/253/162 112/191/162 174/252/162
f 176/254/164 174/252/164 112/191/164
f 174/252/165 176/254/166 177/255/166
f 177/255/166 172/250/165 174/252/165
f 177/255/167 119/197/168 121/199/169
f 119/197/170 177/255/171 176/254/172
f 121/199/169 178/256/169 177/255/167
f 172/250/157 177/255/173 178/256/174
f 178/256/174 170/248/158 172/250/157
f 170/248/175 178/256/175 127/205/175
f 178/256/176 121/199/176 123/201/177
f 123/201/177 127/205/177 178/256/176
f 176/254/172 117/195/170 119/197/170
f 117/195/178 176/254/179 111/189/179
f 112/191/164 111/189/164 176/254/164
f 127/205/175 167/245/180 170/248/175
f 167/245/152 127/205/152 128/206/152
f 137/215/181 159/237/181 162/240/181
f 162/240/181 136/214/181 137/215/181
f 159/237/140 137/215/140 139/217/140
f 131/209/107 136/214/107 130/208/106
f 111/189/179 110/188/178 117/195/178
f 100/179/72 101/180/72 179/257/72
f 179/257/182 180/258/182 100/179/182
