# Blender 4.4.1
# www.blender.org
o Dead_Tree
v 0.462142 0.016377 -0.006646
v 0.461238 0.036434 0.058046
v 0.460128 0.061054 -0.040801
v 0.456385 0.062130 -0.052835
v 0.458965 0.004865 -0.009021
v 0.447458 0.062243 -0.057552
v 0.450263 0.000098 -0.009922
v 0.457939 0.027615 0.064632
v 0.449190 0.023835 0.067143
v 0.458593 0.095060 0.057925
v 0.454704 0.099394 0.064596
v 0.457771 0.113322 -0.000735
v 0.445728 0.100651 0.067143
v 0.453704 0.121618 -0.007290
v 0.444660 0.124389 -0.009922
v 0.304746 0.111730 -0.008351
v 0.307260 0.055924 -0.052466
v 0.309775 0.000118 -0.008351
v 0.230865 0.052481 -0.047594
v 0.233227 0.000129 -0.006845
v 0.156675 0.000140 -0.005340
v 0.232325 0.020125 0.059087
v 0.155833 0.018817 0.055146
v 0.077556 0.017428 0.053015
v 0.075023 0.073600 0.053015
v 0.153110 0.079258 0.055146
v 0.152267 0.097936 -0.005340
v 0.141346 0.081877 0.043714
v 0.086476 0.077878 0.042210
v 0.229407 0.084836 0.059087
v 0.228508 0.104833 -0.006845
v 0.308815 0.021434 0.063029
v 0.305706 0.090414 0.063029
v 0.154471 0.049038 -0.042722
v 0.076290 0.045514 -0.037085
v 0.078338 0.000070 -0.002670
v 0.000000 0.000000 0.000000
v -0.000725 0.016039 0.050884
v -0.003062 0.067941 0.050884
v -0.159236 0.056624 0.046622
v -0.157282 0.013260 0.046622
v -0.446542 0.035118 0.042019
v -0.445357 0.008832 0.042019
v -0.156677 -0.000140 0.005339
v -0.444990 0.000710 0.016994
v -0.001893 0.041990 -0.031449
v -0.158259 0.034942 -0.020175
v -0.159840 0.070024 0.005339
v -0.445950 0.021975 0.001529
v -0.003784 0.083980 -0.000000
v 0.074242 0.090958 -0.002670
v 0.140825 0.093435 0.006182
v 0.085995 0.088554 0.008065
v 0.125844 0.131562 0.025369
v 0.097434 0.129033 0.026345
v 0.101724 0.152731 0.020441
v 0.097684 0.123501 0.044037
v 0.119492 0.153626 0.019457
v 0.119210 0.159849 0.030531
v 0.126114 0.125573 0.044817
v 0.101470 0.158356 0.030553
v -0.608268 0.000273 -0.007582
v -0.607675 0.014686 -0.017950
v -0.446907 0.043240 0.016994
v -0.609560 0.028987 -0.007582
v -0.611321 0.023413 0.009193
v -0.628773 0.027256 -0.003042
v -0.629114 0.034348 -0.011403
v -0.618243 0.036899 -0.013906
v -0.628881 0.031010 -0.020429
v -0.617833 0.033365 -0.023529
v -0.627262 0.013803 -0.012765
v -0.627556 0.000269 -0.003042
v -0.762576 0.000240 0.028741
v -0.764379 0.007623 0.023526
v -0.763248 0.015138 0.028741
v -0.760333 0.003192 0.037179
v -0.760747 0.012399 0.037179
v -0.629248 0.005357 0.012691
v -0.629998 0.022036 0.012691
v -0.610521 0.005666 0.009193
v 0.458546 0.100402 0.069807
v 0.458874 0.093765 0.067170
v 0.305444 0.092974 0.064137
v 0.454845 0.136794 -0.012959
v 0.459039 0.117147 -0.002994
v 0.458227 0.057944 -0.051089
v 0.455990 0.059821 -0.055907
v 0.307294 0.055198 -0.052466
v 0.307036 0.057541 -0.055482
v 0.232009 0.043565 -0.050698
v 0.440802 0.063006 -0.064489
v 0.231724 0.045902 -0.053717
v 0.154224 0.049649 -0.042057
v 0.153925 0.051962 -0.045093
v 0.076323 0.044787 -0.037085
v 0.076007 0.047082 -0.040134
v -0.002182 0.036003 -0.031803
v -0.157890 0.033108 -0.020887
v -0.002499 0.038276 -0.034868
v -0.158216 0.035355 -0.023970
v 0.073905 0.093859 -0.003836
v -0.004125 0.086879 -0.001172
v -0.160185 0.072919 0.004159
v 0.002090 0.067699 0.053090
v 0.075308 0.074292 0.053962
v 0.086217 0.080795 0.043348
v 0.152840 0.082178 0.056272
v 0.085739 0.091472 0.009203
v 0.075600 0.070649 0.052820
v 0.153144 0.078532 0.055146
v 0.230520 0.078453 0.059795
v 0.305805 0.086060 0.064795
v 0.229125 0.087760 0.060199
v 0.151934 0.100835 -0.006512
v 0.228174 0.107738 -0.008002
v 0.304544 0.112158 -0.009513
v 0.141086 0.084796 0.044846
v 0.140570 0.096354 0.007313
v 0.141378 0.081151 0.043714
v 0.140859 0.092708 0.006182
v 0.086027 0.087828 0.008065
v 0.086511 0.077152 0.042210
v -0.002286 0.058256 0.051643
v -0.159716 0.056619 0.048832
v -0.162663 0.051263 0.047036
v -0.446892 0.038014 0.043195
v -0.446508 0.034391 0.042019
v -0.611287 0.022686 0.009193
v -0.611540 0.026317 0.010382
v -0.609633 0.032058 -0.008055
v -0.629164 0.030317 -0.003407
v -0.630010 0.024945 0.013892
v -0.763822 0.017990 0.027522
v -0.760759 0.015308 0.038378
v -0.629966 0.021310 0.012691
v -0.760715 0.011673 0.037179
v -0.763297 0.012576 0.028764
v -0.764156 0.006251 0.025093
v -0.765250 0.009044 0.020488
v -0.628135 0.015224 -0.015802
v -0.625304 0.010204 -0.013188
v -0.628739 0.026529 -0.003042
v -0.609528 0.028261 -0.007582
v -0.608689 0.011692 -0.017298
v -0.607372 0.016218 -0.021029
v -0.445947 0.023502 -0.001567
v -0.447155 0.046181 0.015932
v -0.445915 0.021249 0.001529
vn 0.9539 -0.2827 0.1008
vn 0.9538 -0.2829 0.1008
vn 0.9990 0.0450 -0.0000
vn 0.9319 -0.1930 -0.3072
vn 0.9319 -0.1928 -0.3071
vn 0.9317 -0.1932 -0.3075
vn 0.9317 -0.1933 -0.3076
vn 0.3819 -0.5510 -0.7420
vn 0.4435 -0.8547 0.2698
vn 0.8727 0.0399 0.4867
vn 0.8727 0.0399 0.4866
vn 0.2728 0.0125 0.9620
vn 0.2727 0.0125 0.9620
vn 0.2729 0.0125 0.9620
vn 0.8369 0.5259 0.1514
vn 0.8370 0.5259 0.1514
vn 0.2078 0.9355 0.2858
vn 0.2077 0.9355 0.2858
vn 0.9314 0.2469 -0.2675
vn 0.9316 0.2465 -0.2670
vn 0.9316 0.2466 -0.2670
vn 0.9316 0.2466 -0.2671
vn 0.3875 0.5715 -0.7233
vn 0.3874 0.5715 -0.7234
vn 0.3877 0.5715 -0.7233
vn -0.0806 0.9535 0.2906
vn -0.0806 0.9535 0.2905
vn -0.0814 0.9536 0.2900
vn -0.0602 0.6112 -0.7892
vn -0.0602 0.6111 -0.7892
vn 0.3876 0.5715 -0.7233
vn -0.0746 0.6137 -0.7860
vn -0.0744 0.6135 -0.7862
vn -0.0720 0.6108 -0.7885
vn -0.0187 -0.6179 -0.7861
vn -0.0189 -0.6177 -0.7862
vn -0.0213 -0.6149 -0.7883
vn -0.0049 -0.6141 -0.7892
vn -0.0049 -0.6140 -0.7893
vn -0.0168 -0.6139 -0.7892
vn 0.0028 -0.9560 0.2934
vn 0.0084 -0.9563 0.2923
vn 0.0021 -0.9568 0.2909
vn -0.0182 -0.6110 -0.7914
vn 0.0047 -0.9569 0.2902
vn 0.0043 -0.9572 0.2893
vn 0.0107 -0.9546 0.2977
vn -0.0272 -0.0012 0.9996
vn -0.0514 -0.0023 0.9987
vn -0.0757 0.9528 0.2940
vn -0.0770 0.9525 0.2948
vn -0.0813 0.9533 0.2909
vn -0.0766 0.9524 0.2951
vn -0.0770 0.9518 0.2969
vn -0.0768 0.9513 0.2986
vn -0.0838 0.9533 0.2902
vn -0.0822 0.9537 0.2892
vn -0.0293 -0.0013 0.9996
vn 0.0055 -0.9569 0.2905
vn 0.0050 -0.9570 0.2900
vn -0.0767 0.6095 -0.7891
vn -0.0735 0.6058 -0.7922
vn -0.0825 0.6036 -0.7930
vn -0.0810 0.5996 -0.7962
vn -0.0300 -0.6046 -0.7960
vn -0.0268 -0.6038 -0.7967
vn -0.0243 -0.6113 -0.7911
vn 0.0089 -0.9545 0.2982
vn 0.0107 -0.9531 0.3025
vn -0.0303 -0.5978 -0.8011
vn 0.0096 -0.9526 0.3041
vn 0.0097 -0.9523 0.3051
vn -0.0273 -0.0012 0.9996
vn -0.0160 -0.0007 0.9999
vn 0.0093 -0.9518 0.3065
vn 0.0097 -0.9511 0.3088
vn -0.0322 -0.5929 -0.8046
vn -0.0300 -0.5943 -0.8037
vn -0.0344 -0.5888 -0.8075
vn -0.0285 -0.5953 -0.8030
vn -0.0841 0.5894 -0.8035
vn -0.0869 0.5868 -0.8050
vn -0.0829 0.5903 -0.8029
vn -0.0872 0.5833 -0.8075
vn -0.0811 0.5927 -0.8013
vn -0.0767 0.9501 0.3024
vn -0.0756 0.9497 0.3040
vn -0.0757 0.9493 0.3051
vn -0.0842 0.5987 -0.7966
vn -0.0752 0.9515 0.2984
vn -0.0750 0.9523 0.2959
vn -0.0755 0.9516 0.2978
vn -0.0690 0.4267 -0.9018
vn -0.9683 0.2344 0.0869
vn -0.0225 -0.2509 -0.9678
vn -0.0226 -0.2508 -0.9678
vn -0.9907 0.1364 -0.0006
vn -0.9906 0.1365 -0.0005
vn -0.9682 0.2344 0.0870
vn -0.0724 0.8698 -0.4881
vn -0.0723 0.8697 -0.4882
vn 0.9735 0.2285 -0.0014
vn 0.9735 0.2285 -0.0015
vn -0.0438 0.3707 0.9277
vn -0.9907 0.1364 -0.0007
vn 0.9413 0.3260 0.0873
vn -0.0249 -0.0339 0.9991
vn 0.9413 0.3259 0.0873
vn 0.1229 -0.5811 -0.8045
vn 0.1229 -0.5812 -0.8044
vn 0.0701 0.5899 -0.8045
vn 0.0701 0.5900 -0.8044
vn -0.0755 0.9489 0.3064
vn -0.0759 0.9481 0.3088
vn -0.1283 0.9437 0.3050
vn -0.1283 0.9436 0.3051
vn 0.0701 0.5899 -0.8044
vn -0.0112 0.9493 0.3142
vn -0.0113 0.9493 0.3143
vn -0.0113 0.9495 0.3137
vn 0.0607 0.7166 0.6948
vn 0.0607 0.7166 0.6949
vn 0.8358 0.4539 -0.3089
vn 0.8358 0.4539 -0.3090
vn -0.2874 0.8955 -0.3397
vn -0.2873 0.8955 -0.3399
vn -0.2873 0.8955 -0.3400
vn 0.8358 0.4539 -0.3088
vn -0.2005 -0.3963 -0.8959
vn -0.2004 -0.3964 -0.8960
vn -0.9960 -0.0889 -0.0130
vn -0.9960 -0.0888 -0.0130
vn -0.1856 -0.5784 -0.7944
vn -0.1855 -0.5757 -0.7963
vn -0.1852 -0.5799 -0.7933
vn -0.1873 -0.5694 -0.8005
vn -0.2366 0.5609 -0.7933
vn -0.9616 -0.0434 0.2709
vn -0.9616 -0.0435 0.2708
vn -0.9616 -0.0433 0.2709
vn -0.9616 -0.0433 0.2710
vn 0.1835 0.0083 0.9830
vn -0.0114 0.9496 0.3132
vn -0.0114 0.9496 0.3131
vn -0.0113 0.9495 0.3135
vn 0.0742 -0.9465 0.3142
vn 0.0743 -0.9464 0.3143
vn 0.0740 -0.9466 0.3137
vn -0.0429 -0.9514 0.3050
vn -0.1948 -0.0088 0.9808
vn 0.0740 -0.9467 0.3135
vn 0.0740 -0.9468 0.3133
vn 0.9990 0.0451 -0.0000
vn 0.9820 0.1824 0.0486
vn -0.0188 -0.1455 0.9892
vn -0.0592 0.9128 0.4040
vn 0.9820 0.1825 0.0486
vn 0.9668 0.1437 -0.2114
vn 0.0147 -0.9060 -0.4231
vn 0.9668 0.1437 -0.2115
vn 0.0147 -0.9059 -0.4232
vn 0.1063 -0.7810 -0.6154
vn 0.1062 -0.7808 -0.6157
vn -0.0989 0.6074 -0.7882
vn 0.5113 0.4245 -0.7473
vn 0.1063 -0.7814 -0.6149
vn -0.1280 -0.7925 -0.5963
vn 0.0113 -0.7966 -0.6045
vn 0.0113 -0.7966 -0.6043
vn 0.0113 -0.7966 -0.6044
vn 0.0490 -0.7977 -0.6011
vn -0.0263 -0.8067 -0.5903
vn -0.0263 -0.8067 -0.5904
vn -0.0245 -0.8057 -0.5919
vn 0.0490 -0.7977 -0.6010
vn -0.0199 -0.8046 -0.5935
vn -0.0736 0.5794 -0.8117
vn -0.0998 0.5861 -0.8040
vn -0.0998 0.5861 -0.8041
vn -0.0732 0.9389 0.3364
vn -0.0798 0.9405 0.3304
vn -0.0727 0.9372 0.3411
vn -0.0804 0.9404 0.3305
vn -0.0805 0.9403 0.3306
vn -0.2012 0.9293 0.3098
vn 0.0115 -0.1976 0.9802
vn -0.0935 0.9187 0.3838
vn 0.0016 -0.2969 0.9549
vn -0.0509 -0.1238 0.9910
vn -0.0509 -0.1237 0.9910
vn -0.0596 0.0092 0.9982
vn -0.0651 0.9616 0.2666
vn -0.0649 0.9617 0.2664
vn -0.0647 0.9618 0.2662
vn -0.0829 0.9555 0.2832
vn -0.0827 0.9555 0.2830
vn -0.0826 0.9556 0.2829
vn -0.0555 0.6031 -0.7957
vn -0.0555 0.6032 -0.7957
vn -0.0818 0.6138 -0.7852
vn -0.0819 0.6139 -0.7851
vn -0.1510 0.9562 0.2509
vn -0.0777 0.9655 0.2483
vn -0.0777 0.9656 0.2482
vn -0.0777 0.9656 0.2480
vn -0.0850 0.6120 -0.7863
vn -0.0850 0.6119 -0.7863
vn -0.0471 0.9563 0.2887
vn -0.9970 -0.0769 -0.0100
vn 0.0589 -0.2923 0.9545
vn -0.9970 -0.0765 -0.0096
vn 0.0589 -0.2926 0.9544
vn 0.0589 -0.2927 0.9544
vn 0.9970 0.0766 0.0099
vn 0.9970 0.0767 0.0100
vn 0.9970 0.0766 0.0097
vn 0.0044 0.2975 -0.9547
vn 0.0044 0.2976 -0.9547
vn -0.0188 -0.1453 0.9892
vn 0.0115 -0.1975 0.9802
vn -0.0153 -0.2067 0.9783
vn -0.0153 -0.2068 0.9783
vn 0.0018 -0.3146 0.9492
vn -0.1634 -0.3186 0.9337
vn -0.1634 -0.3187 0.9337
vn -0.1634 -0.3188 0.9336
vn -0.1245 0.9505 0.2847
vn -0.1245 0.9505 0.2848
vn -0.0147 0.9551 0.2959
vn -0.0147 0.9551 0.2958
vn 0.1982 -0.2989 0.9335
vn -0.0218 0.9608 0.2765
vn 0.1977 -0.3017 0.9327
vn 0.1978 -0.3008 0.9329
vn 0.1970 -0.3051 0.9317
vn -0.9609 -0.0590 0.2705
vn -0.9709 -0.0217 0.2385
vn -0.2286 0.6143 -0.7553
vn -0.1587 -0.7120 -0.6841
vn -0.1587 -0.7120 -0.6840
vn 0.9388 0.2786 -0.2025
vn 0.9388 0.2786 -0.2024
vn -0.1587 -0.7118 -0.6842
vn 0.9389 0.2785 -0.2023
vn 0.9389 0.2786 -0.2023
vn -0.2187 -0.1222 -0.9681
vn -0.9796 0.0436 -0.1961
vn -0.9796 0.0435 -0.1960
vn 0.1185 -0.7157 -0.6883
vn 0.0635 0.6227 -0.7799
vn -0.0875 0.5985 -0.7963
vn -0.0711 0.9441 0.3218
vn -0.0125 -0.8086 -0.5883
vn 0.1185 -0.7157 -0.6882
vn -0.0125 -0.8087 -0.5881
vt 0.347908 0.329953
vt 0.347532 0.332634
vt 0.333666 0.338238
vt 0.355823 0.341840
vt 0.358629 0.341889
vt 0.339336 0.399303
vt 0.337427 0.400489
vt 0.334212 0.384566
vt 0.336315 0.384258
vt 0.329482 0.319461
vt 0.331663 0.320036
vt 0.331854 0.336437
vt 0.334893 0.350846
vt 0.329745 0.336272
vt 0.333372 0.352067
vt 0.347988 0.353898
vt 0.349596 0.355846
vt 0.331403 0.352186
vt 0.335037 0.368077
vt 0.333021 0.368553
vt 0.302543 0.371364
vt 0.304059 0.386942
vt 0.287231 0.387272
vt 0.305073 0.402872
vt 0.287435 0.401945
vt 0.266384 0.345874
vt 0.263834 0.332110
vt 0.280445 0.327785
vt 0.270172 0.400748
vt 0.282993 0.342790
vt 0.297433 0.323493
vt 0.249424 0.349120
vt 0.251198 0.361464
vt 0.268184 0.359296
vt 0.269617 0.373451
vt 0.284729 0.357121
vt 0.265922 0.362215
vt 0.253990 0.363721
vt 0.286175 0.372456
vt 0.301181 0.355094
vt 0.299593 0.339998
vt 0.270397 0.387178
vt 0.253164 0.387014
vt 0.252760 0.399571
vt 0.247016 0.336491
vt 0.232486 0.352271
vt 0.235487 0.398442
vt 0.230252 0.340748
vt 0.198622 0.358413
vt 0.234167 0.363605
vt 0.200032 0.367870
vt 0.137528 0.375358
vt 0.136690 0.369691
vt 0.196829 0.349049
vt 0.135259 0.364139
vt 0.201490 0.386859
vt 0.201098 0.396363
vt 0.137846 0.392675
vt 0.235935 0.386907
vt 0.201064 0.377350
vt 0.235398 0.375329
vt 0.137755 0.386886
vt 0.252536 0.374357
vt 0.266814 0.370987
vt 0.254809 0.371639
vt 0.369728 0.320698
vt 0.372852 0.330746
vt 0.366672 0.334025
vt 0.360255 0.326374
vt 0.377036 0.318732
vt 0.370457 0.337891
vt 0.373543 0.336144
vt 0.376727 0.329088
vt 0.371891 0.340315
vt 0.369375 0.340127
vt 0.374998 0.338244
vt 0.363064 0.336664
vt 0.382806 0.330912
vt 0.379505 0.338142
vt 0.375803 0.336812
vt 0.388430 0.322413
vt 0.354156 0.332163
vt 0.101875 0.391334
vt 0.102125 0.387484
vt 0.137739 0.381092
vt 0.101722 0.383655
vt 0.100936 0.379801
vt 0.097600 0.383743
vt 0.332260 0.215239
vt 0.330597 0.216976
vt 0.328105 0.213417
vt 0.331009 0.213064
vt 0.326498 0.209869
vt 0.333665 0.211617
vt 0.333432 0.213715
vt 0.331222 0.210825
vt 0.328828 0.206081
vt 0.332222 0.208460
vt 0.332150 0.204561
vt 0.098176 0.387371
vt 0.097459 0.390967
vt 0.067258 0.389304
vt 0.067250 0.387281
vt 0.067277 0.385262
vt 0.416755 0.000384
vt 0.418254 0.001739
vt 0.417427 0.003583
vt 0.415418 0.003367
vt 0.415003 0.001390
vt 0.067235 0.383247
vt 0.066980 0.381247
vt 0.095945 0.376719
vt 0.096420 0.380330
vt 0.100358 0.375853
vt 0.099869 0.371939
vt 0.096232 0.373137
vt 0.066517 0.379285
vt 0.333324 0.206660
vt 0.423191 0.674316
vt 0.424199 0.673259
vt 0.423804 0.690502
vt 0.386895 0.674103
vt 0.420042 0.691061
vt 0.421582 0.709900
vt 0.420539 0.709197
vt 0.389295 0.709424
vt 0.389178 0.708548
vt 0.416846 0.707689
vt 0.372213 0.710810
vt 0.372195 0.709962
vt 0.354627 0.708903
vt 0.354643 0.708051
vt 0.336995 0.708918
vt 0.336993 0.708068
vt 0.319422 0.709620
vt 0.319425 0.708770
vt 0.284834 0.708660
vt 0.284845 0.707811
vt 0.319132 0.695628
vt 0.336518 0.694883
vt 0.284397 0.697414
vt 0.319078 0.682756
vt 0.335281 0.681050
vt 0.338845 0.691767
vt 0.335181 0.680206
vt 0.338001 0.683376
vt 0.352772 0.679120
vt 0.352665 0.678277
vt 0.369677 0.674627
vt 0.369760 0.676729
vt 0.386941 0.672569
vt 0.370801 0.692759
vt 0.354073 0.694088
vt 0.387456 0.691869
vt 0.351237 0.691165
vt 0.350451 0.681969
vt 0.350001 0.682601
vt 0.350649 0.690669
vt 0.339291 0.691141
vt 0.338604 0.683855
vt 0.317731 0.680857
vt 0.283272 0.686931
vt 0.282400 0.685815
vt 0.220183 0.693636
vt 0.220086 0.692795
vt 0.183556 0.700294
vt 0.183487 0.699451
vt 0.184099 0.704591
vt 0.179621 0.703905
vt 0.179492 0.699715
vt 0.151348 0.693428
vt 0.152027 0.691116
vt 0.179654 0.698872
vt 0.151771 0.690358
vt 0.150229 0.693295
vt 0.150522 0.695609
vt 0.149490 0.696237
vt 0.177575 0.707723
vt 0.177764 0.709189
vt 0.179710 0.704845
vt 0.183769 0.705469
vt 0.185401 0.709003
vt 0.184867 0.710269
vt 0.220438 0.706296
vt 0.220416 0.699943
vt 0.220429 0.707144
s 1
f 5/1/1 1/2/1 2/3/2
f 2/3/3 1/2/3 3/4/3
f 4/5/4 3/4/5 1/2/6
f 1/2/6 5/1/7 4/5/4
f 5/6/8 7/7/8 6/8/8
f 6/8/8 4/9/8 5/6/8
f 7/10/9 5/11/9 8/12/9
f 2/3/2 8/12/1 5/1/1
f 8/12/10 2/3/10 10/13/11
f 8/12/9 9/14/9 7/10/9
f 9/14/12 8/12/13 11/15/14
f 10/13/11 11/15/11 8/12/10
f 12/16/15 14/17/16 11/15/16
f 11/15/16 10/13/16 12/16/15
f 11/15/14 13/18/14 9/14/12
f 13/18/17 11/15/18 14/19/18
f 3/4/19 4/5/20 14/17/21
f 14/17/21 12/16/22 3/4/19
f 15/20/23 14/19/24 4/9/25
f 14/19/18 15/20/18 13/18/17
f 13/18/26 15/20/27 16/21/28
f 17/22/29 16/21/29 15/20/30
f 4/9/25 6/8/31 15/20/23
f 15/20/30 6/8/29 17/22/29
f 16/21/32 17/22/33 19/23/34
f 17/22/35 18/24/36 20/25/37
f 18/24/38 17/22/38 6/8/39
f 20/25/37 19/23/40 17/22/35
f 23/26/41 21/27/42 20/28/43
f 19/23/40 20/25/37 21/29/44
f 20/28/43 22/30/45 23/26/41
f 22/30/45 20/28/43 18/31/46
f 21/27/42 23/26/41 24/32/47
f 25/33/48 24/32/48 23/26/48
f 23/26/48 26/34/48 25/33/48
f 26/34/49 23/26/49 22/30/49
f 27/35/50 26/34/51 30/36/52
f 28/37/53 26/34/51 27/35/50
f 29/38/54 25/33/55 26/34/51
f 26/34/51 28/37/53 29/38/54
f 22/30/49 30/36/49 26/34/49
f 30/36/52 31/39/56 27/35/50
f 31/39/56 30/36/52 33/40/57
f 32/41/49 33/40/49 30/36/49
f 30/36/49 22/30/49 32/41/49
f 33/40/57 16/21/28 31/39/56
f 16/21/28 33/40/57 13/18/26
f 9/14/58 13/18/58 33/40/58
f 33/40/58 32/41/58 9/14/58
f 7/10/59 9/14/59 32/41/60
f 32/41/60 18/31/46 7/10/59
f 18/31/46 32/41/60 22/30/45
f 19/23/34 31/39/61 16/21/32
f 31/39/61 19/23/34 34/42/62
f 34/42/62 27/35/63 31/39/61
f 27/35/63 34/42/62 35/43/64
f 36/44/65 35/43/66 34/42/67
f 34/42/67 21/29/44 36/44/65
f 21/29/44 34/42/67 19/23/40
f 36/45/68 24/32/47 38/46/69
f 24/32/47 36/45/68 21/27/42
f 35/43/66 36/44/65 37/47/70
f 38/46/69 37/48/71 36/45/68
f 37/48/71 38/46/69 41/49/72
f 39/50/48 38/46/48 24/32/48
f 38/46/48 39/50/48 40/51/73
f 40/51/73 41/49/74 38/46/48
f 41/49/74 40/51/73 42/52/74
f 42/52/74 43/53/74 41/49/74
f 44/54/75 41/49/72 43/53/76
f 41/49/72 44/54/75 37/48/71
f 43/53/76 45/55/76 44/54/75
f 47/56/77 44/57/78 45/58/79
f 46/59/80 37/47/70 44/57/78
f 44/57/78 47/56/77 46/59/80
f 47/56/81 48/60/82 50/61/83
f 48/60/82 47/56/81 49/62/84
f 45/58/79 49/62/79 47/56/77
f 50/61/83 46/59/85 47/56/81
f 50/61/86 39/50/87 25/33/55
f 39/50/87 50/61/86 48/60/88
f 46/59/85 50/61/83 51/63/89
f 25/33/55 51/63/90 50/61/86
f 51/63/89 35/43/64 46/59/85
f 35/43/64 51/63/89 27/35/63
f 52/64/91 27/35/50 51/63/90
f 53/65/92 51/63/90 25/33/55
f 51/63/90 53/65/92 52/64/91
f 53/66/93 55/67/93 54/68/93
f 54/68/93 52/69/93 53/66/93
f 55/67/94 53/66/94 29/70/94
f 25/33/55 29/38/54 53/65/92
f 58/71/95 54/68/95 55/67/96
f 55/67/96 56/72/95 58/71/95
f 56/72/97 55/67/98 57/73/97
f 29/70/94 57/73/99 55/67/94
f 59/74/100 58/71/101 56/72/100
f 54/68/102 58/71/103 59/75/102
f 56/72/100 61/76/101 59/74/100
f 59/75/102 60/77/102 54/68/102
f 60/78/104 59/79/104 61/80/104
f 61/80/104 57/73/104 60/78/104
f 57/73/97 61/80/105 56/72/97
f 52/69/106 54/68/106 60/77/106
f 28/81/107 60/78/107 57/73/107
f 60/77/106 28/82/108 52/69/106
f 57/73/107 29/70/107 28/81/107
f 27/35/50 52/64/91 28/37/53
f 49/62/109 45/58/110 62/83/110
f 62/83/110 63/84/110 49/62/109
f 64/85/111 49/62/112 63/84/112
f 49/62/84 64/85/84 48/60/82
f 40/51/113 48/60/88 64/85/114
f 64/85/114 42/52/114 40/51/113
f 42/52/115 64/85/116 65/86/115
f 63/84/112 65/86/117 64/85/111
f 65/86/115 66/87/115 42/52/115
f 66/87/118 65/86/119 67/88/120
f 68/89/121 67/90/121 65/91/121
f 65/91/121 69/92/122 68/89/121
f 69/92/123 65/91/124 63/93/123
f 70/94/125 68/95/126 69/92/127
f 69/92/127 71/96/126 70/94/125
f 63/93/123 71/96/128 69/92/123
f 72/97/129 70/98/130 71/96/130
f 71/96/130 63/93/130 72/97/129
f 70/98/131 72/97/131 67/99/132
f 72/100/133 73/101/134 74/102/135
f 73/101/134 72/100/133 63/84/136
f 67/88/137 72/100/137 75/103/137
f 74/102/135 75/103/135 72/100/133
f 75/103/137 76/104/137 67/88/137
f 75/105/138 74/106/139 77/107/138
f 75/105/138 78/108/140 76/109/141
f 77/107/138 78/108/140 75/105/138
f 78/110/142 77/111/142 79/112/142
f 79/112/142 80/113/142 78/110/142
f 76/104/143 78/110/144 80/113/145
f 81/114/142 66/87/142 80/113/142
f 80/113/142 79/112/142 81/114/142
f 67/88/120 80/113/145 66/87/118
f 80/113/145 67/88/120 76/104/143
f 62/115/146 81/114/147 79/112/148
f 81/114/149 62/115/149 45/55/149
f 66/87/150 81/114/150 43/53/150
f 45/55/149 43/53/149 81/114/149
f 79/112/148 73/116/151 62/115/146
f 73/116/151 79/112/148 77/111/152
f 77/111/152 74/117/152 73/116/151
f 63/84/136 62/83/136 73/101/134
f 67/99/132 68/118/131 70/98/131
f 43/53/150 42/52/150 66/87/150
f 48/60/88 40/51/113 39/50/87
f 37/47/70 46/59/80 35/43/66
f 24/32/48 25/33/48 39/50/48
f 6/8/39 7/7/38 18/24/38
f 3/4/3 12/16/3 2/3/3
f 2/3/3 12/16/3 10/13/153
f 82/119/154 83/120/154 86/121/154
f 83/120/155 82/119/155 84/122/155
f 85/123/156 84/122/156 82/119/156
f 86/121/157 85/123/157 82/119/157
f 85/123/158 86/121/158 87/124/158
f 88/125/159 87/124/159 89/126/159
f 87/124/160 88/125/160 85/123/160
f 89/126/161 90/127/161 92/128/159
f 90/127/162 89/126/163 91/129/162
f 89/126/161 92/128/159 88/125/159
f 85/123/164 92/128/164 90/127/164
f 92/128/165 85/123/165 88/125/165
f 91/129/166 93/130/166 90/127/166
f 93/130/167 91/129/167 94/131/167
f 94/131/167 95/132/167 93/130/167
f 95/132/168 94/131/168 96/133/168
f 96/133/169 97/134/169 95/132/170
f 97/134/171 96/133/171 98/135/171
f 100/136/172 98/135/173 99/137/174
f 98/135/175 100/136/175 97/134/171
f 99/137/174 101/138/176 100/136/172
f 103/139/177 100/136/177 101/138/177
f 102/140/178 97/134/178 100/136/179
f 100/136/179 103/139/179 102/140/178
f 101/138/177 104/141/177 103/139/177
f 105/142/180 103/139/181 104/141/182
f 106/143/183 102/140/184 103/139/181
f 103/139/181 105/142/180 106/143/183
f 109/144/185 102/140/185 106/143/185
f 110/145/186 106/143/186 105/142/186
f 106/143/185 107/146/185 109/144/185
f 107/146/187 106/143/187 108/147/187
f 111/148/188 108/147/188 106/143/188
f 106/143/188 110/145/188 111/148/188
f 108/147/189 111/148/189 112/149/189
f 112/149/190 114/150/190 108/147/190
f 114/150/191 112/149/191 113/151/191
f 113/151/191 84/122/191 114/150/191
f 116/152/192 114/150/193 84/122/194
f 115/153/195 108/147/196 114/150/197
f 114/150/197 116/152/197 115/153/195
f 84/122/194 117/154/193 116/152/192
f 95/132/198 115/153/198 116/152/199
f 116/152/199 93/130/198 95/132/198
f 93/130/200 116/152/201 117/154/201
f 84/122/202 85/123/202 117/154/202
f 90/127/164 117/154/164 85/123/164
f 117/154/201 90/127/201 93/130/200
f 119/155/203 115/153/204 102/140/205
f 97/134/206 102/140/207 115/153/207
f 115/153/207 95/132/207 97/134/206
f 118/156/208 108/147/208 115/153/208
f 115/153/208 119/155/208 118/156/208
f 102/140/205 109/144/204 119/155/203
f 120/157/209 118/156/209 119/155/209
f 121/158/210 119/155/210 109/144/210
f 119/155/211 121/158/211 120/157/211
f 109/144/212 122/159/212 121/158/213
f 107/146/214 123/160/215 122/159/215
f 122/159/216 109/144/216 107/146/216
f 118/156/217 120/157/217 123/160/217
f 123/160/218 107/146/218 118/156/218
f 108/147/187 118/156/187 107/146/187
f 84/122/219 113/151/219 83/120/219
f 105/142/220 124/161/220 110/145/220
f 124/161/221 105/142/221 125/162/221
f 125/162/222 126/163/222 124/161/222
f 127/164/223 128/165/223 126/163/223
f 126/163/223 125/162/223 127/164/223
f 130/166/224 129/167/224 128/165/224
f 128/165/225 127/164/226 130/166/225
f 131/168/227 130/166/228 127/164/228
f 130/166/229 131/168/230 132/169/229
f 132/169/229 133/170/229 130/166/229
f 129/167/231 130/166/231 133/170/231
f 133/170/232 132/169/232 134/171/232
f 134/171/232 135/172/232 133/170/232
f 136/173/233 133/170/234 135/172/235
f 133/170/234 136/173/233 129/167/231
f 135/172/235 137/174/235 136/173/233
f 134/171/236 138/175/236 137/174/236
f 137/174/236 135/172/236 134/171/236
f 140/176/237 139/177/237 138/175/237
f 138/175/237 134/171/237 140/176/237
f 132/169/238 141/178/238 140/176/238
f 140/176/238 134/171/238 132/169/238
f 139/177/239 140/176/240 141/178/240
f 142/179/241 141/178/241 132/169/242
f 141/178/243 142/179/243 139/177/243
f 132/169/244 143/180/245 142/179/244
f 143/180/246 132/169/246 131/168/246
f 131/168/246 144/181/246 143/180/246
f 146/182/247 145/183/247 144/181/247
f 144/181/248 131/168/248 146/182/248
f 145/183/249 146/182/249 147/184/249
f 148/185/250 147/184/250 146/182/250
f 146/182/250 131/168/250 148/185/250
f 147/184/251 148/185/251 104/141/251
f 125/162/252 104/141/252 148/185/252
f 148/185/252 127/164/252 125/162/252
f 127/164/228 148/185/228 131/168/227
f 104/141/251 101/138/251 147/184/251
f 149/186/253 147/184/253 101/138/253
f 147/184/254 149/186/254 145/183/254
f 101/138/176 99/137/174 149/186/255
f 104/141/182 125/162/182 105/142/180
