# Blender 4.4.1
# www.blender.org
o Fence_2
v 0.250447 0.033427 -0.004222
v 0.250447 0.033427 -0.016315
v 0.249836 0.012343 -0.004222
v -0.001855 0.019646 -0.004222
v -0.001245 0.040729 -0.004222
v -0.001245 0.040729 -0.016315
v 0.249836 0.012343 -0.016315
v -0.001855 0.019646 -0.016315
v -0.021089 0.168925 -0.000000
v -0.021089 0.168925 -0.017595
v 0.000000 0.168925 -0.000000
v 0.000000 0.000000 0.000000
v -0.021089 0.000000 0.000000
v -0.021089 -0.000000 -0.017595
v 0.000000 0.168925 -0.017595
v 0.000000 -0.000000 -0.017595
v 0.241216 0.130075 -0.004222
v 0.241216 0.130075 -0.016315
v 0.243055 0.109048 -0.004222
v -0.004037 0.087430 -0.004222
v -0.005877 0.108457 -0.004222
v -0.005877 0.108457 -0.016315
v 0.243055 0.109048 -0.016315
v -0.004037 0.087430 -0.016315
v 0.250868 0.102070 -0.004222
v 0.250868 0.102070 -0.016315
v 0.252445 0.081017 -0.004222
v -0.002946 0.061889 -0.004222
v -0.004523 0.082941 -0.004222
v -0.004523 0.082941 -0.016315
v 0.252445 0.081017 -0.016315
v -0.002946 0.061889 -0.016315
v 0.234329 0.146995 -0.000000
v 0.234329 0.146995 -0.017595
v 0.255418 0.146995 -0.000000
v 0.255418 -0.000001 0.000000
v 0.234329 -0.000001 0.000000
v 0.234329 -0.000001 -0.017595
v 0.255418 0.146995 -0.017595
v 0.255418 -0.000001 -0.017595
vn 0.0290 0.9996 -0.0000
vn 0.9996 -0.0289 -0.0000
vn 0.9996 -0.0290 -0.0000
vn -0.0000 -0.0000 1.0000
vn -0.0000 -0.0000 -1.0000
vn -0.9996 0.0289 -0.0000
vn -0.0290 -0.9996 -0.0000
vn -1.0000 -0.0000 -0.0000
vn -0.0000 1.0000 -0.0000
vn 1.0000 -0.0000 -0.0000
vn -0.0872 0.9962 -0.0000
vn 0.9962 0.0871 -0.0000
vn -0.9962 -0.0872 -0.0000
vn 0.0872 -0.9962 -0.0000
vn -0.0747 0.9972 -0.0000
vn 0.9972 0.0747 -0.0000
vn 0.9972 0.0748 -0.0000
vn -0.9972 -0.0747 -0.0000
vn 0.0747 -0.9972 -0.0000
vt 0.765987 0.968974
vt 0.766024 0.971625
vt 0.710824 0.972402
vt 0.768675 0.971588
vt 0.768741 0.976212
vt 0.710927 0.979677
vt 0.766127 0.978900
vt 0.766192 0.983524
vt 0.710992 0.984301
vt 0.710787 0.969751
vt 0.766089 0.976249
vt 0.710890 0.977026
vt 0.708173 0.972440
vt 0.708239 0.977063
vt 0.983415 0.794184
vt 0.983723 0.798085
vt 0.946338 0.801112
vt 0.987989 0.806960
vt 0.984932 0.810593
vt 0.983192 0.806408
vt 0.947023 0.809697
vt 0.947422 0.814362
vt 0.946029 0.797210
vt 0.984089 0.802759
vt 0.946711 0.805791
vt 0.344765 0.969168
vt 0.344803 0.971819
vt 0.290429 0.972602
vt 0.347454 0.971781
vt 0.347521 0.976408
vt 0.290533 0.979880
vt 0.344908 0.979097
vt 0.344975 0.983725
vt 0.290600 0.984507
vt 0.290390 0.969951
vt 0.287778 0.972640
vt 0.290495 0.977229
vt 0.344870 0.976446
vt 0.287844 0.977267
vt 0.977129 0.967015
vt 0.977167 0.969665
vt 0.921022 0.970465
vt 0.979818 0.969628
vt 0.979884 0.974256
vt 0.921126 0.977744
vt 0.977271 0.976945
vt 0.977336 0.981573
vt 0.921192 0.982372
vt 0.920985 0.967814
vt 0.977233 0.974294
vt 0.921088 0.975093
vt 0.918371 0.970503
vt 0.918437 0.975131
vt 0.679917 0.638517
vt 0.680225 0.642421
vt 0.647636 0.645040
vt 0.684500 0.651274
vt 0.681440 0.654890
vt 0.679683 0.650728
vt 0.648318 0.653628
vt 0.648728 0.658292
vt 0.647327 0.641136
vt 0.680594 0.647098
vt 0.648007 0.649721
s 1
f 1/1/1 2/2/1 6/3/1
f 2/2/2 1/4/2 3/5/3
f 4/6/4 3/7/4 1/8/4
f 1/8/4 5/9/4 4/6/4
f 6/3/1 5/10/1 1/1/1
f 7/11/5 8/12/5 6/3/5
f 6/3/5 2/2/5 7/11/5
f 5/13/6 6/3/6 8/12/6
f 4/6/7 8/12/7 7/11/7
f 8/12/6 4/14/6 5/13/6
f 7/11/7 3/7/7 4/6/7
f 3/5/3 7/11/3 2/2/2
f 9/15/8 10/16/8 14/17/8
f 10/18/9 9/19/9 11/20/9
f 12/21/4 11/20/4 9/19/4
f 9/19/4 13/22/4 12/21/4
f 14/17/8 13/23/8 9/15/8
f 15/24/5 16/25/5 14/17/5
f 14/17/5 10/16/5 15/24/5
f 12/21/10 16/25/10 15/24/10
f 15/24/10 11/20/10 12/21/10
f 11/20/9 15/24/9 10/18/9
f 17/26/11 18/27/11 22/28/11
f 18/27/12 17/29/12 19/30/12
f 20/31/4 19/32/4 17/33/4
f 17/33/4 21/34/4 20/31/4
f 22/28/11 21/35/11 17/26/11
f 21/36/13 22/28/13 24/37/13
f 23/38/5 24/37/5 22/28/5
f 22/28/5 18/27/5 23/38/5
f 20/31/14 24/37/14 23/38/14
f 24/37/13 20/39/13 21/36/13
f 23/38/14 19/32/14 20/31/14
f 19/30/12 23/38/12 18/27/12
f 25/40/15 26/41/15 30/42/15
f 26/41/16 25/43/17 27/44/16
f 28/45/4 27/46/4 25/47/4
f 25/47/4 29/48/4 28/45/4
f 30/42/15 29/49/15 25/40/15
f 31/50/5 32/51/5 30/42/5
f 30/42/5 26/41/5 31/50/5
f 29/52/18 30/42/18 32/51/18
f 28/45/19 32/51/19 31/50/19
f 32/51/18 28/53/18 29/52/18
f 31/50/19 27/46/19 28/45/19
f 27/44/16 31/50/16 26/41/16
f 33/54/8 34/55/8 38/56/8
f 34/57/9 33/58/9 35/59/9
f 36/60/4 35/59/4 33/58/4
f 33/58/4 37/61/4 36/60/4
f 38/56/8 37/62/8 33/54/8
f 39/63/5 40/64/5 38/56/5
f 38/56/5 34/55/5 39/63/5
f 36/60/10 40/64/10 39/63/10
f 35/59/9 39/63/9 34/57/9
f 39/63/10 35/59/10 36/60/10
