# Blender 4.4.1
# www.blender.org
o Fence_5
v 0.222063 0.185933 -0.006925
v 0.222063 0.190086 0.004432
v 0.201675 0.190023 -0.008421
v 0.161335 -0.004860 0.066246
v 0.181726 -0.008950 0.067742
v 0.181726 -0.004797 0.079099
v 0.201675 0.194176 0.002937
v 0.161335 -0.000707 0.077604
v -0.006508 0.026189 -0.013373
v -0.006508 0.026189 -0.001280
v -0.006515 0.005097 -0.013373
v 0.349031 0.004974 -0.013373
v 0.349038 0.026066 -0.013373
v 0.349038 0.026066 -0.001280
v -0.006515 0.005097 -0.001280
v 0.349031 0.004974 -0.001280
v 0.000688 0.195163 -0.018167
v 0.000688 0.195163 0.000572
v -0.021772 0.195163 -0.018167
v -0.021772 0.192931 -0.018167
v 0.000688 0.192931 -0.018167
v 0.000688 0.192931 0.000572
v -0.021772 0.195163 0.000572
v -0.021772 0.192931 0.000572
v 0.360168 0.168926 -0.017595
v 0.360168 0.168926 -0.000000
v 0.339077 0.168926 -0.017595
v 0.339077 -0.000000 -0.017595
v 0.360168 -0.000000 -0.017595
v 0.360168 0.000000 0.000000
v 0.339077 0.168926 -0.000000
v 0.339077 0.000000 0.000000
v 0.360781 0.170814 -0.018079
v 0.360781 0.170814 0.000542
v 0.338461 0.170814 -0.018079
v 0.338461 0.168806 -0.018079
v 0.360781 0.168806 -0.018079
v 0.360781 0.168806 0.000542
v 0.338461 0.170814 0.000542
v 0.338461 0.168806 0.000542
v -0.012252 0.188201 -0.013373
v -0.012252 0.188201 -0.001280
v -0.014854 0.167164 -0.013373
v 0.343114 0.122854 -0.013373
v 0.345718 0.143890 -0.013373
v 0.345718 0.143890 -0.001280
v -0.014854 0.167164 -0.001280
v 0.343114 0.122854 -0.001280
v -0.000051 0.189446 0.001081
v -0.000051 0.189446 -0.015736
v 0.338920 0.147638 0.001081
v -0.000077 0.186159 0.001081
v 0.338891 0.144351 0.001081
v 0.338891 0.144351 -0.015736
v -0.000077 0.186159 -0.015736
v 0.338920 0.147638 -0.015736
v -0.007288 0.052747 -0.015966
v -0.007288 0.052747 -0.003873
v -0.007295 0.031655 -0.015966
v 0.348251 0.031533 -0.015966
v 0.348258 0.052625 -0.015966
v 0.348258 0.052625 -0.003873
v 0.348251 0.031533 -0.003873
v -0.007295 0.031655 -0.003873
v 0.352503 0.070818 -0.003171
v 0.352503 0.070818 -0.015264
v 0.351192 0.049767 -0.003171
v -0.003668 0.071853 -0.003170
v -0.002357 0.092905 -0.003170
v -0.002357 0.092905 -0.015263
v -0.003668 0.071853 -0.015263
v 0.351192 0.049767 -0.015264
v 0.000000 0.192959 -0.017595
v 0.000000 0.192959 -0.000000
v -0.021089 0.192959 -0.017595
v -0.021089 -0.000000 -0.017595
v 0.000000 -0.000000 -0.017595
v 0.000000 0.000000 0.000000
v -0.021089 0.000000 0.000000
v -0.021089 0.192959 -0.000000
v -0.007322 0.114436 -0.013373
v -0.007322 0.114436 -0.001279
v -0.007174 0.093309 -0.013373
v 0.343544 0.095794 -0.013373
v 0.343394 0.116920 -0.013373
v 0.343394 0.116920 -0.001280
v -0.007174 0.093309 -0.001279
v 0.343544 0.095794 -0.001280
vn 0.9818 -0.1783 0.0652
vn 0.2089 0.9185 -0.3358
vn -0.0031 -0.3572 -0.9340
vn -0.2089 -0.9185 0.3358
vn -0.2088 -0.9185 0.3358
vn 0.0032 0.3572 0.9340
vn -0.9818 0.1783 -0.0652
vn -0.9818 0.1782 -0.0652
vn 0.0003 1.0000 -0.0000
vn -1.0000 0.0003 -0.0000
vn -1.0000 0.0004 -0.0000
vn -0.0000 -0.0000 -1.0000
vn -0.0000 -0.0000 1.0000
vn 1.0000 -0.0003 -0.0000
vn 1.0000 -0.0002 -0.0000
vn 1.0000 -0.0004 -0.0000
vn -0.0003 -1.0000 -0.0000
vn 1.0000 -0.0000 -0.0000
vn -0.0000 1.0000 -0.0000
vn -0.0000 -1.0000 -0.0000
vn -1.0000 -0.0000 -0.0000
vn 0.1228 0.9924 -0.0000
vn -0.9924 0.1228 -0.0000
vn 0.9924 -0.1229 -0.0000
vn 0.9924 -0.1228 -0.0000
vn -0.1228 -0.9924 -0.0000
vn -0.9924 0.1227 -0.0000
vn -1.0000 0.0081 -0.0000
vn 0.1224 0.9925 -0.0000
vn 1.0000 -0.0086 -0.0000
vn -0.1224 -0.9925 -0.0000
vn 0.0621 0.9981 -0.0000
vn 0.9981 -0.0621 -0.0000
vn 0.9981 -0.0622 -0.0000
vn -0.9981 0.0621 -0.0000
vn -0.9981 0.0622 -0.0000
vn -0.0621 -0.9981 -0.0000
vn -0.0071 1.0000 -0.0000
vn -1.0000 -0.0070 -0.0000
vn 1.0000 0.0071 -0.0000
vn 0.0071 -1.0000 -0.0000
vn -1.0000 -0.0071 -0.0000
vt 0.937538 0.107666
vt 0.935048 0.106755
vt 0.950414 0.062758
vt 0.934223 0.109274
vt 0.929879 0.107852
vt 0.943553 0.060499
vt 0.928188 0.104495
vt 0.923903 0.102905
vt 0.939268 0.058908
vt 0.952903 0.063670
vt 0.951239 0.060238
vt 0.946069 0.061335
vt 0.930704 0.105332
vt 0.946895 0.058815
vt 0.855055 0.124897
vt 0.852481 0.124259
vt 0.871213 0.048592
vt 0.851844 0.126833
vt 0.847355 0.125722
vt 0.864150 0.046843
vt 0.845419 0.122511
vt 0.840930 0.121400
vt 0.859662 0.045732
vt 0.873787 0.049229
vt 0.847992 0.123148
vt 0.866724 0.047481
vt 0.871850 0.046018
vt 0.867361 0.044907
vt 0.132941 0.000393
vt 0.137031 0.000779
vt 0.136986 0.001266
vt 0.656964 0.030539
vt 0.652858 0.030394
vt 0.653032 0.025473
vt 0.154420 0.001295
vt 0.154331 0.001776
vt 0.149490 0.000875
vt 0.149579 0.000394
vt 0.132895 0.000880
vt 0.657138 0.025618
vt 0.657627 0.025635
vt 0.657453 0.030556
vt 0.661559 0.030702
vt 0.682881 0.004034
vt 0.680516 0.000675
vt 0.680916 0.000393
vt 0.661733 0.025781
vt 0.683281 0.003753
vt 0.988333 0.049411
vt 0.984432 0.049718
vt 0.981405 0.012333
vt 0.975555 0.053984
vt 0.971923 0.050927
vt 0.976109 0.049187
vt 0.972820 0.013018
vt 0.968155 0.013417
vt 0.985308 0.012024
vt 0.979758 0.050085
vt 0.976726 0.012706
vt 0.175683 0.001193
vt 0.171616 0.000840
vt 0.171654 0.000401
vt 0.421579 0.012226
vt 0.424797 0.014739
vt 0.421785 0.018595
vt 0.165404 0.001595
vt 0.165296 0.002022
vt 0.160553 0.000823
vt 0.160661 0.000396
vt 0.175721 0.000755
vt 0.418567 0.016082
vt 0.418220 0.015811
vt 0.421232 0.011955
vt 0.418015 0.009442
vt 0.177166 0.000400
vt 0.181245 0.000579
vt 0.181226 0.001019
vt 0.415003 0.013298
vt 0.177147 0.000840
vt 0.261429 0.326537
vt 0.260187 0.324195
vt 0.330048 0.287136
vt 0.257844 0.325437
vt 0.255667 0.321331
vt 0.326628 0.280689
vt 0.256766 0.317747
vt 0.254588 0.313641
vt 0.324450 0.276583
vt 0.331291 0.289478
vt 0.258009 0.320089
vt 0.327870 0.283031
vt 0.332390 0.285894
vt 0.330213 0.281788
vt 0.134430 0.448619
vt 0.134085 0.449300
vt 0.133374 0.444344
vt 0.132895 0.440584
vt 0.207844 0.430552
vt 0.208575 0.438709
vt 0.208988 0.439265
vt 0.208109 0.434970
vt 0.133936 0.444877
vt 0.208317 0.434310
vt 0.921783 0.468553
vt 0.919145 0.468281
vt 0.927147 0.390741
vt 0.918873 0.470918
vt 0.914273 0.470443
vt 0.919910 0.389994
vt 0.911908 0.467534
vt 0.907308 0.467059
vt 0.915310 0.389519
vt 0.929784 0.391013
vt 0.927419 0.388104
vt 0.922547 0.390266
vt 0.914545 0.467806
vt 0.922819 0.387629
vt 0.860648 0.190888
vt 0.858063 0.190298
vt 0.875407 0.114300
vt 0.857473 0.192883
vt 0.852965 0.191854
vt 0.868314 0.112681
vt 0.850970 0.188679
vt 0.846461 0.187650
vt 0.863805 0.111652
vt 0.877992 0.114890
vt 0.875997 0.111715
vt 0.870899 0.113271
vt 0.853555 0.189269
vt 0.871488 0.110686
vt 0.983234 0.351882
vt 0.979335 0.352188
vt 0.975870 0.309548
vt 0.970439 0.356445
vt 0.966792 0.353390
vt 0.970998 0.351666
vt 0.967288 0.310233
vt 0.962623 0.310622
vt 0.979770 0.309240
vt 0.974664 0.352551
vt 0.971193 0.309920
vt 0.014638 0.080272
vt 0.011999 0.080016
vt 0.019411 0.003479
vt 0.011743 0.082655
vt 0.007133 0.082209
vt 0.012162 0.002777
vt 0.004749 0.079314
vt 0.000138 0.078867
vt 0.007551 0.002331
vt 0.022050 0.003735
vt 0.007388 0.079570
vt 0.014801 0.003033
vt 0.019666 0.000840
vt 0.015056 0.000394
s 1
f 1/1/1 2/2/1 6/3/1
f 2/2/2 1/4/2 3/5/2
f 4/6/3 3/7/3 1/8/3
f 1/8/3 5/9/3 4/6/3
f 6/3/1 5/10/1 1/1/1
f 5/11/4 6/3/5 8/12/4
f 7/13/6 8/12/6 6/3/6
f 6/3/6 2/2/6 7/13/6
f 4/6/7 8/12/7 7/13/8
f 8/12/4 4/14/4 5/11/4
f 7/13/8 3/7/8 4/6/7
f 3/5/2 7/13/2 2/2/2
f 9/15/9 10/16/9 14/17/9
f 10/16/10 9/18/11 11/19/10
f 12/20/12 11/21/12 9/22/12
f 9/22/12 13/23/12 12/20/12
f 14/17/9 13/24/9 9/15/9
f 15/25/13 16/26/13 14/17/13
f 14/17/13 10/16/13 15/25/13
f 13/27/14 14/17/15 16/26/16
f 12/20/17 16/26/17 15/25/17
f 16/26/16 12/28/16 13/27/14
f 15/25/17 11/21/17 12/20/17
f 11/19/10 15/25/10 10/16/10
f 17/29/18 18/30/18 22/31/18
f 18/32/19 17/33/19 19/34/19
f 20/35/12 19/36/12 17/37/12
f 17/37/12 21/38/12 20/35/12
f 22/31/18 21/39/18 17/29/18
f 23/40/13 24/41/13 22/42/13
f 22/42/13 18/32/13 23/40/13
f 21/43/20 22/42/20 24/41/20
f 20/44/21 24/45/21 23/46/21
f 24/41/20 20/47/20 21/43/20
f 23/46/21 19/48/21 20/44/21
f 19/34/19 23/40/19 18/32/19
f 25/49/18 26/50/18 30/51/18
f 26/52/19 25/53/19 27/54/19
f 28/55/12 27/54/12 25/53/12
f 25/53/12 29/56/12 28/55/12
f 30/51/18 29/57/18 25/49/18
f 31/58/13 32/59/13 30/51/13
f 30/51/13 26/50/13 31/58/13
f 28/55/21 32/59/21 31/58/21
f 31/58/21 27/54/21 28/55/21
f 27/54/19 31/58/19 26/52/19
f 33/60/18 34/61/18 38/62/18
f 34/63/19 33/64/19 35/65/19
f 36/66/12 35/67/12 33/68/12
f 33/68/12 37/69/12 36/66/12
f 38/62/18 37/70/18 33/60/18
f 39/71/13 40/72/13 38/73/13
f 38/73/13 34/63/13 39/71/13
f 37/74/20 38/73/20 40/72/20
f 36/75/21 40/76/21 39/77/21
f 40/72/20 36/78/20 37/74/20
f 39/77/21 35/79/21 36/75/21
f 35/65/19 39/71/19 34/63/19
f 41/80/22 42/81/22 46/82/22
f 42/81/23 41/83/23 43/84/23
f 44/85/12 43/86/12 41/87/12
f 41/87/12 45/88/12 44/85/12
f 46/82/22 45/89/22 41/80/22
f 47/90/13 48/91/13 46/82/13
f 46/82/13 42/81/13 47/90/13
f 45/92/24 46/82/24 48/91/25
f 44/85/26 48/91/26 47/90/26
f 48/91/25 44/93/25 45/92/24
f 47/90/26 43/86/26 44/85/26
f 43/84/23 47/90/27 42/81/23
f 52/94/28 49/95/28 50/96/28
f 50/96/29 49/97/29 51/98/29
f 53/99/13 51/100/13 49/95/13
f 49/95/13 52/94/13 53/99/13
f 51/100/30 53/99/30 54/101/30
f 55/102/31 54/101/31 53/99/31
f 53/99/31 52/94/31 55/102/31
f 56/103/12 54/101/12 55/102/12
f 55/102/12 50/96/12 56/103/12
f 50/96/28 55/102/28 52/94/28
f 54/101/30 56/103/30 51/100/30
f 51/98/29 56/103/29 50/96/29
f 57/104/9 58/105/9 62/106/9
f 58/105/10 57/107/11 59/108/10
f 60/109/12 59/110/12 57/111/12
f 57/111/12 61/112/12 60/109/12
f 62/106/9 61/113/9 57/104/9
f 61/114/14 62/106/14 63/115/14
f 64/116/13 63/115/13 62/106/13
f 62/106/13 58/105/13 64/116/13
f 64/116/17 59/110/17 60/109/17
f 59/108/10 64/116/10 58/105/10
f 60/109/17 63/115/17 64/116/17
f 63/115/14 60/117/16 61/114/14
f 65/118/32 66/119/32 70/120/32
f 66/119/33 65/121/34 67/122/33
f 68/123/13 67/124/13 65/125/13
f 65/125/13 69/126/13 68/123/13
f 70/120/32 69/127/32 65/118/32
f 69/128/35 70/120/35 71/129/36
f 72/130/12 71/129/12 70/120/12
f 70/120/12 66/119/12 72/130/12
f 72/130/37 67/124/37 68/123/37
f 67/122/33 72/130/33 66/119/33
f 68/123/37 71/129/37 72/130/37
f 71/129/36 68/131/36 69/128/35
f 73/132/18 74/133/18 78/134/18
f 74/135/19 73/136/19 75/137/19
f 76/138/12 75/137/12 73/136/12
f 73/136/12 77/139/12 76/138/12
f 78/134/18 77/140/18 73/132/18
f 80/141/13 79/142/13 78/134/13
f 78/134/13 74/133/13 80/141/13
f 80/141/21 75/137/21 76/138/21
f 75/137/19 80/141/19 74/135/19
f 76/138/21 79/142/21 80/141/21
f 81/143/38 82/144/38 86/145/38
f 82/144/39 81/146/39 83/147/39
f 84/148/12 83/149/12 81/150/12
f 81/150/12 85/151/12 84/148/12
f 86/145/38 85/152/38 81/143/38
f 87/153/13 88/154/13 86/145/13
f 86/145/13 82/144/13 87/153/13
f 85/155/40 86/145/40 88/154/40
f 84/148/41 88/154/41 87/153/41
f 88/154/40 84/156/40 85/155/40
f 87/153/41 83/149/41 84/148/41
f 83/147/39 87/153/42 82/144/39
