# Blender 4.4.1
# www.blender.org
o Fence_3
v 0.273861 0.033115 -0.001400
v 0.273861 0.033115 -0.013493
v 0.274116 0.012009 -0.001400
v -0.011989 0.008540 -0.001400
v -0.012244 0.029646 -0.001400
v -0.012244 0.029646 -0.013493
v 0.274116 0.012009 -0.013493
v -0.011989 0.008540 -0.013493
v 0.274840 0.057331 -0.001400
v 0.274840 0.057331 -0.013493
v 0.274819 0.036224 -0.001400
v -0.011306 0.036511 -0.001400
v -0.011285 0.057618 -0.001400
v -0.011285 0.057618 -0.013493
v -0.011306 0.036511 -0.013493
v 0.274819 0.036224 -0.013493
v -0.021089 0.170767 -0.000000
v -0.021089 0.170767 -0.017596
v 0.000000 0.170767 -0.000000
v 0.000000 0.000000 0.000000
v -0.021089 0.000000 0.000000
v -0.021089 -0.000000 -0.017596
v 0.000000 0.170767 -0.017596
v 0.000000 -0.000000 -0.017596
v 0.287447 0.147889 -0.001400
v 0.287447 0.147889 -0.013493
v 0.287044 0.126786 -0.001400
v -0.019329 0.132620 -0.001400
v -0.018928 0.153723 -0.001400
v -0.018928 0.153723 -0.013493
v 0.287044 0.126786 -0.013493
v -0.019329 0.132620 -0.013493
v 0.291365 0.124304 -0.001400
v 0.291365 0.124304 -0.013493
v 0.290977 0.103200 -0.001400
v -0.015399 0.108825 -0.001400
v -0.015013 0.129929 -0.001400
v -0.015013 0.129929 -0.013493
v 0.290977 0.103200 -0.013493
v -0.015399 0.108825 -0.013493
v 0.229408 0.083661 -0.001400
v 0.229408 0.083661 -0.013493
v 0.227255 0.062667 -0.001400
v -0.009943 0.086994 -0.001400
v -0.007791 0.107989 -0.001400
v -0.007791 0.107989 -0.013493
v 0.227255 0.062667 -0.013493
v -0.009943 0.086994 -0.013493
v 0.213700 0.190536 0.002856
v 0.213700 0.190536 -0.014739
v 0.234789 0.190536 0.002856
v 0.234789 -0.000001 0.002856
v 0.213700 -0.000001 0.002856
v 0.213700 -0.000001 -0.014739
v 0.234789 0.190536 -0.014739
v 0.234789 -0.000001 -0.014739
v 0.212799 0.191579 0.003607
v 0.212799 0.191579 -0.015491
v 0.235689 0.191579 0.003607
v 0.235689 0.190534 0.003607
v 0.212799 0.190534 0.003607
v 0.212799 0.190534 -0.015491
v 0.235689 0.191579 -0.015491
v 0.235689 0.190534 -0.015491
vn -0.0121 0.9999 -0.0000
vn 0.9999 0.0121 -0.0000
vn -0.0000 -0.0000 1.0000
vn -0.0000 -0.0000 -1.0000
vn -0.9999 -0.0120 -0.0000
vn -0.9999 -0.0121 -0.0000
vn 0.0121 -0.9999 -0.0000
vn 0.0010 1.0000 -0.0000
vn 1.0000 -0.0010 -0.0000
vn -1.0000 0.0010 -0.0000
vn -0.0010 -1.0000 -0.0000
vn -1.0000 -0.0000 -0.0000
vn -0.0000 1.0000 -0.0000
vn 1.0000 -0.0000 -0.0000
vn 0.0190 0.9998 -0.0000
vn 0.9998 -0.0191 -0.0000
vn -0.9998 0.0190 -0.0000
vn -0.0190 -0.9998 -0.0000
vn 0.0184 0.9998 -0.0000
vn 0.9998 -0.0184 -0.0000
vn -0.9998 0.0183 -0.0000
vn -0.0184 -0.9998 -0.0000
vn 0.1020 0.9948 -0.0000
vn 0.9948 -0.1020 -0.0000
vn 0.9948 -0.1021 -0.0000
vn -0.9948 0.1020 -0.0000
vn -0.9948 0.1019 -0.0000
vn -0.1020 -0.9948 -0.0000
vn -0.0000 -1.0000 -0.0000
vt 0.469294 0.963702
vt 0.469320 0.966353
vt 0.406591 0.966965
vt 0.471971 0.966327
vt 0.472016 0.970955
vt 0.406662 0.974244
vt 0.469391 0.973632
vt 0.469436 0.978259
vt 0.406707 0.978872
vt 0.406565 0.964314
vt 0.469365 0.970981
vt 0.406636 0.971593
vt 0.403940 0.966991
vt 0.403985 0.971619
vt 0.834363 0.961078
vt 0.834398 0.963729
vt 0.771671 0.964548
vt 0.837049 0.963694
vt 0.837110 0.968321
vt 0.771766 0.971826
vt 0.834493 0.971007
vt 0.834553 0.975634
vt 0.771827 0.976454
vt 0.771637 0.961897
vt 0.769020 0.964583
vt 0.771732 0.969175
vt 0.834458 0.968356
vt 0.769081 0.969210
vt 0.983819 0.531666
vt 0.984125 0.535567
vt 0.946337 0.538619
vt 0.988388 0.544445
vt 0.985331 0.548079
vt 0.983593 0.543891
vt 0.947020 0.547204
vt 0.947417 0.551869
vt 0.946029 0.534717
vt 0.984491 0.540241
vt 0.946708 0.543298
vt 0.744776 0.954638
vt 0.744812 0.957289
vt 0.677635 0.958200
vt 0.747464 0.957252
vt 0.747526 0.961880
vt 0.677734 0.965479
vt 0.744911 0.964567
vt 0.744974 0.969194
vt 0.677797 0.970106
vt 0.677599 0.955549
vt 0.674984 0.958237
vt 0.677698 0.962828
vt 0.744875 0.961916
vt 0.675047 0.962864
vt 0.324381 0.954825
vt 0.324417 0.957476
vt 0.257240 0.958386
vt 0.327068 0.957440
vt 0.327130 0.962068
vt 0.257338 0.965664
vt 0.324515 0.964755
vt 0.324578 0.969382
vt 0.257401 0.970292
vt 0.257204 0.955735
vt 0.324479 0.962104
vt 0.257302 0.963013
vt 0.254588 0.958422
vt 0.254651 0.963049
vt 0.702212 0.972303
vt 0.702250 0.974954
vt 0.649978 0.975700
vt 0.704901 0.974916
vt 0.704967 0.979543
vt 0.650082 0.982978
vt 0.702354 0.982232
vt 0.702420 0.986858
vt 0.650148 0.987605
vt 0.649940 0.973049
vt 0.702316 0.979580
vt 0.650044 0.980327
vt 0.647327 0.975738
vt 0.647393 0.980365
vt 0.600937 0.663656
vt 0.601240 0.667555
vt 0.559127 0.670938
vt 0.605490 0.676453
vt 0.602432 0.680096
vt 0.600709 0.675890
vt 0.559804 0.679520
vt 0.560190 0.684185
vt 0.558822 0.667037
vt 0.601600 0.672227
vt 0.559495 0.675615
vt 0.009850 0.000885
vt 0.005670 0.000628
vt 0.005684 0.000399
vt 0.796477 0.001269
vt 0.800580 0.002106
vt 0.799576 0.007023
vt 0.603074 0.011604
vt 0.603275 0.011492
vt 0.605716 0.015876
vt 0.605516 0.015988
vt 0.009864 0.000656
vt 0.795473 0.006186
vt 0.795249 0.006140
vt 0.796253 0.001223
vt 0.792150 0.000386
vt 0.874305 0.000361
vt 0.876744 0.003764
vt 0.876558 0.003898
vt 0.791146 0.005302
vt 0.874119 0.000494
s 1
f 1/1/1 2/2/1 6/3/1
f 2/2/2 1/4/2 3/5/2
f 4/6/3 3/7/3 1/8/3
f 1/8/3 5/9/3 4/6/3
f 6/3/1 5/10/1 1/1/1
f 7/11/4 8/12/4 6/3/4
f 6/3/4 2/2/4 7/11/4
f 5/13/5 6/3/5 8/12/6
f 4/6/7 8/12/7 7/11/7
f 8/12/6 4/14/6 5/13/5
f 7/11/7 3/7/7 4/6/7
f 3/5/2 7/11/2 2/2/2
f 9/15/8 10/16/8 14/17/8
f 10/16/9 9/18/9 11/19/9
f 12/20/3 11/21/3 9/22/3
f 9/22/3 13/23/3 12/20/3
f 14/17/8 13/24/8 9/15/8
f 13/25/10 14/17/10 15/26/10
f 16/27/4 15/26/4 14/17/4
f 14/17/4 10/16/4 16/27/4
f 16/27/11 11/21/11 12/20/11
f 11/19/9 16/27/9 10/16/9
f 12/20/11 15/26/11 16/27/11
f 15/26/10 12/28/10 13/25/10
f 17/29/12 18/30/12 22/31/12
f 18/32/13 17/33/13 19/34/13
f 20/35/3 19/34/3 17/33/3
f 17/33/3 21/36/3 20/35/3
f 22/31/12 21/37/12 17/29/12
f 23/38/4 24/39/4 22/31/4
f 22/31/4 18/30/4 23/38/4
f 20/35/14 24/39/14 23/38/14
f 23/38/14 19/34/14 20/35/14
f 19/34/13 23/38/13 18/32/13
f 25/40/15 26/41/15 30/42/15
f 26/41/16 25/43/16 27/44/16
f 28/45/3 27/46/3 25/47/3
f 25/47/3 29/48/3 28/45/3
f 30/42/15 29/49/15 25/40/15
f 29/50/17 30/42/17 32/51/17
f 31/52/4 32/51/4 30/42/4
f 30/42/4 26/41/4 31/52/4
f 28/45/18 32/51/18 31/52/18
f 32/51/17 28/53/17 29/50/17
f 31/52/18 27/46/18 28/45/18
f 27/44/16 31/52/16 26/41/16
f 33/54/19 34/55/19 38/56/19
f 34/55/20 33/57/20 35/58/20
f 36/59/3 35/60/3 33/61/3
f 33/61/3 37/62/3 36/59/3
f 38/56/19 37/63/19 33/54/19
f 39/64/4 40/65/4 38/56/4
f 38/56/4 34/55/4 39/64/4
f 37/66/21 38/56/21 40/65/21
f 36/59/22 40/65/22 39/64/22
f 40/65/21 36/67/21 37/66/21
f 39/64/22 35/60/22 36/59/22
f 35/58/20 39/64/20 34/55/20
f 41/68/23 42/69/23 46/70/23
f 42/69/24 41/71/25 43/72/24
f 44/73/3 43/74/3 41/75/3
f 41/75/3 45/76/3 44/73/3
f 46/70/23 45/77/23 41/68/23
f 47/78/4 48/79/4 46/70/4
f 46/70/4 42/69/4 47/78/4
f 45/80/26 46/70/27 48/79/26
f 44/73/28 48/79/28 47/78/28
f 48/79/26 44/81/26 45/80/26
f 47/78/28 43/74/28 44/73/28
f 43/72/24 47/78/24 42/69/24
f 49/82/12 50/83/12 54/84/12
f 50/85/13 49/86/13 51/87/13
f 52/88/3 51/87/3 49/86/3
f 49/86/3 53/89/3 52/88/3
f 54/84/12 53/90/12 49/82/12
f 55/91/4 56/92/4 54/84/4
f 54/84/4 50/83/4 55/91/4
f 52/88/14 56/92/14 55/91/14
f 55/91/14 51/87/14 52/88/14
f 51/87/13 55/91/13 50/85/13
f 57/93/12 58/94/12 62/95/12
f 58/96/13 57/97/13 59/98/13
f 60/99/3 59/100/3 57/101/3
f 57/101/3 61/102/3 60/99/3
f 62/95/12 61/103/12 57/93/12
f 63/104/4 64/105/4 62/106/4
f 62/106/4 58/96/4 63/104/4
f 61/107/29 62/106/29 64/105/29
f 60/108/14 64/109/14 63/110/14
f 64/105/29 60/111/29 61/107/29
f 63/110/14 59/112/14 60/108/14
f 59/98/13 63/104/13 58/96/13
