# Blender 4.4.1
# www.blender.org
o Fence_1
v 0.336923 0.086072 -0.004222
v 0.336923 0.086072 -0.016315
v 0.337112 0.064928 -0.004222
v -0.002947 0.061889 -0.004222
v -0.003136 0.083033 -0.004222
v -0.003136 0.083033 -0.016315
v 0.337112 0.064928 -0.016315
v -0.002947 0.061889 -0.016315
v 0.335633 0.111543 -0.004222
v 0.335633 0.111543 -0.016315
v 0.333623 0.090494 -0.004222
v -0.004913 0.122796 -0.004222
v -0.002904 0.143845 -0.004222
v -0.002904 0.143845 -0.016315
v 0.333623 0.090494 -0.016315
v -0.004913 0.122796 -0.016315
v 0.210709 0.190816 -0.008816
v 0.210709 0.193872 -0.026144
v 0.231045 0.196317 -0.007846
v 0.286653 -0.003057 -0.043001
v 0.266319 -0.008558 -0.043971
v 0.266319 -0.005502 -0.061299
v 0.231045 0.199373 -0.025174
v 0.286653 -0.000001 -0.060329
v 0.327656 0.146995 -0.000000
v 0.327656 0.146995 -0.017595
v 0.348744 0.146995 -0.000000
v 0.348744 -0.000001 0.000000
v 0.327656 -0.000001 0.000000
v 0.327656 -0.000001 -0.017595
v 0.348744 0.146995 -0.017595
v 0.348744 -0.000001 -0.017595
v -0.021089 0.193645 -0.000000
v -0.021089 0.193645 -0.017595
v 0.000000 0.193645 -0.000000
v 0.000000 0.000000 0.000000
v -0.021089 0.000000 0.000000
v -0.021089 -0.000000 -0.017595
v 0.000000 0.193645 -0.017595
v 0.000000 -0.000000 -0.017595
v 0.337080 0.140136 -0.004222
v 0.337080 0.140136 -0.016315
v 0.335098 0.119047 -0.004222
v -0.007967 0.151284 -0.004222
v -0.005986 0.172373 -0.004222
v -0.005986 0.172373 -0.016315
v 0.335098 0.119047 -0.016315
v -0.007967 0.151284 -0.016315
v 0.342004 0.046695 -0.004222
v 0.342004 0.046695 -0.016315
v 0.342368 0.025603 -0.004222
v -0.001857 0.019646 -0.004222
v -0.002222 0.040738 -0.004222
v -0.002222 0.040738 -0.016315
v -0.001857 0.019646 -0.016315
v 0.342368 0.025603 -0.016315
vn -0.0089 1.0000 -0.0000
vn 1.0000 0.0089 -0.0000
vn -0.0000 -0.0000 1.0000
vn -0.0000 -0.0000 -1.0000
vn -1.0000 -0.0089 -0.0000
vn -1.0000 -0.0090 -0.0000
vn 0.0089 -1.0000 -0.0000
vn 0.0950 0.9955 -0.0000
vn 0.9955 -0.0951 -0.0000
vn 0.9955 -0.0950 -0.0000
vn -0.9955 0.0950 -0.0000
vn -0.0950 -0.9955 -0.0000
vn -0.9955 0.0949 -0.0000
vn -0.9643 -0.2608 -0.0460
vn -0.9643 -0.2609 -0.0460
vn -0.2649 0.9496 0.1675
vn -0.0000 -0.1736 0.9848
vn -0.0000 -0.1737 0.9848
vn -0.0000 0.1737 -0.9848
vn -0.0000 0.1736 -0.9848
vn 0.2649 -0.9496 -0.1675
vn 0.9643 0.2608 0.0460
vn -1.0000 -0.0000 -0.0000
vn -0.0000 1.0000 -0.0000
vn 1.0000 -0.0000 -0.0000
vn 0.0936 0.9956 -0.0000
vn 0.9956 -0.0935 -0.0000
vn -0.9956 0.0935 -0.0000
vn -0.0936 -0.9956 -0.0000
vn -0.0173 0.9999 -0.0000
vn 0.9999 0.0173 -0.0000
vn -0.9999 -0.0173 -0.0000
vn -0.9998 -0.0173 -0.0000
vn 0.0173 -0.9999 -0.0000
vn 0.9999 0.0172 -0.0000
vt 0.962349 0.952574
vt 0.962386 0.955225
vt 0.887833 0.956241
vt 0.965037 0.955188
vt 0.965100 0.959824
vt 0.887932 0.963527
vt 0.962485 0.962511
vt 0.962548 0.967147
vt 0.887996 0.968163
vt 0.887797 0.953590
vt 0.962449 0.959860
vt 0.887896 0.960876
vt 0.885182 0.956277
vt 0.885245 0.960913
vt 0.116027 0.945380
vt 0.116063 0.948031
vt 0.041510 0.949051
vt 0.118714 0.947994
vt 0.118777 0.952630
vt 0.041610 0.956337
vt 0.116162 0.955317
vt 0.116226 0.959953
vt 0.041673 0.960973
vt 0.041474 0.946400
vt 0.116126 0.952666
vt 0.041574 0.953686
vt 0.038859 0.949087
vt 0.038922 0.953722
vt 0.398631 0.966205
vt 0.398575 0.970062
vt 0.352549 0.969389
vt 0.402432 0.970119
vt 0.402364 0.974742
vt 0.352425 0.977869
vt 0.398450 0.978543
vt 0.398383 0.983166
vt 0.352357 0.982492
vt 0.352606 0.965531
vt 0.398507 0.974685
vt 0.352482 0.974012
vt 0.348692 0.969332
vt 0.348624 0.973955
vt 0.574817 0.612500
vt 0.575126 0.616404
vt 0.542537 0.619028
vt 0.579402 0.625256
vt 0.576343 0.628872
vt 0.574585 0.624711
vt 0.543221 0.627616
vt 0.543632 0.632280
vt 0.542228 0.615124
vt 0.575496 0.621080
vt 0.542910 0.623709
vt 0.269722 0.489593
vt 0.270028 0.493492
vt 0.227239 0.496971
vt 0.274286 0.502388
vt 0.271231 0.506035
vt 0.269507 0.501829
vt 0.227924 0.505552
vt 0.228314 0.510217
vt 0.226931 0.493071
vt 0.270392 0.498162
vt 0.227611 0.501648
vt 0.294022 0.940556
vt 0.294059 0.943208
vt 0.218519 0.944255
vt 0.296709 0.943171
vt 0.296774 0.947814
vt 0.218620 0.951550
vt 0.294160 0.950502
vt 0.294224 0.955146
vt 0.218684 0.956193
vt 0.218482 0.941604
vt 0.294123 0.947851
vt 0.218583 0.948899
vt 0.215868 0.944292
vt 0.215932 0.948936
vt 0.592660 0.944397
vt 0.592696 0.947048
vt 0.517221 0.948065
vt 0.595347 0.947012
vt 0.595409 0.951636
vt 0.517319 0.955341
vt 0.592794 0.954323
vt 0.592856 0.958948
vt 0.517382 0.959966
vt 0.517185 0.945414
vt 0.592758 0.951672
vt 0.514570 0.948101
vt 0.517284 0.952690
vt 0.514633 0.952726
s 1
f 1/1/1 2/2/1 6/3/1
f 2/2/2 1/4/2 3/5/2
f 4/6/3 3/7/3 1/8/3
f 1/8/3 5/9/3 4/6/3
f 6/3/1 5/10/1 1/1/1
f 7/11/4 8/12/4 6/3/4
f 6/3/4 2/2/4 7/11/4
f 5/13/5 6/3/5 8/12/6
f 4/6/7 8/12/7 7/11/7
f 8/12/6 4/14/6 5/13/5
f 3/5/2 7/11/2 2/2/2
f 7/11/7 3/7/7 4/6/7
f 9/15/8 10/16/8 14/17/8
f 10/16/9 9/18/10 11/19/9
f 12/20/3 11/21/3 9/22/3
f 9/22/3 13/23/3 12/20/3
f 14/17/8 13/24/8 9/15/8
f 15/25/4 16/26/4 14/17/4
f 14/17/4 10/16/4 15/25/4
f 13/27/11 14/17/11 16/26/11
f 12/20/12 16/26/12 15/25/12
f 16/26/11 12/28/13 13/27/11
f 15/25/12 11/21/12 12/20/12
f 11/19/9 15/25/9 10/16/9
f 17/29/14 18/30/14 22/31/15
f 18/30/16 17/32/16 19/33/16
f 20/34/17 19/35/18 17/36/18
f 17/36/18 21/37/17 20/34/17
f 22/31/15 21/38/15 17/29/14
f 23/39/19 24/40/20 22/31/20
f 22/31/20 18/30/19 23/39/19
f 21/41/21 22/31/21 24/40/21
f 20/34/22 24/40/22 23/39/22
f 24/40/21 20/42/21 21/41/21
f 23/39/22 19/35/22 20/34/22
f 19/33/16 23/39/16 18/30/16
f 25/43/23 26/44/23 30/45/23
f 26/46/24 25/47/24 27/48/24
f 28/49/3 27/48/3 25/47/3
f 25/47/3 29/50/3 28/49/3
f 30/45/23 29/51/23 25/43/23
f 31/52/4 32/53/4 30/45/4
f 30/45/4 26/44/4 31/52/4
f 28/49/25 32/53/25 31/52/25
f 31/52/25 27/48/25 28/49/25
f 27/48/24 31/52/24 26/46/24
f 33/54/23 34/55/23 38/56/23
f 34/57/24 33/58/24 35/59/24
f 36/60/3 35/59/3 33/58/3
f 33/58/3 37/61/3 36/60/3
f 38/56/23 37/62/23 33/54/23
f 39/63/4 40/64/4 38/56/4
f 38/56/4 34/55/4 39/63/4
f 36/60/25 40/64/25 39/63/25
f 39/63/25 35/59/25 36/60/25
f 35/59/24 39/63/24 34/57/24
f 41/65/26 42/66/26 46/67/26
f 42/66/27 41/68/27 43/69/27
f 44/70/3 43/71/3 41/72/3
f 41/72/3 45/73/3 44/70/3
f 46/67/26 45/74/26 41/65/26
f 47/75/4 48/76/4 46/67/4
f 46/67/4 42/66/4 47/75/4
f 45/77/28 46/67/28 48/76/28
f 44/70/29 48/76/29 47/75/29
f 48/76/28 44/78/28 45/77/28
f 47/75/29 43/71/29 44/70/29
f 43/69/27 47/75/27 42/66/27
f 49/79/30 50/80/30 54/81/30
f 50/80/31 49/82/31 51/83/31
f 52/84/3 51/85/3 49/86/3
f 49/86/3 53/87/3 52/84/3
f 54/81/30 53/88/30 49/79/30
f 54/81/4 50/80/4 56/89/4
f 53/90/32 54/81/32 55/91/33
f 56/89/4 55/91/4 54/81/4
f 56/89/34 51/85/34 52/84/34
f 51/83/31 56/89/35 50/80/31
f 52/84/34 55/91/34 56/89/34
f 55/91/33 52/92/33 53/90/32
