# Blender 4.4.1
# www.blender.org
o Fence_6
v 0.225079 0.018672 -0.004222
v 0.225079 0.018672 -0.016315
v 0.220335 -0.001880 -0.004222
v -0.012862 0.051952 -0.004222
v -0.008119 0.072504 -0.004222
v -0.008119 0.072504 -0.016315
v 0.220335 -0.001880 -0.016315
v -0.012862 0.051952 -0.016315
v 0.272632 0.085909 -0.004222
v 0.272632 0.085909 -0.016315
v 0.271167 0.064832 -0.004222
v -0.004913 0.084033 -0.004222
v -0.003448 0.105110 -0.004222
v -0.003448 0.105110 -0.016315
v 0.271167 0.064832 -0.016315
v -0.004913 0.084033 -0.016315
v -0.021091 0.193645 -0.000000
v -0.021091 0.193645 -0.017595
v 0.000000 0.193645 -0.000000
v 0.000000 0.000000 0.000000
v -0.021091 0.000000 0.000000
v -0.021091 -0.000000 -0.017595
v 0.000000 -0.000000 -0.017595
v 0.000000 0.193645 -0.017595
v 0.335374 0.187309 -0.004222
v 0.335374 0.187309 -0.016315
v 0.336287 0.166146 -0.004222
v -0.007968 0.151287 -0.004222
v -0.008883 0.172449 -0.004222
v -0.008883 0.172449 -0.016315
v 0.336287 0.166146 -0.016315
v -0.007968 0.151287 -0.016315
v 0.211400 0.003752 0.072416
v 0.211400 -0.008341 0.072482
v 0.206763 0.003864 0.093046
v -0.002948 0.003608 0.045918
v 0.001688 0.003496 0.025289
v 0.001688 -0.008597 0.025354
v -0.002948 -0.008485 0.045984
v 0.206763 -0.008229 0.093111
v -0.021945 0.196060 0.000713
v -0.021945 0.196060 -0.018308
v 0.000851 0.196060 0.000713
v 0.000851 0.193457 0.000713
v -0.021945 0.193457 0.000713
v -0.021945 0.193457 -0.018308
v 0.000851 0.196060 -0.018308
v 0.000851 0.193457 -0.018308
v 0.233747 0.229884 -0.000000
v 0.233747 0.229884 -0.017595
v 0.254837 0.229884 -0.000000
v 0.254837 0.000000 0.000000
v 0.233747 0.000000 0.000000
v 0.233747 -0.000000 -0.017595
v 0.254837 0.229884 -0.017595
v 0.254837 -0.000000 -0.017595
vn 0.2249 0.9744 -0.0000
vn 0.9744 -0.2249 -0.0000
vn -0.0000 -0.0000 1.0000
vn -0.0000 -0.0000 -1.0000
vn -0.9744 0.2249 -0.0000
vn -0.2249 -0.9744 -0.0000
vn 0.0694 0.9976 -0.0000
vn 0.9976 -0.0693 -0.0000
vn -0.9976 0.0694 -0.0000
vn -0.9976 0.0693 -0.0000
vn -0.0694 -0.9976 -0.0000
vn -1.0000 -0.0000 -0.0000
vn -0.0000 1.0000 -0.0000
vn 1.0000 -0.0000 -0.0000
vn -0.0431 0.9991 -0.0000
vn 0.9991 0.0431 -0.0000
vn 0.9991 0.0430 -0.0000
vn -0.9991 -0.0432 -0.0000
vn 0.0431 -0.9991 -0.0000
vn 0.2193 -0.0053 -0.9757
vn 0.2193 -0.0052 -0.9757
vn 0.9757 0.0012 0.2193
vn -0.0000 1.0000 -0.0054
vn -0.9757 -0.0012 -0.2192
vn -0.9757 -0.0013 -0.2192
vn -0.9757 -0.0011 -0.2192
vn -0.0000 -1.0000 0.0054
vn -0.2193 0.0053 0.9757
vn -0.9757 -0.0010 -0.2192
vn -0.0000 -1.0000 -0.0000
vt 0.966094 0.055814
vt 0.963446 0.055684
vt 0.966018 0.003276
vt 0.963316 0.058332
vt 0.958697 0.058106
vt 0.958751 0.002919
vt 0.956179 0.055328
vt 0.951560 0.055101
vt 0.954132 0.002692
vt 0.968666 0.003405
vt 0.958827 0.055458
vt 0.961399 0.003049
vt 0.966148 0.000627
vt 0.961529 0.000401
vt 0.876545 0.199322
vt 0.874090 0.198321
vt 0.896993 0.142134
vt 0.873089 0.200776
vt 0.868800 0.199028
vt 0.890248 0.139385
vt 0.867345 0.195572
vt 0.863056 0.193823
vt 0.885958 0.137636
vt 0.899448 0.143135
vt 0.869801 0.196572
vt 0.892703 0.140385
vt 0.897993 0.139679
vt 0.893704 0.137930
vt 0.983246 0.305159
vt 0.979347 0.305465
vt 0.975870 0.262676
vt 0.970450 0.309722
vt 0.966803 0.306668
vt 0.971010 0.304944
vt 0.967289 0.263361
vt 0.962623 0.263750
vt 0.979771 0.262368
vt 0.974676 0.305829
vt 0.971193 0.263048
vt 0.074834 0.171547
vt 0.072317 0.170712
vt 0.096106 0.099009
vt 0.071483 0.173229
vt 0.067075 0.171766
vt 0.089182 0.096711
vt 0.065393 0.168415
vt 0.060985 0.166952
vt 0.084774 0.095249
vt 0.098623 0.099844
vt 0.096941 0.096492
vt 0.091698 0.097546
vt 0.067910 0.169250
vt 0.092533 0.095030
vt 0.954793 0.413496
vt 0.952193 0.412981
vt 0.961356 0.366755
vt 0.951677 0.415582
vt 0.947130 0.414680
vt 0.954208 0.365339
vt 0.945045 0.411564
vt 0.940497 0.410662
vt 0.949661 0.364437
vt 0.963957 0.367271
vt 0.961872 0.364155
vt 0.956809 0.365854
vt 0.947645 0.412079
vt 0.957325 0.363253
vt 0.092792 0.001382
vt 0.088643 0.000962
vt 0.088700 0.000394
vt 0.903065 0.007516
vt 0.906333 0.010107
vt 0.903229 0.014024
vt 0.054889 0.001730
vt 0.054736 0.002279
vt 0.049922 0.000933
vt 0.050076 0.000384
vt 0.092849 0.000815
vt 0.899960 0.011433
vt 0.899513 0.011079
vt 0.902618 0.007162
vt 0.899350 0.004571
vt 0.038945 0.000395
vt 0.043067 0.001026
vt 0.042981 0.001590
vt 0.896245 0.008488
vt 0.038859 0.000959
vt 0.259266 0.051108
vt 0.255369 0.051412
vt 0.251235 0.000702
vt 0.246449 0.055661
vt 0.242785 0.052609
vt 0.247016 0.050903
vt 0.242659 0.001385
vt 0.237994 0.001765
vt 0.255133 0.000396
vt 0.250701 0.051774
vt 0.246561 0.001073
s 1
f 1/1/1 2/2/1 6/3/1
f 2/2/2 1/4/2 3/5/2
f 4/6/3 3/7/3 1/8/3
f 1/8/3 5/9/3 4/6/3
f 6/3/1 5/10/1 1/1/1
f 7/11/4 8/12/4 6/3/4
f 6/3/4 2/2/4 7/11/4
f 5/13/5 6/3/5 8/12/5
f 4/6/6 8/12/6 7/11/6
f 8/12/5 4/14/5 5/13/5
f 7/11/6 3/7/6 4/6/6
f 3/5/2 7/11/2 2/2/2
f 9/15/7 10/16/7 14/17/7
f 10/16/8 9/18/8 11/19/8
f 12/20/3 11/21/3 9/22/3
f 9/22/3 13/23/3 12/20/3
f 14/17/7 13/24/7 9/15/7
f 15/25/4 16/26/4 14/17/4
f 14/17/4 10/16/4 15/25/4
f 13/27/9 14/17/10 16/26/9
f 12/20/11 16/26/11 15/25/11
f 16/26/9 12/28/9 13/27/9
f 15/25/11 11/21/11 12/20/11
f 11/19/8 15/25/8 10/16/8
f 17/29/12 18/30/12 22/31/12
f 18/32/13 17/33/13 19/34/13
f 20/35/3 19/34/3 17/33/3
f 17/33/3 21/36/3 20/35/3
f 22/31/12 21/37/12 17/29/12
f 24/38/4 23/39/4 22/31/4
f 22/31/4 18/30/4 24/38/4
f 24/38/14 19/34/14 20/35/14
f 19/34/13 24/38/13 18/32/13
f 20/35/14 23/39/14 24/38/14
f 25/40/15 26/41/15 30/42/15
f 26/41/16 25/43/17 27/44/16
f 28/45/3 27/46/3 25/47/3
f 25/47/3 29/48/3 28/45/3
f 30/42/15 29/49/15 25/40/15
f 29/50/18 30/42/18 32/51/18
f 31/52/4 32/51/4 30/42/4
f 30/42/4 26/41/4 31/52/4
f 28/45/19 32/51/19 31/52/19
f 32/51/18 28/53/18 29/50/18
f 31/52/19 27/46/19 28/45/19
f 27/44/16 31/52/16 26/41/16
f 33/54/20 34/55/20 38/56/21
f 34/55/22 33/57/22 35/58/22
f 36/59/23 35/60/23 33/61/23
f 33/61/23 37/62/23 36/59/23
f 38/56/21 37/63/21 33/54/20
f 37/64/24 38/56/25 39/65/26
f 40/66/27 39/65/27 38/56/27
f 38/56/27 34/55/27 40/66/27
f 40/66/28 35/60/28 36/59/28
f 35/58/22 40/66/22 34/55/22
f 36/59/28 39/65/28 40/66/28
f 39/65/26 36/67/29 37/64/24
f 41/68/12 42/69/12 46/70/12
f 42/71/13 41/72/13 43/73/13
f 44/74/3 43/75/3 41/76/3
f 41/76/3 45/77/3 44/74/3
f 46/70/12 45/78/12 41/68/12
f 47/79/4 48/80/4 46/81/4
f 46/81/4 42/71/4 47/79/4
f 45/82/30 46/81/30 48/80/30
f 44/83/14 48/84/14 47/85/14
f 48/80/30 44/86/30 45/82/30
f 47/85/14 43/87/14 44/83/14
f 43/73/13 47/79/13 42/71/13
f 49/88/12 50/89/12 54/90/12
f 50/91/13 49/92/13 51/93/13
f 52/94/3 51/93/3 49/92/3
f 49/92/3 53/95/3 52/94/3
f 54/90/12 53/96/12 49/88/12
f 55/97/4 56/98/4 54/90/4
f 54/90/4 50/89/4 55/97/4
f 52/94/14 56/98/14 55/97/14
f 55/97/14 51/93/14 52/94/14
f 51/93/13 55/97/13 50/91/13
