# Blender 4.4.1
# www.blender.org
o Fence_4
v 0.192451 0.185876 -0.000000
v 0.192451 0.185876 -0.017595
v 0.213539 0.185876 -0.000000
v 0.213539 0.000000 0.000000
v 0.192451 0.000000 0.000000
v 0.192451 -0.000000 -0.017595
v 0.213539 0.185876 -0.017595
v 0.213539 -0.000000 -0.017595
v 0.288811 0.096051 -0.004256
v 0.288811 0.096051 -0.016349
v 0.288836 0.074943 -0.004256
v -0.014808 0.074590 -0.004256
v -0.014833 0.095697 -0.004256
v -0.014833 0.095697 -0.016349
v 0.288836 0.074943 -0.016349
v -0.014808 0.074590 -0.016349
v -0.021088 0.190537 -0.000000
v -0.021088 0.190537 -0.017595
v 0.000000 0.190537 -0.000000
v 0.000000 0.000000 0.000000
v -0.021088 0.000000 0.000000
v -0.021088 -0.000000 -0.017595
v 0.000000 0.190537 -0.017595
v 0.000000 -0.000000 -0.017595
v 0.004020 0.003417 -0.004256
v 0.004020 0.003417 -0.016349
v 0.003737 0.024522 -0.004256
v 0.289341 0.028363 -0.004256
v 0.289625 0.007258 -0.004256
v 0.289625 0.007258 -0.016349
v 0.289341 0.028363 -0.016349
v 0.003737 0.024522 -0.016349
v 0.288811 0.074457 -0.004256
v 0.288811 0.074457 -0.016349
v 0.288836 0.053349 -0.004256
v -0.014808 0.052996 -0.004256
v -0.014833 0.074103 -0.004256
v -0.014833 0.074103 -0.016349
v -0.014808 0.052996 -0.016349
v 0.288836 0.053349 -0.016349
v -0.022186 0.192670 0.000916
v -0.022186 0.192670 -0.018512
v 0.001099 0.192670 0.000916
v 0.001099 0.190545 0.000916
v -0.022186 0.190545 0.000916
v -0.022186 0.190545 -0.018512
v 0.001099 0.192670 -0.018512
v 0.001099 0.190545 -0.018512
v 0.289389 0.170781 -0.004256
v 0.289389 0.170781 -0.016349
v 0.288650 0.149687 -0.004256
v -0.014808 0.160321 -0.004256
v -0.014069 0.181415 -0.004256
v -0.014069 0.181415 -0.016349
v 0.288650 0.149687 -0.016349
v -0.014808 0.160321 -0.016349
v 0.288959 0.050561 -0.004256
v 0.288959 0.050561 -0.016349
v 0.288830 0.029454 -0.004256
v -0.014808 0.031308 -0.004256
v -0.014679 0.052415 -0.004256
v -0.014679 0.052415 -0.016349
v 0.288830 0.029454 -0.016349
v -0.014808 0.031308 -0.016349
v 0.191617 0.186728 0.000694
v 0.191617 0.186728 -0.018289
v 0.214368 0.186728 0.000694
v 0.214368 0.184129 0.000694
v 0.191617 0.184129 0.000694
v 0.191617 0.184129 -0.018289
v 0.214368 0.186728 -0.018289
v 0.214368 0.184129 -0.018289
v 0.289388 0.173684 -0.016959
v 0.289388 0.173684 -0.003646
v -0.014069 0.184318 -0.016959
v 0.289286 0.170763 -0.016959
v -0.014172 0.181396 -0.016959
v -0.014172 0.181396 -0.003646
v 0.289286 0.170763 -0.003646
v -0.014069 0.184318 -0.003646
v 0.286594 0.216792 -0.000000
v 0.286594 0.216792 -0.017595
v 0.307682 0.216792 -0.000000
v 0.307682 0.000000 0.000000
v 0.286594 0.000000 0.000000
v 0.286594 -0.000000 -0.017595
v 0.307682 -0.000000 -0.017595
v 0.307682 0.216792 -0.017595
v 0.279495 0.117779 -0.004256
v 0.279495 0.117779 -0.016349
v 0.279283 0.096673 -0.004256
v -0.014808 0.099627 -0.004256
v -0.014596 0.120733 -0.004256
v -0.014596 0.120733 -0.016349
v 0.279283 0.096673 -0.016349
v -0.014808 0.099627 -0.016349
v 0.250001 0.148771 -0.004256
v 0.250001 0.148771 -0.016349
v 0.250547 0.127671 -0.004256
v -0.014808 0.120812 -0.004256
v -0.015354 0.141913 -0.004256
v -0.015354 0.141913 -0.016349
v 0.250547 0.127671 -0.016349
v -0.014808 0.120812 -0.016349
v 0.285750 0.219576 0.000703
v 0.285750 0.219576 -0.018298
v 0.308524 0.219576 0.000703
v 0.308524 0.216696 0.000703
v 0.285750 0.216696 0.000703
v 0.285750 0.216696 -0.018298
v 0.308524 0.216696 -0.018298
v 0.308524 0.219576 -0.018298
vn -1.0000 -0.0000 -0.0000
vn -0.0000 1.0000 -0.0000
vn -0.0000 -0.0000 1.0000
vn -0.0000 -0.0000 -1.0000
vn 1.0000 -0.0000 -0.0000
vn -0.0012 1.0000 -0.0000
vn 1.0000 0.0012 -0.0000
vn -1.0000 -0.0012 -0.0000
vn 0.0012 -1.0000 -0.0000
vn 1.0000 0.0013 -0.0000
vn 0.0134 -0.9999 -0.0000
vn -0.9999 -0.0134 -0.0000
vn 0.9999 0.0135 -0.0000
vn 0.9999 0.0134 -0.0000
vn -0.0134 0.9999 -0.0000
vn -0.0000 -1.0000 -0.0000
vn 0.0350 0.9994 -0.0000
vn 0.9994 -0.0350 -0.0000
vn -0.9994 0.0350 -0.0000
vn -0.0350 -0.9994 -0.0000
vn 0.9994 -0.0351 -0.0000
vn 0.0061 1.0000 -0.0000
vn 1.0000 -0.0061 -0.0000
vn -1.0000 0.0061 -0.0000
vn -0.0061 -1.0000 -0.0000
vn 0.9994 -0.0352 -0.0000
vn 0.9994 -0.0346 -0.0000
vn -0.9994 0.0352 -0.0000
vn 0.9994 -0.0349 -0.0000
vn 0.0100 0.9999 -0.0000
vn 0.9999 -0.0101 -0.0000
vn 0.9999 -0.0100 -0.0000
vn -0.9999 0.0100 -0.0000
vn -0.0100 -0.9999 -0.0000
vn -0.0258 0.9997 -0.0000
vn 0.9997 0.0259 -0.0000
vn -0.9997 -0.0259 -0.0000
vn 0.0258 -0.9997 -0.0000
vt 0.983106 0.167216
vt 0.979207 0.167522
vt 0.975871 0.126431
vt 0.970317 0.171782
vt 0.966674 0.168726
vt 0.970874 0.166997
vt 0.967288 0.127116
vt 0.962623 0.127508
vt 0.979772 0.126123
vt 0.974535 0.167887
vt 0.971193 0.126803
vt 0.655671 0.958338
vt 0.655700 0.960990
vt 0.589131 0.961717
vt 0.658351 0.960961
vt 0.658401 0.965588
vt 0.589211 0.968995
vt 0.655779 0.968268
vt 0.655829 0.972896
vt 0.589261 0.973623
vt 0.589102 0.959066
vt 0.655750 0.965617
vt 0.589182 0.966344
vt 0.586480 0.961746
vt 0.586530 0.966373
vt 0.020704 0.735518
vt 0.016805 0.735824
vt 0.013385 0.693714
vt 0.007911 0.740082
vt 0.004266 0.737027
vt 0.008470 0.735301
vt 0.004803 0.694399
vt 0.000138 0.694789
vt 0.017286 0.693406
vt 0.012134 0.736188
vt 0.008708 0.694086
vt 0.305768 0.870169
vt 0.304507 0.867837
vt 0.359584 0.838036
vt 0.302175 0.869099
vt 0.299973 0.865029
vt 0.356121 0.831634
vt 0.301043 0.861435
vt 0.298841 0.857365
vt 0.353918 0.827564
vt 0.360846 0.840368
vt 0.302305 0.863767
vt 0.361916 0.836774
vt 0.357382 0.833966
vt 0.359714 0.832704
vt 0.583761 0.959296
vt 0.583790 0.961947
vt 0.517221 0.962672
vt 0.586441 0.961918
vt 0.586492 0.966546
vt 0.517300 0.969950
vt 0.583869 0.969226
vt 0.583919 0.973854
vt 0.517351 0.974578
vt 0.517192 0.960021
vt 0.583840 0.966575
vt 0.514570 0.962701
vt 0.517272 0.967299
vt 0.514620 0.967328
vt 0.170327 0.001239
vt 0.166084 0.000865
vt 0.166125 0.000401
vt 0.576752 0.003302
vt 0.580108 0.005924
vt 0.576965 0.009947
vt 0.160097 0.001564
vt 0.159991 0.002018
vt 0.155021 0.000849
vt 0.155128 0.000396
vt 0.170368 0.000775
vt 0.573609 0.007324
vt 0.573242 0.007038
vt 0.576385 0.003015
vt 0.573028 0.000392
vt 0.033328 0.000540
vt 0.037584 0.000399
vt 0.037599 0.000865
vt 0.569885 0.004415
vt 0.033343 0.001005
vt 0.097016 0.960894
vt 0.097020 0.963545
vt 0.030447 0.963644
vt 0.099671 0.963541
vt 0.099678 0.968169
vt 0.030458 0.970922
vt 0.097030 0.970824
vt 0.097037 0.975452
vt 0.030465 0.975550
vt 0.030443 0.960992
vt 0.097027 0.968173
vt 0.030454 0.968271
vt 0.027796 0.963648
vt 0.027803 0.968275
vt 0.904920 0.203665
vt 0.902333 0.203086
vt 0.916880 0.138122
vt 0.901753 0.205674
vt 0.897237 0.204662
vt 0.909776 0.136532
vt 0.895229 0.201496
vt 0.890714 0.200484
vt 0.905261 0.135521
vt 0.919467 0.138702
vt 0.897817 0.202075
vt 0.912364 0.137111
vt 0.917459 0.135535
vt 0.912943 0.134524
vt 0.148099 0.001375
vt 0.143958 0.000961
vt 0.144015 0.000394
vt 0.674254 0.005981
vt 0.670131 0.006547
vt 0.669453 0.001605
vt 0.049345 0.001745
vt 0.049190 0.002293
vt 0.044391 0.000932
vt 0.044546 0.000384
vt 0.148156 0.000808
vt 0.673576 0.001039
vt 0.674141 0.000962
vt 0.674819 0.005904
vt 0.678942 0.005338
vt 0.063877 0.003770
vt 0.060985 0.000777
vt 0.061395 0.000381
vt 0.678264 0.000396
vt 0.064287 0.003374
vt 0.449357 0.469012
vt 0.449109 0.469618
vt 0.448534 0.465560
vt 0.448192 0.462567
vt 0.514868 0.453955
vt 0.515328 0.460521
vt 0.515774 0.460999
vt 0.514955 0.457551
vt 0.448980 0.466039
vt 0.515204 0.456946
vt 0.967068 0.529287
vt 0.963170 0.529592
vt 0.959272 0.481743
vt 0.954258 0.533843
vt 0.950599 0.530790
vt 0.954822 0.529078
vt 0.950694 0.482427
vt 0.946029 0.482810
vt 0.963171 0.481436
vt 0.958501 0.529954
vt 0.954596 0.482115
vt 0.166804 0.959483
vt 0.166834 0.962134
vt 0.102357 0.962862
vt 0.169485 0.962105
vt 0.169538 0.966732
vt 0.102439 0.970141
vt 0.166916 0.969413
vt 0.166969 0.974041
vt 0.102491 0.974768
vt 0.102327 0.960211
vt 0.166886 0.966762
vt 0.102409 0.967490
vt 0.099706 0.962892
vt 0.099758 0.967520
vt 0.912835 0.968108
vt 0.912842 0.970760
vt 0.854644 0.970901
vt 0.915493 0.970753
vt 0.915504 0.975381
vt 0.854662 0.978180
vt 0.912859 0.978039
vt 0.912871 0.982666
vt 0.854673 0.982808
vt 0.854638 0.968250
vt 0.912853 0.975387
vt 0.854656 0.975529
vt 0.851993 0.970907
vt 0.852004 0.975535
vt 0.077649 0.000395
vt 0.081790 0.000850
vt 0.081721 0.001478
vt 0.906363 0.031503
vt 0.902213 0.031866
vt 0.901777 0.026892
vt 0.104715 0.001479
vt 0.104577 0.002095
vt 0.099706 0.001000
vt 0.099844 0.000384
vt 0.077580 0.001022
vt 0.911142 0.031084
vt 0.906992 0.031447
vt 0.906556 0.026473
vt 0.905927 0.026529
vt 0.327004 0.000378
vt 0.329495 0.003718
vt 0.328988 0.004095
vt 0.326498 0.000756
vt 0.910706 0.026110
s 1
f 1/1/1 2/2/1 6/3/1
f 2/4/2 1/5/2 3/6/2
f 4/7/3 3/6/3 1/5/3
f 1/5/3 5/8/3 4/7/3
f 6/3/1 5/9/1 1/1/1
f 7/10/4 8/11/4 6/3/4
f 6/3/4 2/2/4 7/10/4
f 4/7/5 8/11/5 7/10/5
f 7/10/5 3/6/5 4/7/5
f 3/6/2 7/10/2 2/4/2
f 9/12/6 10/13/6 14/14/6
f 10/13/7 9/15/7 11/16/7
f 12/17/3 11/18/3 9/19/3
f 9/19/3 13/20/3 12/17/3
f 14/14/6 13/21/6 9/12/6
f 15/22/4 16/23/4 14/14/4
f 14/14/4 10/13/4 15/22/4
f 13/24/8 14/14/8 16/23/8
f 12/17/9 16/23/9 15/22/9
f 16/23/8 12/25/8 13/24/8
f 15/22/9 11/18/9 12/17/9
f 11/16/7 15/22/10 10/13/7
f 17/26/1 18/27/1 22/28/1
f 18/29/2 17/30/2 19/31/2
f 20/32/3 19/31/3 17/30/3
f 17/30/3 21/33/3 20/32/3
f 22/28/1 21/34/1 17/26/1
f 23/35/4 24/36/4 22/28/4
f 22/28/4 18/27/4 23/35/4
f 20/32/5 24/36/5 23/35/5
f 23/35/5 19/31/5 20/32/5
f 19/31/2 23/35/2 18/29/2
f 25/37/11 26/38/11 30/39/11
f 26/38/12 25/40/12 27/41/12
f 28/42/3 27/43/3 25/44/3
f 25/44/3 29/45/3 28/42/3
f 30/39/11 29/46/11 25/37/11
f 30/39/4 26/38/4 32/47/4
f 29/48/13 30/39/13 31/49/14
f 32/47/4 31/49/4 30/39/4
f 32/47/15 27/43/15 28/42/15
f 27/41/12 32/47/12 26/38/12
f 28/42/15 31/49/15 32/47/15
f 31/49/14 28/50/14 29/48/13
f 33/51/6 34/52/6 38/53/6
f 34/52/7 33/54/7 35/55/7
f 36/56/3 35/57/3 33/58/3
f 33/58/3 37/59/3 36/56/3
f 38/53/6 37/60/6 33/51/6
f 38/53/4 34/52/4 40/61/4
f 37/62/8 38/53/8 39/63/8
f 40/61/4 39/63/4 38/53/4
f 40/61/9 35/57/9 36/56/9
f 35/55/7 40/61/10 34/52/7
f 36/56/9 39/63/9 40/61/9
f 39/63/8 36/64/8 37/62/8
f 41/65/1 42/66/1 46/67/1
f 42/68/2 41/69/2 43/70/2
f 44/71/3 43/72/3 41/73/3
f 41/73/3 45/74/3 44/71/3
f 46/67/1 45/75/1 41/65/1
f 47/76/4 48/77/4 46/78/4
f 46/78/4 42/68/4 47/76/4
f 45/79/16 46/78/16 48/77/16
f 44/80/5 48/81/5 47/82/5
f 48/77/16 44/83/16 45/79/16
f 47/82/5 43/84/5 44/80/5
f 43/70/2 47/76/2 42/68/2
f 49/85/17 50/86/17 54/87/17
f 50/86/18 49/88/18 51/89/18
f 52/90/3 51/91/3 49/92/3
f 49/92/3 53/93/3 52/90/3
f 54/87/17 53/94/17 49/85/17
f 55/95/4 56/96/4 54/87/4
f 54/87/4 50/86/4 55/95/4
f 53/97/19 54/87/19 56/96/19
f 52/90/20 56/96/20 55/95/20
f 56/96/19 52/98/19 53/97/19
f 55/95/20 51/91/20 52/90/20
f 51/89/18 55/95/21 50/86/18
f 57/99/22 58/100/22 62/101/22
f 58/100/23 57/102/23 59/103/23
f 60/104/3 59/105/3 57/106/3
f 57/106/3 61/107/3 60/104/3
f 62/101/22 61/108/22 57/99/22
f 63/109/4 64/110/4 62/101/4
f 62/101/4 58/100/4 63/109/4
f 61/111/24 62/101/24 64/110/24
f 60/104/25 64/110/25 63/109/25
f 64/110/24 60/112/24 61/111/24
f 63/109/25 59/105/25 60/104/25
f 59/103/23 63/109/23 58/100/23
f 65/113/1 66/114/1 70/115/1
f 66/116/2 65/117/2 67/118/2
f 68/119/3 67/120/3 65/121/3
f 65/121/3 69/122/3 68/119/3
f 70/115/1 69/123/1 65/113/1
f 71/124/4 72/125/4 70/126/4
f 70/126/4 66/116/4 71/124/4
f 69/127/16 70/126/16 72/125/16
f 68/128/5 72/129/5 71/130/5
f 72/125/16 68/131/16 69/127/16
f 71/130/5 67/132/5 68/128/5
f 67/118/2 71/124/2 66/116/2
f 76/133/21 73/134/26 74/135/27
f 74/135/17 73/136/17 75/137/17
f 77/138/4 75/139/4 73/134/4
f 73/134/4 76/133/4 77/138/4
f 75/139/28 77/138/28 78/140/28
f 79/141/20 78/140/20 77/138/20
f 77/138/20 76/133/20 79/141/20
f 80/142/3 78/140/3 79/141/3
f 79/141/3 74/135/3 80/142/3
f 74/135/27 79/141/29 76/133/21
f 78/140/28 80/142/28 75/139/28
f 75/137/17 80/142/17 74/135/17
f 81/143/1 82/144/1 86/145/1
f 82/146/2 81/147/2 83/148/2
f 84/149/3 83/148/3 81/147/3
f 81/147/3 85/150/3 84/149/3
f 86/145/1 85/151/1 81/143/1
f 86/145/4 82/144/4 88/152/4
f 88/152/4 87/153/4 86/145/4
f 88/152/5 83/148/5 84/149/5
f 83/148/2 88/152/2 82/146/2
f 84/149/5 87/153/5 88/152/5
f 89/154/30 90/155/30 94/156/30
f 90/155/31 89/157/32 91/158/31
f 92/159/3 91/160/3 89/161/3
f 89/161/3 93/162/3 92/159/3
f 94/156/30 93/163/30 89/154/30
f 95/164/4 96/165/4 94/156/4
f 94/156/4 90/155/4 95/164/4
f 93/166/33 94/156/33 96/165/33
f 92/159/34 96/165/34 95/164/34
f 96/165/33 92/167/33 93/166/33
f 95/164/34 91/160/34 92/159/34
f 91/158/31 95/164/31 90/155/31
f 97/168/35 98/169/35 102/170/35
f 98/169/36 97/171/36 99/172/36
f 100/173/3 99/174/3 97/175/3
f 97/175/3 101/176/3 100/173/3
f 102/170/35 101/177/35 97/168/35
f 103/178/4 104/179/4 102/170/4
f 102/170/4 98/169/4 103/178/4
f 101/180/37 102/170/37 104/179/37
f 100/173/38 104/179/38 103/178/38
f 104/179/37 100/181/37 101/180/37
f 103/178/38 99/174/38 100/173/38
f 99/172/36 103/178/36 98/169/36
f 105/182/1 106/183/1 110/184/1
f 106/185/2 105/186/2 107/187/2
f 108/188/3 107/189/3 105/190/3
f 105/190/3 109/191/3 108/188/3
f 110/184/1 109/192/1 105/182/1
f 109/193/16 110/194/16 111/195/16
f 112/196/4 111/195/4 110/194/4
f 110/194/4 106/185/4 112/196/4
f 112/197/5 107/198/5 108/199/5
f 107/187/2 112/196/2 106/185/2
f 108/199/5 111/200/5 112/197/5
f 111/195/16 108/201/16 109/193/16
