# Blender 4.4.1
# www.blender.org
o Fence_7
v 0.288809 0.096049 -0.004256
v 0.288809 0.096049 -0.016349
v 0.288835 0.074942 -0.004256
v -0.014810 0.074588 -0.004256
v -0.014835 0.095696 -0.004256
v -0.014835 0.095696 -0.016349
v 0.288835 0.074942 -0.016349
v -0.014810 0.074588 -0.016349
v 0.192448 0.181064 -0.018890
v 0.192448 -0.000000 -0.018890
v 0.213536 0.181064 -0.018890
v 0.192448 0.181064 -0.001294
v 0.213536 0.181064 -0.001294
v 0.213537 -0.000000 -0.001294
v 0.192448 -0.000000 -0.001294
v 0.213537 -0.000000 -0.018890
v 0.004020 0.003415 -0.004256
v 0.004020 0.003415 -0.016349
v 0.003737 0.024520 -0.004256
v 0.289341 0.028361 -0.004256
v 0.289624 0.007256 -0.004256
v 0.289624 0.007256 -0.016349
v 0.003737 0.024520 -0.016349
v 0.289341 0.028361 -0.016349
v -0.021706 0.191742 -0.018109
v -0.021706 0.190242 -0.018109
v 0.000614 0.191742 -0.018109
v -0.021706 0.191742 0.000514
v 0.000614 0.190242 0.000514
v -0.021706 0.190242 0.000514
v 0.000614 0.191742 0.000514
v 0.000614 0.190242 -0.018109
v 0.286592 0.216791 -0.017595
v 0.286592 -0.000000 -0.017595
v 0.307680 0.216791 -0.017595
v 0.286592 0.216791 -0.000000
v 0.286592 0.000000 0.000000
v 0.307680 0.000000 0.000000
v 0.307680 0.216791 -0.000000
v 0.307680 -0.000000 -0.017595
v -0.008900 0.182987 -0.018514
v 0.192368 0.176529 -0.018740
v -0.008900 0.182987 -0.002009
v 0.192389 0.173753 -0.019249
v -0.013392 0.180501 -0.018740
v -0.013392 0.180501 -0.001784
v 0.192368 0.176529 -0.001784
v 0.192389 0.173753 -0.001274
v 0.289387 0.170779 -0.004256
v 0.289387 0.170779 -0.016349
v 0.288648 0.149685 -0.004256
v -0.014810 0.160318 -0.004256
v -0.014071 0.181412 -0.004256
v -0.014071 0.181412 -0.016349
v 0.288648 0.149685 -0.016349
v -0.014810 0.160318 -0.016349
v 0.288809 0.074454 -0.004256
v 0.288809 0.074454 -0.016349
v 0.288835 0.053347 -0.004256
v -0.014810 0.052994 -0.004256
v -0.014833 0.074101 -0.004256
v -0.014833 0.074101 -0.016349
v 0.288835 0.053347 -0.016349
v -0.014810 0.052994 -0.016349
v 0.191427 0.181759 0.001552
v 0.191427 0.181759 -0.017469
v 0.214224 0.181759 0.001552
v 0.214224 0.179156 0.001552
v 0.191427 0.179156 0.001552
v 0.191427 0.179156 -0.017469
v 0.214224 0.181759 -0.017469
v 0.214224 0.179156 -0.017469
v -0.021088 0.190537 -0.017595
v -0.021088 -0.000000 -0.017595
v 0.000000 0.190537 -0.017595
v -0.021088 0.190537 -0.000000
v -0.021088 0.000000 0.000000
v 0.000000 0.000000 0.000000
v 0.000000 0.190537 -0.000000
v 0.000000 -0.000000 -0.017595
v 0.288960 0.050560 -0.004256
v 0.288960 0.050560 -0.016349
v 0.288829 0.029453 -0.004256
v -0.014810 0.031306 -0.004256
v -0.014681 0.052413 -0.004256
v -0.014681 0.052413 -0.016349
v 0.288829 0.029453 -0.016349
v -0.014810 0.031306 -0.016349
v 0.249999 0.148770 -0.004256
v 0.249999 0.148770 -0.016349
v 0.250546 0.127670 -0.004256
v -0.014810 0.120811 -0.004256
v -0.015356 0.141911 -0.004256
v -0.015356 0.141911 -0.016349
v 0.250546 0.127670 -0.016349
v -0.014810 0.120811 -0.016349
v 0.279493 0.117777 -0.004256
v 0.279493 0.117777 -0.016349
v 0.279283 0.096670 -0.004256
v -0.014810 0.099624 -0.004256
v -0.014598 0.120730 -0.004256
v -0.014598 0.120730 -0.016349
v 0.279283 0.096670 -0.016349
v -0.014810 0.099624 -0.016349
v 0.285765 0.217267 0.001552
v 0.285765 0.217267 -0.017469
v 0.308562 0.217267 0.001552
v 0.308562 0.214664 0.001552
v 0.285765 0.214664 0.001552
v 0.285765 0.214664 -0.017469
v 0.308562 0.217267 -0.017469
v 0.308562 0.214664 -0.017469
vn -0.0012 1.0000 -0.0000
vn 1.0000 0.0012 -0.0000
vn -0.0000 -0.0000 1.0000
vn -0.0000 -0.0000 -1.0000
vn -1.0000 -0.0012 -0.0000
vn -1.0000 -0.0013 -0.0000
vn 0.0012 -1.0000 -0.0000
vn -1.0000 -0.0000 -0.0000
vn -0.0000 1.0000 -0.0000
vn 1.0000 -0.0000 -0.0000
vn 0.0134 -0.9999 -0.0000
vn -0.9999 -0.0134 -0.0000
vn 0.9999 0.0134 -0.0000
vn -0.0134 0.9999 -0.0000
vn -0.0000 -1.0000 -0.0000
vn 0.0026 0.1362 -0.9907
vn 0.0321 0.9995 -0.0000
vn -0.0328 -0.9995 -0.0000
vn 0.0026 0.1362 0.9907
vn 0.0350 0.9994 -0.0000
vn 0.9994 -0.0350 -0.0000
vn 0.9994 -0.0351 -0.0000
vn -0.9994 0.0350 -0.0000
vn -0.9994 0.0351 -0.0000
vn -0.0350 -0.9994 -0.0000
vn -1.0000 -0.0011 -0.0000
vn 0.0061 1.0000 -0.0000
vn 1.0000 -0.0062 -0.0000
vn 1.0000 -0.0061 -0.0000
vn -1.0000 0.0061 -0.0000
vn -0.0061 -1.0000 -0.0000
vn -0.0258 0.9997 -0.0000
vn 0.9997 0.0259 -0.0000
vn -0.9997 -0.0259 -0.0000
vn 0.0258 -0.9997 -0.0000
vn 0.0100 0.9999 -0.0000
vn 1.0000 -0.0100 -0.0000
vn 1.0000 -0.0099 -0.0000
vn 0.9999 -0.0100 -0.0000
vn -0.9999 0.0100 -0.0000
vn -0.0100 -0.9999 -0.0000
vt 0.087890 0.051850
vt 0.090205 0.053142
vt 0.057769 0.111278
vt 0.091497 0.050827
vt 0.095538 0.053081
vt 0.064126 0.114824
vt 0.096562 0.056688
vt 0.100603 0.058943
vt 0.068167 0.117079
vt 0.055454 0.109986
vt 0.094246 0.055397
vt 0.061810 0.113533
vt 0.056477 0.113593
vt 0.060519 0.115848
vt 0.636264 0.073744
vt 0.639606 0.071816
vt 0.659437 0.106206
vt 0.426683 0.010307
vt 0.387345 0.004979
vt 0.387966 0.000397
vt 0.585680 0.004921
vt 0.581906 0.005720
vt 0.580948 0.001197
vt 0.584723 0.000398
vt 0.990281 0.828539
vt 0.994131 0.828287
vt 0.996729 0.867899
vt 0.994012 0.828289
vt 0.990281 0.788768
vt 0.994884 0.788333
vt 0.998615 0.827855
vt 0.992880 0.868151
vt 0.427304 0.005726
vt 0.656095 0.108133
vt 0.837306 0.207729
vt 0.837966 0.205161
vt 0.898614 0.220763
vt 0.835398 0.204500
vt 0.836551 0.200019
vt 0.900428 0.213714
vt 0.839780 0.198111
vt 0.840932 0.193630
vt 0.901581 0.209232
vt 0.897954 0.223331
vt 0.901182 0.221424
vt 0.899767 0.216282
vt 0.839119 0.200679
vt 0.902335 0.216942
vt 0.636264 0.003657
vt 0.638720 0.000396
vt 0.638983 0.000594
vt 0.232788 0.005294
vt 0.232462 0.005252
vt 0.233095 0.000399
vt 0.946029 0.010878
vt 0.950920 0.010720
vt 0.951052 0.014801
vt 0.946161 0.014959
vt 0.636526 0.003855
vt 0.237470 0.000970
vt 0.237796 0.001012
vt 0.237163 0.005865
vt 0.236837 0.005822
vt 0.131436 0.001027
vt 0.127363 0.000728
vt 0.127388 0.000400
vt 0.233421 0.000442
vt 0.131460 0.000699
vt 0.901777 0.003871
vt 0.903437 0.000389
vt 0.946340 0.020846
vt 0.074985 0.010677
vt 0.027796 0.004991
vt 0.028349 0.000400
vt 0.912944 0.012809
vt 0.908577 0.014330
vt 0.907308 0.010687
vt 0.944680 0.024328
vt 0.994888 0.000395
vt 0.998909 0.047755
vt 0.994302 0.048146
vt 0.990281 0.000786
vt 0.911674 0.009166
vt 0.000138 0.321013
vt 0.003985 0.320718
vt 0.007618 0.368109
vt 0.003771 0.368404
vt 0.075539 0.006087
vt 0.250193 0.411621
vt 0.294336 0.410821
vt 0.294371 0.411439
vt 0.250124 0.408003
vt 0.249237 0.412217
vt 0.249145 0.407445
vt 0.249057 0.403728
vt 0.294182 0.402546
vt 0.294264 0.407104
vt 0.294276 0.406485
vt 0.395834 0.570120
vt 0.395325 0.572722
vt 0.329988 0.559957
vt 0.397927 0.573231
vt 0.397040 0.577772
vt 0.328592 0.567101
vt 0.393929 0.579866
vt 0.393042 0.584408
vt 0.327705 0.571643
vt 0.330496 0.557355
vt 0.394438 0.577264
vt 0.329100 0.564499
vt 0.327386 0.559449
vt 0.326498 0.563990
vt 0.774552 0.009634
vt 0.776597 0.007947
vt 0.818960 0.059302
vt 0.774910 0.005902
vt 0.778479 0.002957
vt 0.824575 0.054670
vt 0.782212 0.003315
vt 0.785782 0.000370
vt 0.828144 0.051725
vt 0.816914 0.060989
vt 0.780167 0.005002
vt 0.822529 0.056357
vt 0.820647 0.061347
vt 0.824216 0.058402
vt 0.357996 0.001388
vt 0.353847 0.000965
vt 0.353905 0.000398
vt 0.357490 0.006360
vt 0.357432 0.006928
vt 0.362462 0.006866
vt 0.362404 0.007434
vt 0.358054 0.000820
vt 0.353341 0.005938
vt 0.352773 0.005880
vt 0.353279 0.000908
vt 0.349131 0.000485
vt 0.353283 0.006506
vt 0.348624 0.005458
vt 0.033328 0.266431
vt 0.034976 0.262943
vt 0.072745 0.280791
vt 0.993057 0.067117
vt 0.951560 0.062309
vt 0.952093 0.057716
vt 0.631086 0.003802
vt 0.626989 0.005946
vt 0.625201 0.002528
vt 0.071097 0.284279
vt 0.994885 0.067105
vt 0.998742 0.108701
vt 0.994138 0.109128
vt 0.990281 0.067532
vt 0.629297 0.000384
vt 0.188210 0.103187
vt 0.192058 0.102912
vt 0.195030 0.144581
vt 0.191183 0.144855
vt 0.993589 0.062525
vt 0.731541 0.339986
vt 0.732689 0.337596
vt 0.792695 0.366426
vt 0.730299 0.336448
vt 0.732304 0.332277
vt 0.795848 0.359865
vt 0.735842 0.331035
vt 0.737846 0.326864
vt 0.797852 0.355694
vt 0.791547 0.368816
vt 0.734693 0.333425
vt 0.794700 0.362255
vt 0.795085 0.367574
vt 0.797089 0.363403
vt 0.113765 0.349767
vt 0.114419 0.352336
vt 0.058023 0.366702
vt 0.116989 0.351681
vt 0.118131 0.356166
vt 0.059820 0.373756
vt 0.116216 0.359390
vt 0.117359 0.363874
vt 0.060962 0.378240
vt 0.057368 0.364133
vt 0.115562 0.356820
vt 0.059165 0.371186
vt 0.055454 0.367357
vt 0.056596 0.371841
vt 0.874675 0.256603
vt 0.877156 0.257536
vt 0.854475 0.317896
vt 0.878089 0.255054
vt 0.882421 0.256681
vt 0.861288 0.320456
vt 0.883970 0.260096
vt 0.888303 0.261724
vt 0.865620 0.322084
vt 0.851993 0.316963
vt 0.881489 0.259163
vt 0.858807 0.319524
vt 0.853542 0.320378
vt 0.857874 0.322006
vt 0.606914 0.001387
vt 0.602765 0.000965
vt 0.602823 0.000398
vt 0.606408 0.006360
vt 0.606351 0.006927
vt 0.611381 0.006865
vt 0.611323 0.007433
vt 0.606972 0.000820
vt 0.602260 0.005938
vt 0.601692 0.005880
vt 0.602197 0.000908
vt 0.598048 0.000486
vt 0.602202 0.006505
vt 0.597543 0.005458
s 1
f 1/1/1 2/2/1 6/3/1
f 2/2/2 1/4/2 3/5/2
f 4/6/3 3/7/3 1/8/3
f 1/8/3 5/9/3 4/6/3
f 6/3/1 5/10/1 1/1/1
f 7/11/4 8/12/4 6/3/4
f 6/3/4 2/2/4 7/11/4
f 5/13/5 6/3/6 8/12/5
f 4/6/7 8/12/7 7/11/7
f 8/12/5 4/14/5 5/13/5
f 7/11/7 3/7/7 4/6/7
f 3/5/2 7/11/2 2/2/2
f 12/15/8 9/16/8 10/17/8
f 10/18/4 9/19/4 11/20/4
f 13/21/9 11/22/9 9/23/9
f 9/23/9 12/24/9 13/21/9
f 11/25/10 13/26/10 14/27/10
f 14/28/3 13/29/3 12/30/3
f 12/30/3 15/31/3 14/28/3
f 14/27/10 16/32/10 11/25/10
f 11/20/4 16/33/4 10/18/4
f 10/17/8 15/34/8 12/15/8
f 17/35/11 18/36/11 22/37/11
f 18/36/12 17/38/12 19/39/12
f 20/40/3 19/41/3 17/42/3
f 17/42/3 21/43/3 20/40/3
f 22/37/11 21/44/11 17/35/11
f 21/45/13 22/37/13 24/46/13
f 23/47/4 24/46/4 22/37/4
f 22/37/4 18/36/4 23/47/4
f 20/40/14 24/46/14 23/47/14
f 24/46/13 20/48/13 21/45/13
f 23/47/14 19/41/14 20/40/14
f 19/39/12 23/47/12 18/36/12
f 28/49/8 25/50/8 26/51/8
f 26/52/4 25/53/4 27/54/4
f 27/55/9 25/56/9 28/57/9
f 28/57/9 31/58/9 27/55/9
f 26/51/8 30/59/8 28/49/8
f 29/60/3 31/61/3 28/62/3
f 28/62/3 30/63/3 29/60/3
f 27/64/10 31/65/10 29/66/10
f 32/67/15 29/60/15 30/63/15
f 30/63/15 26/52/15 32/67/15
f 29/66/10 32/68/10 27/64/10
f 27/54/4 32/67/4 26/52/4
f 36/69/8 33/70/8 34/71/8
f 34/72/4 33/73/4 35/74/4
f 35/75/9 33/76/9 36/77/9
f 34/71/8 37/78/8 36/69/8
f 36/79/3 37/80/3 38/81/3
f 38/81/3 39/82/3 36/79/3
f 36/77/9 39/83/9 35/75/9
f 35/84/10 39/85/10 38/86/10
f 38/86/10 40/87/10 35/84/10
f 35/74/4 40/88/4 34/72/4
f 41/89/16 42/90/16 44/91/16
f 42/90/17 41/89/17 43/92/17
f 44/91/16 45/93/16 41/89/16
f 46/94/18 45/95/18 44/96/18
f 47/97/19 43/92/19 46/94/19
f 46/94/19 48/98/19 47/97/19
f 44/96/18 48/98/18 46/94/18
f 43/92/17 47/97/17 42/90/17
f 49/99/20 50/100/20 54/101/20
f 50/100/21 49/102/22 51/103/21
f 52/104/3 51/105/3 49/106/3
f 49/106/3 53/107/3 52/104/3
f 54/101/20 53/108/20 49/99/20
f 55/109/4 56/110/4 54/101/4
f 54/101/4 50/100/4 55/109/4
f 53/111/23 54/101/24 56/110/23
f 52/104/25 56/110/25 55/109/25
f 56/110/23 52/112/23 53/111/23
f 55/109/25 51/105/25 52/104/25
f 51/103/21 55/109/21 50/100/21
f 57/113/1 58/114/1 62/115/1
f 58/114/2 57/116/2 59/117/2
f 60/118/3 59/119/3 57/120/3
f 57/120/3 61/121/3 60/118/3
f 62/115/1 61/122/1 57/113/1
f 63/123/4 64/124/4 62/115/4
f 62/115/4 58/114/4 63/123/4
f 61/125/26 62/115/26 64/124/26
f 60/118/7 64/124/7 63/123/7
f 64/124/26 60/126/5 61/125/26
f 63/123/7 59/119/7 60/118/7
f 59/117/2 63/123/2 58/114/2
f 65/127/8 66/128/8 70/129/8
f 66/128/9 65/127/9 67/130/9
f 68/131/3 67/130/3 65/132/3
f 65/132/3 69/133/3 68/131/3
f 70/129/8 69/134/8 65/127/8
f 71/135/4 72/136/4 70/137/4
f 70/137/4 66/128/4 71/135/4
f 69/138/15 70/137/15 72/136/15
f 68/131/10 72/139/10 71/135/10
f 72/136/15 68/140/15 69/138/15
f 71/135/10 67/130/10 68/131/10
f 67/130/9 71/135/9 66/128/9
f 76/141/8 73/142/8 74/143/8
f 74/144/4 73/145/4 75/146/4
f 75/147/9 73/148/9 76/149/9
f 74/143/8 77/150/8 76/141/8
f 76/151/3 77/152/3 78/153/3
f 78/153/3 79/154/3 76/151/3
f 76/149/9 79/155/9 75/147/9
f 75/156/10 79/157/10 78/158/10
f 78/158/10 80/159/10 75/156/10
f 75/146/4 80/160/4 74/144/4
f 81/161/27 82/162/27 86/163/27
f 82/162/28 81/164/29 83/165/28
f 84/166/3 83/167/3 81/168/3
f 81/168/3 85/169/3 84/166/3
f 86/163/27 85/170/27 81/161/27
f 87/171/4 88/172/4 86/163/4
f 86/163/4 82/162/4 87/171/4
f 85/173/30 86/163/30 88/172/30
f 84/166/31 88/172/31 87/171/31
f 88/172/30 84/174/30 85/173/30
f 83/165/28 87/171/28 82/162/28
f 87/171/31 83/167/31 84/166/31
f 89/175/32 90/176/32 94/177/32
f 90/176/33 89/178/33 91/179/33
f 92/180/3 91/181/3 89/182/3
f 89/182/3 93/183/3 92/180/3
f 94/177/32 93/184/32 89/175/32
f 95/185/4 96/186/4 94/177/4
f 94/177/4 90/176/4 95/185/4
f 93/187/34 94/177/34 96/186/34
f 92/180/35 96/186/35 95/185/35
f 96/186/34 92/188/34 93/187/34
f 95/185/35 91/181/35 92/180/35
f 91/179/33 95/185/33 90/176/33
f 97/189/36 98/190/36 102/191/36
f 98/190/37 97/192/38 99/193/39
f 100/194/3 99/195/3 97/196/3
f 97/196/3 101/197/3 100/194/3
f 102/191/36 101/198/36 97/189/36
f 103/199/4 104/200/4 102/191/4
f 102/191/4 98/190/4 103/199/4
f 101/201/40 102/191/40 104/200/40
f 100/194/41 104/200/41 103/199/41
f 104/200/40 100/202/40 101/201/40
f 103/199/41 99/195/41 100/194/41
f 99/193/39 103/199/39 98/190/37
f 105/203/8 106/204/8 110/205/8
f 106/204/9 105/203/9 107/206/9
f 108/207/3 107/206/3 105/208/3
f 105/208/3 109/209/3 108/207/3
f 110/205/8 109/210/8 105/203/8
f 111/211/4 112/212/4 110/213/4
f 110/213/4 106/204/4 111/211/4
f 109/214/15 110/213/15 112/212/15
f 108/207/10 112/215/10 111/211/10
f 112/212/15 108/216/15 109/214/15
f 111/211/10 107/206/10 108/207/10
f 107/206/9 111/211/9 106/204/9
