# Blender 4.4.1
# www.blender.org
o Door_L
v 0.074101 0.451629 -0.016064
v 0.094336 0.972225 -0.016064
v 0.195995 0.451629 -0.016064
v 0.074445 0.442676 0.004092
v 0.074101 0.462312 -0.007279
v 0.072973 0.936318 0.006805
v 0.072973 0.936318 -0.016064
v 0.046669 0.892102 0.006805
v 0.045540 0.462312 -0.007279
v 0.045197 0.442676 0.004092
v 0.045540 0.451629 -0.016064
v 0.046669 0.891239 -0.016064
v 0.025306 0.856194 -0.016064
v 0.000002 0.451629 -0.016064
v 0.000002 0.798717 -0.016064
v 0.000002 0.442676 0.004092
v 0.000002 0.404359 0.004092
v 0.000002 0.395404 -0.016064
v 0.044742 0.000000 -0.016064
v 0.044813 0.395404 -0.016064
v 0.000002 0.000000 -0.016064
v 0.044961 0.404359 0.004092
v 0.044813 0.384722 -0.007279
v 0.074680 0.404359 0.004092
v 0.074829 0.384722 -0.007279
v 0.074900 0.000000 -0.016064
v 0.074829 0.395404 -0.016064
v 0.074900 0.000000 -0.001425
v 0.044742 0.000000 -0.001425
v 0.195882 0.404359 0.004092
v 0.195838 0.000000 -0.016064
v 0.195853 0.395404 -0.016064
v 0.195838 0.000000 -0.001425
v 0.195853 0.384722 -0.007279
v 0.227407 0.384722 -0.007279
v 0.227420 0.000000 -0.001425
v 0.227420 0.000000 -0.016064
v 0.227407 0.395404 -0.016064
v 0.303252 0.395404 -0.016064
v 0.303252 0.000000 -0.016064
v 0.312529 0.000000 0.004092
v 0.331051 0.000000 0.004092
v 0.312529 0.404359 0.004092
v 0.331051 0.442676 0.004092
v 0.312529 0.442676 0.004092
v 0.331051 1.128839 0.004092
v 0.312529 1.124884 0.004092
v 0.331051 1.128839 -0.027985
v 0.331051 0.000000 -0.027985
v 0.305341 1.128839 -0.027985
v 0.214247 0.000000 -0.027985
v 0.244612 1.106302 -0.027985
v 0.225104 1.091308 -0.027985
v 0.203392 1.074618 -0.027985
v 0.183884 1.059623 -0.027985
v 0.123155 0.000000 -0.027985
v 0.123155 1.000067 -0.027985
v 0.076476 0.939440 -0.027985
v 0.048377 0.893514 -0.027985
v 0.032061 0.861371 -0.027985
v 0.032061 0.000000 -0.027985
v 0.001698 0.213848 -0.027985
v 0.001698 0.000000 -0.027985
v 0.001698 0.801548 -0.027985
v 0.303252 1.124884 -0.016064
v 0.303252 0.451629 -0.016064
v 0.227263 0.451629 -0.016064
v 0.249308 1.111387 -0.016064
v 0.227041 1.095312 -0.016064
v 0.227263 0.462312 -0.007279
v 0.227041 1.095312 0.006805
v 0.195995 0.462312 -0.007279
v 0.196218 1.073056 0.006805
v 0.196218 1.073056 -0.016064
v 0.173952 1.056978 -0.016064
v 0.195928 0.442676 0.004092
v 0.227330 0.442676 0.004092
v 0.227378 0.404359 0.004092
vn -0.0000 -0.0000 1.0000
vn -0.0000 0.9139 0.4060
vn 1.0000 0.0043 -0.0025
vn 0.9999 0.0117 -0.0088
vn 0.9999 0.0103 -0.0125
vn 1.0000 0.0024 -0.0008
vn 1.0000 0.0024 -0.0007
vn 0.0251 -0.0311 0.9992
vn -0.9999 0.0102 -0.0125
vn -0.9999 0.0117 -0.0088
vn -1.0000 0.0046 -0.0025
vn -0.0000 0.5011 0.8654
vn -1.0000 0.0026 -0.0011
vn -1.0000 0.0026 -0.0009
vn -1.0000 0.0026 -0.0008
vn -1.0000 -0.0000 -0.0000
vn -0.0000 -0.9139 0.4060
vn -1.0000 0.0008 0.0008
vn -1.0000 0.0016 0.0019
vn -1.0000 0.0044 0.0054
vn -0.0000 -0.5011 0.8654
vn 1.0000 0.0002 -0.0000
vn 1.0000 0.0002 0.0002
vn 1.0000 0.0008 0.0008
vn 1.0000 0.0039 0.0046
vn 1.0000 0.0044 0.0054
vn -0.0000 0.0152 0.9999
vn -1.0000 0.0002 -0.0000
vn -1.0000 0.0007 0.0008
vn -1.0000 0.0002 0.0002
vn -1.0000 0.0009 0.0011
vn 1.0000 -0.0000 -0.0000
vn 1.0000 -0.0000 0.0001
vn 1.0000 0.0007 0.0009
vn -0.9084 -0.0000 0.4181
vn -0.0000 1.0000 -0.0001
vn -0.0000 1.0000 -0.0000
vn -0.0000 -1.0000 0.0001
vn -0.0000 -0.0000 -1.0000
vn 1.0000 0.0007 0.0003
vn 1.0000 0.0006 -0.0005
vn 1.0000 0.0004 -0.0000
vn 0.0081 -0.0226 0.9997
vn -1.0000 0.0004 -0.0000
vn -1.0000 0.0004 -0.0004
vn -1.0000 0.0008 -0.0004
vn -1.0000 0.0020 -0.0018
vn -1.0000 0.0020 -0.0024
vn 1.0000 0.0020 -0.0024
vn 1.0000 0.0009 0.0011
vt 0.454927 0.210143
vt 0.459582 0.104792
vt 0.459368 0.218566
vt 0.485583 0.105186
vt 0.458563 0.100289
vt 0.457626 0.106631
vt 0.449818 0.209853
vt 0.444619 0.199939
vt 0.451477 0.106314
vt 0.452184 0.100480
vt 0.449799 0.104179
vt 0.439525 0.199213
vt 0.435663 0.190672
vt 0.440218 0.102005
vt 0.431597 0.176888
vt 0.443770 0.098909
vt 0.443000 0.092893
vt 0.439956 0.089895
vt 0.434124 0.003602
vt 0.443978 0.002636
vt 0.449699 0.087990
vt 0.452281 0.091546
vt 0.451493 0.085908
vt 0.458029 0.085581
vt 0.458747 0.091656
vt 0.453994 0.001896
vt 0.457281 0.001711
vt 0.459957 0.087377
vt 0.447244 0.002367
vt 0.487155 0.092311
vt 0.485710 0.087820
vt 0.484773 0.000401
vt 0.488077 0.000443
vt 0.487557 0.085902
vt 0.494375 0.085970
vt 0.495191 0.000636
vt 0.498491 0.000739
vt 0.496205 0.088004
vt 0.512417 0.088677
vt 0.515593 0.001992
vt 0.520554 0.002356
vt 0.524621 0.002673
vt 0.520468 0.101116
vt 0.516687 0.092370
vt 0.516424 0.101221
vt 0.524694 0.252892
vt 0.099706 0.247709
vt 0.105503 0.097383
vt 0.109243 0.000401
vt 0.106733 0.247980
vt 0.520589 0.252246
vt 0.116271 0.000672
vt 0.112366 0.248198
vt 0.141860 0.001659
vt 0.125861 0.243773
vt 0.130262 0.240653
vt 0.135159 0.237180
vt 0.139560 0.234060
vt 0.161817 0.002428
vt 0.153368 0.221525
vt 0.164106 0.208638
vt 0.170650 0.198813
vt 0.181774 0.003198
vt 0.174496 0.191909
vt 0.186620 0.050305
vt 0.188426 0.003455
vt 0.181654 0.179059
vt 0.515656 0.252511
vt 0.495889 0.105094
vt 0.512047 0.104679
vt 0.503552 0.250116
vt 0.498513 0.246563
vt 0.494063 0.107115
vt 0.493418 0.246709
vt 0.487371 0.107133
vt 0.486557 0.241979
vt 0.481446 0.241932
vt 0.476571 0.238178
vt 0.487061 0.100906
vt 0.494582 0.100761
vt 0.494695 0.092289
s 1
f 7/1/1 1/2/1 2/3/1
f 2/3/1 1/2/1 3/4/1
f 3/4/2 1/2/2 4/5/2
f 1/2/3 5/6/4 4/5/5
f 6/7/6 5/6/4 1/2/3
f 1/2/7 7/1/7 6/7/6
f 6/7/8 8/8/8 9/9/8
f 9/9/8 5/6/8 6/7/8
f 10/10/9 9/9/10 11/11/11
f 9/9/12 10/10/12 4/5/12
f 4/5/12 5/6/12 9/9/12
f 12/12/13 11/11/11 9/9/10
f 9/9/14 8/8/14 12/12/15
f 13/13/1 11/11/1 12/12/1
f 14/14/1 11/11/1 13/13/1
f 13/13/1 15/15/1 14/14/1
f 11/11/2 14/14/2 16/16/2
f 17/17/16 16/16/16 14/14/16
f 14/14/16 18/18/16 17/17/16
f 18/18/1 21/19/1 19/20/1
f 19/20/1 20/21/1 18/18/1
f 18/18/17 20/21/17 22/22/17
f 22/22/17 17/17/17 18/18/17
f 20/21/18 23/23/19 22/22/20
f 22/22/21 23/23/21 25/24/21
f 17/17/1 22/22/1 10/10/1
f 10/10/1 22/22/1 24/25/1
f 25/24/21 24/25/21 22/22/21
f 25/24/22 28/26/22 26/27/22
f 26/27/23 27/28/24 25/24/25
f 24/25/26 25/24/25 27/28/24
f 28/26/27 25/24/27 23/23/27
f 23/23/27 29/29/27 28/26/27
f 19/20/28 29/29/28 23/23/19
f 30/30/17 24/25/17 27/28/17
f 27/28/17 32/31/17 30/30/17
f 31/32/1 32/31/1 27/28/1
f 27/28/1 26/27/1 31/32/1
f 33/33/16 34/34/29 32/31/30
f 32/31/16 31/32/16 33/33/16
f 32/31/30 34/34/29 30/30/31
f 30/30/21 34/34/21 35/35/21
f 36/36/27 35/35/27 34/34/27
f 34/34/27 33/33/27 36/36/27
f 35/35/32 36/36/32 37/37/32
f 37/37/32 38/38/33 35/35/34
f 39/39/1 38/38/1 37/37/1
f 37/37/1 40/40/1 39/39/1
f 39/39/35 40/40/35 41/41/35
f 41/41/1 42/42/1 44/43/1
f 41/41/35 43/44/35 39/39/35
f 44/43/1 43/44/1 41/41/1
f 44/43/1 45/45/1 43/44/1
f 45/45/1 44/43/1 46/46/1
s 0
f 46/47/36 44/48/37 42/49/38
s 1
f 42/49/32 48/50/32 46/47/32
f 46/46/1 47/51/1 45/45/1
f 42/49/32 49/52/32 48/50/32
f 49/52/39 50/53/39 48/50/39
f 50/53/39 49/52/39 51/54/39
f 51/54/39 52/55/39 50/53/39
f 51/54/39 53/56/39 52/55/39
f 51/54/39 54/57/39 53/56/39
f 51/54/39 55/58/39 54/57/39
f 56/59/39 57/60/39 55/58/39
f 55/58/39 51/54/39 56/59/39
f 56/59/39 58/61/39 57/60/39
f 59/62/39 58/61/39 56/59/39
f 61/63/39 60/64/39 59/62/39
f 56/59/39 61/63/39 59/62/39
f 60/64/39 61/63/39 62/65/39
f 61/63/39 63/66/39 62/65/39
f 62/65/39 64/67/39 60/64/39
f 45/45/35 47/51/35 65/68/35
f 67/69/1 66/70/1 65/68/1
f 65/68/35 66/70/35 45/45/35
f 65/68/1 68/71/1 67/69/1
f 69/72/1 67/69/1 68/71/1
f 70/73/40 67/69/41 69/72/42
f 69/72/42 71/74/42 70/73/40
f 72/75/43 70/73/43 71/74/43
f 71/74/43 73/76/43 72/75/43
f 72/75/44 73/76/44 74/77/44
f 74/77/45 3/4/46 72/75/47
f 75/78/1 3/4/1 74/77/1
f 3/4/1 75/78/1 2/3/1
f 76/79/48 72/75/47 3/4/46
f 72/75/12 76/79/12 77/80/12
f 77/80/12 70/73/12 72/75/12
f 67/69/41 70/73/40 77/80/49
f 66/70/2 67/69/2 77/80/2
f 77/80/2 45/45/2 66/70/2
f 45/45/1 77/80/1 78/81/1
f 78/81/1 77/80/1 76/79/1
f 43/44/17 78/81/17 38/38/17
f 78/81/1 43/44/1 45/45/1
f 76/79/1 30/30/1 78/81/1
f 35/35/21 78/81/21 30/30/21
f 78/81/50 35/35/34 38/38/33
f 4/5/2 76/79/2 3/4/2
f 76/79/1 4/5/1 24/25/1
f 24/25/1 30/30/1 76/79/1
f 38/38/17 39/39/17 43/44/17
f 24/25/1 4/5/1 10/10/1
f 23/23/19 20/21/18 19/20/28
f 10/10/1 16/16/1 17/17/1
f 16/16/2 10/10/2 11/11/2
