# Blender 4.4.1
# www.blender.org
o Door_R
v -0.173950 1.056980 -0.016064
v -0.195995 0.451631 -0.016064
v -0.196216 1.073057 -0.016064
v -0.094334 0.972226 -0.016064
v -0.074101 0.451631 -0.016064
v -0.072972 0.936319 -0.016064
v -0.072972 0.936319 0.006805
v -0.074101 0.462312 -0.007279
v -0.045539 0.462312 -0.007279
v -0.046667 0.892104 0.006805
v -0.046667 0.891240 -0.016064
v -0.025305 0.856196 -0.016064
v -0.045539 0.451631 -0.016064
v 0.000000 0.451631 -0.016064
v 0.000000 0.442676 0.004092
v -0.045196 0.442676 0.004092
v 0.000000 0.404359 0.004092
v -0.074680 0.404359 0.004092
v -0.044958 0.404359 0.004092
v -0.074444 0.442676 0.004092
v -0.195928 0.442676 0.004092
v -0.227330 0.442676 0.004092
v -0.195881 0.404359 0.004092
v -0.227377 0.404359 0.004092
v -0.195995 0.462312 -0.007279
v -0.196216 1.073057 0.006805
v -0.227041 1.095312 0.006805
v -0.227263 0.462312 -0.007279
v -0.227041 1.095312 -0.016064
v -0.227263 0.451631 -0.016064
v -0.303251 0.451631 -0.016064
v -0.249307 1.111389 -0.016064
v -0.303251 1.124885 -0.016064
v -0.312529 0.442676 0.004092
v -0.312529 1.124885 0.004092
v -0.331049 1.128839 0.004092
v -0.331049 0.442676 0.004092
v -0.331049 1.128839 -0.027985
v -0.331049 0.000001 -0.027985
v -0.305340 1.128839 -0.027985
v -0.331049 0.000001 0.004092
v -0.312529 0.000001 0.004092
v -0.312529 0.404359 0.004092
v -0.303251 0.395404 -0.016064
v -0.303251 0.000001 -0.016064
v -0.227420 0.000001 -0.016064
v -0.227404 0.395404 -0.016064
v -0.227404 0.384723 -0.007279
v -0.227420 0.000001 -0.001425
v -0.195852 0.384723 -0.007279
v -0.195838 0.000001 -0.001425
v -0.195852 0.395404 -0.016064
v -0.195838 0.000001 -0.016064
v -0.074827 0.395404 -0.016064
v -0.074898 0.000001 -0.016064
v -0.074827 0.384723 -0.007279
v -0.074898 0.000001 -0.001425
v -0.044812 0.384723 -0.007279
v -0.044741 0.000001 -0.001425
v -0.044741 0.000001 -0.016064
v -0.044812 0.395404 -0.016064
v 0.000000 0.395404 -0.016064
v 0.000000 0.000001 -0.016064
v -0.214247 0.000001 -0.027985
v -0.244611 1.106304 -0.027985
v -0.225103 1.091309 -0.027985
v -0.203390 1.074619 -0.027985
v -0.183882 1.059624 -0.027985
v -0.123154 0.000001 -0.027985
v -0.123154 1.000067 -0.027985
v -0.076474 0.939441 -0.027985
v -0.048375 0.893514 -0.027985
v -0.032062 0.000001 -0.027985
v -0.032062 0.861371 -0.027985
v -0.001696 0.213848 -0.027985
v -0.001696 0.801548 -0.027985
v -0.001696 0.000001 -0.027985
v 0.000000 0.798718 -0.016064
vn -0.0000 -0.0000 1.0000
vn -1.0000 0.0024 -0.0007
vn -1.0000 0.0034 -0.0018
vn -0.9999 0.0117 -0.0088
vn -0.0251 -0.0311 0.9992
vn 1.0000 0.0026 -0.0006
vn 1.0000 0.0026 -0.0007
vn 1.0000 0.0055 0.0005
vn 1.0000 0.0045 -0.0025
vn -0.0000 0.9139 0.4060
vn 0.9999 0.0102 -0.0125
vn -0.0000 0.5011 0.8654
vn -0.9999 0.0102 -0.0125
vn 1.0000 0.0020 -0.0024
vn 1.0000 0.0007 -0.0004
vn 1.0000 0.0011 0.0001
vn 1.0000 0.0004 -0.0000
vn -0.0081 -0.0226 0.9997
vn -1.0000 0.0004 -0.0000
vn -1.0000 0.0003 -0.0004
vn -1.0000 0.0007 -0.0005
vn -1.0000 0.0020 -0.0020
vn -1.0000 0.0020 -0.0024
vn 0.9084 -0.0000 0.4181
vn -1.0000 -0.0000 -0.0000
vn -0.0000 -0.0000 -1.0000
vn -1.0000 0.0003 0.0004
vn -1.0000 0.0002 0.0002
vn -0.0000 0.0152 0.9999
vn 1.0000 0.0001 0.0001
vn 1.0000 0.0008 0.0010
vn 1.0000 -0.0000 -0.0000
vn -1.0000 0.0016 0.0019
vn -1.0000 0.0008 0.0008
vn -1.0000 0.0002 -0.0000
vn 1.0000 0.0002 -0.0000
vn 1.0000 0.0002 0.0002
vn 1.0000 0.0007 0.0007
vn 1.0000 0.0039 0.0046
vn -0.0000 -0.9139 0.4060
vn 1.0000 0.0044 0.0053
vn -0.0000 -0.5011 0.8654
vn -1.0000 0.0044 0.0053
vn 1.0000 0.0009 0.0011
vn -1.0000 0.0008 0.0010
vt 0.311288 0.220654
vt 0.292636 0.238903
vt 0.293784 0.105614
vt 0.287487 0.242274
vt 0.319745 0.107198
vt 0.316359 0.212592
vt 0.321477 0.212690
vt 0.321554 0.109178
vt 0.327711 0.109327
vt 0.327417 0.203197
vt 0.332552 0.202859
vt 0.329547 0.107326
vt 0.337054 0.194634
vt 0.339265 0.105879
vt 0.335956 0.102528
vt 0.327448 0.103460
vt 0.337179 0.096588
vt 0.328027 0.094544
vt 0.321573 0.094165
vt 0.321101 0.102786
vt 0.292639 0.101233
vt 0.285150 0.100511
vt 0.291854 0.107416
vt 0.285686 0.092054
vt 0.293200 0.092654
vt 0.282387 0.241929
vt 0.275184 0.246120
vt 0.285183 0.106886
vt 0.270114 0.245584
vt 0.283516 0.104732
vt 0.264818 0.248740
vt 0.267437 0.103079
vt 0.252566 0.250202
vt 0.263337 0.099294
vt 0.247668 0.249559
vt 0.243525 0.249889
vt 0.428487 0.167272
vt 0.438284 0.317391
vt 0.431266 0.317848
vt 0.259314 0.098875
vt 0.415149 0.070882
vt 0.422167 0.070424
vt 0.425641 0.318216
vt 0.262694 0.000402
vt 0.266774 0.000401
vt 0.263752 0.090444
vt 0.268293 0.087092
vt 0.271747 0.000417
vt 0.288891 0.000482
vt 0.284508 0.087666
vt 0.286487 0.085777
vt 0.292189 0.000629
vt 0.293290 0.086232
vt 0.299295 0.000979
vt 0.294985 0.088287
vt 0.302592 0.001187
vt 0.320690 0.089807
vt 0.329897 0.004589
vt 0.322750 0.088161
vt 0.333160 0.005023
vt 0.329241 0.088981
vt 0.339853 0.006006
vt 0.343089 0.006522
vt 0.330870 0.091193
vt 0.340440 0.093828
vt 0.352841 0.008233
vt 0.389595 0.072549
vt 0.412033 0.314152
vt 0.407551 0.311150
vt 0.402563 0.307809
vt 0.398081 0.304807
vt 0.369665 0.073850
vt 0.383944 0.292644
vt 0.372866 0.280047
vt 0.366063 0.270400
vt 0.349736 0.075151
vt 0.362035 0.263601
vt 0.346146 0.122369
vt 0.354537 0.250946
vt 0.343093 0.075584
vt 0.342157 0.181197
s 1
f 4/1/1 1/2/1 2/3/1
f 1/2/1 3/4/1 2/3/1
f 2/3/1 5/5/1 4/1/1
f 6/6/1 4/1/1 5/5/1
f 7/7/2 6/6/2 5/5/3
f 5/5/3 8/8/4 7/7/2
f 7/7/5 8/8/5 9/9/5
f 9/9/5 10/10/5 7/7/5
f 11/11/6 10/10/7 9/9/8
f 9/9/8 13/12/9 11/11/6
f 12/13/1 11/11/1 13/12/1
f 12/13/1 13/12/1 14/14/1
f 15/15/10 14/14/10 13/12/10
f 13/12/10 16/16/10 15/15/10
f 16/16/11 13/12/9 9/9/8
f 17/17/1 15/15/1 16/16/1
f 16/16/1 19/18/1 17/17/1
f 18/19/1 19/18/1 16/16/1
f 16/16/1 20/20/1 18/19/1
f 20/20/12 16/16/12 9/9/12
f 9/9/12 8/8/12 20/20/12
f 5/5/3 20/20/13 8/8/4
f 20/20/10 5/5/10 2/3/10
f 18/19/1 20/20/1 21/21/1
f 2/3/10 21/21/10 20/20/10
f 22/22/12 21/21/12 25/23/12
f 21/21/1 22/22/1 24/24/1
f 21/21/1 23/25/1 18/19/1
f 24/24/1 23/25/1 21/21/1
f 21/21/14 2/3/15 25/23/16
f 3/4/17 26/26/17 25/23/16
f 25/23/16 2/3/15 3/4/17
f 25/23/18 26/26/18 27/27/18
f 27/27/18 28/28/18 25/23/18
f 25/23/12 28/28/12 22/22/12
f 28/28/19 27/27/19 29/29/19
f 29/29/20 30/30/21 28/28/22
f 30/30/21 22/22/23 28/28/22
f 29/29/1 32/31/1 30/30/1
f 22/22/10 30/30/10 31/32/10
f 33/33/1 31/32/1 30/30/1
f 30/30/1 32/31/1 33/33/1
f 34/34/24 31/32/24 33/33/24
f 33/33/24 35/35/24 34/34/24
f 34/34/1 35/35/1 36/36/1
f 37/37/25 36/38/25 38/39/25
f 36/36/1 37/40/1 34/34/1
f 38/39/25 39/41/25 41/42/25
f 39/41/26 38/39/26 40/43/26
f 38/39/25 41/42/25 37/37/25
f 37/40/1 41/44/1 42/45/1
f 42/45/1 43/46/1 37/40/1
f 44/47/24 43/46/24 42/45/24
f 42/45/24 45/48/24 44/47/24
f 44/47/1 45/48/1 46/49/1
f 46/49/1 47/50/1 44/47/1
f 48/51/27 47/50/28 46/49/25
f 46/49/25 49/52/25 48/51/27
f 50/53/29 48/51/29 49/52/29
f 49/52/29 51/54/29 50/53/29
f 52/55/30 50/53/31 51/54/32
f 51/54/32 53/56/32 52/55/30
f 54/57/1 52/55/1 53/56/1
f 53/56/1 55/58/1 54/57/1
f 56/59/33 54/57/34 55/58/35
f 55/58/35 57/60/35 56/59/33
f 58/61/29 56/59/29 57/60/29
f 57/60/29 59/62/29 58/61/29
f 58/61/36 59/62/36 60/63/36
f 60/63/37 61/64/38 58/61/39
f 62/65/1 61/64/1 60/63/1
f 60/63/1 63/66/1 62/65/1
f 62/65/40 17/17/40 19/18/40
f 19/18/40 61/64/40 62/65/40
f 17/17/32 62/65/32 14/14/32
f 61/64/38 19/18/41 58/61/39
f 56/59/42 58/61/42 19/18/42
f 18/19/43 54/57/34 56/59/33
f 19/18/42 18/19/42 56/59/42
f 23/25/40 52/55/40 54/57/40
f 54/57/40 18/19/40 23/25/40
f 52/55/30 23/25/44 50/53/31
f 48/51/42 50/53/42 23/25/42
f 24/24/45 47/50/28 48/51/27
f 23/25/42 24/24/42 48/51/42
f 43/46/40 44/47/40 47/50/40
f 47/50/40 24/24/40 43/46/40
f 37/40/1 43/46/1 34/34/1
f 34/34/1 43/46/1 24/24/1
f 64/67/26 39/41/26 40/43/26
f 40/43/26 65/68/26 64/67/26
f 64/67/26 65/68/26 66/69/26
f 64/67/26 66/69/26 67/70/26
f 64/67/26 67/70/26 68/71/26
f 69/72/26 64/67/26 68/71/26
f 68/71/26 70/73/26 69/72/26
f 69/72/26 70/73/26 71/74/26
f 69/72/26 71/74/26 72/75/26
f 73/76/26 72/75/26 74/77/26
f 72/75/26 73/76/26 69/72/26
f 75/78/26 73/76/26 74/77/26
f 74/77/26 76/79/26 75/78/26
f 73/76/26 75/78/26 77/80/26
f 31/32/10 34/34/10 22/22/10
f 24/24/1 22/22/1 34/34/1
f 14/14/32 15/15/32 17/17/32
f 14/14/1 78/81/1 12/13/1
