# Blender 4.4.1
# www.blender.org
o Snowy_Stone_1
v -0.007900 0.000201 -0.066815
v 0.063909 0.000201 -0.033787
v -0.000277 0.095523 -0.047197
v -0.042696 0.091469 -0.022291
v -0.070499 0.000201 -0.045221
v -0.041043 0.095523 0.023412
v -0.059700 0.000201 0.031950
v -0.000277 0.095523 0.046948
v 0.007663 0.000201 0.082129
v 0.040489 0.095523 0.023412
v 0.065180 0.000201 0.037667
v 0.040489 0.090418 -0.023660
v 0.032589 0.104621 0.023668
v 0.035919 0.095257 -0.021022
v -0.000277 0.103056 -0.041920
v 0.004745 0.095288 -0.001116
v 0.003452 0.100217 0.038113
v -0.035386 0.102625 0.019752
v -0.035629 0.099114 -0.020552
v 0.043677 0.095605 0.024815
v 0.034470 0.105609 0.025089
v 0.043590 0.090237 -0.025502
v 0.003752 0.101015 0.040531
v -0.000429 0.095763 0.050268
v 0.041648 0.088206 -0.024330
v 0.041648 0.093456 0.024081
v -0.000277 0.093456 0.048287
v -0.043905 0.095840 0.024912
v -0.042202 0.093456 0.024081
v -0.045975 0.091255 -0.023971
v -0.043902 0.089287 -0.022921
v -0.000277 0.093456 -0.048536
v -0.000253 0.095417 -0.050865
v -0.000228 0.103927 -0.044467
v 0.038355 0.095747 -0.022460
v 0.004898 0.096257 -0.001251
v -0.037393 0.103596 0.020776
v -0.037942 0.099756 -0.022006
vn 0.4482 0.1786 -0.8759
vn -0.3981 0.2751 -0.8751
vn -0.3982 0.2751 -0.8751
vn -0.3980 0.2751 -0.8751
vn -0.9680 0.2341 0.0904
vn -0.5500 0.2159 0.8068
vn 0.5433 0.2967 0.7853
vn 0.5433 0.2967 0.7854
vn 0.5434 0.2967 0.7853
vn 0.9679 0.2505 -0.0212
vn 0.4751 0.5921 -0.6510
vn 0.4751 0.5920 -0.6510
vn 0.7346 0.6738 -0.0796
vn 0.4751 0.5919 -0.6510
vn -0.1349 0.9677 -0.2128
vn 0.1112 0.9787 0.1726
vn -0.2103 0.9691 -0.1287
vn 0.1178 0.9858 -0.1200
vn 0.0033 0.9824 0.1866
vn 0.1353 0.9870 -0.0868
vn -0.7591 0.6497 -0.0404
vn -0.4704 0.5412 -0.6970
vn -0.2650 0.7926 0.5492
vn -0.2651 0.7926 0.5492
vn -0.2650 0.7927 0.5491
vn 0.3647 0.5687 0.7372
vn 0.3647 0.5689 0.7372
vn 0.3647 0.5689 0.7371
vn 0.3660 0.5745 0.7321
vn 0.3660 0.5747 0.7320
vn 0.7212 0.6882 -0.0791
vn 0.7270 -0.6828 0.0728
vn 0.3660 0.5747 0.7319
vn 0.4014 -0.5939 0.6972
vn 0.7269 -0.6828 0.0728
vn -0.4083 -0.5828 0.7026
vn -0.7544 -0.6503 0.0890
vn -0.7545 -0.6503 0.0890
vn -0.3078 -0.7077 -0.6360
vn -0.4631 0.5579 -0.6887
vn 0.2870 -0.7078 -0.6455
vn 0.4678 0.6067 -0.6428
vn 0.4678 0.6066 -0.6428
vn 0.4678 0.6065 -0.6428
vn -0.1189 0.9702 -0.2110
vn 0.1165 0.9802 0.1602
vn -0.0045 0.9845 0.1753
vn -0.2038 0.9721 -0.1163
vn 0.1244 0.9881 -0.0903
vn 0.1144 0.9874 -0.1093
vn -0.7473 0.6633 -0.0396
vn -0.2646 0.7968 0.5432
vn -0.2647 0.7968 0.5433
vn -0.2646 0.7969 0.5432
vn 0.2870 -0.7077 -0.6455
vt 0.065518 0.826484
vt 0.092166 0.813730
vt 0.088595 0.833328
vt 0.097999 0.837384
vt 0.112223 0.828593
vt 0.094499 0.846520
vt 0.111147 0.857896
vt 0.086449 0.852352
vt 0.082116 0.868943
vt 0.079979 0.844877
vt 0.060985 0.852619
vt 0.078781 0.834776
vt 0.080124 0.835862
vt 0.081909 0.844785
vt 0.088410 0.834814
vt 0.086659 0.841271
vt 0.086105 0.849830
vt 0.093262 0.845609
vt 0.095597 0.838108
vt 0.370740 0.782775
vt 0.371712 0.785639
vt 0.368234 0.792459
vt 0.382880 0.781712
vt 0.383110 0.781229
vt 0.365733 0.793550
vt 0.370411 0.782413
vt 0.365219 0.793521
vt 0.372429 0.803537
vt 0.372163 0.804008
vt 0.384269 0.803299
vt 0.384584 0.803681
vt 0.389696 0.791856
vt 0.390164 0.791840
vt 0.387246 0.792030
vt 0.382060 0.783400
vt 0.377789 0.791548
vt 0.383133 0.800790
vt 0.373540 0.801323
s 1
f 2/1/1 1/2/1 3/3/1
f 4/4/2 3/3/3 1/2/2
f 1/2/2 5/5/4 4/4/2
f 6/6/5 4/4/5 5/5/5
f 5/5/5 7/7/5 6/6/5
f 8/8/6 6/6/6 7/7/6
f 7/7/6 9/9/6 8/8/6
f 10/10/7 8/8/8 9/9/7
f 9/9/7 11/11/9 10/10/7
f 12/12/10 10/10/10 11/11/10
f 11/11/10 2/1/10 12/12/10
f 14/13/11 12/12/11 3/3/12
f 3/3/1 12/12/1 2/1/1
f 13/14/13 10/10/13 12/12/13
f 12/12/13 14/13/13 13/14/13
f 3/3/12 15/15/14 14/13/11
f 13/14/15 14/13/15 16/16/15
f 14/13/16 15/15/16 16/16/16
f 17/17/17 13/14/17 16/16/17
f 18/18/18 17/17/18 16/16/18
f 15/15/19 19/19/19 16/16/19
f 19/19/20 18/18/20 16/16/20
f 6/6/21 18/18/21 19/19/21
f 19/19/21 4/4/21 6/6/21
f 4/4/22 19/19/22 15/15/22
f 18/18/23 6/6/24 8/8/25
f 8/8/25 17/17/25 18/18/23
f 10/10/26 13/14/26 17/17/27
f 17/17/27 8/8/28 10/10/26
f 15/15/22 3/3/22 4/4/22
f 20/20/29 21/21/29 23/22/30
f 21/21/31 20/20/31 22/23/31
f 25/24/32 22/23/32 20/20/32
f 23/22/30 24/25/33 20/20/29
f 26/26/34 20/20/34 24/25/34
f 20/20/35 26/26/35 25/24/35
f 24/25/34 27/27/34 26/26/34
f 28/28/36 29/29/36 27/27/36
f 27/27/36 24/25/36 28/28/36
f 30/30/37 31/31/37 29/29/37
f 29/29/38 28/28/38 30/30/38
f 31/31/39 30/30/39 33/32/39
f 33/32/39 32/33/39 31/31/39
f 34/34/40 33/32/40 30/30/40
f 32/33/41 33/32/41 22/23/41
f 35/35/42 22/23/42 33/32/43
f 33/32/43 34/34/44 35/35/42
f 22/23/31 35/35/31 21/21/31
f 21/21/45 35/35/45 36/36/45
f 35/35/46 34/34/46 36/36/46
f 34/34/47 38/37/47 36/36/47
f 23/22/48 21/21/48 36/36/48
f 38/37/49 37/38/49 36/36/49
f 37/38/50 23/22/50 36/36/50
f 30/30/40 38/37/40 34/34/40
f 38/37/51 30/30/51 28/28/51
f 28/28/51 37/38/51 38/37/51
f 37/38/52 28/28/53 24/25/52
f 24/25/52 23/22/54 37/38/52
f 22/23/55 25/24/55 32/33/55
