# Blender 4.4.1
# www.blender.org
o Snowy_Stone_8
v -0.086032 0.000456 0.013785
v -0.064973 0.000456 -0.044171
v -0.019750 0.050777 -0.020221
v -0.024762 0.055758 0.006372
v -0.043181 0.000456 0.084268
v 0.017208 0.000456 0.093959
v 0.004025 0.055758 0.011547
v 0.009366 0.061893 -0.015034
v 0.024401 0.055758 -0.002933
v 0.041078 0.038692 -0.028026
v 0.060008 0.000456 0.057427
v 0.094831 0.000456 0.006986
v 0.007267 0.000456 -0.074978
v 0.002273 0.061834 -0.049066
v -0.021763 0.061834 -0.039915
vn -0.7224 0.6870 -0.0794
vn -0.7223 0.6870 -0.0795
vn -0.7231 0.6862 -0.0797
vn -0.6406 0.7381 0.2117
vn -0.6406 0.7381 0.2118
vn -0.6406 0.7381 0.2119
vn -0.0938 0.8209 0.5634
vn -0.0939 0.8209 0.5633
vn 0.3865 0.7884 0.4787
vn -0.1859 0.9825 -0.0149
vn -0.1858 0.9825 -0.0150
vn -0.1859 0.9824 -0.0149
vn -0.1860 0.9824 -0.0149
vn 0.3954 0.9182 -0.0258
vn 0.3953 0.9182 -0.0257
vn 0.3954 0.9181 -0.0259
vn 0.5829 0.7820 0.2208
vn 0.5830 0.7819 0.2207
vn 0.5828 0.7820 0.2208
vn 0.6342 0.3093 -0.7086
vn 0.6342 0.3091 -0.7087
vn 0.6342 0.3092 -0.7086
vn -0.1831 0.9566 0.2269
vn -0.1830 0.9566 0.2268
vn -0.3622 0.3272 -0.8728
vn -0.3622 0.3273 -0.8728
vn 0.5547 0.8238 -0.1170
vn -0.7224 0.6869 -0.0794
vn -0.1831 0.9565 0.2269
vt 0.858693 0.895809
vt 0.851993 0.880377
vt 0.870092 0.885729
vt 0.869344 0.880105
vt 0.862517 0.860801
vt 0.878250 0.857727
vt 0.875407 0.878360
vt 0.879806 0.881290
vt 0.876652 0.883669
vt 0.884313 0.886932
vt 0.890523 0.865816
vt 0.899673 0.879460
vt 0.879983 0.903777
vt 0.876075 0.889741
vt 0.871821 0.889753
s 1
f 2/1/1 1/2/2 3/3/3
f 4/4/4 3/3/5 1/2/5
f 1/2/5 5/5/6 4/4/4
f 5/5/7 6/6/8 7/7/8
f 7/7/8 4/4/8 5/5/7
f 9/8/9 7/7/9 6/6/9
f 3/3/10 4/4/11 7/7/12
f 7/7/12 8/9/13 3/3/10
f 8/9/14 7/7/15 9/8/14
f 9/8/14 10/10/16 8/9/14
f 10/10/17 9/8/18 11/11/17
f 6/6/9 11/11/9 9/8/9
f 11/11/17 12/12/19 10/10/17
f 12/12/20 13/13/20 14/14/21
f 14/14/21 10/10/22 12/12/20
f 8/9/23 14/14/24 15/15/23
f 15/15/25 14/14/25 13/13/26
f 10/10/27 14/14/27 8/9/27
f 13/13/26 2/1/25 15/15/25
f 3/3/3 15/15/28 2/1/1
f 15/15/23 3/3/29 8/9/23
