# Blender 4.4.1
# www.blender.org
o Snowy_Stone_9
v 0.052682 0.287331 -0.056147
v 0.052682 0.287331 0.014616
v -0.051965 0.287331 -0.056147
v -0.059303 0.270995 -0.063485
v 0.060020 0.271047 -0.063485
v 0.060020 0.215617 -0.063485
v 0.060020 0.215617 0.055839
v 0.060020 0.271208 0.026241
v 0.030422 0.271208 0.055839
v 0.018797 0.287331 0.048501
v -0.051965 0.287331 0.048501
v -0.059303 0.271047 0.055839
v -0.059303 0.215617 0.055839
v -0.059303 0.215617 -0.063485
v 0.060020 0.143902 -0.063485
v -0.059303 0.143902 -0.063485
v -0.059303 0.020154 -0.063485
v 0.060020 0.020164 -0.063485
v -0.059303 0.143902 0.055839
v -0.059303 0.020123 0.029271
v -0.032736 0.020123 0.055839
v 0.060020 0.143902 0.055839
v 0.060020 0.020154 0.055839
v 0.051727 0.000473 -0.055192
v 0.051727 0.000473 0.047546
v -0.025083 0.000473 0.047546
v -0.051010 0.000473 0.021618
v -0.051010 0.000473 -0.055192
vn 0.9109 0.4125 -0.0004
vn 0.9110 0.4125 -0.0004
vn 0.9110 0.4124 -0.0004
vn -0.0000 1.0000 -0.0000
vn -0.0001 0.4102 -0.9120
vn -0.0001 0.4103 -0.9120
vn -0.0002 0.4107 -0.9118
vn -0.0001 0.4105 -0.9119
vn -0.0000 -0.0000 -1.0000
vn 1.0000 -0.0000 -0.0000
vn 0.6618 0.3523 0.6618
vn 0.5437 0.6394 0.5437
vn -0.0004 0.4125 0.9110
vn -0.0004 0.4125 0.9109
vn -0.9120 0.4103 -0.0001
vn -0.9118 0.4106 -0.0001
vn -0.9119 0.4103 -0.0001
vn -0.0000 -0.0000 1.0000
vn -1.0000 -0.0000 -0.0000
vn -0.6991 -0.1501 0.6991
vn 0.9216 -0.3882 -0.0000
vn 0.9215 -0.3883 -0.0000
vn 0.0001 -0.3884 0.9215
vn -0.0000 -0.3888 0.9213
vn -0.6133 -0.4977 0.6133
vn -0.9214 -0.3887 -0.0001
vn -0.9213 -0.3887 -0.0001
vn -0.0000 -0.3881 -0.9216
vn -0.0000 -0.3883 -0.9215
vt 0.714201 0.778005
vt 0.706399 0.776036
vt 0.715479 0.762617
vt 0.697274 0.758564
vt 0.693894 0.757654
vt 0.699359 0.776784
vt 0.719738 0.760916
vt 0.679193 0.771024
vt 0.727252 0.748989
vt 0.736944 0.773442
vt 0.717935 0.755113
vt 0.714659 0.757007
vt 0.706347 0.749619
vt 0.705977 0.746248
vt 0.706525 0.738141
vt 0.686111 0.749221
vt 0.660646 0.753926
vt 0.679868 0.735040
vt 0.647327 0.719075
vt 0.676942 0.708197
vt 0.707276 0.726809
vt 0.733553 0.736350
vt 0.702410 0.701724
vt 0.713552 0.702123
vt 0.753965 0.754734
vt 0.738929 0.709642
vt 0.764712 0.719729
vt 0.763623 0.713488
vt 0.739599 0.704715
vt 0.715410 0.697534
vt 0.700958 0.697278
vt 0.676272 0.703224
vt 0.648855 0.712899
s 1
f 5/1/1 1/2/2 2/3/3
f 2/3/4 1/2/4 3/4/4
f 4/5/5 3/4/6 1/2/7
f 1/2/7 5/6/8 4/5/5
f 2/3/3 8/7/2 5/1/1
f 4/5/9 5/6/9 6/8/9
f 7/9/10 6/10/10 5/1/10
f 5/1/10 8/7/10 7/9/10
f 8/7/11 9/11/11 7/9/11
f 10/12/12 9/11/12 8/7/12
f 8/7/12 2/3/12 10/12/12
f 10/12/4 3/4/4 11/13/4
f 3/4/4 10/12/4 2/3/4
f 9/11/13 10/12/14 11/13/14
f 11/13/14 12/14/13 9/11/13
f 12/14/15 11/13/16 3/4/17
f 9/11/18 12/14/18 13/15/18
f 3/4/17 4/5/16 12/14/15
f 14/16/19 13/15/19 12/14/19
f 12/14/19 4/5/19 14/16/19
f 6/8/9 14/16/9 4/5/9
f 14/16/9 6/8/9 15/17/9
f 15/17/9 16/18/9 14/16/9
f 13/15/19 14/16/19 16/18/19
f 18/19/9 17/20/9 16/18/9
f 19/21/19 16/18/19 17/20/19
f 16/18/9 15/17/9 18/19/9
f 16/18/19 19/21/19 13/15/19
f 7/9/18 13/15/18 19/21/18
f 19/21/18 22/22/18 7/9/18
f 17/20/19 20/23/19 19/21/19
f 20/23/20 21/24/20 19/21/20
f 22/22/18 19/21/18 21/24/18
f 6/10/10 7/9/10 22/22/10
f 15/25/10 22/22/10 23/26/10
f 21/24/18 23/26/18 22/22/18
f 22/22/10 15/25/10 6/10/10
f 23/26/10 18/27/10 15/25/10
f 24/28/21 18/27/21 23/26/21
f 23/26/22 25/29/22 24/28/22
f 25/29/23 23/26/23 21/24/23
f 21/24/24 26/30/24 25/29/24
f 26/30/25 21/24/25 20/23/25
f 20/23/25 27/31/25 26/30/25
f 17/20/26 28/32/26 27/31/26
f 27/31/27 20/23/27 17/20/27
f 18/19/28 24/33/28 28/32/28
f 28/32/29 17/20/29 18/19/29
f 13/15/18 7/9/18 9/11/18
