# Blender 4.4.1
# www.blender.org
o Snowy_Stone_7
v 0.000978 0.029689 -0.066809
v 0.063644 0.029689 -0.030629
v 0.018609 0.068521 -0.008389
v -0.055128 0.029689 -0.043339
v -0.063237 0.000651 -0.050005
v 0.001360 0.000651 -0.077027
v 0.073512 0.000651 -0.035371
v 0.061238 0.000651 0.041333
v 0.052984 0.029689 0.035991
v -0.002302 0.029689 0.066841
v -0.069479 0.029689 0.042142
v -0.002416 0.000651 0.076852
v -0.079760 0.000651 0.048414
vn 0.4774 0.2972 -0.8269
vn 0.3404 0.7325 -0.5896
vn -0.2080 0.8424 -0.4972
vn -0.3676 0.3044 -0.8788
vn 0.4774 0.2973 -0.8269
vn 0.9432 0.2959 0.1509
vn 0.2793 0.8194 0.5006
vn 0.6794 0.7257 0.1087
vn 0.4668 0.2866 0.8366
vn -0.1541 0.8948 0.4190
vn -0.3282 0.3090 0.8926
vn -0.9411 0.2991 -0.1580
vn -0.4372 0.8963 -0.0734
vt 0.169574 0.884093
vt 0.172422 0.890865
vt 0.161559 0.903793
vt 0.174187 0.905180
vt 0.186364 0.891441
vt 0.190423 0.885746
vt 0.155021 0.903104
vt 0.169117 0.917639
vt 0.164808 0.923514
vt 0.183590 0.920168
vt 0.195642 0.909029
vt 0.186073 0.926615
vt 0.202402 0.910110
s 1
f 6/1/1 1/2/1 2/3/1
f 1/2/2 3/4/2 2/3/2
f 4/5/3 3/4/3 1/2/3
f 5/6/4 4/5/4 1/2/4
f 1/2/4 6/1/4 5/6/4
f 2/3/5 7/7/5 6/1/5
f 9/8/6 8/9/6 7/7/6
f 7/7/6 2/3/6 9/8/6
f 9/8/7 3/4/7 10/10/7
f 2/3/8 3/4/8 9/8/8
f 8/9/9 9/8/9 10/10/9
f 10/10/10 3/4/10 11/11/10
f 12/12/11 10/10/11 11/11/11
f 10/10/9 12/12/9 8/9/9
f 11/11/11 13/13/11 12/12/11
f 13/13/12 11/11/12 4/5/12
f 4/5/12 5/6/12 13/13/12
f 11/11/13 3/4/13 4/5/13
