# Blender 4.4.1
# www.blender.org
o Snowy_Stone_6
v -0.060865 0.150366 0.058723
v -0.060865 0.150366 -0.055531
v -0.060865 0.192585 0.058723
v -0.043479 0.187147 0.058723
v 0.063755 0.186942 0.058723
v -0.060865 0.105012 0.058723
v -0.060865 0.105012 -0.055531
v 0.063755 0.105012 -0.055531
v -0.060616 0.104617 0.058495
v -0.060616 0.104617 -0.055303
v -0.059282 0.104566 0.057272
v -0.059282 0.104566 -0.054080
v 0.063505 0.104617 -0.055303
v 0.062172 0.104566 -0.054080
v 0.063505 0.104617 0.058495
v 0.063755 0.105012 0.058723
v 0.063755 0.150366 -0.055531
v 0.065593 0.192186 -0.040326
v -0.077797 0.216127 -0.067005
v 0.070313 0.196106 -0.061199
v 0.062172 0.104566 0.057272
v 0.062172 0.093993 -0.054080
v 0.062172 0.093993 0.057272
v 0.063505 0.093941 0.058495
v 0.063505 0.093941 -0.055303
v -0.059282 0.093993 0.057272
v -0.060616 0.093941 0.058495
v -0.059282 0.093993 -0.054080
v -0.060616 0.093941 -0.055303
v -0.060865 0.093546 -0.055531
v -0.060865 0.093546 0.058723
v -0.060865 0.000046 0.058723
v 0.063755 0.093546 0.058723
v -0.060865 0.000046 -0.055531
v 0.063755 0.000046 -0.055531
v 0.063755 0.093546 -0.055531
v 0.063755 0.000046 0.058723
vn -1.0000 -0.0000 -0.0000
vn -0.9873 -0.1490 0.0551
vn -0.9873 -0.1489 0.0551
vn -0.0000 -0.0000 1.0000
vn -0.0000 -0.5009 -0.8655
vn -0.0000 -0.0000 -1.0000
vn -0.8456 -0.5338 -0.0000
vn -0.8457 -0.5336 -0.0000
vn -0.8457 -0.5337 -0.0000
vn -0.0385 -0.9993 -0.0000
vn -0.0382 -0.9993 -0.0000
vn -0.0000 -0.9991 -0.0417
vn -0.0000 -0.9991 -0.0421
vn 0.0382 -0.9993 -0.0000
vn 0.8458 -0.5335 -0.0000
vn 1.0000 -0.0000 -0.0000
vn -0.0000 -0.5010 0.8655
vn -0.0000 -0.5009 0.8655
vn -0.0000 -0.5007 0.8656
vn 0.9968 -0.0619 0.0498
vn 0.9968 -0.0619 0.0499
vn 0.0100 -0.1510 -0.9885
vn 0.1312 0.9763 0.1721
vn 0.1310 0.9763 0.1720
vn 0.1310 0.9764 0.1719
vn -0.9873 -0.1491 0.0551
vn 0.0019 0.9986 0.0529
vn 0.2793 0.8930 0.3530
vn -0.0000 -0.9991 0.0417
vn -0.0000 0.9991 0.0421
vn -0.0000 0.9991 0.0425
vn 0.0390 0.9992 -0.0000
vn -0.0384 0.9993 -0.0000
vn -0.0386 0.9993 -0.0000
vn -0.0390 0.9992 -0.0000
vn -0.0385 0.9993 -0.0000
vn -0.0000 0.9991 -0.0425
vn -0.0000 0.9991 -0.0422
vn -0.0000 0.5007 -0.8656
vn -0.0000 0.5010 -0.8655
vn -0.0000 0.9991 -0.0420
vn -0.8457 0.5337 -0.0000
vn -0.8456 0.5338 -0.0000
vn -0.8457 0.5336 -0.0000
vn -0.0000 0.5007 0.8656
vn 0.8458 0.5335 -0.0000
vn -0.0000 0.5009 -0.8655
vn -0.0000 0.5009 0.8655
vt 0.258366 0.752269
vt 0.238088 0.743278
vt 0.241980 0.734067
vt 0.251777 0.756025
vt 0.251754 0.758044
vt 0.252878 0.772331
vt 0.264659 0.747094
vt 0.241931 0.734008
vt 0.215868 0.739867
vt 0.264723 0.747065
vt 0.264836 0.747009
vt 0.241943 0.733864
vt 0.215920 0.739690
vt 0.216196 0.739183
vt 0.261386 0.796672
vt 0.260818 0.796962
vt 0.269356 0.773774
vt 0.269274 0.773749
vt 0.260664 0.797071
vt 0.241975 0.795293
vt 0.231750 0.780793
vt 0.224392 0.777503
vt 0.218235 0.757327
vt 0.238781 0.753677
vt 0.269563 0.773698
vt 0.272034 0.773179
vt 0.265223 0.797056
vt 0.272366 0.773220
vt 0.266491 0.745672
vt 0.265600 0.797259
vt 0.266751 0.745461
vt 0.242931 0.731803
vt 0.242998 0.731491
vt 0.216376 0.735390
vt 0.242953 0.731398
vt 0.216170 0.735008
vt 0.266848 0.745406
vt 0.272475 0.773263
vt 0.283834 0.732999
vt 0.255140 0.711749
vt 0.222002 0.707292
vt 0.294183 0.767346
vt 0.292552 0.795604
vt 0.265715 0.797241
vt 0.216176 0.734873
s 1
f 1/1/1 2/2/1 7/3/1
f 2/2/2 1/1/3 3/4/2
f 4/5/4 3/4/4 1/1/4
f 1/1/4 5/6/4 4/5/4
f 5/6/4 1/1/4 6/7/4
f 7/3/1 6/7/1 1/1/1
f 10/8/5 7/3/5 8/9/5
f 8/9/6 7/3/6 2/2/6
f 7/3/7 10/8/8 9/10/9
f 9/10/9 6/7/9 7/3/7
f 11/11/10 9/10/11 10/8/11
f 10/8/11 12/12/11 11/11/10
f 12/12/12 10/8/12 13/13/13
f 8/9/5 13/13/5 10/8/5
f 13/13/13 14/14/12 12/12/12
f 14/15/14 13/16/14 15/17/14
f 16/18/15 15/17/15 13/16/15
f 13/16/15 8/19/15 16/18/15
f 17/20/16 5/6/16 16/18/16
f 16/18/16 8/19/16 17/20/16
f 15/17/17 16/18/18 6/7/19
f 6/7/4 16/18/4 5/6/4
f 17/20/20 18/21/20 5/6/20
f 17/20/20 20/22/21 18/21/20
f 2/2/6 17/23/6 8/9/6
f 19/24/22 20/22/22 17/23/22
f 17/23/22 2/2/22 19/24/22
f 18/21/23 20/22/24 19/24/25
f 19/24/25 3/4/24 18/21/23
f 3/4/2 19/24/26 2/2/2
f 18/21/27 4/5/27 5/6/27
f 18/21/28 3/4/28 4/5/28
f 21/25/29 15/17/29 9/10/29
f 15/17/14 21/25/14 14/15/14
f 6/7/19 9/10/18 15/17/17
f 21/25/16 23/26/16 22/27/16
f 22/27/16 14/15/16 21/25/16
f 23/26/4 21/25/4 11/11/4
f 9/10/29 11/11/29 21/25/29
f 24/28/30 23/26/31 26/29/30
f 23/26/32 24/28/32 25/30/32
f 25/30/32 22/27/32 23/26/32
f 11/11/4 26/29/4 23/26/4
f 26/29/30 27/31/31 24/28/30
f 27/31/33 26/29/34 28/32/35
f 12/12/1 28/32/1 26/29/1
f 26/29/1 11/11/1 12/12/1
f 28/32/35 29/33/36 27/31/33
f 29/33/37 28/32/37 22/34/38
f 14/14/6 22/34/6 28/32/6
f 28/32/6 12/12/6 14/14/6
f 30/35/39 29/33/39 25/36/40
f 22/34/38 25/36/41 29/33/37
f 29/33/42 30/35/42 31/37/43
f 31/37/43 27/31/44 29/33/42
f 33/38/4 31/37/4 32/39/4
f 34/40/1 32/39/1 31/37/1
f 27/31/45 31/37/45 33/38/45
f 31/37/1 30/35/1 34/40/1
f 35/41/6 34/40/6 30/35/6
f 37/42/16 35/43/16 36/44/16
f 30/35/6 36/45/6 35/41/6
f 36/44/16 33/38/16 37/42/16
f 32/39/4 37/42/4 33/38/4
f 24/28/46 33/38/46 36/44/46
f 36/44/46 25/30/46 24/28/46
f 25/36/40 36/45/47 30/35/39
f 33/38/45 24/28/48 27/31/45
