# Blender 4.4.1
# www.blender.org
o Snowy_Stone_2
v -0.054828 -0.000404 -0.039074
v -0.002398 -0.007016 -0.048457
v -0.047244 0.064156 -0.041297
v -0.052441 0.066480 -0.015497
v -0.050519 -0.002189 -0.019329
v -0.040913 0.000282 0.045339
v -0.000308 0.024998 0.075359
v 0.002691 0.058115 0.056922
v -0.036945 0.050831 0.046510
v -0.000308 -0.005732 0.053832
v 0.048309 0.050261 0.036497
v 0.040297 0.000282 0.045339
v 0.057419 0.089042 -0.028909
v 0.049904 -0.002189 -0.019329
v 0.044144 0.003156 -0.039174
v 0.043440 0.071632 -0.062499
v -0.000308 0.072258 -0.046235
vn -0.1428 0.0096 -0.9897
vn -0.9989 0.0427 -0.0200
vn -0.9989 0.0427 -0.0199
vn -0.9989 0.0427 -0.0198
vn -0.9807 0.0087 0.1953
vn -0.2483 -0.5558 0.7934
vn -0.5064 0.2145 0.8352
vn -0.5064 0.2146 0.8351
vn 0.5101 -0.1828 0.8405
vn 0.5101 -0.1828 0.8404
vn 0.9888 -0.0935 0.1162
vn 0.9888 -0.0936 0.1162
vn 0.9888 -0.0936 0.1161
vn 0.9403 -0.1067 -0.3232
vn -0.1393 0.9017 -0.4094
vn -0.0616 -0.1406 -0.9882
vn -0.0615 -0.1405 -0.9882
vn -0.2085 0.9627 -0.1727
vn -0.2085 0.9626 -0.1727
vn -0.2085 0.9627 -0.1726
vn -0.0614 -0.1405 -0.9882
vn 0.3633 0.7783 0.5121
vn -0.1847 0.9503 0.2505
vn -0.1847 0.9504 0.2504
vn -0.1847 0.9503 0.2504
vn 0.4306 0.4089 0.8046
vt 0.863868 0.460657
vt 0.845481 0.448554
vt 0.855288 0.443949
vt 0.854274 0.438236
vt 0.840930 0.440865
vt 0.851662 0.416036
vt 0.869718 0.410108
vt 0.869056 0.415769
vt 0.868092 0.422691
vt 0.857972 0.423388
vt 0.879501 0.428285
vt 0.885828 0.419970
vt 0.875228 0.439384
vt 0.890107 0.448717
vt 0.882862 0.453175
vt 0.873054 0.444666
vt 0.865265 0.445374
s 1
f 2/1/1 1/2/1 3/3/1
f 4/4/2 3/3/2 1/2/3
f 1/2/3 5/5/4 4/4/2
f 4/4/5 5/5/5 6/6/5
f 10/7/6 7/8/6 6/6/6
f 6/6/7 7/8/8 8/9/7
f 8/9/7 9/10/7 6/6/7
f 6/6/5 9/10/5 4/4/5
f 11/11/9 7/8/10 10/7/9
f 10/7/9 12/12/9 11/11/9
f 13/13/11 11/11/12 12/12/13
f 12/12/13 14/14/11 13/13/11
f 14/14/14 15/15/14 16/16/14
f 16/16/14 13/13/14 14/14/14
f 16/16/15 17/17/15 13/13/15
f 17/17/16 16/16/16 15/15/17
f 13/13/18 17/17/19 3/3/20
f 3/3/1 17/17/1 2/1/1
f 15/15/17 2/1/21 17/17/16
f 13/13/22 8/9/22 11/11/22
f 8/9/23 13/13/24 4/4/25
f 3/3/20 4/4/18 13/13/18
f 11/11/26 8/9/26 7/8/26
f 4/4/25 9/10/24 8/9/23
