# Blender 4.4.1
# www.blender.org
o Snowy_Stone_5
v -0.143366 0.016928 0.054381
v -0.141831 0.005339 -0.055166
v -0.144961 0.020506 -0.054893
v -0.140158 0.001351 0.054810
v -0.149995 0.044408 -0.053641
v -0.148892 0.042657 0.053257
v -0.001639 -0.002620 0.062126
v 0.001095 0.048599 0.073269
v -0.147696 0.084382 0.052020
v 0.002177 0.100804 0.078252
v -0.151638 0.066487 0.052227
v 0.098252 0.050712 0.071750
v 0.096101 0.102309 0.073225
v 0.006365 0.114193 -0.065392
v 0.090459 0.106974 -0.048421
v 0.133521 0.071000 0.050346
v 0.113737 0.091559 0.070300
v 0.122626 0.079489 -0.049593
v 0.135049 0.001667 0.066302
v 0.124643 0.001567 -0.065210
v 0.105509 0.002001 0.064927
v 0.091448 0.054600 -0.054767
v 0.092392 0.002132 -0.063856
v -0.005136 -0.000370 -0.074609
v -0.000335 0.054424 -0.064073
v -0.148084 0.083339 -0.052166
v -0.152183 0.066319 -0.052547
v -0.141765 0.098346 -0.052236
v -0.141764 0.098349 -0.052236
v -0.141143 0.099396 0.052500
v -0.137616 0.109920 0.052812
vn -0.9793 -0.2022 0.0077
vn -0.9795 -0.2015 0.0076
vn -0.9792 -0.2026 0.0089
vn -0.9782 -0.2074 0.0065
vn -0.9781 -0.2080 0.0072
vn -0.0523 0.0168 0.9985
vn -0.9781 -0.2081 0.0071
vn -0.1000 -0.1321 0.9862
vn -0.0998 -0.1319 0.9862
vn -0.1000 -0.1320 0.9862
vn -0.1332 0.0278 0.9907
vn -0.1318 0.0397 0.9905
vn -0.1317 0.0405 0.9905
vn -0.1656 -0.0611 0.9843
vn -0.1656 -0.0612 0.9843
vn 0.0353 -0.0616 0.9975
vn 0.0353 -0.0617 0.9975
vn -0.1333 0.0275 0.9907
vn -0.0003 -0.1770 0.9842
vn 0.0275 0.9973 0.0678
vn 0.0275 0.9973 0.0677
vn 0.6496 0.7603 -0.0010
vn 0.6300 0.7759 -0.0314
vn 0.6300 0.7760 -0.0315
vn 0.6300 0.7759 -0.0315
vn 0.1349 -0.0160 0.9907
vn 0.9956 0.0238 -0.0908
vn 0.7775 0.1573 0.6089
vn -0.0477 -0.1455 0.9882
vn 0.0304 0.1668 -0.9855
vn 0.0304 0.1669 -0.9855
vn -0.0383 0.1699 -0.9847
vn 0.1013 0.1756 -0.9792
vn -0.0846 -0.0039 -0.9964
vn -0.0846 -0.0038 -0.9964
vn -0.0725 0.0398 -0.9966
vn -0.0724 0.0413 -0.9965
vn -0.0724 0.0411 -0.9965
vn -0.0723 0.0425 -0.9965
vn -0.0970 0.1472 -0.9843
vn 0.1491 0.0367 -0.9881
vn -0.9482 0.3177 0.0025
vn -0.9482 0.3177 0.0024
vn -0.0901 0.0127 -0.9959
vn -0.9191 0.3941 0.0005
vn -0.9191 0.3940 0.0005
vn -0.1771 0.0302 0.9837
vn 0.0477 0.9944 0.0941
vn -0.1149 0.9879 -0.1043
vn -0.9745 0.2245 0.0030
vn -0.9942 -0.1073 0.0070
vn -0.0970 0.1471 -0.9843
vn -0.1413 -0.0113 -0.9899
vt 0.691579 0.231157
vt 0.716163 0.199752
vt 0.716627 0.203006
vt 0.694687 0.231124
vt 0.699709 0.231019
vt 0.759352 0.206138
vt 0.717372 0.208266
vt 0.754404 0.217061
vt 0.718759 0.212570
vt 0.720922 0.215668
vt 0.750215 0.228142
vt 0.763156 0.242205
vt 0.772384 0.237600
vt 0.730403 0.256198
vt 0.745540 0.261789
vt 0.750747 0.267572
vt 0.745540 0.261790
vt 0.768509 0.250157
vt 0.766343 0.243768
vt 0.783460 0.248522
vt 0.755865 0.284584
vt 0.782121 0.236081
vt 0.743351 0.273593
vt 0.742124 0.285150
vt 0.709852 0.271594
vt 0.719635 0.264278
vt 0.707311 0.232218
vt 0.710353 0.233320
vt 0.703949 0.231450
vt 0.710354 0.233320
vt 0.723232 0.218238
vt 0.724307 0.220235
s 1
f 2/1/1 4/2/2 1/3/3
f 1/3/3 3/4/4 2/1/1
f 5/5/5 3/4/4 1/3/3
f 4/2/6 7/6/6 1/3/6
f 1/3/3 6/7/7 5/5/5
f 8/8/8 6/7/9 1/3/10
f 1/3/10 7/6/8 8/8/8
f 11/9/11 8/8/12 9/10/13
f 9/10/14 8/8/15 10/11/15
f 13/12/16 10/11/17 8/8/17
f 6/7/18 8/8/12 11/9/11
f 8/8/17 12/13/17 13/12/16
f 12/13/19 8/8/19 7/6/19
f 14/14/20 10/11/20 13/12/21
f 13/12/21 15/15/21 14/14/20
f 13/12/22 18/16/22 15/17/22
f 16/18/23 18/16/23 13/12/24
f 13/12/24 17/19/25 16/18/23
f 19/20/26 17/19/26 13/12/26
f 13/12/26 12/13/26 19/20/26
f 18/16/27 16/18/27 19/20/27
f 19/20/27 20/21/27 18/16/27
f 19/20/28 16/18/28 17/19/28
f 19/20/29 12/13/29 21/22/29
f 7/6/19 21/22/19 12/13/19
f 18/16/30 20/21/30 22/23/31
f 22/23/32 20/21/32 23/24/32
f 23/24/33 24/25/33 25/26/33
f 25/26/33 22/23/33 23/24/33
f 25/26/34 26/27/35 28/28/35
f 26/27/36 25/26/37 27/29/38
f 27/29/38 25/26/37 5/5/39
f 5/5/40 25/26/40 24/25/40
f 22/23/41 25/26/41 14/14/41
f 28/28/35 14/14/35 25/26/34
f 29/30/42 28/28/42 30/31/43
f 29/30/44 14/14/44 28/28/44
f 28/28/45 26/27/46 9/10/46
f 9/10/46 30/31/45 28/28/45
f 30/31/43 31/32/43 29/30/42
f 30/31/47 10/11/47 31/32/47
f 10/11/15 30/31/14 9/10/14
f 31/32/48 10/11/48 14/14/48
f 31/32/49 14/14/49 29/30/49
f 27/29/50 11/9/50 9/10/50
f 9/10/50 26/27/50 27/29/50
f 11/9/51 27/29/51 5/5/51
f 24/25/40 3/4/52 5/5/40
f 3/4/53 24/25/53 2/1/53
f 14/14/41 15/17/41 22/23/41
f 22/23/31 15/17/31 18/16/30
f 5/5/51 6/7/51 11/9/51
