# Blender 4.4.1
# www.blender.org
o Snowy_Stone_4
v 0.047971 0.027940 -0.166870
v 0.177617 0.019919 -0.079770
v 0.041790 0.069297 -0.138741
v -0.083065 0.094081 -0.119637
v -0.082807 0.031659 -0.151275
v 0.057074 0.000015 -0.170798
v 0.183277 0.000015 -0.083720
v 0.133239 0.000015 0.032914
v 0.085774 0.000015 0.136674
v 0.130692 0.020899 0.034006
v 0.169631 0.056439 -0.083251
v 0.080806 0.019392 0.132317
v 0.131746 0.069151 0.034284
v 0.084766 0.047781 0.135522
v -0.025785 0.050926 0.122772
v 0.005560 0.077897 0.007053
v -0.154027 0.067730 0.101742
v -0.147730 0.106278 -0.027184
v -0.157661 0.052970 -0.019071
v -0.155340 0.035666 0.112996
v -0.157015 0.000015 -0.017313
v -0.079439 0.000015 -0.157262
v -0.157825 0.000015 0.113463
v -0.020657 0.000015 0.126450
v -0.025781 0.012097 0.124699
v 0.049435 0.034532 -0.173783
v 0.184264 0.026190 -0.083202
v 0.043005 0.077543 -0.144530
v -0.086840 0.103318 -0.124663
v -0.086572 0.038400 -0.157565
v 0.058899 0.013169 -0.177628
v 0.190148 0.013169 -0.087069
v 0.182627 0.012751 -0.076039
v 0.177149 0.023949 -0.072121
v 0.175958 0.064171 -0.086821
v 0.171317 0.053482 -0.080293
v 0.136042 0.063455 0.033539
v 0.136559 0.076669 0.035413
v 0.005329 0.085765 0.007093
v -0.027270 0.057716 0.127439
v 0.087700 0.054445 0.140698
v 0.087545 0.041420 0.137740
v -0.028059 0.044803 0.124118
v -0.151174 0.066063 0.103229
v -0.160639 0.075192 0.105568
v -0.162004 0.041845 0.117272
v -0.164421 0.059841 -0.020076
v -0.154092 0.115281 -0.028513
v -0.163749 0.013169 -0.018007
v -0.083069 0.013169 -0.163551
v -0.164589 0.013169 0.117998
v -0.148673 0.041064 0.117149
v -0.151235 0.013008 0.117910
vn 0.5437 0.2971 -0.7849
vn 0.4762 0.3428 -0.8098
vn 0.4762 0.3430 -0.8097
vn -0.0624 0.4952 -0.8666
vn -0.0624 0.4952 -0.8665
vn -0.1053 0.1418 -0.9843
vn 0.9133 0.1363 0.3838
vn 0.8822 0.1993 0.4265
vn 0.8823 0.1992 0.4265
vn 0.9368 0.0894 0.3382
vn 0.9368 0.0893 0.3382
vn 0.9368 0.0895 0.3382
vn 0.8822 0.1994 0.4265
vn 0.9003 -0.0784 0.4281
vn 0.1014 0.9935 -0.0519
vn 0.9003 -0.0785 0.4281
vn 0.0118 0.9751 0.2216
vn 0.0116 0.9751 0.2214
vn 0.1003 0.9571 0.2718
vn 0.1004 0.9571 0.2719
vn 0.1882 0.9821 -0.0060
vn 0.1881 0.9821 -0.0061
vn 0.1882 0.9821 -0.0058
vn -0.9909 0.1336 0.0135
vn -0.8238 0.1782 -0.5382
vn -0.9998 0.0209 0.0071
vn -0.8729 -0.0170 -0.4876
vn -0.0885 0.0413 0.9952
vn -0.0931 -0.0134 0.9956
vn -0.0931 -0.0135 0.9956
vn -0.0879 0.1626 0.9828
vn -0.0955 0.1838 0.9783
vn -0.0955 0.1836 0.9784
vn -0.0955 0.1837 0.9783
vn 0.4762 0.3428 -0.8097
vn 0.5238 0.4023 -0.7509
vn -0.0624 0.4951 -0.8666
vn -0.1042 0.1775 -0.9786
vn 0.8060 0.1989 0.5575
vn 0.8062 0.1988 0.5572
vn 0.8058 0.1991 0.5577
vn 0.7022 0.2626 0.6617
vn 0.7022 0.2626 0.6618
vn 0.7023 0.2626 0.6616
vn 0.9398 -0.1423 0.3108
vn 0.0999 0.9939 -0.0471
vn 0.0117 0.9751 0.2215
vn 0.9102 -0.0975 0.4024
vn -0.1192 -0.2295 0.9660
vn -0.2024 -0.3177 0.9263
vn -0.2024 -0.3175 0.9264
vn -0.2024 -0.3176 0.9264
vn 0.2656 0.3920 0.8808
vn 0.1878 0.9822 -0.0004
vn 0.1878 0.9822 -0.0005
vn -0.8243 0.1781 -0.5374
vn -0.8243 0.1780 -0.5374
vn -0.8243 0.1782 -0.5374
vn -0.8730 -0.0241 -0.4871
vn -0.9996 0.0256 0.0074
vn 0.0088 0.0254 0.9996
vn 0.0089 0.0254 0.9996
vn 0.2654 0.3921 0.8808
vn 0.2654 0.3920 0.8808
vt 0.739771 0.693039
vt 0.776463 0.678847
vt 0.780020 0.682068
vt 0.739721 0.681597
vt 0.715840 0.669032
vt 0.707923 0.681756
vt 0.741999 0.699335
vt 0.785120 0.646192
vt 0.780427 0.646405
vt 0.770667 0.616501
vt 0.769707 0.674868
vt 0.769625 0.648265
vt 0.767267 0.619785
vt 0.741941 0.647166
vt 0.763876 0.624468
vt 0.739579 0.618784
vt 0.708949 0.648308
vt 0.711511 0.622983
vt 0.697621 0.646210
vt 0.708094 0.616855
vt 0.686047 0.645306
vt 0.704018 0.687776
vt 0.703639 0.610937
vt 0.740303 0.609991
vt 0.741917 0.607339
vt 0.699068 0.420170
vt 0.735496 0.434707
vt 0.734936 0.437963
vt 0.706566 0.411101
vt 0.694331 0.386730
vt 0.680230 0.393035
vt 0.697481 0.425132
vt 0.737816 0.437246
vt 0.738538 0.434380
vt 0.734861 0.426104
vt 0.737359 0.426972
vt 0.752175 0.401479
vt 0.754655 0.403002
vt 0.729252 0.383187
vt 0.742806 0.357469
vt 0.761225 0.376448
vt 0.763998 0.375865
vt 0.744558 0.355075
vt 0.714829 0.341349
vt 0.717286 0.340461
vt 0.699802 0.364884
vt 0.712126 0.333982
vt 0.690566 0.357531
vt 0.674984 0.395435
vt 0.681836 0.352436
vt 0.708249 0.328978
vt 0.711091 0.327531
vt 0.714886 0.332966
s 1
f 1/1/1 2/2/1 7/3/1
f 2/2/2 1/1/3 3/4/3
f 4/5/4 3/4/5 1/1/5
f 1/1/5 5/6/4 4/5/4
f 5/6/6 1/1/6 6/7/6
f 7/3/1 6/7/1 1/1/1
f 8/8/7 7/3/7 2/2/7
f 2/2/7 10/9/7 8/8/7
f 9/10/8 8/8/9 10/9/8
f 11/11/10 13/12/11 10/9/10
f 10/9/10 2/2/12 11/11/10
f 10/9/8 12/13/13 9/10/8
f 12/13/14 10/9/14 13/12/14
f 16/14/15 13/12/15 11/11/15
f 13/12/14 14/15/16 12/13/14
f 15/16/17 14/15/18 13/12/18
f 13/12/18 16/14/18 15/16/17
f 16/14/19 18/17/19 17/18/20
f 17/18/20 15/16/19 16/14/19
f 11/11/15 3/4/15 16/14/15
f 18/17/21 16/14/22 3/4/23
f 17/18/24 18/17/24 19/19/24
f 5/6/25 19/19/25 18/17/25
f 18/17/25 4/5/25 5/6/25
f 3/4/23 4/5/22 18/17/21
f 19/19/24 20/20/24 17/18/24
f 20/20/26 19/19/26 21/21/26
f 19/19/27 5/6/27 22/22/27
f 22/22/27 21/21/27 19/19/27
f 6/7/6 22/22/6 5/6/6
f 21/21/26 23/23/26 20/20/26
f 25/24/28 20/20/28 23/23/28
f 23/23/28 24/25/28 25/24/28
f 14/15/29 15/16/29 25/24/29
f 25/24/29 12/13/30 14/15/29
f 12/13/31 25/24/31 24/25/31
f 20/20/32 25/24/33 15/16/34
f 24/25/31 9/10/31 12/13/31
f 15/16/34 17/18/32 20/20/32
f 3/4/3 11/11/35 2/2/2
f 26/26/36 27/27/36 32/28/36
f 27/27/2 26/26/3 28/29/3
f 29/30/5 28/29/5 26/26/5
f 26/26/5 30/31/37 29/30/5
f 30/31/38 26/26/38 31/32/38
f 32/28/36 31/32/36 26/26/36
f 33/33/39 32/28/40 27/27/39
f 27/27/39 34/34/41 33/33/39
f 35/35/42 36/36/42 34/34/43
f 34/34/44 27/27/44 35/35/44
f 38/37/45 37/38/45 36/36/45
f 36/36/45 35/35/45 38/37/45
f 39/39/46 38/37/46 35/35/46
f 38/37/18 39/39/18 40/40/47
f 40/40/47 41/41/18 38/37/18
f 37/38/48 38/37/48 41/41/48
f 42/42/49 41/41/49 40/40/49
f 41/41/48 42/42/48 37/38/48
f 40/40/49 43/43/49 42/42/49
f 45/44/50 44/45/50 43/43/50
f 43/43/51 40/40/51 45/44/52
f 39/39/19 48/46/19 45/44/19
f 45/44/19 40/40/19 39/39/19
f 44/45/53 45/44/53 46/47/53
f 47/48/24 46/47/24 45/44/24
f 45/44/24 48/46/24 47/48/24
f 28/29/54 29/30/55 48/46/55
f 48/46/55 39/39/55 28/29/54
f 30/31/56 47/48/57 48/46/56
f 48/46/56 29/30/58 30/31/56
f 47/48/59 30/31/59 50/49/59
f 46/47/60 47/48/60 49/50/60
f 50/49/59 49/50/59 47/48/59
f 31/32/38 50/49/38 30/31/38
f 49/50/60 51/51/60 46/47/60
f 51/51/61 53/52/61 52/53/61
f 52/53/61 46/47/62 51/51/61
f 46/47/63 52/53/64 44/45/63
f 35/35/46 28/29/46 39/39/46
f 28/29/3 35/35/35 27/27/2
