# Blender 4.4.1
# www.blender.org
o Snowy_Stone_3
v -0.076101 0.075923 0.059321
v -0.110468 0.000016 0.053231
v -0.075728 0.169947 -0.070548
v -0.084089 0.024650 0.096023
v -0.003540 0.150346 0.058842
v -0.040466 0.093461 0.093797
v 0.076270 0.044476 0.094329
v -0.071940 0.000016 0.091724
v 0.095794 0.000016 0.073913
v 0.102808 0.016143 0.066736
v 0.107028 0.037948 -0.046937
v 0.064046 0.000016 -0.061536
v 0.071383 0.051411 -0.088941
v 0.023106 0.000016 -0.097614
v -0.078865 0.000016 -0.074110
v -0.080759 0.062975 -0.096968
v -0.040469 0.157580 -0.085266
v 0.047400 0.164091 -0.057626
v 0.055852 0.164335 -0.019891
vn -0.8711 0.3683 0.3249
vn -0.8847 0.3788 0.2717
vn -0.6378 0.6247 0.4505
vn -0.7216 0.4738 0.5048
vn -0.6675 0.6531 0.3577
vn 0.1799 -0.0823 0.9802
vn -0.0121 -0.0181 0.9998
vn 0.1763 0.4297 0.8856
vn -0.6392 -0.4269 0.6397
vn 0.0977 -0.3796 0.9200
vn 0.7190 -0.0034 0.6950
vn 0.9084 -0.4156 -0.0460
vn 0.6832 -0.7125 -0.1601
vn 0.6109 -0.4386 -0.6590
vn 0.5927 -0.4432 -0.6725
vn -0.2113 -0.3392 -0.9167
vn 0.0601 0.1021 -0.9930
vn -0.3003 0.2420 -0.9226
vn -0.9836 0.0855 -0.1587
vn -0.9640 -0.1159 -0.2392
vn 0.2643 0.3101 -0.9132
vn -0.0773 0.9969 0.0109
vn -0.1247 0.9888 0.0816
vn 0.3181 0.9474 -0.0340
vn 0.9600 0.1778 -0.2162
vn 0.8276 0.4546 0.3291
vn 0.5737 0.6141 0.5419
vn 0.7708 0.3175 -0.5523
vn 0.8941 0.4325 0.1162
vt 0.022055 0.302216
vt 0.000138 0.298466
vt 0.020557 0.286692
vt 0.028690 0.330928
vt 0.042615 0.308665
vt 0.035552 0.297580
vt 0.022171 0.277283
vt 0.071231 0.296337
vt 0.088252 0.295987
vt 0.083738 0.300960
vt 0.075780 0.336421
vt 0.080765 0.352527
vt 0.066760 0.348849
vt 0.055710 0.363212
vt 0.022552 0.346344
vt 0.013254 0.350816
vt 0.035906 0.335637
vt 0.053635 0.330447
vt 0.053902 0.323266
s 1
f 1/1/1 2/2/1 4/3/1
f 1/1/2 3/4/2 2/2/2
f 3/4/3 1/1/3 5/5/3
f 4/3/4 6/6/4 1/1/4
f 5/5/5 1/1/5 6/6/5
f 8/7/6 6/6/6 4/3/6
f 7/8/7 6/6/7 8/7/7
f 7/8/8 5/5/8 6/6/8
f 2/2/9 8/7/9 4/3/9
f 7/8/10 8/7/10 9/9/10
f 10/10/11 7/8/11 9/9/11
f 9/9/12 11/11/12 10/10/12
f 11/11/13 9/9/13 12/12/13
f 13/13/14 11/11/14 12/12/14
f 14/14/15 13/13/15 12/12/15
f 16/15/16 14/14/16 15/16/16
f 13/13/17 14/14/17 16/15/17
f 16/15/18 3/4/18 17/17/18
f 3/4/19 16/15/19 2/2/19
f 2/2/20 16/15/20 15/16/20
f 16/15/17 17/17/17 13/13/17
f 17/17/21 18/18/21 13/13/21
f 17/17/22 19/19/22 18/18/22
f 19/19/23 17/17/23 5/5/23
f 3/4/24 5/5/24 17/17/24
f 18/18/25 19/19/25 10/10/25
f 19/19/26 7/8/26 10/10/26
f 19/19/27 5/5/27 7/8/27
f 13/13/28 18/18/28 11/11/28
f 18/18/29 10/10/29 11/11/29
