# Blender 4.4.1
# www.blender.org
o Tree_8
v 0.047511 1.034687 0.004998
v 0.056969 1.034687 0.008916
v 0.141046 1.395430 0.018373
v 0.038054 1.034687 0.008916
v -0.005749 0.716641 -0.021537
v 0.015859 0.720047 -0.014530
v 0.023303 0.720050 0.003441
v 0.014355 0.694584 -0.015806
v -0.001631 0.695365 -0.027431
v -0.006941 0.673597 -0.023987
v -0.053500 0.771810 -0.071200
v -0.052347 0.780563 -0.064705
v -0.057169 0.784328 -0.057314
v -0.068240 0.916704 -0.085386
v -0.072746 0.763534 -0.061647
v -0.071593 0.772287 -0.055152
v -0.065142 0.780900 -0.053357
v -0.059952 0.763197 -0.072995
v -0.067924 0.759769 -0.069038
v -0.029701 0.672411 -0.001442
v -0.018567 0.664089 -0.013221
v 0.000051 0.373217 -0.016266
v 0.024799 0.376221 -0.024866
v -0.005955 0.095714 -0.024049
v 0.021677 0.095218 -0.012286
v 0.048565 0.374183 -0.013717
v 0.015416 0.669045 -0.016208
v 0.032884 0.093785 0.015492
v 0.057426 0.368297 0.010652
v 0.021100 0.092256 0.043014
v 0.046193 0.362011 0.033964
v 0.023183 0.669037 0.002895
v 0.015131 0.669008 0.021901
v 0.014272 0.694574 0.021341
v 0.022011 0.694582 0.002782
v 0.015860 0.720050 0.021412
v 0.060885 1.034687 0.018373
v 0.056969 1.034687 0.027830
v -0.002112 0.720044 0.028856
v 0.047511 1.034687 0.031748
v -0.020088 0.720019 0.021412
v -0.004329 0.694567 0.029003
v -0.022899 0.694559 0.021282
v -0.004014 0.668988 0.029688
v -0.002321 0.361045 0.031415
v -0.023051 0.668986 0.021703
v 0.021445 0.359007 0.042565
v -0.006771 0.091525 0.054157
v -0.034403 0.092021 0.042394
v -0.045609 0.093453 0.014615
v -0.033327 0.000088 0.051926
v -0.047225 0.000088 0.018373
v -0.033327 0.000088 -0.015180
v 0.000226 0.000088 -0.029078
v -0.033826 0.094983 -0.012907
v -0.011183 0.366931 0.007047
v 0.033779 0.000088 -0.015180
v 0.047677 0.000088 0.018373
v 0.033779 0.000088 0.051926
v 0.000226 0.000088 0.065824
v -0.033818 0.693688 0.004452
v -0.028508 0.715455 0.001008
v 0.038054 1.034687 0.027830
v 0.034136 1.034687 0.018373
v -0.016882 0.724963 -0.009757
vn 0.3291 0.0255 -0.9439
vn 0.3819 -0.0648 -0.9219
vn -0.3794 0.1323 -0.9157
vn -0.5585 0.1550 -0.8149
vn -0.5586 0.1550 -0.8148
vn 0.3291 0.0255 -0.9440
vn 0.4293 0.1603 -0.8888
vn 0.4292 0.1603 -0.8889
vn 0.9200 -0.0918 -0.3811
vn 0.9200 -0.0918 -0.3810
vn 0.9237 -0.0363 -0.3814
vn 0.9236 -0.0362 -0.3815
vn 0.9236 -0.0361 -0.3817
vn 0.4294 0.1602 -0.8888
vn 0.8286 0.2815 -0.4840
vn 0.4387 -0.0969 -0.8934
vn 0.4388 -0.0970 -0.8934
vn 0.4333 -0.2153 -0.8751
vn 0.7294 0.6562 0.1933
vn 0.8629 0.1729 0.4749
vn 0.9610 0.0716 -0.2671
vn -0.8491 -0.0564 -0.5252
vn -0.9925 0.0468 0.1132
vn -0.4898 0.1895 0.8510
vn 0.3551 0.2222 0.9080
vn 0.3382 -0.0576 -0.9393
vn -0.4094 -0.0954 -0.9074
vn -0.7742 -0.5628 -0.2895
vn -0.7740 -0.5633 -0.2891
vn -0.2193 -0.5694 -0.7923
vn -0.8434 -0.0574 -0.5343
vn -0.8434 -0.0574 -0.5342
vn -0.4608 -0.0335 -0.8869
vn -0.4606 -0.0335 -0.8870
vn -0.3532 0.0339 -0.9349
vn 0.4049 -0.0454 -0.9132
vn 0.3842 0.0396 -0.9224
vn 0.9252 -0.0901 -0.3687
vn 0.9338 0.0997 -0.3437
vn 0.9127 -0.0730 0.4020
vn 0.8981 0.1104 0.4257
vn 0.9211 0.0418 0.3871
vn 0.9210 0.0416 0.3873
vn 0.9209 0.0414 0.3876
vn 0.9245 0.0428 -0.3787
vn 0.9247 0.0426 -0.3784
vn 0.9248 0.0423 -0.3781
vn 0.9210 0.0417 0.3872
vn 0.9218 -0.0578 0.3833
vn 0.9218 -0.0576 0.3832
vn 0.9220 -0.0574 0.3829
vn 0.9219 -0.0576 0.3832
vn 0.9164 -0.1275 0.3795
vn 0.3818 -0.0687 0.9217
vn 0.3818 -0.0685 0.9217
vn 0.3818 -0.0269 0.9239
vn 0.3817 -0.0270 0.9239
vn 0.3818 -0.0270 0.9239
vn 0.3818 -0.0651 0.9220
vn -0.3830 0.0512 0.9223
vn -0.3853 0.0395 0.9219
vn -0.3822 0.0518 0.9226
vn -0.3831 0.0380 0.9229
vn 0.3816 -0.0271 0.9239
vn -0.3855 0.0185 0.9225
vn -0.3853 0.0187 0.9226
vn -0.3851 0.0189 0.9227
vn -0.3829 0.0382 0.9230
vn 0.3787 0.0312 0.9250
vn 0.3786 0.0312 0.9250
vn 0.3787 0.0313 0.9250
vn -0.4080 0.0030 0.9130
vn -0.4080 0.0029 0.9130
vn 0.3447 0.0692 0.9361
vn 0.3447 0.0694 0.9361
vn 0.3512 0.0011 0.9363
vn -0.4023 0.0836 0.9117
vn -0.9199 0.1255 0.3716
vn -0.9249 0.0299 0.3791
vn -0.9248 0.0299 0.3792
vn -0.9248 0.0299 0.3793
vn -0.3846 0.0893 0.9188
vn -0.3845 0.0893 0.9188
vn -0.9219 0.0024 -0.3875
vn -0.9218 0.0024 -0.3876
vn -0.3776 0.0222 -0.9257
vn -0.9119 0.1050 -0.3967
vn -0.9523 -0.0520 0.3007
vn -0.8434 -0.0574 -0.5341
vn 0.3862 0.0752 -0.9193
vn 0.9186 0.1309 -0.3729
vn 0.9087 0.1588 0.3861
vn 0.3722 0.1427 0.9171
vn -0.9114 -0.1230 0.3927
vn -0.9114 -0.1231 0.3926
vn -0.9114 -0.1230 0.3928
vn -0.9243 -0.2199 0.3119
vn -0.6075 0.2756 0.7450
vn -0.8832 0.1822 0.4322
vn -0.9205 0.1621 0.3555
vn -0.8832 0.1821 0.4322
vn 0.1109 0.6687 0.7352
vn -0.8191 0.1843 -0.5432
vn -0.8192 0.1843 -0.5432
vn -0.8192 0.1843 -0.5430
vn -0.8911 0.2641 0.3692
vn -0.8911 0.2641 -0.3692
vn -0.3794 0.1323 0.9157
vn 0.3819 -0.0648 0.9219
vn 0.9050 -0.2011 0.3748
vn 0.9050 -0.2011 -0.3748
vn 0.4334 -0.2153 -0.8751
vt 0.439264 0.478253
vt 0.439537 0.480483
vt 0.369583 0.475983
vt 0.520576 0.485658
vt 0.439096 0.476013
vt 0.368668 0.471072
vt 0.364001 0.471659
vt 0.369681 0.480246
vt 0.363791 0.475745
vt 0.014372 0.491161
vt 0.012345 0.512056
vt 0.008462 0.514976
vt 0.359556 0.470336
vt 0.012205 0.492256
vt 0.004231 0.517799
vt 0.016600 0.490857
vt 0.017694 0.461951
vt 0.024973 0.493879
vt 0.022844 0.493807
vt 0.020715 0.492783
vt 0.018722 0.491460
vt 0.010066 0.493222
vt 0.007967 0.493218
vt 0.026877 0.519206
vt 0.030918 0.519760
vt 0.000138 0.518529
vt 0.359984 0.463319
vt 0.357828 0.466607
vt 0.293925 0.461502
vt 0.294246 0.467246
vt 0.232557 0.462703
vt 0.232233 0.469414
vt 0.293461 0.472901
vt 0.231693 0.476156
vt 0.358051 0.475369
vt 0.291875 0.478437
vt 0.231145 0.482838
vt 0.290285 0.483981
vt 0.357802 0.479911
vt 0.357797 0.484471
vt 0.363652 0.484531
vt 0.363735 0.480107
vt 0.369514 0.484516
vt 0.439648 0.482729
vt 0.439467 0.484967
vt 0.369108 0.488758
vt 0.439070 0.487173
vt 0.370912 0.459567
vt 0.372209 0.455523
vt 0.440666 0.469517
vt 0.366226 0.454355
vt 0.363556 0.488984
vt 0.360163 0.453519
vt 0.365403 0.458650
vt 0.358004 0.489000
vt 0.359765 0.458009
vt 0.292216 0.449896
vt 0.292483 0.444126
vt 0.289540 0.489664
vt 0.230891 0.489449
vt 0.233359 0.442946
vt 0.234544 0.436478
vt 0.232816 0.449497
vt 0.212898 0.446030
vt 0.213852 0.438171
vt 0.212155 0.453849
vt 0.211436 0.461497
vt 0.232661 0.456067
vt 0.292965 0.455714
vt 0.210759 0.469042
vt 0.210336 0.476595
vt 0.210470 0.484267
vt 0.211449 0.491950
vt 0.215263 0.430346
vt 0.364518 0.462630
vt 0.022754 0.516301
vt 0.019150 0.512887
vt 0.368849 0.464029
vt 0.439826 0.471597
vt 0.439258 0.473772
vt 0.015848 0.511089
vt 0.370700 0.467592
s 1
f 1/1/1 2/2/1 6/3/1
f 1/1/2 3/4/2 2/2/2
f 4/5/3 3/4/3 1/1/3
f 4/5/4 1/1/4 5/6/5
f 6/3/1 5/6/6 1/1/1
f 9/7/7 5/6/8 6/3/7
f 7/8/9 6/3/9 2/2/10
f 8/9/11 6/3/12 7/8/13
f 6/3/7 8/9/14 9/7/7
f 12/10/15 5/11/15 9/12/15
f 10/13/16 9/7/17 8/9/16
f 11/14/18 9/12/18 10/15/18
f 9/12/15 11/14/15 12/10/15
f 5/11/19 12/10/19 13/16/19
f 13/16/20 12/10/20 14/17/20
f 12/10/21 11/14/21 14/17/21
f 19/18/22 15/19/22 14/17/22
f 15/19/23 16/20/23 14/17/23
f 16/20/24 17/21/24 14/17/24
f 17/21/25 13/16/25 14/17/25
f 11/14/26 18/22/26 14/17/26
f 18/22/27 19/23/27 14/17/27
f 20/24/28 15/19/29 19/18/28
f 19/18/28 21/25/28 20/24/28
f 21/26/30 19/23/30 18/22/30
f 20/27/31 21/28/31 22/29/32
f 18/22/30 10/15/30 21/26/30
f 21/28/33 10/13/33 23/30/34
f 23/30/34 22/29/34 21/28/33
f 22/29/35 23/30/35 24/31/35
f 25/32/36 24/31/36 23/30/36
f 23/30/36 26/33/36 25/32/36
f 26/33/37 23/30/37 10/13/37
f 28/34/38 25/32/38 26/33/38
f 10/13/37 27/35/37 26/33/37
f 29/36/39 26/33/39 27/35/39
f 26/33/38 29/36/38 28/34/38
f 30/37/40 28/34/40 29/36/40
f 29/36/40 31/38/40 30/37/40
f 31/38/41 29/36/41 32/39/41
f 27/35/39 32/39/39 29/36/39
f 32/39/41 33/40/41 31/38/41
f 34/41/42 33/40/43 32/39/44
f 35/42/45 32/39/46 27/35/47
f 32/39/44 35/42/48 34/41/42
f 7/8/13 35/42/11 8/9/11
f 35/42/49 7/8/50 36/43/51
f 27/35/47 8/9/46 35/42/45
f 36/43/51 34/41/52 35/42/49
f 37/44/53 38/45/53 36/43/53
f 36/43/53 7/8/53 37/44/53
f 39/46/54 36/43/54 38/45/55
f 34/41/56 36/43/57 39/46/58
f 38/45/55 40/47/59 39/46/54
f 41/48/60 39/49/61 40/50/62
f 42/51/63 39/49/61 41/48/60
f 39/46/58 42/52/64 34/41/56
f 44/53/65 42/51/66 43/54/67
f 41/48/60 43/54/68 42/51/63
f 33/40/69 34/41/70 42/52/71
f 42/52/71 44/55/70 33/40/69
f 44/53/72 46/56/73 45/57/73
f 45/57/73 47/58/73 44/53/72
f 43/54/67 46/56/66 44/53/65
f 33/40/74 44/55/75 47/59/75
f 47/59/75 31/38/75 33/40/74
f 31/38/76 47/59/76 48/60/76
f 49/61/77 48/62/77 47/58/77
f 47/58/77 45/57/77 49/61/77
f 50/63/78 49/61/78 45/57/78
f 49/61/79 50/63/80 52/64/81
f 52/64/81 51/65/80 49/61/79
f 48/62/82 49/61/82 51/65/83
f 53/66/84 52/64/85 50/63/85
f 54/67/86 53/66/86 55/68/86
f 50/63/85 55/68/85 53/66/84
f 56/69/87 22/29/87 55/68/87
f 55/68/87 50/63/87 56/69/87
f 24/31/35 55/68/35 22/29/35
f 55/68/86 24/31/86 54/67/86
f 56/69/88 45/57/88 46/56/88
f 45/57/78 56/69/78 50/63/78
f 22/29/32 56/69/89 20/27/31
f 46/56/88 20/27/88 56/69/88
f 57/70/90 54/67/90 24/31/90
f 58/71/91 57/70/91 25/32/91
f 24/31/90 25/32/90 57/70/90
f 25/32/91 28/34/91 58/71/91
f 59/72/92 58/71/92 28/34/92
f 28/34/92 30/37/92 59/72/92
f 60/73/93 59/72/93 30/37/93
f 30/37/93 48/60/93 60/73/93
f 51/65/83 60/74/82 48/62/82
f 48/60/76 30/37/76 31/38/76
f 61/75/94 20/27/95 46/56/94
f 46/56/94 43/54/96 61/75/94
f 61/76/97 16/20/97 15/19/97
f 15/19/97 20/24/97 61/76/97
f 16/20/98 61/76/98 62/77/98
f 62/78/99 61/75/99 43/54/99
f 62/77/98 17/21/98 16/20/98
f 63/79/100 64/80/100 62/78/100
f 62/78/100 41/48/100 63/79/100
f 43/54/99 41/48/101 62/78/99
f 17/21/102 62/77/102 65/81/102
f 65/82/103 62/78/104 64/80/105
f 64/80/105 4/5/105 65/82/103
f 5/6/5 65/82/5 4/5/4
f 13/16/19 65/81/19 5/11/19
f 65/81/102 13/16/102 17/21/102
f 63/79/106 3/4/106 64/80/106
f 64/80/107 3/4/107 4/5/107
f 40/50/62 63/79/62 41/48/60
f 40/50/108 3/4/108 63/79/108
f 38/45/55 3/4/109 40/47/59
f 37/44/110 3/4/110 38/45/110
f 2/2/10 37/44/10 7/8/9
f 2/2/111 3/4/111 37/44/111
f 8/9/16 27/35/16 10/13/16
f 10/15/18 18/22/112 11/14/18
