# Blender 4.4.1
# www.blender.org
o Tree_5
v 0.027775 0.274512 0.030727
v 0.030359 -0.000000 0.044450
v 0.003778 0.274512 0.048312
v 0.026271 -0.000000 0.007027
v 0.024545 0.274512 0.001152
v 0.028248 0.549024 0.055705
v 0.010618 0.549024 0.068623
v -0.007316 0.811356 0.056375
v -0.020413 0.811355 0.050608
v -0.009382 0.549024 0.059816
v -0.023449 0.274512 0.036322
v -0.019398 0.814107 0.034226
v -0.011756 0.549024 0.038090
v -0.010049 0.810281 0.033259
v 0.005873 0.549024 0.025172
v -0.026680 0.274512 0.006748
v -0.034459 -0.000000 0.051531
v -0.038548 -0.000000 0.014108
v -0.002683 0.274512 -0.010837
v -0.008183 -0.000000 -0.008144
v 0.025874 0.549024 0.033979
v 0.004226 0.811357 0.047917
v -0.000760 0.814221 0.032169
v 0.003026 0.823619 0.031595
v -0.005436 0.841061 -0.027877
v -0.012626 0.835363 -0.030209
v -0.016071 0.851009 -0.048651
v -0.024922 0.847873 -0.047453
v -0.021858 0.835047 -0.028145
v -0.027725 0.840299 -0.022893
v -0.031465 0.848728 -0.040667
v -0.031868 0.853072 -0.032267
v -0.026378 0.949963 -0.093621
v -0.026467 0.950919 -0.091774
v -0.025152 0.952082 -0.090654
v -0.024444 0.952059 -0.093435
v -0.021679 0.951628 -0.094256
v -0.021768 0.952583 -0.092409
v -0.022992 0.950465 -0.095376
v -0.010098 0.856298 -0.043557
v -0.024939 0.949776 -0.095113
v -0.010500 0.860643 -0.035157
v -0.004503 0.848805 -0.022513
v -0.000907 0.832969 0.031873
v -0.010370 0.854057 -0.017261
v -0.017043 0.861497 -0.028370
v -0.019603 0.853741 -0.015197
v -0.010257 0.836796 0.032840
v -0.004094 1.098047 0.029279
v -0.019546 0.832856 0.033930
v -0.020395 0.835720 0.049412
v -0.023332 0.823458 0.034504
v -0.026792 0.848043 -0.017529
v -0.025894 0.858362 -0.027173
v -0.023207 0.952771 -0.090917
v -0.020620 0.823537 0.050081
v -0.007844 0.823537 0.055707
v -0.007940 0.835720 0.054897
v 0.003037 0.835721 0.046852
v 0.003416 0.823538 0.047455
v -0.000006 -0.000000 0.066702
vn 0.9941 0.0039 -0.1086
vn 0.5905 0.0458 0.8058
vn 0.5894 -0.0742 0.8044
vn 0.9940 0.0081 -0.1086
vn 0.9940 0.0042 -0.1091
vn 0.9940 0.0082 -0.1086
vn -0.4024 -0.0576 0.9137
vn -0.4023 -0.0576 0.9137
vn -0.4030 0.0152 0.9151
vn 0.5895 0.0737 0.8044
vn 0.5893 0.0778 0.8042
vn -0.9932 0.0417 0.1085
vn -0.9932 0.0416 0.1085
vn -0.9989 -0.0345 0.0331
vn -0.9989 -0.0345 0.0330
vn -0.4592 -0.0134 -0.8882
vn -0.4590 -0.0134 -0.8883
vn -0.5866 0.1233 -0.8005
vn -0.9931 0.0437 0.1085
vn -0.9930 0.0458 0.1085
vn -0.5911 0.0039 -0.8066
vn 0.4029 -0.0171 -0.9151
vn 0.4007 0.1069 -0.9100
vn 0.9785 0.0906 -0.1854
vn 0.9785 0.0906 -0.1853
vn 0.2506 0.0318 -0.9676
vn 0.2507 0.0338 -0.9675
vn 0.2508 0.0318 -0.9675
vn 0.9734 -0.1429 -0.1789
vn 0.9734 -0.1430 -0.1789
vn 0.4908 -0.7925 -0.3620
vn 0.4909 -0.7924 -0.3620
vn 0.9578 -0.2087 -0.1975
vn 0.9579 -0.2085 -0.1975
vn 0.4910 -0.7924 -0.3620
vn 0.0422 -0.7941 -0.6063
vn 0.0423 -0.7941 -0.6063
vn 0.6922 -0.4455 -0.5677
vn 0.6922 -0.4456 -0.5677
vn 0.6923 -0.4455 -0.5677
vn 0.0421 -0.7941 -0.6063
vn -0.2265 -0.9176 -0.3265
vn -0.2267 -0.9176 -0.3265
vn -0.8445 -0.5228 -0.1166
vn -0.8445 -0.5227 -0.1166
vn -0.6356 -0.7143 -0.2929
vn -0.6357 -0.7143 -0.2928
vn -0.6355 -0.7143 -0.2930
vn -0.9663 -0.1739 0.1900
vn -0.9663 -0.1740 0.1899
vn -0.7052 -0.3005 -0.6421
vn -0.7052 -0.3003 -0.6423
vn -0.9981 0.0198 -0.0581
vn -0.9981 0.0198 -0.0583
vn -0.9981 0.0198 -0.0584
vn -0.6286 0.7319 -0.2630
vn -0.6288 0.7318 -0.2628
vn -0.6288 0.7318 -0.2630
vn -0.7690 0.3627 0.5264
vn -0.7694 0.3624 0.5260
vn -0.6288 0.7317 -0.2630
vn -0.0411 0.8210 -0.5695
vn -0.0410 0.8212 -0.5692
vn -0.0410 0.8210 -0.5694
vn -0.2257 0.9608 -0.1607
vn -0.2257 0.9609 -0.1606
vn -0.4385 0.5918 -0.6764
vn -0.4385 0.5917 -0.6764
vn 0.7444 -0.2408 -0.6228
vn 0.7445 -0.2406 -0.6227
vn 0.0275 -0.4236 -0.9054
vn 0.0275 -0.4235 -0.9055
vn 0.7446 -0.2406 -0.6227
vn -0.4385 0.5919 -0.6764
vn 0.9649 0.1777 -0.1933
vn 0.9649 0.1778 -0.1933
vn 0.9934 0.1144 -0.0117
vn 0.9933 0.1147 -0.0114
vn 0.9649 0.1776 -0.1933
vn 0.8431 0.5286 0.0982
vn 0.8432 0.5286 0.0982
vn 0.8431 0.5288 0.0982
vn 0.6212 0.7369 0.2666
vn 0.6213 0.7368 0.2666
vn 0.6211 0.7370 0.2666
vn -0.0760 0.8656 0.4949
vn -0.0759 0.8656 0.4949
vn 0.2256 0.9212 0.3169
vn 0.2258 0.9212 0.3169
vn -0.1096 -0.0110 -0.9939
vn -0.1097 -0.0110 -0.9939
vn -0.1120 -0.0109 -0.9937
vn -0.1073 -0.0110 -0.9942
vn -0.4936 0.8001 0.3407
vn -0.4936 0.8002 0.3407
vn -0.4938 0.8001 0.3407
vn -0.9819 0.1849 0.0414
vn -0.9819 0.1850 0.0413
vn -0.9963 0.0569 -0.0651
vn -0.9615 0.2182 0.1670
vn -0.9615 0.2180 0.1670
vn -0.9616 0.2180 0.1670
vn -0.7051 0.5159 0.4864
vn -0.7051 0.5160 0.4865
vn -0.9663 -0.1738 0.1901
vn -0.7052 0.5159 0.4864
vn -0.0866 0.5592 0.8245
vn -0.0866 0.5593 0.8244
vn -0.0761 0.8656 0.4949
vn 0.6707 0.4494 0.5901
vn 0.6705 0.4498 0.5900
vn 0.6706 0.4496 0.5900
vn -0.2257 0.9608 -0.1608
vn -0.9819 0.1848 0.0414
vn -0.9814 -0.1883 0.0364
vn -0.9814 -0.1884 0.0365
vn -0.8445 -0.5226 -0.1166
vn -0.4024 0.0576 0.9137
vn -0.4023 0.0576 0.9137
vn -0.4028 0.0327 0.9147
vn -0.9815 -0.1882 0.0364
vn 0.5900 0.0583 0.8053
vn 0.5885 0.0695 0.8055
vn 0.5901 0.0583 0.8052
vn -0.4012 0.0949 0.9111
vn 0.5897 0.0699 0.8046
vn 0.9666 0.0091 -0.2562
vn 0.9694 0.1918 -0.1529
vn 0.9695 0.1917 -0.1530
vn 0.5897 0.0697 0.8046
vn 0.9735 -0.1428 -0.1789
vn 0.5898 0.0699 0.8045
vn 0.9694 0.1919 -0.1528
vn 0.9934 0.1145 -0.0116
vn 0.4029 -0.0170 -0.9151
vn -0.4021 0.0667 0.9132
vt 0.296075 0.649787
vt 0.233572 0.656567
vt 0.233055 0.648048
vt 0.296907 0.656588
vt 0.359043 0.648113
vt 0.295220 0.643027
vt 0.358259 0.643211
vt 0.359789 0.653030
vt 0.417467 0.640127
vt 0.418395 0.643267
vt 0.297709 0.663377
vt 0.360506 0.657963
vt 0.420532 0.646508
vt 0.420040 0.648757
vt 0.361376 0.662866
vt 0.298684 0.670112
vt 0.235536 0.673493
vt 0.237306 0.681840
vt 0.300070 0.676761
vt 0.232462 0.639498
vt 0.294569 0.636267
vt 0.239313 0.690169
vt 0.357635 0.638282
vt 0.357364 0.633326
vt 0.417227 0.636867
vt 0.418421 0.633122
vt 0.421690 0.634452
vt 0.355777 0.389705
vt 0.356995 0.387185
vt 0.372080 0.397616
vt 0.417570 0.630971
vt 0.355163 0.392473
vt 0.370274 0.399370
vt 0.378777 0.401888
vt 0.376550 0.402795
vt 0.373672 0.395841
vt 0.363539 0.410224
vt 0.363271 0.412845
vt 0.348624 0.404552
vt 0.359006 0.385301
vt 0.367232 0.412115
vt 0.368354 0.414393
vt 0.366907 0.409637
vt 0.376447 0.414396
vt 0.376476 0.413901
vt 0.376536 0.413502
vt 0.376577 0.413932
vt 0.376750 0.412995
vt 0.376843 0.413017
vt 0.376904 0.413254
vt 0.374691 0.403529
vt 0.377019 0.414933
vt 0.371901 0.404280
vt 0.368401 0.401097
vt 0.354628 0.395303
vt 0.366601 0.402951
vt 0.369433 0.405464
vt 0.365096 0.405121
vt 0.353640 0.398045
vt 0.425422 0.638800
vt 0.425464 0.638781
vt 0.425529 0.641136
vt 0.424644 0.636559
vt 0.352109 0.400458
vt 0.422293 0.640890
vt 0.423325 0.644152
vt 0.350308 0.402509
vt 0.364077 0.407602
vt 0.367666 0.407282
vt 0.376630 0.413196
vt 0.420681 0.642545
vt 0.419102 0.639942
vt 0.420080 0.639725
vt 0.421722 0.637874
vt 0.419584 0.636846
vt 0.234297 0.665052
s 1
f 1/1/1 2/2/1 4/3/1
f 2/2/2 1/1/2 3/4/2
f 7/5/3 3/4/3 1/1/3
f 4/3/1 5/6/4 1/1/5
f 6/7/6 1/1/5 5/6/4
f 1/1/3 6/7/3 7/5/3
f 3/4/7 7/5/8 10/8/8
f 7/5/9 8/9/9 9/10/9
f 8/9/10 7/5/11 6/7/11
f 9/10/9 10/8/9 7/5/9
f 10/8/8 11/11/7 3/4/7
f 11/11/12 10/8/13 13/12/13
f 10/8/14 9/10/15 12/13/14
f 12/13/14 13/12/14 10/8/14
f 13/12/16 12/13/17 14/14/17
f 14/14/17 15/15/16 13/12/16
f 16/16/18 13/12/18 15/15/18
f 13/12/13 16/16/19 11/11/12
f 17/17/20 11/11/12 16/16/19
f 16/16/20 18/18/20 17/17/20
f 18/18/21 16/16/21 19/19/21
f 15/15/18 19/19/18 16/16/18
f 20/20/22 19/21/22 5/6/22
f 19/19/21 20/22/21 18/18/21
f 21/23/23 5/6/23 19/21/23
f 19/21/23 15/24/23 21/23/23
f 22/25/24 6/7/25 21/23/25
f 21/23/25 23/26/24 22/25/24
f 5/6/4 21/23/6 6/7/6
f 23/26/26 21/23/27 15/24/28
f 22/25/29 23/26/30 24/27/29
f 23/28/31 14/29/31 26/30/32
f 15/24/28 14/31/26 23/26/26
f 24/32/33 23/28/33 25/33/34
f 26/30/32 25/33/35 23/28/31
f 28/34/36 27/35/37 26/30/36
f 25/33/38 26/30/39 27/35/40
f 26/30/36 29/36/41 28/34/36
f 29/36/42 26/30/42 14/29/43
f 30/37/44 29/38/44 12/39/45
f 14/29/43 12/40/43 29/36/42
f 29/38/46 30/37/47 31/41/46
f 31/41/46 28/42/48 29/38/46
f 32/43/49 31/41/50 30/37/49
f 28/42/51 31/41/51 33/44/52
f 31/41/53 32/43/53 34/45/54
f 34/45/54 33/44/55 31/41/53
f 34/45/56 35/46/57 36/47/58
f 35/46/59 34/45/59 32/43/60
f 36/47/58 33/44/61 34/45/56
f 36/47/62 38/48/63 37/49/64
f 37/49/64 39/50/64 36/47/62
f 38/48/65 36/47/66 35/46/65
f 33/44/67 36/47/68 39/50/67
f 40/51/69 27/35/69 39/50/70
f 41/52/71 39/50/71 27/35/72
f 39/50/70 37/49/73 40/51/69
f 39/50/67 41/52/74 33/44/67
f 27/35/72 28/34/72 41/52/71
f 33/44/52 41/52/52 28/42/51
f 27/35/40 40/51/40 25/33/38
f 40/51/75 42/53/76 43/54/75
f 42/53/77 40/51/77 37/49/78
f 43/54/75 25/33/79 40/51/75
f 25/33/34 43/54/34 24/32/33
f 44/55/80 24/32/81 43/54/82
f 43/54/82 45/56/82 44/55/80
f 45/56/83 43/54/84 42/53/83
f 42/53/83 46/57/85 45/56/83
f 47/58/86 45/56/87 46/57/86
f 45/56/88 47/58/88 48/59/89
f 48/59/89 44/55/89 45/56/88
f 49/60/90 48/61/91 50/62/92
f 49/60/90 44/63/93 48/61/91
f 50/64/94 48/59/95 47/58/96
f 51/65/97 50/62/98 52/66/97
f 49/60/99 50/62/99 51/65/99
f 52/67/100 50/64/100 53/68/101
f 47/58/96 53/68/96 50/64/94
f 53/68/101 30/37/102 52/67/100
f 53/68/103 47/58/104 54/69/103
f 30/37/49 53/68/105 32/43/49
f 54/69/103 32/43/106 53/68/103
f 54/69/107 46/57/107 55/70/108
f 46/57/86 54/69/109 47/58/86
f 55/70/108 35/46/108 54/69/107
f 32/43/60 54/69/60 35/46/59
f 38/48/110 55/70/111 46/57/112
f 35/46/65 55/70/113 38/48/65
f 52/66/97 56/71/114 51/65/97
f 56/71/115 52/66/116 12/13/115
f 12/39/45 52/67/117 30/37/44
f 56/71/118 57/72/119 58/73/118
f 57/72/120 56/71/120 9/10/120
f 58/73/118 51/65/118 56/71/118
f 12/13/115 9/10/121 56/71/115
f 59/74/122 58/73/123 57/72/124
f 49/60/125 51/65/125 58/73/125
f 49/60/126 58/73/123 59/74/122
f 49/60/127 59/74/127 44/63/127
f 44/63/128 59/74/129 60/75/128
f 57/72/124 60/75/130 59/74/122
f 24/27/29 60/75/131 22/25/29
f 8/9/10 22/25/132 60/75/130
f 60/75/130 57/72/124 8/9/10
f 60/75/128 24/27/133 44/63/128
f 9/10/120 8/9/120 57/72/120
f 46/57/112 42/53/112 38/48/110
f 37/49/78 38/48/134 42/53/77
f 6/7/11 22/25/132 8/9/10
f 5/6/135 4/3/135 20/20/135
f 11/11/136 17/17/136 61/76/136
f 61/76/136 3/4/136 11/11/136
f 3/4/2 61/76/2 2/2/2
