# Blender 4.4.1
# www.blender.org
o Tree_1
v -0.025865 0.418139 -0.025240
v -0.006189 0.416375 -0.017058
v 0.011320 0.832947 0.000409
v 0.009804 0.833510 0.001079
v -0.045539 0.419903 -0.017058
v 0.011320 0.208238 -0.038064
v 0.040142 0.208238 -0.026126
v 0.052080 0.208238 0.002696
v 0.056096 0.104120 -0.030660
v 0.069914 0.104120 0.002696
v 0.056096 0.104120 0.036052
v 0.049210 0.000003 0.040586
v 0.064904 0.000003 0.002696
v 0.049210 0.000003 -0.035194
v 0.022740 0.104120 -0.044476
v 0.011320 0.000002 -0.050888
v -0.010615 0.104120 -0.030660
v -0.026569 0.000003 -0.035194
v -0.024432 0.104120 0.002696
v -0.042264 0.000003 0.002696
v -0.026569 0.000003 0.040586
v -0.010615 0.104120 0.036052
v -0.017502 0.208238 0.031518
v 0.011320 0.208238 0.043456
v 0.022740 0.104121 0.049868
v 0.011320 0.000003 0.056280
v 0.040142 0.208238 0.031518
v 0.001960 0.415644 0.002696
v -0.006189 0.416375 0.022450
v 0.013465 0.832153 0.002696
v 0.012837 0.832386 0.004313
v -0.025865 0.418139 0.030632
v 0.011320 0.832947 0.004983
v -0.045539 0.419903 0.022450
v 0.009804 0.833510 0.004313
v -0.053689 0.420632 0.002696
v -0.029440 0.208238 0.002696
v -0.017502 0.208238 -0.026126
v 0.009175 0.833741 0.002696
v 0.012837 0.832386 0.001079
v -0.018025 0.413392 0.002696
v -0.118286 0.271279 -0.032056
v -0.067811 0.239149 -0.123577
v -0.116360 0.222806 0.065648
v -0.039412 0.207710 0.117188
v 0.069882 0.241095 0.115145
v 0.118716 0.255511 -0.074927
v 0.022808 0.215918 -0.133480
v 0.110270 0.293722 0.028687
v 0.011667 0.847358 0.002696
v 0.025271 0.700051 -0.021946
v 0.044187 0.652641 0.003349
v -0.003198 0.652104 -0.037464
v -0.024081 0.703808 -0.021946
v -0.043413 0.655165 0.002696
v -0.024081 0.703808 0.027338
v 0.001298 0.656081 0.045549
v 0.035714 0.613726 0.031204
v 0.002530 0.607535 0.002696
v -0.013843 0.466879 -0.068185
v 0.039880 0.412634 -0.055068
v -0.077703 0.425556 -0.053262
v -0.099090 0.400184 0.011956
v -0.076029 0.426809 0.065025
v -0.011788 0.468418 0.076977
v 0.041555 0.413888 0.063219
v 0.064464 0.388195 0.006541
v -0.004320 0.351722 0.002696
v -0.090085 0.206640 0.057939
v -0.126030 0.168346 -0.037546
v -0.011890 0.160774 0.118613
v 0.080711 0.126289 0.084886
v 0.144083 0.184326 0.006415
v 0.029944 0.191898 -0.149744
v -0.059004 0.150971 -0.124877
v 0.101325 0.235543 -0.079750
v -0.018025 0.507038 0.002696
v -0.051433 0.382784 -0.091893
v 0.032380 0.342939 -0.105828
v -0.118769 0.337373 -0.044733
v -0.101993 0.310597 0.036796
v -0.057983 0.337200 0.106643
v 0.020784 0.376125 0.089158
v 0.093165 0.342766 0.045548
v 0.081245 0.307733 -0.040112
v 0.007098 0.771986 0.002696
v 0.051007 0.620277 -0.011300
v 0.045803 0.567508 0.029911
v 0.032316 0.571370 -0.053412
v -0.007028 0.531231 -0.066126
v -0.051034 0.574885 -0.039994
v -0.051280 0.624591 0.005167
v -0.035112 0.576698 0.050555
v 0.020281 0.545036 0.057961
v 0.002530 0.676057 0.002696
v 0.050680 0.543436 -0.036231
v 0.067783 0.496973 0.015489
v 0.007533 0.501971 -0.075623
v -0.049366 0.461497 -0.064071
v -0.083621 0.506519 -0.015403
v -0.061185 0.549017 0.037671
v -0.023372 0.501521 0.075709
v 0.031103 0.466147 0.052879
vn 0.3842 0.1246 -0.9148
vn 0.3841 0.1246 -0.9148
vn 0.3875 0.0224 -0.9216
vn 0.3874 0.0224 -0.9216
vn -0.3753 0.0907 -0.9224
vn -0.3754 0.0907 -0.9224
vn -0.3755 0.0907 -0.9224
vn -0.3835 -0.0114 -0.9235
vn -0.3833 -0.0113 -0.9236
vn 0.3841 0.1246 -0.9149
vn 0.9031 0.2177 -0.3702
vn 0.9125 0.1563 -0.3780
vn 0.3808 0.0984 -0.9194
vn 0.9230 -0.0444 0.3823
vn 0.9125 0.1563 0.3780
vn 0.9230 -0.0444 -0.3823
vn 0.3826 0.0149 -0.9238
vn -0.3808 0.0984 -0.9194
vn -0.9125 0.1563 -0.3780
vn -0.9125 0.1563 0.3780
vn -0.9230 -0.0444 0.3823
vn -0.3826 0.0149 0.9238
vn -0.3808 0.0984 0.9194
vn 0.3826 0.0149 0.9238
vn 0.3808 0.0984 0.9194
vn 0.3841 0.1246 0.9149
vn 0.3841 0.1246 0.9148
vn 0.9031 0.2177 0.3702
vn 0.9243 -0.0256 0.3808
vn 0.9243 -0.0256 0.3809
vn 0.3873 0.0224 0.9217
vn 0.3874 0.0224 0.9216
vn -0.3755 0.0907 0.9224
vn -0.3754 0.0907 0.9224
vn -0.3834 -0.0114 0.9235
vn -0.3835 -0.0114 0.9235
vn -0.3832 -0.0114 0.9236
vn -0.9138 0.1390 0.3816
vn -0.9138 0.1390 0.3815
vn -0.9195 -0.1053 0.3787
vn -0.9195 -0.1053 0.3786
vn -0.9195 -0.1053 0.3788
vn -0.9230 -0.0444 -0.3823
vn -0.9195 -0.1053 -0.3787
vn -0.9195 -0.1053 -0.3786
vn -0.3834 -0.0114 -0.9235
vn -0.3826 0.0149 -0.9238
vn -0.9138 0.1390 -0.3818
vn -0.9139 0.1390 -0.3815
vn -0.9138 0.1390 -0.3816
vn 0.9243 -0.0256 -0.3808
vn 0.9243 -0.0256 -0.3807
vn -0.7899 0.5943 -0.1514
vn -0.7899 0.5943 -0.1513
vn 0.1569 0.5824 -0.7976
vn 0.1568 0.5824 -0.7976
vn 0.1573 0.5825 -0.7975
vn -0.2683 0.4897 0.8296
vn -0.2686 0.4897 0.8295
vn -0.2685 0.4897 0.8295
vn -0.2684 0.4897 0.8295
vn 0.6412 0.7350 0.2205
vn 0.6411 0.7351 0.2204
vn 0.6411 0.7351 0.2205
vn 0.6403 0.1839 -0.7458
vn 0.6403 0.1838 -0.7458
vn 0.6990 0.1571 0.6976
vn 0.6991 0.1571 0.6976
vn 0.6990 0.1571 0.6977
vn -0.6665 0.2843 -0.6892
vn -0.6665 0.2843 -0.6891
vn -0.6664 0.2843 0.6893
vn -0.6664 0.2842 0.6893
vn 0.0352 0.4465 -0.8941
vn 0.0354 0.4465 -0.8941
vn 0.0353 0.4465 -0.8941
vn 0.9623 0.2714 -0.0165
vn 0.9623 0.2714 -0.0166
vn 0.9623 0.2714 -0.0167
vn -0.8978 0.4403 0.0077
vn -0.8978 0.4404 0.0079
vn -0.8978 0.4404 0.0080
vn -0.8978 0.4404 0.0081
vn 0.0646 0.4648 0.8830
vn 0.0648 0.4648 0.8830
vn 0.0646 0.4648 0.8831
vn 0.9623 0.2714 -0.0164
vn -0.6475 0.5737 0.5015
vn -0.6476 0.5738 0.5013
vn -0.6477 0.5738 0.5012
vn -0.5405 0.5512 -0.6357
vn -0.5403 0.5512 -0.6358
vn 0.4738 0.4539 0.7546
vn 0.4741 0.4539 0.7544
vn 0.4741 0.4539 0.7545
vn 0.5467 0.7546 -0.3630
vn -0.5404 0.5512 -0.6357
vn 0.5466 0.7546 -0.3629
vn 0.5467 0.7546 -0.3629
vn -0.3115 0.6272 -0.7138
vn -0.3116 0.6272 -0.7138
vn 0.8158 0.4767 -0.3275
vn 0.8160 0.4767 -0.3271
vn -0.8425 0.4189 0.3388
vn -0.8424 0.4189 0.3389
vn 0.2851 0.5857 0.7588
vn 0.2855 0.5857 0.7586
vn 0.2850 0.5857 0.7588
vn 0.2852 0.5857 0.7587
vn 0.9476 0.2872 -0.1401
vn 0.9476 0.2872 -0.1399
vn 0.2656 0.2426 0.9330
vn 0.2657 0.2426 0.9330
vn 0.2656 0.2426 0.9331
vn -0.1409 0.2796 -0.9497
vn -0.1410 0.2797 -0.9497
vn -0.1411 0.2797 -0.9497
vn -0.1412 0.2797 -0.9497
vn -0.9177 0.3661 0.1540
vn 0.2655 0.2426 0.9331
vn 0.7671 0.4207 -0.4843
vn 0.7672 0.4207 -0.4841
vn 0.7672 0.4207 -0.4842
vn 0.5407 0.2645 0.7986
vn 0.5407 0.2645 0.7985
vn -0.5004 0.3653 -0.7849
vn -0.5004 0.3653 -0.7850
vn -0.7123 0.4944 0.4982
vn -0.7122 0.4944 0.4983
vt 0.267196 0.281165
vt 0.268456 0.285671
vt 0.225275 0.303871
vt 0.353183 0.249745
vt 0.353151 0.249361
vt 0.266156 0.276628
vt 0.223464 0.297313
vt 0.227840 0.310205
vt 0.207800 0.319914
vt 0.204681 0.312816
vt 0.211287 0.326847
vt 0.191536 0.337838
vt 0.187601 0.329519
vt 0.183835 0.321119
vt 0.201931 0.305467
vt 0.180238 0.312840
vt 0.199500 0.297860
vt 0.177008 0.304599
vt 0.197348 0.290067
vt 0.174401 0.296209
vt 0.172684 0.287587
vt 0.195435 0.282205
vt 0.218352 0.277434
vt 0.216239 0.270956
vt 0.193860 0.274352
vt 0.215207 0.333669
vt 0.195427 0.345985
vt 0.231243 0.316129
vt 0.235306 0.321582
vt 0.171616 0.278792
vt 0.272513 0.294181
vt 0.270213 0.290055
vt 0.353353 0.250490
vt 0.353560 0.250813
vt 0.275219 0.298001
vt 0.353824 0.251092
vt 0.263775 0.267617
vt 0.262440 0.263158
vt 0.352795 0.248265
vt 0.265050 0.272100
vt 0.352956 0.248616
vt 0.220325 0.284005
vt 0.221970 0.290665
vt 0.353082 0.248981
vt 0.353232 0.250126
vt 0.172903 0.758302
vt 0.158653 0.785431
vt 0.132895 0.767440
vt 0.188672 0.795615
vt 0.208600 0.780583
vt 0.135230 0.742434
vt 0.156790 0.720500
vt 0.212720 0.748971
vt 0.186428 0.730784
vt 0.742334 0.881900
vt 0.739848 0.894059
vt 0.724768 0.890794
vt 0.755150 0.904248
vt 0.775859 0.903062
vt 0.734388 0.877866
vt 0.738851 0.862384
vt 0.750482 0.872451
vt 0.767920 0.879883
vt 0.677901 0.795688
vt 0.668224 0.814208
vt 0.647327 0.801800
vt 0.690287 0.824319
vt 0.708747 0.810900
vt 0.648345 0.778149
vt 0.665515 0.767055
vt 0.687577 0.777167
vt 0.708475 0.789576
vt 0.609775 0.754288
vt 0.595444 0.781089
vt 0.569885 0.762643
vt 0.624860 0.792240
vt 0.647414 0.772725
vt 0.570009 0.735045
vt 0.594662 0.716390
vt 0.649694 0.745881
vt 0.624107 0.727488
vt 0.035167 0.778269
vt 0.023142 0.801488
vt 0.000138 0.785538
vt 0.049409 0.811083
vt 0.068616 0.795520
vt 0.004508 0.761387
vt 0.022349 0.744796
vt 0.047218 0.754613
vt 0.069878 0.769609
vt 0.831205 0.470049
vt 0.824646 0.484380
vt 0.805779 0.476735
vt 0.842501 0.494267
vt 0.857651 0.489293
vt 0.796678 0.458148
vt 0.818596 0.446876
vt 0.837054 0.455285
vt 0.856657 0.465481
vt 0.818174 0.262954
vt 0.809558 0.279955
vt 0.790327 0.268786
vt 0.829849 0.288968
vt 0.846232 0.278973
vt 0.785615 0.247343
vt 0.806466 0.237007
vt 0.826790 0.245954
vt 0.846054 0.257057
s 1
f 1/1/1 2/2/2 7/3/2
f 2/2/3 1/1/4 3/4/4
f 4/5/5 3/4/6 1/1/7
f 1/1/7 5/6/7 4/5/5
f 5/6/8 1/1/8 6/7/9
f 7/3/2 6/7/10 1/1/1
f 8/8/11 7/3/11 2/2/11
f 7/3/12 8/8/12 10/9/12
f 10/9/12 9/10/12 7/3/12
f 6/7/13 7/3/13 9/10/13
f 10/9/14 11/11/14 12/12/14
f 11/11/15 10/9/15 8/8/15
f 12/12/14 13/13/14 10/9/14
f 9/10/16 10/9/16 13/13/16
f 13/13/16 14/14/16 9/10/16
f 15/15/17 9/10/17 14/14/17
f 14/14/17 16/16/17 15/15/17
f 17/17/18 15/15/18 16/16/18
f 16/16/18 18/18/18 17/17/18
f 19/19/19 17/17/19 18/18/19
f 18/18/19 20/20/19 19/19/19
f 20/20/20 21/21/20 22/22/20
f 22/22/20 19/19/20 20/20/20
f 19/19/21 22/22/21 23/23/21
f 24/24/22 23/23/22 22/22/22
f 22/22/22 25/25/22 24/24/22
f 25/25/23 22/22/23 21/21/23
f 11/11/24 25/26/24 26/27/24
f 25/26/25 11/11/25 27/28/25
f 27/28/25 24/29/25 25/26/25
f 21/21/23 26/30/23 25/25/23
f 24/29/26 27/28/27 29/31/27
f 28/32/28 29/31/28 27/28/28
f 27/28/28 8/8/28 28/32/28
f 8/8/15 27/28/15 11/11/15
f 30/33/29 31/34/29 29/31/30
f 29/31/30 28/32/30 30/33/29
f 32/35/31 29/31/32 31/34/32
f 29/31/27 32/35/27 24/29/26
f 31/34/32 33/36/32 32/35/31
f 34/37/33 32/38/33 33/39/34
f 32/38/35 34/37/36 23/23/37
f 23/23/37 24/24/35 32/38/35
f 36/40/38 34/37/39 35/41/38
f 33/39/34 35/41/34 34/37/33
f 34/37/40 36/40/41 37/42/42
f 37/42/42 23/23/40 34/37/40
f 23/23/21 37/42/21 19/19/21
f 17/17/43 19/19/43 37/42/43
f 37/42/43 38/43/43 17/17/43
f 38/43/44 37/42/44 36/40/45
f 36/40/45 5/6/44 38/43/44
f 6/7/9 38/43/46 5/6/8
f 38/43/47 6/7/47 15/15/47
f 15/15/47 17/17/47 38/43/47
f 35/41/38 39/44/38 36/40/38
f 5/6/48 36/40/49 39/44/50
f 39/44/50 4/5/50 5/6/48
f 40/45/51 30/33/51 28/32/52
f 28/32/52 2/2/51 40/45/51
f 3/4/4 40/45/4 2/2/3
f 2/2/11 28/32/11 8/8/11
f 26/27/24 12/12/24 11/11/24
f 9/10/13 15/15/13 6/7/13
f 41/46/53 42/47/54 44/48/54
f 41/46/53 43/49/54 42/47/54
f 48/50/55 43/49/56 41/46/57
f 41/46/58 44/48/59 45/51/60
f 45/51/60 46/52/61 41/46/58
f 47/53/62 41/46/62 46/52/62
f 41/46/57 47/53/55 48/50/55
f 46/52/63 49/54/64 47/53/64
f 50/55/65 51/56/65 53/57/65
f 50/55/65 52/58/66 51/56/65
f 58/59/67 52/58/68 50/55/69
f 50/55/70 53/57/71 54/60/71
f 54/60/71 55/61/71 50/55/70
f 56/62/72 50/55/72 55/61/73
f 56/62/72 57/63/72 50/55/72
f 50/55/69 57/63/69 58/59/67
f 59/64/74 60/65/75 62/66/76
f 59/64/74 61/67/76 60/65/75
f 67/68/77 61/67/78 59/64/79
f 59/64/80 62/66/81 63/69/82
f 63/69/82 64/70/83 59/64/80
f 65/71/84 59/64/85 64/70/86
f 65/71/84 66/72/84 59/64/85
f 59/64/79 66/72/87 67/68/77
f 68/73/88 69/74/89 71/75/89
f 68/73/88 70/76/90 69/74/89
f 75/77/91 70/76/91 68/73/92
f 68/73/93 71/75/94 72/78/95
f 72/78/95 73/79/94 68/73/93
f 74/80/96 68/73/96 73/79/96
f 68/73/92 74/80/97 75/77/91
f 73/79/98 76/81/99 74/80/98
f 77/82/100 78/83/101 80/84/101
f 77/82/100 79/85/101 78/83/101
f 85/86/102 79/85/103 77/82/103
f 77/82/104 80/84/104 81/87/105
f 81/87/105 82/88/104 77/82/104
f 83/89/106 77/82/107 82/88/108
f 83/89/106 84/90/109 77/82/107
f 77/82/103 84/90/103 85/86/102
f 86/91/110 87/92/111 89/93/110
f 86/91/110 88/94/110 87/92/111
f 94/95/112 88/94/113 86/91/114
f 86/91/115 89/93/116 90/96/117
f 90/96/117 91/97/118 86/91/115
f 92/98/119 86/91/119 91/97/119
f 92/98/119 93/99/119 86/91/119
f 86/91/114 93/99/120 94/95/112
f 95/100/121 96/101/122 98/102/123
f 95/100/121 97/103/123 96/101/122
f 103/104/124 97/103/125 95/100/124
f 95/100/126 98/102/127 99/105/127
f 99/105/127 100/106/127 95/100/126
f 101/107/128 95/100/129 100/106/128
f 101/107/128 102/108/128 95/100/129
f 95/100/124 102/108/125 103/104/124
