# Blender 4.4.1
# www.blender.org
o Tree_9
v 0.037934 1.147063 -0.033836
v 0.045746 1.146069 -0.030603
v 0.062238 1.301265 -0.038924
v 0.030104 1.148076 -0.030549
v 0.014170 0.990972 -0.014688
v 0.025286 0.989915 -0.010120
v 0.028735 0.825501 0.003784
v 0.029894 0.989475 0.001009
v 0.022793 0.825833 -0.010577
v 0.008453 0.826624 -0.016527
v 0.057930 0.663655 0.003784
v 0.050743 0.663323 -0.013788
v 0.033391 0.662519 -0.021069
v 0.091059 0.493559 0.003785
v 0.082444 0.493567 -0.017005
v 0.061650 0.493589 -0.025617
v 0.037560 0.330897 -0.020187
v 0.047504 0.330895 0.003785
v 0.026839 0.166189 0.003785
v 0.015597 0.166189 0.030924
v 0.037560 0.330897 0.027757
v 0.082444 0.493567 0.024575
v -0.011543 0.166189 0.042166
v 0.013500 0.330906 0.037686
v -0.038681 0.166189 0.030924
v -0.010579 0.330918 0.027757
v 0.061650 0.493589 0.033187
v 0.040855 0.493610 0.024576
v 0.033391 0.662519 0.028637
v 0.050743 0.663323 0.021357
v 0.022798 0.825828 0.018145
v 0.025286 0.989915 0.012179
v 0.008460 0.826617 0.024095
v -0.005887 0.827412 0.018147
v 0.016039 0.661706 0.021359
v 0.014170 0.990972 0.016848
v 0.045693 1.146125 -0.014864
v 0.037884 1.147117 -0.011578
v 0.003046 0.992034 0.012280
v -0.011835 0.827746 0.003784
v -0.001570 0.992478 0.001150
v 0.030072 1.148111 -0.014810
v 0.026849 1.148510 -0.022669
v 0.003046 0.992034 -0.010021
v -0.005892 0.827417 -0.010579
v 0.016039 0.661706 -0.013791
v 0.008851 0.661365 0.003784
v 0.040855 0.493610 -0.017006
v 0.032239 0.493618 0.003785
v -0.010579 0.330918 -0.020187
v 0.013500 0.330906 -0.030116
v 0.015597 0.166189 -0.023354
v -0.011543 0.166189 -0.034596
v -0.038681 0.166189 -0.023354
v -0.008078 0.083097 -0.036836
v 0.020644 0.083097 -0.024938
v 0.032542 0.083097 0.003785
v 0.036957 0.000005 -0.033161
v 0.052260 0.000005 0.003785
v 0.036957 0.000005 0.040731
v 0.000011 0.000005 0.056035
v 0.020644 0.083097 0.032508
v -0.008078 0.083097 0.044406
v -0.036802 0.083097 0.032508
v -0.036937 0.000005 0.040731
v -0.052239 0.000005 0.003785
v -0.048698 0.083097 0.003785
v -0.036937 0.000005 -0.033161
v -0.036802 0.083097 -0.024938
v 0.000011 0.000005 -0.048465
v -0.049923 0.166189 0.003785
v -0.020545 0.330922 0.003785
v 0.048949 1.145691 -0.022745
vn 0.3600 -0.1675 -0.9178
vn 0.3601 -0.1675 -0.9178
vn 0.3604 -0.1675 -0.9177
vn 0.3712 -0.0890 -0.9243
vn -0.3836 0.0300 -0.9230
vn -0.3913 -0.0531 -0.9187
vn -0.3914 -0.0531 -0.9187
vn -0.3910 -0.0531 -0.9189
vn 0.3602 -0.1675 -0.9177
vn 0.9089 -0.1690 -0.3812
vn 0.3817 -0.0031 -0.9243
vn 0.9237 -0.0130 -0.3829
vn 0.9238 -0.0130 -0.3826
vn 0.3839 0.0840 -0.9195
vn 0.3838 0.0840 -0.9196
vn 0.3842 0.0845 -0.9194
vn 0.9123 0.1644 -0.3751
vn 0.9123 0.1646 -0.3750
vn 0.9097 0.1770 -0.3757
vn 0.3826 0.0885 -0.9197
vn 0.3813 0.0886 -0.9202
vn 0.9095 0.1771 -0.3762
vn 0.9094 0.1771 -0.3762
vn 0.3812 0.0885 -0.9202
vn 0.3810 -0.0871 -0.9205
vn 0.3808 -0.0871 -0.9206
vn 0.3801 -0.0870 -0.9209
vn 0.8968 -0.2401 -0.3717
vn 0.8967 -0.2401 -0.3719
vn 0.8966 -0.2401 -0.3720
vn 0.9176 -0.1151 -0.3806
vn 0.9175 -0.1151 -0.3806
vn 0.9177 -0.1151 -0.3802
vn 0.9177 -0.1151 0.3802
vn 0.9176 -0.1150 0.3806
vn 0.9175 -0.1150 0.3806
vn 0.8967 -0.2401 0.3719
vn 0.8967 -0.2401 0.3720
vn 0.8968 -0.2402 0.3717
vn 0.3804 -0.0870 0.9207
vn 0.3806 -0.0871 0.9206
vn 0.3821 -0.0331 0.9235
vn 0.3820 -0.0331 0.9236
vn 0.3805 -0.0871 0.9207
vn -0.3806 0.0828 0.9210
vn -0.3809 0.0829 0.9209
vn -0.3780 0.1372 0.9156
vn -0.3776 0.1371 0.9158
vn -0.3782 0.1374 0.9155
vn -0.3781 0.1373 0.9155
vn -0.3835 -0.0391 0.9227
vn -0.3834 -0.0391 0.9227
vn -0.3825 -0.0381 0.9232
vn 0.3831 0.0886 0.9195
vn 0.3843 0.0847 0.9193
vn 0.3812 0.0886 0.9202
vn 0.3840 0.0840 0.9195
vn 0.9096 0.1773 0.3756
vn 0.9124 0.1644 0.3747
vn 0.9096 0.1771 0.3760
vn 0.9123 0.1644 0.3750
vn 0.3838 0.0840 0.9196
vn 0.9242 -0.0001 0.3818
vn 0.9244 -0.0002 0.3813
vn 0.9243 -0.0001 0.3816
vn 0.3866 0.0274 0.9219
vn 0.3866 0.0274 0.9218
vn 0.9241 -0.0001 0.3821
vn -0.3832 -0.0336 0.9231
vn -0.3844 -0.0330 0.9226
vn -0.3843 -0.0330 0.9226
vn -0.3777 0.0537 0.9244
vn -0.3776 0.0537 0.9244
vn 0.3951 0.1062 0.9125
vn 0.3950 0.1062 0.9125
vn 0.3945 0.1054 0.9128
vn 0.3934 0.1029 0.9136
vn -0.3512 0.2189 0.9104
vn -0.3513 0.2189 0.9103
vn -0.3511 0.2184 0.9105
vn -0.9212 0.0636 0.3840
vn -0.9212 0.0636 0.3838
vn -0.9213 0.0636 0.3837
vn -0.3510 0.2180 0.9107
vn -0.8978 0.2216 0.3806
vn -0.8978 0.2216 0.3805
vn -0.3495 0.2169 0.9115
vn -0.8921 0.2469 0.3784
vn -0.9169 0.1084 -0.3842
vn -0.9170 0.1085 -0.3838
vn -0.9075 0.1694 -0.3843
vn -0.9170 0.1085 -0.3839
vn -0.3832 0.0238 -0.9234
vn -0.3831 0.0238 -0.9234
vn -0.3829 0.0238 -0.9235
vn -0.3912 -0.0531 -0.9188
vn -0.9223 0.0514 -0.3831
vn -0.9223 0.0514 -0.3832
vn -0.9224 0.0514 -0.3829
vn -0.3838 -0.0335 -0.9228
vn -0.3827 -0.0382 -0.9231
vn -0.3848 -0.0330 -0.9224
vn -0.9187 -0.1143 -0.3780
vn -0.9189 -0.1143 -0.3776
vn -0.9183 -0.1145 -0.3789
vn -0.3849 -0.0330 -0.9224
vn -0.3835 -0.0391 -0.9227
vn -0.3834 -0.0391 -0.9228
vn -0.9164 -0.1276 -0.3795
vn -0.9166 -0.1279 -0.3787
vn -0.3783 0.1373 -0.9154
vn -0.3782 0.1373 -0.9155
vn -0.3781 0.1373 -0.9155
vn -0.9166 -0.1279 -0.3788
vn -0.8849 0.2869 -0.3669
vn -0.8849 0.2869 -0.3668
vn -0.8847 0.2870 -0.3673
vn -0.3780 0.1373 -0.9156
vn 0.3817 -0.0331 -0.9237
vn 0.3820 -0.0331 -0.9236
vn 0.3818 -0.0331 -0.9237
vn 0.3819 -0.0331 -0.9236
vn 0.3803 -0.0871 -0.9208
vn -0.3806 0.0828 -0.9210
vn -0.3807 0.0828 -0.9210
vn -0.3809 0.0828 -0.9209
vn 0.3824 0.0408 -0.9231
vn -0.3827 0.0090 -0.9238
vn 0.3775 0.1643 -0.9113
vn 0.9220 0.0633 -0.3819
vn 0.9024 0.2141 -0.3738
vn 0.9024 0.2142 -0.3738
vn 0.9024 0.2142 0.3738
vn 0.3775 0.1643 0.9113
vn 0.3824 0.0408 0.9231
vn 0.9220 0.0633 0.3819
vn -0.3827 0.0089 0.9238
vn -0.3827 0.0090 0.9238
vn -0.3811 0.0917 0.9200
vn -0.9232 0.0393 0.3824
vn -0.9232 0.0393 -0.3824
vn -0.3811 0.0917 -0.9200
vn -0.9238 -0.0136 -0.3827
vn -0.9238 -0.0136 -0.3826
vn -0.9113 0.1626 0.3782
vn -0.9114 0.1626 0.3781
vn -0.9116 0.1628 0.3776
vn -0.9238 -0.0136 0.3827
vn -0.9238 -0.0136 0.3826
vn -0.9113 0.1626 -0.3782
vn -0.9116 0.1626 -0.3776
vn -0.8847 0.2870 0.3674
vn -0.8849 0.2871 0.3669
vn -0.9113 0.1626 -0.3783
vn -0.8847 0.2870 -0.3675
vn -0.8849 0.2871 0.3668
vn -0.9162 -0.1277 0.3798
vn -0.9182 -0.1142 0.3793
vn -0.9167 -0.1279 0.3786
vn -0.9188 -0.1142 0.3778
vn 0.3966 0.0992 0.9126
vn 0.9220 -0.0541 0.3834
vn 0.9223 -0.0543 0.3826
vn 0.9227 -0.0389 0.3835
vn 0.9175 -0.1179 -0.3798
vn 0.9223 -0.0544 0.3826
vn 0.9094 0.1771 0.3762
vt 0.256183 0.422745
vt 0.256163 0.424605
vt 0.221138 0.424679
vt 0.290511 0.422389
vt 0.256098 0.420880
vt 0.221265 0.422012
vt 0.220954 0.427330
vt 0.184483 0.424482
vt 0.184337 0.427889
vt 0.184889 0.421121
vt 0.148072 0.424305
vt 0.148000 0.428476
vt 0.148469 0.420216
vt 0.111323 0.424507
vt 0.111434 0.429425
vt 0.111153 0.419622
vt 0.075171 0.423882
vt 0.075567 0.429550
vt 0.038267 0.430275
vt 0.038516 0.436751
vt 0.075187 0.435224
vt 0.075740 0.396419
vt 0.077394 0.391028
vt 0.113234 0.394665
vt 0.111436 0.434342
vt 0.039468 0.392367
vt 0.040865 0.386113
vt 0.112448 0.399488
vt 0.038278 0.398599
vt 0.074166 0.401786
vt 0.111739 0.404413
vt 0.149504 0.403853
vt 0.149628 0.399747
vt 0.185730 0.404245
vt 0.148336 0.432633
vt 0.184555 0.431293
vt 0.185675 0.407635
vt 0.220835 0.429981
vt 0.221795 0.408753
vt 0.149487 0.407941
vt 0.185716 0.411018
vt 0.221405 0.411380
vt 0.256666 0.413480
vt 0.256201 0.415294
vt 0.221237 0.414029
vt 0.221235 0.416682
vt 0.185639 0.414406
vt 0.255983 0.417152
vt 0.255986 0.419016
vt 0.221282 0.419337
vt 0.185340 0.417779
vt 0.148968 0.416160
vt 0.111077 0.414649
vt 0.149343 0.412059
vt 0.074235 0.418346
vt 0.111266 0.409523
vt 0.073399 0.412842
vt 0.037855 0.423864
vt 0.037428 0.417494
vt 0.018989 0.424575
vt 0.037249 0.411162
vt 0.018924 0.417506
vt 0.000138 0.426676
vt 0.019620 0.431547
vt 0.001019 0.435196
vt 0.003257 0.443512
vt 0.003894 0.383954
vt 0.006032 0.375443
vt 0.023102 0.382582
vt 0.020866 0.438310
vt 0.021634 0.389314
vt 0.020583 0.396249
vt 0.002647 0.392555
vt 0.001758 0.401166
vt 0.000913 0.409709
vt 0.019766 0.403300
vt 0.019238 0.410404
vt 0.000259 0.418189
vt 0.037528 0.404858
vt 0.073292 0.407287
vt 0.256067 0.426458
vt 0.256003 0.428327
s 1
f 1/1/1 2/2/2 6/3/3
f 1/1/4 3/4/4 2/2/4
f 4/5/5 3/4/5 1/1/5
f 4/5/6 1/1/7 5/6/8
f 6/3/3 5/6/9 1/1/1
f 8/7/10 6/3/10 2/2/10
f 5/6/11 6/3/11 9/8/11
f 6/3/12 8/7/12 7/9/13
f 7/9/13 9/8/13 6/3/12
f 9/8/11 10/10/11 5/6/11
f 10/10/14 9/8/15 12/11/16
f 9/8/17 7/9/17 11/12/18
f 11/12/18 12/11/19 9/8/17
f 12/11/16 13/13/20 10/10/14
f 13/13/20 12/11/16 15/14/21
f 12/11/19 11/12/18 14/15/22
f 14/15/22 15/14/23 12/11/19
f 15/14/21 16/16/24 13/13/20
f 16/16/25 15/14/26 17/17/27
f 15/14/28 14/15/28 18/18/29
f 18/18/29 17/17/30 15/14/28
f 17/17/31 18/18/32 19/19/33
f 20/20/34 19/19/34 18/18/35
f 18/18/35 21/21/36 20/20/34
f 21/21/37 18/18/38 14/15/39
f 24/22/40 21/23/40 22/24/41
f 14/15/39 22/25/39 21/21/37
f 23/26/42 20/27/43 21/23/43
f 21/23/43 24/22/43 23/26/42
f 22/24/41 27/28/44 24/22/40
f 25/29/45 23/26/46 24/22/45
f 24/22/45 26/30/45 25/29/45
f 26/30/47 24/22/48 27/28/49
f 27/28/49 28/31/50 26/30/47
f 28/31/51 27/28/52 29/32/53
f 30/33/54 29/32/55 27/28/56
f 27/28/56 22/24/56 30/33/54
f 29/32/55 30/33/54 31/34/57
f 11/12/58 30/35/59 22/25/60
f 30/35/59 11/12/58 7/9/61
f 7/9/61 31/36/61 30/35/59
f 31/34/57 33/37/62 29/32/55
f 8/7/63 32/38/64 31/36/65
f 33/37/66 31/34/67 32/39/67
f 31/36/65 7/9/68 8/7/63
f 35/40/69 29/32/53 33/37/70
f 33/37/70 34/41/71 35/40/69
f 34/41/72 33/37/72 36/42/73
f 32/39/67 36/42/67 33/37/66
f 36/42/74 32/39/75 37/43/76
f 37/43/76 38/44/77 36/42/74
f 39/45/78 36/42/79 38/44/80
f 36/42/73 39/45/72 34/41/72
f 39/45/81 41/46/81 40/47/82
f 40/47/82 34/41/83 39/45/81
f 38/44/80 42/48/84 39/45/78
f 41/46/85 39/45/86 42/48/86
f 38/44/80 3/4/87 42/48/84
f 42/48/86 43/49/86 41/46/85
f 42/48/88 3/4/88 43/49/88
f 43/49/89 4/5/90 44/50/90
f 43/49/91 3/4/91 4/5/91
f 44/50/90 41/46/92 43/49/89
f 44/50/93 5/6/94 10/10/95
f 10/10/95 45/51/94 44/50/93
f 5/6/8 44/50/96 4/5/6
f 41/46/97 44/50/98 45/51/99
f 13/13/100 46/52/101 45/51/102
f 40/47/103 45/51/104 46/52/105
f 45/51/102 10/10/106 13/13/100
f 45/51/99 40/47/99 41/46/97
f 46/52/101 13/13/100 16/16/107
f 16/16/107 48/53/108 46/52/101
f 46/52/105 47/54/109 40/47/103
f 47/54/109 46/52/105 48/53/110
f 48/53/111 16/16/112 51/55/113
f 48/53/110 49/56/114 47/54/109
f 49/56/115 48/53/116 50/57/117
f 51/55/113 50/57/118 48/53/111
f 51/55/119 17/17/120 52/58/121
f 52/58/121 53/59/122 51/55/119
f 17/17/27 51/55/123 16/16/25
f 50/57/124 51/55/125 53/59/126
f 53/59/127 52/58/127 56/60/127
f 53/59/126 54/61/126 50/57/124
f 54/61/128 53/59/128 55/62/128
f 56/60/127 55/62/127 53/59/127
f 55/62/129 56/60/129 58/63/129
f 57/64/130 56/60/130 52/58/130
f 56/60/131 57/64/131 59/65/132
f 59/65/132 58/63/132 56/60/131
f 60/66/133 59/65/133 57/64/133
f 61/67/134 60/68/134 62/69/134
f 57/64/133 62/70/133 60/66/133
f 62/69/134 63/71/134 61/67/134
f 63/71/135 62/69/135 20/27/135
f 19/19/136 20/20/136 62/70/136
f 62/70/136 57/64/136 19/19/136
f 20/27/135 23/26/135 63/71/135
f 64/72/137 63/71/137 23/26/138
f 63/71/139 64/72/139 65/73/139
f 65/73/139 61/67/139 63/71/139
f 66/74/140 65/73/140 64/72/140
f 68/75/141 66/74/141 67/76/141
f 64/72/140 67/76/140 66/74/140
f 67/76/141 69/77/141 68/75/141
f 70/78/142 68/75/142 69/77/142
f 69/77/142 55/62/142 70/78/142
f 58/63/129 70/78/129 55/62/129
f 71/79/143 54/61/143 69/77/144
f 69/77/144 67/76/144 71/79/143
f 55/62/128 69/77/128 54/61/128
f 26/30/145 72/80/145 71/79/146
f 71/79/146 25/29/147 26/30/145
f 25/29/148 71/79/148 67/76/149
f 54/61/150 71/79/151 72/80/150
f 72/80/152 26/30/152 28/31/153
f 72/80/150 50/57/154 54/61/150
f 50/57/117 72/80/155 49/56/115
f 28/31/153 49/56/156 72/80/152
f 67/76/149 64/72/149 25/29/148
f 23/26/138 25/29/138 64/72/137
f 52/58/130 19/19/130 57/64/130
f 19/19/33 52/58/33 17/17/31
f 35/40/157 47/54/158 49/56/159
f 49/56/159 28/31/159 35/40/157
f 47/54/158 35/40/157 34/41/160
f 34/41/160 40/47/160 47/54/158
f 37/43/76 3/4/161 38/44/77
f 73/81/162 37/82/162 32/38/163
f 73/81/164 3/4/164 37/82/164
f 2/2/10 73/81/10 8/7/10
f 2/2/165 3/4/165 73/81/165
f 32/38/163 8/7/166 73/81/162
f 29/32/53 35/40/69 28/31/51
f 22/25/60 14/15/167 11/12/58
