# Blender 4.4.1
# www.blender.org
o Tree_2
v 0.048590 0.000109 -0.024104
v 0.027689 0.000109 0.018331
v 0.038241 0.085221 -0.023421
v 0.017708 0.085221 -0.054118
v 0.022292 0.000109 -0.063423
v -0.019143 0.085221 -0.051686
v -0.024910 0.000109 -0.060307
v -0.035461 0.085221 -0.018555
v -0.045810 0.000109 -0.017872
v -0.019512 0.000109 0.021447
v -0.014928 0.085221 0.012142
v 0.021923 0.085221 0.009709
v -0.011643 0.324198 0.005472
v -0.028042 0.324198 -0.019045
v -0.015008 0.324198 -0.045505
v -0.011310 0.539044 -0.039975
v -0.021403 0.539044 -0.019484
v -0.008704 0.539044 -0.000496
v -0.011030 0.555312 -0.039557
v -0.020900 0.555312 -0.019517
v -0.008481 0.555312 -0.000948
v -0.010749 0.571580 -0.039138
v -0.020398 0.571580 -0.019550
v -0.007050 0.786426 -0.033608
v -0.013759 0.786426 -0.019988
v -0.008258 0.571580 -0.001400
v 0.015769 0.586485 0.000260
v 0.040542 0.594974 0.037247
v 0.046981 0.597910 0.029550
v -0.005318 0.786426 -0.007369
v 0.001389 1.017541 -0.020989
v 0.009831 0.786426 -0.008369
v 0.016539 0.786426 -0.021989
v 0.023178 0.571580 -0.022427
v 0.011038 0.571580 -0.040576
v 0.011260 0.555312 -0.041028
v 0.023680 0.555312 -0.022460
v 0.055564 0.593875 0.025147
v 0.061262 0.585232 0.026617
v 0.081222 0.679306 0.065442
v 0.081867 0.679007 0.067941
v 0.060737 0.577043 0.033098
v 0.024183 0.539044 -0.022493
v 0.054298 0.574107 0.040795
v 0.080591 0.679165 0.070199
v 0.078143 0.679687 0.070893
v 0.078903 0.681065 0.067631
v 0.075956 0.680268 0.069616
v 0.040018 0.586786 0.043729
v 0.045715 0.578142 0.045198
v 0.075311 0.680567 0.067117
v 0.076587 0.680409 0.064859
v 0.079035 0.679886 0.064166
v 0.021567 0.528606 0.005726
v 0.017788 0.324198 0.003529
v 0.030822 0.324198 -0.022931
v 0.014423 0.324198 -0.047449
v 0.011484 0.539044 -0.041480
v 0.008098 0.786426 -0.034608
vn 0.8921 0.1050 0.4394
vn 0.8266 0.1050 -0.5529
vn 0.8266 0.1049 -0.5529
vn -0.0655 0.1050 -0.9923
vn -0.0655 0.1049 -0.9923
vn -0.8921 0.1050 -0.4394
vn -0.8921 0.1049 -0.4394
vn -0.8266 0.1050 0.5529
vn -0.8266 0.1049 0.5529
vn 0.0659 0.0269 0.9975
vn 0.0655 0.1050 0.9923
vn -0.8309 0.0269 0.5558
vn -0.8968 0.0269 -0.4417
vn -0.8967 0.0269 -0.4417
vn -0.8968 0.0268 -0.4417
vn -0.8309 0.0268 0.5557
vn -0.8309 0.0268 0.5558
vn -0.8967 0.0268 -0.4417
vn -0.4829 0.8668 0.1244
vn -0.4829 0.8668 0.1246
vn -0.4829 0.8668 0.1245
vn -0.0301 0.0349 0.9989
vn -0.7022 0.2141 0.6790
vn -0.7022 0.2139 0.6791
vn -0.7022 0.2140 0.6791
vn -0.8298 0.0568 0.5551
vn 0.0658 0.0568 0.9962
vn -0.0300 0.0349 0.9989
vn 0.8957 0.0568 0.4411
vn 0.9362 0.0353 0.3496
vn 0.1562 0.8504 -0.5024
vn 0.8309 0.0268 -0.5558
vn 0.7596 0.1527 -0.6323
vn 0.7596 0.1525 -0.6323
vn 0.9772 -0.1475 -0.1524
vn 0.9772 -0.1475 -0.1525
vn 0.5407 0.2205 -0.8118
vn 0.5408 0.2205 -0.8118
vn 0.8479 -0.1358 -0.5124
vn 0.8479 -0.1360 -0.5124
vn 0.8479 -0.1358 -0.5125
vn 0.7859 -0.6175 -0.0318
vn 0.7859 -0.6176 -0.0318
vn 0.7859 -0.6176 -0.0317
vn 0.7869 -0.3401 0.5150
vn 0.7869 -0.3401 0.5149
vn 0.2844 -0.3217 0.9031
vn 0.2843 -0.3217 0.9031
vn 0.1609 0.8953 0.4155
vn 0.1609 0.8953 0.4154
vn 0.1609 0.8952 0.4156
vn 0.5606 0.8222 0.0989
vn -0.9205 0.2779 0.2748
vn -0.9204 0.2779 0.2749
vn -0.4211 -0.0911 0.9024
vn -0.4210 -0.0911 0.9025
vn -0.1387 0.9903 0.0110
vn -0.7574 0.4670 -0.4564
vn -0.7572 0.4670 -0.4567
vn -0.7572 0.4670 -0.4566
vn -0.1387 0.9903 0.0108
vn -0.2146 0.4500 -0.8669
vn 0.2566 0.9180 -0.3024
vn 0.2566 0.9180 -0.3023
vn 0.2566 0.9180 -0.3025
vn -0.7573 0.4670 -0.4565
vn -0.2364 -0.5324 0.8128
vn -0.2363 -0.5324 0.8128
vn -0.2363 -0.5325 0.8128
vn -0.2365 -0.5324 0.8128
vn -0.6271 -0.0780 0.7750
vn -0.6270 -0.0780 0.7751
vn -0.6270 -0.0781 0.7751
vn 0.9611 0.0048 0.2761
vn 0.9612 0.0048 0.2759
vn -0.0696 0.0101 0.9975
vn -0.0698 0.0101 0.9975
vn 0.8968 0.0269 0.4417
vn 0.8967 0.0269 0.4417
vn 0.8309 0.0269 -0.5558
vn 0.8309 0.0268 -0.5557
vn -0.0659 0.0268 -0.9975
vn -0.0659 0.0269 -0.9975
vn -0.0658 0.0269 -0.9975
vn -0.0658 0.0268 -0.9975
vn -0.6271 -0.0779 0.7750
vn 0.5606 0.8222 0.0987
vn 0.8298 0.0568 -0.5551
vn -0.0658 0.0568 -0.9962
vn -0.8956 0.0568 -0.4412
vt 0.051410 0.602977
vt 0.053197 0.593201
vt 0.071789 0.597613
vt 0.073725 0.589616
vt 0.055761 0.583465
vt 0.076118 0.581840
vt 0.059393 0.573811
vt 0.068694 0.622214
vt 0.068588 0.630413
vt 0.050486 0.632960
vt 0.049922 0.622802
vt 0.050303 0.612826
vt 0.069268 0.613972
vt 0.121579 0.620462
vt 0.070304 0.605752
vt 0.120871 0.626884
vt 0.120379 0.633333
vt 0.167715 0.636684
vt 0.168089 0.631691
vt 0.171292 0.636801
vt 0.168532 0.626735
vt 0.171652 0.631866
vt 0.172148 0.626837
vt 0.174853 0.636942
vt 0.175196 0.632146
vt 0.222503 0.636111
vt 0.222413 0.639448
vt 0.175732 0.627359
vt 0.727404 0.092772
vt 0.717188 0.089496
vt 0.713235 0.085185
vt 0.222758 0.632784
vt 0.180350 0.622935
vt 0.727866 0.090241
vt 0.712759 0.081818
vt 0.273527 0.637087
vt 0.223168 0.629444
vt 0.223767 0.626133
vt 0.177267 0.617388
vt 0.726630 0.095166
vt 0.712503 0.092435
vt 0.174706 0.611870
vt 0.178168 0.612641
vt 0.173711 0.616822
vt 0.725572 0.097205
vt 0.710382 0.095108
vt 0.747448 0.098829
vt 0.747571 0.099382
vt 0.724742 0.099317
vt 0.708173 0.097932
vt 0.724533 0.101654
vt 0.747690 0.099943
vt 0.729084 0.083523
vt 0.748711 0.095830
vt 0.748436 0.096335
vt 0.182841 0.000675
vt 0.183360 0.000386
vt 0.183930 0.000549
vt 0.183453 0.001151
vt 0.184219 0.001068
vt 0.727952 0.087916
vt 0.748109 0.096795
vt 0.747785 0.097245
vt 0.728204 0.085686
vt 0.182679 0.001245
vt 0.747537 0.097736
vt 0.182967 0.001764
vt 0.747417 0.098272
vt 0.184056 0.001638
vt 0.183537 0.001926
vt 0.717973 0.074507
vt 0.712293 0.078278
vt 0.710259 0.103983
vt 0.123624 0.607466
vt 0.170196 0.615828
vt 0.165553 0.620416
vt 0.122546 0.613957
vt 0.124938 0.601121
vt 0.171261 0.610989
vt 0.126464 0.594813
vt 0.172413 0.606118
vt 0.175819 0.607047
vt 0.224512 0.622884
vt 0.179255 0.607949
vt 0.225416 0.619675
s 1
f 2/1/1 1/2/1 3/3/1
f 4/4/2 3/3/3 1/2/2
f 1/2/2 5/5/2 4/4/2
f 6/6/4 4/4/4 5/5/4
f 5/5/4 7/7/5 6/6/4
f 8/8/6 6/9/6 7/10/7
f 7/10/7 9/11/7 8/8/6
f 9/11/8 10/12/8 11/13/8
f 11/13/8 8/8/9 9/11/8
f 13/14/10 11/13/10 12/15/10
f 12/15/11 11/13/11 10/12/11
f 14/16/12 8/8/12 11/13/12
f 11/13/12 13/14/12 14/16/12
f 8/8/13 14/16/14 15/17/14
f 16/18/15 15/17/14 14/16/14
f 14/16/14 17/19/15 16/18/15
f 17/19/16 14/16/12 13/14/12
f 19/20/15 16/18/15 17/19/15
f 13/14/12 18/21/16 17/19/16
f 20/22/16 17/19/16 18/21/16
f 17/19/15 20/22/15 19/20/15
f 18/21/16 21/23/16 20/22/16
f 22/24/15 19/20/15 20/22/15
f 23/25/17 20/22/16 21/23/16
f 20/22/15 23/25/18 22/24/15
f 23/25/18 25/26/18 24/27/18
f 24/27/18 22/24/15 23/25/18
f 25/26/17 23/25/17 26/28/17
f 21/23/16 26/28/17 23/25/17
f 29/29/19 27/30/20 26/31/21
f 30/32/22 26/28/22 27/33/22
f 28/34/23 26/31/24 21/35/25
f 26/31/21 28/34/19 29/29/19
f 26/28/17 30/32/17 25/26/17
f 25/26/26 30/32/26 31/36/26
f 30/32/27 32/37/27 31/36/27
f 27/33/22 32/37/28 30/32/22
f 32/37/29 33/38/29 31/36/29
f 34/39/30 33/38/30 32/37/30
f 32/37/30 27/33/30 34/39/30
f 38/40/31 34/41/31 27/30/31
f 36/42/32 35/43/32 34/39/32
f 33/38/32 34/39/32 35/43/32
f 34/39/32 37/44/32 36/42/32
f 39/45/33 37/46/34 34/41/34
f 34/41/34 38/40/33 39/45/33
f 39/45/35 40/47/36 41/48/36
f 40/47/37 39/45/38 38/40/37
f 41/48/36 42/49/35 39/45/35
f 37/46/39 39/45/40 42/49/40
f 42/49/40 43/50/41 37/46/39
f 43/50/42 42/49/43 44/51/44
f 45/52/45 44/51/45 42/49/45
f 42/49/45 41/48/46 45/52/45
f 44/53/47 45/54/48 46/55/47
f 48/56/49 46/57/50 45/58/49
f 45/58/49 47/59/51 48/56/49
f 47/59/52 45/58/52 41/60/52
f 49/61/53 48/62/54 51/63/53
f 48/62/55 49/61/56 50/64/56
f 50/64/56 46/55/55 48/62/55
f 51/65/57 48/56/57 47/59/57
f 51/63/53 28/34/54 49/61/53
f 28/34/58 51/63/59 52/66/60
f 47/59/57 52/67/61 51/65/57
f 29/29/62 52/66/62 53/68/62
f 40/69/63 53/70/64 52/67/63
f 52/67/63 47/59/65 40/69/63
f 52/66/60 29/29/66 28/34/58
f 38/40/37 53/68/37 40/47/37
f 53/68/62 38/40/62 29/29/62
f 54/71/67 44/53/68 50/64/69
f 50/64/69 18/72/70 54/71/67
f 18/72/71 50/64/72 49/61/73
f 46/55/47 50/64/47 44/53/47
f 44/51/44 54/73/42 43/50/42
f 56/74/74 43/75/75 54/76/75
f 55/77/76 54/76/77 18/21/77
f 54/76/75 55/77/74 56/74/74
f 3/3/78 56/74/79 55/77/79
f 56/74/80 3/3/80 4/4/80
f 4/4/80 57/78/80 56/74/80
f 43/75/81 56/74/80 57/78/80
f 57/78/80 58/79/32 43/75/81
f 58/79/82 57/78/83 15/80/83
f 6/6/84 15/80/83 57/78/83
f 57/78/83 4/4/84 6/6/84
f 37/44/32 43/75/81 58/79/32
f 58/79/32 36/42/32 37/44/32
f 36/42/85 58/79/82 16/81/85
f 15/80/83 16/81/85 58/79/82
f 55/77/79 12/15/78 3/3/78
f 12/15/10 55/77/10 13/14/10
f 18/21/77 13/14/76 55/77/76
f 49/61/73 21/35/86 18/72/71
f 21/35/25 49/61/23 28/34/23
f 41/60/52 40/69/87 47/59/52
f 27/30/31 29/29/31 38/40/31
f 35/43/85 36/42/85 19/82/85
f 16/81/85 19/82/85 36/42/85
f 59/83/85 35/43/85 22/84/85
f 35/43/32 59/83/32 33/38/32
f 19/82/85 22/84/85 35/43/85
f 33/38/88 59/83/88 31/36/88
f 59/83/89 24/85/89 31/36/89
f 22/84/85 24/85/85 59/83/85
f 24/27/90 25/26/90 31/36/90
f 15/17/14 6/9/13 8/8/13
f 3/3/1 12/15/1 2/1/1
f 10/12/11 2/1/11 12/15/11
