# Blender 4.4.1
# www.blender.org
o Tree_10
v -0.030025 0.811954 0.012434
v -0.041918 0.810485 0.012474
v -0.069188 1.024460 0.011961
v -0.021693 0.813424 0.003946
v -0.007688 0.677212 0.008460
v -0.023428 0.675579 0.008527
v -0.034656 0.674902 -0.002598
v -0.002824 0.404830 0.007538
v -0.019534 0.404282 -0.008973
v 0.020649 0.406153 0.007399
v -0.001821 0.269628 0.010964
v -0.021270 0.269245 -0.008241
v -0.019447 0.139133 -0.008210
v -0.019639 0.139330 -0.039382
v -0.021442 0.269628 -0.035574
v -0.019688 0.404830 -0.032464
v 0.002271 0.139807 -0.061566
v -0.002236 0.270552 -0.055023
v 0.033451 0.140284 -0.061765
v 0.025097 0.271476 -0.055195
v -0.003203 0.406153 -0.049172
v -0.007997 0.678845 -0.029696
v 0.020273 0.407477 -0.049312
v -0.023745 0.677212 -0.029625
v -0.050517 0.810485 -0.007921
v -0.042184 0.811954 -0.016408
v -0.034783 0.675579 -0.018403
v -0.050406 0.809876 0.004043
v -0.030290 0.813424 -0.016448
v -0.021802 0.814032 -0.008017
v 0.003236 0.679521 -0.018573
v 0.036986 0.408025 -0.032802
v 0.003357 0.678845 -0.002766
v 0.037139 0.407477 -0.009310
v 0.044718 0.271476 -0.008657
v 0.025512 0.270552 0.010792
v 0.033916 0.139807 0.013492
v 0.002737 0.139330 0.013692
v -0.034183 0.068234 0.001398
v -0.010635 0.068357 0.024648
v 0.022463 0.068652 0.024437
v -0.015371 0.000095 0.033168
v -0.046525 0.000036 0.002406
v -0.046798 0.000095 -0.041375
v -0.016028 0.000238 -0.072531
v -0.034387 0.068357 -0.031694
v -0.011130 0.068652 -0.055243
v 0.021967 0.068948 -0.055454
v 0.027760 0.000381 -0.072809
v 0.058915 0.000440 -0.042048
v 0.045516 0.069070 -0.032204
v 0.059187 0.000381 0.001734
v 0.045722 0.068948 0.000888
v 0.028417 0.000238 0.032890
v 0.055634 0.140481 -0.039864
v 0.055827 0.140284 -0.008691
v 0.044547 0.271859 -0.035990
v -0.066027 1.035871 0.019136
v 0.006622 0.877687 -0.022720
v 0.043319 0.825732 0.019136
v -0.023696 0.813003 -0.049078
v -0.075619 0.862065 -0.022720
v -0.090711 0.800275 0.019136
v -0.075619 0.862065 0.060991
v -0.023696 0.813003 0.087349
v 0.006622 0.877687 0.060991
v -0.006044 0.679116 0.019135
v 0.113363 0.382007 -0.020567
v 0.140952 0.281351 0.068532
v 0.066278 0.272286 -0.088212
v -0.028447 0.370011 -0.070644
v -0.090158 0.261801 -0.013078
v -0.078616 0.369140 0.071636
v -0.015484 0.270866 0.143666
v 0.063194 0.381136 0.121713
v -0.028760 0.782371 0.019136
v 0.074616 0.514008 -0.059067
v 0.137086 0.424851 0.005856
v 0.016167 0.408703 -0.098578
v -0.062883 0.494084 -0.048302
v -0.087001 0.392381 0.023401
v -0.051991 0.493977 0.090624
v 0.033919 0.408528 0.127835
v 0.085510 0.513900 0.079859
v -0.052881 0.967752 0.019135
v 0.049842 0.753963 -0.004260
v 0.075497 0.683157 0.063591
v 0.020407 0.669292 -0.051587
v -0.054230 0.736946 -0.040300
v -0.094113 0.655427 0.004857
v -0.090697 0.736946 0.065008
v -0.039023 0.669292 0.120036
v 0.013376 0.753963 0.101047
v 0.010477 0.528365 0.019135
v 0.068290 0.248166 -0.096176
v 0.154288 0.153673 -0.044519
v -0.021970 0.145326 -0.112605
v -0.081433 0.237992 -0.029719
v -0.089720 0.137092 0.063787
v -0.014853 0.238061 0.120293
v 0.086537 0.145439 0.131873
v 0.134870 0.248235 0.053836
v -0.043215 0.887691 0.019136
v 0.013810 0.635553 -0.091258
v 0.094485 0.552049 -0.062788
v -0.051238 0.535697 -0.100712
v -0.097820 0.615485 -0.024845
v -0.087441 0.519343 0.045447
v -0.030619 0.615485 0.088109
v 0.058281 0.535697 0.083372
v 0.081010 0.635553 0.021696
vn 0.0069 -0.0283 0.9996
vn 0.0072 -0.0283 0.9996
vn 0.0030 0.0028 1.0000
vn 0.6963 0.1299 0.7059
vn 0.7021 0.0956 0.7056
vn 0.7021 0.0956 0.7057
vn 0.7025 0.0956 0.7052
vn -0.6956 -0.1161 0.7090
vn -0.6955 -0.1161 0.7090
vn -0.6957 -0.1161 0.7088
vn -0.7008 -0.0559 0.7111
vn -0.7010 -0.0559 0.7109
vn 0.0053 -0.0033 1.0000
vn 0.0055 -0.0033 1.0000
vn 0.0061 -0.0033 1.0000
vn -0.7030 0.0129 0.7111
vn -0.7027 0.0128 0.7113
vn 0.0046 0.0253 0.9997
vn 0.0050 0.0253 0.9997
vn 0.0049 0.0252 0.9997
vn -0.7027 0.0128 0.7114
vn -0.7025 -0.0097 0.7116
vn -0.9999 0.0127 0.0070
vn -0.9999 0.0129 0.0065
vn -0.9999 0.0128 0.0068
vn -0.9999 -0.0140 0.0061
vn -0.7120 0.0254 -0.7017
vn -0.7123 0.0253 -0.7015
vn -0.7123 0.0253 -0.7014
vn -0.9999 0.0128 0.0069
vn -0.7116 0.0107 -0.7025
vn -0.7117 0.0106 -0.7024
vn -0.7118 0.0106 -0.7023
vn -0.0072 0.0497 -0.9987
vn -0.0075 0.0496 -0.9987
vn -0.0074 0.0496 -0.9987
vn -0.0077 0.0431 -0.9990
vn -0.0083 0.0429 -0.9990
vn -0.7126 0.0252 -0.7011
vn -0.0108 0.0710 -0.9974
vn -0.0103 0.0710 -0.9974
vn -0.0105 0.0710 -0.9974
vn -0.0107 0.0710 -0.9974
vn -0.0081 0.0430 -0.9990
vn -0.7120 -0.0033 -0.7022
vn -0.7117 -0.0033 -0.7025
vn -0.7121 -0.0033 -0.7020
vn -0.7108 -0.0283 -0.7028
vn -0.7106 -0.0283 -0.7030
vn -0.7106 -0.0283 -0.7031
vn -0.0144 0.0956 -0.9953
vn -0.0144 0.0957 -0.9953
vn -0.0151 0.0955 -0.9953
vn -0.9984 -0.0559 0.0056
vn -0.9984 -0.0559 0.0052
vn -0.9984 -0.0559 0.0053
vn -0.9932 -0.1161 0.0030
vn -0.9932 -0.1161 0.0033
vn -0.9962 -0.0874 0.0048
vn -0.6989 -0.0874 0.7099
vn -0.6958 -0.1161 0.7088
vn -0.0194 0.1299 -0.9913
vn -0.7138 0.0028 -0.7003
vn 0.6796 0.2195 -0.7000
vn 0.6862 0.1830 -0.7040
vn 0.6862 0.1830 -0.7041
vn 0.6951 0.1236 -0.7083
vn 0.6953 0.1235 -0.7080
vn 0.9923 0.1236 -0.0031
vn 0.9923 0.1236 -0.0030
vn 0.9831 0.1830 0.0003
vn 0.9831 0.1830 0.0004
vn 0.6950 0.1236 -0.7083
vn 0.7068 0.0710 0.7039
vn 0.7065 0.0710 0.7041
vn 0.7066 0.0710 0.7040
vn 0.7026 0.0956 0.7052
vn 0.9984 0.0556 -0.0052
vn 0.9984 0.0556 -0.0054
vn 0.7098 0.0429 0.7031
vn 0.7095 0.0430 0.7034
vn 0.7094 0.0430 0.7034
vn 0.7094 0.0430 0.7035
vn 0.7067 0.0710 0.7040
vn 0.7092 0.0600 0.7025
vn 0.7094 0.0599 0.7022
vn 0.0060 0.0210 0.9998
vn 0.0061 0.0210 0.9998
vn 0.0055 0.0210 0.9998
vn 0.0043 0.1517 0.9884
vn 0.0040 0.1518 0.9884
vn 0.0047 0.1514 0.9885
vn -0.6837 0.2356 0.6906
vn -0.6835 0.2356 0.6909
vn -0.6836 0.2355 0.6909
vn -0.6835 0.2354 0.6910
vn 0.0055 0.1234 0.9923
vn 0.0052 0.1235 0.9923
vn 0.0057 0.1232 0.9924
vn -0.6963 0.1364 0.7047
vn -0.6961 0.1363 0.7049
vn -0.6963 0.1363 0.7047
vn -0.6962 0.1363 0.7048
vn -0.9840 0.1781 0.0065
vn -0.9840 0.1782 0.0064
vn -0.9840 0.1782 0.0063
vn -0.6943 0.2230 -0.6842
vn -0.6943 0.2231 -0.6843
vn -0.6947 0.2228 -0.6839
vn -0.9840 0.1779 0.0067
vn -0.6947 0.2228 -0.6840
vn -0.7102 0.0717 -0.7003
vn -0.7101 0.0717 -0.7004
vn -0.7104 0.0716 -0.7002
vn -0.9789 0.2043 0.0072
vn -0.9789 0.2042 0.0073
vn -0.9789 0.2043 0.0069
vn -0.9789 0.2044 0.0068
vn -0.7104 0.0716 -0.7001
vn -0.0054 -0.0874 -0.9962
vn -0.0056 -0.0875 -0.9962
vn -0.0052 -0.0874 -0.9962
vn -0.0076 0.2451 -0.9695
vn -0.0075 0.2451 -0.9695
vn 0.6829 0.2328 -0.6924
vn 0.6830 0.2329 -0.6922
vn 0.6828 0.2327 -0.6925
vn 0.9813 0.1925 -0.0057
vn 0.9813 0.1925 -0.0055
vn 0.9813 0.1925 -0.0056
vn 0.6830 0.2328 -0.6924
vn 0.7033 0.1468 0.6956
vn 0.7035 0.1467 0.6954
vn 0.7030 0.1470 0.6958
vn 0.9813 0.1926 -0.0054
vn 0.0056 0.1233 0.9924
vn 0.7031 0.1469 0.6957
vn 0.7115 -0.0064 0.7027
vn 0.7115 -0.0064 0.7026
vn 0.9900 -0.1410 -0.0068
vn 0.9900 -0.1410 -0.0067
vn 0.9900 -0.1411 -0.0069
vn 0.9900 -0.1411 -0.0070
vn 0.7115 -0.0065 0.7026
vn 0.7090 0.0601 0.7026
vn 0.9964 0.0844 -0.0051
vn 0.9964 0.0843 -0.0054
vn 0.9964 0.0843 -0.0055
vn 0.9964 0.0843 -0.0056
vn 0.7009 0.0556 -0.7110
vn 0.7010 0.0556 -0.7110
vn 0.7008 0.0556 -0.7112
vn 0.6996 0.0800 -0.7100
vn 0.6996 0.0800 -0.7101
vn 0.6999 0.0801 -0.7097
vn 0.9984 0.0556 -0.0055
vn 0.7000 0.0801 -0.7097
vn 0.6926 -0.1733 -0.7002
vn 0.6927 -0.1732 -0.7001
vn 0.6925 -0.1734 -0.7003
vn 0.6924 -0.1734 -0.7004
vn -0.0050 -0.0873 -0.9962
vn 0.9756 0.2195 0.0023
vn 0.5939 0.4494 -0.6673
vn 0.5939 0.4493 -0.6673
vn 0.5940 0.4493 -0.6673
vn 0.5939 0.4493 -0.6674
vn 0.5939 0.4493 0.6673
vn 0.5939 0.4494 0.6673
vn -0.7173 0.2003 -0.6673
vn -0.7173 0.2003 0.6673
vn 0.5940 0.4493 0.6673
vn 0.8238 0.3865 -0.4148
vn 0.8238 0.3864 -0.4148
vn 0.3799 0.3788 0.8439
vn -0.4308 0.2804 -0.8578
vn -0.8746 0.2727 0.4009
vn 0.5592 0.4232 -0.7129
vn 0.6635 0.4221 0.6177
vn -0.7577 0.2323 -0.6098
vn -0.6534 0.2313 0.7208
vn 0.7939 0.4286 -0.4313
vn 0.3571 0.4286 0.8299
vn -0.4525 0.2249 -0.8629
vn -0.8893 0.2249 0.3983
vn 0.3105 0.4158 -0.8548
vn 0.8421 0.4164 0.3429
vn 0.8420 0.4164 0.3429
vn -0.8848 0.3346 -0.3242
vn -0.8848 0.3347 -0.3242
vn -0.3533 0.3352 0.8734
vn 0.1822 0.4286 -0.8849
vn 0.8646 0.4286 0.2621
vn -0.9514 0.2249 -0.2105
vn -0.2690 0.2249 0.9365
vt 0.451645 0.612974
vt 0.452026 0.615571
vt 0.421897 0.617915
vt 0.498817 0.606846
vt 0.451380 0.610362
vt 0.421635 0.614453
vt 0.422447 0.593654
vt 0.422904 0.590213
vt 0.452778 0.594731
vt 0.363730 0.581379
vt 0.362267 0.622440
vt 0.363033 0.586492
vt 0.333386 0.582972
vt 0.361902 0.617296
vt 0.332616 0.624769
vt 0.334224 0.577079
vt 0.304665 0.579822
vt 0.332733 0.588870
vt 0.303755 0.586642
vt 0.332288 0.594787
vt 0.362465 0.591617
vt 0.303400 0.593387
vt 0.303360 0.599991
vt 0.332034 0.600751
vt 0.362033 0.596749
vt 0.421522 0.604034
vt 0.361753 0.601884
vt 0.421738 0.600566
vt 0.451908 0.599907
vt 0.451567 0.602506
vt 0.422054 0.597107
vt 0.452317 0.597318
vt 0.451341 0.605118
vt 0.451272 0.607741
vt 0.421429 0.607508
vt 0.361639 0.607018
vt 0.421471 0.610983
vt 0.361688 0.612153
vt 0.331994 0.612778
vt 0.332214 0.618780
vt 0.303565 0.619633
vt 0.304180 0.626356
vt 0.289587 0.630131
vt 0.306155 0.573055
vt 0.289351 0.576041
vt 0.291713 0.569169
vt 0.288401 0.622803
vt 0.275754 0.634608
vt 0.274999 0.572036
vt 0.278280 0.563182
vt 0.272864 0.580957
vt 0.271667 0.589830
vt 0.287970 0.583390
vt 0.287419 0.591083
vt 0.287401 0.599039
vt 0.271183 0.598695
vt 0.271634 0.607565
vt 0.272500 0.616438
vt 0.287424 0.607107
vt 0.273755 0.625439
vt 0.287798 0.615103
vt 0.303382 0.613026
vt 0.303414 0.606515
vt 0.331945 0.606759
vt 0.539277 0.593020
vt 0.531920 0.573620
vt 0.552887 0.562781
vt 0.509039 0.579410
vt 0.519877 0.600376
vt 0.558677 0.585663
vt 0.569515 0.606630
vt 0.546634 0.612419
vt 0.525667 0.623258
vt 0.584953 0.059694
vt 0.607987 0.089149
vt 0.577696 0.119014
vt 0.644273 0.066951
vt 0.614409 0.036659
vt 0.555497 0.082728
vt 0.525633 0.052436
vt 0.561919 0.030238
vt 0.592210 0.000373
vt 0.635740 0.427355
vt 0.657015 0.454563
vt 0.629036 0.482147
vt 0.690532 0.434060
vt 0.662948 0.406080
vt 0.608532 0.448630
vt 0.580948 0.420650
vt 0.614465 0.400147
vt 0.642445 0.372563
vt 0.447125 0.730088
vt 0.432068 0.706932
vt 0.456278 0.686903
vt 0.403940 0.720935
vt 0.423969 0.745146
vt 0.470282 0.715031
vt 0.490311 0.739241
vt 0.462182 0.753245
vt 0.437972 0.773274
vt 0.623310 0.137723
vt 0.647501 0.168268
vt 0.616466 0.196679
vt 0.682267 0.144567
vt 0.653856 0.113532
vt 0.592765 0.161913
vt 0.564354 0.130878
vt 0.599119 0.107177
vt 0.630155 0.078766
vt 0.676878 0.587267
vt 0.696944 0.612929
vt 0.670554 0.638945
vt 0.728556 0.593591
vt 0.702540 0.567201
vt 0.651217 0.607333
vt 0.625201 0.580943
vt 0.656812 0.561605
vt 0.683203 0.535589
s 1
f 1/1/1 2/2/1 6/3/2
f 1/1/3 3/4/3 2/2/3
f 4/5/4 3/4/4 1/1/4
f 4/5/5 1/1/6 5/6/7
f 6/3/2 5/6/2 1/1/1
f 7/7/8 6/8/9 2/9/10
f 8/10/11 6/8/12 7/7/12
f 5/6/13 6/3/14 8/11/15
f 7/7/12 9/12/11 8/10/11
f 8/10/16 9/12/16 12/13/17
f 8/11/15 10/14/15 5/6/13
f 10/14/18 8/11/19 11/15/20
f 12/13/17 11/16/21 8/10/16
f 11/16/22 12/13/22 13/17/22
f 15/18/23 12/13/24 9/12/25
f 14/19/26 13/17/26 12/13/26
f 12/13/26 15/18/26 14/19/26
f 18/20/27 15/18/28 16/21/29
f 9/12/25 16/21/30 15/18/23
f 17/22/31 14/19/31 15/18/32
f 15/18/32 18/20/33 17/22/31
f 19/23/34 17/22/35 18/20/36
f 18/20/36 20/24/37 19/23/34
f 20/24/37 18/20/36 21/25/38
f 16/21/29 21/25/39 18/20/27
f 22/26/40 23/27/41 21/25/42
f 21/25/42 24/28/43 22/26/40
f 21/25/38 23/27/44 20/24/37
f 24/28/45 21/25/46 16/21/47
f 25/29/48 26/30/48 24/28/49
f 24/28/49 27/31/50 25/29/48
f 22/26/51 24/28/52 26/30/53
f 16/21/47 27/31/47 24/28/45
f 27/31/54 16/21/55 9/12/56
f 9/12/56 7/7/54 27/31/54
f 27/31/57 7/7/57 28/32/58
f 28/32/58 25/29/58 27/31/57
f 28/32/59 3/4/59 25/29/59
f 2/9/60 3/4/60 28/32/60
f 2/9/10 28/32/61 7/7/8
f 26/30/62 3/4/62 29/33/62
f 25/29/63 3/4/63 26/30/63
f 26/30/53 29/33/53 22/26/51
f 29/33/64 3/4/64 30/34/64
f 29/33/65 30/34/65 31/35/66
f 31/35/66 22/26/66 29/33/65
f 31/35/67 32/36/68 23/27/68
f 32/36/69 31/35/70 33/37/70
f 33/37/71 31/35/71 30/34/72
f 23/27/68 22/26/73 31/35/67
f 33/37/70 34/38/70 32/36/69
f 34/38/74 33/37/75 5/6/76
f 5/6/7 33/37/77 4/5/5
f 30/34/72 4/5/72 33/37/71
f 32/36/78 34/38/78 35/39/79
f 36/40/80 35/39/81 34/38/82
f 34/38/82 10/14/83 36/40/80
f 5/6/76 10/14/84 34/38/74
f 35/39/85 36/40/85 37/41/86
f 38/42/87 37/41/88 36/40/89
f 36/40/89 11/15/20 38/42/87
f 11/15/20 36/40/89 10/14/18
f 37/41/90 38/42/91 40/43/92
f 13/17/22 38/44/22 11/16/22
f 38/44/93 13/17/94 39/45/95
f 39/45/95 40/46/96 38/44/93
f 40/43/92 41/47/92 37/41/90
f 41/47/97 40/43/98 42/48/99
f 40/46/100 39/45/101 43/49/102
f 43/49/102 42/50/103 40/46/100
f 44/51/104 43/49/105 39/45/106
f 45/52/107 44/51/108 46/53/109
f 39/45/106 46/53/110 44/51/104
f 46/53/109 47/54/111 45/52/107
f 47/54/112 46/53/113 14/19/114
f 13/17/115 14/19/116 46/53/117
f 46/53/117 39/45/118 13/17/115
f 14/19/114 17/22/119 47/54/112
f 48/55/120 47/54/121 17/22/122
f 47/54/123 48/55/123 49/56/123
f 49/56/123 45/52/124 47/54/123
f 50/57/125 49/56/126 48/55/127
f 52/58/128 50/57/129 51/59/130
f 48/55/127 51/59/131 50/57/125
f 54/60/132 52/58/133 53/61/134
f 51/59/130 53/61/135 52/58/128
f 42/48/99 54/60/136 41/47/97
f 53/61/134 41/47/137 54/60/132
f 41/47/138 53/61/138 56/62/139
f 53/61/140 51/59/141 55/63/142
f 55/63/142 56/62/143 53/61/140
f 56/62/139 37/41/144 41/47/138
f 37/41/86 56/62/145 35/39/85
f 57/64/146 35/39/147 56/62/148
f 56/62/148 55/63/149 57/64/146
f 57/64/150 20/24/151 23/27/152
f 20/24/153 57/64/154 55/63/155
f 35/39/79 57/64/156 32/36/78
f 23/27/152 32/36/152 57/64/150
f 55/63/155 19/23/157 20/24/153
f 19/23/158 55/63/159 51/59/160
f 51/59/160 48/55/161 19/23/158
f 17/22/122 19/23/162 48/55/120
f 30/34/163 3/4/163 4/5/163
f 58/65/164 59/66/165 61/67/166
f 58/65/164 60/68/167 59/66/165
f 66/69/168 60/68/169 58/65/168
f 58/65/170 61/67/170 62/70/170
f 62/70/170 63/71/170 58/65/170
f 64/72/171 58/65/171 63/71/171
f 64/72/171 65/73/171 58/65/171
f 58/65/168 65/73/172 66/69/168
f 67/74/173 68/75/173 70/76/173
f 67/74/173 69/77/174 68/75/173
f 75/78/175 69/77/175 67/74/175
f 67/74/176 70/76/176 71/79/176
f 71/79/176 72/80/176 67/74/176
f 73/81/177 67/74/177 72/80/177
f 73/81/177 74/82/177 67/74/177
f 67/74/175 74/82/175 75/78/175
f 76/83/178 77/84/178 79/85/178
f 76/83/178 78/86/178 77/84/178
f 84/87/179 78/86/179 76/83/179
f 76/83/180 79/85/180 80/88/180
f 80/88/180 81/89/180 76/83/180
f 82/90/181 76/83/181 81/89/181
f 82/90/181 83/91/181 76/83/181
f 76/83/179 83/91/179 84/87/179
f 85/92/182 86/93/182 88/94/182
f 85/92/182 87/95/182 86/93/182
f 93/96/183 87/95/183 85/92/183
f 85/92/184 88/94/184 89/97/184
f 89/97/184 90/98/184 85/92/184
f 91/99/185 85/92/185 90/98/185
f 91/99/185 92/100/185 85/92/185
f 85/92/183 92/100/183 93/96/183
f 94/101/186 95/102/186 97/103/186
f 94/101/186 96/104/186 95/102/186
f 102/105/187 96/104/188 94/101/187
f 94/101/189 97/103/189 98/106/189
f 98/106/189 99/107/190 94/101/189
f 100/108/191 94/101/191 99/107/191
f 100/108/191 101/109/191 94/101/191
f 94/101/187 101/109/187 102/105/187
f 103/110/192 104/111/192 106/112/192
f 103/110/192 105/113/192 104/111/192
f 111/114/193 105/113/193 103/110/193
f 103/110/194 106/112/194 107/115/194
f 107/115/194 108/116/194 103/110/194
f 109/117/195 103/110/195 108/116/195
f 109/117/195 110/118/195 103/110/195
f 103/110/193 110/118/193 111/114/193
