# Blender 4.4.1
# www.blender.org
o Tree_6
v -0.001461 1.621004 0.018870
v 0.015250 1.130362 0.011234
v 0.011202 1.113893 0.032635
v -0.019721 1.113893 0.015217
v -0.003566 1.130362 0.000634
v -0.010582 1.113893 0.035161
v 0.015697 0.764320 0.037521
v -0.013203 0.779990 0.040872
v -0.051443 0.796970 0.070359
v -0.058418 0.794414 0.063866
v -0.025323 0.764357 0.014419
v -0.003605 1.097424 0.000096
v -0.003940 0.742617 -0.005639
v -0.027792 0.744086 0.012064
v -0.064810 0.781168 0.060992
v -0.066875 0.764993 0.063421
v -0.105994 0.919471 0.104111
v -0.098427 0.923895 0.096781
v -0.089009 0.927421 0.094185
v -0.056524 1.165857 0.069216
v -0.084542 0.925252 0.105611
v -0.101530 0.917303 0.115537
v -0.107280 0.916740 0.111880
v -0.092111 0.920829 0.112940
v -0.083256 0.927983 0.097842
v -0.047970 0.787340 0.076667
v 0.016094 0.741871 0.037952
v -0.050035 0.771165 0.079096
v -0.056428 0.757919 0.076222
v 0.016234 0.720878 0.038105
v 0.021799 0.742609 0.008857
v 0.033633 0.000061 0.003536
v 0.024796 0.000061 0.047412
v -0.013551 0.720877 0.041558
v -0.019664 0.000061 0.052566
v -0.026042 0.720876 0.014295
v -0.063403 0.755363 0.069729
v -0.038305 0.000061 0.011875
v -0.005367 0.000061 -0.018427
v 0.015801 1.097424 0.011026
v 0.019054 1.113893 0.014965
v 0.037956 1.145889 -0.035597
v 0.036563 1.141903 -0.045909
v 0.038430 1.185220 -0.066528
v 0.028385 1.183987 -0.070693
v 0.026244 1.140855 -0.050097
v 0.017318 1.143793 -0.043972
v 0.018965 1.183636 -0.063421
v -0.007115 1.113893 -0.003472
v 0.018286 1.275877 -0.109571
v 0.019587 1.184518 -0.051983
v 0.017774 1.275538 -0.100117
v 0.006360 1.370645 -0.117113
v 0.025362 1.277153 -0.095668
v 0.003919 1.370316 -0.118063
v 0.008448 1.369879 -0.118520
v 0.003562 1.369222 -0.120420
v 0.026384 1.277830 -0.114577
v 0.005649 1.368457 -0.121827
v 0.008092 1.368786 -0.120877
v 0.033973 1.279445 -0.110128
v 0.033462 1.279106 -0.100674
v 0.039052 1.186103 -0.055090
v 0.029630 1.185751 -0.047818
v 0.029028 1.148827 -0.029472
v 0.018709 1.147778 -0.033660
vn 0.4906 0.0303 -0.8709
vn 0.9777 0.0301 0.2081
vn 0.1151 0.0298 0.9929
vn -0.9087 0.0297 0.4164
vn -0.6864 0.0300 -0.7266
vn 0.1200 0.0157 0.9926
vn 0.1200 0.0157 0.9927
vn 0.1199 0.0157 0.9927
vn -0.9108 0.0139 0.4126
vn 0.5480 0.7456 0.3791
vn 0.5480 0.7455 0.3793
vn 0.0257 0.8688 -0.4945
vn -0.6773 0.0125 -0.7356
vn -0.5815 0.1634 -0.7970
vn -0.6780 0.2848 -0.6776
vn -0.6779 0.2850 -0.6777
vn -0.6779 0.2850 -0.6776
vn -0.8064 -0.0631 -0.5880
vn -0.1831 0.1887 -0.9648
vn -0.1831 0.1882 -0.9649
vn -0.7162 0.0043 -0.6979
vn -0.1833 0.1887 -0.9648
vn -0.7077 0.0422 -0.7052
vn -0.2412 -0.0685 -0.9681
vn 0.9870 -0.0953 0.1298
vn 0.6829 0.0277 0.7300
vn 0.6862 0.0300 0.7268
vn 0.6833 0.0283 0.7296
vn 0.5407 -0.1602 -0.8258
vn 0.2136 0.1415 0.9666
vn -0.5371 0.2475 0.8064
vn -0.9783 0.1826 -0.0976
vn 0.5486 0.3005 -0.7802
vn 0.9704 0.2351 0.0555
vn 0.9704 0.2351 0.0557
vn 0.5370 0.0392 0.8426
vn 0.5370 0.0392 0.8427
vn 0.5480 0.7456 0.3793
vn 0.6822 0.0271 0.7306
vn 0.4353 -0.1500 0.8877
vn 0.4353 -0.1499 0.8877
vn 0.4352 -0.1501 0.8878
vn 0.1739 -0.1801 0.9681
vn 0.1741 -0.1801 0.9681
vn 0.4352 -0.1501 0.8877
vn 0.9803 0.0142 0.1971
vn 0.9806 0.0148 0.1953
vn 0.9811 0.0087 0.1935
vn 0.9809 0.0208 0.1934
vn 0.9802 0.0142 0.1974
vn 0.1151 0.0142 0.9932
vn -0.0117 -0.6904 0.7233
vn -0.0119 -0.6905 0.7232
vn -0.9090 0.0141 0.4165
vn -0.6187 -0.7825 0.0699
vn -0.6187 -0.7825 0.0697
vn -0.5325 -0.3441 0.7734
vn -0.5325 -0.3441 0.7733
vn -0.5324 -0.3441 0.7734
vn -0.9692 -0.2391 -0.0593
vn -0.9692 -0.2391 -0.0595
vn -0.6187 -0.7825 0.0698
vn -0.9091 0.0141 0.4164
vn -0.6772 0.0140 -0.7356
vn -0.5964 -0.1213 -0.7935
vn -0.6773 0.0141 -0.7356
vn 0.4906 0.0141 -0.8712
vn 0.4907 0.0141 -0.8712
vn 0.4907 0.0138 -0.8712
vn 0.9803 0.0154 0.1969
vn 0.4907 0.0136 -0.8712
vn 0.9809 0.0200 0.1936
vn 0.9432 -0.3053 0.1308
vn 0.9432 -0.3052 0.1309
vn 0.8805 -0.2675 0.3913
vn 0.9432 -0.3054 0.1308
vn 0.2927 -0.8023 -0.5202
vn 0.2929 -0.8024 -0.5200
vn 0.9945 -0.0718 -0.0760
vn 0.3850 -0.4117 -0.8260
vn 0.2926 -0.8023 -0.5202
vn -0.5865 -0.3301 -0.7396
vn -0.6628 -0.3367 -0.6689
vn -0.6627 -0.3367 -0.6689
vn -0.7900 0.3031 -0.5329
vn -0.7945 -0.2855 -0.5359
vn -0.8675 0.4091 -0.2830
vn -0.8676 0.4090 -0.2830
vn -0.8675 0.4090 -0.2830
vn -0.4955 -0.3841 -0.7791
vn -0.9999 -0.0107 0.0056
vn -0.9946 0.0704 0.0763
vn -0.4861 0.0969 0.8685
vn -0.4861 0.0965 0.8685
vn -0.4862 0.0969 0.8685
vn -0.4535 0.4031 0.7949
vn -0.9886 -0.1507 -0.0033
vn -0.9886 -0.1507 -0.0032
vn 0.0442 0.9036 -0.4261
vn 0.0442 0.9035 -0.4262
vn 0.0442 0.9036 -0.4262
vn 0.0442 0.9036 -0.4260
vn -0.5088 -0.1809 -0.8416
vn -0.5088 -0.1809 -0.8417
vn 0.0441 0.9035 -0.4262
vn 0.4687 0.0331 -0.8828
vn 0.4687 0.0331 -0.8827
vn 0.9625 0.2712 -0.0047
vn 0.9625 0.2712 -0.0048
vn 0.4850 0.2917 0.8244
vn 0.4851 0.2917 0.8244
vn 0.4846 0.4158 0.7696
vn 0.4845 0.4158 0.7696
vn 0.9987 0.0504 -0.0067
vn 0.5845 0.3469 0.7335
vn -0.3845 0.4175 0.8233
vn -0.2056 0.9176 0.3401
vn -0.8675 0.4091 -0.2829
vn 0.7488 0.4289 0.5053
vn 0.7487 0.4290 0.5053
vn 0.7488 0.4290 0.5053
vn 0.7489 0.4288 0.5053
vn 0.4557 -0.3625 -0.8130
vn -0.4954 -0.3841 -0.7791
vn 0.8746 0.2901 0.3886
vt 0.356321 0.554074
vt 0.249192 0.565892
vt 0.248775 0.561170
vt 0.245138 0.546894
vt 0.249172 0.542444
vt 0.244956 0.551723
vt 0.244934 0.556556
vt 0.168380 0.543891
vt 0.172044 0.550208
vt 0.254155 0.525203
vt 0.260358 0.521873
vt 0.273000 0.518229
vt 0.168036 0.556366
vt 0.271920 0.515767
vt 0.256613 0.520287
vt 0.241294 0.561435
vt 0.163266 0.562859
vt 0.163528 0.556532
vt 0.253345 0.518656
vt 0.268855 0.513891
vt 0.265554 0.512406
vt 0.300978 0.503941
vt 0.299396 0.502053
vt 0.302355 0.505729
vt 0.352790 0.489078
vt 0.302963 0.507143
vt 0.303024 0.508963
vt 0.302971 0.511421
vt 0.303136 0.513672
vt 0.303681 0.515129
vt 0.298386 0.500522
vt 0.272207 0.521147
vt 0.270573 0.524379
vt 0.252946 0.529576
vt 0.251872 0.534165
vt 0.269797 0.527436
vt 0.001044 0.526931
vt 0.163759 0.537239
vt 0.158344 0.543439
vt 0.163273 0.544323
vt 0.000520 0.536763
vt 0.157487 0.549871
vt 0.257475 0.535748
vt 0.000223 0.546642
vt 0.158393 0.556380
vt 0.249226 0.515897
vt 0.249057 0.510029
vt 0.263557 0.510665
vt 0.270422 0.529582
vt 0.000138 0.556468
vt 0.000247 0.566294
vt 0.163449 0.569342
vt 0.000546 0.576115
vt 0.241727 0.541857
vt 0.241418 0.566323
vt 0.625820 0.018777
vt 0.612886 0.025158
vt 0.609760 0.022224
vt 0.245407 0.542632
vt 0.625665 0.016300
vt 0.608606 0.016796
vt 0.635771 0.013141
vt 0.635261 0.010571
vt 0.624932 0.013819
vt 0.633832 0.008159
vt 0.610657 0.013075
vt 0.623635 0.011741
vt 0.245026 0.561539
vt 0.612178 0.009135
vt 0.657512 0.002328
vt 0.656906 0.000395
vt 0.632318 0.005994
vt 0.667645 0.004507
vt 0.668847 0.004088
vt 0.659273 0.012569
vt 0.658088 0.010810
vt 0.637035 0.020887
vt 0.666669 0.004307
vt 0.664902 0.003478
vt 0.665874 0.003998
vt 0.665268 0.003681
vt 0.657929 0.004388
vt 0.657971 0.006459
vt 0.657805 0.008612
vt 0.635782 0.018623
vt 0.635609 0.015860
vt 0.626036 0.021289
vt 0.627407 0.023606
vt 0.616682 0.027093
vt 0.620185 0.030818
vt 0.622646 0.009404
s 1
f 1/1/1 2/2/1 5/3/1
f 1/1/2 3/4/2 2/5/2
f 1/1/3 6/6/3 3/4/3
f 1/1/4 4/7/4 6/6/4
f 1/1/5 5/3/5 4/7/5
f 7/8/6 3/4/7 6/6/8
f 6/6/8 8/9/6 7/8/6
f 8/9/9 6/6/9 4/7/9
f 7/10/10 8/11/10 9/12/11
f 4/7/9 11/13/9 8/9/9
f 10/14/12 9/12/12 8/11/12
f 8/11/12 11/15/12 10/14/12
f 11/13/13 4/7/13 12/16/13
f 12/16/13 13/17/13 11/13/13
f 14/18/14 11/13/14 13/17/14
f 11/15/15 14/19/15 15/20/16
f 15/20/16 10/14/17 11/15/15
f 16/21/18 15/20/18 14/19/18
f 10/14/19 15/20/19 18/22/20
f 15/20/21 16/21/21 17/23/21
f 17/23/21 18/22/21 15/20/21
f 18/22/20 19/24/22 10/14/19
f 17/23/23 20/25/23 18/22/23
f 18/22/24 20/25/24 19/24/24
f 25/26/25 20/25/25 21/27/25
f 21/27/26 20/25/27 24/28/28
f 19/24/29 20/25/29 25/26/29
f 24/28/30 20/25/30 22/29/30
f 22/29/31 20/25/31 23/30/31
f 23/31/32 20/25/32 17/23/32
f 19/24/33 25/26/33 9/12/33
f 26/32/34 9/12/34 25/26/35
f 25/26/35 21/27/35 26/32/34
f 26/32/36 28/33/36 27/34/37
f 27/34/37 7/10/37 26/32/36
f 9/12/11 26/32/38 7/10/10
f 28/33/39 26/32/39 21/27/26
f 30/35/40 27/34/41 28/33/42
f 29/36/43 28/33/43 24/28/44
f 28/33/42 29/36/45 30/35/40
f 21/27/26 24/28/28 28/33/39
f 32/37/46 31/38/47 30/39/48
f 31/38/47 27/40/49 30/39/48
f 30/39/50 33/41/46 32/37/46
f 33/41/51 30/39/51 34/42/51
f 34/43/52 30/35/52 29/36/53
f 34/42/51 35/44/51 33/41/51
f 35/44/54 34/42/54 36/45/54
f 36/46/55 34/47/55 37/48/56
f 29/36/53 37/49/53 34/43/52
f 37/49/57 29/36/58 22/29/59
f 16/21/60 37/48/60 23/31/61
f 37/48/56 16/21/62 36/46/55
f 22/29/59 23/30/59 37/49/57
f 36/45/63 38/50/63 35/44/63
f 38/50/64 36/45/64 13/17/64
f 36/45/65 14/18/65 13/17/65
f 14/19/18 36/46/18 16/21/18
f 13/17/66 39/51/66 38/50/66
f 31/52/67 32/53/67 39/51/67
f 39/51/68 13/17/69 31/52/69
f 31/38/47 40/54/70 3/4/70
f 40/55/71 31/52/69 13/17/69
f 31/38/47 7/8/72 27/40/49
f 3/4/70 7/8/72 31/38/47
f 42/56/73 41/57/74 40/58/73
f 40/54/75 41/59/75 3/4/75
f 40/58/73 43/60/76 42/56/73
f 43/60/77 40/58/78 12/61/78
f 13/17/69 12/16/71 40/55/71
f 42/56/79 43/60/79 44/62/79
f 45/63/80 44/62/80 43/60/80
f 43/60/80 46/64/80 45/63/80
f 12/61/78 46/64/81 43/60/77
f 48/65/82 45/63/82 46/64/82
f 49/66/83 47/67/84 46/64/83
f 46/64/82 47/67/82 48/65/82
f 46/64/83 12/61/83 49/66/83
f 4/7/85 5/3/85 49/68/85
f 4/7/86 49/68/86 12/16/86
f 47/67/87 49/66/88 5/69/89
f 45/63/90 48/65/90 50/70/90
f 52/71/91 50/70/91 48/65/91
f 51/72/92 48/65/92 47/67/92
f 48/65/91 51/72/91 52/71/91
f 53/73/93 55/74/93 52/75/94
f 52/75/94 54/76/95 53/73/93
f 54/76/96 52/75/96 51/77/96
f 50/70/97 52/71/97 55/74/98
f 55/74/99 53/73/100 56/78/101
f 56/78/101 57/79/102 55/74/99
f 55/74/98 57/79/98 50/70/97
f 57/79/102 56/78/101 60/80/102
f 57/79/103 59/81/103 58/82/104
f 58/82/104 50/70/104 57/79/103
f 60/80/102 59/81/105 57/79/102
f 59/81/106 60/80/106 61/83/107
f 62/84/108 61/83/108 60/80/109
f 60/80/109 56/78/109 62/84/108
f 54/76/110 62/84/110 56/78/111
f 62/84/112 54/76/113 64/85/112
f 61/83/114 62/84/114 63/86/114
f 64/85/112 63/86/112 62/84/112
f 63/86/115 64/85/115 65/87/115
f 66/88/116 65/87/116 64/85/116
f 64/85/116 51/77/116 66/88/116
f 51/77/96 64/85/96 54/76/96
f 2/89/117 65/87/117 66/88/117
f 66/88/117 5/90/117 2/89/117
f 47/67/92 66/91/92 51/72/92
f 5/69/89 66/91/118 47/67/87
f 65/87/115 42/56/115 63/86/115
f 41/57/119 42/56/120 65/87/121
f 65/87/121 2/89/122 41/57/119
f 63/86/114 44/62/114 61/83/114
f 44/62/79 63/86/79 42/56/79
f 61/83/107 58/82/107 59/81/106
f 58/82/123 61/83/123 44/62/123
f 44/62/123 45/63/123 58/82/123
f 50/70/90 58/82/124 45/63/90
f 56/78/111 53/73/111 54/76/110
f 41/59/125 2/5/125 3/4/125
f 24/28/44 22/29/44 29/36/43
f 23/31/61 17/23/61 16/21/60
f 9/12/33 10/14/33 19/24/33
