# Blender 4.4.1
# www.blender.org
o Tree_12
v -0.000001 0.000018 -0.072149
v 0.063262 0.000018 -0.035624
v -0.000001 0.089483 -0.046045
v -0.040657 0.089483 -0.022572
v -0.063264 0.000018 -0.035624
v -0.040657 0.089483 0.024374
v -0.063264 0.000018 0.037426
v -0.000001 0.089483 0.047847
v -0.000001 0.000018 0.073951
v 0.040655 0.089483 0.024374
v 0.063262 0.000018 0.037426
v 0.040655 0.089483 -0.022572
v 0.001094 0.691240 0.000901
v 0.001831 0.644005 0.000901
v -0.002953 0.434333 -0.068619
v 0.077945 0.436849 -0.009868
v -0.077489 0.353834 -0.051524
v -0.075601 0.437844 0.013342
v 0.019182 0.435206 0.071045
v 0.084863 0.353298 0.055248
v 0.059441 0.322040 0.036167
v 0.049913 0.397634 -0.004730
v 0.002584 0.580043 0.000910
v 0.000035 0.396066 -0.039005
v 0.046549 0.315405 -0.044066
v 0.064973 0.345397 -0.070695
v -0.053147 0.321478 -0.030076
v -0.047163 0.395631 0.009793
v 0.014232 0.397293 0.041822
v -0.025850 0.319605 0.047544
v -0.043290 0.349480 0.075583
v -0.057718 0.507183 0.004868
v 0.002933 0.530494 -0.048035
v 0.001831 0.726271 0.000901
v -0.016295 0.483575 0.060680
v -0.036591 0.469235 0.047273
v 0.002224 0.555816 0.041371
v -0.008586 0.490822 -0.049504
v -0.025410 0.463388 -0.041387
v 0.063370 0.499144 -0.004927
v 0.042150 0.480505 0.038833
v 0.006394 0.497841 0.059164
v 0.047052 0.470818 -0.040749
v 0.014115 0.478524 -0.064650
v -0.001888 0.429706 0.002430
v -0.049416 0.130786 -0.137681
v 0.139713 0.132629 -0.051791
v -0.114691 0.096378 -0.053752
v -0.135290 0.127966 0.051444
v 0.053840 0.129809 0.137334
v 0.120011 0.098665 0.052835
v 0.108456 0.086253 0.047403
v 0.129229 0.117018 -0.047910
v -0.001564 0.406055 0.002224
v -0.045190 0.115318 -0.127119
v 0.050788 0.086799 -0.106190
v 0.055944 0.099271 -0.117807
v -0.102798 0.084195 -0.048534
v -0.124383 0.112717 0.047295
v 0.050036 0.114417 0.126504
v -0.045131 0.083649 0.105059
v -0.050623 0.095772 0.116890
v 0.002482 0.586420 0.000901
v 0.032981 0.246040 -0.124814
v 0.127327 0.243308 0.025903
v -0.050828 0.213346 -0.103220
v -0.112067 0.248324 -0.034754
v -0.016918 0.240968 0.120152
v 0.067173 0.204550 0.090408
v 0.031301 0.223732 0.033959
v 0.062814 0.239718 0.010538
v 0.003206 0.462008 -0.000056
v 0.019261 0.239281 -0.060411
v 0.042723 0.223929 -0.023645
v 0.098192 0.205053 -0.057579
v -0.015942 0.225746 -0.045759
v -0.048103 0.239563 -0.019259
v -0.003098 0.236332 0.054600
v -0.035540 0.222282 0.021290
v -0.094226 0.206198 0.057010
v 0.002730 0.612931 -0.028026
v 0.014955 0.621729 -0.014251
v 0.001831 0.726399 0.000901
v -0.012841 0.630837 -0.009359
v -0.029618 0.614006 0.003012
v -0.012671 0.629014 0.013133
v 0.001742 0.614324 0.029390
v 0.016713 0.628335 0.011190
v 0.031616 0.613778 0.000816
vn 0.4848 0.2450 -0.8396
vn -0.4848 0.2450 -0.8396
vn -0.9695 0.2450 -0.0000
vn -0.4848 0.2450 0.8396
vn 0.4848 0.2450 0.8396
vn 0.9695 0.2450 -0.0000
vn 0.4989 0.0665 -0.8641
vn 0.9978 0.0656 -0.0000
vn -0.4988 0.0683 0.8640
vn 0.4989 0.0665 0.8641
vn -0.9976 0.0692 -0.0000
vn -0.4988 0.0683 -0.8640
vn -0.7052 0.3081 -0.6385
vn -0.7053 0.3081 -0.6385
vn -0.7053 0.3081 -0.6384
vn 0.5538 0.3031 -0.7755
vn 0.7627 0.3226 0.5605
vn 0.7628 0.3226 0.5604
vn -0.7054 0.3081 -0.6384
vn -0.4928 0.2841 0.8225
vn 0.7627 0.3226 0.5606
vn -0.4043 -0.3977 0.8237
vn -0.4042 -0.3976 0.8237
vn -0.4043 -0.3977 0.8236
vn 0.6580 -0.3692 -0.6563
vn 0.6581 -0.3691 -0.6563
vn 0.6579 -0.3693 -0.6563
vn -0.7676 -0.2498 -0.5902
vn -0.7677 -0.2498 -0.5902
vn -0.5466 -0.2278 0.8058
vn 0.8211 -0.3411 0.4577
vn 0.8211 -0.3411 0.4576
vn -0.5466 -0.2279 0.8058
vn 0.8212 -0.3411 0.4575
vn -0.6350 -0.4007 -0.6605
vn 0.5538 0.3032 -0.7755
vn -0.6350 -0.4007 -0.6604
vn 0.7002 -0.2318 0.6752
vn 0.7002 -0.2318 0.6753
vn 0.3735 -0.4442 -0.8143
vn 0.3736 -0.4442 -0.8143
vn 0.3735 -0.4442 -0.8144
vn -0.7140 -0.3615 0.5996
vn -0.7141 -0.3614 0.5996
vn 0.4571 -0.2049 -0.8655
vn -0.7139 -0.3616 0.5996
vn -0.8624 -0.4368 -0.2558
vn -0.8625 -0.4368 -0.2557
vn 0.6857 -0.3918 0.6134
vn 0.6857 -0.3917 0.6135
vn -0.4928 0.2842 0.8224
vn 0.6857 -0.3919 0.6133
vn -0.4044 -0.3977 0.8236
vn -0.7676 -0.2498 -0.5903
vn -0.6890 0.2227 -0.6897
vn -0.6844 0.1732 -0.7083
vn -0.6144 0.1809 0.7679
vn -0.6766 0.3476 0.6492
vn -0.6765 0.3477 0.6492
vn -0.6890 0.2228 -0.6897
vn 0.6970 0.3484 0.6267
vn 0.6971 0.3484 0.6267
vn 0.6896 0.1688 0.7042
vn 0.6970 0.3484 0.6268
vn 0.6390 0.3915 -0.6621
vn 0.6337 0.1909 -0.7496
vn -0.8538 0.3534 -0.3824
vn -0.8537 0.3534 -0.3825
vn 0.3804 0.3743 -0.8457
vn 0.8439 0.3699 0.3887
vn 0.8439 0.3699 0.3886
vn -0.8538 0.3534 -0.3823
vn -0.3903 0.3490 0.8520
vn 0.8438 0.3699 0.3887
vn 0.4942 -0.6259 0.6033
vn 0.7865 -0.6163 -0.0403
vn -0.8516 -0.3483 -0.3918
vn -0.3841 -0.3527 0.8533
vn 0.6172 -0.6147 -0.4911
vn -0.3841 -0.3528 0.8533
vn -0.0264 -0.6210 -0.7834
vn 0.3804 0.3744 -0.8457
vn 0.8609 -0.3316 0.3859
vn -0.4771 -0.6286 -0.6142
vn -0.7693 -0.6382 0.0294
vn 0.3934 -0.3272 -0.8592
vn -0.6000 -0.6398 0.4802
vn 0.3933 -0.3273 -0.8592
vn 0.0436 -0.6335 0.7725
vn -0.3903 0.3491 0.8519
vn -0.8515 -0.3483 -0.3919
vn -0.5001 0.2983 -0.8130
vn -0.5000 0.2983 -0.8130
vn 0.8155 0.2822 -0.5054
vn 0.5223 0.2775 0.8063
vn 0.5224 0.2775 0.8063
vn -0.5002 0.2983 -0.8129
vn -0.8115 0.2819 0.5118
vn 0.5223 0.2775 0.8064
vn -0.3957 -0.9176 -0.0379
vn 0.1501 -0.9018 -0.4053
vn 0.1498 -0.9018 -0.4053
vn 0.1500 -0.9018 -0.4053
vn -0.5401 -0.1810 -0.8219
vn -0.5403 -0.1810 -0.8218
vn -0.8362 -0.1898 0.5145
vn -0.0476 -0.9000 0.4333
vn -0.8362 -0.1897 0.5145
vn -0.3878 -0.9076 -0.1609
vn -0.3878 -0.9076 -0.1610
vn 0.8154 0.2823 -0.5053
vn 0.5098 -0.2030 0.8360
vn 0.5102 -0.2030 0.8358
vn 0.3570 -0.9339 -0.0188
vn 0.3569 -0.9339 -0.0188
vn -0.1856 -0.9362 0.2984
vn -0.1857 -0.9362 0.2984
vn 0.8363 -0.1812 -0.5175
vn 0.8362 -0.1813 -0.5175
vn -0.0126 -0.9133 -0.4072
vn 0.3146 -0.9418 0.1188
vn 0.3146 -0.9418 0.1187
vn -0.8115 0.2820 0.5118
vn 0.6719 0.1879 -0.7164
vn -0.6636 0.1799 -0.7261
vn -0.6950 0.1814 -0.6957
vn -0.6210 0.1880 0.7609
vn -0.6438 0.1890 0.7415
vn 0.6882 0.1782 0.7033
vn 0.6731 0.1775 0.7179
vn 0.7066 0.1874 -0.6824
vt 0.688867 0.236332
vt 0.684685 0.251437
vt 0.666774 0.242364
vt 0.662213 0.190747
vt 0.657789 0.181307
vt 0.671579 0.167720
vt 0.679810 0.180397
vt 0.665509 0.200747
vt 0.685085 0.193760
vt 0.667647 0.211101
vt 0.688285 0.207480
vt 0.668605 0.221624
vt 0.689659 0.221622
vt 0.668334 0.232120
vt 0.536696 0.230052
vt 0.656778 0.512244
vt 0.631728 0.518924
vt 0.619506 0.494497
vt 0.660203 0.531632
vt 0.682187 0.525875
vt 0.644220 0.489547
vt 0.676490 0.502013
vt 0.687979 0.532728
vt 0.661938 0.542946
vt 0.692111 0.520126
vt 0.695233 0.541163
vt 0.711566 0.527296
vt 0.628889 0.554614
vt 0.720310 0.553379
vt 0.635089 0.544562
vt 0.619991 0.522345
vt 0.733116 0.507781
vt 0.608606 0.489917
vt 0.708867 0.504515
vt 0.640597 0.478963
vt 0.688054 0.497159
vt 0.669937 0.464594
vt 0.704942 0.478109
vt 0.667234 0.476253
vt 0.186507 0.834845
vt 0.166488 0.813477
vt 0.180056 0.810325
vt 0.165461 0.833861
vt 0.164001 0.847944
vt 0.185197 0.858654
vt 0.192769 0.853766
vt 0.190915 0.811719
vt 0.138426 0.844538
vt 0.143401 0.828334
vt 0.146878 0.855610
vt 0.141474 0.812710
vt 0.151246 0.803114
vt 0.076211 0.483990
vt 0.031924 0.488689
vt 0.034772 0.450833
vt 0.081939 0.527670
vt 0.118851 0.515845
vt 0.071040 0.439707
vt 0.120081 0.479743
vt 0.123265 0.518110
vt 0.082413 0.531785
vt 0.166542 0.491486
vt 0.154799 0.535969
vt 0.209816 0.502665
vt 0.040583 0.528622
vt 0.191133 0.534045
vt 0.043576 0.524881
vt 0.027796 0.489145
vt 0.208440 0.466357
vt 0.031030 0.447840
vt 0.177627 0.447716
vt 0.070577 0.435579
vt 0.123755 0.479779
vt 0.111854 0.439342
vt 0.141864 0.449021
vt 0.108864 0.443080
vt 0.433993 0.554290
vt 0.396763 0.551047
vt 0.399278 0.514513
vt 0.455544 0.584421
vt 0.487218 0.562374
vt 0.430337 0.499245
vt 0.484109 0.530699
vt 0.491959 0.558200
vt 0.460223 0.594834
vt 0.517874 0.544472
vt 0.507035 0.570324
vt 0.541984 0.557844
vt 0.417457 0.588584
vt 0.526612 0.573813
vt 0.417137 0.586334
vt 0.387345 0.553966
vt 0.546249 0.538859
vt 0.396508 0.514850
vt 0.427776 0.487449
vt 0.532473 0.523155
vt 0.495993 0.532209
vt 0.512319 0.516743
vt 0.467056 0.498619
vt 0.465151 0.501635
vt 0.987983 0.103589
vt 0.975741 0.110186
vt 0.980360 0.099394
vt 0.983840 0.114483
vt 0.979970 0.123381
vt 0.971910 0.119258
vt 0.962623 0.114837
vt 0.966854 0.104663
vt 0.969969 0.096764
s 1
f 2/1/1 1/2/1 3/3/1
f 4/4/2 3/5/2 1/6/2
f 1/6/2 5/7/2 4/4/2
f 6/8/3 4/4/3 5/7/3
f 5/7/3 7/9/3 6/8/3
f 8/10/4 6/8/4 7/9/4
f 7/9/4 9/11/4 8/10/4
f 10/12/5 8/10/5 9/11/5
f 9/11/5 11/13/5 10/12/5
f 12/14/6 10/12/6 11/13/6
f 11/13/6 2/1/6 12/14/6
f 12/14/7 3/3/7 13/15/7
f 3/3/1 12/14/1 2/1/1
f 10/12/8 12/14/8 13/15/8
f 6/8/9 8/10/9 13/15/9
f 8/10/10 10/12/10 13/15/10
f 4/4/11 6/8/11 13/15/11
f 3/5/12 4/4/12 13/15/12
f 14/16/13 15/17/14 17/18/15
f 15/17/16 14/16/16 16/19/16
f 20/20/17 16/19/18 14/16/17
f 17/18/15 18/21/19 14/16/13
f 19/22/20 14/16/20 18/21/20
f 14/16/17 19/22/21 20/20/17
f 21/23/22 20/20/23 19/22/24
f 20/20/25 21/23/26 22/24/27
f 22/24/27 16/19/27 20/20/25
f 23/25/28 22/26/29 21/23/28
f 22/26/30 23/25/30 24/27/30
f 16/19/31 22/24/31 25/28/32
f 24/27/30 25/29/33 22/26/30
f 25/28/32 26/30/34 16/19/31
f 26/30/35 25/28/35 24/31/35
f 16/19/16 26/30/36 15/17/16
f 24/31/35 15/17/37 26/30/35
f 27/32/38 24/27/39 23/25/39
f 15/17/40 24/31/41 27/33/42
f 23/25/39 28/34/38 27/32/38
f 27/33/42 17/18/42 15/17/40
f 17/18/43 27/33/44 28/35/43
f 28/34/45 23/25/45 29/36/45
f 28/35/43 18/21/46 17/18/43
f 18/21/47 28/35/47 30/37/48
f 29/36/45 30/38/45 28/34/45
f 31/39/49 30/37/50 29/36/49
f 30/37/48 31/39/48 18/21/47
f 18/21/20 31/39/51 19/22/20
f 29/36/49 19/22/52 31/39/49
f 19/22/24 29/36/53 21/23/22
f 21/23/28 29/36/54 23/25/28
f 32/40/55 33/41/55 38/42/55
f 32/40/56 34/43/56 33/41/56
f 32/40/57 37/44/57 34/43/57
f 35/45/58 37/44/58 32/40/59
f 32/40/59 36/46/58 35/45/58
f 38/42/60 39/47/55 32/40/60
f 41/48/61 40/49/62 37/44/61
f 37/44/63 40/49/63 34/43/63
f 37/44/61 42/50/64 41/48/61
f 33/41/65 40/49/65 43/51/65
f 33/41/66 34/43/66 40/49/66
f 43/51/65 44/52/65 33/41/65
f 45/53/67 46/54/68 48/55/67
f 46/54/69 45/53/69 47/56/69
f 51/57/70 47/56/71 45/53/70
f 48/55/67 49/58/72 45/53/67
f 50/59/73 45/53/73 49/58/73
f 45/53/70 50/59/74 51/57/70
f 52/60/75 51/57/75 50/59/75
f 51/57/76 52/60/76 53/61/76
f 53/61/76 47/56/76 51/57/76
f 54/62/77 53/63/77 52/60/77
f 53/63/78 54/62/78 55/64/78
f 47/56/79 53/61/79 56/65/79
f 55/64/78 56/66/80 53/63/78
f 56/65/79 57/67/79 47/56/79
f 57/67/81 56/65/81 55/68/81
f 47/56/69 57/67/82 46/54/69
f 55/68/81 46/54/81 57/67/81
f 58/69/83 55/64/83 54/62/83
f 46/54/84 55/68/84 58/70/84
f 54/62/83 59/71/83 58/69/83
f 58/70/84 48/55/84 46/54/84
f 48/55/85 58/70/85 59/72/85
f 59/71/86 54/62/86 60/73/86
f 59/72/85 49/58/85 48/55/85
f 49/58/87 59/72/87 61/74/87
f 60/73/86 61/75/88 59/71/86
f 62/76/89 61/74/89 60/73/89
f 61/74/87 62/76/87 49/58/87
f 49/58/73 62/76/90 50/59/73
f 60/73/89 50/59/89 62/76/89
f 50/59/75 60/73/75 52/60/75
f 52/60/77 60/73/91 54/62/77
f 63/77/92 64/78/93 66/79/92
f 64/78/94 63/77/94 65/80/94
f 69/81/95 65/80/96 63/77/95
f 66/79/92 67/82/97 63/77/92
f 68/83/98 63/77/98 67/82/98
f 63/77/95 68/83/99 69/81/95
f 70/84/100 69/81/100 68/83/100
f 69/81/101 70/84/102 71/85/103
f 71/85/103 65/80/102 69/81/101
f 72/86/104 71/87/104 70/84/105
f 71/87/106 72/86/106 73/88/106
f 65/80/107 71/85/107 74/89/107
f 73/88/106 74/90/108 71/87/106
f 74/89/107 75/91/107 65/80/107
f 75/91/109 74/89/110 73/92/110
f 65/80/94 75/91/111 64/78/94
f 73/92/110 64/78/110 75/91/109
f 76/93/112 73/88/112 72/86/113
f 64/78/114 73/92/114 76/94/115
f 66/79/116 76/94/117 77/95/116
f 72/86/113 77/96/112 76/93/112
f 76/94/115 66/79/114 64/78/114
f 77/96/118 72/86/118 78/97/118
f 78/97/118 79/98/119 77/96/118
f 67/82/120 77/95/120 79/99/120
f 77/95/116 67/82/117 66/79/116
f 80/100/121 79/99/121 78/97/122
f 79/99/120 80/100/120 67/82/120
f 78/97/122 68/83/121 80/100/121
f 67/82/98 80/100/123 68/83/98
f 68/83/100 78/97/100 70/84/100
f 70/84/105 78/97/104 72/86/104
f 81/101/124 83/102/124 82/103/124
f 84/104/125 83/102/125 81/101/125
f 85/105/126 83/102/126 84/104/126
f 86/106/127 83/102/127 85/105/127
f 87/107/128 83/102/128 86/106/128
f 88/108/129 83/102/129 87/107/129
f 89/109/130 83/102/130 88/108/130
f 82/103/131 83/102/131 89/109/131
