# Blender 4.4.1
# www.blender.org
o Tree_3
v -0.000034 0.000016 -0.057989
v 0.039718 -0.000092 -0.032848
v -0.008235 0.069006 -0.052162
v -0.038767 0.069257 -0.036140
v -0.041682 0.000125 -0.036134
v -0.040157 0.069257 -0.001687
v -0.043579 0.000125 0.010862
v -0.011017 0.069006 0.016744
v -0.003829 0.000016 0.036003
v 0.037819 -0.000092 0.014148
v 0.019515 0.068755 0.000722
v 0.020907 0.068755 -0.033731
v 0.018344 0.283321 0.018109
v -0.006838 0.284291 0.031297
v -0.037666 0.373880 -0.007772
v -0.010355 0.371792 0.005049
v -0.030872 0.285265 0.016122
v -0.029728 0.285265 -0.012241
v -0.036595 0.373876 -0.033542
v -0.013748 0.372591 -0.045512
v -0.038390 0.389410 -0.036504
v -0.015958 0.388144 -0.048275
v -0.019010 0.403745 -0.049954
v -0.000276 0.401929 -0.028779
v 0.007125 0.386004 -0.031436
v 0.007239 0.370580 -0.022629
v 0.071680 0.418078 0.021534
v 0.068395 0.423964 0.011667
v 0.058992 0.430649 0.008553
v 0.094251 0.472306 0.041909
v 0.091781 0.476731 0.034491
v 0.084712 0.481757 0.032150
v 0.066735 0.593830 0.038412
v 0.067274 0.593539 0.040045
v 0.065445 0.594762 0.040229
v 0.066505 0.593501 0.041611
v 0.090678 0.471075 0.050059
v 0.064877 0.593738 0.042191
v 0.063343 0.594111 0.041447
v 0.083152 0.473758 0.054166
v 0.076084 0.478784 0.051825
v 0.062805 0.594401 0.039813
v 0.073613 0.483209 0.044407
v 0.063572 0.594439 0.038248
v 0.077186 0.484440 0.036257
v 0.065202 0.594203 0.037667
v 0.044227 0.432581 0.024856
v 0.048982 0.434218 0.014016
v -0.010631 0.409027 -0.016213
v -0.017871 0.403140 -0.001101
v -0.042068 0.404995 -0.013516
v -0.060686 0.495467 -0.022578
v -0.041958 0.493910 -0.010668
v -0.017756 0.387717 0.007706
v -0.039447 0.389415 -0.011186
v 0.047513 0.426695 0.034723
v 0.056917 0.420009 0.037837
v 0.066926 0.416440 0.032374
v -0.000002 0.364694 -0.007516
v 0.019490 0.283321 -0.010253
v -0.004548 0.284291 -0.025428
v -0.041022 0.404989 -0.038384
v -0.040028 0.493897 -0.055207
v -0.059713 0.495456 -0.044848
v -0.034856 0.705987 -0.040812
v -0.049086 0.707611 -0.033282
v 0.000499 0.914740 -0.010895
v -0.049740 0.707611 -0.017100
v -0.036163 0.705987 -0.008448
v -0.021931 0.704360 -0.015978
v -0.022278 0.492347 -0.021028
v -0.021313 0.492343 -0.043297
v -0.021278 0.704360 -0.032160
vn 0.5301 0.1339 -0.8373
vn 0.5300 0.1337 -0.8374
vn 0.5303 0.1340 -0.8371
vn -0.4645 0.0195 -0.8854
vn -0.4645 0.0196 -0.8854
vn -0.4645 0.0195 -0.8853
vn -0.9982 0.0441 -0.0403
vn -0.9983 0.0421 -0.0403
vn -0.5252 0.1772 0.8323
vn -0.5250 0.1771 0.8325
vn -0.5255 0.1774 0.8321
vn -0.5257 0.1775 0.8320
vn 0.4465 0.2839 0.8486
vn 0.4464 0.2840 0.8486
vn 0.4470 0.2837 0.8484
vn 0.4469 0.2837 0.8484
vn 0.9992 0.0022 0.0404
vn 0.9638 0.2638 0.0389
vn 0.4618 -0.0689 0.8843
vn 0.4621 -0.0689 0.8842
vn 0.4622 -0.0689 0.8841
vn 0.4620 -0.0689 0.8842
vn -0.4570 0.2187 0.8621
vn -0.4570 0.2187 0.8622
vn -0.4571 0.2187 0.8621
vn -0.5343 -0.0466 0.8440
vn -0.5347 -0.0467 0.8438
vn -0.5346 -0.0467 0.8438
vn 0.6034 0.3045 0.7370
vn 0.6032 0.3045 0.7372
vn 0.6032 0.3045 0.7371
vn -0.5342 -0.0466 0.8440
vn -0.9981 0.0462 -0.0403
vn -0.9954 -0.0871 -0.0409
vn -0.9954 -0.0870 -0.0407
vn -0.9954 -0.0871 -0.0408
vn -0.9916 -0.1226 -0.0413
vn -0.9916 -0.1224 -0.0412
vn -0.4627 -0.2180 -0.8593
vn -0.4625 -0.2184 -0.8593
vn -0.4629 -0.2177 -0.8592
vn -0.4592 -0.2417 -0.8548
vn -0.4593 -0.2417 -0.8548
vn -0.4631 -0.2173 -0.8592
vn -0.4651 -0.1838 -0.8660
vn -0.4650 -0.1838 -0.8660
vn -0.4653 -0.1835 -0.8659
vn 0.6651 0.2425 -0.7063
vn 0.6651 0.2424 -0.7063
vn 0.6650 0.2426 -0.7063
vn 0.6404 -0.2261 -0.7340
vn 0.6404 -0.2260 -0.7340
vn 0.6916 -0.4105 -0.5943
vn 0.6404 -0.2262 -0.7340
vn 0.4146 0.2907 -0.8623
vn 0.6916 -0.4106 -0.5943
vn 0.4287 0.1918 -0.8828
vn 0.8832 -0.2101 -0.4193
vn 0.8832 -0.2100 -0.4193
vn 0.3984 0.1148 -0.9100
vn 0.9552 0.2103 -0.2082
vn 0.5602 0.8190 0.1243
vn 0.5602 0.8190 0.1244
vn 0.5602 0.8190 0.1242
vn 0.8837 0.2033 0.4217
vn 0.8836 0.2033 0.4217
vn 0.4895 0.1580 0.8576
vn 0.4894 0.1580 0.8576
vn 0.1405 0.8603 0.4900
vn 0.1405 0.8604 0.4899
vn -0.3096 0.0494 0.9496
vn -0.3097 0.0494 0.9496
vn -0.9577 -0.0813 0.2762
vn -0.1488 0.9847 0.0905
vn -0.1488 0.9847 0.0906
vn -0.9027 -0.1046 -0.4173
vn -0.1488 0.9847 0.0904
vn -0.4654 -0.0395 -0.8842
vn -0.4653 -0.0395 -0.8843
vn 0.1957 0.9540 -0.2271
vn 0.1957 0.9540 -0.2272
vn 0.1957 0.9540 -0.2270
vn -0.7876 0.5580 -0.2612
vn -0.7877 0.5580 -0.2611
vn -0.2644 0.5108 -0.8181
vn -0.2644 0.5107 -0.8181
vn -0.0591 0.8284 -0.5570
vn -0.4321 0.8997 0.0612
vn -0.4321 0.8998 0.0611
vn -0.5336 0.2438 0.8098
vn -0.5336 0.2439 0.8098
vn -0.4945 -0.0272 0.8688
vn 0.6573 0.1951 0.7279
vn 0.6574 0.1951 0.7278
vn -0.5477 0.5003 0.6706
vn -0.5477 0.5003 0.6707
vn -0.5456 -0.1395 0.8264
vn -0.5456 -0.1395 0.8263
vn -0.5456 -0.1393 0.8264
vn -0.5336 0.2437 0.8098
vn -0.2919 -0.1981 0.9357
vn -0.2920 -0.1980 0.9357
vn -0.8334 0.3060 0.4602
vn -0.8334 0.3061 0.4601
vn -0.3746 -0.0973 0.9221
vn -0.3745 -0.0973 0.9221
vn 0.3178 -0.4142 0.8529
vn 0.1931 -0.7332 0.6520
vn 0.6033 0.3045 0.7371
vn 0.9517 0.2208 0.2135
vn 0.9517 0.2208 0.2133
vn 0.5872 -0.8086 0.0370
vn 0.6419 -0.0629 -0.7642
vn 0.6418 -0.0629 -0.7643
vn 0.5334 0.0954 -0.8405
vn 0.5334 0.0954 -0.8404
vn 0.5332 0.0954 -0.8406
vn 0.6420 -0.0629 -0.7642
vn -0.4591 0.1169 -0.8807
vn -0.4592 0.1169 -0.8806
vn -0.4590 0.1169 -0.8807
vn 0.8364 -0.4601 0.2978
vn 0.8366 -0.4600 0.2974
vn 0.5872 -0.8086 0.0371
vn -0.9916 -0.1228 -0.0414
vn -0.9843 -0.1715 -0.0412
vn -0.9844 -0.1713 -0.0411
vn -0.9843 -0.1716 -0.0412
vn -0.9843 -0.1718 -0.0413
vn -0.4655 -0.1832 -0.8659
vn -0.4679 -0.1593 -0.8693
vn -0.4678 -0.1593 -0.8693
vn -0.9778 -0.2052 -0.0419
vn -0.9778 -0.2052 -0.0418
vn -0.9779 -0.2050 -0.0413
vn -0.4601 0.0713 -0.8850
vn -0.4602 0.0713 -0.8850
vn -0.9778 -0.2053 -0.0421
vn -0.9977 0.0524 -0.0421
vn -0.9977 0.0524 -0.0422
vn -0.4403 0.2000 -0.8753
vn -0.9708 0.2366 -0.0392
vn -0.5258 0.1022 0.8444
vn -0.5363 0.0059 0.8440
vn -0.5369 0.0058 0.8436
vn -0.5368 0.0058 0.8437
vn 0.4602 -0.0704 0.8850
vn 0.4647 -0.0219 0.8852
vn 0.4648 -0.0219 0.8851
vn 0.4650 -0.0219 0.8850
vn 0.4646 -0.0219 0.8852
vn 0.6573 0.1950 0.7279
vn 0.9421 0.2066 0.2641
vn 0.9421 0.2066 0.2639
vn 0.9991 -0.0025 0.0420
vn 0.9991 -0.0025 0.0421
vn 0.6639 0.0732 -0.7442
vn 0.6641 0.0732 -0.7441
vn 0.6640 0.0732 -0.7441
vn 0.6640 0.0732 -0.7442
vn 0.5397 0.0440 -0.8407
vn 0.5395 0.0440 -0.8408
vn 0.5395 0.0440 -0.8409
vn 0.9935 -0.1069 0.0401
vn 0.5396 0.0292 -0.8414
vn 0.5398 0.0440 -0.8407
vn 0.8367 -0.4599 0.2973
vn 0.5305 0.1342 -0.8370
vt 0.487342 0.697736
vt 0.488742 0.688435
vt 0.503618 0.690031
vt 0.504654 0.682462
vt 0.490589 0.678624
vt 0.505801 0.721569
vt 0.507158 0.729132
vt 0.493888 0.734061
vt 0.490961 0.724757
vt 0.504515 0.713745
vt 0.488432 0.715921
vt 0.486912 0.706889
vt 0.503623 0.705738
vt 0.550514 0.703414
vt 0.503208 0.697796
vt 0.551351 0.709258
vt 0.570339 0.706086
vt 0.572481 0.712604
vt 0.552569 0.715066
vt 0.553707 0.721026
vt 0.574119 0.717972
vt 0.577449 0.717602
vt 0.575434 0.692373
vt 0.571919 0.692219
vt 0.572374 0.686601
vt 0.551887 0.685201
vt 0.575999 0.686915
vt 0.578821 0.692477
vt 0.577349 0.698626
vt 0.573631 0.697657
vt 0.230252 0.938568
vt 0.210821 0.937786
vt 0.211913 0.934083
vt 0.570146 0.698747
vt 0.230017 0.935970
vt 0.213067 0.930550
vt 0.243179 0.936704
vt 0.229736 0.933389
vt 0.242504 0.938462
vt 0.244249 0.935186
vt 0.268293 0.937954
vt 0.268201 0.938326
vt 0.194221 0.000836
vt 0.193987 0.000445
vt 0.194384 0.000397
vt 0.194697 0.000643
vt 0.268222 0.938712
vt 0.242451 0.940463
vt 0.244904 0.925718
vt 0.268705 0.935768
vt 0.268665 0.936150
vt 0.193791 0.001155
vt 0.193742 0.000760
vt 0.244669 0.927634
vt 0.268684 0.936528
vt 0.245055 0.929435
vt 0.268682 0.936903
vt 0.194105 0.001400
vt 0.245329 0.931333
vt 0.268604 0.937270
vt 0.194499 0.001352
vt 0.245045 0.933373
vt 0.268452 0.937612
vt 0.194745 0.001038
vt 0.230410 0.928001
vt 0.229820 0.930692
vt 0.213839 0.927060
vt 0.214159 0.923493
vt 0.573984 0.706994
vt 0.577770 0.705899
vt 0.579805 0.711708
vt 0.599928 0.710954
vt 0.598939 0.706154
vt 0.579163 0.702121
vt 0.214308 0.919774
vt 0.576236 0.712203
vt 0.231478 0.925538
vt 0.214809 0.916037
vt 0.232751 0.923264
vt 0.233961 0.920932
vt 0.215981 0.912333
vt 0.568709 0.702357
vt 0.550674 0.697517
vt 0.230248 0.941218
vt 0.210336 0.941697
vt 0.551378 0.691445
vt 0.580711 0.717156
vt 0.579541 0.687063
vt 0.598608 0.691414
vt 0.599248 0.686541
vt 0.600394 0.715846
vt 0.645595 0.688753
vt 0.645130 0.692284
vt 0.646440 0.709971
vt 0.691871 0.697541
vt 0.645997 0.706438
vt 0.645607 0.702909
vt 0.645234 0.699383
vt 0.598167 0.701261
vt 0.598027 0.696301
vt 0.645017 0.695839
s 1
f 2/1/1 1/2/2 3/3/3
f 4/4/4 3/3/5 1/2/4
f 1/2/4 5/5/6 4/4/4
f 6/6/7 4/7/7 5/8/8
f 5/8/8 7/9/8 6/6/7
f 8/10/9 6/6/10 7/9/11
f 7/9/11 9/11/12 8/10/9
f 9/11/13 10/12/14 11/13/15
f 11/13/15 8/10/16 9/11/13
f 13/14/17 11/13/17 12/15/17
f 12/15/18 11/13/18 10/12/18
f 14/16/19 8/10/20 11/13/21
f 11/13/21 13/14/22 14/16/19
f 14/16/23 16/17/24 15/18/23
f 15/18/23 17/19/25 14/16/23
f 8/10/26 14/16/27 17/19/28
f 16/17/29 14/16/30 13/14/31
f 17/19/28 6/6/32 8/10/26
f 6/6/7 17/19/33 18/20/33
f 19/21/34 18/20/35 17/19/36
f 17/19/36 15/18/35 19/21/34
f 21/22/37 19/21/38 15/18/37
f 22/23/39 20/24/40 19/25/41
f 18/26/42 19/25/43 20/24/43
f 19/25/41 21/27/44 22/23/39
f 23/28/45 22/23/46 21/27/47
f 22/23/48 23/28/49 24/29/48
f 24/29/48 25/30/50 22/23/48
f 20/24/51 22/23/52 25/30/51
f 27/31/53 26/32/53 25/33/53
f 25/30/51 26/34/54 20/24/51
f 28/35/55 25/33/55 24/36/55
f 25/33/53 28/35/56 27/31/53
f 31/37/57 28/35/57 29/38/57
f 24/36/55 29/38/55 28/35/55
f 30/39/58 27/31/59 28/35/59
f 28/35/59 31/37/58 30/39/58
f 29/38/57 32/40/57 31/37/57
f 33/41/60 31/37/60 32/40/60
f 34/42/61 30/39/61 31/37/61
f 31/37/61 33/41/61 34/42/61
f 35/43/62 36/44/63 34/45/62
f 34/45/62 33/46/64 35/43/62
f 30/39/65 34/42/66 36/47/66
f 36/47/66 37/48/66 30/39/65
f 37/49/67 36/50/68 38/51/68
f 39/52/69 38/53/70 36/44/70
f 36/44/70 35/43/69 39/52/69
f 40/54/71 38/51/72 39/55/72
f 39/55/72 41/56/71 40/54/71
f 41/56/73 39/55/73 42/57/73
f 42/58/74 39/52/75 35/43/74
f 42/57/73 43/59/73 41/56/73
f 43/59/76 42/57/76 44/60/76
f 35/43/74 44/61/77 42/58/74
f 44/60/76 45/62/76 43/59/76
f 45/62/78 44/60/78 46/63/79
f 44/61/80 35/43/81 33/46/80
f 33/46/80 46/64/82 44/61/80
f 46/63/79 32/40/78 45/62/78
f 32/40/60 46/63/60 33/41/60
f 47/65/83 43/59/84 45/62/84
f 45/62/84 48/66/83 47/65/83
f 48/66/85 45/62/86 32/40/86
f 32/40/86 29/38/85 48/66/85
f 49/67/87 48/66/87 29/38/87
f 50/68/88 47/65/89 48/66/88
f 48/66/88 49/67/88 50/68/88
f 54/69/90 50/70/91 51/71/90
f 52/72/92 51/71/92 50/70/92
f 50/70/92 53/73/92 52/72/92
f 53/73/93 50/70/94 49/74/94
f 47/65/95 50/68/96 54/75/95
f 16/17/97 54/69/98 55/76/99
f 51/71/90 55/76/100 54/69/90
f 54/75/95 56/77/95 47/65/95
f 56/77/101 54/75/101 16/78/101
f 16/78/101 57/79/102 56/77/101
f 43/59/103 47/65/104 56/77/104
f 56/77/104 41/56/103 43/59/103
f 41/56/105 56/77/106 57/79/105
f 40/54/107 57/79/107 58/80/107
f 59/81/108 58/80/108 57/79/108
f 57/79/108 16/78/108 59/81/108
f 57/79/105 40/54/105 41/56/105
f 13/14/31 59/82/109 16/17/29
f 59/82/110 13/14/111 60/83/111
f 60/83/111 26/34/110 59/82/110
f 58/84/112 59/85/112 26/32/112
f 12/15/17 60/83/17 13/14/17
f 26/34/113 60/83/114 61/86/113
f 3/3/115 61/86/115 60/83/116
f 60/83/116 12/15/117 3/3/115
f 61/86/113 20/24/118 26/34/113
f 20/24/43 61/86/42 18/26/42
f 61/86/119 3/3/120 4/4/120
f 4/4/120 18/26/121 61/86/119
f 58/80/107 37/49/107 40/54/107
f 37/48/122 58/84/123 27/31/123
f 26/32/112 27/31/124 58/84/112
f 15/18/37 55/76/125 21/22/37
f 55/76/99 15/18/99 16/17/97
f 62/87/126 21/22/127 55/76/128
f 55/76/128 51/71/129 62/87/126
f 21/27/47 62/88/130 23/28/45
f 63/89/131 23/28/132 62/88/131
f 62/88/131 64/90/131 63/89/131
f 64/91/133 62/87/134 51/71/135
f 64/90/136 66/92/137 65/93/137
f 65/93/137 63/89/136 64/90/136
f 51/71/135 52/72/138 64/91/133
f 66/94/139 64/91/140 52/72/140
f 65/93/141 66/92/141 67/95/141
f 66/94/142 68/96/142 67/95/142
f 52/72/140 68/96/140 66/94/139
f 68/96/143 69/97/143 67/95/143
f 53/73/144 69/97/145 68/96/146
f 68/96/146 52/72/144 53/73/144
f 69/97/147 70/98/147 67/95/147
f 71/99/148 70/98/149 69/97/150
f 69/97/150 53/73/151 71/99/148
f 49/74/94 71/99/152 53/73/93
f 24/29/153 72/100/154 71/99/154
f 70/98/155 71/99/156 72/100/156
f 71/99/154 49/74/153 24/29/153
f 72/100/157 24/29/158 23/28/159
f 23/28/159 63/89/160 72/100/157
f 72/100/156 73/101/156 70/98/155
f 73/101/161 72/100/162 63/89/163
f 70/98/164 73/101/164 67/95/164
f 73/101/165 65/93/165 67/95/165
f 63/89/163 65/93/166 73/101/161
f 29/38/87 24/36/87 49/67/87
f 38/51/68 40/54/67 37/49/67
f 27/31/123 30/39/167 37/48/122
f 18/20/33 4/7/7 6/6/7
f 3/3/3 12/15/168 2/1/1
f 10/12/18 2/1/18 12/15/18
