# Blender 4.4.1
# www.blender.org
o Tree_4
v -0.030592 0.056959 -0.014883
v -0.044054 0.000081 -0.014739
v -0.006077 0.056959 -0.036026
v -0.023734 0.122104 0.017438
v -0.024539 0.056959 0.016919
v -0.028757 0.122104 -0.008954
v -0.008412 0.122104 -0.026500
v -0.008147 0.446756 -0.031910
v 0.024490 0.056959 -0.025367
v 0.016956 0.122104 -0.017654
v 0.022420 0.446756 -0.021251
v 0.021979 0.122104 0.008738
v 0.030543 0.056959 0.006435
v 0.001634 0.122104 0.026284
v 0.039863 0.000081 0.014523
v 0.006029 0.056959 0.027578
v 0.006215 0.000081 0.043545
v -0.035745 0.000081 0.028914
v 0.031556 0.000081 -0.029129
v -0.010403 0.000081 -0.043760
v 0.003959 0.446756 0.031694
v -0.026610 0.446756 0.021035
v 0.013844 0.489849 0.032065
v 0.028473 0.446756 0.010551
v -0.022316 0.489243 0.029945
v -0.045375 0.510450 0.005055
v -0.025516 0.505409 0.033403
v -0.038553 0.488626 -0.002432
v -0.032661 0.446756 -0.010767
v -0.018633 0.488615 -0.032690
v -0.080647 0.538857 -0.065431
v -0.086640 0.544482 -0.050795
v -0.055991 0.811758 -0.095420
v -0.077897 0.555722 -0.041909
v -0.038546 0.526947 -0.002586
v -0.063159 0.561336 -0.047659
v -0.057167 0.555711 -0.062295
v -0.018497 0.526939 -0.032758
v -0.013193 0.510450 -0.042260
v 0.017730 0.521937 -0.030433
v -0.022367 0.521952 0.029912
v 0.033754 0.528133 0.001960
v 0.020470 0.505409 -0.034202
v 0.017527 0.489221 -0.030570
v 0.040287 0.511757 -0.005883
v 0.116603 0.654671 0.064567
v 0.126916 0.649441 0.084328
v 0.033764 0.489838 0.001808
v 0.114396 0.643516 0.102557
v 0.008103 0.511757 0.041431
v 0.091563 0.642821 0.101026
v 0.043375 0.942785 0.181821
v 0.081251 0.648051 0.081265
v 0.093771 0.653975 0.063035
v 0.013706 0.528140 0.032132
v -0.065910 0.544471 -0.071181
v 0.010703 0.496864 -0.028943
v 0.023262 0.508425 -0.017641
v 0.011958 0.490332 -0.028222
v -0.011122 0.506938 -0.033036
v 0.015152 0.520207 0.012584
v -0.005330 0.518137 -0.005506
v -0.022232 0.520474 -0.024012
v -0.023831 0.480726 0.032431
v -0.042761 0.515579 0.025847
v -0.042140 0.518570 0.001605
v -0.006817 0.508351 0.043992
v 0.023158 0.531802 0.018733
v -0.001216 0.521995 0.046294
v -0.027498 0.534183 0.023818
v 0.000279 0.537388 0.035813
v 0.016120 0.543061 0.011391
v -0.002783 0.543082 -0.006914
v -0.019104 0.536848 -0.025777
v 0.018173 0.523443 -0.042173
v -0.038375 0.536263 0.006092
v 0.029320 0.529349 -0.027112
v 0.020396 0.491217 -0.038469
v 0.022385 0.489449 -0.026134
v 0.037563 0.512831 -0.016344
v 0.009007 0.489989 -0.037297
v -0.002073 0.534942 -0.043978
v -0.010005 0.525578 -0.043372
v -0.027096 0.531033 -0.031999
v -0.046074 0.527218 0.007787
vn -0.9567 0.2269 0.1821
vn -0.6456 0.1509 -0.7486
vn -0.6506 0.0870 -0.7544
vn -0.9823 0.0107 0.1870
vn 0.3256 0.1482 -0.9338
vn 0.3292 -0.0160 -0.9441
vn -0.6531 -0.0121 -0.7572
vn 0.9735 0.1341 -0.1853
vn 0.9736 0.1333 -0.1853
vn 0.9734 0.1345 -0.1853
vn 0.9822 -0.0186 -0.1869
vn 0.6520 0.0590 0.7560
vn 0.6520 0.0590 0.7559
vn 0.6519 0.0590 0.7560
vn 0.9736 0.1332 -0.1853
vn 0.6386 0.2099 0.7404
vn -0.3293 -0.0035 0.9442
vn -0.3293 -0.0033 0.9442
vn -0.3183 0.2553 0.9130
vn 0.3275 0.1028 -0.9392
vn -0.3292 -0.0134 0.9442
vn 0.6530 -0.0173 0.7572
vn -0.1869 -0.0753 0.9795
vn -0.1870 -0.0753 0.9795
vn -0.1868 -0.0753 0.9795
vn 0.7547 -0.0695 0.6524
vn 0.7546 -0.0695 0.6524
vn 0.6530 -0.0173 0.7571
vn -0.8168 -0.3480 0.4602
vn -0.8168 -0.3479 0.4602
vn -0.1022 -0.3390 0.9352
vn -0.1022 -0.3389 0.9352
vn -0.9410 -0.0848 0.3276
vn -0.9410 -0.0848 0.3277
vn -0.9410 -0.0849 0.3275
vn -0.7535 -0.0886 -0.6514
vn -0.7536 -0.0886 -0.6514
vn -0.5786 -0.7807 -0.2358
vn -0.5785 -0.7808 -0.2359
vn -0.5786 -0.7808 -0.2359
vn -0.8422 -0.1990 0.5011
vn -0.8422 -0.1992 0.5010
vn -0.5787 -0.7807 -0.2358
vn -0.8422 -0.1990 0.5010
vn -0.9192 0.0400 -0.3918
vn -0.8077 0.1860 0.5595
vn 0.3012 0.1703 0.9382
vn -0.2321 0.6595 0.7150
vn -0.2323 0.6594 0.7150
vn -0.2321 0.6595 0.7149
vn 0.9302 0.0429 0.3644
vn 0.5490 0.8070 0.2176
vn 0.5490 0.8070 0.2175
vn 0.5490 0.8070 0.2177
vn 0.6643 0.3541 -0.6583
vn 0.6644 0.3542 -0.6582
vn 0.1911 0.4058 -0.8938
vn 0.1911 0.4059 -0.8937
vn 0.1308 0.9876 0.0867
vn -0.1617 0.9810 -0.1077
vn 0.7519 0.3975 -0.5260
vn 0.7519 0.3974 -0.5260
vn 0.1911 0.4057 -0.8938
vn 0.1135 -0.3482 -0.9305
vn 0.1135 -0.3481 -0.9306
vn 0.8254 -0.3391 -0.4514
vn 0.8254 -0.3390 -0.4514
vn 0.7518 0.3976 -0.5260
vn 0.8705 -0.2847 -0.4015
vn 0.8705 -0.2845 -0.4016
vn 0.8705 -0.2845 -0.4017
vn 0.0330 0.4258 -0.9042
vn 0.8705 -0.2846 -0.4015
vn 0.9423 -0.0733 -0.3266
vn 0.9423 -0.0733 -0.3265
vn 0.7548 -0.0694 0.6523
vn 0.6885 -0.6141 0.3858
vn 0.9423 -0.0733 -0.3267
vn -0.0403 -0.3935 0.9184
vn -0.0563 -0.2681 0.9617
vn 0.8172 0.0417 0.5748
vn 0.8620 0.3631 -0.3538
vn 0.0500 0.3874 -0.9206
vn -0.8841 -0.2486 0.3956
vn -0.8336 0.0794 -0.5467
vn -0.7181 0.5588 -0.4149
vn -0.1617 0.9810 -0.1076
vn -0.8531 0.3429 0.3934
vn -0.8531 0.3428 0.3934
vn -0.8531 0.3429 0.3932
vn -0.2035 0.4010 0.8932
vn -0.2035 0.4011 0.8932
vn -0.1022 -0.3391 0.9352
vn -0.2035 0.4009 0.8932
vn 0.1882 -0.0829 -0.9786
vn 0.1881 -0.0829 -0.9786
vn 0.1883 -0.0829 -0.9786
vn -0.7572 0.4021 0.5148
vn -0.7572 0.4020 0.5148
vn 0.0702 -0.5250 -0.8482
vn 0.0703 -0.5249 -0.8482
vn 0.0704 -0.5250 -0.8482
vn 0.7626 -0.0864 -0.6411
vn -0.3384 -0.0725 -0.9382
vn -0.7571 0.4022 0.5148
vn -0.7535 -0.0886 -0.6515
vn -0.9823 -0.0108 0.1869
vn -0.9823 -0.0108 0.1870
vn -0.0835 -0.8648 0.4951
vn -0.0836 -0.8648 0.4951
vn -0.1901 -0.3464 0.9186
vn -0.1902 -0.3464 0.9186
vn -0.1903 -0.3464 0.9186
vn -0.6961 -0.6332 -0.3384
vn -0.6961 -0.6331 -0.3385
vn -0.6961 -0.6332 -0.3385
vn -0.4884 -0.7676 0.4150
vn -0.4882 -0.7677 0.4150
vn -0.0837 -0.8648 0.4951
vn 0.6744 -0.7280 -0.1236
vn 0.6743 -0.7280 -0.1238
vn -0.4883 -0.7677 0.4150
vn -0.1204 -0.8101 -0.5739
vn -0.1204 -0.8101 -0.5738
vn -0.4577 -0.0474 0.8878
vn -0.8820 -0.4644 -0.0800
vn -0.8822 -0.4641 -0.0799
vn 0.6743 -0.7280 -0.1237
vn 0.7486 -0.5348 0.3919
vn 0.7486 -0.5349 0.3918
vn 0.7486 -0.5347 0.3920
vn -0.4244 0.4895 0.7617
vn 0.5863 0.5310 0.6117
vn 0.5864 0.5309 0.6118
vn 0.5863 0.5311 0.6117
vn -0.1586 0.9771 0.1416
vn -0.1587 0.9771 0.1416
vn -0.1802 0.9834 0.0223
vn -0.1802 0.9834 0.0222
vn 0.2510 0.9465 -0.2030
vn 0.2510 0.9464 -0.2031
vn 0.1870 0.9247 -0.3315
vn 0.1870 0.9247 -0.3316
vn -0.1802 0.9834 0.0224
vn 0.1870 0.9247 -0.3314
vn 0.8061 -0.0124 -0.5917
vn 0.8495 -0.1600 -0.5028
vn 0.8495 -0.1600 -0.5027
vn 0.8494 -0.1600 -0.5029
vn 0.8482 0.5227 0.0860
vn 0.3889 -0.7745 0.4989
vn 0.3891 -0.7744 0.4989
vn 0.0188 -0.9973 -0.0707
vn 0.0187 -0.9973 -0.0707
vn 0.0039 -0.1350 -0.9908
vn -0.4057 0.6598 -0.6325
vn -0.4059 0.6597 -0.6325
vn -0.4058 0.6597 -0.6325
vn -0.6961 -0.6332 -0.3383
vn -0.7017 -0.4411 -0.5595
vn -0.7018 -0.4410 -0.5595
vn -0.7016 -0.4412 -0.5595
vn -0.7719 -0.4002 -0.4939
vn -0.7720 -0.4002 -0.4939
vn -0.7721 -0.4000 -0.4939
vn -0.6150 0.7359 -0.2830
vn -0.6150 0.7359 -0.2831
vn -0.6151 0.7358 -0.2831
vn -0.6406 0.5971 0.4829
vn -0.6403 0.5972 0.4831
vt 0.038804 0.719918
vt 0.041391 0.727349
vt 0.028899 0.732558
vt 0.044586 0.734358
vt 0.057731 0.727422
vt 0.053684 0.715293
vt 0.055598 0.721422
vt 0.048493 0.740813
vt 0.060072 0.733204
vt 0.129882 0.707000
vt 0.035387 0.704641
vt 0.035049 0.697064
vt 0.048810 0.696969
vt 0.050190 0.702978
vt 0.121060 0.671798
vt 0.133641 0.713136
vt 0.051833 0.709146
vt 0.036695 0.712317
vt 0.022265 0.705597
vt 0.023164 0.714931
vt 0.025282 0.723998
vt 0.022545 0.695817
vt 0.038899 0.749150
vt 0.033382 0.740919
vt 0.120791 0.686728
vt 0.122506 0.694130
vt 0.127135 0.690940
vt 0.126984 0.683739
vt 0.120581 0.679244
vt 0.130112 0.690328
vt 0.132443 0.693654
vt 0.130695 0.696625
vt 0.125765 0.700904
vt 0.136466 0.700027
vt 0.665921 0.887193
vt 0.648165 0.892312
vt 0.647327 0.884529
vt 0.666034 0.883405
vt 0.650589 0.880280
vt 0.667357 0.880238
vt 0.723718 0.881387
vt 0.668648 0.876641
vt 0.653581 0.877551
vt 0.668516 0.872608
vt 0.655377 0.872036
vt 0.653140 0.868517
vt 0.139793 0.695266
vt 0.138654 0.692829
vt 0.144289 0.686590
vt 0.135191 0.692917
vt 0.133130 0.689457
vt 0.136583 0.684048
vt 0.141652 0.679996
vt 0.145301 0.693981
vt 0.143845 0.700926
vt 0.137449 0.675071
vt 0.136396 0.681699
vt 0.084895 0.773781
vt 0.115047 0.751681
vt 0.118902 0.754910
vt 0.085486 0.769615
vt 0.131423 0.679007
vt 0.084044 0.778932
vt 0.104157 0.735233
vt 0.071745 0.761840
vt 0.066517 0.755770
vt 0.101616 0.730850
vt 0.105878 0.739778
vt 0.077113 0.762323
vt 0.164353 0.703841
vt 0.111336 0.748457
vt 0.108219 0.744336
vt 0.081285 0.763226
vt 0.132234 0.685741
vt 0.129747 0.686199
vt 0.667648 0.869253
vt 0.650357 0.863666
vt 0.667720 0.865718
vt 0.759843 0.937759
vt 0.761586 0.942611
vt 0.757594 0.949670
vt 0.761068 0.936772
vt 0.754077 0.936790
vt 0.754037 0.943477
vt 0.747989 0.949995
vt 0.749721 0.938716
vt 0.742334 0.950665
vt 0.750985 0.954290
vt 0.744064 0.944494
vt 0.759344 0.952838
vt 0.751948 0.957254
vt 0.777332 0.961799
vt 0.776756 0.957404
vt 0.783090 0.954809
vt 0.788241 0.956827
vt 0.770174 0.954636
vt 0.777020 0.948114
vt 0.772797 0.952501
vt 0.780376 0.943016
vt 0.785154 0.950547
vt 0.771153 0.940454
vt 0.769176 0.944124
vt 0.765702 0.936754
vt 0.763252 0.937670
vt 0.764404 0.944912
vt 0.764168 0.934672
vt 0.766834 0.934202
vt 0.775980 0.940125
vt 0.777212 0.937693
vt 0.750870 0.933196
vt 0.759958 0.935171
vt 0.747458 0.936301
vt 0.782285 0.941027
vt 0.741362 0.945020
vt 0.787970 0.951048
s 1
f 5/1/1 1/2/1 2/3/1
f 2/3/2 1/2/2 3/4/2
f 7/5/3 3/4/3 1/2/3
f 4/6/4 6/7/4 1/2/4
f 1/2/4 5/1/4 4/6/4
f 1/2/3 6/7/3 7/5/3
f 9/8/5 3/4/5 7/5/5
f 10/9/6 7/5/6 8/10/6
f 8/10/7 7/5/7 6/7/7
f 7/5/5 10/9/5 9/8/5
f 13/11/8 9/12/9 10/13/10
f 12/14/11 10/13/11 11/15/11
f 8/10/6 11/16/6 10/9/6
f 10/13/10 12/14/10 13/11/8
f 14/17/12 16/18/13 13/11/13
f 13/11/13 12/14/14 14/17/12
f 9/12/9 13/11/8 15/19/15
f 15/19/16 13/11/16 16/18/16
f 5/1/17 16/18/17 14/17/18
f 16/18/16 17/20/16 15/19/16
f 18/21/19 17/20/19 16/18/19
f 16/18/19 5/1/19 18/21/19
f 2/3/1 18/21/1 5/1/1
f 15/19/15 19/22/15 9/12/9
f 3/4/20 9/8/20 19/23/20
f 19/23/20 20/24/20 3/4/20
f 3/4/2 20/24/2 2/3/2
f 14/17/18 4/6/21 5/1/17
f 4/6/21 14/17/18 21/25/21
f 21/25/22 14/17/22 12/14/22
f 21/25/21 22/26/21 4/6/21
f 25/27/23 22/26/24 21/25/23
f 21/25/23 23/28/25 25/27/23
f 23/28/26 21/25/27 24/29/26
f 12/14/22 24/29/28 21/25/22
f 25/27/29 27/30/30 26/31/29
f 26/31/29 28/32/29 25/27/29
f 27/30/31 25/27/32 23/28/31
f 22/26/33 25/27/34 28/32/33
f 28/32/33 29/33/35 22/26/33
f 29/33/36 28/32/37 30/34/36
f 31/35/38 30/36/39 28/37/40
f 32/38/41 28/37/42 26/39/42
f 28/37/40 32/38/43 31/35/38
f 26/39/42 34/40/44 32/38/41
f 32/38/45 33/41/45 31/35/45
f 32/38/46 34/40/46 33/41/46
f 34/40/47 36/42/47 33/41/47
f 34/40/48 26/39/49 35/43/49
f 35/43/49 36/42/50 34/40/48
f 36/42/51 37/44/51 33/41/51
f 38/45/52 37/44/53 36/42/53
f 36/42/53 35/43/54 38/45/52
f 37/44/55 38/45/56 39/46/56
f 39/47/57 38/48/58 40/49/57
f 40/49/59 38/48/59 35/50/59
f 35/50/59 41/51/59 40/49/59
f 42/52/60 40/49/60 41/51/60
f 43/53/61 40/49/62 42/52/61
f 40/49/57 43/54/63 39/47/57
f 30/34/64 39/47/64 43/54/64
f 43/54/64 44/55/65 30/34/64
f 44/56/66 43/53/67 45/57/66
f 42/52/61 45/57/68 43/53/61
f 45/58/69 46/59/70 47/60/71
f 46/59/72 45/58/72 42/61/72
f 45/57/66 48/62/66 44/56/66
f 47/60/71 48/63/73 45/58/69
f 48/62/74 24/29/75 11/15/74
f 24/29/26 48/62/76 23/28/26
f 49/64/77 23/65/77 48/66/77
f 11/15/74 44/56/78 48/62/74
f 48/66/77 47/67/77 49/64/77
f 49/64/79 51/68/79 50/69/79
f 50/69/79 23/65/79 49/64/79
f 51/68/80 49/64/80 52/70/80
f 49/64/81 47/67/81 52/70/81
f 47/60/82 46/59/82 52/70/82
f 46/59/83 54/71/83 52/70/83
f 53/72/84 51/68/84 52/70/84
f 54/71/85 53/72/85 52/70/85
f 42/61/72 54/71/72 46/59/72
f 54/71/86 42/61/86 55/73/86
f 55/73/86 53/72/86 54/71/86
f 41/51/60 55/74/87 42/52/60
f 51/68/88 53/72/89 55/73/90
f 55/73/90 50/69/90 51/68/88
f 50/75/91 55/74/92 41/51/91
f 23/28/31 50/75/93 27/30/31
f 41/51/91 27/30/94 50/75/91
f 8/10/95 30/34/96 44/55/95
f 44/55/95 11/16/97 8/10/95
f 27/30/98 41/51/99 35/50/98
f 56/76/100 39/46/101 30/77/102
f 39/46/56 56/76/55 37/44/55
f 30/77/102 31/78/100 56/76/100
f 37/44/103 56/76/103 33/41/103
f 56/76/104 31/78/104 33/41/104
f 35/50/98 26/31/105 27/30/98
f 30/34/36 8/10/106 29/33/36
f 22/26/107 29/33/107 6/7/108
f 6/7/7 29/33/7 8/10/7
f 11/15/11 24/29/11 12/14/11
f 6/7/108 4/6/108 22/26/107
f 57/79/109 58/80/110 61/81/110
f 58/80/111 57/79/112 59/82/113
f 59/82/114 57/79/115 60/83/116
f 60/83/117 57/79/118 62/84/118
f 61/81/110 62/84/119 57/79/109
f 64/85/120 62/84/121 61/81/121
f 62/84/118 63/86/122 60/83/117
f 63/86/123 62/84/124 64/85/123
f 65/87/125 64/85/125 67/88/125
f 66/89/126 64/85/126 65/87/127
f 64/85/123 66/89/124 63/86/123
f 61/81/121 67/88/128 64/85/120
f 67/88/129 61/81/130 68/90/129
f 68/90/129 69/91/131 67/88/129
f 67/88/125 69/91/125 65/87/125
f 69/92/132 71/93/132 70/94/132
f 70/94/132 65/95/132 69/92/132
f 71/93/133 69/92/134 68/96/135
f 73/97/136 70/94/136 71/93/137
f 68/96/135 72/98/135 71/93/133
f 71/93/137 72/98/136 73/97/136
f 73/97/138 74/99/139 76/100/138
f 74/99/140 73/97/141 75/101/140
f 77/102/142 75/101/143 73/97/142
f 76/100/138 70/94/144 73/97/138
f 73/97/142 72/98/145 77/102/142
f 78/103/146 75/101/146 77/102/146
f 79/104/147 78/103/148 77/102/149
f 77/102/149 80/105/149 79/104/147
f 80/105/150 77/102/150 72/98/150
f 79/104/112 80/105/111 58/80/111
f 58/80/151 80/105/151 68/90/152
f 72/98/150 68/96/150 80/105/150
f 78/103/153 79/104/154 59/106/153
f 58/80/111 59/82/113 79/104/112
f 59/106/153 81/107/153 78/103/153
f 82/108/155 78/103/155 81/107/155
f 82/108/155 75/101/155 78/103/155
f 75/101/140 82/108/140 74/99/140
f 74/99/156 82/108/157 83/109/158
f 81/107/155 83/109/155 82/108/155
f 60/83/116 83/110/114 81/111/159
f 83/110/160 60/83/161 63/86/160
f 63/86/160 84/112/162 83/110/160
f 83/109/158 84/113/156 74/99/156
f 84/112/163 63/86/164 66/89/165
f 66/89/165 85/114/165 84/112/163
f 74/99/166 84/113/167 85/115/168
f 65/87/127 85/114/126 66/89/126
f 76/100/169 85/115/169 65/95/170
f 85/115/168 76/100/168 74/99/166
f 60/83/116 81/111/159 59/82/114
f 65/95/170 70/94/169 76/100/169
f 68/90/152 61/81/152 58/80/151
