# Blender 4.4.1
# www.blender.org
o Tree_7
v -0.003704 0.718858 -0.008995
v 0.006030 0.719262 -0.015170
v -0.016911 0.942086 -0.015640
v -0.006264 0.719626 0.002232
v -0.030386 0.476740 -0.001044
v -0.012350 0.475990 -0.012532
v 0.019409 0.231884 -0.049113
v 0.008540 0.476420 -0.007953
v -0.011073 0.231890 -0.055755
v -0.037323 0.231883 -0.038898
v -0.003473 0.113242 -0.071444
v 0.031808 0.113213 -0.063757
v 0.051314 0.113226 -0.033378
v 0.052494 0.000041 -0.025135
v 0.030333 0.000047 -0.059645
v -0.009739 0.000049 -0.068376
v -0.044248 0.000046 -0.046216
v -0.033861 0.113298 -0.051936
v -0.043962 0.231867 -0.008417
v -0.041555 0.113348 -0.016659
v -0.027102 0.231851 0.017833
v -0.022049 0.113360 0.013720
v -0.052979 0.000041 -0.006145
v -0.030818 0.000035 0.028365
v 0.009254 0.000033 0.037096
v 0.013231 0.113331 0.021407
v 0.043620 0.113275 0.001899
v 0.003380 0.231845 0.024475
v 0.029629 0.231852 0.007618
v 0.015430 0.479266 0.030837
v 0.020047 0.477778 0.010011
v 0.036268 0.231868 -0.022863
v 0.017236 0.720611 -0.012677
v 0.023348 0.722109 -0.002976
v 0.020788 0.722880 0.008251
v 0.011054 0.722469 0.014427
v -0.002604 0.480015 0.042325
v -0.023495 0.479587 0.037746
v -0.035002 0.478231 0.019782
v -0.000151 0.721120 0.011934
v 0.043762 0.000036 0.014936
v -0.009974 0.601260 0.013188
v -0.003405 0.464873 -0.046312
v 0.058510 0.429917 -0.029452
v -0.057486 0.419203 -0.037337
v -0.074713 0.393382 0.012644
v -0.067558 0.423589 0.068702
v -0.015766 0.470254 0.083819
v 0.059302 0.429724 0.074322
v 0.077414 0.404082 0.015994
v -0.025974 0.377399 0.000830
v -0.088113 0.175264 0.049285
v -0.119299 0.110762 -0.026103
v -0.021385 0.109710 0.094799
v 0.063827 0.074213 0.054011
v 0.099235 0.122761 -0.002596
v 0.059913 0.191280 -0.070237
v 0.001322 0.123813 -0.123497
v -0.068999 0.063335 -0.095551
v -0.012321 0.681720 0.005775
v -0.003457 0.504923 -0.051391
v 0.057656 0.507972 0.034815
v -0.052806 0.474252 -0.050684
v -0.070858 0.493479 0.016003
v -0.052290 0.545573 0.054022
v -0.009579 0.515983 0.090438
v 0.038215 0.497519 0.077906
v 0.037759 0.500695 -0.027074
v -0.004026 0.546981 0.010198
v -0.051596 0.383197 -0.043943
v 0.006127 0.353468 -0.079363
v -0.087517 0.328357 0.011409
v -0.067004 0.276218 0.092898
v -0.001436 0.333636 0.106428
v 0.054043 0.389675 0.072665
v 0.100747 0.346724 0.018222
v 0.079412 0.305010 -0.052592
v -0.012163 0.865180 -0.005808
v 0.041511 0.728094 -0.013027
v 0.049947 0.681831 0.023704
v 0.028259 0.676816 -0.040598
v -0.000094 0.642444 -0.044713
v -0.035966 0.671247 -0.018817
v -0.037305 0.721259 0.013702
v -0.014277 0.676261 0.045484
v 0.028276 0.647404 0.046324
v -0.004683 0.480542 0.001048
v -0.092051 0.281967 -0.000368
v -0.071661 0.216532 -0.078591
v -0.071634 0.215477 0.076986
v 0.024042 0.173424 0.107362
v 0.083815 0.221877 0.077142
v 0.098715 0.289821 -0.000177
v 0.083789 0.222932 -0.078435
v 0.020357 0.191892 -0.119445
v -0.000998 0.770476 -0.005808
v 0.058634 0.632987 0.010746
v 0.046830 0.588849 0.059376
v 0.052960 0.580737 -0.030386
v 0.022387 0.552370 -0.036498
v -0.037118 0.577372 -0.036322
v -0.051910 0.628860 0.003461
v -0.043248 0.585485 0.053440
v 0.016233 0.568756 0.070103
v -0.017694 0.941697 -0.005808
v 0.023005 0.799471 -0.030450
v 0.044009 0.751526 -0.005808
v 0.003924 0.747074 -0.045967
v -0.026188 0.794008 -0.030450
v -0.036160 0.742622 -0.005808
v -0.026188 0.794008 0.018834
v 0.003924 0.747074 0.034352
v 0.023005 0.799471 0.018834
vn -0.5363 0.0314 -0.8434
vn -0.5360 0.0314 -0.8436
vn -0.5331 -0.0567 -0.8441
vn -0.9739 -0.0641 -0.2177
vn -0.9695 0.0993 -0.2241
vn 0.2164 -0.0268 -0.9759
vn 0.2166 -0.0268 -0.9759
vn -0.5316 0.1445 -0.8345
vn -0.5317 0.1445 -0.8345
vn 0.2089 0.1715 -0.9628
vn 0.2088 0.1715 -0.9628
vn 0.2090 0.1715 -0.9628
vn -0.5387 0.0764 -0.8390
vn -0.5388 0.0764 -0.8390
vn -0.5386 0.0765 -0.8391
vn 0.2108 0.1414 -0.9672
vn 0.2108 0.1414 -0.9673
vn 0.2109 0.1414 -0.9672
vn 0.2127 -0.0382 -0.9764
vn 0.8411 -0.0306 -0.5401
vn 0.8411 -0.0306 -0.5400
vn 0.8316 0.1528 -0.5340
vn 0.8410 -0.0306 -0.5401
vn -0.5402 0.0071 -0.8415
vn -0.5403 0.0071 -0.8414
vn -0.9769 -0.0051 -0.2134
vn -0.9771 -0.0051 -0.2128
vn -0.9770 -0.0050 -0.2130
vn -0.5385 0.0765 -0.8391
vn -0.9770 -0.0050 -0.2131
vn -0.9740 0.0786 -0.2125
vn -0.9740 0.0785 -0.2123
vn -0.8402 -0.0546 0.5396
vn -0.8402 -0.0546 0.5395
vn -0.8339 0.1338 0.5354
vn -0.8339 0.1337 0.5355
vn -0.9740 0.0787 -0.2126
vn -0.2107 0.1413 0.9673
vn -0.2106 0.1413 0.9673
vn 0.5378 0.0971 0.8375
vn 0.5401 0.0232 0.8413
vn 0.5402 0.0231 0.8412
vn -0.2127 -0.0430 0.9762
vn 0.5379 -0.0478 0.8416
vn 0.5379 -0.0478 0.8417
vn 0.9764 0.0360 0.2131
vn 0.9764 0.0360 0.2129
vn 0.9765 0.0360 0.2127
vn 0.9717 0.1045 0.2117
vn 0.9717 0.1045 0.2118
vn 0.8331 0.1273 -0.5383
vn 0.8331 0.1273 -0.5382
vn 0.9758 -0.0014 0.2185
vn 0.9758 -0.0014 0.2186
vn 0.8447 -0.0401 -0.5338
vn 0.8313 0.1209 -0.5425
vn 0.9604 0.1876 0.2061
vn 0.5361 0.0664 0.8416
vn 0.5361 0.0664 0.8415
vn 0.5215 0.1806 0.8339
vn 0.5362 0.0664 0.8415
vn -0.2120 -0.0752 0.9744
vn -0.2123 -0.0752 0.9743
vn -0.2201 0.1242 0.9675
vn -0.8418 0.1377 0.5220
vn -0.8406 -0.0313 0.5407
vn -0.8406 -0.0313 0.5408
vn -0.8407 -0.0312 0.5406
vn -0.8410 -0.0312 0.5401
vn -0.2279 0.1035 0.9682
vn -0.8462 0.0023 0.5328
vn -0.9746 0.0605 -0.2156
vn -0.9746 0.0605 -0.2155
vn 0.2165 -0.0268 -0.9759
vn 0.2148 0.0201 -0.9764
vn 0.9767 0.0257 0.2130
vn 0.9767 0.0257 0.2129
vn 0.0252 0.4008 -0.9158
vn 0.9143 0.4051 -0.0062
vn 0.9143 0.4051 -0.0063
vn -0.9497 0.2960 -0.1024
vn -0.9497 0.2960 -0.1025
vn -0.9497 0.2960 -0.1026
vn -0.0619 0.4758 0.8774
vn -0.0618 0.4758 0.8774
vn 0.9143 0.4051 -0.0061
vn -0.7225 0.3631 0.5883
vn -0.7227 0.3631 0.5881
vn -0.6180 0.3068 -0.7238
vn -0.6178 0.3068 -0.7240
vn 0.5781 0.3040 0.7572
vn 0.5783 0.3041 0.7570
vn 0.5784 0.3041 0.7570
vn 0.6691 0.5138 -0.5370
vn 0.6688 0.5138 -0.5373
vn 0.6689 0.5138 -0.5372
vn -0.6978 0.3117 -0.6449
vn 0.7693 0.3137 -0.5565
vn 0.6057 0.4287 0.6704
vn 0.6057 0.4287 0.6703
vn -0.6979 0.3117 -0.6448
vn -0.7626 0.4032 0.5059
vn 0.6056 0.4287 0.6704
vn 0.7693 0.3138 -0.5565
vn -0.6910 0.3998 -0.6023
vn -0.6910 0.3998 -0.6022
vn 0.6732 0.3944 -0.6255
vn 0.6731 0.3944 -0.6256
vn -0.7034 0.3522 0.6174
vn -0.7033 0.3522 0.6175
vn -0.7032 0.3522 0.6176
vn 0.5393 0.4752 0.6953
vn 0.5393 0.4752 0.6952
vn 0.6733 0.3944 -0.6254
vn 0.8752 0.3597 -0.3234
vn 0.8753 0.3597 -0.3232
vn 0.8753 0.3597 -0.3233
vn 0.8753 0.3596 -0.3233
vn 0.2876 0.2732 0.9180
vn 0.2877 0.2732 0.9179
vn 0.2875 0.2731 0.9180
vn -0.3293 0.1451 -0.9330
vn -0.3289 0.1452 -0.9331
vn -0.3290 0.1452 -0.9331
vn -0.3291 0.1452 -0.9331
vn -0.9324 0.2034 0.2986
vn -0.9324 0.2034 0.2987
vn 0.2875 0.2732 0.9180
vn -0.9153 0.4027 0.0029
vn -0.9153 0.4027 0.0031
vn -0.0149 0.3841 -0.9232
vn -0.0150 0.3841 -0.9232
vn -0.0145 0.3259 0.9453
vn -0.0144 0.3259 0.9453
vn -0.0143 0.3259 0.9453
vn 0.8791 0.4766 0.0034
vn 0.8791 0.4766 0.0030
vn 0.8791 0.4766 0.0031
vn -0.0148 0.3841 -0.9232
vn 0.9159 0.4004 0.0263
vn 0.9159 0.4005 0.0267
vn 0.9160 0.4004 0.0264
vn 0.9159 0.4004 0.0264
vn -0.0746 0.3456 0.9354
vn -0.0745 0.3456 0.9354
vn -0.0748 0.3456 0.9354
vn 0.0596 0.1454 -0.9876
vn 0.0597 0.1454 -0.9876
vn 0.0600 0.1454 -0.9876
vn -0.9388 0.3313 -0.0944
vn -0.9388 0.3314 -0.0940
vn -0.9388 0.3313 -0.0941
vn -0.0747 0.3456 0.9354
vn 0.6562 0.3072 -0.6892
vn 0.6564 0.3072 -0.6890
vn 0.6563 0.3072 -0.6891
vn 0.6564 0.3072 0.6890
vn 0.6563 0.3072 0.6891
vn 0.6563 0.3072 0.6892
vn -0.7077 0.1557 -0.6892
vn -0.7077 0.1557 -0.6891
vn -0.7078 0.1557 -0.6891
vn -0.7077 0.1557 0.6892
vn -0.7077 0.1557 0.6891
vt 0.585661 0.659645
vt 0.586202 0.662115
vt 0.532841 0.670849
vt 0.634441 0.651776
vt 0.585381 0.657119
vt 0.532279 0.666211
vt 0.532203 0.638376
vt 0.532615 0.633705
vt 0.586067 0.641962
vt 0.479202 0.679955
vt 0.477968 0.631972
vt 0.479035 0.625187
vt 0.478671 0.673153
vt 0.454098 0.684846
vt 0.452464 0.628826
vt 0.453536 0.621008
vt 0.428160 0.626547
vt 0.451777 0.636654
vt 0.427315 0.635524
vt 0.428943 0.617585
vt 0.453119 0.676923
vt 0.429927 0.687845
vt 0.428392 0.679090
vt 0.478583 0.666342
vt 0.452386 0.668858
vt 0.478538 0.659501
vt 0.451872 0.660713
vt 0.427040 0.670444
vt 0.426158 0.661786
vt 0.426066 0.653092
vt 0.451540 0.652594
vt 0.451483 0.644565
vt 0.477881 0.645738
vt 0.478273 0.652617
vt 0.532402 0.647694
vt 0.532223 0.643051
vt 0.477653 0.638852
vt 0.585775 0.646999
vt 0.585888 0.644474
vt 0.585641 0.649519
vt 0.585475 0.652038
vt 0.532476 0.652328
vt 0.532361 0.656954
vt 0.532206 0.661575
vt 0.585347 0.654569
vt 0.426537 0.644364
vt 0.030713 0.827337
vt 0.022463 0.845310
vt 0.002746 0.835836
vt 0.045019 0.852265
vt 0.059915 0.842786
vt 0.000138 0.817034
vt 0.014957 0.802420
vt 0.036106 0.807962
vt 0.059933 0.821611
vt 0.368556 0.745353
vt 0.358219 0.770873
vt 0.328645 0.757395
vt 0.388831 0.781746
vt 0.414940 0.763910
vt 0.326498 0.724366
vt 0.348304 0.708906
vt 0.378893 0.719833
vt 0.408445 0.733367
vt 0.847565 0.023727
vt 0.822444 0.032727
vt 0.813272 0.015726
vt 0.859436 0.045669
vt 0.873018 0.034323
vt 0.831889 0.000398
vt 0.851157 0.006831
vt 0.869506 0.015757
vt 0.834488 0.046732
vt 0.617241 0.621600
vt 0.606963 0.642229
vt 0.584091 0.629897
vt 0.630568 0.649871
vt 0.655086 0.636068
vt 0.575417 0.600635
vt 0.600554 0.591527
vt 0.625172 0.599658
vt 0.649130 0.610914
vt 0.566040 0.873101
vt 0.561337 0.884677
vt 0.544333 0.879485
vt 0.577059 0.892878
vt 0.594084 0.886144
vt 0.536696 0.863689
vt 0.555021 0.853323
vt 0.570742 0.861526
vt 0.587746 0.866720
vt 0.750931 0.474846
vt 0.740009 0.500153
vt 0.710739 0.485961
vt 0.770374 0.511766
vt 0.796156 0.489587
vt 0.708173 0.450475
vt 0.731475 0.437954
vt 0.761852 0.449539
vt 0.791133 0.463704
vt 0.856210 0.235691
vt 0.848762 0.250751
vt 0.828651 0.243347
vt 0.867783 0.258048
vt 0.880556 0.252089
vt 0.824335 0.228923
vt 0.840861 0.211856
vt 0.860890 0.219813
vt 0.880180 0.227353
vt 0.621462 0.868559
vt 0.615655 0.880762
vt 0.597543 0.876990
vt 0.629900 0.892499
vt 0.633638 0.874423
vt 0.609286 0.862695
vt 0.613024 0.844620
vt 0.627270 0.856357
vt 0.645381 0.860128
s 1
f 1/1/1 2/2/1 6/3/2
f 1/1/3 3/4/3 2/2/3
f 4/5/4 3/4/4 1/1/4
f 4/5/5 1/1/5 5/6/5
f 6/3/2 5/6/2 1/1/1
f 8/7/6 6/8/6 2/9/7
f 5/6/8 6/3/9 9/10/9
f 6/8/10 8/7/11 7/11/12
f 7/11/12 9/12/10 6/8/10
f 9/10/9 10/13/9 5/6/8
f 10/13/13 9/10/14 11/14/15
f 9/12/16 7/11/17 12/15/16
f 12/15/16 11/16/18 9/12/16
f 11/16/19 12/15/19 15/17/19
f 12/15/20 13/18/21 14/19/20
f 13/18/22 12/15/22 7/11/22
f 14/19/20 15/17/23 12/15/20
f 15/17/19 16/20/19 11/16/19
f 18/21/24 11/14/24 16/22/25
f 16/22/25 17/23/25 18/21/24
f 19/24/26 10/13/27 18/21/28
f 11/14/15 18/21/29 10/13/13
f 18/21/28 20/25/30 19/24/26
f 20/25/31 18/21/31 17/23/32
f 21/26/33 19/24/33 20/25/34
f 20/25/34 22/27/34 21/26/33
f 22/27/35 20/25/35 23/28/36
f 17/23/32 23/28/37 20/25/31
f 23/28/36 24/29/36 22/27/35
f 24/29/38 25/30/38 26/31/38
f 26/31/38 22/27/39 24/29/38
f 27/32/40 26/31/40 25/30/40
f 26/31/41 27/32/41 29/33/42
f 22/27/43 26/31/43 28/34/43
f 29/33/42 28/34/42 26/31/41
f 28/34/44 29/33/45 30/35/44
f 31/36/46 30/35/47 29/33/46
f 29/33/46 32/37/48 31/36/46
f 32/37/49 29/33/49 27/32/50
f 8/7/51 31/36/51 32/37/51
f 32/37/51 7/11/52 8/7/51
f 7/11/22 32/37/22 13/18/22
f 27/32/50 13/18/50 32/37/49
f 30/35/53 31/36/53 34/38/54
f 33/39/55 34/38/55 31/36/55
f 31/36/55 8/7/55 33/39/55
f 33/39/56 3/4/56 34/38/56
f 34/38/54 35/40/54 30/35/53
f 34/38/57 3/4/57 35/40/57
f 35/40/58 36/41/59 37/42/59
f 35/40/60 3/4/60 36/41/60
f 37/42/59 30/35/61 35/40/58
f 37/42/62 38/43/62 21/26/63
f 21/26/63 28/34/63 37/42/62
f 38/43/64 37/42/64 36/41/64
f 30/35/44 37/42/44 28/34/44
f 39/44/65 38/43/65 40/45/65
f 38/43/66 39/44/67 19/24/68
f 19/24/68 21/26/69 38/43/66
f 36/41/64 40/45/64 38/43/64
f 36/41/70 3/4/70 40/45/70
f 40/45/65 4/5/65 39/44/65
f 40/45/71 3/4/71 4/5/71
f 39/44/72 5/6/72 10/13/73
f 10/13/73 19/24/72 39/44/72
f 5/6/5 39/44/5 4/5/5
f 2/9/7 33/39/74 8/7/6
f 2/9/75 3/4/75 33/39/75
f 28/34/43 21/26/43 22/27/43
f 13/18/76 27/32/76 41/46/77
f 25/30/40 41/46/40 27/32/40
f 41/46/77 14/19/77 13/18/76
f 42/47/78 43/48/78 45/49/78
f 42/47/78 44/50/78 43/48/78
f 50/51/79 44/50/80 42/47/80
f 42/47/81 45/49/82 46/52/83
f 46/52/83 47/53/82 42/47/81
f 48/54/84 42/47/84 47/53/84
f 48/54/84 49/55/85 42/47/84
f 42/47/80 49/55/86 50/51/79
f 51/56/87 52/57/88 54/58/87
f 51/56/87 53/59/87 52/57/88
f 59/60/89 53/59/90 51/56/90
f 51/56/91 54/58/92 55/61/92
f 55/61/92 56/62/93 51/56/91
f 57/63/94 51/56/95 56/62/96
f 57/63/94 58/64/96 51/56/95
f 51/56/90 58/64/90 59/60/89
f 60/65/97 61/66/97 63/67/97
f 61/66/98 60/65/98 62/68/98
f 67/69/99 62/68/100 60/65/99
f 63/67/97 64/70/101 60/65/97
f 65/71/102 60/65/102 64/70/102
f 65/71/102 66/72/102 60/65/102
f 60/65/99 66/72/103 67/69/99
f 62/68/104 68/73/104 61/66/104
f 69/74/105 70/75/105 72/76/106
f 69/74/105 71/77/105 70/75/105
f 77/78/107 71/77/108 69/74/107
f 69/74/109 72/76/109 73/79/110
f 73/79/110 74/80/111 69/74/109
f 75/81/112 69/74/112 74/80/112
f 75/81/112 76/82/113 69/74/112
f 69/74/107 76/82/114 77/78/107
f 78/83/115 79/84/116 81/85/117
f 78/83/115 80/86/118 79/84/116
f 86/87/119 80/86/120 78/83/121
f 78/83/122 81/85/123 82/88/124
f 82/88/124 83/89/125 78/83/122
f 84/90/126 78/83/127 83/89/126
f 84/90/126 85/91/126 78/83/127
f 78/83/121 85/91/128 86/87/119
f 87/92/129 88/93/130 90/94/129
f 87/92/129 89/95/129 88/93/130
f 95/96/131 89/95/132 87/92/132
f 87/92/133 90/94/133 91/97/134
f 91/97/134 92/98/135 87/92/133
f 93/99/136 87/92/137 92/98/138
f 93/99/136 94/100/138 87/92/137
f 87/92/132 94/100/139 95/96/131
f 96/101/140 97/102/141 99/103/142
f 96/101/140 98/104/143 97/102/141
f 104/105/144 98/104/145 96/101/146
f 96/101/147 99/103/148 100/106/149
f 100/106/149 101/107/148 96/101/147
f 102/108/150 96/101/151 101/107/152
f 102/108/150 103/109/152 96/101/151
f 96/101/146 103/109/153 104/105/144
f 105/110/154 106/111/155 108/112/156
f 105/110/154 107/113/156 106/111/155
f 113/114/157 107/113/158 105/110/159
f 105/110/160 108/112/161 109/115/162
f 109/115/162 110/116/160 105/110/160
f 111/117/163 105/110/163 110/116/163
f 111/117/163 112/118/164 105/110/163
f 105/110/159 112/118/158 113/114/157
