# Blender 4.4.1
# www.blender.org
o Tree_11
v 0.069378 0.945783 -0.010602
v 0.076819 0.944686 -0.007487
v 0.080397 1.024332 -0.004220
v 0.077424 1.024788 -0.002974
v 0.061938 0.946881 -0.007487
v 0.044786 0.811777 -0.015617
v 0.055762 0.810323 -0.011033
v 0.043400 0.674723 0.000033
v 0.060310 0.809721 0.000033
v 0.037378 0.675391 -0.014580
v 0.022845 0.677004 -0.020633
v 0.031973 0.539403 0.000033
v 0.024471 0.540046 -0.018126
v 0.006365 0.541600 -0.025648
v 0.027363 0.404081 0.000033
v 0.018379 0.404616 -0.021673
v -0.003305 0.405910 -0.030664
v 0.018972 0.269415 -0.025219
v 0.029433 0.269046 0.000033
v 0.036579 0.134387 0.000033
v 0.024646 0.134568 0.028832
v 0.018972 0.269415 0.025285
v 0.018379 0.404616 0.021739
v -0.004162 0.135005 0.040761
v -0.006283 0.270304 0.035745
v -0.032970 0.135442 0.028832
v -0.031537 0.271194 0.025285
v -0.003305 0.405910 0.030730
v -0.024993 0.407204 0.021739
v 0.006365 0.541600 0.025714
v 0.024471 0.540046 0.018192
v 0.037378 0.675391 0.014646
v 0.055762 0.810323 0.011099
v 0.022845 0.677004 0.020699
v 0.008305 0.678617 0.014646
v -0.011749 0.543154 0.018192
v 0.044786 0.811777 0.015683
v 0.069378 0.945783 0.010668
v 0.033809 0.813231 0.011099
v 0.076819 0.944686 0.007553
v 0.084601 1.023689 0.000033
v 0.079901 0.944231 0.000033
v 0.083369 1.023877 0.003040
v 0.080397 1.024332 0.004286
v 0.061938 0.946881 0.007553
v 0.077424 1.024788 0.003040
v 0.058856 0.947335 0.000033
v 0.076193 1.024976 0.000033
v 0.033809 0.813231 -0.011033
v 0.029262 0.813833 0.000033
v 0.002273 0.679286 0.000033
v 0.008305 0.678617 -0.014580
v -0.011749 0.543154 -0.018126
v -0.019262 0.543797 0.000033
v -0.024993 0.407204 -0.021673
v -0.033980 0.407739 0.000033
v -0.031537 0.271194 -0.025219
v -0.006283 0.270304 -0.035679
v 0.024646 0.134568 -0.028766
v -0.004162 0.135005 -0.040695
v -0.032970 0.135442 -0.028766
v -0.000004 -0.000001 -0.045710
v 0.032348 -0.000071 -0.032313
v 0.045749 -0.000100 0.000033
v 0.032348 -0.000071 0.032379
v -0.000004 -0.000001 0.045776
v -0.032356 0.000068 0.032379
v -0.045756 0.000097 0.000033
v -0.044904 0.135623 0.000033
v -0.032356 0.000068 -0.032313
v -0.041998 0.271562 0.000033
v 0.083369 1.023877 -0.002974
v -0.039897 0.807580 -0.045475
v 0.009645 0.758608 -0.087190
v 0.074596 1.000625 -0.004102
v -0.060957 0.776144 0.026366
v -0.011240 0.807620 0.082315
v 0.051378 0.758665 0.098908
v 0.114380 0.783576 0.054152
v 0.121980 0.741129 -0.014648
v 0.085722 0.783537 -0.073638
v -0.091675 0.492703 -0.145055
v 0.028248 0.410853 -0.166852
v 0.033886 0.857985 0.000222
v -0.181446 0.434317 -0.044616
v -0.152271 0.499285 0.083774
v -0.060000 0.420438 0.166386
v 0.075115 0.473642 0.144728
v 0.149694 0.396974 0.044150
v 0.135713 0.467060 -0.084101
v -0.216237 0.321007 -0.077356
v -0.110304 0.219558 -0.190545
v 0.023783 0.778073 -0.009045
v -0.235114 0.243211 0.089726
v -0.109982 0.321153 0.201942
v 0.044432 0.219771 0.216192
v 0.167682 0.288814 0.096327
v 0.169242 0.196117 -0.064079
v 0.061427 0.288668 -0.182972
v -0.062437 0.626263 -0.134068
v 0.038050 0.553169 -0.153261
v 0.053092 0.928378 0.008321
v -0.143657 0.575282 -0.052749
v -0.119855 0.624619 0.060424
v -0.045567 0.550775 0.129973
v 0.072277 0.592606 0.116875
v 0.136141 0.528662 0.029460
v 0.129696 0.594249 -0.077616
v -0.025173 0.740743 -0.101266
v 0.050257 0.684876 -0.115764
v 0.064062 0.968199 0.006294
v -0.086856 0.702763 -0.039838
v -0.068555 0.739875 0.045652
v -0.012920 0.683612 0.098189
v 0.076368 0.714442 0.088295
v 0.124191 0.665726 0.022262
v 0.119750 0.715310 -0.058623
v -0.005376 0.887747 -0.040963
v 0.035064 0.849151 -0.070179
v 0.082617 1.036694 -0.002181
v -0.026372 0.863675 0.013426
v 0.009015 0.887767 0.059749
v 0.056021 0.849180 0.076486
v 0.107778 0.867840 0.045641
v 0.117454 0.834656 -0.007120
v 0.093387 0.867820 -0.055071
v 0.038083 0.956700 -0.038857
v 0.069240 0.930855 -0.050941
v 0.088519 1.056449 0.001226
v 0.015258 0.940565 -0.007180
v 0.030333 0.956689 0.028841
v 0.057953 0.930839 0.047646
v 0.096720 0.943343 0.036439
v 0.111936 0.921129 0.003885
v 0.104470 0.943354 -0.031258
vn 0.3814 -0.0354 -0.9237
vn 0.3815 -0.0354 -0.9237
vn 0.3813 -0.0354 -0.9238
vn 0.3886 0.0203 -0.9212
vn 0.3892 0.0203 -0.9209
vn -0.3672 0.1264 -0.9215
vn -0.3669 0.1264 -0.9216
vn -0.3713 0.1027 -0.9228
vn -0.3717 0.1027 -0.9227
vn 0.3819 -0.0277 -0.9238
vn 0.3817 -0.0278 -0.9239
vn 0.9141 -0.1332 -0.3829
vn 0.9142 -0.1332 -0.3827
vn 0.9166 -0.1148 -0.3830
vn 0.3820 -0.0278 -0.9237
vn 0.3832 -0.0124 -0.9236
vn 0.3833 -0.0124 -0.9235
vn 0.3828 -0.0124 -0.9238
vn 0.9205 -0.0777 -0.3829
vn 0.9205 -0.0777 -0.3830
vn 0.3827 -0.0124 -0.9238
vn 0.3841 0.0069 -0.9233
vn 0.3841 0.0069 -0.9232
vn 0.3837 0.0069 -0.9234
vn 0.9234 -0.0315 -0.3826
vn 0.9233 -0.0315 -0.3829
vn 0.9232 -0.0315 -0.3829
vn 0.3834 0.0068 -0.9236
vn 0.3838 0.0258 -0.9231
vn 0.3834 0.0257 -0.9232
vn 0.9240 0.0142 -0.3822
vn 0.9240 0.0142 -0.3821
vn 0.9239 0.0141 -0.3825
vn 0.9241 0.0141 -0.3820
vn 0.9230 0.0490 -0.3817
vn 0.9230 0.0490 -0.3816
vn 0.9229 0.0490 -0.3818
vn 0.9229 0.0489 0.3819
vn 0.9221 0.0629 0.3817
vn 0.9230 0.0489 0.3817
vn 0.9239 0.0142 0.3825
vn 0.9238 0.0142 0.3825
vn 0.9240 0.0141 0.3822
vn 0.3834 0.0259 0.9232
vn 0.3837 0.0258 0.9231
vn 0.3836 0.0258 0.9231
vn 0.9240 0.0141 0.3821
vn 0.3831 0.0404 0.9228
vn 0.3826 0.0461 0.9228
vn 0.3831 0.0403 0.9228
vn 0.3835 0.0402 0.9226
vn 0.3838 0.0258 0.9231
vn -0.3819 0.0282 0.9238
vn -0.3822 0.0225 0.9238
vn -0.3817 0.0282 0.9238
vn -0.3817 0.0282 0.9239
vn -0.3810 0.0425 0.9236
vn -0.3805 0.0424 0.9238
vn -0.3791 0.0611 0.9234
vn -0.3791 0.0612 0.9233
vn -0.3787 0.0611 0.9235
vn 0.3841 0.0068 0.9233
vn 0.3838 0.0069 0.9234
vn 0.3834 0.0069 0.9235
vn 0.3834 0.0069 0.9236
vn 0.3828 -0.0123 0.9238
vn 0.3827 -0.0123 0.9238
vn 0.3832 -0.0124 0.9236
vn 0.9232 -0.0315 0.3829
vn 0.9234 -0.0315 0.3826
vn 0.9233 -0.0315 0.3829
vn 0.9205 -0.0777 0.3830
vn 0.9205 -0.0778 0.3829
vn 0.3833 -0.0124 0.9235
vn 0.9166 -0.1148 0.3830
vn 0.3817 -0.0277 0.9239
vn 0.3819 -0.0279 0.9238
vn -0.3763 0.0800 0.9230
vn -0.3764 0.0800 0.9230
vn -0.3759 0.0799 0.9232
vn -0.3760 0.0799 0.9232
vn -0.3735 0.0951 0.9227
vn -0.3736 0.0952 0.9227
vn -0.3733 0.0952 0.9228
vn 0.3813 -0.0353 0.9238
vn 0.3814 -0.0354 0.9237
vn 0.3815 -0.0354 0.9237
vn -0.3717 0.1026 0.9227
vn -0.3713 0.1026 0.9228
vn 0.9227 -0.0546 0.3815
vn 0.9228 -0.0546 0.3815
vn 0.9142 -0.1332 0.3827
vn 0.9141 -0.1331 0.3829
vn 0.3886 0.0204 0.9212
vn 0.3891 0.0202 0.9210
vn 0.3892 0.0202 0.9209
vn -0.3672 0.1264 0.9215
vn -0.3669 0.1263 0.9216
vn -0.9021 0.2012 0.3818
vn -0.9024 0.2001 0.3816
vn -0.9020 0.2014 0.3818
vn -0.9019 0.2014 0.3821
vn -0.9021 0.2016 -0.3817
vn -0.9023 0.2004 -0.3817
vn -0.9020 0.2014 -0.3818
vn -0.9024 0.2000 0.3817
vn -0.9024 0.2000 -0.3817
vn -0.9060 0.1817 -0.3822
vn -0.9060 0.1817 -0.3823
vn -0.9060 0.1817 0.3822
vn -0.9060 0.1817 0.3823
vn -0.3764 0.0799 -0.9230
vn -0.3759 0.0799 -0.9232
vn -0.9122 0.1451 -0.3831
vn -0.9122 0.1451 -0.3832
vn -0.9124 0.1450 -0.3827
vn -0.3761 0.0799 -0.9231
vn -0.3735 0.0951 -0.9227
vn -0.3733 0.0951 -0.9228
vn -0.3734 0.0951 -0.9228
vn -0.3788 0.0611 -0.9234
vn -0.3788 0.0611 -0.9235
vn -0.3791 0.0610 -0.9234
vn -0.3787 0.0611 -0.9235
vn -0.9124 0.1450 -0.3826
vn -0.9184 0.0994 -0.3829
vn -0.9184 0.0994 -0.3830
vn -0.9185 0.0994 -0.3828
vn -0.3805 0.0425 -0.9238
vn -0.3804 0.0425 -0.9238
vn -0.3810 0.0424 -0.9236
vn -0.9183 0.0994 -0.3833
vn -0.9221 0.0543 -0.3831
vn -0.9222 0.0543 -0.3829
vn 0.3834 0.0404 -0.9227
vn 0.3836 0.0404 -0.9226
vn 0.3830 0.0405 -0.9228
vn 0.3826 0.0461 -0.9228
vn 0.3837 0.0258 -0.9231
vn -0.3817 0.0283 -0.9238
vn -0.3817 0.0283 -0.9239
vn -0.3819 0.0282 -0.9238
vn 0.3823 0.0461 -0.9229
vn -0.3822 0.0226 -0.9238
vn -0.3824 0.0225 -0.9237
vn 0.9221 0.0628 -0.3819
vn 0.9220 0.0628 -0.3819
vn 0.9221 0.0628 -0.3817
vn 0.9221 0.0629 0.3819
vn 0.9220 0.0629 0.3819
vn 0.3823 0.0462 0.9229
vn -0.3824 0.0225 0.9237
vn -0.3825 0.0225 0.9237
vn -0.9238 0.0058 0.3827
vn -0.9238 0.0057 0.3828
vn -0.9236 0.0197 0.3829
vn -0.9238 0.0058 -0.3827
vn -0.9238 0.0058 -0.3828
vn -0.9236 0.0196 -0.3829
vn -0.3822 0.0225 -0.9238
vn -0.9236 0.0198 -0.3829
vn -0.9222 0.0543 0.3829
vn -0.9222 0.0544 0.3828
vn -0.9221 0.0543 0.3831
vn -0.9222 0.0543 -0.3828
vn -0.9184 0.0994 0.3830
vn -0.9182 0.0993 0.3834
vn -0.9183 0.0993 0.3832
vn -0.9185 0.0995 0.3827
vn -0.9124 0.1451 0.3827
vn -0.9124 0.1451 0.3826
vn -0.9122 0.1450 0.3831
vn -0.9124 0.1452 0.3826
vn -0.3712 0.1026 0.9229
vn 0.9228 -0.0546 -0.3815
vn 0.9227 -0.0546 -0.3815
vn 0.3887 0.0203 -0.9211
vn -0.3783 0.0610 0.9237
vn 0.9233 -0.0314 0.3829
vn -0.3406 0.3858 -0.8574
vn -0.8573 0.5141 -0.0264
vn -0.7640 0.5142 0.3896
vn 0.0581 0.3863 0.9205
vn 0.4670 0.3081 0.8289
vn 0.9837 0.1797 -0.0022
vn 0.8904 0.1796 -0.4182
vn 0.0683 0.3075 -0.9491
vn 0.0679 0.3485 -0.9349
vn -0.7808 0.4434 -0.4401
vn -0.8899 0.4553 -0.0282
vn -0.3984 0.3991 0.8258
vn 0.0110 0.3529 0.9356
vn 0.8597 0.2580 0.4408
vn 0.9688 0.2461 0.0289
vn 0.4773 0.3023 -0.8251
vn -0.4864 0.3735 -0.7899
vn -0.8867 0.4493 0.1090
vn -0.7351 0.4495 0.5075
vn 0.1615 0.3744 0.9131
vn 0.5576 0.3282 0.7624
vn 0.9580 0.2524 -0.1365
vn 0.8064 0.2521 -0.5350
vn -0.0902 0.3273 -0.9406
vn 0.1086 0.3895 -0.9146
vn -0.7502 0.4940 -0.4395
vn -0.8709 0.4906 -0.0307
vn -0.4073 0.3747 0.8329
vn -0.0034 0.3074 0.9516
vn 0.8554 0.2029 0.4765
vn 0.9761 0.2064 0.0677
vn 0.5125 0.3222 -0.7959
vn 0.1120 0.3886 -0.9146
vn -0.7459 0.5005 -0.4395
vn -0.8666 0.4981 -0.0307
vn -0.4040 0.3782 0.8329
vn -0.0007 0.3075 0.9516
vn 0.8571 0.1955 0.4765
vn 0.9779 0.1980 0.0677
vn 0.5153 0.3178 -0.7959
vn -0.2674 0.3876 -0.8822
vn -0.8462 0.5245 -0.0945
vn -0.7859 0.5246 0.3275
vn -0.0096 0.3880 0.9216
vn 0.4042 0.3045 0.8625
vn 0.9830 0.1677 0.0748
vn 0.9227 0.1676 -0.3472
vn 0.1465 0.3041 -0.9413
vn -0.0354 0.3880 -0.9210
vn -0.7947 0.5246 -0.3054
vn -0.8432 0.5245 0.1181
vn -0.2426 0.3877 0.8893
vn 0.1727 0.3042 0.9368
vn 0.9320 0.1676 0.3213
vn 0.9805 0.1677 -0.1023
vn 0.3800 0.3045 -0.8734
vt 0.209160 0.638945
vt 0.209069 0.640724
vt 0.179219 0.640660
vt 0.226585 0.641742
vt 0.226854 0.646716
vt 0.227053 0.647402
vt 0.210348 0.653053
vt 0.209909 0.651325
vt 0.180932 0.658941
vt 0.179167 0.638034
vt 0.149260 0.640655
vt 0.179291 0.643287
vt 0.149347 0.644122
vt 0.149216 0.637187
vt 0.119277 0.640633
vt 0.119352 0.644943
vt 0.119303 0.636323
vt 0.089338 0.640623
vt 0.089383 0.645781
vt 0.089476 0.635461
vt 0.059488 0.640610
vt 0.059496 0.646607
vt 0.029746 0.647419
vt 0.030116 0.654242
vt 0.059812 0.652596
vt 0.060397 0.658564
vt 0.089625 0.650931
vt 0.030811 0.661039
vt 0.090049 0.656069
vt 0.031696 0.667815
vt 0.061147 0.664510
vt 0.090617 0.661193
vt 0.119786 0.653563
vt 0.119519 0.649253
vt 0.149454 0.647588
vt 0.149603 0.651053
vt 0.179359 0.645917
vt 0.120174 0.657865
vt 0.149850 0.654515
vt 0.179449 0.648547
vt 0.209062 0.644275
vt 0.209146 0.646048
vt 0.179615 0.651172
vt 0.226435 0.643166
vt 0.226433 0.643884
vt 0.209039 0.642500
vt 0.226479 0.644602
vt 0.209307 0.647817
vt 0.226567 0.645314
vt 0.209559 0.649579
vt 0.226692 0.646019
vt 0.179911 0.653785
vt 0.180358 0.656376
vt 0.150825 0.661382
vt 0.150251 0.657961
vt 0.122206 0.670633
vt 0.121384 0.666401
vt 0.151550 0.664775
vt 0.092929 0.676485
vt 0.092056 0.671397
vt 0.120703 0.662146
vt 0.063720 0.682298
vt 0.091290 0.666299
vt 0.062809 0.676374
vt 0.059749 0.634619
vt 0.029759 0.640585
vt 0.030098 0.633760
vt 0.034591 0.688112
vt 0.000141 0.640550
vt 0.033586 0.681352
vt 0.005527 0.693921
vt 0.000486 0.632888
vt 0.000138 0.648214
vt 0.000538 0.655866
vt 0.001278 0.663497
vt 0.002232 0.671113
vt 0.003273 0.678725
vt 0.032639 0.674583
vt 0.004357 0.686333
vt 0.061965 0.670444
vt 0.226486 0.642449
vt 0.298841 0.792540
vt 0.329760 0.796835
vt 0.299025 0.820073
vt 0.306522 0.766100
vt 0.334055 0.765916
vt 0.360495 0.773597
vt 0.360679 0.801130
vt 0.352998 0.827570
vt 0.325465 0.827754
vt 0.580948 0.290028
vt 0.636934 0.297213
vt 0.581798 0.339807
vt 0.594340 0.242077
vt 0.644119 0.241227
vt 0.692070 0.254619
vt 0.692920 0.304398
vt 0.679528 0.352349
vt 0.629749 0.353199
vt 0.523896 0.392544
vt 0.452855 0.387395
vt 0.519354 0.329884
vt 0.510366 0.453895
vt 0.447706 0.458437
vt 0.386355 0.444907
vt 0.381813 0.382246
vt 0.395343 0.320896
vt 0.458004 0.316354
vt 0.686047 0.147001
vt 0.734002 0.153077
vt 0.686844 0.189629
vt 0.697449 0.105918
vt 0.740078 0.105122
vt 0.781160 0.116524
vt 0.781957 0.159152
vt 0.770554 0.200235
vt 0.727926 0.201031
vt 0.492444 0.763523
vt 0.528635 0.768374
vt 0.492814 0.795728
vt 0.501281 0.732553
vt 0.533485 0.732183
vt 0.564456 0.741020
vt 0.564826 0.773224
vt 0.555989 0.804195
vt 0.523784 0.804565
vt 0.852029 0.782836
vt 0.876019 0.786374
vt 0.851993 0.804225
vt 0.858168 0.762348
vt 0.879557 0.762384
vt 0.900046 0.768524
vt 0.900009 0.789912
vt 0.893870 0.810401
vt 0.872481 0.810364
vt 0.946029 0.675390
vt 0.962200 0.676903
vt 0.946765 0.689696
vt 0.949406 0.661468
vt 0.963713 0.660732
vt 0.977635 0.664109
vt 0.978371 0.678416
vt 0.974993 0.692338
vt 0.960687 0.693074
s 1
f 1/1/1 2/2/2 7/3/3
f 2/2/4 1/1/4 3/4/5
f 4/5/6 3/6/7 1/7/6
f 1/7/6 5/8/6 4/5/6
f 5/8/8 1/7/9 6/9/9
f 7/3/3 6/10/10 1/1/1
f 6/10/10 7/3/3 10/11/11
f 9/12/12 7/3/12 2/2/13
f 7/3/14 9/12/14 8/13/14
f 8/13/14 10/11/14 7/3/14
f 10/11/11 11/14/15 6/10/10
f 11/14/16 10/11/17 13/15/18
f 10/11/19 8/13/19 12/16/20
f 12/16/20 13/15/20 10/11/19
f 13/15/18 14/17/21 11/14/16
f 14/17/22 13/15/23 16/18/24
f 13/15/25 12/16/25 15/19/26
f 15/19/26 16/18/27 13/15/25
f 16/18/24 17/20/28 14/17/22
f 17/20/29 16/18/29 18/21/30
f 16/18/31 15/19/32 19/22/33
f 19/22/33 18/21/34 16/18/31
f 18/21/35 19/22/36 20/23/37
f 21/24/38 20/23/39 19/22/40
f 19/22/40 22/25/40 21/24/38
f 22/25/41 19/22/42 15/19/43
f 25/26/44 22/25/45 23/27/46
f 15/19/43 23/27/47 22/25/41
f 24/28/48 21/24/49 22/25/50
f 22/25/50 25/26/51 24/28/48
f 23/27/46 28/29/52 25/26/44
f 26/30/53 24/28/54 25/26/55
f 25/26/55 27/31/56 26/30/53
f 27/31/57 25/26/57 28/29/58
f 28/29/58 29/32/58 27/31/57
f 29/32/59 28/29/60 30/33/61
f 31/34/62 30/33/63 28/29/64
f 28/29/64 23/27/65 31/34/62
f 30/33/66 31/34/67 32/35/68
f 12/16/69 31/34/70 23/27/71
f 31/34/72 12/16/72 8/13/73
f 8/13/73 32/35/73 31/34/72
f 32/35/68 34/36/74 30/33/66
f 9/12/75 33/37/75 32/35/75
f 34/36/76 32/35/76 33/37/77
f 32/35/75 8/13/75 9/12/75
f 36/38/78 30/33/79 34/36/80
f 34/36/80 35/39/81 36/38/78
f 35/39/82 34/36/83 37/40/84
f 33/37/77 37/40/85 34/36/76
f 37/40/85 33/37/77 40/41/86
f 40/41/86 38/42/87 37/40/85
f 39/43/88 37/40/84 38/42/89
f 37/40/84 39/43/88 35/39/82
f 41/44/90 43/45/90 40/41/91
f 40/41/91 42/46/91 41/44/90
f 42/46/92 40/41/92 33/37/93
f 38/42/94 40/41/94 43/45/95
f 43/45/95 44/47/96 38/42/94
f 45/48/97 38/42/97 44/47/98
f 44/47/98 46/49/98 45/48/97
f 47/50/99 45/48/100 46/49/101
f 46/49/101 48/51/102 47/50/99
f 5/8/103 47/50/104 48/51/105
f 48/51/105 4/5/105 5/8/103
f 45/48/100 47/50/99 50/52/106
f 47/50/104 5/8/103 49/53/107
f 49/53/107 50/52/107 47/50/104
f 50/52/108 49/53/108 52/54/109
f 50/52/106 39/43/106 45/48/100
f 39/43/110 50/52/110 51/55/111
f 52/54/109 51/55/109 50/52/108
f 14/56/112 53/57/112 52/54/113
f 51/55/114 52/54/115 53/57/116
f 52/54/113 11/58/117 14/56/112
f 11/58/118 52/54/119 49/53/120
f 53/57/121 14/56/122 17/59/123
f 17/59/123 55/60/124 53/57/121
f 53/57/116 54/61/125 51/55/114
f 54/61/126 53/57/127 55/60/128
f 55/60/129 17/59/130 58/62/131
f 55/60/128 56/63/132 54/61/126
f 56/63/133 55/60/133 57/64/134
f 58/62/131 57/64/131 55/60/129
f 58/65/135 18/21/136 59/66/137
f 59/66/137 60/67/138 58/65/135
f 18/21/30 58/65/139 17/20/29
f 57/64/140 58/62/141 60/68/142
f 60/67/138 59/66/137 63/69/143
f 60/68/142 61/70/144 57/64/140
f 61/70/144 60/68/142 62/71/145
f 63/69/143 62/72/143 60/67/138
f 64/73/146 63/69/147 59/66/148
f 59/66/148 20/23/37 64/73/146
f 65/74/149 64/73/150 20/23/39
f 66/75/151 65/74/151 21/24/49
f 20/23/39 21/24/38 65/74/149
f 21/24/49 24/28/48 66/75/151
f 67/76/152 66/75/153 24/28/54
f 24/28/54 26/30/53 67/76/152
f 68/77/154 67/76/154 26/30/155
f 26/30/155 69/78/156 68/77/154
f 70/79/157 68/77/157 69/78/158
f 69/78/158 61/70/159 70/79/157
f 62/71/145 70/79/160 61/70/144
f 27/31/156 71/80/156 69/78/156
f 69/78/156 26/30/155 27/31/156
f 61/70/159 69/78/158 71/80/161
f 71/80/162 27/31/163 29/32/164
f 71/80/161 57/64/161 61/70/159
f 57/64/134 71/80/165 56/63/133
f 29/32/164 56/63/164 71/80/162
f 20/23/37 59/66/148 18/21/35
f 36/38/166 54/61/167 56/63/168
f 56/63/168 29/32/169 36/38/166
f 54/61/170 36/38/171 35/39/172
f 35/39/172 51/55/173 54/61/170
f 51/55/111 35/39/111 39/43/110
f 49/53/120 6/9/9 11/58/118
f 6/9/9 49/53/120 5/8/8
f 38/42/89 45/48/174 39/43/88
f 72/81/175 41/44/176 42/46/175
f 42/46/175 2/2/175 72/81/175
f 2/2/13 42/46/13 9/12/12
f 33/37/93 9/12/93 42/46/92
f 3/4/5 72/81/177 2/2/4
f 30/33/61 36/38/178 29/32/59
f 23/27/71 15/19/179 12/16/69
f 73/82/180 75/83/180 74/84/180
f 73/82/181 76/85/181 75/83/181
f 75/83/182 76/85/182 77/86/182
f 77/86/183 78/87/183 75/83/183
f 75/83/184 78/87/184 79/88/184
f 75/83/185 79/88/185 80/89/185
f 75/83/186 80/89/186 81/90/186
f 75/83/187 81/90/187 74/84/187
f 82/91/188 84/92/188 83/93/188
f 82/91/189 85/94/189 84/92/189
f 84/92/190 85/94/190 86/95/190
f 86/95/191 87/96/191 84/92/191
f 84/92/192 87/96/192 88/97/192
f 84/92/193 88/97/193 89/98/193
f 84/92/194 89/98/194 90/99/194
f 84/92/195 90/99/195 83/93/195
f 91/100/196 93/101/196 92/102/196
f 91/100/197 94/103/197 93/101/197
f 93/101/198 94/103/198 95/104/198
f 95/104/199 96/105/199 93/101/199
f 93/101/200 96/105/200 97/106/200
f 93/101/201 97/106/201 98/107/201
f 93/101/202 98/107/202 99/108/202
f 93/101/203 99/108/203 92/102/203
f 100/109/204 102/110/204 101/111/204
f 100/109/205 103/112/205 102/110/205
f 102/110/206 103/112/206 104/113/206
f 104/113/207 105/114/207 102/110/207
f 102/110/208 105/114/208 106/115/208
f 102/110/209 106/115/209 107/116/209
f 102/110/210 107/116/210 108/117/210
f 102/110/211 108/117/211 101/111/211
f 109/118/212 111/119/212 110/120/212
f 109/118/213 112/121/213 111/119/213
f 111/119/214 112/121/214 113/122/214
f 113/122/215 114/123/215 111/119/215
f 111/119/216 114/123/216 115/124/216
f 111/119/217 115/124/217 116/125/217
f 111/119/218 116/125/218 117/126/218
f 111/119/219 117/126/219 110/120/219
f 118/127/220 120/128/220 119/129/220
f 118/127/221 121/130/221 120/128/221
f 120/128/222 121/130/222 122/131/222
f 122/131/223 123/132/223 120/128/223
f 120/128/224 123/132/224 124/133/224
f 120/128/225 124/133/225 125/134/225
f 120/128/226 125/134/226 126/135/226
f 120/128/227 126/135/227 119/129/227
f 127/136/228 129/137/228 128/138/228
f 127/136/229 130/139/229 129/137/229
f 129/137/230 130/139/230 131/140/230
f 131/140/231 132/141/231 129/137/231
f 129/137/232 132/141/232 133/142/232
f 129/137/233 133/142/233 134/143/233
f 129/137/234 134/143/234 135/144/234
f 129/137/235 135/144/235 128/138/235
