# Blender 4.4.1
# www.blender.org
o Asteroid_6
v -0.019774 0.000606 -0.039138
v -0.045549 0.027781 -0.001861
v -0.039003 -0.028616 -0.025943
v -0.013861 -0.048529 -0.020142
v 0.007168 -0.018237 -0.026795
v -0.009449 0.074334 0.035717
v 0.007476 0.036407 -0.029529
v 0.032019 0.021249 -0.004062
v 0.050646 0.000937 0.004952
v 0.019615 0.041980 0.035858
v 0.031605 0.018188 0.033607
v 0.020882 -0.020635 0.021640
v -0.007960 0.025817 0.015980
v -0.025913 -0.006071 0.009119
v -0.063196 0.025182 -0.002322
v 0.000255 -0.043659 0.022696
v 0.037419 -0.036728 -0.014101
v 0.017626 -0.070010 -0.015671
vn -0.4251 0.6735 -0.6047
vn -0.4250 0.6735 -0.6047
vn -0.5219 0.2830 -0.8047
vn -0.5221 0.2830 -0.8046
vn 0.0622 -0.3534 -0.9334
vn 0.0621 -0.3534 -0.9334
vn 0.0623 -0.3534 -0.9334
vn 0.5722 -0.0442 -0.8189
vn 0.5722 -0.0441 -0.8189
vn -0.4252 0.6735 -0.6047
vn 0.5722 -0.0443 -0.8189
vn 0.5219 0.1925 -0.8310
vn 0.8162 0.5751 0.0557
vn 0.8162 0.5751 0.0556
vn 0.7003 0.6884 -0.1887
vn 0.8162 0.5750 0.0558
vn -0.4312 -0.2081 0.8779
vn -0.4311 -0.2081 0.8780
vn -0.4094 -0.3545 0.8407
vn -0.2389 0.0654 0.9688
vn -0.2389 0.0653 0.9688
vn -0.3134 0.1237 0.9415
vn -0.3134 0.1235 0.9415
vn -0.3134 0.1236 0.9415
vn -0.6070 -0.5459 0.5776
vn -0.5220 0.2830 -0.8046
vn -0.7261 -0.6142 0.3091
vn -0.7262 -0.6141 0.3091
vn -0.2389 0.0655 0.9688
vn -0.7261 -0.6143 0.3091
vn 0.6609 -0.4797 0.5772
vn 0.1552 -0.1774 -0.9718
vn 0.1551 -0.1775 -0.9718
vn 0.1554 -0.1774 -0.9718
vn 0.6622 -0.4502 0.5990
vn 0.6623 -0.4501 0.5990
vn 0.6621 -0.4502 0.5990
vt 0.588558 0.014239
vt 0.588466 0.020814
vt 0.579620 0.020696
vt 0.592629 0.013592
vt 0.592503 0.009564
vt 0.588156 0.010200
vt 0.582141 0.010282
vt 0.583767 0.014642
vt 0.582364 0.006836
vt 0.577666 0.031885
vt 0.576001 0.028886
vt 0.580084 0.025360
vt 0.572247 0.026162
vt 0.580508 0.028184
vt 0.584164 0.031115
vt 0.584443 0.024420
vt 0.588323 0.026296
vt 0.590542 0.020834
vt 0.593489 0.027750
vt 0.592582 0.031346
vt 0.587511 0.032185
vt 0.591884 0.035869
vt 0.582697 0.036020
vt 0.586746 0.038075
vt 0.591962 0.004997
vt 0.587454 0.005797
vt 0.579448 0.032252
s 1
f 1/1/1 2/2/2 6/3/1
f 2/2/3 1/1/4 3/4/4
f 4/5/5 3/4/6 1/1/5
f 1/1/5 5/6/7 4/5/5
f 8/7/8 5/6/9 1/1/8
f 6/3/1 7/8/10 1/1/1
f 1/1/8 7/8/11 8/7/8
f 5/6/12 8/7/12 9/9/12
f 9/10/13 8/11/14 10/12/13
f 6/3/15 10/12/15 8/11/15
f 8/11/15 7/13/15 6/3/15
f 10/12/13 11/14/16 9/10/13
f 12/15/17 11/14/18 10/12/17
f 13/16/19 10/12/19 6/3/19
f 10/12/17 13/16/17 12/15/17
f 12/15/20 13/16/21 14/17/20
f 15/18/22 14/17/23 13/16/24
f 6/3/19 2/2/19 13/16/19
f 13/16/24 2/2/24 15/18/22
f 14/17/25 15/18/25 3/19/25
f 3/4/4 15/18/26 2/2/3
f 3/19/25 4/20/25 14/17/25
f 16/21/27 14/17/28 4/20/27
f 14/17/20 16/21/29 12/15/20
f 4/20/27 18/22/30 16/21/27
f 17/23/31 12/15/31 16/21/31
f 16/21/31 18/24/31 17/23/31
f 18/25/32 4/5/32 5/6/33
f 5/6/33 17/26/34 18/25/32
f 11/14/35 12/15/36 17/23/35
f 17/23/35 9/27/37 11/14/35
f 9/9/12 17/26/12 5/6/12
