# Blender 4.4.1
# www.blender.org
o Asteroid_2
v -0.104959 -0.003893 0.032801
v -0.032258 -0.077307 0.112726
v -0.061794 -0.094331 -0.070620
v -0.126143 0.007947 -0.061621
v -0.169075 0.090671 0.051646
v -0.085627 0.042070 0.117503
v -0.130128 0.200185 0.142778
v -0.057461 0.058919 0.132691
v -0.189437 0.183324 0.062444
v 0.018067 -0.169228 0.139248
v -0.017022 -0.175337 0.093721
v 0.012335 -0.041556 0.139306
v 0.147492 -0.202452 0.122708
v 0.047466 -0.226941 0.084420
v 0.139229 -0.237200 0.058129
v 0.181998 -0.203525 0.026899
v -0.002211 -0.205496 -0.008256
v 0.041211 -0.206217 -0.051640
v 0.123724 -0.189860 -0.049646
v 0.005198 -0.137450 -0.123816
v -0.000772 -0.077624 -0.134245
v -0.039920 -0.118566 -0.108989
v 0.074581 -0.073147 -0.124210
v 0.147496 -0.134650 -0.051236
v 0.075065 0.013464 -0.107303
v 0.186219 -0.137577 0.027380
v 0.120902 -0.037347 -0.000397
v 0.091968 0.023698 0.046107
v 0.058179 0.100990 -0.099592
v -0.006736 0.170953 -0.151588
v -0.068727 0.168523 -0.160094
v -0.015725 0.020041 -0.123105
v -0.105848 0.031776 -0.097331
v -0.144265 0.117965 -0.073634
v -0.113211 0.207824 -0.084253
v -0.039805 0.232702 -0.065603
v -0.140051 0.248116 0.068187
v -0.046947 0.213245 -0.138471
v 0.052107 0.176647 -0.020066
v 0.076043 0.111908 0.041759
v -0.047977 0.226268 0.094606
v -0.096257 0.242170 0.133845
v 0.061045 0.029857 0.093705
v 0.182017 -0.169560 0.083119
vn -0.8307 -0.3874 0.3998
vn -0.7904 -0.5850 0.1817
vn -0.8355 -0.5362 0.1202
vn -0.8123 -0.5727 0.1104
vn -0.6893 -0.5591 0.4607
vn -0.6160 -0.2246 0.7551
vn -0.6161 -0.2246 0.7550
vn -0.7168 -0.2774 0.6397
vn -0.3444 -0.2419 0.9071
vn -0.5032 -0.7160 0.4839
vn -0.7541 -0.2360 0.6129
vn -0.1015 -0.0050 0.9948
vn 0.1281 0.0053 0.9917
vn -0.0383 -0.7934 0.6075
vn -0.0383 -0.7934 0.6074
vn -0.0382 -0.7934 0.6075
vn -0.1525 -0.9780 -0.1420
vn -0.1526 -0.9780 -0.1419
vn 0.7609 -0.5850 0.2806
vn 0.7609 -0.5851 0.2806
vn 0.2506 -0.8726 -0.4193
vn 0.2506 -0.8725 -0.4194
vn -0.4735 -0.7454 -0.4693
vn -0.4736 -0.7453 -0.4693
vn 0.2506 -0.8726 -0.4192
vn 0.1516 -0.6768 -0.7204
vn 0.3577 -0.3911 -0.8480
vn 0.1395 -0.1565 -0.9778
vn -0.3791 -0.1955 -0.9045
vn 0.7517 0.1223 -0.6480
vn 0.5616 -0.2644 -0.7840
vn 0.1540 0.1601 -0.9750
vn 0.1537 0.1605 -0.9750
vn 0.8756 0.3890 -0.2864
vn 0.8756 0.3889 -0.2865
vn 0.8756 0.3890 -0.2863
vn 0.8550 0.5026 -0.1277
vn 0.9745 0.1844 -0.1282
vn 0.7342 0.1988 -0.6491
vn 0.1491 -0.1920 -0.9700
vn -0.3607 -0.0320 -0.9321
vn -0.2990 -0.3298 -0.8954
vn -0.7918 -0.1937 -0.5793
vn -0.8054 -0.3780 -0.4565
vn -0.8055 -0.3781 -0.4564
vn -0.7095 -0.1256 -0.6934
vn -0.3608 -0.0320 -0.9321
vn -0.9561 -0.1830 -0.2290
vn -0.9560 -0.1828 -0.2293
vn -0.7935 0.2066 -0.5725
vn -0.8750 0.2537 -0.4123
vn -0.2610 0.9387 -0.2251
vn -0.2411 0.9269 -0.2875
vn -0.7487 0.5964 -0.2895
vn -0.5496 0.5651 -0.6152
vn 0.1103 0.3886 -0.9148
vn 0.6162 0.7326 -0.2891
vn 0.8017 0.4624 -0.3787
vn 0.9647 0.2237 -0.1392
vn 0.7108 0.6052 0.3585
vn 0.4979 0.8652 0.0601
vn 0.6153 0.3383 0.7120
vn 0.2260 0.9740 0.0177
vn 0.2261 0.9740 0.0177
vn 0.5491 0.2564 0.7955
vn 0.5491 0.2564 0.7954
vn 0.8357 0.1765 0.5201
vn 0.5750 0.3086 0.7578
vn 0.8056 0.4493 0.3861
vn 0.4223 0.2654 0.8667
vn 0.7610 -0.5849 0.2806
vn 0.9972 -0.0641 0.0384
vn 0.0213 -0.0019 0.9998
vn 0.0215 -0.0018 0.9998
vn 0.0214 -0.0018 0.9998
vn -0.6973 0.5572 0.4508
vn -0.6973 0.5573 0.4508
vn -0.6973 0.5572 0.4509
vn 0.8468 0.5117 -0.1449
vn 0.8222 -0.1949 -0.5348
vn 0.8222 -0.1948 -0.5348
vn -0.8367 -0.5287 -0.1430
vn -0.6056 -0.7827 0.1435
vn -0.8837 -0.4680 0.0101
vn 0.0214 -0.0017 0.9998
vn -0.9676 -0.1839 0.1730
vn -0.9560 -0.1829 -0.2293
vt 0.496705 0.636027
vt 0.500448 0.647341
vt 0.484468 0.645912
vt 0.498487 0.664910
vt 0.509294 0.655190
vt 0.510135 0.638023
vt 0.472021 0.651697
vt 0.509503 0.620738
vt 0.517711 0.629826
vt 0.494433 0.632441
vt 0.478193 0.654991
vt 0.471952 0.661672
vt 0.441155 0.696503
vt 0.450811 0.708377
vt 0.452351 0.722860
vt 0.449583 0.683286
vt 0.466355 0.670430
vt 0.459203 0.666050
vt 0.482581 0.666031
vt 0.465675 0.677079
vt 0.482082 0.672573
vt 0.492770 0.677535
vt 0.475805 0.679040
vt 0.497146 0.671867
vt 0.487423 0.689448
vt 0.495040 0.681514
vt 0.495933 0.688634
vt 0.500861 0.683363
vt 0.487112 0.700071
vt 0.474384 0.685226
vt 0.463943 0.684082
vt 0.471401 0.697227
vt 0.468180 0.706596
vt 0.488614 0.710343
vt 0.499055 0.718364
vt 0.506194 0.717883
vt 0.498624 0.700093
vt 0.510039 0.700225
vt 0.514174 0.696379
vt 0.517578 0.708984
vt 0.521199 0.648545
vt 0.498968 0.735083
vt 0.505458 0.725273
vt 0.507859 0.741545
vt 0.491785 0.753572
vt 0.491869 0.729283
vt 0.499206 0.725594
vt 0.484981 0.746589
vt 0.482305 0.720946
vt 0.472450 0.716559
vt 0.475755 0.739275
vt 0.462377 0.710541
vt 0.468041 0.736664
vt 0.476118 0.747738
vt 0.463032 0.742288
vt 0.456726 0.682923
vt 0.458386 0.675406
vt 0.456659 0.741208
vt 0.478640 0.754331
vt 0.506551 0.684617
s 1
f 6/1/1 1/2/1 2/3/1
f 1/2/2 3/4/2 2/3/2
f 1/2/3 4/5/3 3/4/3
f 4/5/4 1/2/4 5/6/4
f 6/1/5 5/6/5 1/2/5
f 6/1/6 2/3/6 10/7/7
f 6/1/8 7/8/8 9/9/8
f 7/8/9 6/1/9 8/10/9
f 10/7/7 8/10/6 6/1/6
f 9/9/8 5/6/8 6/1/8
f 10/7/10 11/11/10 14/12/10
f 2/3/11 11/11/11 10/7/11
f 10/13/12 12/14/12 8/15/12
f 10/13/13 13/16/13 12/14/13
f 15/17/14 13/18/15 10/7/14
f 10/7/14 14/12/16 15/17/14
f 15/17/17 14/12/18 17/19/18
f 13/18/19 15/17/20 16/20/20
f 16/20/21 15/17/22 18/21/21
f 17/19/18 18/21/18 15/17/17
f 20/22/23 18/21/24 17/19/24
f 18/21/21 19/23/25 16/20/21
f 18/21/26 20/22/26 19/23/26
f 17/19/24 22/24/24 20/22/23
f 19/23/27 20/22/27 23/25/27
f 23/25/28 20/26/28 21/27/28
f 20/26/29 22/28/29 21/27/29
f 23/25/30 25/29/30 24/30/30
f 19/23/31 23/25/31 24/30/31
f 25/29/32 23/25/33 21/27/33
f 26/31/34 24/30/35 25/29/34
f 25/29/34 27/32/36 26/31/34
f 27/32/37 25/29/37 28/33/37
f 28/33/38 25/29/38 29/34/38
f 25/29/39 30/35/39 29/34/39
f 31/36/40 30/35/40 25/29/40
f 25/29/40 32/37/40 31/36/40
f 21/27/33 32/37/33 25/29/32
f 33/38/41 32/37/41 21/27/41
f 33/38/42 31/36/42 32/37/42
f 33/38/43 4/39/43 34/40/43
f 4/39/44 33/38/44 22/28/45
f 33/38/46 34/40/46 31/36/46
f 21/27/41 22/28/47 33/38/41
f 9/9/48 34/41/49 4/5/49
f 35/42/50 31/43/50 34/44/50
f 35/42/51 34/44/51 9/45/51
f 36/46/52 38/47/52 35/42/52
f 36/46/53 35/42/53 37/48/53
f 37/48/54 35/42/54 9/45/54
f 38/47/55 31/43/55 35/42/55
f 30/35/56 31/43/56 38/47/56
f 39/49/57 30/35/57 38/47/57
f 38/47/57 36/46/57 39/49/57
f 29/34/58 30/35/58 39/49/58
f 29/34/59 39/49/59 40/50/59
f 39/49/60 41/51/60 40/50/60
f 39/49/61 36/46/61 41/51/61
f 43/52/62 40/50/62 41/53/62
f 42/54/63 41/51/64 36/46/64
f 43/52/65 41/53/66 42/55/66
f 28/33/67 40/50/67 43/52/67
f 13/16/68 44/56/68 43/52/68
f 28/33/69 43/52/69 44/56/69
f 13/16/70 43/52/70 12/14/70
f 42/55/66 12/14/65 43/52/65
f 16/20/20 44/57/71 13/18/19
f 16/20/72 26/31/72 44/57/72
f 44/56/69 26/31/69 28/33/69
f 36/46/64 37/48/63 42/54/63
f 12/14/73 42/55/74 7/58/75
f 9/45/76 7/59/77 42/54/76
f 42/54/76 37/48/78 9/45/76
f 29/34/38 40/50/38 28/33/38
f 26/31/79 27/32/79 28/33/79
f 24/30/80 26/31/81 16/20/80
f 16/20/80 19/23/80 24/30/80
f 22/28/45 3/60/45 4/39/44
f 3/4/82 22/24/82 17/19/82
f 11/11/83 17/19/83 14/12/83
f 3/4/84 17/19/84 11/11/84
f 7/58/75 8/15/85 12/14/73
f 2/3/86 3/4/86 11/11/86
f 4/5/49 5/6/87 9/9/48
