# Blender 4.4.1
# www.blender.org
o Asteroid_7
v -0.072482 -0.023045 -0.047749
v -0.050442 -0.099758 -0.079061
v -0.046296 0.047188 -0.067741
v -0.101285 0.004940 0.000124
v -0.067052 -0.090940 0.042812
v -0.031572 0.020638 0.110994
v -0.056535 0.033770 0.076084
v -0.055007 -0.136959 0.045673
v -0.038880 -0.138937 0.070874
v 0.053736 -0.071939 0.072859
v 0.018008 -0.019277 0.116184
v 0.038988 -0.113015 0.024534
v 0.002461 -0.106545 -0.093932
v 0.070830 -0.079600 -0.059270
v 0.006506 -0.080073 -0.093199
v 0.012602 0.082642 -0.136157
v 0.061743 0.062121 -0.064748
v 0.038795 0.140619 -0.036701
v 0.006781 0.122090 -0.056296
v 0.106120 -0.045557 0.000599
v 0.048030 0.093978 0.028203
v 0.037410 0.116196 -0.042087
v 0.016490 0.076117 0.095636
v 0.010078 0.124475 0.012606
v -0.009027 0.080869 0.079769
vn -0.9662 -0.2307 -0.1150
vn -0.7220 0.0734 -0.6880
vn -0.8101 0.1400 -0.5693
vn -0.8629 -0.4279 -0.2690
vn -0.8479 -0.0687 0.5256
vn -0.7921 -0.1145 0.5995
vn -0.8248 -0.0798 0.5598
vn -0.9596 -0.2581 -0.1121
vn -0.8342 -0.1861 0.5192
vn 0.5143 -0.7245 0.4589
vn 0.3181 -0.4642 0.8266
vn -0.2769 -0.2224 0.9348
vn 0.1297 -0.9786 -0.1598
vn 0.2440 -0.9613 -0.1277
vn 0.4663 -0.0468 -0.8834
vn 0.4396 -0.8792 -0.1836
vn -0.2008 -0.9367 -0.2867
vn -0.2621 0.0667 -0.9627
vn 0.4539 -0.2433 -0.8572
vn -0.7073 -0.1555 -0.6896
vn -0.2666 0.0815 -0.9604
vn 0.8391 0.0328 -0.5430
vn 0.8062 0.3935 -0.4417
vn -0.2292 0.8660 -0.4445
vn -0.7422 0.5778 -0.3395
vn 0.7271 -0.6164 0.3021
vn 0.7595 0.1933 0.6211
vn 0.7063 -0.7078 -0.0139
vn 0.9235 0.3835 0.0048
vn 0.7681 0.5667 0.2979
vn 0.7681 0.5668 0.2979
vn 0.7680 0.5669 0.2980
vn 0.9108 0.4128 -0.0071
vn 0.8793 0.1518 0.4515
vn 0.2350 0.8477 0.4756
vn 0.2352 0.8477 0.4756
vn 0.2351 0.8477 0.4756
vn -0.6946 0.7194 0.0083
vn -0.6946 0.7194 0.0082
vn -0.7254 0.6530 0.2177
vn -0.7020 0.6964 0.1492
vn -0.3729 0.5332 0.7594
vn -0.5786 0.5355 0.6152
vn 0.8360 0.1282 0.5335
vn 0.0679 0.2111 0.9751
vn 0.3559 -0.2205 0.9082
vn -0.7689 0.5845 -0.2592
vn -0.6946 0.7194 0.0084
vt 0.025440 0.367705
vt 0.026516 0.353767
vt 0.034658 0.365218
vt 0.041857 0.371285
vt 0.039206 0.359332
vt 0.041354 0.348383
vt 0.020569 0.419951
vt 0.039478 0.415162
vt 0.026886 0.424562
vt 0.042263 0.419349
vt 0.020302 0.353892
vt 0.021053 0.423578
vt 0.015112 0.402466
vt 0.022267 0.405521
vt 0.010080 0.412585
vt 0.033965 0.410728
vt 0.026348 0.406137
vt 0.006872 0.410950
vt 0.004183 0.392501
vt 0.020817 0.383820
vt 0.021233 0.372650
vt 0.024240 0.374612
vt 0.014046 0.391196
vt 0.039784 0.380377
vt 0.037146 0.388090
vt 0.023052 0.394082
vt 0.047712 0.388808
vt 0.047481 0.383274
vt 0.041613 0.398025
vt 0.047429 0.396208
vt 0.044574 0.389601
vt 0.041887 0.406838
vt 0.063422 0.407094
vt 0.045882 0.406001
vt 0.052613 0.410552
vt 0.045211 0.407805
vt 0.047058 0.411393
vt 0.052647 0.389669
vt 0.062188 0.395349
s 1
f 2/1/1 5/2/1 1/3/1
f 1/3/2 3/4/2 2/1/2
f 1/3/3 4/5/3 3/4/3
f 4/5/4 1/3/4 5/2/4
f 5/2/5 7/6/5 4/5/5
f 9/7/6 6/8/6 5/9/6
f 6/8/7 7/10/7 5/9/7
f 2/1/8 8/11/8 5/2/8
f 8/12/9 9/7/9 5/9/9
f 12/13/10 10/14/10 9/15/10
f 11/16/11 9/7/11 10/17/11
f 11/16/12 6/8/12 9/7/12
f 9/15/13 8/18/13 13/19/13
f 9/15/14 13/19/14 12/13/14
f 14/20/15 13/21/15 15/22/15
f 14/23/16 12/13/16 13/19/16
f 13/21/17 8/11/17 2/1/17
f 2/1/18 15/22/18 13/21/18
f 14/20/19 15/22/19 16/24/19
f 3/4/20 16/24/20 15/22/20
f 2/1/21 3/4/21 15/22/21
f 16/24/22 17/25/22 20/26/22
f 16/24/23 18/27/23 17/25/23
f 16/24/24 19/28/24 18/27/24
f 3/4/25 19/28/25 16/24/25
f 20/26/22 14/20/22 16/24/22
f 20/26/26 10/14/26 12/13/26
f 20/26/27 21/29/27 10/14/27
f 14/23/28 20/26/28 12/13/28
f 20/26/29 17/25/29 21/29/29
f 18/27/30 24/30/31 21/29/32
f 21/29/32 22/31/32 18/27/30
f 17/25/33 22/31/33 21/29/33
f 10/14/34 21/29/34 23/32/34
f 23/32/35 21/29/36 24/30/37
f 4/33/38 24/30/39 18/27/38
f 4/33/40 25/34/40 24/30/40
f 24/30/37 25/34/35 23/32/35
f 4/33/41 7/35/41 25/34/41
f 23/36/42 25/37/42 6/8/42
f 6/8/43 25/37/43 7/10/43
f 23/36/44 11/16/44 10/17/44
f 11/16/45 23/36/45 6/8/45
f 17/25/46 18/27/46 22/31/46
f 4/33/47 19/38/47 3/39/47
f 18/27/38 19/38/48 4/33/38
