# Blender 4.4.1
# www.blender.org
o Asteroid_1
v 0.054323 0.076827 -0.164376
v 0.163352 0.029189 -0.122110
v 0.082866 0.153310 -0.113372
v -0.059902 0.215966 -0.127956
v -0.091279 0.151151 -0.150825
v 0.064717 0.067337 -0.139005
v 0.018529 -0.006979 -0.179553
v 0.101716 -0.071885 -0.182434
v 0.107038 -0.065461 -0.155130
v 0.162079 0.024797 -0.101261
v 0.200313 -0.083709 -0.095047
v 0.002026 -0.181888 -0.106542
v 0.113665 -0.166772 -0.145317
v 0.177312 -0.182431 -0.050793
v 0.107215 -0.235869 -0.051286
v 0.109330 -0.238859 0.046738
v 0.020698 -0.244239 0.016596
v 0.040170 -0.210479 0.106507
v -0.081261 -0.153821 0.101554
v -0.096012 -0.171211 -0.003785
v -0.179970 -0.053141 0.099264
v -0.185023 -0.012473 -0.072775
v -0.223869 -0.008401 0.007052
v -0.236618 0.097557 0.072141
v -0.228629 0.158584 -0.073727
v -0.103405 0.025044 -0.137889
v -0.162959 0.232871 -0.010296
v -0.212897 0.157879 -0.053903
v -0.090244 0.151242 -0.122751
v -0.062224 0.209121 -0.102330
v -0.024093 0.252628 -0.052335
v -0.006763 0.225062 0.081489
v -0.152971 0.200952 0.076832
v -0.172190 0.072036 0.140559
v 0.001582 0.142820 0.154864
v 0.092315 -0.034689 0.172089
v -0.043828 0.011008 0.184855
v -0.038625 0.010232 0.165224
v 0.001016 0.125039 0.139004
v 0.134580 0.109582 0.076074
v 0.121157 0.179692 -0.019441
v 0.205191 0.001447 -0.016553
v 0.186531 -0.085404 0.068535
v 0.181354 0.001880 -0.012691
v 0.124433 0.093125 0.065554
v 0.165040 -0.072021 0.058859
v 0.144484 -0.181077 0.089457
v 0.050548 -0.135957 0.159407
v -0.075803 -0.075347 0.177622
v 0.036125 -0.191293 0.103387
v 0.045195 -0.126554 0.150032
v -0.064477 -0.072986 0.165968
v -0.149891 0.063218 0.127493
v -0.097741 0.013841 -0.109941
v -0.170625 -0.019665 -0.051794
v -0.003592 -0.170949 -0.081948
vn -0.3203 -0.9228 -0.2141
vn -0.3203 -0.9229 -0.2139
vn 0.4701 0.3615 -0.8052
vn 0.2860 0.4555 -0.8431
vn 0.0663 0.3033 -0.9506
vn -0.0005 0.1784 -0.9840
vn 0.9123 0.3215 -0.2535
vn 0.0789 0.1449 -0.9863
vn -0.8661 0.4972 0.0519
vn -0.8661 0.4972 0.0518
vn 0.4418 0.2456 -0.8629
vn 0.6654 0.0391 -0.7455
vn 0.6340 -0.2112 -0.7439
vn -0.2572 -0.3800 -0.8885
vn -0.2988 -0.3435 -0.8904
vn 0.5353 -0.6978 -0.4760
vn 0.7207 -0.4164 -0.5543
vn -0.0980 -0.7987 -0.5937
vn 0.6060 -0.7946 -0.0373
vn 0.0714 -0.9969 -0.0320
vn -0.2366 -0.8808 -0.4101
vn -0.0672 -0.9292 0.3635
vn -0.4013 -0.8255 0.3969
vn -0.5447 -0.8118 0.2103
vn -0.4532 -0.8211 -0.3470
vn -0.7821 -0.6190 0.0720
vn -0.7004 -0.6819 0.2107
vn -0.6195 -0.5782 -0.5310
vn -0.7513 -0.5676 -0.3367
vn -0.9111 -0.2897 0.2932
vn -0.9942 -0.0686 -0.0831
vn -0.8803 -0.2267 -0.4168
vn 0.2466 -0.9416 -0.2292
vn -0.4164 0.7746 -0.4760
vn -0.4908 -0.0421 -0.8703
vn -0.5733 -0.1506 -0.8054
vn 0.0512 0.9987 -0.0051
vn -0.8100 0.5555 0.1880
vn -0.9040 0.4264 0.0319
vn -0.9040 0.4263 0.0320
vn -0.4114 0.4739 -0.7786
vn -0.2310 0.9139 -0.3337
vn -0.0750 0.9747 0.2105
vn -0.1631 0.9202 0.3558
vn -0.7477 0.5912 0.3023
vn -0.2569 0.4588 0.8506
vn -0.5714 0.4306 0.6987
vn -0.1314 0.6525 0.7463
vn 0.1486 0.1705 0.9741
vn 0.5406 0.3506 0.7647
vn -0.9299 0.2618 -0.2585
vn -0.9299 0.2618 -0.2584
vn -0.9299 0.2618 -0.2583
vn 0.2026 -0.6403 0.7409
vn 0.2026 -0.6403 0.7410
vn 0.5135 0.5997 0.6138
vn 0.8878 0.4215 0.1847
vn 0.5820 0.6924 0.4264
vn 0.1266 -0.5975 0.7918
vn 0.5190 0.1665 -0.8384
vn 0.7700 0.1815 0.6117
vn 0.8889 0.2019 0.4112
vn 0.1146 0.6804 0.7238
vn 0.6934 -0.1506 0.7046
vn 0.9858 -0.1594 0.0535
vn 0.9103 -0.3527 0.2165
vn 0.4734 -0.2990 0.8286
vn 0.7720 -0.6076 0.1866
vn 0.2881 -0.5807 0.7615
vn 0.3008 -0.6785 0.6702
vn 0.0692 -0.1520 0.9860
vn -0.9174 -0.1385 0.3730
vn -0.4301 -0.7304 -0.5306
vn -0.1570 -0.5628 0.8116
vn 0.6935 0.2331 0.6817
vn 0.0580 -0.1046 0.9928
vn -0.3109 0.0356 0.9498
vn -0.6159 -0.2120 0.7587
vn -0.5740 -0.5490 0.6075
vn -0.3292 -0.6453 0.6893
vn 0.8794 0.4107 -0.2406
vn 0.9240 0.2292 -0.3060
vn 0.9772 -0.1715 0.1253
vn 0.7374 0.5094 -0.4436
vn 0.4212 0.8976 0.1303
vn 0.4816 0.7727 -0.4134
vn 0.2026 -0.6402 0.7410
vn -0.1863 0.2794 0.9419
vn 0.4072 0.9102 0.0756
vn 0.4072 0.9102 0.0755
vn 0.4072 0.9102 0.0754
vn -0.7480 -0.1655 0.6427
vn 0.3833 0.7468 -0.5435
vn -0.8909 -0.4541 -0.0015
vn -0.3811 -0.3253 -0.8654
vn -0.3377 -0.0639 -0.9391
vn 0.1101 -0.9146 -0.3890
vn 0.6412 0.7448 -0.1847
vn 0.6412 0.7448 -0.1849
vn -0.4735 -0.3628 -0.8026
vt 0.827124 0.380570
vt 0.830157 0.380571
vt 0.819060 0.392100
vt 0.836850 0.389611
vt 0.851394 0.378393
vt 0.879094 0.504354
vt 0.878667 0.513365
vt 0.861073 0.511342
vt 0.855602 0.502645
vt 0.859445 0.514349
vt 0.845608 0.511513
vt 0.844936 0.507839
vt 0.808009 0.379243
vt 0.811334 0.379412
vt 0.819250 0.390314
vt 0.804461 0.395043
vt 0.796292 0.478315
vt 0.807303 0.488020
vt 0.795068 0.492780
vt 0.837858 0.488108
vt 0.834703 0.504737
vt 0.816992 0.476967
vt 0.808094 0.473422
vt 0.821378 0.492126
vt 0.820066 0.466223
vt 0.829614 0.474066
vt 0.828361 0.460619
vt 0.844256 0.461267
vt 0.847344 0.473287
vt 0.861341 0.457743
vt 0.872184 0.466716
vt 0.871691 0.479292
vt 0.881096 0.449898
vt 0.889005 0.468746
vt 0.880748 0.475598
vt 0.890855 0.472236
vt 0.908115 0.472530
vt 0.897013 0.459913
vt 0.866701 0.492999
vt 0.882309 0.502580
vt 0.879613 0.504087
vt 0.881620 0.513334
vt 0.908526 0.474277
vt 0.907086 0.480314
vt 0.913461 0.467117
vt 0.915731 0.454556
vt 0.897711 0.450997
vt 0.893764 0.436077
vt 0.918218 0.443079
vt 0.834020 0.435191
vt 0.854110 0.420133
vt 0.851037 0.438389
vt 0.834868 0.414336
vt 0.852956 0.436968
vt 0.918378 0.440385
vt 0.856264 0.422244
vt 0.857557 0.406906
vt 0.838766 0.401315
vt 0.815253 0.406877
vt 0.816367 0.410288
vt 0.831949 0.414570
vt 0.815973 0.428786
vt 0.815954 0.425344
vt 0.793602 0.458377
vt 0.797436 0.458476
vt 0.787166 0.469637
vt 0.785271 0.467637
vt 0.813665 0.441564
vt 0.813348 0.457879
vt 0.828409 0.447853
vt 0.847040 0.449000
vt 0.829298 0.458358
vt 0.829969 0.449123
vt 0.844850 0.449282
vt 0.869303 0.443598
vt 0.855618 0.389352
vt 0.897499 0.434421
vt 0.867759 0.440513
vt 0.865324 0.490438
vt 0.869298 0.481340
vt 0.841528 0.487683
s 1
f 6/1/1 1/2/1 2/3/2
f 1/2/3 3/4/3 2/3/3
f 4/5/4 3/4/4 1/2/4
f 5/6/5 4/7/5 1/8/5
f 7/9/6 5/6/6 1/8/6
f 1/8/7 6/10/7 9/11/7
f 7/9/8 1/8/8 8/12/8
f 9/11/7 8/12/7 1/8/7
f 8/13/9 9/14/9 10/15/10
f 9/14/11 6/1/11 10/15/11
f 10/15/10 2/3/10 8/13/9
f 2/3/2 10/15/2 6/1/1
f 8/13/12 2/3/12 11/16/12
f 11/17/13 13/18/13 8/19/13
f 12/20/14 8/12/14 13/21/14
f 12/20/15 7/9/15 8/12/15
f 15/22/16 13/18/16 14/23/16
f 14/23/17 13/18/17 11/17/17
f 15/22/18 12/24/18 13/18/18
f 14/23/19 16/25/19 15/22/19
f 16/25/20 17/26/20 15/22/20
f 15/22/21 17/26/21 12/24/21
f 18/27/22 17/26/22 16/25/22
f 18/27/23 19/28/23 17/26/23
f 19/28/24 20/29/24 17/26/24
f 20/29/25 12/20/25 17/26/25
f 20/29/26 21/30/26 23/31/26
f 19/28/27 21/30/27 20/29/27
f 20/29/28 22/32/28 12/20/28
f 20/29/29 23/31/29 22/32/29
f 21/30/30 24/33/30 23/31/30
f 25/34/31 23/31/31 24/33/31
f 25/34/32 22/35/32 23/31/32
f 28/36/33 25/34/33 4/37/33
f 27/38/34 4/37/34 25/34/34
f 26/39/35 25/40/35 5/6/35
f 25/40/36 26/39/36 22/32/36
f 29/6/37 5/6/37 25/40/37
f 27/38/38 25/34/38 24/33/38
f 25/40/37 28/41/37 29/6/37
f 5/6/39 29/6/39 30/42/40
f 28/36/41 30/43/41 29/44/41
f 30/42/40 4/7/40 5/6/39
f 4/37/33 30/43/33 28/36/33
f 27/38/42 31/45/42 4/37/42
f 32/46/43 31/45/43 27/38/43
f 32/46/44 27/38/44 33/47/44
f 33/47/45 27/38/45 24/33/45
f 34/48/46 35/49/46 33/47/46
f 34/48/47 33/47/47 24/33/47
f 32/46/48 33/47/48 35/49/48
f 36/50/49 35/51/49 37/52/49
f 40/53/50 35/51/50 36/50/50
f 38/54/51 37/52/52 35/51/53
f 39/55/54 35/49/55 34/48/55
f 35/51/53 39/56/52 38/54/51
f 32/57/56 35/51/56 40/53/56
f 41/58/57 40/53/57 42/59/57
f 41/58/58 32/57/58 40/53/58
f 44/60/59 42/59/59 40/53/59
f 45/61/60 40/53/60 43/62/60
f 43/62/61 40/53/61 36/50/61
f 40/53/59 45/61/59 44/60/59
f 43/62/60 46/63/60 45/61/60
f 44/60/62 45/61/62 46/63/62
f 46/64/63 43/65/63 42/66/63
f 42/66/63 44/67/63 46/64/63
f 36/50/64 47/68/64 43/62/64
f 42/66/65 43/65/65 14/23/65
f 43/65/66 47/69/66 14/23/66
f 36/50/67 48/70/67 47/68/67
f 47/69/68 16/25/68 14/23/68
f 48/70/69 18/27/69 47/69/69
f 18/27/70 16/25/70 47/69/70
f 36/50/71 49/71/71 48/70/71
f 50/72/72 18/27/72 48/70/72
f 51/73/73 48/70/73 49/71/73
f 48/70/72 51/73/72 50/72/72
f 51/73/74 52/74/74 50/72/74
f 49/71/73 52/74/73 51/73/73
f 18/27/75 50/72/75 52/74/75
f 52/74/75 49/71/75 18/27/75
f 36/50/76 37/52/76 49/71/76
f 37/52/77 34/75/77 49/71/77
f 34/75/78 21/30/78 49/71/78
f 49/71/79 21/30/79 19/28/79
f 18/27/80 49/71/80 19/28/80
f 2/3/81 41/58/81 42/59/81
f 2/3/82 42/59/82 11/16/82
f 42/66/83 14/23/83 11/17/83
f 3/4/84 41/58/84 2/3/84
f 41/58/85 31/76/85 32/57/85
f 3/4/86 31/76/86 41/58/86
f 34/48/55 53/77/87 39/55/54
f 39/56/88 53/78/88 38/54/88
f 53/78/89 34/75/90 37/52/91
f 37/52/91 38/54/91 53/78/89
f 34/75/92 24/33/92 21/30/92
f 4/5/93 31/76/93 3/4/93
f 54/79/94 26/39/94 12/20/94
f 26/39/95 7/9/95 12/20/95
f 7/9/96 26/39/96 5/6/96
f 55/80/97 22/32/97 26/39/97
f 26/39/97 54/79/97 55/80/97
f 22/32/98 55/80/98 56/81/99
f 56/81/100 55/80/100 54/79/100
f 12/20/94 56/81/94 54/79/94
f 56/81/99 12/20/99 22/32/98
