# Blender 4.4.1
# www.blender.org
o Star
v 0.009280 0.023362 -0.023631
v 0.073213 0.030460 0.023421
v -0.049033 0.057655 -0.064684
v -0.001516 0.007866 -0.065651
v 0.059699 0.014691 -0.010964
v 0.068031 -0.012377 -0.017120
v 0.020184 -0.077454 -0.051870
v 0.050665 -0.030909 0.016982
v 0.027202 -0.044528 -0.060275
v 0.074075 -0.009312 0.013242
v 0.075363 0.043673 0.048684
v 0.082482 0.082230 0.051265
v 0.000967 0.043997 0.083375
v 0.032469 -0.057326 0.081720
v -0.045728 -0.073815 0.028942
v 0.008359 -0.088542 0.004277
v -0.019123 0.011151 0.090163
v -0.069683 -0.046719 0.020619
v -0.105143 0.027952 -0.067244
v -0.082150 0.027212 0.003912
v -0.028752 -0.056228 -0.011906
v -0.089014 0.083611 -0.025136
v -0.091852 0.043376 -0.068121
vn 0.2653 0.8327 -0.4861
vn 0.5896 0.0369 -0.8068
vn 0.6580 0.6358 -0.4035
vn 0.2505 0.8856 -0.3910
vn 0.6030 0.2885 -0.7438
vn 0.9177 0.2088 -0.3380
vn 0.9177 0.2089 -0.3380
vn 0.9176 0.2089 -0.3381
vn 0.7865 -0.6140 0.0669
vn 0.7947 -0.3036 -0.5257
vn 0.9177 0.2088 -0.3379
vn 0.6718 -0.7384 -0.0592
vn 0.9926 0.0498 -0.1105
vn 0.5477 -0.4743 0.6892
vn 0.9832 -0.1823 0.0117
vn 0.4181 -0.1373 0.8980
vn 0.4202 0.1159 0.9000
vn 0.9273 -0.3561 0.1153
vn -0.5181 -0.2028 0.8309
vn -0.0711 -0.9173 0.3919
vn 0.8075 -0.5897 -0.0137
vn 0.2346 0.0571 0.9704
vn -0.4904 -0.4607 0.7398
vn -0.5122 -0.7453 -0.4267
vn -0.9479 -0.0908 0.3054
vn -0.8077 -0.0029 0.5896
vn -0.5589 -0.6517 -0.5128
vn -0.1066 -0.6119 -0.7837
vn -0.5576 -0.3813 -0.7373
vn -0.4329 -0.7486 -0.5022
vn -0.6461 -0.0566 -0.7611
vn -0.5615 -0.7813 -0.2725
vn -0.6821 0.3573 0.6380
vn -0.6821 0.3572 0.6380
vn -0.9506 0.0427 0.3076
vn -0.2084 0.8503 0.4832
vn 0.1858 0.8971 -0.4009
vn -0.6789 0.5579 -0.4774
vn -0.1878 0.7232 -0.6646
vn -0.6821 0.3574 0.6380
vn 0.0557 0.0725 -0.9958
vn 0.0037 -0.0600 -0.9982
vn 0.7998 -0.5982 0.0503
vn 0.6011 0.2924 -0.7438
vt 0.357055 0.028199
vt 0.361026 0.025000
vt 0.366718 0.027279
vt 0.375317 0.030997
vt 0.370926 0.023842
vt 0.360677 0.021600
vt 0.367724 0.017496
vt 0.370283 0.073010
vt 0.368346 0.068303
vt 0.379262 0.067099
vt 0.378389 0.071140
vt 0.357257 0.023090
vt 0.366762 0.071746
vt 0.354258 0.030319
vt 0.356145 0.063281
vt 0.352634 0.061767
vt 0.351638 0.054236
vt 0.354367 0.034896
vt 0.348299 0.050979
vt 0.359267 0.048192
vt 0.364092 0.059966
vt 0.376233 0.052233
vt 0.374641 0.056165
vt 0.374418 0.062470
vt 0.363641 0.049641
vt 0.389538 0.047095
vt 0.379331 0.058213
vt 0.374492 0.043649
vt 0.381880 0.038027
vt 0.389659 0.059706
vt 0.384953 0.065073
vt 0.387013 0.068710
vt 0.374427 0.037374
vt 0.360941 0.045231
vt 0.380119 0.035900
vt 0.391652 0.048286
vt 0.394341 0.052968
s 1
f 2/1/1 5/2/1 1/3/1
f 1/3/2 3/4/2 2/1/2
f 1/3/3 4/5/3 3/4/3
f 4/5/4 1/3/4 5/2/4
f 4/5/5 5/2/5 6/6/5
f 6/6/6 5/2/7 2/1/8
f 6/6/5 9/7/5 4/5/5
f 6/8/9 8/9/9 7/10/9
f 7/10/10 9/11/10 6/8/10
f 2/1/8 10/12/11 6/6/6
f 8/9/12 6/8/12 10/13/12
f 10/12/13 2/1/13 11/14/13
f 8/15/14 10/16/14 11/17/14
f 2/1/15 12/18/15 11/14/15
f 12/19/16 13/20/16 11/17/16
f 13/20/17 14/21/17 11/17/17
f 8/15/18 11/17/18 14/21/18
f 14/21/19 18/22/19 15/23/19
f 15/23/20 16/24/20 14/21/20
f 16/24/21 8/9/21 14/21/21
f 14/21/22 13/20/22 17/25/22
f 17/25/23 18/22/23 14/21/23
f 18/22/24 19/26/24 21/27/24
f 20/28/25 19/29/25 18/22/25
f 17/25/26 20/28/26 18/22/26
f 18/22/27 21/27/27 15/23/27
f 4/30/28 21/27/28 19/26/28
f 4/30/29 9/31/29 21/27/29
f 15/23/30 21/27/30 16/24/30
f 7/10/31 21/32/31 9/11/31
f 16/24/32 21/27/32 7/10/32
f 22/33/33 20/28/34 17/25/33
f 22/33/35 19/29/35 20/28/35
f 13/34/36 12/18/36 22/33/36
f 3/4/37 22/33/37 12/18/37
f 22/33/38 23/35/38 19/29/38
f 3/4/39 23/35/39 22/33/39
f 17/25/33 13/34/40 22/33/33
f 4/30/41 23/36/41 3/37/41
f 19/26/42 23/36/42 4/30/42
f 16/24/43 7/10/43 8/9/43
f 2/1/44 3/4/44 12/18/44
