# Blender 4.4.1
# www.blender.org
o Asteroid_4
v -0.074632 0.024879 -0.013540
v -0.115555 -0.086387 -0.074519
v -0.042486 0.119683 -0.041892
v -0.073087 0.089330 0.015889
v -0.114514 -0.017322 0.011538
v -0.108602 -0.081242 -0.020773
v -0.099509 -0.064216 0.048069
v -0.095452 -0.095984 -0.015395
v -0.118541 -0.023164 0.053117
v -0.115776 -0.118482 -0.128570
v -0.107834 -0.073483 -0.119772
v -0.095935 -0.115580 -0.061152
v 0.004931 -0.125501 -0.112745
v -0.066613 -0.081265 -0.140412
v 0.028577 -0.091691 -0.118019
v 0.092003 -0.103501 -0.073128
v -0.005418 0.049379 -0.092937
v 0.022478 0.083827 -0.095319
v 0.095951 0.036716 -0.047875
v 0.104671 0.160420 -0.010915
v 0.105317 0.168351 0.018009
v 0.046189 0.155005 -0.025100
v 0.118349 0.118258 0.008072
v 0.107680 0.024187 -0.004787
v 0.097664 0.066701 0.030631
v 0.104745 -0.129921 -0.030466
v 0.099572 -0.052676 0.013063
v 0.067005 -0.138939 0.040394
v 0.064993 0.069896 0.062401
v 0.048932 0.085418 0.072803
v 0.022934 0.099339 0.063130
v 0.057820 0.136782 0.033340
v -0.064044 0.109485 0.019840
v -0.049154 0.091524 0.073137
v -0.017167 0.090644 0.092553
v 0.018655 0.073882 0.118254
v -0.069498 -0.008080 0.081750
v 0.027025 0.085242 0.080135
v 0.052493 -0.006526 0.135286
v 0.066938 -0.126500 0.075113
v -0.021850 -0.063834 0.073831
v -0.066821 -0.057063 0.069013
v 0.006036 -0.144317 0.012369
v 0.061516 -0.133180 -0.074409
vn -0.9500 0.2977 0.0944
vn -0.9436 0.3295 0.0320
vn -0.9054 0.1941 -0.3775
vn -0.7164 0.3039 -0.6280
vn -0.7005 0.2693 -0.6609
vn -0.8594 -0.4629 0.2171
vn -0.8595 -0.4627 0.2171
vn -0.8595 -0.4628 0.2171
vn -0.9646 -0.2542 0.0701
vn -0.9646 -0.2542 0.0700
vn -0.9646 -0.2541 0.0700
vn -0.7661 -0.5930 0.2479
vn -0.9647 -0.2541 0.0699
vn -0.3972 0.2431 -0.8850
vn -0.9747 0.1937 -0.1111
vn -0.7788 -0.5736 0.2539
vn -0.0661 -0.9959 0.0623
vn 0.1343 -0.3602 -0.9232
vn 0.1343 -0.3601 -0.9232
vn 0.1343 -0.3602 -0.9231
vn 0.1187 0.2015 -0.9723
vn 0.1188 0.2015 -0.9723
vn 0.1186 0.2015 -0.9723
vn 0.4616 -0.4422 -0.7690
vn 0.4616 -0.4421 -0.7691
vn 0.4616 -0.4417 -0.7693
vn 0.5912 0.1250 -0.7968
vn 0.5913 0.1250 -0.7967
vn -0.2440 0.7210 -0.6486
vn -0.2441 0.7210 -0.6485
vn 0.6143 0.1858 -0.7669
vn 0.8820 0.0767 -0.4650
vn 0.9587 0.2682 -0.0950
vn -0.0253 0.9642 -0.2639
vn 0.9572 -0.0702 -0.2809
vn 0.8824 -0.1605 0.4422
vn 0.4053 0.0825 0.9104
vn 0.4054 0.0825 0.9104
vn 0.9668 -0.0435 0.2519
vn 0.9668 -0.0435 0.2520
vn 0.9668 -0.0435 0.2518
vn 0.7600 -0.0827 0.6446
vn 0.8929 -0.0387 0.4486
vn 0.8928 -0.0387 0.4488
vn 0.6869 0.2545 0.6807
vn 0.5158 0.4641 0.7201
vn 0.5158 0.4640 0.7202
vn 0.5158 0.4640 0.7201
vn 0.5158 0.4639 0.7202
vn 0.4052 0.0825 0.9105
vn -0.2346 0.7296 0.6424
vn -0.3057 0.8901 0.3381
vn -0.3056 0.8900 0.3385
vn -0.3057 0.8900 0.3384
vn -0.0559 0.9413 0.3328
vn -0.8772 0.3241 0.3543
vn -0.4893 0.8717 -0.0269
vn -0.4892 0.8718 -0.0268
vn -0.4892 0.8717 -0.0268
vn -0.3057 0.8900 0.3383
vn -0.0815 0.9805 0.1786
vn -0.5089 0.1603 0.8458
vn -0.8856 0.4220 0.1938
vn -0.8856 0.4220 0.1940
vn -0.8856 0.4220 0.1939
vn 0.2031 0.9253 0.3204
vn -0.5157 0.1817 0.8373
vn -0.5387 0.1959 0.8194
vn 0.2573 0.7735 0.5793
vn 0.6461 0.5168 0.5616
vn 0.6461 0.5168 0.5617
vn 0.6462 0.5168 0.5615
vn 0.1939 0.7776 0.5981
vn 0.7379 0.3986 0.5445
vn 0.9812 0.0221 0.1915
vn -0.3327 -0.4545 0.8263
vn -0.5967 -0.0820 0.7983
vn -0.4568 -0.6344 0.6236
vn -0.1480 -0.2620 0.9537
vn -0.4540 -0.7199 0.5250
vn -0.4538 -0.7199 0.5251
vn -0.4538 -0.7199 0.5252
vn -0.0718 -0.9390 0.3362
vn -0.0336 -0.9884 -0.1483
vn 0.1204 -0.9912 -0.0555
vn 0.1205 -0.9912 -0.0555
vn 0.1206 -0.9911 -0.0555
vn -0.1701 -0.9747 -0.1451
vn 0.4616 -0.4419 -0.7692
vn 0.5971 -0.5899 -0.5436
vn -0.0223 -0.9050 0.4249
vn -0.4427 -0.2754 0.8533
vn -0.4427 -0.2753 0.8533
vn -0.0222 -0.9050 0.4249
vn -0.4427 -0.2753 0.8534
vn 0.8928 -0.0387 0.4487
vn 0.8763 -0.1906 0.4425
vn 0.9641 0.0232 -0.2646
vn -0.0680 0.5624 -0.8240
vn -0.4892 0.8718 -0.0267
vn -0.3286 0.4547 -0.8278
vn -0.3131 0.4443 -0.8394
vn -0.9375 0.3423 -0.0623
vt 0.187058 0.138501
vt 0.198803 0.144892
vt 0.183316 0.143754
vt 0.207150 0.154027
vt 0.207178 0.145305
vt 0.195648 0.138132
vt 0.176667 0.148134
vt 0.192410 0.131695
vt 0.197598 0.133550
vt 0.185441 0.136597
vt 0.182316 0.149154
vt 0.181241 0.154322
vt 0.151661 0.188399
vt 0.158564 0.193193
vt 0.161546 0.198400
vt 0.164152 0.180635
vt 0.181296 0.165711
vt 0.176595 0.163787
vt 0.197708 0.159876
vt 0.181993 0.175030
vt 0.201181 0.163305
vt 0.214544 0.171700
vt 0.198758 0.174049
vt 0.212458 0.164287
vt 0.210492 0.176578
vt 0.216747 0.175219
vt 0.215516 0.177630
vt 0.222096 0.180359
vt 0.198977 0.179330
vt 0.205202 0.181987
vt 0.179877 0.180898
vt 0.190481 0.183664
vt 0.181274 0.190795
vt 0.206846 0.187086
vt 0.209413 0.189150
vt 0.213127 0.190390
vt 0.215004 0.183646
vt 0.223503 0.195358
vt 0.217363 0.198207
vt 0.224911 0.197626
vt 0.211535 0.198364
vt 0.213306 0.192045
vt 0.214024 0.201705
vt 0.205189 0.215846
vt 0.212383 0.140089
vt 0.207564 0.196059
vt 0.210502 0.192428
vt 0.203551 0.209109
vt 0.198961 0.195973
vt 0.183857 0.194443
vt 0.194037 0.207276
vt 0.173601 0.192069
vt 0.175077 0.204262
vt 0.198105 0.211976
vt 0.170020 0.206521
vt 0.172478 0.179971
vt 0.177236 0.172920
vt 0.165316 0.206100
vt 0.199650 0.216598
vt 0.228944 0.189907
s 1
f 6/1/1 1/2/1 2/3/1
f 1/2/2 3/4/2 2/3/2
f 1/2/3 4/5/3 3/4/3
f 4/5/4 1/2/4 5/6/4
f 6/1/5 5/6/5 1/2/5
f 6/1/6 2/3/7 10/7/8
f 6/1/9 7/8/10 9/9/11
f 7/8/12 6/1/12 8/10/12
f 10/7/8 8/10/6 6/1/6
f 9/9/11 5/6/13 6/1/9
f 10/7/14 11/11/14 14/12/14
f 2/3/15 11/11/15 10/7/15
f 10/13/16 12/14/16 8/15/16
f 10/13/17 13/16/17 12/14/17
f 15/17/18 13/18/19 10/7/18
f 10/7/18 14/12/20 15/17/18
f 15/17/21 14/12/22 17/19/23
f 13/18/24 15/17/25 16/20/26
f 16/20/27 15/17/27 18/21/28
f 17/19/23 18/21/23 15/17/21
f 20/22/29 18/21/30 17/19/30
f 18/21/28 19/23/27 16/20/27
f 18/21/31 20/22/31 19/23/31
f 17/19/30 22/24/30 20/22/29
f 19/23/32 20/22/32 23/25/32
f 23/25/33 20/26/33 21/27/33
f 20/26/34 22/28/34 21/27/34
f 19/23/35 23/25/35 24/29/35
f 23/25/36 25/30/36 24/29/36
f 25/30/37 23/25/38 21/27/38
f 26/31/39 24/29/40 25/30/39
f 25/30/39 27/32/41 26/31/39
f 27/32/42 25/30/42 28/33/42
f 28/33/43 25/30/44 29/34/44
f 25/30/45 30/35/45 29/34/45
f 31/36/46 30/35/47 25/30/48
f 25/30/48 32/37/49 31/36/46
f 21/27/38 32/37/50 25/30/37
f 33/38/51 31/36/51 32/37/51
f 33/38/52 32/37/53 21/27/54
f 33/38/55 34/39/55 31/36/55
f 33/38/56 4/40/56 34/39/56
f 4/40/57 33/38/58 22/28/59
f 21/27/54 22/28/60 33/38/52
f 35/41/61 31/42/61 34/43/61
f 35/41/62 34/43/62 9/44/62
f 9/9/63 34/45/64 4/5/65
f 36/46/66 38/47/66 35/41/66
f 36/46/67 35/41/67 37/48/67
f 37/48/68 35/41/68 9/44/68
f 38/47/69 31/42/69 35/41/69
f 39/49/70 30/35/70 38/47/71
f 38/47/71 36/46/72 39/49/70
f 30/35/73 31/42/73 38/47/73
f 29/34/74 30/35/74 39/49/74
f 29/34/75 39/49/75 40/50/75
f 39/49/76 41/51/76 40/50/76
f 39/49/77 36/46/77 41/51/77
f 43/52/78 40/50/78 41/53/78
f 42/54/79 41/51/79 36/46/79
f 43/52/80 41/53/81 42/55/82
f 28/33/83 40/50/83 43/52/83
f 13/16/84 44/56/84 43/52/84
f 28/33/85 43/52/86 44/56/87
f 13/16/88 43/52/88 12/14/88
f 42/55/82 12/14/80 43/52/80
f 16/20/26 44/57/89 13/18/24
f 16/20/90 26/31/90 44/57/90
f 44/56/87 26/31/86 28/33/85
f 36/46/79 37/48/79 42/54/79
f 42/55/91 7/58/91 8/15/91
f 9/44/92 7/59/93 42/54/93
f 42/55/91 8/15/91 12/14/94
f 42/54/93 37/48/95 9/44/92
f 29/34/44 40/50/96 28/33/43
f 26/31/97 27/32/97 28/33/97
f 24/29/98 26/31/98 16/20/98
f 16/20/98 19/23/98 24/29/98
f 3/4/99 22/24/99 17/19/99
f 22/28/59 3/60/100 4/40/57
f 11/11/101 17/19/101 14/12/101
f 3/4/102 17/19/102 11/11/102
f 2/3/103 3/4/103 11/11/103
f 4/5/65 5/6/63 9/9/63
