# Blender 4.4.1
# www.blender.org
o Asteroid_3
v -0.103975 -0.001062 -0.044367
v -0.065052 -0.225328 0.008081
v -0.116784 0.157112 -0.196751
v -0.152054 0.121491 -0.103097
v -0.137222 -0.059984 0.013427
v -0.081210 -0.171149 0.056750
v -0.101269 -0.106043 0.112335
v -0.058040 -0.184046 0.082803
v -0.151259 -0.048475 0.061901
v -0.023403 -0.319407 -0.007845
v -0.045261 -0.238297 -0.052536
v -0.028235 -0.251364 0.061386
v 0.122882 -0.263388 0.037788
v 0.018373 -0.248442 -0.055504
v 0.132274 -0.202611 -0.003244
v 0.194580 -0.137569 0.049124
v -0.011300 0.027957 -0.137926
v 0.003607 0.092146 -0.180160
v 0.107595 0.086922 -0.076243
v 0.019904 0.299981 -0.233151
v 0.018717 0.343759 -0.215205
v -0.039606 0.261223 -0.230227
v 0.032727 0.241194 -0.163017
v 0.116953 0.098415 -0.020815
v 0.070761 0.159790 -0.032032
v -0.033058 0.278116 -0.150444
v -0.030204 0.146723 -0.010977
v -0.155793 0.164062 -0.128290
v -0.128849 0.125041 -0.020825
v -0.083447 0.112738 0.026780
v -0.030510 0.096447 0.088511
v -0.098214 -0.024052 0.103419
v -0.016594 0.111692 0.035384
v 0.037693 0.053470 0.174667
v 0.009596 0.136168 0.021146
v 0.037872 0.126928 0.024044
v 0.117500 -0.057800 0.205130
v 0.132819 -0.085314 0.178326
v 0.203413 -0.116650 0.108293
v 0.176340 -0.199942 0.081018
v 0.140013 0.008536 0.072940
v 0.075616 -0.157103 0.162969
v -0.068042 -0.081966 0.138313
v -0.009868 -0.069897 0.158116
vn -0.9750 -0.1943 -0.1074
vn -0.9725 -0.1976 -0.1234
vn -0.7247 -0.5076 -0.4660
vn -0.3971 -0.5186 -0.7572
vn -0.4180 -0.5049 -0.7552
vn -0.8198 -0.4651 0.3339
vn -0.8199 -0.4651 0.3338
vn -0.8639 -0.4968 0.0827
vn -0.8639 -0.4968 0.0828
vn -0.7390 -0.5545 0.3827
vn -0.8198 -0.4651 0.3340
vn -0.8639 -0.4968 0.0826
vn -0.1202 -0.5037 -0.8555
vn -0.9056 -0.3640 -0.2178
vn -0.7769 -0.4753 0.4130
vn 0.0531 -0.7103 0.7019
vn 0.4769 -0.6108 -0.6321
vn 0.4769 -0.6107 -0.6321
vn 0.4769 -0.6108 -0.6320
vn 0.3350 -0.3110 -0.8894
vn 0.3349 -0.3111 -0.8894
vn 0.8081 -0.4236 -0.4092
vn 0.7022 -0.1172 -0.7023
vn 0.3349 -0.3110 -0.8894
vn -0.1368 -0.3133 -0.9397
vn -0.1370 -0.3133 -0.9397
vn -0.1369 -0.3133 -0.9397
vn 0.6820 -0.2304 -0.6941
vn 0.7663 0.5545 0.3247
vn 0.9902 0.0752 -0.1180
vn -0.2770 0.3580 -0.8917
vn 0.9204 0.3217 -0.2221
vn 0.7755 0.6120 0.1552
vn 0.4869 0.6816 0.5462
vn 0.4869 0.6816 0.5461
vn 0.4869 0.6815 0.5463
vn 0.0317 0.7740 0.6324
vn 0.0317 0.7740 0.6323
vn -0.4794 0.6338 0.6069
vn -0.7346 0.6735 -0.0823
vn -0.7346 0.6735 -0.0822
vn -0.2346 0.8934 0.3832
vn -0.9606 0.0741 0.2678
vn -0.8379 0.2195 -0.4998
vn -0.8379 0.2196 -0.4997
vn -0.7346 0.6735 -0.0824
vn -0.2344 0.8635 0.4467
vn -0.6074 0.4044 0.6838
vn -0.9964 0.0568 0.0632
vn -0.9964 0.0569 0.0634
vn -0.0198 0.9624 0.2710
vn -0.6253 0.4317 0.6501
vn -0.6715 0.4160 0.6132
vn -0.0667 0.7866 0.6139
vn -0.1548 0.8886 0.4318
vn -0.1549 0.8886 0.4318
vn -0.1547 0.8886 0.4317
vn -0.3199 0.7084 0.6292
vn 0.0317 0.7741 0.6323
vn 0.1988 0.7902 0.5797
vn 0.2413 0.8721 0.4256
vn 0.6675 0.6095 0.4277
vn 0.6676 0.6095 0.4276
vn 0.6676 0.6095 0.4275
vn 0.7352 0.6089 0.2978
vn 0.4684 -0.4616 0.7533
vn 0.4685 -0.4616 0.7533
vn 0.7116 0.4998 0.4937
vn 0.4821 0.6377 0.6008
vn 0.4242 -0.4996 0.7553
vn -0.3132 -0.2562 0.9145
vn 0.2623 -0.6845 0.6802
vn 0.0425 -0.7536 0.6559
vn -0.3586 -0.4106 0.8383
vn -0.3586 -0.4105 0.8384
vn -0.3469 0.0079 0.9379
vn -0.7219 0.1890 0.6657
vn -0.3723 0.3214 0.8707
vn -0.3803 -0.4703 0.7964
vn -0.3803 -0.4703 0.7963
vn -0.6490 0.1061 0.7533
vn -0.3804 -0.4703 0.7963
vn 0.7780 0.5380 0.3245
vn 0.7781 0.5380 0.3243
vn 0.7780 0.5380 0.3244
vn 0.9539 -0.2979 -0.0371
vn 0.9442 0.2456 -0.2193
vn 0.0800 -0.3584 -0.9302
vn -0.0912 -0.2936 -0.9516
vn 0.1339 -0.3181 -0.9386
vn -0.9330 -0.2596 -0.2491
vn -0.9964 0.0567 0.0632
vt 0.615275 0.014068
vt 0.637504 0.021834
vt 0.610304 0.021374
vt 0.659442 0.035672
vt 0.654353 0.024072
vt 0.630987 0.013660
vt 0.598838 0.027615
vt 0.620588 0.005003
vt 0.631153 0.007552
vt 0.611581 0.011433
vt 0.610120 0.028970
vt 0.606911 0.035563
vt 0.566785 0.082365
vt 0.576896 0.087778
vt 0.581319 0.095544
vt 0.582706 0.070819
vt 0.604955 0.050932
vt 0.596360 0.048241
vt 0.639801 0.042871
vt 0.606537 0.063131
vt 0.647665 0.047313
vt 0.671147 0.055993
vt 0.638467 0.062011
vt 0.668888 0.047888
vt 0.661488 0.060956
vt 0.672685 0.056931
vt 0.671578 0.059024
vt 0.677367 0.064984
vt 0.636337 0.068447
vt 0.645143 0.071264
vt 0.667479 0.067319
vt 0.650902 0.082770
vt 0.671440 0.085328
vt 0.660243 0.092189
vt 0.670722 0.090734
vt 0.648231 0.093185
vt 0.650338 0.084277
vt 0.655782 0.095603
vt 0.640095 0.113251
vt 0.653204 0.013940
vt 0.638959 0.091013
vt 0.643779 0.086262
vt 0.634604 0.106802
vt 0.626148 0.090434
vt 0.644097 0.081270
vt 0.641096 0.078697
vt 0.609935 0.087812
vt 0.607714 0.083302
vt 0.593809 0.069557
vt 0.604749 0.070567
vt 0.621807 0.074050
vt 0.596977 0.085294
vt 0.598093 0.099734
vt 0.592015 0.104156
vt 0.620737 0.104083
vt 0.626171 0.109747
vt 0.586317 0.105299
vt 0.629098 0.114852
vt 0.598282 0.060068
vt 0.679420 0.081057
s 1
f 6/1/1 1/2/1 2/3/1
f 1/2/2 3/4/2 2/3/2
f 1/2/3 4/5/3 3/4/3
f 4/5/4 1/2/4 5/6/4
f 6/1/5 5/6/5 1/2/5
f 6/1/6 2/3/7 10/7/6
f 6/1/8 7/8/9 9/9/8
f 7/8/10 6/1/10 8/10/10
f 10/7/6 8/10/11 6/1/6
f 9/9/8 5/6/12 6/1/8
f 10/7/13 11/11/13 14/12/13
f 2/3/14 11/11/14 10/7/14
f 10/13/15 12/14/15 8/15/15
f 10/13/16 13/16/16 12/14/16
f 15/17/17 13/18/18 10/7/17
f 10/7/17 14/12/19 15/17/17
f 15/17/20 14/12/20 17/19/21
f 13/18/22 15/17/22 16/20/22
f 16/20/23 15/17/23 18/21/23
f 17/19/21 18/21/24 15/17/20
f 20/22/25 18/21/26 17/19/27
f 18/21/23 19/23/23 16/20/23
f 18/21/28 20/22/28 19/23/28
f 17/19/27 22/24/25 20/22/25
f 19/23/29 20/22/29 23/25/29
f 23/25/30 20/26/30 21/27/30
f 20/26/31 22/28/31 21/27/31
f 19/23/32 23/25/32 24/29/32
f 23/25/33 25/30/33 24/29/33
f 26/31/34 25/30/35 23/25/34
f 26/31/34 23/25/34 21/27/36
f 25/30/37 26/31/37 27/32/38
f 28/33/39 27/32/39 26/31/39
f 28/33/40 26/31/41 21/27/40
f 28/33/42 29/34/42 27/32/42
f 28/33/43 4/35/43 29/34/43
f 4/35/44 28/33/45 22/28/45
f 21/27/40 22/28/46 28/33/40
f 30/36/47 27/37/47 29/38/47
f 30/36/48 29/38/48 9/39/48
f 9/9/49 29/40/50 4/5/50
f 31/41/51 33/42/51 30/36/51
f 31/41/52 30/36/52 32/43/52
f 32/43/53 30/36/53 9/39/53
f 33/42/54 27/37/54 30/36/54
f 34/44/55 35/45/56 33/42/56
f 33/42/56 31/41/57 34/44/55
f 35/45/58 27/37/58 33/42/58
f 27/32/38 35/45/59 25/30/37
f 25/30/60 35/45/60 36/46/60
f 36/46/61 35/45/61 34/44/61
f 36/46/62 37/47/63 38/48/64
f 36/46/65 34/44/65 37/47/65
f 38/48/64 25/30/62 36/46/62
f 40/49/66 39/50/67 38/48/66
f 39/50/68 41/51/68 38/48/68
f 38/48/66 42/52/66 40/49/66
f 41/51/69 25/30/69 38/48/69
f 38/48/70 37/47/70 42/52/70
f 42/52/71 37/47/71 44/53/71
f 13/16/72 40/49/72 42/52/72
f 13/16/73 42/52/73 12/14/73
f 43/54/74 12/14/74 42/52/74
f 42/52/74 44/53/75 43/54/74
f 34/44/76 44/55/76 37/47/76
f 34/44/77 31/41/77 44/55/77
f 43/56/78 44/55/78 31/41/78
f 31/41/78 32/43/78 43/56/78
f 43/54/79 7/57/79 8/15/80
f 9/39/81 7/58/81 43/56/81
f 43/54/79 8/15/80 12/14/82
f 43/56/81 32/43/81 9/39/81
f 25/30/83 41/51/84 39/50/85
f 16/20/22 40/59/22 13/18/22
f 16/20/86 39/50/86 40/59/86
f 39/50/85 24/29/83 25/30/83
f 24/29/87 39/50/87 16/20/87
f 16/20/87 19/23/87 24/29/87
f 3/4/88 22/24/88 17/19/88
f 22/28/45 3/60/45 4/35/44
f 11/11/89 17/19/89 14/12/89
f 3/4/90 17/19/90 11/11/90
f 2/3/91 3/4/91 11/11/91
f 4/5/50 5/6/92 9/9/49
