# Blender 4.4.1
# www.blender.org
o Asteroid_5
v 0.026281 -0.154360 0.066170
v -0.047976 -0.117955 0.115970
v 0.037780 -0.038026 0.163792
v 0.134568 -0.103968 0.011611
v -0.026689 -0.170534 -0.043262
v -0.084517 -0.150787 0.040607
v -0.025050 -0.148581 -0.047300
v 0.027921 -0.132406 0.062131
v -0.082878 -0.128834 0.036569
v -0.148816 -0.109974 -0.007345
v -0.179131 -0.007590 -0.076334
v -0.089825 -0.085852 -0.140675
v -0.174558 0.080889 0.016043
v -0.152219 -0.050589 0.083016
v -0.108701 0.026638 0.145030
v -0.101672 0.013578 0.128268
v 0.005484 0.088211 0.155937
v -0.052353 -0.041256 0.162777
v -0.121575 0.124544 0.074347
v -0.114547 0.111484 0.057585
v -0.042033 0.161444 0.038057
v 0.012513 0.075150 0.139175
v -0.049062 0.174504 0.054819
v 0.049080 0.180799 0.002954
v -0.101297 0.153986 -0.063041
v 0.036211 0.154406 -0.105357
v 0.100707 0.100533 0.100028
v 0.131668 0.123892 -0.006097
v 0.141607 0.029095 0.097634
v 0.170122 0.002129 -0.004153
v 0.145085 -0.038183 0.077223
v 0.123945 -0.031580 0.073991
v 0.148982 0.008732 -0.007386
v 0.113429 -0.097363 0.008378
v 0.134458 0.065430 -0.096473
v 0.121045 -0.078994 -0.099241
v 0.091735 -0.012096 -0.157775
v 0.014181 -0.060825 -0.170700
v 0.005021 -0.049057 -0.154010
v 0.007775 0.057216 -0.183642
v 0.082575 -0.000328 -0.141085
v 0.111885 -0.067226 -0.082551
v 0.066051 -0.127474 -0.060505
v 0.075211 -0.139242 -0.077195
v -0.113531 0.041997 -0.152235
v -0.095289 0.032484 -0.143421
v -0.083055 0.144473 -0.054227
v -0.156316 0.071376 0.024857
v -0.160889 -0.017101 -0.067520
v 0.117495 0.109150 0.003001
v 0.120286 0.050688 -0.087375
v 0.022038 0.139664 -0.096259
v -0.052556 -0.029606 0.143668
v 0.037578 -0.026376 0.144682
v -0.048178 -0.106305 0.096861
vn -0.1321 -0.8837 0.4490
vn 0.1839 -0.6424 0.7439
vn 0.5312 -0.6003 0.5979
vn 0.5313 -0.6002 0.5979
vn 0.3728 -0.9274 0.0294
vn -0.8990 0.1433 0.4139
vn -0.8989 0.1433 0.4140
vn 0.2147 -0.1922 -0.9576
vn -0.0733 -0.9809 0.1804
vn 0.8271 0.0414 0.5606
vn 0.8271 0.0414 0.5605
vn -0.4686 -0.8756 -0.1169
vn -0.6254 -0.6220 0.4712
vn -0.6254 -0.6219 0.4712
vn -0.4974 -0.7881 -0.3627
vn -0.9810 -0.1477 0.1258
vn -0.7502 -0.5076 -0.4238
vn -0.6254 -0.6221 0.4711
vn -0.5548 -0.3816 0.7393
vn -0.8686 0.0997 0.4854
vn 0.9456 0.2628 0.1918
vn 0.9456 0.2628 0.1917
vn -0.3059 0.6846 -0.6617
vn -0.0868 0.0912 0.9920
vn -0.5549 -0.3816 0.7393
vn -0.0868 0.0913 0.9920
vn -0.8049 0.2741 0.5263
vn -0.3140 0.5836 0.7489
vn -0.3139 0.5836 0.7489
vn -0.3141 0.5836 0.7488
vn 0.5434 -0.5363 0.6458
vn -0.8618 -0.5061 0.0330
vn -0.8618 -0.5061 0.0329
vn 0.2299 0.8022 0.5510
vn -0.0979 0.9797 -0.1750
vn -0.0980 0.9797 -0.1750
vn -0.6115 0.7873 0.0785
vn -0.6115 0.7873 0.0784
vn 0.4559 0.1928 0.8689
vn 0.5598 0.7598 0.3306
vn 0.8209 0.4586 0.3404
vn 0.9366 0.2987 0.1832
vn 0.9599 -0.0348 0.2781
vn 0.6151 -0.1996 0.7628
vn -0.1930 -0.8543 -0.4826
vn -0.1931 -0.8543 -0.4826
vn 0.3086 0.6465 -0.6977
vn 0.3087 0.6465 -0.6977
vn -0.0945 0.1772 0.9796
vn 0.9445 -0.2950 0.1444
vn 0.9418 0.2948 -0.1617
vn 0.8911 -0.0742 -0.4478
vn 0.9224 -0.3371 -0.1885
vn 0.3196 -0.6829 0.6569
vn 0.2211 -0.0944 -0.9707
vn 0.4997 0.4073 -0.7644
vn 0.4996 0.4073 -0.7645
vn 0.4995 0.4073 -0.7646
vn -0.8624 -0.4898 -0.1280
vn 0.4094 -0.5258 -0.7456
vn 0.4093 -0.5258 -0.7457
vn 0.7891 0.6142 -0.0000
vn -0.7175 0.3194 -0.6190
vn -0.7176 0.3194 -0.6190
vn 0.0051 -0.7587 -0.6515
vn 0.0052 -0.7587 -0.6515
vn 0.3728 -0.9274 0.0295
vn 0.7308 -0.6414 -0.2337
vn -0.7176 0.3194 -0.6189
vn -0.2399 -0.1251 -0.9627
vn -0.2401 -0.1253 -0.9626
vn -0.2471 0.6345 -0.7323
vn -0.2470 0.6345 -0.7324
vn -0.2471 0.6346 -0.7323
vn -0.5708 -0.4725 0.6715
vn 0.1138 0.7839 0.6104
vn 0.1138 0.7838 0.6104
vn -0.6780 -0.1899 -0.7101
vn -0.8150 0.4250 -0.3938
vn -0.0371 -0.7165 -0.6966
vn 0.5791 0.5743 -0.5787
vn 0.5790 0.5743 -0.5787
vn 0.1138 0.7838 0.6105
vn -0.7735 0.5210 -0.3609
vn -0.7736 0.5209 -0.3609
vn 0.2282 0.3430 0.9112
vn 0.2282 0.3429 0.9112
vn 0.6332 0.6586 -0.4065
vn 0.3756 -0.7207 -0.5827
vn 0.5285 0.8082 -0.2597
vn 0.0364 -0.8531 -0.5205
vn 0.9988 0.0463 0.0176
vn 0.9988 0.0462 0.0176
vn -0.7356 0.5749 0.3583
vn -0.7356 0.5749 0.3582
vn 0.0090 -0.5205 0.8538
vt 0.416755 0.011289
vt 0.427937 0.020452
vt 0.416928 0.022356
vt 0.422761 0.037301
vt 0.442372 0.025246
vt 0.432833 0.005879
vt 0.430463 0.004999
vt 0.426943 0.018439
vt 0.418597 0.009100
vt 0.415277 0.134079
vt 0.416063 0.136952
vt 0.407440 0.143922
vt 0.405994 0.141897
vt 0.402955 0.134692
vt 0.381387 0.102468
vt 0.370932 0.099727
vt 0.367246 0.089833
vt 0.406437 0.117807
vt 0.398736 0.085299
vt 0.397356 0.102437
vt 0.391871 0.131057
vt 0.382495 0.089633
vt 0.382597 0.076972
vt 0.381746 0.074400
vt 0.397118 0.072270
vt 0.403323 0.044610
vt 0.405015 0.042753
vt 0.418118 0.052151
vt 0.370915 0.079388
vt 0.411668 0.036098
vt 0.398862 0.074585
vt 0.408523 0.067092
vt 0.399683 0.058472
vt 0.398370 0.072466
vt 0.409049 0.067601
vt 0.411461 0.069456
vt 0.415856 0.052890
vt 0.429848 0.055773
vt 0.428678 0.071752
vt 0.428397 0.086009
vt 0.413672 0.084198
vt 0.436835 0.046915
vt 0.439676 0.063375
vt 0.461583 0.076164
vt 0.455317 0.088285
vt 0.443813 0.077355
vt 0.466166 0.082347
vt 0.440283 0.037445
vt 0.457561 0.088033
vt 0.467471 0.084719
vt 0.442994 0.036629
vt 0.466926 0.095165
vt 0.445028 0.025346
vt 0.464829 0.096526
vt 0.442561 0.092393
vt 0.442756 0.105736
vt 0.454926 0.105511
vt 0.423692 0.118027
vt 0.421550 0.116784
vt 0.433852 0.116557
vt 0.427882 0.103679
vt 0.434351 0.119266
vt 0.444041 0.108436
vt 0.455018 0.107955
vt 0.434267 0.130143
vt 0.426962 0.133853
vt 0.424700 0.133751
vt 0.465165 0.106145
vt 0.465664 0.108722
vt 0.456283 0.108120
vt 0.444115 0.011702
vt 0.412388 0.102102
vt 0.412249 0.085780
vt 0.410707 0.100622
vt 0.400094 0.087005
vt 0.398978 0.101001
vt 0.443119 0.079306
vt 0.441721 0.090448
vt 0.430712 0.084721
vt 0.411562 0.033397
vt 0.420737 0.036429
vt 0.368245 0.079112
vt 0.414717 0.023387
vt 0.364685 0.088706
s 1
f 6/1/1 1/2/1 2/3/1
f 1/2/2 3/4/2 2/3/2
f 3/4/3 1/2/4 4/5/4
f 4/5/5 1/2/5 5/6/5
f 7/7/6 5/6/6 1/2/7
f 8/8/8 1/2/8 6/1/8
f 1/2/7 8/8/7 7/7/6
f 6/1/8 9/9/8 8/8/8
f 9/9/9 7/7/9 8/8/9
f 5/10/10 7/11/10 9/12/11
f 9/12/11 6/13/11 5/10/10
f 5/10/12 6/13/12 10/14/12
f 10/15/13 6/16/14 2/17/13
f 12/18/15 5/10/15 10/14/15
f 13/19/16 11/20/16 10/15/16
f 11/21/17 12/18/17 10/14/17
f 10/15/16 14/22/16 13/19/16
f 2/17/13 14/22/18 10/15/13
f 15/23/19 14/22/19 2/17/19
f 13/19/20 14/22/20 15/23/20
f 15/23/21 16/24/21 20/25/22
f 16/26/23 15/27/23 17/28/23
f 3/4/24 17/28/24 15/27/24
f 2/17/19 18/29/25 15/23/19
f 15/27/24 18/30/26 3/4/24
f 20/25/22 19/31/22 15/23/21
f 19/31/27 13/19/27 15/23/27
f 21/32/28 20/33/29 16/26/30
f 19/31/31 20/34/31 21/35/31
f 23/36/32 21/32/32 22/37/33
f 16/26/30 22/37/28 21/32/28
f 21/35/31 23/36/31 19/31/31
f 22/37/33 17/28/33 23/36/32
f 23/36/34 17/28/34 27/38/34
f 23/36/35 24/39/36 26/40/35
f 27/38/34 24/39/34 23/36/34
f 26/40/35 25/41/35 23/36/35
f 23/36/37 25/41/37 13/19/37
f 13/19/37 19/31/38 23/36/37
f 3/4/39 29/42/39 27/38/39
f 27/38/39 17/28/39 3/4/39
f 27/38/40 28/43/40 24/39/40
f 29/42/41 28/43/41 27/38/41
f 29/44/42 30/45/42 28/46/42
f 29/44/43 31/47/43 30/45/43
f 3/4/44 31/48/44 29/42/44
f 33/49/45 30/45/45 31/47/46
f 31/47/46 32/50/46 33/49/45
f 32/51/47 31/48/47 4/5/48
f 4/5/4 31/48/4 3/4/3
f 30/45/49 33/49/49 34/52/49
f 32/50/50 34/52/50 33/49/50
f 4/5/48 34/53/48 32/51/47
f 34/52/49 4/54/49 30/45/49
f 30/45/51 35/55/51 28/46/51
f 37/56/52 35/55/52 30/45/52
f 30/45/52 36/57/52 37/56/52
f 30/45/53 4/54/53 36/57/53
f 39/58/54 38/59/54 37/60/54
f 40/61/55 37/60/55 38/59/55
f 37/60/54 41/62/54 39/58/54
f 26/40/56 35/55/57 37/56/58
f 37/56/58 40/61/57 26/40/56
f 41/63/59 37/56/59 36/57/59
f 36/57/59 42/64/59 41/63/59
f 41/62/60 42/65/61 43/66/61
f 43/66/61 39/58/61 41/62/60
f 38/59/62 39/58/62 43/66/62
f 43/66/62 44/67/62 38/59/62
f 44/68/63 43/69/63 42/70/64
f 38/59/65 44/67/65 5/10/66
f 5/6/5 44/71/67 4/5/5
f 36/57/68 4/54/68 44/68/68
f 42/70/64 36/57/69 44/68/63
f 45/72/70 40/61/71 38/59/71
f 26/40/72 40/61/73 45/72/74
f 38/59/71 12/18/71 45/72/70
f 45/72/74 25/41/73 26/40/72
f 47/73/75 25/41/75 45/72/75
f 45/72/75 46/74/75 47/73/75
f 46/74/76 45/72/76 11/20/77
f 11/20/78 45/72/78 12/18/78
f 48/75/79 47/73/79 46/74/79
f 25/41/80 47/73/80 48/75/80
f 13/19/81 48/75/81 49/76/82
f 46/74/79 49/76/79 48/75/79
f 48/75/80 13/19/80 25/41/80
f 11/20/77 49/76/83 46/74/76
f 49/76/82 11/20/82 13/19/81
f 5/10/66 12/18/65 38/59/65
f 50/77/84 28/46/84 35/55/85
f 51/78/86 35/55/86 26/40/87
f 35/55/85 51/78/85 50/77/84
f 26/40/87 52/79/87 51/78/86
f 52/79/88 50/77/88 51/78/88
f 28/46/89 50/77/89 52/79/89
f 52/79/89 26/40/89 28/46/89
f 24/39/90 28/46/90 26/40/90
f 17/28/23 22/37/23 16/26/23
f 18/30/91 53/80/91 54/81/91
f 53/82/92 18/29/92 2/17/93
f 54/81/91 3/4/91 18/30/91
f 3/4/94 54/81/95 55/83/94
f 55/83/96 54/81/96 53/80/96
f 55/83/94 2/3/94 3/4/94
f 2/17/93 55/84/93 53/82/92
