# Blender 4.4.1
# www.blender.org
o Asteroid_8
v -0.030140 0.028443 0.002738
v -0.015964 0.034344 0.003744
v -0.043518 0.039906 0.043945
v -0.036622 -0.005254 -0.020237
v -0.037236 0.007653 0.027234
v -0.023334 0.003211 -0.026274
v -0.015011 0.023498 -0.007663
v -0.005809 0.027560 -0.007101
v 0.006845 0.013148 -0.028056
v -0.020173 -0.007623 -0.033638
v 0.014360 0.034133 -0.022768
v -0.010196 -0.014293 -0.035353
v 0.001935 0.032294 -0.011715
v 0.025805 -0.018237 -0.030023
v 0.025726 0.015556 -0.024215
v 0.035362 0.017068 -0.018861
v 0.036252 -0.030869 -0.022863
v -0.013199 -0.034492 -0.027614
v 0.036928 -0.039044 0.011191
v 0.041208 -0.024597 0.030610
v 0.019414 -0.036975 0.039384
v 0.043865 0.004373 0.024870
v 0.017896 0.043065 -0.017206
v 0.032357 0.028448 0.028329
v -0.002015 -0.013184 0.050959
v -0.004881 -0.045366 0.026132
v -0.026649 -0.009198 0.038615
v -0.021176 -0.039142 0.015113
v -0.027849 -0.025576 -0.024740
v -0.003866 -0.048800 0.015340
v -0.000320 0.039939 0.000115
vn -0.2492 0.6913 -0.6782
vn -0.3625 0.8567 -0.3670
vn -0.9531 -0.0296 -0.3012
vn -0.4492 0.6193 -0.6440
vn -0.4493 0.6193 -0.6440
vn -0.9679 0.2390 -0.0775
vn -0.4491 0.6193 -0.6440
vn -0.2718 0.7087 -0.6510
vn -0.2723 0.7083 -0.6513
vn -0.2723 0.7082 -0.6514
vn -0.2728 0.7079 -0.6515
vn -0.2157 0.5051 -0.8357
vn 0.0040 0.2547 -0.9670
vn -0.6370 0.3994 -0.6593
vn -0.6419 0.3958 -0.6567
vn -0.6376 0.3989 -0.6590
vn 0.1737 0.1817 -0.9679
vn -0.6424 0.3955 -0.6564
vn 0.1616 0.1587 -0.9740
vn 0.1760 0.1671 -0.9701
vn 0.4288 0.3357 -0.8387
vn 0.5671 0.1048 -0.8170
vn 0.5670 0.1048 -0.8170
vn 0.5671 0.1048 -0.8169
vn 0.1064 -0.3908 -0.9143
vn 0.1421 -0.9451 -0.2944
vn 0.9776 -0.1993 -0.0672
vn 0.9951 0.0264 -0.0953
vn 0.5694 -0.7147 0.4062
vn 0.9649 -0.1333 -0.2263
vn 0.2888 0.1605 0.9438
vn 0.8301 0.5577 0.0005
vn 0.8856 0.4433 -0.1389
vn 0.4642 0.0954 0.8806
vn 0.4894 0.0166 0.8719
vn -0.2248 -0.5825 0.7811
vn -0.4484 -0.5206 0.7266
vn -0.2682 0.6215 0.7360
vn -0.6003 -0.5588 0.5722
vn -0.9263 -0.3524 0.1333
vn -0.9263 -0.3524 0.1334
vn -0.8844 -0.3387 0.3212
vn 0.1958 -0.0391 0.9799
vn -0.9165 -0.3995 0.0175
vn -0.4741 -0.8547 -0.2115
vn -0.4770 -0.8495 0.2254
vn -0.5359 -0.8290 -0.1597
vn 0.2481 -0.9426 0.2233
vn 0.1532 -0.9375 0.3126
vn -0.3497 -0.2906 -0.8906
vn -0.3498 -0.2904 -0.8907
vn -0.3500 -0.2902 -0.8907
vn -0.6257 0.0567 -0.7780
vn -0.6257 0.0566 -0.7780
vn -0.3498 -0.2905 -0.8907
vn 0.0981 0.9562 0.2757
vn 0.1832 0.9662 0.1813
vn -0.4875 0.5909 -0.6428
vn -0.4874 0.5909 -0.6428
vn -0.5916 0.6049 -0.5330
vn -0.4876 0.5909 -0.6428
vn -0.6257 0.0568 -0.7780
vt 0.789619 0.025079
vt 0.791208 0.023287
vt 0.791697 0.025200
vt 0.797802 0.021057
vt 0.792747 0.019815
vt 0.786267 0.023691
vt 0.786080 0.021515
vt 0.785408 0.019609
vt 0.789841 0.026354
vt 0.786411 0.027691
vt 0.784675 0.023768
vt 0.783551 0.024658
vt 0.789671 0.027659
vt 0.788601 0.029468
vt 0.785966 0.030160
vt 0.781857 0.028791
vt 0.785840 0.031603
vt 0.779809 0.029843
vt 0.781099 0.023397
vt 0.783954 0.013103
vt 0.788430 0.005557
vt 0.790271 0.009057
vt 0.792368 0.009480
vt 0.796832 0.005004
vt 0.791220 0.011752
vt 0.795321 0.009418
vt 0.801237 0.007210
vt 0.797749 0.011247
vt 0.792858 0.014373
vt 0.789137 0.013612
vt 0.792617 0.017395
vt 0.788326 0.015287
vt 0.784170 0.016063
vt 0.788080 0.013027
vt 0.782901 0.021780
vt 0.801942 0.011586
vt 0.791392 0.027430
vt 0.789734 0.030301
s 1
f 7/1/1 1/2/1 2/3/1
f 2/3/2 1/2/2 3/4/2
f 5/5/3 3/4/3 1/2/3
f 6/6/4 4/7/5 1/2/4
f 4/8/6 5/5/6 1/2/6
f 1/2/4 7/1/7 6/6/4
f 2/3/1 8/9/1 7/1/1
f 6/6/8 7/1/9 9/10/10
f 7/1/9 8/9/11 9/10/10
f 10/11/12 6/6/12 9/10/12
f 12/12/13 10/11/13 9/10/13
f 8/9/14 13/13/15 9/10/16
f 11/14/17 15/15/17 9/10/17
f 13/13/15 11/14/18 9/10/16
f 14/16/19 12/12/19 9/10/19
f 15/15/20 14/16/20 9/10/20
f 16/17/21 15/15/21 11/14/21
f 15/15/22 16/17/23 17/18/22
f 17/18/22 14/16/24 15/15/22
f 14/16/25 17/18/25 18/19/25
f 18/20/26 17/21/26 19/22/26
f 20/23/27 19/22/27 17/21/27
f 20/23/28 17/21/28 16/24/28
f 19/22/29 20/23/29 21/25/29
f 16/24/30 22/26/30 20/23/30
f 22/26/31 21/25/31 20/23/31
f 22/26/32 16/24/32 23/27/32
f 23/27/33 24/28/33 22/26/33
f 24/28/34 25/29/34 22/26/34
f 21/25/35 22/26/35 25/29/35
f 21/25/36 25/29/36 26/30/36
f 25/29/37 27/31/37 26/30/37
f 25/29/38 24/28/38 27/31/38
f 26/30/39 27/31/39 28/32/39
f 28/32/40 27/31/41 5/5/40
f 5/5/42 27/31/42 3/4/42
f 27/31/43 24/28/43 3/4/43
f 4/8/44 29/33/44 28/32/44
f 30/34/45 28/32/45 29/33/45
f 5/5/40 4/8/40 28/32/40
f 30/34/46 26/30/46 28/32/46
f 29/33/47 18/20/47 30/34/47
f 19/22/26 30/34/26 18/20/26
f 21/25/48 30/34/48 19/22/48
f 21/25/49 26/30/49 30/34/49
f 12/12/50 18/19/51 29/35/52
f 10/11/53 29/35/54 4/7/53
f 29/35/52 10/11/55 12/12/50
f 31/36/56 24/28/56 23/27/56
f 31/36/57 3/4/57 24/28/57
f 3/4/2 31/37/2 2/3/2
f 8/9/58 2/3/59 31/37/58
f 13/13/60 31/37/60 23/38/60
f 31/37/58 13/13/61 8/9/58
f 11/14/21 23/38/21 16/17/21
f 23/38/60 11/14/60 13/13/60
f 18/19/25 12/12/25 14/16/25
f 4/7/53 6/6/62 10/11/53
