# Blender 4.4.1
# www.blender.org
o Space_Texturing_to_export.090
v -0.342483 -0.007537 0.274066
v -0.396065 -0.175686 0.087903
v -0.420877 0.047255 0.090007
v -0.346135 0.194991 0.187850
v -0.224960 0.226199 0.304369
v -0.239134 -0.225048 0.310686
v -0.197533 -0.062743 0.382300
v 0.050332 0.015925 0.417544
v 0.113207 -0.174110 0.386835
v -0.080937 0.155003 0.390683
v -0.045945 0.368973 0.227830
v 0.150300 0.219425 0.335482
v 0.324170 0.215212 0.197275
v 0.234304 0.061990 0.354694
v 0.093948 0.381622 0.157737
v 0.177340 0.378340 -0.074279
v -0.110381 0.408777 -0.048648
v 0.313364 0.293372 0.006248
v 0.235545 0.257455 -0.266322
v 0.405496 0.125759 -0.022740
v 0.352828 0.066448 -0.244703
v 0.411611 -0.100718 -0.055977
v 0.379639 -0.125738 0.174354
v 0.289870 -0.319687 0.094830
v 0.324225 -0.096829 0.272131
v 0.160252 -0.300996 0.281671
v -0.107162 -0.340184 0.264948
v 0.086450 -0.407307 0.132041
v -0.109507 -0.415702 0.013311
v 0.161789 -0.401487 -0.079883
v 0.068568 -0.367564 -0.242981
v 0.295127 -0.292025 -0.157759
v 0.229365 -0.210704 -0.317547
v 0.328433 -0.079632 -0.286151
v 0.192237 0.116259 -0.367600
v 0.043819 -0.046936 -0.433182
v -0.267664 -0.035440 -0.359487
v 0.012833 -0.219649 -0.386676
v 0.020376 0.185051 -0.398107
v -0.133564 0.242486 -0.340273
v 0.000340 0.375260 -0.215415
v -0.253357 0.242199 -0.274533
v -0.340125 0.278043 -0.048144
v -0.364293 0.142975 -0.196638
v -0.416949 -0.020102 -0.122199
v -0.332492 -0.240793 -0.203388
v -0.307562 -0.332170 0.001027
v -0.129726 -0.307235 -0.304746
v -0.288917 0.307051 0.101570
v 0.167218 -0.420704 -0.082350
v 0.089429 -0.426713 0.136465
v 0.299464 -0.336243 0.098044
v -0.112899 -0.435382 0.013874
v 0.155597 -0.375254 -0.085233
v 0.279682 -0.295162 0.086637
v 0.153219 -0.277325 0.268933
v 0.165631 -0.316945 0.290960
v -0.108932 -0.314609 0.254330
v -0.110478 -0.357408 0.273693
v -0.110545 -0.388989 0.006709
v -0.353451 0.016188 0.283108
v -0.408775 -0.157429 0.090892
v -0.434394 0.072760 0.093064
v -0.246740 -0.208396 0.320918
v -0.203787 -0.040814 0.394861
v -0.315077 0.025827 0.257739
v -0.388577 0.077945 0.083953
v -0.385442 0.004936 -0.112243
v -0.430337 0.003214 -0.126042
v -0.276199 -0.012623 -0.371046
v -0.364773 -0.149006 0.076682
v -0.248896 -0.016490 -0.332985
v -0.336245 0.170215 -0.177821
v -0.375970 0.171593 -0.202902
v 0.020468 0.207939 -0.364466
v 0.040881 -0.028677 -0.400543
v 0.045412 -0.024493 -0.447137
v 0.339281 -0.058252 -0.295325
v 0.198656 0.144008 -0.379422
v 0.021207 0.215037 -0.410921
v 0.175845 0.137839 -0.338794
v 0.213454 0.275179 -0.241681
v 0.243372 0.289795 -0.274851
v 0.325876 0.087894 -0.226115
v 0.364469 0.092579 -0.252530
v 0.372090 0.150113 -0.026309
v 0.292741 0.239859 0.183985
v 0.418850 0.153817 -0.023349
v 0.425164 -0.080023 -0.057667
v 0.392151 -0.105858 0.180153
v 0.334879 0.246180 0.203820
v 0.334936 -0.076008 0.281110
v 0.242091 0.087975 0.366358
v 0.212838 0.087534 0.329574
v 0.049960 0.043937 0.384433
v -0.076136 0.181909 0.357129
v 0.052137 0.040413 0.431251
v 0.117056 -0.155803 0.399544
v -0.083400 0.184011 0.403517
v -0.185323 -0.035080 0.352021
v 0.105380 -0.149627 0.354438
v -0.212076 -0.196906 0.291331
v 0.299037 -0.077508 0.250811
v 0.347926 -0.110019 0.164796
v 0.378319 -0.080572 -0.053881
v 0.303648 -0.058069 -0.264677
v -0.261426 0.274044 -0.283329
v 0.000519 0.411432 -0.222289
v -0.112338 0.423929 -0.043342
v -0.348447 0.312858 -0.046973
v -0.328980 0.271162 -0.037406
v -0.242814 0.233201 -0.269383
v 0.008700 0.365907 -0.213950
v 0.181921 0.367643 -0.075439
v 0.183275 0.414611 -0.076564
v 0.097171 0.418000 0.162997
v -0.047271 0.404940 0.235368
v 0.097704 0.371041 0.161106
v -0.040758 0.358628 0.230693
v -0.301496 0.351342 0.098708
v -0.284726 0.307437 0.098604
vn -0.8099 -0.3000 0.5040
vn -0.9258 -0.1065 0.3626
vn -0.8885 0.1661 0.4279
vn -0.7027 0.2679 0.6591
vn -0.5475 0.1691 0.8195
vn -0.6306 -0.1722 0.7567
vn -0.1545 0.0448 0.9870
vn -0.0806 -0.1849 0.9794
vn -0.1453 -0.3680 0.9184
vn -0.4307 0.1967 0.8808
vn -0.1595 0.6143 0.7728
vn 0.0223 0.6032 0.7973
vn 0.1377 0.3115 0.9402
vn 0.5774 0.3953 0.7144
vn 0.4366 0.7292 0.5270
vn 0.2562 0.2506 0.9336
vn 0.2386 0.7538 0.6122
vn 0.4573 0.8762 0.1520
vn 0.1073 0.9939 0.0245
vn 0.5255 0.7974 0.2966
vn -0.0162 0.9891 0.1462
vn 0.8778 0.4587 0.1380
vn 0.6210 0.7344 -0.2741
vn 0.8138 0.4989 -0.2981
vn 0.9672 0.0622 -0.2461
vn 0.8229 0.4690 -0.3206
vn 0.9904 0.0065 0.1382
vn 0.9460 0.1341 0.2952
vn 0.8927 -0.4442 0.0757
vn 0.6738 -0.5250 0.5199
vn 0.6717 -0.5146 0.5329
vn 0.8784 0.1117 0.4648
vn 0.5467 -0.4048 0.7330
vn 0.0434 -0.6279 0.7771
vn 0.0877 -0.8320 0.5479
vn 0.4237 -0.8239 0.3764
vn -0.1327 -0.9490 0.2860
vn 0.0489 -0.9988 -0.0100
vn 0.4113 -0.9034 0.1214
vn -0.0156 -0.9807 -0.1950
vn 0.4236 -0.8077 -0.4101
vn 0.6066 -0.7916 -0.0741
vn 0.4424 -0.7125 -0.5447
vn 0.8622 -0.5051 -0.0374
vn 0.8717 -0.3463 -0.3467
vn 0.7358 -0.4311 -0.5222
vn 0.6259 0.1144 -0.7715
vn 0.4533 -0.0547 -0.8897
vn 0.4443 -0.1232 -0.8874
vn 0.9371 -0.0589 -0.3440
vn -0.2242 0.1235 -0.9667
vn -0.2324 -0.2138 -0.9488
vn 0.3015 -0.2980 -0.9057
vn 0.2373 0.1686 -0.9567
vn -0.0130 0.6919 -0.7218
vn -0.2786 0.1994 -0.9395
vn 0.3357 0.4789 -0.8112
vn 0.1947 0.6900 -0.6971
vn -0.2933 0.7950 -0.5309
vn 0.3282 0.8411 -0.4300
vn -0.3499 0.8460 -0.4024
vn 0.0921 0.9863 -0.1371
vn -0.4706 0.8257 -0.3111
vn -0.7502 0.5453 -0.3739
vn -0.6936 0.2432 -0.6780
vn -0.4622 0.2812 -0.8410
vn -0.9590 0.2691 -0.0887
vn -0.8452 0.0293 -0.5336
vn -0.9565 0.2723 -0.1042
vn -0.9937 -0.1108 0.0168
vn -0.9409 -0.3100 -0.1361
vn -0.8430 -0.1306 -0.5219
vn -0.5118 -0.4116 -0.7541
vn -0.8879 -0.4505 -0.0931
vn -0.3460 -0.8715 -0.3474
vn -0.4187 -0.8673 -0.2692
vn -0.3063 -0.3349 -0.8911
vn 0.0129 -0.6942 -0.7196
vn -0.1885 -0.9331 -0.3062
vn -0.5301 -0.7583 0.3795
vn -0.7086 -0.6036 0.3654
vn -0.3885 -0.8816 0.2682
vn -0.4946 0.8691 0.0008
vn -0.8170 0.5502 0.1728
vn -0.9148 0.3878 0.1132
vn -0.3432 0.9151 0.2117
vn -0.4323 0.7824 0.4483
vn -0.6038 0.6565 0.4521
vn 0.2618 -0.6200 -0.7397
vn 0.6366 0.3110 -0.7058
vn -0.1183 -0.4807 0.8689
vn 0.7938 0.1420 0.5914
vn 0.5137 -0.1484 0.8450
vn 0.3325 -0.0423 0.9422
vn 0.0489 -0.9988 -0.0101
vn 0.7571 0.1706 -0.6306
vn -0.3164 -0.1347 -0.9390
vn 0.7393 0.4874 0.4646
vn 0.7393 0.4873 0.4647
vn -0.1155 0.4336 0.8937
vn -0.9991 0.0423 -0.0048
vn -0.8099 -0.3000 0.5041
vn -0.0436 0.9520 0.3029
vn -0.0437 0.9520 0.3029
vn -0.6306 -0.1723 0.7567
vn 0.1475 0.9313 0.3329
vn -0.0551 0.9441 -0.3250
vn -0.0552 0.9441 -0.3250
vn -0.0550 0.9441 -0.3250
vn -0.3723 0.4597 0.8063
vn 0.0866 -0.7830 -0.6159
vn -0.0600 -0.9973 0.0423
vn 0.5212 0.6948 -0.4956
vn 0.5213 0.6948 -0.4955
vn -0.3724 0.4598 0.8062
vn -0.3724 0.4597 0.8062
vn -0.5766 0.7672 0.2809
vn -0.0608 -0.9949 -0.0803
vn -0.0645 -0.9945 -0.0827
vn -0.0577 -0.9952 -0.0791
vn -0.0679 -0.9939 -0.0868
vn -0.5766 0.7672 0.2807
vn -0.5766 0.7673 0.2807
vn 0.3458 0.9092 0.2319
vn 0.3457 0.9092 0.2319
vn 0.3467 0.9087 0.2325
vn 0.3457 0.9092 0.2320
vn -0.7622 0.5077 -0.4016
vn 0.5354 0.3985 0.7447
vn -0.1597 0.9580 -0.2383
vn -0.1595 0.9580 -0.2383
vn -0.0051 0.9225 -0.3859
vn -0.4589 0.7413 0.4898
vn -0.4587 0.7413 0.4899
vn -0.4587 0.7413 0.4900
vn -0.2116 0.9705 0.1153
vn 0.7267 0.6851 0.0501
vn 0.3324 -0.0423 0.9422
vn -0.8607 0.4544 -0.2297
vn 0.7894 -0.3679 0.4915
vn 0.7894 -0.3679 0.4914
vn 0.7893 -0.3679 0.4916
vn -0.3458 -0.9259 -0.1522
vn 0.1476 0.9313 0.3329
vn 0.0888 -0.9571 -0.2757
vn -0.3458 -0.9259 -0.1520
vn 0.2376 -0.9487 -0.2087
vn -0.0865 -0.9588 0.2707
vn -0.0866 -0.9588 0.2707
vn 0.0654 -0.9917 -0.1110
vn -0.0319 -0.9957 -0.0869
vn -0.0679 -0.9939 -0.0867
vn 0.0864 -0.7830 -0.6159
vn 0.0864 -0.7831 -0.6159
vn 0.2941 -0.1522 -0.9436
vn -0.3859 0.8709 -0.3042
vn -0.4036 0.8674 -0.2910
vn -0.8537 -0.4622 -0.2399
vn 0.6239 -0.0338 -0.7808
vn 0.6239 -0.0337 -0.7808
vn 0.0312 0.9995 -0.0029
vn 0.0254 0.9982 -0.0537
vn 0.9414 -0.0110 0.3370
vn 0.9414 -0.0111 0.3370
vn 0.4504 -0.0288 0.8924
vn 0.4504 -0.0289 0.8924
vn -0.0502 0.9956 0.0795
vn 0.9415 -0.0110 0.3370
vn 0.4504 -0.0287 0.8924
vn -0.4422 -0.1609 0.8824
vn -0.8700 -0.3275 0.3686
vn -0.2700 0.9543 0.1281
vn -0.4222 0.9008 -0.1019
vt 0.065848 0.394187
vt 0.096179 0.395943
vt 0.081266 0.422468
vt 0.106744 0.418059
vt 0.123456 0.403431
vt 0.141209 0.674727
vt 0.136204 0.694702
vt 0.110519 0.686777
vt 0.106398 0.665453
vt 0.084612 0.668998
vt 0.119301 0.638682
vt 0.133420 0.654801
vt 0.097859 0.629091
vt 0.164833 0.655055
vt 0.145973 0.627035
vt 0.147246 0.596441
vt 0.126839 0.617902
vt 0.180600 0.586483
vt 0.168400 0.613177
vt 0.196972 0.595511
vt 0.169588 0.558392
vt 0.153269 0.571193
vt 0.203507 0.562745
vt 0.132606 0.570599
vt 0.148828 0.535509
vt 0.124187 0.545797
vt 0.106899 0.568235
vt 0.105189 0.592740
vt 0.078397 0.587406
vt 0.080792 0.617720
vt 0.108857 0.604517
vt 0.071257 0.650544
vt 0.051313 0.584808
vt 0.057844 0.606952
vt 0.025220 0.597046
vt 0.031956 0.566506
vt 0.063795 0.562530
vt 0.058839 0.540017
vt 0.083240 0.556143
vt 0.089205 0.533657
vt 0.106954 0.541666
vt 0.129420 0.523493
vt 0.108803 0.507322
vt 0.105200 0.472761
vt 0.136996 0.501823
vt 0.087740 0.506163
vt 0.208912 0.524010
vt 0.191345 0.543231
vt 0.190523 0.512857
vt 0.140373 0.480155
vt 0.163309 0.530160
vt 0.223718 0.532101
vt 0.233701 0.560676
vt 0.122332 0.449789
vt 0.137654 0.430956
vt 0.137566 0.463069
vt 0.102220 0.442733
vt 0.077152 0.459237
vt 0.073031 0.489504
vt 0.061692 0.435287
vt 0.007734 0.533023
vt 0.007970 0.560336
vt 0.035954 0.527211
vt 0.065145 0.516162
vt 0.004183 0.600847
vt 0.227278 0.579679
vt 0.140074 0.411484
vt 0.223477 0.606640
vt 0.132330 0.385311
vt 0.285551 0.397726
vt 0.292231 0.433532
vt 0.268048 0.420439
vt 0.266041 0.447969
vt 0.265449 0.452670
vt 0.297240 0.435521
vt 0.239056 0.428828
vt 0.244429 0.427595
vt 0.250265 0.390638
vt 0.252850 0.394502
vt 0.288894 0.393889
vt 0.618800 0.152596
vt 0.627202 0.124281
vt 0.651260 0.143996
vt 0.651214 0.116796
vt 0.648713 0.111875
vt 0.606534 0.134220
vt 0.626785 0.118777
vt 0.604656 0.120081
vt 0.668598 0.097416
vt 0.672962 0.100796
vt 0.114381 0.018119
vt 0.113426 0.012683
vt 0.133676 0.004980
vt 0.681901 0.152507
vt 0.678948 0.157169
vt 0.651264 0.149516
vt 0.375609 0.020166
vt 0.376994 0.014824
vt 0.406670 0.031505
vt 0.402374 0.034969
vt 0.009431 0.035385
vt 0.004183 0.033674
vt 0.013965 0.004998
vt 0.135590 0.010157
vt 0.469150 0.036866
vt 0.446617 0.034522
vt 0.457454 0.004895
vt 0.019464 0.005477
vt 0.834777 0.857304
vt 0.829066 0.857649
vt 0.809718 0.821128
vt 0.820971 0.789153
vt 0.820167 0.783440
vt 0.852848 0.769038
vt 0.856698 0.773021
vt 0.856088 0.808220
vt 0.813664 0.817067
vt 0.783926 0.776164
vt 0.795265 0.804585
vt 0.794404 0.810681
vt 0.775483 0.817937
vt 0.777979 0.813787
vt 0.767447 0.794994
vt 0.771566 0.790488
vt 0.741744 0.787501
vt 0.743477 0.782425
vt 0.713093 0.780240
vt 0.760330 0.760375
vt 0.736983 0.743583
vt 0.715435 0.775804
vt 0.722506 0.740129
vt 0.700659 0.754639
vt 0.697383 0.759073
vt 0.679436 0.745066
vt 0.679541 0.739009
vt 0.657609 0.751853
vt 0.698894 0.723222
vt 0.662365 0.711572
vt 0.656876 0.746388
vt 0.656432 0.716077
vt 0.628256 0.752744
vt 0.626868 0.747332
vt 0.603004 0.167766
vt 0.599558 0.163454
vt 0.696867 0.681676
vt 0.702172 0.683864
vt 0.704005 0.720382
vt 0.606980 0.115074
vt 0.620905 0.157698
vt 0.724605 0.734985
vt 0.739462 0.739173
vt 0.762960 0.755685
vt 0.786181 0.771335
vt 0.676885 0.125163
vt 0.690070 0.290064
vt 0.685448 0.292089
vt 0.654669 0.276114
vt 0.650537 0.301725
vt 0.675439 0.320319
vt 0.679844 0.323460
vt 0.656206 0.270840
vt 0.627524 0.275974
vt 0.624673 0.271781
vt 0.615895 0.303910
vt 0.610482 0.303623
vt 0.623586 0.321664
vt 0.620389 0.325735
vt 0.658723 0.329860
vt 0.659188 0.335370
s 1
f 6/1/1 1/2/1 2/3/1
f 1/2/2 3/4/2 2/3/2
f 4/5/3 3/4/3 1/2/3
f 5/6/4 4/7/4 1/8/4
f 7/9/5 5/6/5 1/8/5
f 7/9/6 1/8/6 6/10/6
f 8/11/7 10/12/7 7/9/7
f 8/11/8 7/9/8 9/13/8
f 9/13/9 7/9/9 6/10/9
f 7/9/10 10/12/10 5/6/10
f 10/12/11 11/14/11 5/6/11
f 11/14/12 10/12/12 12/15/12
f 12/15/13 10/12/13 8/11/13
f 13/16/14 12/15/14 14/17/14
f 15/18/15 12/19/15 13/16/15
f 12/15/16 8/11/16 14/17/16
f 15/18/17 11/20/17 12/19/17
f 16/21/18 15/18/18 18/22/18
f 17/23/19 15/18/19 16/21/19
f 15/18/20 13/16/20 18/22/20
f 17/23/21 11/20/21 15/18/21
f 20/24/22 18/22/22 13/16/22
f 19/25/23 16/21/23 18/22/23
f 19/25/24 18/22/24 20/24/24
f 21/26/25 20/24/25 22/27/25
f 19/25/26 20/24/26 21/26/26
f 22/27/27 20/24/27 23/28/27
f 23/28/28 20/24/28 13/16/28
f 22/27/29 23/28/29 24/29/29
f 23/28/30 26/30/30 24/29/30
f 23/28/31 25/31/31 26/30/31
f 23/28/32 13/16/32 25/31/32
f 25/31/33 9/13/33 26/30/33
f 26/30/34 9/13/34 27/32/34
f 28/33/35 26/34/35 27/35/35
f 28/33/36 24/29/36 26/34/36
f 28/33/37 27/35/37 29/36/37
f 29/36/38 30/37/38 28/33/38
f 30/37/39 24/29/39 28/33/39
f 31/38/40 30/37/40 29/36/40
f 32/39/41 30/37/41 31/38/41
f 32/39/42 24/29/42 30/37/42
f 33/40/43 32/39/43 31/38/43
f 32/39/44 22/27/44 24/29/44
f 32/39/45 34/41/45 22/27/45
f 33/40/46 34/41/46 32/39/46
f 34/41/47 35/42/47 21/26/47
f 36/43/48 35/42/48 34/41/48
f 36/43/49 34/41/49 33/40/49
f 34/41/50 21/26/50 22/27/50
f 37/44/51 39/45/51 36/43/51
f 37/44/52 36/43/52 38/46/52
f 36/43/53 33/40/53 38/46/53
f 36/43/54 39/45/54 35/42/54
f 40/47/55 41/48/55 39/49/55
f 40/50/56 39/45/56 37/44/56
f 39/45/57 19/25/57 35/42/57
f 19/51/58 39/49/58 41/48/58
f 40/47/59 42/52/59 41/48/59
f 19/51/60 41/48/60 16/21/60
f 42/52/61 17/23/61 41/48/61
f 41/48/62 17/23/62 16/21/62
f 42/52/63 43/53/63 17/23/63
f 44/54/64 43/55/64 42/56/64
f 44/54/65 42/56/65 37/44/65
f 42/56/66 40/50/66 37/44/66
f 45/57/67 43/55/67 44/54/67
f 45/57/68 44/54/68 37/44/68
f 3/4/69 43/55/69 45/57/69
f 3/4/70 45/57/70 2/3/70
f 2/3/71 45/57/71 46/58/71
f 45/57/72 37/44/72 46/58/72
f 46/58/73 37/44/73 48/59/73
f 2/3/74 46/58/74 47/60/74
f 46/61/75 29/36/75 47/62/75
f 46/61/76 48/63/76 29/36/76
f 48/59/77 37/44/77 38/46/77
f 38/46/78 31/64/78 48/59/78
f 48/63/79 31/38/79 29/36/79
f 47/62/80 27/35/80 6/65/80
f 6/1/81 2/3/81 47/60/81
f 29/36/82 27/35/82 47/62/82
f 17/23/83 43/53/83 49/66/83
f 49/67/84 43/55/84 4/5/84
f 4/5/85 43/55/85 3/4/85
f 17/23/86 49/66/86 11/20/86
f 11/20/87 49/66/87 5/68/87
f 5/69/88 49/67/88 4/5/88
f 38/46/89 33/40/89 31/64/89
f 35/42/90 19/25/90 21/26/90
f 9/13/91 6/10/91 27/32/91
f 25/31/92 13/16/92 14/17/92
f 25/31/93 14/17/93 9/13/93
f 9/13/94 14/17/94 8/11/94
f 53/70/95 50/71/95 51/72/95
f 50/71/39 52/73/39 51/72/39
f 55/74/96 52/73/96 50/71/96
f 54/75/97 50/71/97 53/70/97
f 50/71/96 54/75/96 55/74/96
f 52/73/98 55/74/99 56/76/98
f 56/76/98 57/77/98 52/73/98
f 57/77/100 56/76/100 58/78/100
f 59/79/101 58/78/101 60/80/101
f 58/78/100 59/79/100 57/77/100
f 60/80/101 53/70/101 59/79/101
f 53/70/97 60/80/97 54/75/97
f 51/72/35 57/77/35 59/79/35
f 51/72/37 59/79/37 53/70/37
f 51/72/36 52/73/36 57/77/36
f 64/81/102 61/82/102 62/83/102
f 61/82/2 63/84/2 62/83/2
f 67/85/103 63/84/104 61/82/103
f 65/86/105 61/82/105 64/81/105
f 66/87/106 61/82/106 65/88/106
f 61/82/103 66/87/103 67/85/103
f 63/84/107 67/85/108 68/89/107
f 68/89/107 69/90/109 63/84/107
f 69/91/110 68/92/110 73/93/110
f 69/94/111 68/95/111 71/96/111
f 68/97/112 69/98/112 70/99/112
f 70/99/112 72/100/112 68/97/112
f 74/101/113 73/102/113 72/103/114
f 73/93/115 74/104/116 69/91/116
f 69/105/68 74/106/68 70/107/68
f 72/103/114 70/108/114 74/101/113
f 70/109/117 72/110/117 75/111/117
f 77/112/118 76/113/119 72/114/120
f 72/114/120 70/115/120 77/112/118
f 70/116/51 80/117/51 77/112/51
f 76/113/119 77/112/118 78/118/121
f 77/112/48 79/119/48 78/118/48
f 77/112/54 80/117/54 79/119/54
f 75/111/122 80/117/123 70/109/123
f 80/117/124 75/111/124 81/120/125
f 81/120/126 79/119/127 80/117/127
f 79/119/128 81/120/128 82/121/128
f 82/121/128 83/122/128 79/119/128
f 83/122/129 82/121/129 84/123/129
f 84/123/129 85/124/129 83/122/129
f 85/124/130 84/123/130 86/125/130
f 86/125/131 88/126/131 85/124/131
f 88/126/132 86/125/132 87/127/132
f 85/124/25 88/126/25 89/128/25
f 89/128/27 88/126/27 90/129/27
f 90/129/28 88/126/28 91/130/28
f 87/127/132 91/130/132 88/126/132
f 90/129/32 91/130/32 92/131/32
f 92/131/92 91/130/92 93/132/92
f 94/133/133 93/132/133 91/130/133
f 91/130/134 87/127/135 94/133/134
f 93/132/136 94/133/136 95/134/136
f 95/134/136 97/135/136 93/132/136
f 97/135/137 95/134/137 96/136/137
f 98/137/138 93/132/138 97/135/138
f 97/135/8 65/138/8 98/137/8
f 97/135/7 99/139/7 65/140/7
f 96/136/137 99/139/137 97/135/137
f 100/141/139 65/142/139 99/139/139
f 99/139/139 96/136/139 100/141/139
f 100/143/140 65/144/141 64/81/142
f 65/145/143 100/146/143 101/147/143
f 65/88/144 100/148/144 66/87/144
f 64/81/142 102/149/142 100/143/140
f 62/83/145 71/96/145 102/149/145
f 102/149/145 64/81/145 62/83/145
f 101/147/146 98/137/146 65/145/146
f 98/137/147 101/147/147 103/150/147
f 103/150/147 92/131/147 98/137/147
f 92/131/148 103/150/148 104/151/149
f 90/129/150 104/151/150 105/152/150
f 104/151/148 90/129/148 92/131/148
f 105/152/150 89/128/150 90/129/150
f 89/128/151 105/152/151 106/153/151
f 106/153/151 78/118/151 89/128/151
f 78/118/121 106/153/152 76/113/119
f 92/131/93 93/132/93 98/137/93
f 78/118/50 85/124/50 89/128/50
f 79/119/90 83/122/90 85/124/90
f 78/118/47 79/119/47 85/124/47
f 71/96/153 62/83/153 69/94/154
f 63/84/70 69/154/70 62/83/70
f 112/155/155 107/156/155 108/157/155
f 107/156/156 109/158/156 108/157/156
f 107/156/157 110/159/157 109/158/157
f 111/160/158 110/159/158 107/156/158
f 107/156/158 112/155/158 111/160/158
f 108/157/155 113/161/155 112/155/155
f 113/161/159 108/157/159 115/162/160
f 115/162/159 114/163/159 113/161/159
f 109/158/161 116/164/161 115/162/161
f 108/157/162 109/158/162 115/162/162
f 114/163/163 115/162/164 116/164/163
f 118/165/165 116/164/165 117/166/166
f 109/158/167 117/166/167 116/164/167
f 116/164/163 118/165/168 114/163/168
f 117/166/165 119/167/165 118/165/169
f 120/168/170 121/169/170 119/167/170
f 119/167/170 117/166/170 120/168/170
f 121/169/171 120/168/171 110/159/171
f 110/159/171 111/160/171 121/169/171
f 109/158/172 120/168/172 117/166/172
f 109/158/173 110/159/173 120/168/173
