# Blender 4.4.1
# www.blender.org
o Planet_Ice_1
v -0.417890 -0.009197 0.334409
v -0.483269 -0.214368 0.107257
v -0.513544 0.057658 0.109824
v -0.422346 0.237923 0.229209
v -0.274491 0.276002 0.371383
v -0.291785 -0.274599 0.379091
v -0.241025 -0.076559 0.466473
v 0.061414 0.019432 0.509476
v 0.138132 -0.212446 0.472007
v -0.098757 0.189130 0.476702
v -0.056061 0.450212 0.277992
v 0.183393 0.267737 0.409347
v 0.395545 0.262596 0.240710
v 0.285893 0.075638 0.432789
v 0.114633 0.465646 0.192467
v 0.216387 0.461640 -0.090634
v -0.134684 0.498780 -0.059360
v 0.382360 0.357965 0.007623
v 0.287406 0.314139 -0.324961
v 0.494778 0.153447 -0.027747
v 0.430513 0.081079 -0.298582
v 0.502239 -0.122893 -0.068303
v 0.463227 -0.153423 0.212741
v 0.353693 -0.390074 0.115709
v 0.395612 -0.118149 0.332048
v 0.195536 -0.367269 0.343688
v -0.130757 -0.415086 0.323282
v 0.105484 -0.496987 0.161113
v -0.133617 -0.507231 0.016241
v 0.197411 -0.489886 -0.097472
v 0.083665 -0.448494 -0.296481
v 0.360108 -0.356323 -0.192494
v 0.279866 -0.257097 -0.387464
v 0.400747 -0.097166 -0.349156
v 0.234563 0.141855 -0.448538
v 0.053467 -0.057271 -0.528560
v -0.326597 -0.043243 -0.438639
v 0.015659 -0.268012 -0.471814
v 0.024862 0.225794 -0.485761
v -0.162971 0.295875 -0.415195
v 0.000415 0.457884 -0.262845
v -0.309140 0.295525 -0.334980
v -0.415012 0.339261 -0.058745
v -0.444502 0.174454 -0.239934
v -0.508751 -0.024529 -0.149106
v -0.405698 -0.293811 -0.248170
v -0.375279 -0.405306 0.001253
v -0.158289 -0.374882 -0.371845
v -0.352530 0.374655 0.123933
v 0.178132 0.102619 0.450221
v 0.159429 0.262165 0.380412
v 0.311504 0.154942 0.567870
v 0.158887 -0.028605 0.633337
v 0.006520 0.072827 0.482495
v -0.146368 0.011868 0.475149
v -0.284578 0.176336 0.592303
v -0.158805 0.210125 0.423487
v -0.164607 0.322553 0.350953
v -0.413233 0.309623 0.417749
v -0.391453 0.294132 0.210309
v -0.403428 0.157205 0.294501
v -0.340796 -0.004807 0.383436
v -0.274794 0.394808 0.175424
v -0.032574 -0.114780 0.475005
v 0.100698 -0.215030 0.440607
v 0.271146 -0.124081 0.405269
v 0.332177 -0.072000 0.369790
v 0.362399 0.092409 0.329592
v 0.290672 0.229362 0.334610
v -0.104679 0.023506 -0.614943
v -0.303918 -0.022404 -0.435681
v -0.088426 -0.121030 -0.474555
v 0.059756 -0.129767 -0.505051
v 0.096080 0.138911 -0.629328
v 0.003196 0.200585 -0.457710
v -0.135288 0.232672 -0.432856
v -0.288676 0.162711 -0.386237
v 0.130798 0.383702 -0.339502
v -0.054204 0.321769 -0.386092
v 0.271573 0.234960 -0.505330
v 0.345157 0.288350 -0.471770
v 0.292275 0.315603 -0.300370
v 0.228233 0.060950 -0.434947
v 0.361486 0.070989 -0.352931
v 0.405723 -0.201613 -0.449910
v 0.259052 -0.216102 -0.400955
v 0.430610 -0.006070 -0.254076
v 0.422869 -0.158356 -0.224495
v 0.331400 -0.250114 -0.316367
v 0.435479 0.119200 -0.214719
v 0.391763 0.204548 -0.209974
v 0.231927 0.397336 -0.200582
v 0.007807 0.537579 -0.343174
v 0.094463 0.468053 -0.107575
v -0.150417 0.604394 -0.046949
v -0.140179 0.441444 -0.185995
v 0.138793 0.464429 0.046993
v -0.016221 0.470177 0.147601
v -0.138856 0.452115 0.139474
v -0.298534 0.405102 0.018030
v -0.310485 0.343349 -0.124364
v -0.162803 0.351352 -0.336980
v -0.106301 -0.269983 -0.425395
v -0.397779 -0.273954 -0.460110
v -0.061243 -0.374806 -0.364390
v -0.319838 -0.437822 -0.344847
v -0.076789 -0.433026 -0.223193
v -0.125340 -0.480022 -0.051862
v -0.324933 -0.412352 -0.025620
v -0.235140 -0.426890 0.126120
v 0.034506 -0.466405 -0.149796
v 0.063467 -0.642955 0.058013
v -0.016482 -0.462831 0.208936
v -0.197908 -0.468434 0.419682
v 0.093618 -0.490128 0.134346
v 0.062268 -0.408504 0.290608
v 0.064025 -0.320448 0.386380
v -0.085344 -0.279483 0.399005
v -0.290015 -0.257516 0.358232
v -0.290877 -0.351019 0.218216
v 0.201393 -0.460393 0.051275
v 0.183218 -0.461830 -0.154348
v -0.394848 -0.286878 -0.213056
v -0.397376 -0.132664 -0.293171
v 0.477804 -0.097432 -0.040366
v 0.472593 -0.151214 -0.021078
v 0.626722 -0.133623 -0.006162
v 0.480407 -0.084517 0.015474
v 0.475197 -0.138300 0.034762
v 0.351715 -0.376605 0.097504
v 0.256222 -0.379483 0.229403
v 0.434876 -0.367511 0.269065
v 0.440051 -0.226190 0.057674
v 0.482461 -0.076932 0.027299
v 0.528849 0.336009 0.114865
v 0.421206 -0.111603 0.270490
v 0.473308 0.098597 0.146924
v 0.485147 0.157693 -0.033843
v 0.404848 0.274720 -0.051181
v 0.332731 0.338626 0.129334
v 0.294026 0.406704 -0.023411
v 0.391856 0.240222 0.247219
v 0.408495 0.006434 0.264391
v 0.351540 -0.190360 0.299344
vn -0.8099 -0.3000 0.5040
vn -0.9258 -0.1065 0.3626
vn -0.8885 0.1661 0.4279
vn -0.7027 0.2679 0.6591
vn -0.5475 0.1691 0.8195
vn -0.6306 -0.1722 0.7567
vn -0.1545 0.0448 0.9870
vn -0.0806 -0.1849 0.9794
vn -0.1453 -0.3680 0.9184
vn -0.4307 0.1967 0.8808
vn -0.1595 0.6143 0.7728
vn 0.0223 0.6032 0.7973
vn 0.1377 0.3115 0.9402
vn 0.5774 0.3953 0.7144
vn 0.4366 0.7292 0.5270
vn 0.2562 0.2506 0.9336
vn 0.2386 0.7538 0.6122
vn 0.4573 0.8762 0.1520
vn 0.1073 0.9939 0.0245
vn 0.5255 0.7974 0.2966
vn -0.0162 0.9891 0.1462
vn 0.8778 0.4587 0.1380
vn 0.6210 0.7344 -0.2741
vn 0.8138 0.4989 -0.2981
vn 0.9672 0.0622 -0.2461
vn 0.8229 0.4690 -0.3206
vn 0.9904 0.0065 0.1382
vn 0.9460 0.1341 0.2952
vn 0.8927 -0.4442 0.0757
vn 0.6738 -0.5250 0.5199
vn 0.6718 -0.5146 0.5329
vn 0.8784 0.1117 0.4648
vn 0.5467 -0.4048 0.7330
vn 0.0434 -0.6279 0.7771
vn 0.0877 -0.8320 0.5479
vn 0.4237 -0.8239 0.3764
vn -0.1327 -0.9490 0.2860
vn 0.0489 -0.9988 -0.0101
vn 0.4113 -0.9034 0.1214
vn -0.0156 -0.9807 -0.1950
vn 0.4236 -0.8077 -0.4101
vn 0.6066 -0.7916 -0.0741
vn 0.4424 -0.7125 -0.5447
vn 0.8622 -0.5051 -0.0374
vn 0.8717 -0.3463 -0.3467
vn 0.7358 -0.4311 -0.5222
vn 0.6259 0.1144 -0.7715
vn 0.4533 -0.0547 -0.8897
vn 0.4443 -0.1232 -0.8874
vn 0.9371 -0.0589 -0.3440
vn -0.2242 0.1235 -0.9667
vn -0.2324 -0.2138 -0.9488
vn 0.3015 -0.2980 -0.9057
vn 0.2373 0.1686 -0.9567
vn -0.0130 0.6919 -0.7218
vn -0.2786 0.1994 -0.9395
vn 0.3357 0.4789 -0.8112
vn 0.1947 0.6900 -0.6971
vn -0.2933 0.7950 -0.5309
vn 0.3282 0.8411 -0.4300
vn -0.3499 0.8460 -0.4024
vn 0.0921 0.9863 -0.1371
vn -0.4706 0.8257 -0.3111
vn -0.7502 0.5453 -0.3739
vn -0.6936 0.2432 -0.6780
vn -0.4622 0.2812 -0.8410
vn -0.9590 0.2691 -0.0887
vn -0.8452 0.0293 -0.5336
vn -0.9565 0.2723 -0.1042
vn -0.9937 -0.1108 0.0168
vn -0.9409 -0.3100 -0.1361
vn -0.8430 -0.1306 -0.5219
vn -0.5118 -0.4116 -0.7541
vn -0.8879 -0.4505 -0.0931
vn -0.3460 -0.8715 -0.3474
vn -0.4187 -0.8673 -0.2692
vn -0.3063 -0.3349 -0.8911
vn 0.0129 -0.6942 -0.7196
vn -0.1885 -0.9331 -0.3062
vn -0.5301 -0.7583 0.3795
vn -0.7086 -0.6036 0.3654
vn -0.3885 -0.8816 0.2682
vn -0.4946 0.8691 0.0008
vn -0.8170 0.5502 0.1728
vn -0.9148 0.3878 0.1132
vn -0.3432 0.9151 0.2117
vn -0.4323 0.7824 0.4483
vn -0.6038 0.6565 0.4521
vn 0.2618 -0.6200 -0.7397
vn 0.6366 0.3110 -0.7058
vn -0.1183 -0.4807 0.8689
vn 0.7938 0.1420 0.5914
vn 0.5137 -0.1484 0.8450
vn 0.3324 -0.0423 0.9422
vn -0.6924 0.2196 0.6873
vn -0.6235 0.6650 0.4111
vn -0.0322 0.8140 0.5799
vn -0.4531 0.0589 0.8895
vn -0.4531 0.0588 0.8895
vn 0.4190 0.2535 0.8719
vn 0.4189 0.2536 0.8719
vn 0.4190 0.2534 0.8719
vn 0.1923 0.5390 0.8201
vn 0.3238 0.8518 0.4118
vn -0.2409 0.9505 0.1965
vn -0.9941 0.0218 -0.1060
vn -0.8945 -0.2468 0.3727
vn -0.8945 -0.2468 0.3728
vn -0.2408 0.9505 0.1965
vn -0.2573 -0.6947 0.6717
vn -0.2982 -0.6395 0.7086
vn 0.4822 -0.6979 0.5295
vn 0.7238 -0.4226 0.5455
vn 0.9641 -0.1192 0.2372
vn 0.8848 0.4609 0.0680
vn 0.3191 0.9108 0.2621
vn -0.5841 0.3940 -0.7096
vn -0.4145 -0.6576 -0.6291
vn -0.1840 -0.6954 -0.6947
vn 0.1858 -0.4331 -0.8820
vn -0.4561 0.7299 -0.5091
vn 0.0173 0.6579 -0.7529
vn -0.5840 0.3939 -0.7097
vn -0.1883 0.8874 -0.4208
vn -0.1292 0.5998 -0.7897
vn -0.1291 0.5998 -0.7897
vn -0.1293 0.5998 -0.7896
vn 0.6117 -0.4228 -0.6686
vn -0.4770 0.8332 -0.2797
vn 0.4356 0.8218 -0.3673
vn 0.6655 -0.4163 -0.6195
vn 0.6869 0.3401 -0.6423
vn 0.6867 0.3401 -0.6424
vn 0.6868 0.3401 -0.6424
vn 0.5047 -0.3846 -0.7729
vn 0.6873 -0.3794 -0.6194
vn -0.2998 -0.1490 -0.9423
vn 0.9960 -0.0630 -0.0637
vn 0.6566 -0.7484 0.0937
vn -0.0258 -0.9349 -0.3539
vn 0.9561 0.0839 -0.2808
vn 0.9561 0.0837 -0.2808
vn 0.9561 0.0838 -0.2808
vn 0.6979 0.7088 0.1026
vn 0.4367 0.8072 -0.3971
vn 0.6039 0.7748 -0.1872
vn 0.6038 0.7748 -0.1871
vn 0.6039 0.7748 -0.1871
vn 0.3873 0.9079 0.1604
vn 0.3873 0.9079 0.1603
vn 0.1753 0.6454 -0.7435
vn -0.2201 0.9106 0.3497
vn 0.3872 0.9079 0.1605
vn -0.1538 0.7606 0.6308
vn -0.5858 0.6095 0.5342
vn -0.6996 0.5604 -0.4432
vn -0.6997 0.5604 -0.4431
vn -0.6996 0.5604 -0.4433
vn -0.7130 0.6440 -0.2774
vn -0.3330 0.2750 -0.9019
vn 0.1989 0.1358 -0.9706
vn -0.0187 -0.0565 -0.9982
vn -0.0188 -0.0564 -0.9982
vn 0.1110 -0.4638 -0.8789
vn -0.0186 -0.0563 -0.9982
vn 0.0714 -0.5509 -0.8315
vn 0.1959 -0.9140 -0.3553
vn -0.1281 -0.9901 -0.0575
vn -0.1282 -0.9901 -0.0576
vn -0.1283 -0.9901 -0.0575
vn -0.1283 -0.9901 -0.0574
vn -0.3089 -0.9466 0.0921
vn -0.5228 -0.8081 0.2715
vn -0.5227 -0.8081 0.2715
vn -0.2997 -0.7473 -0.5931
vn -0.5229 -0.8080 0.2715
vn -0.1147 -0.9855 -0.1249
vn 0.3413 -0.9004 0.2699
vn 0.4118 -0.4709 0.7802
vn 0.4500 -0.6615 0.5999
vn 0.0979 0.0505 0.9939
vn -0.1698 0.2066 0.9636
vn -0.9149 -0.3331 0.2281
vn -0.7967 -0.6042 0.0155
vn 0.6205 -0.4450 0.6458
vn 0.7950 -0.6030 -0.0661
vn 0.0036 -0.7618 -0.6477
vn -0.8873 -0.4607 0.0226
vn -0.9693 -0.2460 -0.0015
vn -0.9693 -0.2459 -0.0015
vn -0.9693 -0.2460 -0.0013
vn -0.8833 0.3589 -0.3016
vn 0.1294 -0.3458 -0.9293
vn 0.2792 0.9326 -0.2287
vn 0.2393 0.3071 0.9211
vn 0.0895 -0.9713 0.2204
vn 0.0618 -0.9978 0.0229
vn 0.7674 -0.5416 -0.3433
vn 0.9908 -0.0617 0.1209
vn 0.9908 -0.0616 0.1209
vn 0.9927 -0.1172 0.0267
vn 0.9928 -0.1172 0.0266
vn 0.9928 -0.1172 0.0267
vn 0.9927 -0.1172 0.0268
vn 0.9482 -0.0507 0.3135
vn 0.9907 -0.0615 0.1210
vn 0.6747 0.3682 -0.6397
vn 0.3756 0.9106 -0.1724
vn 0.3755 0.9106 -0.1723
vn 0.3756 0.9106 -0.1723
vn 0.0564 0.7802 0.6230
vn 0.7773 0.0015 0.6292
vn 0.7774 0.0014 0.6291
vn 0.7774 0.0015 0.6290
vn 0.7774 0.0014 0.6290
vn 0.9482 -0.0506 0.3136
vn 0.9482 -0.0507 0.3137
vn 0.3686 0.0145 0.9295
vn -0.1935 -0.2530 0.9479
vt 0.478163 0.015732
vt 0.515172 0.017875
vt 0.496975 0.050240
vt 0.528063 0.044860
vt 0.548454 0.027012
vt 0.570116 0.358041
vt 0.564009 0.382414
vt 0.532668 0.372744
vt 0.527641 0.346725
vt 0.501058 0.351050
vt 0.543384 0.314060
vt 0.560612 0.333728
vt 0.517221 0.302357
vt 0.598942 0.334038
vt 0.575929 0.299848
vt 0.577482 0.262518
vt 0.552582 0.288704
vt 0.618180 0.250368
vt 0.603294 0.282939
vt 0.638157 0.261383
vt 0.604743 0.216092
vt 0.584831 0.231711
vt 0.646130 0.221402
vt 0.559618 0.230986
vt 0.579413 0.188170
vt 0.549346 0.200723
vt 0.528252 0.228101
vt 0.526165 0.258002
vt 0.493475 0.251493
vt 0.496397 0.288482
vt 0.530641 0.272372
vt 0.484762 0.328533
vt 0.460427 0.248323
vt 0.468396 0.275343
vt 0.428589 0.263256
vt 0.436808 0.225991
vt 0.475658 0.221140
vt 0.469610 0.193671
vt 0.499384 0.213348
vt 0.506662 0.185910
vt 0.528319 0.195682
vt 0.555732 0.173508
vt 0.530576 0.153777
vt 0.526178 0.111606
vt 0.564975 0.147067
vt 0.504875 0.152363
vt 0.652725 0.174140
vt 0.631291 0.197592
vt 0.630288 0.160531
vt 0.569096 0.120629
vt 0.597082 0.181644
vt 0.670792 0.184012
vt 0.682973 0.218878
vt 0.547083 0.083577
vt 0.565778 0.060597
vt 0.565671 0.099780
vt 0.522542 0.074967
vt 0.491955 0.095104
vt 0.486927 0.132035
vt 0.473092 0.065881
vt 0.407253 0.185137
vt 0.407541 0.218463
vt 0.441686 0.178045
vt 0.477305 0.164563
vt 0.402920 0.267895
vt 0.675135 0.242066
vt 0.568731 0.036838
vt 0.670498 0.274963
vt 0.559282 0.004902
vt 0.576364 0.655799
vt 0.568483 0.632237
vt 0.597390 0.650760
vt 0.551905 0.654418
vt 0.564196 0.677205
vt 0.554351 0.695423
vt 0.565791 0.713625
vt 0.583917 0.700060
vt 0.578399 0.730407
vt 0.599235 0.714276
vt 0.606738 0.742428
vt 0.587652 0.749473
vt 0.561773 0.746426
vt 0.542274 0.724958
vt 0.539167 0.680452
vt 0.523087 0.663961
vt 0.527027 0.637644
vt 0.529808 0.626446
vt 0.544901 0.610880
vt 0.562285 0.602352
vt 0.579936 0.601825
vt 0.107634 0.814794
vt 0.132356 0.793417
vt 0.147340 0.820125
vt 0.154993 0.788917
vt 0.148847 0.767941
vt 0.115515 0.776325
vt 0.101282 0.796246
vt 0.124322 0.829621
vt 0.096763 0.761447
vt 0.084856 0.805265
vt 0.072954 0.781012
vt 0.116357 0.747954
vt 0.090023 0.755166
vt 0.071838 0.758390
vt 0.100787 0.731919
vt 0.100219 0.712462
vt 0.129750 0.717345
vt 0.143766 0.723726
vt 0.118124 0.698368
vt 0.139044 0.706448
vt 0.078734 0.724387
vt 0.071967 0.734868
vt 0.055588 0.767805
vt 0.063881 0.798684
vt 0.039743 0.785660
vt 0.019664 0.779688
vt 0.028512 0.813958
vt 0.050542 0.819018
vt 0.004492 0.798735
vt 0.004183 0.816716
vt 0.022335 0.839809
vt 0.041514 0.844455
vt 0.075701 0.820505
vt 0.175345 0.788012
vt 0.192515 0.783103
vt 0.175712 0.819687
vt 0.195691 0.814734
vt 0.214050 0.790391
vt 0.233520 0.804763
vt 0.226418 0.831372
vt 0.248007 0.828454
vt 0.271018 0.806646
vt 0.229702 0.777370
vt 0.255737 0.786658
vt 0.277837 0.833482
vt 0.289101 0.806275
vt 0.271888 0.787730
vt 0.303526 0.817675
vt 0.299054 0.837897
vt 0.277174 0.857099
vt 0.256245 0.845208
vt 0.268124 0.768331
vt 0.241306 0.759770
vt 0.194679 0.839619
vt 0.168174 0.840490
vt 0.396585 0.102679
vt 0.389591 0.111254
vt 0.381072 0.104306
vt 0.398111 0.118202
vt 0.382598 0.119830
vt 0.486779 0.342921
vt 0.477527 0.359157
vt 0.463004 0.346692
vt 0.503379 0.362929
vt 0.512562 0.380756
vt 0.528655 0.408692
vt 0.513879 0.426456
vt 0.503195 0.405521
vt 0.480230 0.385722
vt 0.534420 0.429288
vt 0.511927 0.445412
vt 0.532828 0.451696
vt 0.493336 0.429527
vt 0.484109 0.399798
vt 0.467882 0.376653
s 1
f 6/1/1 1/2/1 2/3/1
f 1/2/2 3/4/2 2/3/2
f 4/5/3 3/4/3 1/2/3
f 5/6/4 4/7/4 1/8/4
f 7/9/5 5/6/5 1/8/5
f 7/9/6 1/8/6 6/10/6
f 8/11/7 10/12/7 7/9/7
f 8/11/8 7/9/8 9/13/8
f 9/13/9 7/9/9 6/10/9
f 7/9/10 10/12/10 5/6/10
f 10/12/11 11/14/11 5/6/11
f 11/14/12 10/12/12 12/15/12
f 12/15/13 10/12/13 8/11/13
f 13/16/14 12/15/14 14/17/14
f 15/18/15 12/19/15 13/16/15
f 12/15/16 8/11/16 14/17/16
f 15/18/17 11/20/17 12/19/17
f 16/21/18 15/18/18 18/22/18
f 17/23/19 15/18/19 16/21/19
f 15/18/20 13/16/20 18/22/20
f 17/23/21 11/20/21 15/18/21
f 20/24/22 18/22/22 13/16/22
f 19/25/23 16/21/23 18/22/23
f 19/25/24 18/22/24 20/24/24
f 21/26/25 20/24/25 22/27/25
f 19/25/26 20/24/26 21/26/26
f 22/27/27 20/24/27 23/28/27
f 23/28/28 20/24/28 13/16/28
f 22/27/29 23/28/29 24/29/29
f 23/28/30 26/30/30 24/29/30
f 23/28/31 25/31/31 26/30/31
f 23/28/32 13/16/32 25/31/32
f 25/31/33 9/13/33 26/30/33
f 26/30/34 9/13/34 27/32/34
f 28/33/35 26/34/35 27/35/35
f 28/33/36 24/29/36 26/34/36
f 28/33/37 27/35/37 29/36/37
f 29/36/38 30/37/38 28/33/38
f 30/37/39 24/29/39 28/33/39
f 31/38/40 30/37/40 29/36/40
f 32/39/41 30/37/41 31/38/41
f 32/39/42 24/29/42 30/37/42
f 33/40/43 32/39/43 31/38/43
f 32/39/44 22/27/44 24/29/44
f 32/39/45 34/41/45 22/27/45
f 33/40/46 34/41/46 32/39/46
f 34/41/47 35/42/47 21/26/47
f 36/43/48 35/42/48 34/41/48
f 36/43/49 34/41/49 33/40/49
f 34/41/50 21/26/50 22/27/50
f 37/44/51 39/45/51 36/43/51
f 37/44/52 36/43/52 38/46/52
f 36/43/53 33/40/53 38/46/53
f 36/43/54 39/45/54 35/42/54
f 40/47/55 41/48/55 39/49/55
f 40/50/56 39/45/56 37/44/56
f 39/45/57 19/25/57 35/42/57
f 19/51/58 39/49/58 41/48/58
f 40/47/59 42/52/59 41/48/59
f 19/51/60 41/48/60 16/21/60
f 42/52/61 17/23/61 41/48/61
f 41/48/62 17/23/62 16/21/62
f 42/52/63 43/53/63 17/23/63
f 44/54/64 43/55/64 42/56/64
f 44/54/65 42/56/65 37/44/65
f 42/56/66 40/50/66 37/44/66
f 45/57/67 43/55/67 44/54/67
f 45/57/68 44/54/68 37/44/68
f 3/4/69 43/55/69 45/57/69
f 3/4/70 45/57/70 2/3/70
f 2/3/71 45/57/71 46/58/71
f 45/57/72 37/44/72 46/58/72
f 46/58/73 37/44/73 48/59/73
f 2/3/74 46/58/74 47/60/74
f 46/61/75 29/36/75 47/62/75
f 46/61/76 48/63/76 29/36/76
f 48/59/77 37/44/77 38/46/77
f 38/46/78 31/64/78 48/59/78
f 48/63/79 31/38/79 29/36/79
f 47/62/80 27/35/80 6/65/80
f 6/1/81 2/3/81 47/60/81
f 29/36/82 27/35/82 47/62/82
f 17/23/83 43/53/83 49/66/83
f 49/67/84 43/55/84 4/5/84
f 4/5/85 43/55/85 3/4/85
f 17/23/86 49/66/86 11/20/86
f 11/20/87 49/66/87 5/68/87
f 5/69/88 49/67/88 4/5/88
f 38/46/89 33/40/89 31/64/89
f 35/42/90 19/25/90 21/26/90
f 9/13/91 6/10/91 27/32/91
f 25/31/92 13/16/92 14/17/92
f 25/31/93 14/17/93 9/13/93
f 9/13/94 14/17/94 8/11/94
f 50/70/95 52/71/95 51/72/95
f 50/70/96 53/73/96 52/71/96
f 54/74/97 53/73/97 50/70/97
f 53/73/98 54/74/99 55/75/98
f 56/76/100 55/75/101 54/74/102
f 54/74/102 57/77/102 56/76/100
f 59/78/103 57/77/103 58/79/103
f 59/78/104 56/76/104 57/77/104
f 63/80/105 60/81/105 59/78/105
f 60/81/106 61/82/106 59/78/106
f 59/78/107 61/82/107 62/83/107
f 62/83/108 56/76/108 59/78/108
f 59/78/105 58/79/109 63/80/105
f 55/75/110 56/76/110 62/83/110
f 55/75/98 64/84/98 53/73/98
f 65/85/111 53/73/111 64/84/111
f 66/86/112 53/73/112 65/85/112
f 53/73/113 66/86/113 67/87/113
f 67/87/113 52/71/113 53/73/113
f 52/71/114 67/87/114 68/88/114
f 68/88/115 69/89/115 52/71/115
f 51/90/116 52/71/116 69/89/116
f 76/91/117 70/92/117 71/93/117
f 70/92/118 72/94/118 71/93/118
f 73/95/119 72/94/119 70/92/119
f 73/95/120 70/92/120 74/96/120
f 74/96/121 70/92/121 75/97/121
f 75/97/122 70/92/122 76/91/122
f 71/93/123 77/98/123 76/91/123
f 75/97/124 80/99/124 74/96/124
f 75/97/125 79/100/126 78/101/125
f 78/101/125 80/99/127 75/97/125
f 83/102/128 80/99/128 81/103/128
f 81/103/129 80/99/129 82/104/129
f 80/99/130 78/101/130 82/104/130
f 74/96/131 80/99/131 83/102/131
f 83/102/132 84/105/133 87/106/134
f 83/102/135 81/103/135 84/105/135
f 73/95/136 74/96/136 83/102/136
f 87/106/134 85/107/134 83/102/134
f 85/107/137 86/108/137 83/102/137
f 85/107/138 87/106/138 88/109/138
f 88/109/139 89/110/139 85/107/139
f 86/108/140 85/107/140 89/110/140
f 90/111/141 84/105/142 81/103/143
f 81/103/143 91/112/143 90/111/141
f 82/104/144 91/112/144 81/103/144
f 78/101/145 92/113/145 82/104/145
f 92/113/146 78/101/146 93/114/146
f 93/114/147 94/115/147 92/113/148
f 97/116/149 94/115/150 95/117/149
f 94/115/151 96/118/151 95/117/151
f 93/114/152 96/118/152 94/115/152
f 95/117/149 98/119/153 97/116/149
f 99/120/154 98/119/154 95/117/154
f 95/117/155 100/121/155 99/120/155
f 101/122/156 100/121/157 95/117/156
f 95/117/156 96/118/158 101/122/156
f 93/114/159 102/123/159 96/118/159
f 79/100/160 102/123/160 93/114/160
f 93/114/161 78/101/161 79/100/161
f 71/93/162 72/94/163 103/124/162
f 105/125/164 104/126/164 103/124/164
f 103/124/165 104/126/165 71/93/165
f 106/127/166 104/126/166 105/125/166
f 105/125/167 107/128/167 106/127/167
f 106/127/168 107/128/169 108/129/168
f 108/129/170 109/130/171 106/127/171
f 108/129/172 110/131/172 109/130/172
f 113/132/173 110/131/174 108/129/173
f 111/133/175 112/134/175 108/129/175
f 108/129/173 112/134/176 113/132/173
f 114/135/177 110/131/177 113/132/177
f 113/132/178 116/136/178 114/135/178
f 115/137/179 113/132/179 112/134/179
f 116/136/180 117/138/180 114/135/180
f 114/135/181 117/138/181 118/139/181
f 114/135/182 118/139/182 119/140/182
f 119/140/183 120/141/183 114/135/183
f 114/135/184 120/141/184 110/131/184
f 115/137/185 112/134/185 121/142/185
f 121/142/186 112/134/186 122/143/186
f 122/143/187 112/134/187 111/133/187
f 123/144/188 106/127/188 109/130/188
f 106/127/189 123/144/190 124/145/189
f 124/145/191 104/126/191 106/127/191
f 104/126/192 124/145/192 71/93/192
f 125/146/193 127/147/193 126/148/193
f 128/149/194 127/147/194 125/146/194
f 129/150/195 127/147/195 128/149/195
f 126/148/196 127/147/196 129/150/196
f 130/151/197 132/152/197 131/153/197
f 133/154/198 132/152/198 130/151/198
f 132/152/199 133/154/200 134/155/199
f 134/155/201 138/156/202 135/157/203
f 135/157/203 137/158/204 134/155/201
f 136/159/205 134/155/205 137/158/205
f 134/155/206 136/159/206 132/152/206
f 138/156/207 139/160/207 135/157/207
f 140/161/208 135/157/208 139/160/209
f 139/160/210 141/162/210 140/161/210
f 135/157/211 140/161/211 142/163/211
f 135/157/212 142/163/212 143/164/212
f 143/164/213 137/158/214 135/157/215
f 137/158/216 143/164/217 136/159/216
f 136/159/218 144/165/218 132/152/218
f 132/152/219 144/165/219 131/153/219
