# Blender 4.4.1
# www.blender.org
o Ice_Planet_2
v 4.759263 9.975870 0.193080
v 4.835372 9.886748 0.075163
v 4.713594 10.010790 0.075163
v 4.674927 10.124269 0.127948
v 4.803133 10.010283 0.277164
v 4.887288 9.899175 0.209508
v 5.014563 9.950718 0.278074
v 5.037685 9.899055 0.193080
v 5.205185 10.034010 0.175502
v 5.186184 9.983217 0.022377
v 5.041352 9.874231 0.075163
v 5.037685 9.899055 -0.042754
v 5.014563 9.950718 -0.127749
v 4.887288 9.899175 -0.059182
v 4.803133 10.010283 -0.126839
v 4.759263 9.975870 -0.042754
v 4.684063 10.176626 -0.022995
v 4.709394 10.319921 0.025528
v 4.727381 10.314396 0.022377
v 4.666077 10.182153 -0.019845
v 4.730750 10.174999 -0.107641
v 4.776657 10.266004 -0.115670
v 4.895905 10.346524 -0.126834
v 4.852741 10.225185 -0.182078
v 4.880346 10.044588 -0.181978
v 4.987372 10.094907 -0.205378
v 4.996390 10.292368 -0.167650
v 5.085451 10.160992 -0.181978
v 5.154494 10.209691 -0.126839
v 5.163850 10.056132 -0.108490
v 5.232363 10.074331 0.027634
v 5.206533 10.229710 -0.042754
v 5.231358 10.233377 0.075163
v 5.206533 10.229710 0.193080
v 5.122371 10.378208 0.022377
v 5.071579 10.397209 0.175502
v 5.154494 10.209691 0.277164
v 4.944556 10.277293 0.332404
v 5.085451 10.160992 0.332303
v 5.049457 10.355875 0.258816
v 5.163850 10.056132 0.258816
v 4.895905 10.346524 0.277160
v 4.875879 10.398558 0.193080
v 4.761087 10.294618 0.234591
v 4.813221 10.188415 0.317975
v 4.730749 10.174999 0.257966
v 4.880346 10.044588 0.332303
v 4.987372 10.094907 0.355703
v 4.656940 10.129796 0.131098
v 4.712763 10.180526 0.261117
v 4.743101 10.300144 0.237742
v 4.661045 10.140818 0.130552
v 4.710323 10.185599 0.245327
v 4.737104 10.291195 0.224692
v 4.675585 10.136351 0.128005
v 4.724864 10.181132 0.242780
v 4.751645 10.286727 0.222146
v 4.711526 10.218193 0.124500
v 4.683650 10.182569 -0.005243
v 4.721890 10.304186 0.034811
v 4.707349 10.308654 0.037357
v 4.669110 10.187037 -0.002696
v 4.872212 10.423382 0.075163
v 5.031257 10.424388 0.027634
v 4.875879 10.398558 -0.042754
v 5.049457 10.355875 -0.108490
v 5.165537 10.216987 -0.135744
v 5.060499 10.363171 -0.117395
v 5.079780 10.349277 -0.103897
v 5.165229 10.230354 -0.118824
v 5.133413 10.385504 0.013472
v 5.242400 10.240672 0.066257
v 5.138906 10.368047 0.002929
v 5.219105 10.252184 0.035958
v 5.126488 10.359519 0.010479
v 5.067172 10.341351 -0.095984
v 5.152621 10.222428 -0.110911
v 5.151277 10.280742 -0.037101
v 5.184858 10.234382 -0.041669
v 5.215150 10.241697 0.053420
v 5.207563 10.246640 -0.050420
v 5.217577 10.237005 -0.051660
v 4.954021 9.914500 0.197119
v 4.919641 9.938781 0.236106
v 4.956457 9.808038 0.312515
v 4.995807 9.934774 0.230802
v 4.961426 9.959055 0.269790
v 5.025867 10.405332 0.077500
v 5.068665 10.396359 0.127083
v 5.017125 10.589548 0.167387
v 4.980649 10.393556 0.124269
v 5.023447 10.384583 0.173853
v 4.769819 10.041627 0.215509
v 4.740285 10.110614 0.219632
v 4.621526 10.013041 0.393243
v 4.812423 10.065623 0.272584
v 4.782889 10.134610 0.276707
v 4.992970 10.390454 0.022406
v 5.027390 10.403695 0.066356
v 4.960459 10.542596 0.043677
v 4.952598 10.388167 0.063107
v 4.987020 10.401408 0.107057
v 4.875030 10.136312 -0.169766
v 4.872875 10.193517 -0.174153
v 4.752451 10.146501 -0.317260
v 4.826330 10.131390 -0.139762
v 4.824175 10.188593 -0.144149
vn -0.5198 -0.8086 0.2757
vn -0.7119 -0.6989 0.0687
vn -0.8863 -0.4058 0.2231
vn -0.8233 -0.2790 0.4943
vn -0.4835 -0.6923 0.5356
vn 0.0572 -0.8461 0.5299
vn -0.1833 -0.6394 0.7467
vn -0.1833 -0.6393 0.7468
vn -0.0281 -0.9881 0.1513
vn 0.5588 -0.6593 0.5030
vn 0.6300 -0.7566 0.1750
vn 0.6303 -0.7563 0.1754
vn 0.6303 -0.7563 0.1755
vn 0.6302 -0.7563 0.1754
vn 0.5456 -0.8165 -0.1889
vn -0.0281 -0.9881 -0.1513
vn 0.5616 -0.6599 -0.4991
vn 0.0572 -0.8461 -0.5299
vn -0.1833 -0.6393 -0.7468
vn -0.1833 -0.6394 -0.7467
vn -0.4835 -0.6924 -0.5356
vn -0.5198 -0.8086 -0.2757
vn -0.9339 -0.2901 -0.2092
vn -0.9339 -0.2900 -0.2093
vn -0.7119 -0.6989 -0.0687
vn -0.8224 -0.2793 -0.4956
vn -0.3294 -0.8857 -0.3272
vn -0.3295 -0.8857 -0.3272
vn -0.0635 0.3301 -0.9418
vn -0.0636 0.3302 -0.9418
vn -0.8116 0.3879 -0.4369
vn -0.5723 0.2190 -0.7903
vn -0.5547 0.6794 -0.4802
vn -0.5547 0.6795 -0.4802
vn -0.4058 0.4943 -0.7687
vn -0.5120 -0.1011 -0.8530
vn -0.1995 -0.0310 -0.9794
vn 0.0515 0.1852 -0.9814
vn 0.0515 0.1852 -0.9813
vn -0.1197 0.4463 -0.8868
vn 0.3903 -0.3511 -0.8511
vn 0.3902 -0.3511 -0.8512
vn 0.3902 -0.3511 -0.8511
vn 0.4150 0.3871 -0.8234
vn 0.6452 -0.0518 -0.7622
vn 0.8792 -0.0363 -0.4750
vn 0.8379 -0.4034 -0.3678
vn 0.9758 0.0682 -0.2076
vn 0.8903 -0.4536 0.0400
vn 0.9819 -0.0351 0.1863
vn 0.7563 0.6303 0.1755
vn 0.7563 0.6302 0.1754
vn 0.7566 0.6300 0.1750
vn 0.7564 0.6302 0.1754
vn 0.6600 0.5621 0.4984
vn 0.8728 -0.0301 0.4872
vn 0.3491 0.3864 0.8537
vn 0.6452 -0.0518 0.7622
vn 0.3902 -0.3511 0.8512
vn 0.0518 0.6449 0.7625
vn 0.0301 0.8728 0.4872
vn -0.3963 0.4182 0.8174
vn -0.4455 0.7099 0.5455
vn -0.3963 0.4182 0.8173
vn -0.1854 0.0507 0.9814
vn -0.5930 0.2967 0.7486
vn -0.5462 -0.1576 0.8227
vn 0.0279 -0.4698 0.8823
vn 0.1290 0.1554 0.9794
vn -0.1960 -0.8821 0.4283
vn -0.1961 -0.8821 0.4283
vn 0.2112 0.1356 0.9680
vn -0.9028 0.3487 0.2516
vn -0.9304 0.2818 0.2343
vn 0.1960 0.8821 -0.4283
vn -0.2112 -0.1356 -0.9680
vn -0.9304 0.2818 0.2344
vn -0.8884 0.3998 0.2255
vn -0.9415 0.2765 0.1928
vn -0.9110 0.4037 0.0849
vn -0.9382 0.2974 0.1767
vn -0.9571 0.2564 0.1352
vn -0.3000 -0.9530 -0.0412
vn 0.0635 -0.3301 0.9418
vn -0.9341 0.3510 0.0652
vn -0.9341 0.3511 0.0653
vn -0.9582 0.2709 0.0923
vn 0.3295 0.8857 0.3272
vn 0.3294 0.8857 0.3271
vn -0.9340 0.3511 0.0653
vn -0.9179 0.3543 0.1788
vn 0.2999 0.9531 0.0412
vn 0.3000 0.9530 0.0412
vn 0.3001 0.9530 0.0412
vn -0.6288 0.7580 0.1734
vn -0.6290 0.7578 0.1736
vn 0.0351 0.9819 0.1863
vn -0.0682 0.9758 -0.2076
vn 0.0363 0.8792 -0.4750
vn 0.4034 0.8379 -0.3678
vn 0.4536 0.8903 0.0400
vn -0.4994 -0.2549 -0.8281
vn -0.4994 -0.2549 -0.8280
vn 0.0497 0.6583 -0.7512
vn -0.4791 0.8697 0.1185
vn 0.7064 0.5616 -0.4309
vn 0.7087 0.5146 -0.4827
vn 0.7087 0.5145 -0.4827
vn 0.3021 0.5188 0.7997
vn 0.3022 0.5189 0.7997
vn 0.7966 0.4426 -0.4117
vn 0.7966 0.4426 -0.4118
vn -0.4428 -0.5501 -0.7081
vn -0.4429 -0.5501 -0.7080
vn 0.4909 -0.8625 -0.1231
vn 0.4908 -0.8625 -0.1232
vn 0.4909 -0.8625 -0.1232
vn 0.4290 0.1976 0.8814
vn 0.7111 0.5579 -0.4278
vn 0.7064 0.5616 -0.4308
vn 0.7110 0.5580 -0.4279
vn 0.7116 0.5576 -0.4275
vn 0.7620 0.5803 -0.2874
vn 0.8033 0.4721 -0.3632
vn -0.5991 0.7965 0.0817
vn -0.5994 0.7963 0.0817
vn -0.4429 -0.5502 -0.7079
vn -0.4686 0.8804 0.0733
vn 0.5651 0.6523 -0.5051
vn 0.5652 0.6523 -0.5051
vn 0.6173 0.7733 -0.1447
vn 0.4920 -0.8650 -0.0985
vn 0.4920 -0.8650 -0.0986
vn 0.5041 -0.8600 -0.0794
vn -0.5456 0.8165 -0.1889
vn 0.0279 -0.4698 -0.8823
vn -0.7882 -0.4605 -0.4082
vn 0.6717 -0.5373 -0.5099
vn 0.7851 0.1446 0.6023
vn -0.6749 0.2214 0.7039
vn 0.7449 0.3208 -0.5850
vn -0.7250 0.2740 -0.6320
vn -0.7573 -0.0028 0.6531
vn 0.7127 0.0441 0.7001
vn -0.7178 -0.2689 -0.6422
vn 0.3419 -0.9299 0.1357
vn 0.4952 0.1610 0.8537
vn -0.5645 0.8219 0.0758
vn 0.7261 0.2450 -0.6425
vn -0.7075 -0.0527 -0.7047
vn -0.7986 0.1150 0.5908
vn 0.6350 0.4126 0.6531
vn 0.7682 -0.0201 -0.6399
vn 0.0385 -0.9942 -0.1006
vn -0.9234 -0.0054 0.3839
vn -0.1936 0.9687 -0.1553
vt 0.417801 0.795740
vt 0.431882 0.802326
vt 0.416266 0.810224
vt 0.431753 0.818226
vt 0.447073 0.816143
vt 0.431514 0.789558
vt 0.403072 0.790399
vt 0.408959 0.782601
vt 0.383790 0.779643
vt 0.379076 0.795860
vt 0.397834 0.800576
vt 0.391628 0.810180
vt 0.387887 0.819137
vt 0.404220 0.819294
vt 0.407149 0.833270
vt 0.417639 0.826850
vt 0.433484 0.843624
vt 0.592178 0.111655
vt 0.592714 0.109463
vt 0.605639 0.129534
vt 0.574338 0.119741
vt 0.572247 0.118703
vt 0.894713 0.524794
vt 0.884071 0.540194
vt 0.876212 0.522956
vt 0.417441 0.851127
vt 0.886199 0.516608
vt 0.867702 0.512670
vt 0.860025 0.527036
vt 0.388840 0.854587
vt 0.394720 0.836054
vt 0.379592 0.832946
vt 0.365853 0.825294
vt 0.361527 0.845189
vt 0.848466 0.519124
vt 0.354721 0.815449
vt 0.369337 0.809422
vt 0.370279 0.789887
vt 0.351402 0.795100
vt 0.360674 0.771247
vt 0.376037 0.762623
vt 0.355626 0.744987
vt 0.378855 0.736561
vt 0.389607 0.759704
vt 0.393739 0.738979
vt 0.419847 0.747895
vt 0.402561 0.761221
vt 0.392208 0.773036
vt 0.849853 0.577450
vt 0.868489 0.574698
vt 0.867049 0.586157
vt 0.844044 0.566911
vt 0.886901 0.585376
vt 0.867060 0.563780
vt 0.885463 0.567824
vt 0.441876 0.769698
vt 0.426078 0.778492
vt 0.896604 0.577732
vt 0.450898 0.787692
vt 0.415802 0.767714
vt 0.596232 0.150350
vt 0.595218 0.148345
vt 0.603372 0.129731
vt 0.577065 0.148167
vt 0.601907 0.129876
vt 0.594647 0.146322
vt 0.578672 0.146570
vt 0.600078 0.130022
vt 0.593745 0.144803
vt 0.579758 0.144727
vt 0.589111 0.131107
vt 0.581106 0.143569
vt 0.591443 0.115572
vt 0.577464 0.121741
vt 0.575885 0.121003
vt 0.591942 0.113916
vt 0.846207 0.548210
vt 0.864747 0.550731
vt 0.862656 0.537789
vt 0.841679 0.530280
vt 0.834430 0.548356
vt 0.072698 0.019513
vt 0.073484 0.017722
vt 0.087843 0.038835
vt 0.348299 0.842097
vt 0.085958 0.038375
vt 0.069545 0.052138
vt 0.071577 0.021899
vt 0.082564 0.037611
vt 0.069798 0.050200
vt 0.047880 0.038189
vt 0.049848 0.037474
vt 0.069385 0.047616
vt 0.054588 0.036318
vt 0.069357 0.045663
vt 0.080603 0.037528
vt 0.070982 0.023802
vt 0.067341 0.033796
vt 0.062590 0.028258
vt 0.055647 0.036123
vt 0.060390 0.025978
vt 0.059178 0.024802
vt 0.057557 0.023758
vt 0.468466 0.182375
vt 0.483194 0.171279
vt 0.473529 0.186820
vt 0.486492 0.189281
vt 0.492832 0.186999
vt 0.479755 0.189395
vt 0.779809 0.046123
vt 0.797616 0.029894
vt 0.785982 0.050832
vt 0.801004 0.053606
vt 0.808452 0.051413
vt 0.793240 0.053587
vt 0.856279 0.037601
vt 0.876522 0.019151
vt 0.863297 0.042953
vt 0.880374 0.046107
vt 0.888841 0.043614
vt 0.871548 0.046085
vt 0.594095 0.106759
vt 0.608823 0.095662
vt 0.599159 0.111204
vt 0.612121 0.113664
vt 0.618461 0.111383
vt 0.605385 0.113779
vt 0.468466 0.283517
vt 0.484427 0.267583
vt 0.473832 0.287600
vt 0.486958 0.290088
vt 0.493446 0.288254
vt 0.480225 0.289741
s 1
f 6/1/1 1/2/1 2/3/1
f 1/2/2 3/4/2 2/3/2
f 4/5/3 3/4/3 1/2/3
f 4/5/4 1/2/4 5/6/4
f 6/1/5 5/6/5 1/2/5
f 8/7/6 7/8/6 6/1/6
f 5/6/7 6/1/8 7/8/8
f 8/7/9 6/1/9 2/3/9
f 7/8/10 8/7/10 9/9/10
f 10/10/11 9/9/12 8/7/13
f 8/7/13 11/11/14 10/10/11
f 2/3/9 11/11/9 8/7/9
f 10/10/15 11/11/15 12/12/15
f 12/12/16 11/11/16 2/3/16
f 10/10/17 12/12/17 13/13/17
f 2/3/16 14/14/16 12/12/16
f 14/14/18 13/13/18 12/12/18
f 13/13/19 14/14/19 15/15/20
f 16/16/21 15/15/21 14/14/21
f 2/3/22 16/16/22 14/14/22
f 16/16/23 3/4/24 4/5/23
f 3/4/25 16/16/25 2/3/25
f 4/5/23 17/17/23 16/16/23
f 15/15/26 16/16/26 17/17/26
f 20/18/27 17/19/27 4/20/28
f 17/19/29 20/18/29 18/21/30
f 18/21/30 19/22/30 17/19/29
f 17/23/31 19/24/31 22/25/31
f 17/17/26 21/26/26 15/15/26
f 22/25/31 21/27/31 17/23/31
f 21/27/32 22/25/32 24/28/32
f 23/29/33 22/25/33 19/24/34
f 22/25/35 23/29/35 24/28/35
f 24/30/36 25/31/36 15/15/36
f 24/30/37 26/32/37 25/31/37
f 28/33/38 26/32/39 24/30/38
f 24/30/38 27/34/38 28/33/38
f 24/28/40 23/29/40 27/35/40
f 15/15/36 21/26/36 24/30/36
f 13/13/41 26/32/42 28/33/43
f 29/36/44 28/33/44 27/34/44
f 28/33/45 29/36/45 30/37/45
f 28/33/43 30/37/42 13/13/41
f 13/13/17 30/37/17 10/10/17
f 31/38/46 30/37/46 29/36/46
f 30/37/47 31/38/47 10/10/47
f 31/38/48 32/39/48 33/40/48
f 29/36/46 32/39/46 31/38/46
f 10/10/49 31/38/49 9/9/49
f 34/41/50 9/9/50 31/38/50
f 31/38/50 33/40/50 34/41/50
f 34/41/51 33/40/52 35/42/53
f 35/42/53 36/43/54 34/41/51
f 37/44/55 34/41/55 36/43/55
f 9/9/56 34/41/56 37/44/56
f 37/44/57 40/45/57 38/46/57
f 38/46/57 39/47/57 37/44/57
f 41/48/58 37/44/58 39/47/58
f 36/43/55 40/45/55 37/44/55
f 37/44/56 41/48/56 9/9/56
f 7/8/59 41/48/59 39/47/59
f 9/9/10 41/48/10 7/8/10
f 40/49/60 42/50/60 38/51/60
f 42/50/61 40/49/61 36/52/61
f 45/53/62 38/51/62 42/50/62
f 36/52/61 43/54/61 42/50/61
f 43/54/63 44/55/63 42/50/63
f 42/50/62 44/55/64 45/53/62
f 38/46/65 45/56/65 47/57/65
f 45/53/66 44/55/66 46/58/66
f 45/56/67 46/59/67 5/6/67
f 5/6/67 47/57/67 45/56/67
f 47/57/65 48/60/65 38/46/65
f 48/60/68 47/57/68 7/8/68
f 7/8/8 47/57/8 5/6/7
f 38/46/69 48/60/69 39/47/69
f 39/47/59 48/60/59 7/8/59
f 46/61/70 50/62/70 49/63/70
f 49/63/70 4/20/71 46/61/70
f 50/62/72 46/61/72 44/64/72
f 5/6/4 46/59/4 4/5/4
f 52/65/73 49/63/73 50/62/73
f 53/66/74 50/62/74 51/67/74
f 44/64/72 51/67/72 50/62/72
f 50/62/73 53/66/73 52/65/73
f 55/68/75 52/65/75 53/66/75
f 56/69/76 53/66/76 54/70/76
f 51/67/74 54/70/77 53/66/74
f 53/66/75 56/69/75 55/68/75
f 55/68/78 56/69/78 58/71/78
f 56/69/79 57/72/79 58/71/79
f 54/70/76 57/72/76 56/69/76
f 59/73/80 55/68/80 58/71/80
f 57/72/81 60/74/81 58/71/81
f 60/74/82 59/73/82 58/71/82
f 61/75/83 60/74/83 57/72/83
f 60/74/84 61/75/84 62/76/84
f 62/76/84 59/73/84 60/74/84
f 62/76/85 20/18/85 49/63/86
f 20/18/87 62/76/87 61/75/87
f 59/73/88 62/76/88 52/65/89
f 49/63/86 52/65/90 62/76/85
f 61/75/87 18/21/87 20/18/87
f 18/21/91 61/75/91 54/70/91
f 57/72/83 54/70/83 61/75/83
f 52/65/89 55/68/89 59/73/88
f 54/70/91 51/67/91 18/21/91
f 19/22/92 18/21/92 51/67/93
f 51/67/93 44/64/94 19/22/92
f 4/20/28 49/63/28 20/18/27
f 19/24/95 44/55/96 43/54/96
f 64/77/97 63/78/97 43/54/97
f 43/54/96 63/78/96 19/24/95
f 43/54/97 36/52/97 64/77/97
f 64/77/98 65/79/98 63/78/98
f 23/29/99 65/79/99 64/77/99
f 64/77/99 66/80/99 23/29/99
f 66/80/100 64/77/100 35/81/100
f 35/81/101 64/77/101 36/52/101
f 67/82/102 29/83/102 66/84/103
f 27/34/44 66/85/44 29/36/44
f 27/35/104 23/29/104 66/80/104
f 66/84/103 68/86/103 67/82/102
f 68/86/105 66/84/105 35/87/105
f 70/88/106 67/82/106 68/86/106
f 68/86/106 69/89/106 70/88/106
f 69/89/107 68/86/107 71/90/108
f 35/87/105 71/90/105 68/86/105
f 71/90/109 35/87/109 33/91/110
f 33/91/110 72/92/110 71/90/109
f 73/93/111 71/90/111 72/92/111
f 71/90/108 73/93/108 69/89/107
f 72/92/111 74/94/112 73/93/111
f 75/95/113 73/93/113 74/94/114
f 76/96/115 69/89/115 73/93/116
f 73/93/116 75/95/117 76/96/115
f 69/89/118 76/96/118 77/97/118
f 77/97/119 76/96/120 78/98/121
f 76/96/108 75/95/108 78/98/108
f 79/99/122 77/97/119 78/98/121
f 80/100/123 79/99/123 78/98/123
f 75/95/124 80/100/124 78/98/124
f 81/101/125 79/99/125 80/100/126
f 80/100/126 74/94/126 81/101/125
f 74/94/114 80/100/127 75/95/113
f 79/99/128 81/101/128 70/88/128
f 67/82/129 70/88/130 81/101/129
f 81/101/129 82/102/129 67/82/129
f 82/102/131 81/101/131 74/94/131
f 82/102/132 32/103/132 29/83/133
f 32/103/134 82/102/134 72/92/134
f 29/83/133 67/82/133 82/102/132
f 74/94/131 72/92/131 82/102/131
f 70/88/128 77/97/128 79/99/128
f 77/97/118 70/88/118 69/89/118
f 72/92/134 33/91/134 32/103/134
f 19/24/135 63/78/135 65/79/135
f 19/24/34 65/79/33 23/29/33
f 13/13/136 25/31/136 26/32/136
f 15/15/20 25/31/19 13/13/19
f 83/104/137 85/105/137 84/106/137
f 86/107/138 85/105/138 83/108/138
f 87/109/139 85/105/139 86/107/139
f 84/106/140 85/105/140 87/109/140
f 88/110/141 90/111/141 89/112/141
f 91/113/142 90/111/142 88/114/142
f 92/115/143 90/111/143 91/113/143
f 89/112/144 90/111/144 92/115/144
f 93/116/145 95/117/145 94/118/145
f 96/119/146 95/117/146 93/120/146
f 97/121/147 95/117/147 96/119/147
f 94/118/148 95/117/148 97/121/148
f 98/122/149 100/123/149 99/124/149
f 101/125/150 100/123/150 98/126/150
f 102/127/151 100/123/151 101/125/151
f 99/124/152 100/123/152 102/127/152
f 103/128/153 105/129/153 104/130/153
f 106/131/154 105/129/154 103/132/154
f 107/133/155 105/129/155 106/131/155
f 104/130/156 105/129/156 107/133/156
