# Blender 4.4.1
# www.blender.org
o Ring_Planet_3
v -0.067585 0.116902 -0.331932
v -0.059005 0.100340 -0.281180
v -0.187552 0.262343 -0.143531
v -0.003621 -0.153577 -0.335692
v 0.206643 -0.059177 -0.298245
v -0.202301 0.023581 -0.299436
v 0.072068 0.221277 -0.248550
v 0.050529 0.182202 -0.215781
v -0.153098 0.214413 -0.133412
v 0.038146 0.330075 -0.073496
v 0.233447 0.201480 -0.135243
v 0.185519 -0.047966 -0.241556
v 0.206541 0.156474 -0.113710
v 0.347573 0.047483 -0.086616
v 0.183164 0.275718 0.084116
v 0.062132 0.133040 0.307278
v -0.068321 0.266239 0.201096
v 0.005406 0.335396 0.065559
v 0.317654 0.027614 0.161508
v 0.262530 0.028965 0.136347
v 0.157045 0.223559 0.075647
v 0.062116 0.111652 0.250678
v 0.199116 -0.065967 0.291120
v 0.294946 -0.171059 0.041718
v 0.128332 -0.236308 0.245148
v 0.127854 -0.351336 0.027870
v 0.254264 -0.209920 -0.134007
v 0.213536 -0.185328 -0.108803
v 0.245445 -0.154847 0.029023
v 0.114389 -0.296243 0.018161
v 0.109011 -0.275599 -0.219196
v -0.050830 -0.381210 -0.001610
v -0.124679 -0.282406 -0.192293
v -0.251958 -0.150221 -0.209194
v -0.232038 -0.297791 -0.029026
v -0.080611 -0.280331 0.229440
v -0.277841 -0.152569 0.189597
v -0.350363 -0.103035 0.028410
v -0.340830 0.032518 -0.116277
v -0.316000 0.088095 0.122133
v -0.238161 0.225287 0.079724
v -0.290576 0.027393 -0.083969
v -0.271101 0.070984 0.103022
v -0.185251 0.086515 0.290896
v -0.005991 -0.055254 0.351372
v -0.157885 0.068346 0.246902
v -0.017287 -0.042846 0.294335
v -0.230505 -0.119173 0.167451
v -0.210050 0.178587 0.069760
v 0.296052 0.035691 -0.075570
v 0.370023 -0.061067 -0.231354
v 0.280866 0.053230 -0.497028
v 0.549783 -0.122901 -0.178975
v 0.066596 0.124419 -0.552249
v 0.105412 0.065259 -0.409645
v 0.563487 -0.201029 0.035436
v 0.410805 -0.180688 0.083182
v 0.203865 -0.223532 0.349713
v 0.489568 -0.256106 0.244641
v 0.339278 -0.279748 0.416789
v 0.135495 -0.268356 0.525672
v -0.090754 -0.223663 0.554714
v -0.129570 -0.164503 0.412108
v -0.394181 -0.038177 0.233817
v -0.587646 0.101785 -0.032971
v -0.434962 0.081445 -0.080719
v -0.573940 0.023657 0.181440
v -0.305023 -0.152474 0.499493
v -0.474697 -0.065627 0.368417
v -0.513726 0.156862 -0.242176
v -0.228024 0.124289 -0.347249
v -0.159652 0.169112 -0.523207
v -0.363435 0.180505 -0.414324
v 0.450538 -0.033617 -0.365952
vn -0.6834 0.6521 0.3283
vn 0.8050 0.5906 0.0567
vn 0.8050 0.5906 0.0566
vn -0.5108 0.4919 -0.7050
vn -0.2106 -0.0362 -0.9769
vn 0.1533 0.0500 -0.9869
vn 0.3079 0.3073 -0.9004
vn -0.3950 -0.4527 -0.7994
vn -0.1522 0.7331 -0.6628
vn 0.5595 0.3973 -0.7274
vn 0.3993 0.8114 -0.4269
vn -0.0849 0.8388 -0.5378
vn 0.8613 -0.3301 0.3862
vn 0.8613 -0.3301 0.3863
vn -0.1119 -0.3737 -0.9208
vn 0.5035 0.8469 -0.1712
vn 0.8057 0.5921 -0.0157
vn 0.8687 -0.4634 0.1749
vn 0.2585 0.7442 0.6160
vn 0.2181 0.8161 0.5351
vn 0.3145 0.9485 0.0378
vn 0.8507 0.5058 0.1431
vn -0.4133 0.0594 0.9087
vn 0.5752 0.5110 0.6387
vn 0.1812 0.9199 -0.3476
vn 0.1812 0.9199 -0.3477
vn 0.5666 0.3287 0.7556
vn 0.8029 -0.3724 0.4654
vn 0.9791 -0.1747 0.1041
vn 0.7578 -0.4439 0.4782
vn 0.6754 -0.6524 0.3439
vn 0.9382 -0.3128 -0.1480
vn 0.2096 -0.1198 -0.9704
vn 0.2097 -0.1198 -0.9704
vn -0.3629 -0.8886 0.2805
vn -0.3630 -0.8886 0.2805
vn 0.7340 -0.6788 -0.0198
vn 0.6219 0.2808 0.7310
vn 0.5951 -0.4987 -0.6302
vn 0.8595 -0.2273 -0.4578
vn 0.5288 -0.7993 -0.2854
vn 0.3507 -0.4568 -0.8175
vn 0.2054 -0.9312 -0.3011
vn -0.0261 -0.8917 -0.4519
vn -0.0590 -0.7173 -0.6943
vn -0.6089 -0.6453 -0.4612
vn -0.4018 -0.4862 -0.7760
vn -0.3565 -0.8788 -0.3173
vn -0.4358 -0.8441 0.3124
vn -0.5561 -0.7413 0.3759
vn -0.8114 -0.5507 0.1958
vn -0.8565 -0.4416 -0.2670
vn -0.9058 -0.2778 -0.3200
vn -0.9872 0.1435 0.0694
vn -0.9152 -0.0325 0.4018
vn 0.2527 0.9361 -0.2445
vn -0.4074 -0.0507 -0.9118
vn -0.6642 0.5375 0.5196
vn -0.7895 0.0464 0.6121
vn -0.5461 0.6308 0.5513
vn -0.1534 0.5197 0.8404
vn -0.1133 0.2652 0.9575
vn -0.6087 -0.7917 -0.0517
vn 0.6298 -0.4969 0.5970
vn -0.4650 0.8415 0.2751
vn -0.4489 -0.1956 0.8719
vn 0.2856 0.1194 0.9509
vn 0.2476 -0.3470 0.9046
vn 0.0366 -0.4854 0.8735
vn -0.3903 -0.3351 0.8575
vn -0.8726 0.4880 -0.0229
vn -0.5123 -0.4627 0.7235
vn -0.4084 0.9109 0.0586
vn -0.8333 0.5440 -0.0986
vn -0.3879 0.8892 0.2427
vn -0.7171 0.4116 -0.5625
vn -0.7968 -0.0831 -0.5986
vn 0.1494 -0.8740 0.4624
vn 0.0847 -0.9091 0.4078
vn -0.4343 -0.3143 -0.8442
vn -0.2582 0.9612 -0.0976
vn -0.2712 0.9200 -0.2830
vn -0.2713 0.9200 -0.2830
vn 0.7047 0.3227 -0.6319
vn 0.2230 0.9204 0.3211
vt 0.322623 0.740714
vt 0.328158 0.744607
vt 0.321428 0.760008
vt 0.341646 0.741304
vt 0.336122 0.737899
vt 0.363851 0.720074
vt 0.328653 0.719653
vt 0.296620 0.721759
vt 0.282371 0.744493
vt 0.315515 0.763695
vt 0.346307 0.764544
vt 0.348963 0.771062
vt 0.363356 0.727373
vt 0.296369 0.778853
vt 0.324417 0.786808
vt 0.278651 0.750667
vt 0.289891 0.775806
vt 0.272749 0.784828
vt 0.306738 0.805713
vt 0.275219 0.569659
vt 0.276275 0.561682
vt 0.291114 0.594789
vt 0.308556 0.576559
vt 0.299110 0.557388
vt 0.329011 0.803082
vt 0.235670 0.566563
vt 0.252871 0.591395
vt 0.260088 0.588251
vt 0.284968 0.589933
vt 0.267627 0.611722
vt 0.210845 0.674332
vt 0.233099 0.699022
vt 0.206283 0.698968
vt 0.221679 0.727897
vt 0.233493 0.667118
vt 0.258899 0.683844
vt 0.252038 0.713315
vt 0.239785 0.699303
vt 0.249489 0.707552
vt 0.254587 0.689798
vt 0.273628 0.712910
vt 0.255114 0.739440
vt 0.279261 0.675988
vt 0.296246 0.696877
vt 0.303483 0.676835
vt 0.317445 0.698890
vt 0.289425 0.647714
vt 0.318308 0.649525
vt 0.330370 0.670653
vt 0.342055 0.694424
vt 0.340888 0.669277
vt 0.364915 0.675689
vt 0.353937 0.649404
vt 0.349563 0.691827
vt 0.363637 0.681599
vt 0.375591 0.694787
vt 0.386611 0.663796
vt 0.399985 0.692309
vt 0.319207 0.604838
vt 0.293203 0.617830
vt 0.300650 0.619270
vt 0.319944 0.612235
vt 0.386105 0.657003
vt 0.320119 0.642097
vt 0.360596 0.645829
vt 0.267898 0.635266
vt 0.370143 0.691028
vt 0.399989 0.713971
vt 0.259125 0.665170
vt 0.392025 0.729789
vt 0.222632 0.734466
vt 0.273004 0.777952
vt 0.248744 0.743447
vt 0.247565 0.199806
vt 0.240675 0.234673
vt 0.216014 0.246377
vt 0.268170 0.189239
vt 0.266818 0.162426
vt 0.218640 0.227867
vt 0.248036 0.160001
vt 0.219777 0.131769
vt 0.255141 0.138251
vt 0.234915 0.120396
vt 0.209220 0.111577
vt 0.179342 0.131649
vt 0.181968 0.113139
vt 0.150417 0.159710
vt 0.149946 0.199515
vt 0.131164 0.197090
vt 0.129812 0.170276
vt 0.157307 0.124842
vt 0.138993 0.144907
vt 0.142841 0.221264
vt 0.178205 0.227747
vt 0.188762 0.247938
vt 0.163067 0.239120
vt 0.258989 0.214609
s 1
f 1/1/1 2/2/1 8/3/1
f 2/4/2 1/5/2 3/6/3
f 3/6/4 1/5/4 6/7/4
f 4/8/5 6/7/5 1/1/5
f 4/8/6 1/1/6 5/9/6
f 5/9/7 1/1/7 7/10/7
f 8/3/1 7/10/1 1/1/1
f 7/10/8 8/3/8 9/11/8
f 9/11/9 8/3/9 2/2/9
f 9/11/8 3/12/8 7/10/8
f 3/6/3 9/13/3 2/4/2
f 7/10/10 11/14/10 5/9/10
f 11/14/11 7/10/11 10/15/11
f 7/10/12 3/12/12 10/15/12
f 12/16/13 5/9/13 11/14/14
f 11/14/14 13/17/14 12/16/13
f 13/17/15 11/14/15 14/18/15
f 11/14/16 10/15/16 15/19/16
f 11/14/17 15/19/17 14/18/17
f 21/20/18 15/21/18 16/22/18
f 15/21/19 17/23/19 16/22/19
f 18/24/20 17/23/20 15/21/20
f 10/15/21 18/25/21 15/19/21
f 14/26/22 15/21/22 19/27/22
f 20/28/23 19/27/23 15/21/23
f 15/21/23 21/20/23 20/28/23
f 21/20/24 22/29/24 20/28/24
f 16/22/18 22/29/18 21/20/18
f 19/27/25 20/28/25 22/29/26
f 22/29/26 16/22/26 19/27/25
f 19/27/27 16/22/27 23/30/27
f 23/31/28 24/32/28 19/33/28
f 24/32/29 14/34/29 19/33/29
f 23/31/30 25/35/30 24/32/30
f 25/35/31 26/36/31 24/32/31
f 27/37/32 14/34/32 24/32/32
f 29/38/33 24/32/33 26/36/34
f 28/39/35 27/37/35 24/32/36
f 24/32/36 29/38/36 28/39/35
f 29/38/37 30/40/37 28/39/37
f 26/36/34 30/40/34 29/38/33
f 27/37/38 28/39/38 30/40/38
f 30/40/38 26/36/38 27/37/38
f 27/37/39 31/41/39 5/42/39
f 27/37/40 5/42/40 14/34/40
f 26/36/41 31/41/41 27/37/41
f 4/8/42 5/9/42 31/41/42
f 32/43/43 31/41/43 26/36/43
f 32/43/44 33/44/44 31/41/44
f 33/44/45 4/8/45 31/41/45
f 35/45/46 34/46/46 33/44/46
f 33/44/47 34/46/47 4/8/47
f 32/43/48 35/45/48 33/44/48
f 36/47/49 35/45/49 32/43/49
f 36/47/50 37/48/50 35/45/50
f 37/48/51 38/49/51 35/45/51
f 38/49/52 34/46/52 35/45/52
f 38/49/53 39/50/53 34/46/53
f 38/51/54 40/52/54 39/50/54
f 38/51/55 37/53/55 40/52/55
f 42/54/56 39/50/56 40/52/56
f 43/55/57 40/52/57 41/56/57
f 44/57/58 41/56/58 40/52/58
f 40/52/56 43/55/56 42/54/56
f 44/57/59 40/52/59 37/53/59
f 44/57/60 17/58/60 41/56/60
f 16/22/61 17/23/61 44/59/61
f 16/22/62 44/59/62 45/60/62
f 47/61/63 45/60/63 44/59/63
f 44/59/63 46/62/63 47/61/63
f 46/63/64 44/57/64 37/53/64
f 45/60/65 47/61/65 48/64/65
f 46/62/66 48/64/66 47/61/66
f 48/64/65 37/48/65 45/60/65
f 37/53/64 48/65/64 46/63/64
f 16/22/67 45/60/67 23/30/67
f 23/30/68 45/60/68 25/66/68
f 25/66/69 45/60/69 36/47/69
f 45/60/70 37/48/70 36/47/70
f 41/56/57 49/67/57 43/55/57
f 43/55/71 49/67/71 42/54/71
f 39/50/72 42/54/72 49/67/72
f 49/67/72 41/56/72 39/50/72
f 41/56/73 18/68/73 3/6/73
f 41/56/74 3/6/74 39/50/74
f 41/56/75 17/58/75 18/68/75
f 3/6/76 6/7/76 39/50/76
f 34/46/77 39/50/77 6/7/77
f 36/47/78 26/69/78 25/66/78
f 36/47/79 32/43/79 26/69/79
f 4/8/80 34/46/80 6/7/80
f 3/6/81 18/68/81 10/70/81
f 50/71/82 14/34/82 5/42/83
f 14/18/15 50/72/15 13/17/15
f 5/42/83 12/73/83 50/71/82
f 12/16/84 13/17/84 50/72/84
f 51/74/85 52/75/85 54/76/85
f 52/75/85 51/74/85 53/77/85
f 56/78/85 53/77/85 51/74/85
f 54/76/85 55/79/85 51/74/85
f 51/74/85 57/80/85 56/78/85
f 57/80/85 58/81/85 59/82/85
f 59/82/85 56/78/85 57/80/85
f 60/83/85 59/82/85 58/81/85
f 58/81/85 61/84/85 60/83/85
f 63/85/85 62/86/85 61/84/85
f 61/84/85 58/81/85 63/85/85
f 62/86/85 63/85/85 64/87/85
f 64/87/85 66/88/85 65/89/85
f 65/89/85 67/90/85 64/87/85
f 68/91/85 64/87/85 67/90/85
f 64/87/85 68/91/85 62/86/85
f 67/90/85 69/92/85 68/91/85
f 70/93/85 65/89/85 66/88/85
f 66/88/85 71/94/85 70/93/85
f 71/94/85 72/95/85 73/96/85
f 72/95/85 71/94/85 55/79/85
f 73/96/85 70/93/85 71/94/85
f 55/79/85 54/76/85 72/95/85
f 53/77/85 74/97/85 52/75/85
