# Blender 4.4.1
# www.blender.org
o Planet_Rings_2
v -0.305179 -0.102668 -0.044527
v -0.254685 -0.012321 0.177846
v -0.198328 -0.142664 0.188959
v -0.189624 -0.151088 -0.206580
v -0.272147 0.064251 -0.162868
v -0.127786 -0.234138 0.155488
v -0.161411 -0.274315 -0.066267
v -0.309325 0.097928 -0.038038
v -0.242707 0.151899 0.139622
v -0.122124 0.274218 0.086055
v -0.143263 0.062727 0.270716
v -0.035281 0.165131 0.267886
v -0.156555 0.238084 -0.162565
v -0.019431 0.314108 0.012103
v -0.140272 0.098449 -0.271736
v 0.138472 0.283728 -0.057200
v -0.011986 0.248108 -0.208007
v 0.042489 0.207848 -0.249125
v 0.154339 0.044987 -0.286347
v 0.020717 -0.167789 -0.277876
v 0.184883 -0.138710 -0.228044
v 0.305461 -0.023105 -0.090413
v 0.252023 0.168029 -0.073724
v -0.085801 0.004076 -0.307960
v 0.274264 0.069847 0.144074
v 0.143642 -0.148397 0.236480
v 0.063653 0.016564 0.297040
v 0.290827 -0.070631 0.088851
v 0.138411 0.252557 0.142591
v 0.257296 -0.169607 -0.036653
v 0.188363 -0.241362 0.026367
v -0.007887 -0.288252 -0.149276
v 0.015264 -0.299268 0.095234
v 0.001315 -0.189993 0.245244
v -0.077737 -0.070418 0.286911
v 0.310850 0.182600 -0.168948
v 0.161192 0.198119 -0.324807
v 0.446127 0.212009 -0.124775
v -0.027021 0.143746 -0.356308
v 0.034525 0.135719 -0.288551
v 0.498972 0.169234 0.013291
v 0.414606 0.121590 0.050982
v 0.285014 -0.011572 0.242408
v 0.479249 0.100781 0.149708
v 0.388542 0.016567 0.263676
v 0.241157 -0.070410 0.337855
v 0.059533 -0.146908 0.360953
v -0.002012 -0.138881 0.293195
v -0.278337 -0.185760 0.173592
v -0.466460 -0.172397 -0.008646
v -0.382094 -0.124751 -0.046339
v -0.413614 -0.215171 0.129420
v -0.128679 -0.201282 0.329452
v -0.293102 -0.224011 0.246785
v -0.446737 -0.103943 -0.145064
v -0.252502 0.008410 -0.237765
v -0.208644 0.067248 -0.333211
v -0.356029 -0.019729 -0.259032
v 0.325614 0.220850 -0.242140
vn -0.9629 0.0438 0.2661
vn -0.9630 0.0439 0.2661
vn -0.8734 -0.3487 0.3400
vn -0.7314 -0.6435 0.2258
vn -0.7315 -0.6433 0.2260
vn -0.7316 -0.6431 0.2262
vn -0.7383 -0.5734 -0.3551
vn -0.8246 -0.2094 -0.5255
vn -0.9591 -0.0107 -0.2828
vn -0.7315 -0.6432 0.2261
vn -0.9629 0.0437 0.2662
vn -0.6891 0.7246 0.0102
vn -0.4178 0.6771 0.6058
vn -0.4733 0.5188 0.7119
vn -0.7054 0.2091 0.6773
vn -0.0450 0.9565 -0.2883
vn -0.0450 0.9565 -0.2884
vn -0.4080 0.9099 -0.0757
vn -0.2584 0.5575 -0.7890
vn -0.6391 0.4261 -0.6403
vn -0.7735 0.5150 -0.3693
vn -0.0450 0.9565 -0.2882
vn 0.2693 0.8419 -0.4676
vn 0.5842 0.5819 -0.5658
vn 0.0024 0.2760 -0.9612
vn 0.3204 -0.2377 -0.9169
vn 0.1071 -0.1066 -0.9885
vn 0.7783 -0.0687 -0.6242
vn 0.8054 0.2712 -0.5270
vn 0.0024 0.2761 -0.9611
vn -0.3253 -0.3550 -0.8765
vn -0.6280 -0.0780 -0.7743
vn 0.9633 0.2674 0.0222
vn 0.7619 0.6290 0.1544
vn 0.7619 0.6290 0.1545
vn 0.7410 -0.1682 0.6501
vn 0.5894 -0.0107 0.8078
vn 0.4428 0.3886 0.8080
vn 0.9919 0.0771 0.1014
vn 0.2496 0.9568 0.1493
vn -0.0370 0.8645 0.5012
vn -0.0369 0.8645 0.5012
vn 0.7399 -0.5730 0.3524
vn 0.7399 -0.5731 0.3524
vn 0.9493 -0.3142 -0.0058
vn 0.4988 -0.8014 -0.3302
vn 0.8284 -0.4117 -0.3799
vn -0.1088 -0.9935 -0.0345
vn 0.2911 -0.9541 -0.0705
vn 0.3142 -0.7267 -0.6109
vn -0.2862 -0.6667 -0.6882
vn -0.3739 -0.7329 -0.5684
vn 0.4374 -0.7842 0.4401
vn -0.3276 -0.9197 0.2163
vn -0.1248 -0.8074 0.5766
vn 0.2606 -0.7687 0.5842
vn -0.3438 -0.5217 0.7808
vn 0.1204 -0.2751 0.9538
vn 0.1202 -0.2755 0.9538
vn -0.1039 0.0987 0.9897
vn -0.5575 -0.1739 0.8118
vn -0.5574 -0.1737 0.8118
vn -0.5574 -0.1735 0.8119
vn -0.3152 0.8657 0.3889
vn -0.3152 0.8657 0.3888
vt 0.834633 0.576032
vt 0.805878 0.571326
vt 0.802760 0.552280
vt 0.806578 0.587003
vt 0.809175 0.599885
vt 0.894658 0.669005
vt 0.897236 0.697659
vt 0.878285 0.682989
vt 0.875468 0.711505
vt 0.888251 0.720879
vt 0.835802 0.604621
vt 0.827163 0.552082
vt 0.812351 0.763264
vt 0.808077 0.742872
vt 0.835939 0.731586
vt 0.784092 0.754481
vt 0.791147 0.770795
vt 0.787051 0.569642
vt 0.836332 0.760726
vt 0.807112 0.727603
vt 0.807958 0.708072
vt 0.856627 0.703489
vt 0.850168 0.723363
vt 0.833111 0.713783
vt 0.849938 0.752159
vt 0.832949 0.704521
vt 0.832915 0.681303
vt 0.856750 0.665445
vt 0.833014 0.658941
vt 0.856935 0.690280
vt 0.809044 0.668561
vt 0.806614 0.690671
vt 0.783771 0.681027
vt 0.759574 0.662610
vt 0.787973 0.663756
vt 0.755306 0.685675
vt 0.753629 0.706743
vt 0.783016 0.709011
vt 0.781491 0.726629
vt 0.807205 0.651362
vt 0.786966 0.651525
vt 0.782785 0.624069
vt 0.807051 0.638351
vt 0.837565 0.627459
vt 0.810428 0.617408
vt 0.849373 0.645825
vt 0.876882 0.655456
vt 0.791070 0.607141
vt 0.786629 0.588408
vt 0.736750 0.682138
vt 0.741250 0.663968
vt 0.736111 0.700653
vt 0.947886 0.458138
vt 0.960310 0.482008
vt 0.960468 0.502679
vt 0.959627 0.445433
vt 0.958180 0.428700
vt 0.951125 0.496786
vt 0.946017 0.424881
vt 0.944735 0.389894
vt 0.957396 0.416401
vt 0.955686 0.396871
vt 0.953993 0.379082
vt 0.942517 0.349511
vt 0.951778 0.355354
vt 0.939940 0.310832
vt 0.932749 0.281502
vt 0.944358 0.279134
vt 0.950854 0.297326
vt 0.951977 0.334990
vt 0.949700 0.313806
vt 0.965608 0.564087
vt 0.959814 0.581327
vt 0.952920 0.570859
vt 0.953565 0.537207
vt 0.962728 0.526221
vt 0.964400 0.544354
vt 0.957733 0.461008
s 1
f 1/1/1 2/2/2 9/3/1
f 1/1/3 3/4/3 2/2/3
f 6/5/4 3/4/5 1/1/6
f 7/6/7 1/7/7 4/8/7
f 4/8/8 1/7/8 5/9/8
f 5/9/9 1/7/9 8/10/9
f 1/1/6 7/11/10 6/5/4
f 9/3/1 8/12/11 1/1/1
f 9/13/12 10/14/12 13/15/12
f 10/14/13 9/13/13 12/16/13
f 11/17/14 12/16/14 9/13/14
f 11/18/15 9/3/15 2/2/15
f 13/15/12 8/19/12 9/13/12
f 13/15/16 14/20/17 16/21/16
f 13/15/18 10/14/18 14/20/18
f 15/22/19 13/23/19 17/24/19
f 15/22/20 5/9/20 13/23/20
f 8/19/21 13/15/21 5/25/21
f 16/21/16 17/24/22 13/15/16
f 16/21/23 18/26/23 17/24/23
f 17/24/19 18/26/19 15/22/19
f 19/27/24 18/26/24 16/21/24
f 15/22/25 18/26/25 19/27/25
f 20/28/26 19/27/26 21/29/26
f 19/27/27 20/28/27 24/30/27
f 22/31/28 21/29/28 19/27/28
f 19/27/29 23/32/29 22/31/29
f 16/21/24 23/32/24 19/27/24
f 19/27/25 24/30/30 15/22/25
f 4/8/31 24/30/31 20/28/31
f 15/22/32 24/30/32 4/8/32
f 25/33/33 22/31/33 23/32/33
f 25/33/34 23/32/35 16/21/34
f 26/34/36 28/35/36 25/33/36
f 25/33/37 27/36/37 26/34/37
f 12/37/38 27/36/38 25/33/38
f 22/31/39 25/33/39 28/35/39
f 16/21/34 29/38/34 25/33/34
f 25/33/38 29/38/38 12/37/38
f 29/38/40 16/21/40 14/20/40
f 12/16/41 29/39/42 14/20/42
f 30/40/43 28/41/44 26/42/43
f 30/40/45 22/31/45 28/35/45
f 26/42/43 31/43/43 30/40/43
f 30/40/46 31/43/46 32/44/46
f 22/31/47 30/40/47 21/29/47
f 32/44/46 21/29/46 30/40/46
f 33/45/48 7/11/48 32/44/48
f 32/44/49 31/43/49 33/45/49
f 32/44/50 20/46/50 21/29/50
f 20/28/51 32/47/51 4/8/51
f 32/47/52 7/6/52 4/8/52
f 26/42/53 33/45/53 31/43/53
f 7/11/54 33/45/54 6/5/54
f 6/5/55 33/45/55 34/48/55
f 33/45/56 26/42/56 34/48/56
f 6/5/57 34/48/57 35/49/57
f 35/50/58 34/51/59 26/34/59
f 12/37/60 11/52/60 35/50/60
f 35/49/61 11/18/62 2/2/63
f 35/49/57 3/4/57 6/5/57
f 26/34/59 27/36/59 35/50/58
f 35/50/60 27/36/60 12/37/60
f 2/2/63 3/4/62 35/49/61
f 4/8/32 5/9/32 15/22/32
f 14/20/42 10/14/42 12/16/41
f 36/53/64 37/54/65 39/55/65
f 37/54/65 36/53/64 38/56/64
f 41/57/65 38/56/64 36/53/64
f 39/55/65 40/58/64 36/53/64
f 36/53/64 42/59/65 41/57/65
f 42/59/65 43/60/65 44/61/65
f 44/61/65 41/57/65 42/59/65
f 45/62/65 44/61/65 43/60/65
f 43/60/65 46/63/65 45/62/65
f 48/64/65 47/65/65 46/63/65
f 46/63/65 43/60/65 48/64/65
f 47/65/65 48/64/65 49/66/65
f 49/66/65 51/67/65 50/68/65
f 50/68/65 52/69/65 49/66/65
f 53/70/64 49/66/65 52/69/65
f 49/66/65 53/70/64 47/65/65
f 52/69/65 54/71/64 53/70/64
f 55/72/65 50/73/65 51/74/65
f 51/74/65 56/75/65 55/72/65
f 56/75/65 57/76/65 58/77/65
f 57/76/65 56/75/65 40/58/64
f 58/77/65 55/72/65 56/75/65
f 40/58/64 39/55/65 57/76/65
f 38/56/64 59/78/65 37/54/65
