# Blender 4.4.1
# www.blender.org
o Space_Texturing_to_export.074
v -0.403443 0.193415 0.324050
v -0.360296 -0.039522 0.406214
v -0.486371 -0.024366 0.232998
v -0.546947 0.095138 0.022133
v -0.315971 0.358442 0.277785
v -0.168528 0.210621 0.486885
v -0.184730 -0.049064 0.515280
v 0.117775 -0.270186 0.462392
v -0.168528 -0.299872 0.442222
v 0.021115 -0.050888 0.536135
v 0.117775 0.177883 0.501593
v -0.403443 -0.254654 0.284849
v -0.523538 -0.183050 -0.101204
v -0.315971 -0.409139 0.210630
v -0.165038 -0.508981 0.145241
v -0.434848 -0.344609 -0.106845
v 0.079691 -0.422868 0.347641
v -0.196841 -0.478930 -0.200434
v -0.007550 -0.535170 -0.047396
v 0.084346 -0.441808 -0.309007
v -0.100731 -0.354269 -0.416429
v 0.238800 -0.491720 -0.052041
v -0.336995 -0.345223 -0.275516
v -0.425245 -0.074420 -0.349983
v -0.242357 0.037829 -0.477916
v -0.363349 0.325154 -0.273341
v -0.523073 0.096293 -0.169099
v -0.132874 0.262382 -0.464225
v -0.132874 -0.185688 -0.503426
v -0.036215 0.043083 -0.537968
v 0.165891 -0.049225 -0.522929
v 0.319809 0.229659 -0.366171
v 0.334042 -0.067787 -0.425796
v 0.158981 0.226274 -0.469665
v 0.192666 -0.319403 -0.413539
v 0.375835 -0.379571 -0.127332
v 0.376005 -0.370281 0.168010
v 0.508527 -0.109320 0.163964
v 0.477204 -0.217014 -0.145365
v 0.531553 -0.001404 -0.029473
v 0.471271 0.016562 -0.234831
v 0.477204 0.231055 -0.106164
v 0.375835 0.388010 -0.060177
v 0.479477 0.169313 0.181405
v 0.376005 0.327576 0.229065
v 0.376671 0.167641 0.342701
v 0.079691 0.348171 0.415098
v 0.410145 -0.133963 0.330601
v 0.227258 -0.045634 0.476083
v -0.165038 0.468123 0.230727
v 0.238800 0.485382 0.033444
v 0.085628 0.474304 0.231657
v -0.007550 0.527365 0.045563
v -0.016064 0.506280 -0.203229
v -0.276303 0.465435 -0.052101
v 0.192666 0.378456 -0.352485
v -0.100733 0.413295 -0.349276
v -0.434848 0.350022 -0.046073
v 0.085628 -0.515229 0.145084
v 0.486649 0.101269 -0.554423
v 0.097146 0.117789 -0.660269
v 0.688821 0.094043 -0.506982
v -0.247914 0.101537 -0.582294
v -0.121623 0.100616 -0.572639
v 0.845359 0.057659 -0.299057
v 0.804717 0.038939 -0.196425
v 0.646261 -0.049864 0.291645
v 0.871862 0.011546 -0.041703
v 0.764301 -0.037277 0.225900
v 0.539048 -0.081376 0.463014
v 0.230395 -0.114038 0.633538
v 0.104103 -0.113117 0.623881
v -0.504169 -0.113770 0.605664
v -0.862876 -0.070161 0.350301
v -0.822235 -0.051440 0.247666
v -0.706340 -0.106544 0.558225
v -0.114666 -0.130291 0.711512
v -0.443603 -0.127660 0.685066
v -0.889382 -0.024048 0.092947
v -0.663779 0.037362 -0.240403
v -0.556566 0.068874 -0.411770
v -0.781819 0.024775 -0.174657
v 0.426084 0.115158 -0.633823
v 0.836098 0.282889 -0.335200
v 0.430304 0.241937 -0.631917
v 1.050267 0.306647 -0.189035
v -0.010235 0.148367 -0.715089
v 0.132978 0.169872 -0.644687
v 1.135306 0.267935 0.103252
v 1.039320 0.225740 0.191229
v 0.623599 0.031903 0.626225
v 1.044873 0.187274 0.385169
v 0.792738 0.076945 0.613799
v 0.417286 -0.046255 0.754333
v -0.024328 -0.163572 0.785378
v -0.167542 -0.185077 0.714974
v -0.870661 -0.298094 0.405487
v -1.084829 -0.321852 0.259323
v -0.464866 -0.257142 0.702206
v -1.169868 -0.283139 -0.032963
v -1.073884 -0.240945 -0.120942
v -0.658162 -0.047107 -0.555939
v -1.079437 -0.202478 -0.314880
v -0.827302 -0.092150 -0.543510
v -0.451847 0.031051 -0.684044
v -0.837265 -0.312723 0.517480
v 0.802704 0.297519 -0.447192
vn -0.5476 0.1546 0.8223
vn -0.8046 0.0594 0.5908
vn -0.9092 0.1916 0.3698
vn -0.8386 0.4725 0.2711
vn -0.5243 0.4759 0.7061
vn -0.0615 0.1415 0.9880
vn -0.0615 -0.3109 0.9484
vn -0.5475 -0.2952 0.7830
vn -0.5476 -0.2951 0.7830
vn -0.9496 -0.2287 0.2142
vn -0.9496 -0.2288 0.2142
vn -0.8046 -0.1611 0.5715
vn -0.8377 -0.5137 0.1852
vn -0.5243 -0.5913 0.6128
vn -0.5172 -0.8559 -0.0046
vn -0.2215 -0.7986 0.5597
vn -0.2215 -0.7985 0.5597
vn -0.2375 -0.9694 -0.0624
vn 0.0780 -0.9473 -0.3107
vn 0.0780 -0.9473 -0.3108
vn 0.0780 -0.9473 -0.3106
vn -0.0926 -0.8440 -0.5283
vn -0.3753 -0.7207 -0.5829
vn -0.5581 -0.7652 -0.3210
vn -0.7868 -0.3972 -0.4725
vn -0.5128 -0.4164 -0.7508
vn -0.6076 0.2747 -0.7452
vn -0.6077 0.2748 -0.7451
vn -0.5035 -0.1495 -0.8510
vn -0.9107 -0.0961 -0.4018
vn -0.7446 0.2352 -0.6247
vn 0.0892 -0.3969 -0.9135
vn 0.0045 -0.1512 -0.9885
vn -0.2789 -0.0271 -0.9599
vn 0.0875 0.2648 -0.9603
vn 0.0876 0.2649 -0.9603
vn 0.5180 0.1837 -0.8354
vn 0.4532 -0.2956 -0.8410
vn 0.0874 0.2647 -0.9603
vn 0.6933 -0.4477 -0.5647
vn 0.0892 -0.6913 -0.7170
vn 0.4375 -0.7887 -0.4318
vn 0.4375 -0.7888 -0.4318
vn 0.8754 -0.4810 0.0475
vn 0.6409 -0.7672 0.0238
vn 0.9716 -0.2362 -0.0161
vn 0.9539 -0.0859 -0.2875
vn 0.8347 -0.1784 -0.5210
vn 0.9539 0.1345 -0.2682
vn 0.7970 0.2198 -0.5625
vn 0.7970 0.2199 -0.5625
vn 0.9797 0.1718 0.1029
vn 0.9797 0.1719 0.1030
vn 0.7971 0.2197 -0.5625
vn 0.6803 0.5926 -0.4312
vn 0.8477 0.5196 0.1067
vn 0.8479 0.5194 0.1064
vn 0.8478 0.5195 0.1065
vn 0.9798 0.1718 0.1028
vn 0.7846 0.3613 0.5038
vn 0.8483 0.0646 0.5256
vn 0.4780 0.4956 0.7252
vn 0.5795 0.0998 0.8088
vn 0.5795 0.0997 0.8089
vn 0.5208 -0.5576 0.6464
vn 0.5035 -0.2950 0.8121
vn 0.5796 0.0999 0.8088
vn 0.8120 -0.4059 0.4194
vn 0.2789 -0.1934 0.9406
vn 0.2789 0.0271 0.9599
vn 0.0061 0.4539 0.8910
vn -0.2215 0.6892 0.6898
vn -0.2215 0.6893 0.6898
vn -0.0224 0.8241 0.5659
vn -0.2215 0.6892 0.6899
vn 0.4050 0.7936 0.4541
vn 0.4051 0.7935 0.4541
vn 0.1740 0.9665 0.1885
vn -0.0247 0.9581 0.2855
vn 0.1631 0.9826 -0.0889
vn -0.2272 0.9738 0.0076
vn -0.2273 0.9738 0.0076
vn -0.2271 0.9738 0.0076
vn -0.3703 0.8527 -0.3684
vn 0.3717 0.8823 -0.2889
vn 0.0906 0.8155 -0.5717
vn 0.0608 0.5986 -0.7988
vn 0.0608 0.5985 -0.7988
vn 0.0607 0.5985 -0.7988
vn -0.4020 0.6075 -0.6851
vn 0.0608 0.5986 -0.7987
vn 0.4704 0.4706 -0.7465
vn -0.5740 0.7747 -0.2653
vn -0.5547 0.8087 0.1956
vn -0.8398 0.4437 -0.3128
vn -0.9203 0.3746 -0.1126
vn 0.6409 0.7514 0.1566
vn 0.4054 -0.8601 0.3096
vn 0.4050 -0.8604 0.3094
vn -0.2789 0.1934 -0.9406
vn -0.9919 -0.0285 -0.1240
vn 0.1740 -0.9846 0.0178
vn 0.4051 -0.8603 0.3095
vn -0.0224 -0.9099 0.4142
vn -0.0247 -0.9931 0.1148
vn 0.0061 -0.6018 0.7986
vn -0.0064 0.9842 0.1770
vn -0.0064 0.9842 0.1769
vn -0.0064 0.9842 0.1771
vn -0.2389 0.9512 0.1955
vn -0.2390 0.9511 0.1956
vn -0.2389 0.9511 0.1955
vt 0.415010 0.294410
vt 0.401285 0.320196
vt 0.377497 0.320652
vt 0.426421 0.320584
vt 0.452680 0.310046
vt 0.416429 0.272395
vt 0.381618 0.287468
vt 0.320360 0.532406
vt 0.287344 0.540288
vt 0.282753 0.506211
vt 0.286313 0.472096
vt 0.319638 0.478580
vt 0.306250 0.505814
vt 0.414289 0.345081
vt 0.381030 0.354658
vt 0.462892 0.346267
vt 0.414661 0.365561
vt 0.455938 0.368572
vt 0.446571 0.402365
vt 0.410589 0.386008
vt 0.372862 0.391723
vt 0.418802 0.412362
vt 0.402751 0.437438
vt 0.442029 0.437278
vt 0.467555 0.425931
vt 0.467715 0.390701
vt 0.528518 0.458605
vt 0.552490 0.457888
vt 0.560880 0.479332
vt 0.531646 0.494027
vt 0.492179 0.457386
vt 0.493825 0.532464
vt 0.506589 0.506210
vt 0.494213 0.479091
vt 0.553520 0.516155
vt 0.528464 0.544399
vt 0.461893 0.494477
vt 0.483384 0.505802
vt 0.440723 0.528788
vt 0.442280 0.493095
vt 0.460732 0.528077
vt 0.451573 0.459457
vt 0.407319 0.458758
vt 0.375105 0.494042
vt 0.368195 0.459492
vt 0.407426 0.478999
vt 0.396140 0.504578
vt 0.418615 0.504629
vt 0.407385 0.529425
vt 0.407086 0.550885
vt 0.374958 0.527077
vt 0.369168 0.549246
vt 0.355015 0.529139
vt 0.322847 0.555738
vt 0.355167 0.493127
vt 0.321415 0.456031
vt 0.330402 0.505474
vt 0.414505 0.647038
vt 0.378737 0.652435
vt 0.372536 0.616730
vt 0.393999 0.601091
vt 0.410416 0.624954
vt 0.367597 0.573549
vt 0.402568 0.572270
vt 0.418439 0.597547
vt 0.443952 0.583475
vt 0.445214 0.618559
vt 0.466800 0.582796
vt 0.450500 0.549897
vt 0.490452 0.555240
vt 0.477268 0.616700
vt 0.456665 0.638160
vt 0.555690 0.552594
vt 0.459679 0.276638
vt 0.474985 0.311196
vt 0.367335 0.435441
vt 0.394122 0.408556
vt 0.694484 0.930380
vt 0.647305 0.925411
vt 0.612982 0.901928
vt 0.718646 0.933792
vt 0.744803 0.917414
vt 0.627206 0.906280
vt 0.744826 0.904265
vt 0.748742 0.843233
vt 0.758897 0.889959
vt 0.758783 0.855608
vt 0.744479 0.819589
vt 0.703938 0.783036
vt 0.718162 0.787387
vt 0.636660 0.758936
vt 0.586318 0.785050
vt 0.586341 0.771902
vt 0.612498 0.755524
vt 0.683839 0.763904
vt 0.646734 0.752715
vt 0.572247 0.799357
vt 0.582402 0.846082
vt 0.586665 0.869726
vt 0.572360 0.833708
vt 0.684410 0.936600
vt 0.665101 0.688316
vt 0.633929 0.738680
vt 0.588346 0.767226
vt 0.682065 0.662876
vt 0.677290 0.627157
vt 0.601034 0.753204
vt 0.662145 0.621774
vt 0.593898 0.592559
vt 0.653241 0.600320
vt 0.613579 0.586450
vt 0.564342 0.587659
vt 0.500338 0.617784
vt 0.513025 0.603762
vt 0.436271 0.682672
vt 0.467443 0.632307
vt 0.419307 0.708112
vt 0.424081 0.743830
vt 0.439227 0.749214
vt 0.507474 0.778429
vt 0.448131 0.770667
vt 0.487793 0.784537
vt 0.537030 0.783329
vt 0.434533 0.668951
vt 0.666839 0.702037
s 1
f 1/1/1 2/2/1 7/3/1
f 1/1/2 3/4/2 2/2/2
f 4/5/3 3/4/3 1/1/3
f 4/5/4 1/1/4 5/6/4
f 6/7/5 5/6/5 1/1/5
f 7/3/1 6/7/1 1/1/1
f 11/8/6 6/9/6 7/10/6
f 7/10/7 9/11/7 8/12/7
f 8/12/7 10/13/7 7/10/7
f 12/14/8 9/15/9 7/3/9
f 7/10/6 10/13/6 11/8/6
f 7/3/9 2/2/9 12/14/8
f 12/14/10 3/4/11 4/5/11
f 3/4/12 12/14/12 2/2/12
f 4/5/11 13/16/10 12/14/10
f 14/17/13 12/14/13 13/16/13
f 12/14/14 14/17/14 9/15/14
f 13/16/13 16/18/13 14/17/13
f 18/19/15 15/20/15 14/17/15
f 14/17/16 15/20/17 17/21/16
f 14/17/15 16/18/15 18/19/15
f 17/21/16 9/15/16 14/17/16
f 18/19/18 19/22/18 15/20/18
f 22/23/19 19/22/20 18/19/19
f 18/19/19 20/24/21 22/23/19
f 18/19/22 21/25/22 20/24/22
f 23/26/23 21/25/23 18/19/23
f 16/18/24 23/26/24 18/19/24
f 23/27/25 16/28/25 13/29/25
f 13/29/25 24/30/25 23/27/25
f 21/31/26 23/27/26 24/30/26
f 28/32/27 25/33/28 24/30/27
f 24/30/29 25/33/29 29/34/29
f 13/29/30 27/35/30 24/30/30
f 24/30/27 26/36/27 28/32/27
f 24/30/31 27/35/31 26/36/31
f 24/30/26 29/34/26 21/31/26
f 21/31/32 29/34/32 31/37/32
f 31/37/33 29/34/33 30/38/33
f 29/34/34 25/33/34 30/38/34
f 31/37/35 30/38/36 28/32/35
f 32/39/37 33/40/37 31/37/37
f 31/37/37 34/41/37 32/39/37
f 35/42/38 31/37/38 33/40/38
f 28/32/35 34/41/39 31/37/35
f 31/37/32 35/42/32 21/31/32
f 36/43/40 35/42/40 33/40/40
f 20/24/41 21/25/41 35/42/41
f 20/24/42 35/42/42 36/43/43
f 38/44/44 37/45/44 36/43/44
f 22/23/45 36/43/45 37/45/45
f 36/43/44 39/46/44 38/44/44
f 33/40/40 39/46/40 36/43/40
f 36/43/43 22/23/42 20/24/42
f 38/44/46 39/46/46 40/47/46
f 39/46/47 41/48/47 40/47/47
f 33/40/48 41/48/48 39/46/48
f 41/48/49 42/49/49 40/47/49
f 42/49/50 41/48/51 33/40/50
f 38/44/52 40/47/53 42/49/52
f 33/40/50 32/39/54 42/49/50
f 43/50/55 42/49/55 32/39/55
f 44/51/56 42/49/57 43/50/58
f 42/49/52 44/51/59 38/44/52
f 43/50/58 45/52/57 44/51/56
f 46/53/60 44/51/60 45/52/60
f 38/44/61 44/51/61 46/53/61
f 46/53/62 45/52/62 47/54/62
f 46/53/61 48/55/61 38/44/61
f 47/54/62 11/8/62 46/53/62
f 48/55/63 46/53/64 11/8/63
f 48/55/65 8/12/65 17/56/65
f 48/55/66 49/57/66 8/12/66
f 11/8/63 49/57/67 48/55/63
f 17/56/65 37/45/65 48/55/65
f 37/45/68 38/44/68 48/55/68
f 8/12/69 49/57/69 10/13/69
f 49/57/70 11/8/70 10/13/70
f 11/8/71 47/54/71 6/9/71
f 5/58/72 6/59/73 47/60/72
f 52/61/74 50/62/74 47/60/74
f 47/60/72 50/62/75 5/58/72
f 47/60/76 45/63/76 51/64/76
f 51/64/76 52/61/77 47/60/76
f 51/64/78 53/65/78 52/61/78
f 53/65/79 50/62/79 52/61/79
f 54/66/80 53/65/80 51/64/80
f 50/62/81 53/65/82 54/66/81
f 54/66/81 55/67/83 50/62/81
f 55/67/84 54/66/84 57/68/84
f 43/50/85 56/69/85 54/66/85
f 54/66/85 51/64/85 43/50/85
f 56/69/86 57/68/86 54/66/86
f 34/41/87 28/32/88 57/70/89
f 28/32/90 26/36/90 57/70/90
f 57/68/84 26/71/84 55/67/84
f 57/70/89 56/69/91 34/41/87
f 32/39/92 34/41/92 56/69/92
f 32/39/55 56/69/55 43/50/55
f 55/67/93 26/71/93 58/72/93
f 55/67/94 58/72/94 5/58/94
f 5/58/94 50/62/94 55/67/94
f 26/36/95 27/35/95 58/73/95
f 58/74/96 27/75/96 4/5/96
f 5/6/4 58/74/4 4/5/4
f 45/52/97 43/50/97 51/64/97
f 22/23/98 37/76/99 17/21/99
f 25/33/100 28/32/100 30/38/100
f 4/5/101 27/75/101 13/16/101
f 19/22/102 22/23/102 59/77/102
f 17/21/99 59/77/103 22/23/98
f 17/21/104 15/20/104 59/77/104
f 15/20/105 19/22/105 59/77/105
f 9/11/106 17/56/106 8/12/106
f 60/78/107 61/79/107 63/80/107
f 61/79/107 60/78/107 62/81/107
f 65/82/107 62/81/107 60/78/107
f 63/80/107 64/83/108 60/78/107
f 60/78/107 66/84/107 65/82/107
f 66/84/107 67/85/107 68/86/107
f 68/86/107 65/82/107 66/84/107
f 69/87/107 68/86/107 67/85/107
f 67/85/107 70/88/107 69/87/107
f 72/89/109 71/90/107 70/88/107
f 70/88/107 67/85/107 72/89/109
f 71/90/107 72/89/109 73/91/107
f 73/91/107 75/92/107 74/93/107
f 74/93/107 76/94/107 73/91/107
f 77/95/107 73/91/107 76/94/107
f 73/91/107 77/95/107 71/90/107
f 76/94/107 78/96/107 77/95/107
f 79/97/107 74/93/107 75/92/107
f 75/92/107 80/98/107 79/97/107
f 80/98/107 81/99/107 82/100/107
f 81/99/107 80/98/107 64/83/108
f 82/100/107 79/97/107 80/98/107
f 64/83/108 63/80/107 81/99/107
f 62/81/107 83/101/107 61/79/107
f 84/102/110 85/103/110 87/104/110
f 85/103/110 84/102/110 86/105/110
f 89/106/110 86/105/110 84/102/110
f 87/104/110 88/107/111 84/102/110
f 84/102/110 90/108/110 89/106/110
f 90/108/110 91/109/110 92/110/110
f 92/110/110 89/106/110 90/108/110
f 93/111/110 92/110/110 91/109/110
f 91/109/110 94/112/110 93/111/110
f 96/113/111 95/114/112 94/112/110
f 94/112/110 91/109/110 96/113/111
f 95/114/112 96/113/111 97/115/110
f 99/116/110 97/115/110 98/117/110
f 100/118/110 98/117/110 97/115/110
f 97/115/110 99/116/110 95/114/112
f 97/115/110 101/119/110 100/118/110
f 101/119/110 102/120/110 103/121/110
f 103/121/110 100/118/110 101/119/110
f 104/122/110 103/121/110 102/120/110
f 102/120/110 105/123/110 104/122/110
f 105/123/110 102/120/110 88/107/111
f 88/107/111 87/104/110 105/123/110
f 98/117/110 106/124/110 99/116/110
f 86/105/110 107/125/110 85/103/110
