# Blender 4.4.1
# www.blender.org
o Satelite_2
v 0.000021 -0.133398 -0.048091
v 0.033657 -0.133398 -0.034158
v 0.000021 -0.121693 -0.037462
v -0.026099 -0.121693 -0.026643
v -0.033615 -0.133398 -0.034158
v 0.000021 -0.151936 -0.062168
v -0.043570 -0.151936 -0.044112
v -0.050211 -0.174194 -0.050754
v -0.071018 -0.174194 -0.000522
v -0.061625 -0.151936 -0.000522
v -0.047549 -0.133398 -0.000522
v -0.043570 -0.151936 0.043068
v -0.050211 -0.174194 0.049710
v -0.055446 -0.190807 0.054946
v 0.000021 -0.190807 0.077921
v 0.000021 -0.174194 0.070516
v 0.000021 -0.151936 0.061124
v 0.050252 -0.174194 0.049710
v 0.055489 -0.190807 0.054946
v 0.078464 -0.190807 -0.000522
v 0.000021 -0.190807 -0.000522
v 0.055489 -0.190807 -0.055990
v 0.071059 -0.174194 -0.000522
v 0.050252 -0.174194 -0.050754
v 0.000021 -0.190807 -0.078965
v -0.055446 -0.190807 -0.055990
v 0.000021 -0.174194 -0.071561
v 0.043611 -0.151936 -0.044112
v 0.061666 -0.151936 -0.000522
v 0.047590 -0.133398 -0.000522
v 0.036961 -0.121693 -0.000522
v 0.033657 -0.133398 0.033114
v 0.026142 -0.121693 -0.026643
v 0.026142 -0.121693 0.025598
v 0.000021 -0.133398 0.047047
v 0.043611 -0.151936 0.043068
v 0.000021 -0.121693 0.036418
v -0.033615 -0.133398 0.033114
v -0.026099 -0.121693 0.025598
v -0.036919 -0.121693 -0.000522
v -0.078423 -0.190807 -0.000522
v 0.000021 -0.125023 -0.062550
v 0.043880 -0.125023 -0.044382
v 0.000021 0.240278 -0.062550
v -0.043839 0.240278 -0.044382
v -0.043839 -0.125023 -0.044382
v 0.000021 -0.125023 -0.000522
v 0.043880 -0.125023 0.043338
v 0.000021 -0.125023 0.061505
v -0.043839 -0.125023 0.043338
v 0.000021 0.240278 0.061505
v -0.043839 0.240278 0.043338
v -0.062006 -0.125023 -0.000522
v -0.062006 0.240278 -0.000522
v -0.039315 0.240278 -0.039857
v -0.055608 0.240278 -0.000522
v -0.039315 0.240278 0.038813
v -0.055608 0.248741 -0.000522
v -0.039315 0.248741 -0.039857
v 0.000021 0.248741 -0.056151
v 0.039356 0.248741 -0.039857
v 0.000021 0.248741 -0.000522
v 0.055650 0.248741 -0.000522
v -0.039315 0.248741 0.038813
v 0.039356 0.248741 0.038813
v 0.039356 0.240278 0.038813
v 0.000021 0.248741 0.055106
v 0.055650 0.240278 -0.000522
v 0.043880 0.240278 -0.044382
v 0.062048 0.240278 -0.000522
v 0.039356 0.240278 -0.039857
v 0.000021 0.240278 -0.056151
v 0.062048 -0.125023 -0.000522
v 0.043880 0.240278 0.043338
v 0.000021 0.240278 0.055106
v 0.567963 -0.074524 0.028721
v 0.567963 0.202692 0.028721
v 0.709973 -0.074524 -0.000522
v 0.425955 0.202692 -0.030751
v 0.425955 -0.074524 -0.030751
v 0.283946 -0.074524 0.028721
v 0.283946 0.202692 0.028721
v 0.141937 0.202692 -0.030751
v -0.000072 0.202692 0.028722
v 0.141937 -0.074524 -0.030751
v -0.000072 -0.074524 0.028722
v -0.142081 -0.074524 -0.030751
v -0.142081 0.202692 -0.030751
v -0.284090 0.202692 0.028722
v -0.426098 0.202692 -0.030751
v -0.284090 -0.074524 0.028722
v -0.426098 -0.074524 -0.030751
v -0.568106 -0.074524 0.028722
v -0.568106 0.202692 0.028722
v -0.710115 0.202692 -0.000522
v -0.710115 -0.074524 -0.000522
v 0.709973 0.202692 -0.000522
vn 0.3133 0.5743 -0.7563
vn 0.2932 0.6427 -0.7078
vn -0.2932 0.6427 -0.7078
vn -0.3133 0.5743 -0.7563
vn -0.3565 0.3632 -0.8608
vn -0.3566 0.3632 -0.8608
vn -0.8608 0.3632 -0.3566
vn -0.8608 0.3632 -0.3565
vn -0.8608 0.3633 -0.3565
vn -0.7563 0.5743 -0.3133
vn -0.7563 0.5743 0.3133
vn -0.8608 0.3632 0.3566
vn -0.8608 0.3632 0.3565
vn -0.8543 0.3807 0.3539
vn -0.8543 0.3807 0.3538
vn -0.3539 0.3808 0.8543
vn -0.3565 0.3632 0.8608
vn -0.3566 0.3632 0.8608
vn 0.3565 0.3632 0.8608
vn 0.3539 0.3808 0.8543
vn 0.3538 0.3808 0.8543
vn 0.8543 0.3808 0.3539
vn 0.8543 0.3808 0.3538
vn -0.0000 -1.0000 -0.0000
vn 0.8543 0.3807 -0.3539
vn 0.8543 0.3808 -0.3538
vn 0.3539 0.3808 -0.8543
vn 0.3538 0.3808 -0.8543
vn -0.3539 0.3807 -0.8543
vn -0.3539 0.3808 -0.8543
vn 0.3565 0.3632 -0.8608
vn 0.3566 0.3632 -0.8608
vn 0.7563 0.5743 -0.3133
vn 0.8608 0.3632 -0.3566
vn 0.8608 0.3632 -0.3565
vn 0.7078 0.6427 -0.2931
vn 0.7078 0.6427 -0.2933
vn 0.7078 0.6427 -0.2932
vn 0.7078 0.6427 0.2932
vn 0.7563 0.5743 0.3133
vn 0.2932 0.6427 0.7078
vn 0.3133 0.5743 0.7563
vn 0.8608 0.3632 0.3565
vn 0.8608 0.3633 0.3565
vn 0.8608 0.3632 0.3566
vn 0.3566 0.3632 0.8608
vn 0.2932 0.6428 0.7077
vn -0.2932 0.6427 0.7078
vn -0.3133 0.5743 0.7563
vn -0.7078 0.6427 0.2932
vn -0.3133 0.5744 0.7563
vn -0.7078 0.6427 -0.2932
vn -0.8543 0.3807 -0.3539
vn -0.8543 0.3808 -0.3538
vn 0.3827 -0.0000 -0.9239
vn -0.3827 -0.0000 -0.9239
vn -0.3827 -0.0000 0.9239
vn -0.9239 -0.0000 0.3827
vn -0.9239 -0.0000 -0.3827
vn -0.0000 1.0000 -0.0001
vn -0.0000 1.0000 -0.0000
vn -0.9239 -0.0000 -0.3826
vn -0.9239 -0.0000 0.3826
vn -0.3828 -0.0000 -0.9238
vn 0.9239 -0.0000 0.3827
vn 0.3827 -0.0000 0.9239
vn 0.9239 -0.0000 -0.3827
vn 0.3828 -0.0000 -0.9238
vn -0.3863 -0.0000 0.9224
vn 0.2017 -0.0000 0.9794
vn 0.3863 -0.0000 0.9224
vn -0.2017 -0.0000 0.9794
vt 0.956044 0.015994
vt 0.953819 0.014432
vt 0.955495 0.010529
vt 0.952296 0.013388
vt 0.949763 0.015784
vt 0.950748 0.017353
vt 0.952178 0.019675
vt 0.953695 0.022068
vt 0.947629 0.024325
vt 0.947177 0.021526
vt 0.946778 0.018826
vt 0.941850 0.021250
vt 0.941163 0.024000
vt 0.940644 0.026078
vt 0.934061 0.022848
vt 0.935354 0.021141
vt 0.937065 0.018886
vt 0.931150 0.016217
vt 0.929301 0.017283
vt 0.926995 0.010557
vt 0.920643 0.007499
vt 0.920103 0.016714
vt 0.926228 0.023615
vt 0.961040 0.005258
vt 0.963163 0.004996
vt 0.962984 0.012123
vt 0.960900 0.011660
vt 0.960130 0.018814
vt 0.913977 0.009822
vt 0.910900 0.016175
vt 0.958370 0.017599
vt 0.954842 0.023875
vt 0.958151 0.011063
vt 0.955444 0.006249
vt 0.958187 0.005591
vt 0.953684 0.010205
vt 0.935989 0.013528
vt 0.934800 0.009471
vt 0.936703 0.009458
vt 0.953640 0.006813
vt 0.931988 0.009620
vt 0.937635 0.012678
vt 0.938747 0.016750
vt 0.933602 0.014803
vt 0.929117 0.010148
vt 0.939887 0.015293
vt 0.942550 0.018614
vt 0.943012 0.016820
vt 0.946493 0.016995
vt 0.947972 0.026439
vt 0.919564 0.025922
vt 0.913215 0.022842
vt 0.473134 0.128328
vt 0.469339 0.132413
vt 0.466306 0.125790
vt 0.424769 0.134055
vt 0.430340 0.133850
vt 0.431920 0.176720
vt 0.437491 0.176515
vt 0.435911 0.133645
vt 0.472928 0.122757
vt 0.459683 0.128824
vt 0.459478 0.123252
vt 0.463272 0.119168
vt 0.454205 0.175899
vt 0.448634 0.176104
vt 0.447054 0.133234
vt 0.452625 0.133029
vt 0.441483 0.133439
vt 0.468844 0.118963
vt 0.443062 0.176310
vt 0.531913 0.007508
vt 0.531417 0.006919
vt 0.537387 0.005004
vt 0.529317 0.012561
vt 0.528550 0.012495
vt 0.530281 0.012629
vt 0.532546 0.008238
vt 0.537322 0.005771
vt 0.531784 0.017336
vt 0.536175 0.019602
vt 0.536714 0.013168
vt 0.543148 0.013707
vt 0.540882 0.018099
vt 0.537253 0.006735
vt 0.544112 0.013776
vt 0.541516 0.018829
vt 0.541645 0.009000
vt 0.536042 0.021333
vt 0.536107 0.020566
vt 0.542012 0.019417
vt 0.530465 0.018466
vt 0.531054 0.017970
vt 0.470919 0.175283
vt 0.465348 0.175488
vt 0.463768 0.132618
vt 0.458197 0.132823
vt 0.459776 0.175694
vt 0.544879 0.013841
vt 0.542375 0.008367
vt 0.542963 0.007871
vt 0.426349 0.176926
vt 0.510771 0.910692
vt 0.509911 0.943235
vt 0.491837 0.942758
vt 0.527792 0.911141
vt 0.492697 0.910214
vt 0.473763 0.942280
vt 0.474623 0.909737
vt 0.455689 0.941803
vt 0.456549 0.909259
vt 0.437615 0.941325
vt 0.438475 0.908782
vt 0.419541 0.940848
vt 0.420401 0.908304
vt 0.401467 0.940370
vt 0.402327 0.907827
vt 0.383393 0.939893
vt 0.384253 0.907349
vt 0.365319 0.939415
vt 0.366179 0.906872
vt 0.348299 0.938966
vt 0.349158 0.906422
vt 0.526932 0.943685
s 1
f 6/1/1 1/2/1 2/3/1
f 2/3/2 1/2/2 3/4/2
f 4/5/3 3/4/3 1/2/3
f 1/2/3 5/6/3 4/5/3
f 7/7/4 5/6/4 1/2/4
f 1/2/4 6/1/4 7/7/4
f 8/8/5 7/7/6 6/1/5
f 7/7/7 8/8/7 9/9/8
f 9/9/8 10/10/9 7/7/7
f 5/6/10 7/7/10 10/10/10
f 10/10/10 11/11/10 5/6/10
f 11/11/11 10/10/11 12/12/11
f 13/13/12 12/12/12 10/10/13
f 10/10/13 9/9/13 13/13/12
f 14/14/14 13/13/15 9/9/14
f 13/13/16 14/14/16 15/15/16
f 15/15/16 16/16/16 13/13/16
f 12/12/17 13/13/17 16/16/17
f 16/16/17 17/17/18 12/12/17
f 17/17/19 16/16/19 18/18/19
f 19/19/20 18/18/20 16/16/21
f 16/16/21 15/15/21 19/19/20
f 18/18/22 19/19/22 20/20/23
f 22/21/24 20/20/24 19/19/24
f 21/22/24 19/19/24 15/23/24
f 19/19/24 21/22/24 22/21/24
f 23/24/25 20/25/25 22/26/26
f 22/26/26 24/27/26 23/24/25
f 24/27/27 22/26/28 25/28/27
f 25/29/24 22/21/24 21/22/24
f 21/22/24 26/30/24 25/29/24
f 27/31/29 25/28/29 26/32/30
f 25/28/27 27/31/27 24/27/27
f 26/32/30 8/8/30 27/31/29
f 6/1/5 27/31/5 8/8/5
f 28/33/31 24/27/31 27/31/31
f 27/31/31 6/1/32 28/33/31
f 28/33/33 2/3/33 30/34/33
f 2/3/1 28/33/1 6/1/1
f 24/27/34 28/33/34 29/35/35
f 30/34/33 29/35/33 28/33/33
f 30/34/36 2/3/37 33/36/38
f 32/37/39 30/38/39 31/39/39
f 33/36/38 31/40/36 30/34/36
f 29/41/40 30/38/40 32/37/40
f 3/4/2 33/36/2 2/3/2
f 31/39/39 34/42/39 32/37/39
f 35/43/41 32/37/41 34/42/41
f 36/44/42 32/37/42 35/43/42
f 32/37/40 36/44/40 29/41/40
f 35/43/42 17/17/42 36/44/42
f 23/45/43 29/41/44 36/44/45
f 18/18/19 36/44/46 17/17/19
f 36/44/45 18/18/45 23/45/43
f 34/42/41 37/46/47 35/43/41
f 38/47/48 35/43/48 37/46/48
f 17/17/49 35/43/49 38/47/49
f 12/12/11 38/47/11 11/11/11
f 11/11/50 38/47/50 39/48/50
f 38/47/49 12/12/51 17/17/49
f 37/46/48 39/48/48 38/47/48
f 39/48/50 40/49/50 11/11/50
f 5/6/52 11/11/52 40/49/52
f 40/49/52 4/5/52 5/6/52
f 29/35/35 23/24/35 24/27/34
f 8/8/53 26/32/53 41/50/53
f 26/30/24 21/22/24 14/51/24
f 14/51/24 41/52/24 26/30/24
f 41/50/53 9/9/54 8/8/53
f 9/9/14 41/50/14 14/14/14
f 20/20/23 23/45/23 18/18/22
f 15/23/24 14/51/24 21/22/24
f 42/53/24 43/54/24 47/55/24
f 43/56/55 42/57/55 44/58/55
f 45/59/56 44/58/56 42/57/56
f 42/57/56 46/60/56 45/59/56
f 47/55/24 46/61/24 42/53/24
f 47/55/24 48/62/24 49/63/24
f 48/62/24 47/55/24 43/54/24
f 49/63/24 50/64/24 47/55/24
f 46/61/24 47/55/24 50/64/24
f 51/65/57 52/66/57 50/67/57
f 50/67/57 49/68/57 51/65/57
f 53/69/58 50/67/58 52/66/58
f 50/64/24 53/70/24 46/61/24
f 52/66/58 54/71/58 53/69/58
f 46/60/59 53/69/59 54/71/59
f 56/72/60 54/73/60 52/74/61
f 54/73/60 56/72/60 55/75/61
f 55/75/61 45/76/61 54/73/60
f 54/71/59 45/59/59 46/60/59
f 59/77/62 55/75/62 56/72/59
f 58/78/63 56/72/63 57/79/58
f 52/74/61 57/79/61 56/72/60
f 56/72/59 58/78/59 59/77/62
f 55/75/64 59/77/64 60/80/64
f 61/81/61 60/80/61 59/77/61
f 62/82/61 59/77/61 58/78/61
f 59/77/61 62/82/61 61/81/61
f 62/82/61 65/83/61 63/84/61
f 63/84/61 61/81/61 62/82/61
f 65/83/61 62/82/61 64/85/61
f 58/78/61 64/85/61 62/82/61
f 65/83/65 66/86/65 68/87/65
f 66/86/66 65/83/66 67/88/66
f 64/85/61 67/88/61 65/83/61
f 68/87/65 63/84/65 65/83/65
f 69/89/61 71/90/61 68/87/61
f 68/87/61 70/91/61 69/89/61
f 70/91/61 68/87/61 66/86/61
f 63/84/67 68/87/67 71/90/67
f 44/92/61 72/93/61 71/90/61
f 71/90/61 69/89/61 44/92/61
f 61/81/68 71/90/68 72/93/68
f 71/90/67 61/81/67 63/84/67
f 72/93/68 60/80/68 61/81/68
f 60/80/64 72/93/64 55/75/64
f 45/76/61 55/75/61 72/93/61
f 72/93/61 44/92/61 45/76/61
f 69/94/67 70/95/67 73/96/67
f 48/97/65 73/96/65 70/95/65
f 70/95/65 74/98/65 48/97/65
f 66/86/61 74/99/61 70/91/61
f 49/68/66 48/97/66 74/98/66
f 74/98/66 51/65/66 49/68/66
f 75/100/61 51/101/61 74/99/61
f 74/99/61 66/86/61 75/100/61
f 51/101/61 75/100/61 57/79/61
f 67/88/66 75/100/66 66/86/66
f 64/85/57 57/79/57 75/100/57
f 75/100/57 67/88/57 64/85/57
f 73/96/67 43/54/67 69/94/67
f 43/54/24 73/96/24 48/62/24
f 44/58/55 69/102/55 43/56/55
f 57/79/58 64/85/58 58/78/63
f 57/79/61 52/74/61 51/101/61
f 76/103/69 77/104/69 79/105/69
f 77/104/70 76/103/70 78/106/70
f 79/105/69 80/107/69 76/103/69
f 80/107/71 79/105/71 82/108/71
f 82/108/71 81/109/71 80/107/71
f 81/109/69 82/108/69 83/110/69
f 85/111/71 83/110/71 84/112/71
f 83/110/69 85/111/69 81/109/69
f 84/112/71 86/113/71 85/111/71
f 88/114/69 87/115/69 86/113/69
f 86/113/69 84/112/69 88/114/69
f 87/115/71 88/114/71 89/116/71
f 91/117/69 89/116/69 90/118/69
f 89/116/71 91/117/71 87/115/71
f 90/118/69 92/119/69 91/117/69
f 94/120/71 93/121/71 92/119/71
f 92/119/71 90/118/71 94/120/71
f 93/121/72 94/120/72 95/122/72
f 95/122/72 96/123/72 93/121/72
f 78/106/70 97/124/70 77/104/70
