# Blender 4.4.1
# www.blender.org
o Space_Texturing_to_export.100
v -0.456205 -0.081967 0.004399
v -0.456205 -0.123069 0.045500
v -0.571732 -0.081967 0.004399
v -0.368746 -0.123069 0.045500
v -0.368746 -0.081967 0.004399
v -0.456205 -0.040864 -0.036703
v -0.571732 -0.040864 -0.036703
v -0.368746 -0.040864 -0.036703
v -0.264884 -0.081967 0.004399
v -0.264884 -0.040864 -0.036703
v -0.174476 -0.078662 0.001094
v -0.174476 -0.074735 -0.002834
v -0.174476 -0.040864 -0.036703
v 0.170376 -0.078662 0.001094
v 0.170376 -0.074735 -0.002834
v 0.259101 -0.081967 0.004399
v 0.170376 -0.040864 -0.036703
v 0.259101 -0.040864 -0.036703
v 0.342419 -0.040864 -0.036703
v 0.342419 -0.081967 0.004399
v 0.433518 -0.081967 0.004399
v 0.433518 -0.123069 0.045500
v 0.342419 -0.123069 0.045500
v 0.259101 -0.123069 0.045500
v 0.170376 -0.082590 0.005022
v 0.170376 -0.123069 0.045500
v -0.174476 -0.082590 0.005022
v -0.264884 -0.123069 0.045500
v -0.174476 -0.123069 0.045500
v 0.522163 -0.123069 0.045500
v 0.522163 -0.081967 0.004399
v 0.522163 -0.040864 -0.036703
v 0.433518 -0.040864 -0.036703
v -0.571732 -0.123069 0.045500
v -0.000045 -0.332686 -0.113327
v 0.079596 -0.332686 -0.080339
v -0.000045 -0.130065 -0.113327
v -0.079685 -0.130065 -0.080339
v -0.079685 -0.332686 -0.080339
v -0.085028 -0.336925 -0.085682
v -0.000045 -0.336925 -0.120883
v 0.084939 -0.336925 -0.085682
v -0.000045 -0.553138 -0.120883
v 0.084939 -0.553138 -0.085682
v 0.120140 -0.553138 -0.000698
v 0.084939 -0.553138 0.084285
v 0.120140 -0.336925 -0.000698
v -0.000045 -0.553138 -0.000698
v -0.000045 -0.553138 0.119487
v -0.085028 -0.553138 -0.085682
v -0.120230 -0.553138 -0.000698
v -0.120230 -0.336925 -0.000698
v -0.085028 -0.336925 0.084285
v -0.085028 -0.553138 0.084285
v -0.000045 -0.336925 0.119487
v -0.079685 -0.332686 0.078942
v -0.000045 -0.332686 0.111930
v 0.084939 -0.336925 0.084285
v 0.079596 -0.332686 0.078942
v 0.112584 -0.130065 -0.000698
v 0.112584 -0.332686 -0.000698
v 0.079596 -0.130065 0.078942
v -0.000045 -0.130065 0.111930
v 0.065764 -0.098177 0.065111
v -0.000045 -0.098177 0.092370
v -0.065854 -0.098177 0.065111
v -0.065854 0.000145 0.065111
v -0.000045 0.000145 0.092370
v 0.065764 0.000145 0.065111
v -0.000045 0.087838 0.045872
v 0.032885 0.087838 0.032232
v 0.046525 0.087838 -0.000698
v 0.042455 0.105411 0.041802
v -0.000045 0.105411 0.059406
v -0.042545 0.105411 0.041802
v -0.000045 0.157418 0.059406
v -0.042545 0.157418 0.041802
v -0.060149 0.157418 -0.000698
v -0.048724 0.173024 -0.000698
v -0.034466 0.173024 0.033723
v -0.000045 0.173024 0.047981
v -0.025627 0.173303 0.024884
v -0.036224 0.173303 -0.000698
v -0.025627 0.173303 -0.026281
v -0.036224 0.186744 -0.000698
v -0.025627 0.186744 -0.026281
v -0.000045 0.194407 -0.041174
v -0.028665 0.194407 -0.029319
v -0.000045 0.186744 -0.036878
v -0.000045 0.173303 -0.036878
v 0.025538 0.186744 -0.026281
v 0.028576 0.194407 -0.029319
v 0.040431 0.194407 -0.000698
v 0.032402 0.202071 -0.033145
v 0.045841 0.202071 -0.000698
v 0.032402 0.202071 0.031748
v 0.032402 0.206670 0.031748
v 0.045841 0.206670 -0.000698
v 0.032402 0.206670 -0.033145
v -0.000045 0.202071 -0.046584
v -0.000045 0.206670 -0.046584
v -0.032491 0.202071 -0.033145
v -0.032491 0.206670 -0.033145
v -0.045931 0.202071 -0.000698
v -0.045931 0.206670 -0.000698
v -0.032491 0.206670 0.031748
v -0.032491 0.202071 0.031748
v -0.028665 0.194407 0.027922
v -0.000045 0.194407 0.039777
v -0.000045 0.202071 0.045188
v 0.028576 0.194407 0.027922
v -0.000045 0.206670 0.045188
v 0.025538 0.186744 0.024884
v 0.036135 0.186744 -0.000698
v 0.036135 0.173303 -0.000698
v 0.025538 0.173303 -0.026281
v 0.034377 0.173024 -0.035120
v -0.000045 0.173024 -0.049378
v -0.042545 0.157418 -0.043198
v -0.000045 0.157418 -0.060802
v -0.034466 0.173024 -0.035120
v 0.042455 0.157418 -0.043198
v -0.000045 0.105411 -0.060802
v -0.042545 0.105411 -0.043198
v -0.046615 0.087838 -0.000698
v -0.060149 0.105411 -0.000698
v -0.032975 0.087838 -0.033628
v -0.065854 0.000145 -0.066508
v -0.000045 0.000145 -0.093767
v -0.000045 0.087838 -0.047268
v 0.042455 0.105411 -0.043198
v 0.032885 0.087838 -0.033628
v 0.065764 0.000145 -0.066508
v -0.000045 -0.098177 -0.093767
v 0.065764 -0.098177 -0.066508
v 0.093024 0.000145 -0.000698
v 0.093024 -0.098177 -0.000698
v 0.079596 -0.130065 -0.080339
v -0.065854 -0.098177 -0.066508
v -0.093113 -0.098177 -0.000698
v -0.112673 -0.130065 -0.000698
v -0.079685 -0.130065 0.078942
v -0.112673 -0.332686 -0.000698
v -0.093113 0.000145 -0.000698
v -0.032975 0.087838 0.032232
v 0.060059 0.105411 -0.000698
v 0.060059 0.157418 -0.000698
v 0.042455 0.157418 0.041802
v 0.034377 0.173024 0.033723
v 0.048635 0.173024 -0.000698
v 0.025538 0.173303 0.024884
v -0.000045 0.173303 0.035481
v -0.000045 0.186744 0.035481
v -0.025627 0.186744 0.024884
v -0.040520 0.194407 -0.000698
v 0.013999 0.113987 0.063359
v 0.020054 0.130036 0.051145
v 0.013999 0.113987 0.051145
v 0.020054 0.130036 0.063359
v -0.002050 0.107934 0.063359
v -0.002050 0.111139 0.063359
v 0.011671 0.116315 0.063359
v 0.016847 0.130036 0.063359
v 0.011671 0.116315 0.060915
v -0.002050 0.111139 0.060915
v -0.020947 0.130036 0.060915
v -0.015772 0.116315 0.060915
v -0.002050 0.130036 0.060915
v 0.016847 0.130036 0.060915
v -0.015772 0.143758 0.060915
v -0.002050 0.148933 0.060915
v -0.002050 0.148933 0.063359
v -0.015772 0.143758 0.063359
v 0.011671 0.143758 0.060915
v 0.011671 0.143758 0.063359
v -0.002050 0.152140 0.063359
v 0.013999 0.146087 0.063359
v 0.013999 0.146087 0.051145
v -0.002050 0.152140 0.051145
v -0.018100 0.146087 0.051145
v -0.018100 0.146087 0.063359
v -0.024154 0.130036 0.051145
v -0.024154 0.130036 0.063359
v -0.018100 0.113987 0.051145
v -0.018100 0.113987 0.063359
v -0.002050 0.107934 0.051145
v -0.015772 0.116315 0.063359
v -0.020947 0.130036 0.063359
vn -0.0000 0.7071 0.7071
vn -0.0000 0.7072 0.7071
vn -1.0000 -0.0000 -0.0000
vn 0.1986 0.8547 -0.4795
vn 0.1986 0.8548 -0.4795
vn 0.3827 -0.0000 -0.9239
vn -0.3827 -0.0000 -0.9239
vn -0.1986 0.8548 -0.4795
vn -0.1986 0.8547 -0.4795
vn -0.0000 -1.0000 -0.0000
vn 0.9239 -0.0000 -0.3827
vn 0.9239 -0.0000 0.3827
vn -0.9239 -0.0000 0.3827
vn -0.9239 -0.0000 -0.3827
vn -0.3827 -0.0000 0.9239
vn -0.1986 0.8548 0.4795
vn 0.1986 0.8548 0.4795
vn 0.3827 -0.0000 0.9239
vn 0.4795 0.8548 0.1986
vn 0.4795 0.8547 0.1986
vn 0.8038 0.4931 0.3329
vn 0.8038 0.4930 0.3329
vn 0.3329 0.4930 0.8038
vn -0.3329 0.4930 0.8038
vn -0.3437 0.4399 0.8297
vn 0.3437 0.4399 0.8297
vn 0.3118 -0.5797 0.7528
vn 0.7528 -0.5797 0.3118
vn 0.8297 0.4399 0.3437
vn -0.3118 -0.5797 0.7528
vn -0.7653 0.5603 0.3170
vn -0.7653 0.5602 0.3170
vn -0.3170 0.5603 0.7653
vn -0.0315 0.9994 0.0131
vn -0.0000 1.0000 0.0001
vn -0.0130 0.9994 0.0315
vn -0.0000 1.0000 -0.0000
vn -0.3170 0.5602 0.7653
vn -0.0315 0.9994 0.0130
vn -0.0000 1.0000 -0.0001
vn -0.0315 0.9994 -0.0131
vn -0.0315 0.9994 -0.0130
vn -0.8204 -0.4599 -0.3398
vn -0.3398 -0.4599 -0.8204
vn 0.3398 -0.4599 -0.8204
vn 0.7738 -0.5463 -0.3205
vn 0.8204 -0.4599 -0.3398
vn 0.3205 -0.5463 -0.7738
vn 0.7738 -0.5463 0.3205
vn 0.7739 -0.5463 0.3205
vn -0.7738 -0.5463 0.3205
vn -0.3205 -0.5463 0.7738
vn 0.3205 -0.5463 0.7738
vn 0.3398 -0.4599 0.8204
vn 0.8204 -0.4599 0.3398
vn 0.0315 0.9994 -0.0130
vn 0.0315 0.9994 -0.0131
vn 0.0130 0.9994 -0.0315
vn -0.3170 0.5602 -0.7653
vn 0.3170 0.5602 -0.7653
vn -0.0130 0.9994 -0.0315
vn -0.7653 0.5602 -0.3170
vn -0.7528 -0.5797 -0.3118
vn -0.3118 -0.5797 -0.7528
vn -0.3437 0.4399 -0.8297
vn -0.8297 0.4399 -0.3437
vn 0.3118 -0.5797 -0.7528
vn 0.3437 0.4399 -0.8297
vn 0.8297 0.4399 -0.3437
vn 0.8038 0.4931 -0.3329
vn 0.8038 0.4930 -0.3329
vn 0.3329 0.4930 -0.8038
vn -0.3329 0.4930 -0.8038
vn -0.8038 0.4930 -0.3329
vn -0.8038 0.4930 0.3329
vn -0.4795 0.8548 0.1986
vn -0.4795 0.8548 -0.1986
vn -0.8297 0.4399 0.3437
vn -0.7528 -0.5797 0.3118
vn 0.7528 -0.5797 -0.3118
vn 0.3170 0.5603 0.7653
vn 0.7653 0.5602 0.3170
vn 0.0130 0.9994 0.0315
vn 0.0315 0.9994 0.0130
vn -0.8204 -0.4599 0.3398
vn -0.3398 -0.4599 0.8204
vn -0.7738 -0.5463 -0.3205
vn 0.0315 0.9994 0.0131
vn 0.7653 0.5602 -0.3170
vn -0.3205 -0.5463 -0.7738
vn 0.3205 -0.5463 -0.7739
vn 0.4795 0.8548 -0.1986
vn 0.4795 0.8547 -0.1986
vn 0.9356 -0.3530 -0.0000
vn 0.3529 -0.9357 -0.0000
vn -0.0000 -0.0000 1.0000
vn -0.3529 0.9357 -0.0000
vn -0.3529 0.9356 -0.0000
vn -0.9356 0.3529 -0.0000
vn 0.3529 0.9357 -0.0000
vn -0.3529 -0.9356 -0.0000
vn -0.3529 -0.9357 -0.0000
vn -0.9356 -0.3529 -0.0000
vn 0.9356 0.3530 -0.0000
vn 0.3529 0.9356 -0.0000
vn -0.9357 0.3529 -0.0000
vn 0.9357 0.3529 -0.0000
vn 0.9357 -0.3529 -0.0000
vt 0.587006 0.565498
vt 0.589027 0.572093
vt 0.579286 0.575193
vt 0.599780 0.561369
vt 0.597183 0.554161
vt 0.599735 0.560449
vt 0.577147 0.568751
vt 0.584665 0.559082
vt 0.575078 0.562292
vt 0.565436 0.572517
vt 0.563536 0.565930
vt 0.555226 0.575390
vt 0.555100 0.574746
vt 0.553392 0.569338
vt 0.515336 0.582474
vt 0.515211 0.581827
vt 0.505615 0.586198
vt 0.503332 0.579839
vt 0.513111 0.576461
vt 0.496211 0.589201
vt 0.494040 0.582767
vt 0.485976 0.592620
vt 0.488270 0.599042
vt 0.498249 0.595676
vt 0.507472 0.592824
vt 0.515458 0.583120
vt 0.517449 0.589594
vt 0.555355 0.576035
vt 0.567770 0.578868
vt 0.557879 0.582434
vt 0.478652 0.602728
vt 0.004183 0.005005
vt 0.476163 0.596432
vt 0.476206 0.595887
vt 0.473928 0.589528
vt 0.483868 0.586074
vt 0.602029 0.567738
vt 0.701488 0.809468
vt 0.701081 0.810419
vt 0.690684 0.809794
vt 0.701809 0.834223
vt 0.640879 0.846842
vt 0.633185 0.852780
vt 0.621161 0.830757
vt 0.629801 0.825116
vt 0.629351 0.824254
vt 0.620336 0.830065
vt 0.609255 0.805615
vt 0.690675 0.808846
vt 0.689165 0.783847
vt 0.700307 0.783914
vt 0.598987 0.802171
vt 0.594095 0.792428
vt 0.677397 0.784366
vt 0.608314 0.791321
vt 0.597499 0.782060
vt 0.665421 0.785785
vt 0.680078 0.809336
vt 0.622571 0.790190
vt 0.607230 0.777122
vt 0.619274 0.800488
vt 0.648922 0.815724
vt 0.638966 0.819567
vt 0.630195 0.795617
vt 0.641643 0.791452
vt 0.617604 0.780497
vt 0.659143 0.812739
vt 0.653444 0.788150
vt 0.649206 0.816627
vt 0.659366 0.813655
vt 0.669553 0.810620
vt 0.669715 0.811549
vt 0.682923 0.833584
vt 0.674027 0.834497
vt 0.680178 0.810275
vt 0.674693 0.838726
vt 0.665361 0.836219
vt 0.666445 0.840358
vt 0.658437 0.842814
vt 0.662769 0.853462
vt 0.669476 0.851441
vt 0.672731 0.862957
vt 0.676399 0.850111
vt 0.678005 0.862046
vt 0.673177 0.865471
vt 0.678179 0.864613
vt 0.683275 0.861637
vt 0.668271 0.866782
vt 0.670137 0.872694
vt 0.674487 0.871588
vt 0.665870 0.874150
vt 0.666698 0.876237
vt 0.670746 0.874887
vt 0.667164 0.877543
vt 0.671069 0.876245
vt 0.674896 0.873844
vt 0.663474 0.879070
vt 0.664181 0.880532
vt 0.667732 0.879067
vt 0.664522 0.881497
vt 0.661129 0.882828
vt 0.661019 0.881919
vt 0.660327 0.880798
vt 0.690837 0.874368
vt 0.690738 0.875717
vt 0.687201 0.875737
vt 0.687248 0.876793
vt 0.691009 0.876635
vt 0.683448 0.877941
vt 0.683389 0.876858
vt 0.687326 0.877888
vt 0.679648 0.878805
vt 0.679585 0.878263
vt 0.683486 0.878486
vt 0.687370 0.878431
vt 0.691373 0.877672
vt 0.691428 0.878211
vt 0.661344 0.884408
vt 0.661190 0.883889
vt 0.664842 0.882521
vt 0.665007 0.883039
vt 0.668355 0.881071
vt 0.668514 0.881592
vt 0.671996 0.879844
vt 0.672127 0.880373
vt 0.671749 0.878801
vt 0.675576 0.877842
vt 0.675753 0.878900
vt 0.679476 0.877193
vt 0.675850 0.879436
vt 0.679369 0.876172
vt 0.683341 0.875820
vt 0.683294 0.874165
vt 0.687298 0.874065
vt 0.687600 0.872681
vt 0.691756 0.873259
vt 0.661604 0.875992
vt 0.662756 0.877865
vt 0.658973 0.880123
vt 0.657132 0.878600
vt 0.692899 0.871166
vt 0.687991 0.870471
vt 0.693584 0.864741
vt 0.658950 0.870738
vt 0.654383 0.873157
vt 0.662622 0.866206
vt 0.663525 0.868540
vt 0.658035 0.868464
vt 0.644060 0.865020
vt 0.650055 0.859962
vt 0.654053 0.870940
vt 0.692854 0.862204
vt 0.688260 0.864355
vt 0.688355 0.861731
vt 0.690989 0.849664
vt 0.698955 0.850882
vt 0.700365 0.838622
vt 0.691817 0.837801
vt 0.683548 0.849482
vt 0.683164 0.837880
vt 0.692103 0.833455
vt 0.636793 0.855811
vt 0.643378 0.850492
vt 0.650708 0.846163
vt 0.648762 0.842299
vt 0.656931 0.838796
vt 0.639312 0.820455
vt 0.656289 0.856243
vt 0.667568 0.864352
vt 0.683212 0.864231
vt 0.678910 0.870845
vt 0.683389 0.870465
vt 0.679115 0.873134
vt 0.683359 0.872751
vt 0.675096 0.875235
vt 0.679192 0.874543
vt 0.671501 0.877811
vt 0.675400 0.876835
vt 0.668047 0.880041
vt 0.148735 0.008454
vt 0.147393 0.008754
vt 0.146597 0.006899
vt 0.147250 0.005755
vt 0.144544 0.006306
vt 0.146377 0.007187
vt 0.144581 0.006663
vt 0.144635 0.006923
vt 0.146378 0.007187
vt 0.147020 0.008785
vt 0.146208 0.007399
vt 0.147019 0.008785
vt 0.144744 0.009006
vt 0.142667 0.009164
vt 0.143152 0.007614
vt 0.146773 0.008848
vt 0.144893 0.011097
vt 0.143353 0.010627
vt 0.144950 0.011359
vt 0.143208 0.010847
vt 0.146338 0.010399
vt 0.146558 0.010544
vt 0.144988 0.011717
vt 0.146842 0.010775
vt 0.147990 0.011449
vt 0.145307 0.013028
vt 0.142301 0.012274
vt 0.142976 0.011130
vt 0.140737 0.009572
vt 0.142047 0.009258
vt 0.141511 0.006557
vt 0.142651 0.007236
vt 0.144230 0.004993
vt 0.142933 0.007468
vt 0.142405 0.009221
vt 0.142933 0.007469
s 1
f 1/1/1 2/2/1 4/3/1
f 2/2/1 1/1/1 3/4/1
f 7/5/1 3/6/1 1/1/1
f 4/3/1 5/7/1 1/1/1
f 6/8/1 1/1/1 5/7/1
f 1/1/1 6/8/1 7/5/1
f 5/7/1 8/9/1 6/8/1
f 8/9/1 5/7/1 9/10/1
f 9/10/1 10/11/1 8/9/1
f 10/11/1 9/10/1 11/12/1
f 11/12/1 12/13/2 10/11/1
f 10/11/1 12/13/2 13/14/1
f 12/13/2 11/12/1 14/15/1
f 14/15/1 15/16/1 12/13/2
f 15/16/1 14/15/1 16/17/1
f 16/17/1 18/18/1 15/16/1
f 15/16/1 18/18/1 17/19/1
f 18/18/1 16/17/1 20/20/1
f 20/20/1 19/21/1 18/18/1
f 19/21/1 20/20/1 21/22/1
f 22/23/1 21/22/1 20/20/1
f 20/20/1 23/24/1 22/23/1
f 23/24/1 20/20/1 16/17/1
f 16/17/1 24/25/1 23/24/1
f 24/25/1 16/17/1 14/15/1
f 14/15/1 25/26/1 24/25/1
f 24/25/1 25/26/1 26/27/1
f 25/26/1 14/15/1 11/12/1
f 11/12/1 27/28/1 25/26/1
f 27/28/1 11/12/1 9/10/1
f 9/10/1 28/29/1 27/28/1
f 27/28/1 28/29/1 29/30/1
f 28/29/1 9/10/1 5/7/1
f 5/7/1 4/3/1 28/29/1
f 21/22/1 22/23/1 30/31/1
f 31/32/3 30/32/3 32/32/3
f 30/31/1 31/33/1 21/22/1
f 31/34/1 32/35/1 33/36/1
f 33/36/1 21/22/1 31/34/1
f 21/22/1 33/36/1 19/21/1
f 3/4/1 34/37/1 2/2/1
f 41/38/4 35/39/4 36/40/5
f 36/40/6 35/39/6 37/41/6
f 38/42/7 37/43/7 35/44/7
f 35/44/7 39/45/7 38/42/7
f 40/46/8 39/45/8 35/44/9
f 35/44/9 41/47/9 40/46/8
f 40/46/7 41/47/7 43/48/7
f 36/40/5 42/49/5 41/38/4
f 41/38/6 42/49/6 44/50/6
f 44/50/6 43/51/6 41/38/6
f 43/48/10 44/52/10 45/53/10
f 45/54/11 44/50/11 42/49/11
f 48/55/10 45/53/10 46/56/10
f 46/57/12 45/54/12 47/58/12
f 42/49/11 47/58/11 45/54/11
f 45/53/10 48/55/10 43/48/10
f 51/59/10 48/55/10 49/60/10
f 46/56/10 49/60/10 48/55/10
f 48/55/10 51/59/10 50/61/10
f 50/61/10 43/48/10 48/55/10
f 53/62/13 52/63/13 51/64/13
f 50/61/14 51/64/14 52/63/14
f 51/64/13 54/65/13 53/62/13
f 49/60/10 54/66/10 51/59/10
f 55/67/15 53/62/15 54/65/15
f 54/65/15 49/68/15 55/67/15
f 56/69/16 53/62/16 55/67/16
f 55/67/16 57/70/16 56/69/16
f 57/70/17 55/67/17 58/71/17
f 58/71/18 55/67/18 49/68/18
f 49/68/18 46/57/18 58/71/18
f 47/58/12 58/71/12 46/57/12
f 59/72/19 58/71/19 47/58/20
f 58/71/17 59/72/17 57/70/17
f 60/73/12 62/74/12 59/72/12
f 59/72/12 61/75/12 60/73/12
f 47/58/20 61/75/20 59/72/19
f 57/70/18 59/72/18 62/74/18
f 64/76/21 62/74/21 60/73/22
f 62/74/18 63/77/18 57/70/18
f 65/78/23 63/77/23 62/74/23
f 62/74/23 64/76/23 65/78/23
f 63/77/24 65/78/24 66/79/24
f 67/80/15 66/79/15 65/78/15
f 68/81/18 65/78/18 64/76/18
f 65/78/15 68/81/15 67/80/15
f 67/80/25 68/81/25 70/82/25
f 68/81/26 69/83/26 71/84/26
f 64/76/18 69/83/18 68/81/18
f 71/84/26 70/82/26 68/81/26
f 74/85/27 70/82/27 71/84/27
f 73/86/28 71/84/28 72/87/28
f 72/87/29 71/84/29 69/83/29
f 71/84/27 73/86/27 74/85/27
f 70/82/30 74/85/30 75/88/30
f 77/89/15 75/88/15 74/85/15
f 76/90/18 74/85/18 73/86/18
f 74/85/15 76/90/15 77/89/15
f 75/88/13 77/89/13 78/91/13
f 79/92/31 78/91/32 77/89/31
f 77/89/31 80/93/31 79/92/31
f 80/93/33 77/89/33 76/90/33
f 83/94/34 79/92/35 80/93/35
f 82/95/36 80/93/37 81/96/37
f 76/90/33 81/96/38 80/93/33
f 80/93/35 82/95/39 83/94/34
f 79/92/40 83/94/41 84/97/42
f 86/98/14 84/97/14 83/94/14
f 83/94/14 85/99/14 86/98/14
f 85/99/13 83/94/13 82/95/13
f 88/100/43 86/98/43 85/99/43
f 86/98/44 88/100/44 87/101/44
f 87/101/44 89/102/44 86/98/44
f 84/97/7 86/98/7 89/102/7
f 89/102/7 90/103/7 84/97/7
f 90/104/6 89/105/6 91/106/6
f 92/107/45 91/106/45 89/105/45
f 89/105/45 87/108/45 92/107/45
f 95/109/46 93/110/46 92/107/46
f 91/106/47 92/107/47 93/110/47
f 92/107/46 94/111/46 95/109/46
f 94/111/48 92/107/48 87/108/48
f 97/112/12 96/113/12 95/109/12
f 93/110/49 95/109/50 96/113/49
f 98/114/11 95/109/11 94/111/11
f 95/109/12 98/114/12 97/112/12
f 94/111/11 99/115/11 98/114/11
f 100/116/6 101/117/6 99/115/6
f 99/115/6 94/111/6 100/116/6
f 101/118/7 100/119/7 102/120/7
f 102/120/7 103/121/7 101/118/7
f 103/121/14 102/120/14 104/122/14
f 104/122/14 105/123/14 103/121/14
f 105/123/13 104/122/13 107/124/13
f 107/124/13 106/125/13 105/123/13
f 108/126/51 107/124/51 104/122/51
f 107/124/52 108/126/52 109/127/52
f 109/127/52 110/128/52 107/124/52
f 106/125/15 107/124/15 110/128/15
f 111/129/53 96/113/53 110/128/53
f 110/128/53 109/127/53 111/129/53
f 112/130/18 110/128/18 96/113/18
f 110/128/15 112/130/15 106/125/15
f 96/113/18 97/112/18 112/130/18
f 113/131/54 111/129/54 109/127/54
f 96/113/49 111/129/49 93/110/49
f 114/132/55 93/110/55 111/129/55
f 111/129/55 113/131/55 114/132/55
f 115/133/12 114/132/12 113/131/12
f 114/132/11 115/133/11 116/134/11
f 116/134/11 91/106/11 114/132/11
f 93/110/47 114/132/47 91/106/47
f 117/135/40 116/134/56 115/133/57
f 91/106/6 116/134/6 90/104/6
f 118/136/37 90/104/58 116/134/58
f 116/134/58 117/135/40 118/136/37
f 119/137/59 121/138/59 118/139/59
f 118/139/59 120/140/59 119/137/59
f 120/141/60 118/136/60 117/135/60
f 90/103/61 118/139/37 121/138/37
f 78/91/62 79/92/62 121/138/62
f 121/138/62 119/137/62 78/91/62
f 84/97/42 121/138/37 79/92/40
f 121/138/37 84/97/61 90/103/61
f 117/135/60 122/142/60 120/141/60
f 123/143/6 120/141/6 122/142/6
f 124/144/7 119/137/7 120/140/7
f 120/140/7 123/145/7 124/144/7
f 125/146/63 126/147/63 124/144/63
f 124/144/63 127/148/63 125/146/63
f 119/137/14 124/144/14 126/147/14
f 127/148/64 124/144/64 123/145/64
f 129/149/65 128/150/65 127/148/65
f 125/146/66 127/148/66 128/150/66
f 127/148/65 130/151/65 129/149/65
f 123/145/64 130/151/64 127/148/64
f 130/152/67 123/143/67 131/153/67
f 131/153/67 132/154/67 130/152/67
f 130/152/68 132/154/68 133/155/68
f 133/155/68 129/156/68 130/152/68
f 134/157/6 129/156/6 133/155/6
f 133/155/6 135/158/6 134/157/6
f 135/158/11 133/155/11 136/159/11
f 136/159/69 133/155/69 132/154/69
f 137/160/12 136/159/12 69/83/12
f 136/159/11 137/160/11 135/158/11
f 69/83/29 136/159/29 72/87/29
f 132/154/69 72/87/69 136/159/69
f 138/161/70 135/158/70 137/160/71
f 137/160/71 60/73/71 138/161/70
f 60/73/22 137/160/22 64/76/21
f 69/83/12 64/76/12 137/160/12
f 61/75/11 36/40/11 138/161/11
f 37/41/6 138/161/6 36/40/6
f 138/161/11 60/73/11 61/75/11
f 135/158/72 138/161/72 37/41/72
f 37/41/72 134/157/72 135/158/72
f 129/149/7 134/162/7 139/163/7
f 38/42/73 139/163/73 134/162/73
f 134/162/73 37/43/73 38/42/73
f 128/150/14 139/163/14 140/164/14
f 141/165/74 140/164/74 139/163/74
f 139/163/7 128/150/7 129/149/7
f 139/163/74 38/42/74 141/165/74
f 140/164/75 141/165/75 142/166/75
f 142/166/13 141/165/13 143/167/13
f 39/45/14 143/167/14 141/165/14
f 141/165/14 38/42/14 39/45/14
f 143/167/13 56/69/13 142/166/13
f 53/62/76 56/69/76 143/167/76
f 52/63/77 143/167/77 39/45/77
f 143/167/76 52/63/76 53/62/76
f 63/77/15 142/166/15 56/69/15
f 142/166/75 66/79/75 140/164/75
f 66/79/24 142/166/24 63/77/24
f 140/164/14 144/168/14 128/150/14
f 144/168/13 140/164/13 66/79/13
f 128/150/66 144/168/66 125/146/66
f 144/168/78 67/80/78 145/169/78
f 66/79/13 67/80/13 144/168/13
f 145/169/78 125/146/78 144/168/78
f 75/88/30 145/169/30 70/82/30
f 70/82/25 145/169/25 67/80/25
f 145/169/79 75/88/79 126/147/79
f 126/147/79 125/146/79 145/169/79
f 146/170/80 72/87/80 132/154/80
f 132/154/80 131/153/80 146/170/80
f 72/87/28 146/170/28 73/86/28
f 148/171/12 73/86/12 146/170/12
f 147/172/11 146/170/11 131/153/11
f 146/170/12 147/172/12 148/171/12
f 73/86/18 148/171/18 76/90/18
f 81/96/81 76/90/81 148/171/81
f 149/173/82 148/171/82 147/172/82
f 148/171/81 149/173/81 81/96/81
f 147/172/82 150/174/82 149/173/82
f 152/175/83 81/96/37 149/173/37
f 151/176/84 149/173/37 150/174/35
f 149/173/37 151/176/83 152/175/83
f 81/96/37 152/175/36 82/95/36
f 154/177/15 82/95/15 152/175/15
f 153/178/18 152/175/18 151/176/18
f 152/175/15 153/178/15 154/177/15
f 155/179/85 85/99/85 154/177/85
f 82/95/13 154/177/13 85/99/13
f 108/126/86 154/177/86 153/178/86
f 154/177/85 108/126/85 155/179/85
f 104/122/51 155/179/51 108/126/51
f 155/179/87 104/122/87 102/120/87
f 102/120/87 88/100/87 155/179/87
f 85/99/43 155/179/43 88/100/43
f 151/176/18 113/131/18 153/178/18
f 109/127/54 153/178/54 113/131/54
f 153/178/86 109/127/86 108/126/86
f 113/131/12 151/176/12 115/133/12
f 150/174/35 115/133/88 151/176/84
f 122/142/89 117/135/89 150/174/89
f 150/174/89 147/172/89 122/142/89
f 115/133/57 150/174/40 117/135/40
f 131/153/11 122/142/11 147/172/11
f 122/142/6 131/153/6 123/143/6
f 78/91/13 126/147/13 75/88/13
f 126/147/14 78/91/14 119/137/14
f 88/100/90 102/120/90 100/119/90
f 87/108/48 100/116/91 94/111/48
f 100/119/90 87/101/90 88/100/90
f 56/69/15 57/70/15 63/77/15
f 42/49/92 36/40/92 61/75/93
f 61/75/93 47/58/93 42/49/92
f 52/63/14 40/46/14 50/61/14
f 39/45/77 40/46/77 52/63/77
f 43/48/7 50/61/7 40/46/7
f 157/180/94 159/181/94 156/182/94
f 156/182/94 158/183/94 157/180/94
f 158/183/95 156/182/95 160/184/95
f 162/185/96 156/182/96 159/181/96
f 161/186/96 160/184/96 156/182/96
f 156/182/96 162/185/96 161/186/96
f 165/187/97 161/186/97 162/188/98
f 159/181/96 163/189/96 162/185/96
f 164/190/99 162/188/99 163/191/99
f 162/188/98 164/190/98 165/187/97
f 165/187/96 168/192/96 166/193/96
f 166/193/96 167/194/96 165/187/96
f 161/186/100 165/187/100 167/194/100
f 168/192/96 165/187/96 164/190/96
f 164/190/96 169/195/96 168/192/96
f 171/196/96 168/192/96 169/195/96
f 168/192/96 171/196/96 170/197/96
f 170/197/96 166/193/96 168/192/96
f 171/196/95 172/198/95 173/199/95
f 172/198/101 171/196/101 174/200/102
f 173/199/95 170/197/95 171/196/95
f 169/195/96 174/200/96 171/196/96
f 174/200/102 175/201/102 172/198/101
f 175/201/103 174/200/103 169/195/103
f 176/202/96 172/198/96 175/201/96
f 169/195/103 163/191/103 175/201/103
f 177/203/96 175/201/96 163/189/96
f 175/201/96 177/203/96 176/202/96
f 163/189/96 159/181/96 177/203/96
f 178/204/104 177/203/104 159/181/104
f 177/203/105 178/204/105 179/205/105
f 179/205/105 176/202/105 177/203/105
f 176/202/97 179/205/97 180/206/97
f 181/207/106 180/206/106 182/208/106
f 180/206/97 181/207/97 176/202/97
f 182/208/106 183/209/106 181/207/106
f 183/209/103 182/208/103 184/210/103
f 184/210/103 185/211/103 183/209/103
f 185/211/102 184/210/102 186/212/102
f 186/212/102 160/184/102 185/211/102
f 160/184/95 186/212/95 158/183/95
f 187/213/96 185/211/96 160/184/96
f 188/214/96 183/209/96 185/211/96
f 185/211/96 187/213/96 188/214/96
f 183/209/96 188/214/96 173/199/96
f 166/193/107 188/214/107 187/215/107
f 188/214/108 166/193/108 170/197/108
f 170/197/108 173/199/108 188/214/108
f 187/215/107 167/194/107 166/193/107
f 167/194/100 187/215/100 161/186/100
f 160/184/96 161/186/96 187/213/96
f 173/199/96 181/207/96 183/209/96
f 181/207/96 173/199/96 172/198/96
f 172/198/96 176/202/96 181/207/96
f 159/181/104 157/180/104 178/204/104
f 163/191/99 169/195/99 164/190/99
