# Blender 4.4.1
# www.blender.org
o Space_Texturing_to_export.008
v 0.039072 0.027124 -0.000001
v 0.039114 0.027124 -0.005483
v 0.032208 -0.000000 -0.000001
v 0.000001 -0.000000 -0.000001
v 0.006865 0.027124 -0.000001
v 0.047485 0.067190 -0.005483
v 0.047485 0.067190 0.008542
v 0.039114 0.027124 0.008542
v 0.006907 0.027124 0.008542
v 0.015279 0.067190 0.008542
v 0.017322 0.083987 0.008542
v 0.049529 0.083987 0.008542
v 0.006907 0.027124 -0.005483
v 0.015279 0.067190 -0.005483
v 0.017322 0.083987 -0.005483
v 0.002870 -0.000000 -0.021349
v 0.008768 0.027124 -0.021349
v 0.049529 0.083987 -0.005483
v 0.037174 0.027124 -0.021349
v 0.031276 -0.000000 -0.021349
v 0.026507 0.055385 -0.326718
v 0.025935 0.054813 -0.329327
v 0.025935 0.057994 -0.326147
v 0.029115 0.057994 -0.324947
v 0.029115 0.054813 -0.326147
v 0.029115 0.053614 -0.329327
v 0.029115 0.054813 -0.332507
v 0.031723 0.055385 -0.331935
v 0.032294 0.054813 -0.329327
v 0.032294 0.057994 -0.332507
v 0.033494 0.057994 -0.329327
v 0.031723 0.055385 -0.326718
v 0.032294 0.057994 -0.326147
v 0.031723 0.060603 -0.326718
v 0.032294 0.061174 -0.329327
v 0.029115 0.061174 -0.332507
v 0.031723 0.060603 -0.331935
v 0.029115 0.062374 -0.329327
v 0.025935 0.061174 -0.329327
v 0.026507 0.060603 -0.331935
v 0.029115 0.061174 -0.326147
v 0.026507 0.060603 -0.326718
v 0.024735 0.057994 -0.329327
v 0.025935 0.057994 -0.332507
v 0.026507 0.055385 -0.331935
v 0.029115 0.057994 -0.333706
v 0.012971 0.100096 0.012096
v 0.012017 0.083043 -0.009037
v 0.012971 0.100096 -0.009037
v 0.012017 0.083043 0.012096
v 0.012971 0.101474 0.012096
v 0.055773 0.100096 0.012096
v 0.012971 0.101474 -0.009037
v 0.051203 0.097278 0.012096
v 0.017208 0.097278 0.012096
v 0.016587 0.085861 0.012096
v 0.051203 0.097278 0.010089
v 0.017208 0.097278 0.010089
v 0.016587 0.085861 0.010089
v 0.050583 0.085861 0.012096
v 0.050583 0.085861 0.010089
v 0.054819 0.083043 0.012096
v 0.055773 0.100096 -0.009037
v 0.054819 0.083043 -0.009037
v 0.055773 0.101474 0.012096
v 0.055773 0.101474 -0.009037
v 0.054819 0.118527 -0.009037
v 0.054819 0.118527 0.012096
v 0.012017 0.118527 0.012096
v 0.050583 0.115709 0.012096
v 0.051203 0.104292 0.012096
v 0.017208 0.104292 0.012096
v 0.051203 0.104292 0.010089
v 0.017208 0.104292 0.010089
v 0.050583 0.115709 0.010089
v 0.016587 0.115709 0.010089
v 0.016587 0.115709 0.012096
v 0.012017 0.118527 -0.009037
v 0.020068 0.004639 -0.000610
v 0.013687 0.007061 -0.000610
v 0.020068 0.004639 0.003147
v 0.026448 0.007061 0.003147
v 0.026448 0.007061 -0.000610
v 0.029092 0.012907 0.003147
v 0.029092 0.012907 -0.000610
v 0.026448 0.018754 0.003147
v 0.026448 0.018754 -0.000610
v 0.020068 0.021175 0.003147
v 0.020068 0.021175 -0.000610
v 0.013687 0.018754 0.003147
v 0.013687 0.018754 -0.000610
v 0.011045 0.012907 0.003147
v 0.011045 0.012907 -0.000610
v 0.013687 0.007061 0.003147
v 0.020068 0.012907 0.003147
v 0.026507 0.055385 -0.130248
v 0.025935 0.054813 -0.132856
v 0.025935 0.057994 -0.129676
v 0.029115 0.057994 -0.128477
v 0.029115 0.054813 -0.129676
v 0.029115 0.053614 -0.132856
v 0.032294 0.054813 -0.132856
v 0.029115 0.054813 -0.136036
v 0.031723 0.055385 -0.135465
v 0.029115 0.057994 -0.137236
v 0.032294 0.057994 -0.136036
v 0.029115 0.061174 -0.136036
v 0.031723 0.060603 -0.135465
v 0.033494 0.057994 -0.132856
v 0.032294 0.061174 -0.132856
v 0.032294 0.057994 -0.129676
v 0.031723 0.055385 -0.130248
v 0.031723 0.060603 -0.130248
v 0.029115 0.061174 -0.129676
v 0.029115 0.062374 -0.132856
v 0.025935 0.061174 -0.132856
v 0.026507 0.060603 -0.135465
v 0.025935 0.057994 -0.136036
v 0.026507 0.055385 -0.135465
v 0.024735 0.057994 -0.132856
v 0.026507 0.060603 -0.130248
v 0.032235 0.201569 -0.000001
v 0.031303 0.201569 -0.021349
v 0.039141 0.174445 -0.005483
v 0.039099 0.174445 -0.000001
v 0.006892 0.174445 -0.000001
v 0.000028 0.201569 -0.000001
v 0.006934 0.174445 -0.005483
v 0.008795 0.174445 -0.021349
v 0.002897 0.201569 -0.021349
v 0.015306 0.134379 -0.005483
v 0.015306 0.134379 0.008542
v 0.017349 0.117582 -0.005483
v 0.017349 0.117582 0.008542
v 0.049556 0.117582 0.008542
v 0.047512 0.134379 0.008542
v 0.039141 0.174445 0.008542
v 0.047512 0.134379 -0.005483
v 0.049556 0.117582 -0.005483
v 0.006934 0.174445 0.008542
v 0.037201 0.174445 -0.021349
v 0.026507 0.144732 -0.326718
v 0.025935 0.144160 -0.329327
v 0.025935 0.147340 -0.326147
v 0.029115 0.147340 -0.324947
v 0.029115 0.144160 -0.326147
v 0.029115 0.142961 -0.329327
v 0.029115 0.144160 -0.332507
v 0.031723 0.144732 -0.331935
v 0.032294 0.144160 -0.329327
v 0.032294 0.147340 -0.332507
v 0.033494 0.147340 -0.329327
v 0.031723 0.144732 -0.326718
v 0.032294 0.147340 -0.326147
v 0.031723 0.149948 -0.326718
v 0.032294 0.150520 -0.329327
v 0.029115 0.150520 -0.332507
v 0.031723 0.149948 -0.331935
v 0.029115 0.151720 -0.329327
v 0.025935 0.150520 -0.329327
v 0.026507 0.149948 -0.331935
v 0.029115 0.150520 -0.326147
v 0.026507 0.149948 -0.326718
v 0.024735 0.147340 -0.329327
v 0.025935 0.147340 -0.332507
v 0.026507 0.144732 -0.331935
v 0.029115 0.147340 -0.333706
v 0.020068 0.179272 -0.000610
v 0.013687 0.181693 -0.000610
v 0.020068 0.179272 0.003147
v 0.026448 0.181693 0.003147
v 0.026448 0.181693 -0.000610
v 0.029092 0.187540 -0.000610
v 0.029092 0.187540 0.003147
v 0.026448 0.193386 0.003147
v 0.020068 0.187540 0.003147
v 0.013687 0.193386 0.003147
v 0.013687 0.181693 0.003147
v 0.011045 0.187540 0.003147
v 0.011045 0.187540 -0.000610
v 0.013687 0.193386 -0.000610
v 0.020068 0.195808 -0.000610
v 0.020068 0.195808 0.003147
v 0.026448 0.193386 -0.000610
v 0.026507 0.144732 -0.130248
v 0.025935 0.144160 -0.132856
v 0.025935 0.147340 -0.129676
v 0.029115 0.147340 -0.128477
v 0.029115 0.144160 -0.129676
v 0.029115 0.142961 -0.132856
v 0.031723 0.144732 -0.135465
v 0.032294 0.144160 -0.132856
v 0.029115 0.144160 -0.136036
v 0.025935 0.147340 -0.136036
v 0.026507 0.144732 -0.135465
v 0.029115 0.147340 -0.137236
v 0.026507 0.149948 -0.135465
v 0.029115 0.150520 -0.136036
v 0.032294 0.147340 -0.136036
v 0.031723 0.149948 -0.135465
v 0.033494 0.147340 -0.132856
v 0.032294 0.150520 -0.132856
v 0.032294 0.147340 -0.129676
v 0.031723 0.144732 -0.130248
v 0.031723 0.149948 -0.130248
v 0.029115 0.150520 -0.129676
v 0.029115 0.151720 -0.132856
v 0.025935 0.150520 -0.132856
v 0.024735 0.147340 -0.132856
v 0.026507 0.149948 -0.130248
vn 0.9787 -0.2052 0.0021
vn 0.9694 -0.2453 0.0074
vn -0.0000 -0.0000 1.0000
vn -0.0000 -1.0000 -0.0000
vn 0.9787 -0.2052 0.0020
vn 0.9791 -0.2033 -0.0035
vn 0.9788 -0.2050 0.0004
vn 0.9789 -0.2045 -0.0048
vn -0.9790 0.2037 0.0034
vn -0.9789 0.2044 0.0027
vn -0.9788 0.2045 0.0048
vn -0.9926 0.1211 -0.0000
vn -0.9787 0.2052 -0.0021
vn -0.9927 0.1207 -0.0000
vn -0.9686 0.2162 -0.1231
vn -0.9685 0.2163 -0.1232
vn -0.9694 0.2453 -0.0074
vn 0.9927 -0.1208 -0.0000
vn 0.9688 -0.2362 -0.0748
vn 0.9688 -0.2361 -0.0748
vn -0.3060 -0.9015 0.3060
vn -0.3061 -0.9014 0.3062
vn -0.9014 -0.3061 0.3061
vn -0.9015 -0.3060 0.3061
vn -0.9015 -0.3061 0.3061
vn -0.3061 -0.3060 0.9015
vn -0.3061 -0.3062 0.9014
vn -0.3061 -0.3059 0.9015
vn -0.3061 -0.9015 0.3061
vn 0.3061 -0.9015 -0.3060
vn 0.3061 -0.9014 -0.3061
vn -0.3061 -0.9014 -0.3061
vn -0.3061 -0.9014 -0.3063
vn -0.3061 -0.9015 -0.3061
vn 0.3060 -0.9014 -0.3062
vn 0.3061 -0.9014 0.3062
vn 0.3060 -0.9015 0.3061
vn 0.3061 -0.9014 0.3061
vn 0.9015 -0.3060 -0.3061
vn 0.9014 -0.3063 -0.3061
vn 0.9016 -0.3058 -0.3061
vn 0.9015 -0.3060 0.3061
vn 0.9014 -0.3061 0.3061
vn 0.3062 -0.9013 0.3063
vn 0.3061 -0.3061 0.9015
vn 0.9015 -0.3062 0.3060
vn 0.3061 0.3060 0.9015
vn 0.3061 0.3061 0.9014
vn 0.9015 0.3061 0.3061
vn 0.9015 0.3060 0.3061
vn 0.9014 0.3061 0.3061
vn 0.3061 -0.3061 0.9014
vn 0.9014 0.3063 0.3061
vn 0.3061 0.9015 -0.3060
vn 0.3060 0.9015 -0.3060
vn 0.3061 0.9015 -0.3061
vn 0.3062 0.9014 -0.3061
vn 0.9015 0.3061 -0.3061
vn 0.9015 0.3058 -0.3062
vn 0.3061 0.9015 0.3060
vn 0.3061 0.9014 0.3062
vn -0.3061 0.9015 -0.3061
vn -0.3061 0.9014 -0.3061
vn -0.3061 0.9015 0.3061
vn -0.3061 0.9014 0.3062
vn 0.3061 0.3061 0.9015
vn -0.3060 0.9015 0.3060
vn -0.3061 0.3061 0.9015
vn -0.3061 0.3060 0.9015
vn -0.9014 0.3061 0.3061
vn -0.9015 0.3060 0.3061
vn -0.9014 0.3062 0.3061
vn -0.9014 -0.3061 -0.3062
vn -0.9015 -0.3061 -0.3061
vn -0.9015 0.3061 -0.3061
vn -0.9014 0.3061 -0.3061
vn -0.9014 -0.3061 -0.3061
vn -0.3060 -0.9016 -0.3059
vn -0.3061 -0.3060 -0.9015
vn -0.3061 -0.3061 -0.9015
vn -0.3060 0.3060 -0.9015
vn -0.3061 0.3061 -0.9014
vn -0.3061 0.3059 -0.9015
vn 0.3061 -0.3060 -0.9015
vn 0.3060 -0.3061 -0.9015
vn 0.3061 -0.3059 -0.9015
vn 0.3061 0.3061 -0.9015
vn 0.3061 0.3062 -0.9014
vn 0.3061 0.3061 -0.9014
vn 0.3061 -0.3062 -0.9014
vn 0.9014 0.3063 -0.3060
vn -0.9984 0.0559 -0.0000
vn -1.0000 -0.0000 -0.0000
vn 0.9985 -0.0543 -0.0000
vn -0.0000 1.0000 -0.0000
vn -0.9985 0.0542 -0.0000
vn 0.9984 -0.0559 -0.0000
vn 1.0000 -0.0000 -0.0000
vn 0.9984 0.0559 -0.0000
vn -0.9985 -0.0542 -0.0000
vn 0.9985 0.0543 -0.0000
vn -0.9984 -0.0559 -0.0000
vn -0.3549 -0.9349 -0.0000
vn 0.3549 -0.9349 -0.0000
vn 0.9111 -0.4121 -0.0000
vn 0.9112 0.4120 -0.0000
vn 0.3548 0.9350 -0.0000
vn -0.3547 0.9350 -0.0000
vn -0.9113 0.4117 -0.0000
vn -0.9113 -0.4118 -0.0000
vn -0.3060 -0.9014 0.3062
vn 0.3061 -0.9014 -0.3063
vn -0.3060 -0.9015 -0.3061
vn 0.9014 -0.3062 -0.3061
vn 0.9015 -0.3059 -0.3061
vn 0.9014 -0.3061 -0.3061
vn 0.3060 0.3061 -0.9015
vn 0.9015 0.3060 -0.3060
vn 0.9015 0.3062 -0.3060
vn 0.9015 -0.3061 0.3061
vn 0.9015 -0.3058 0.3062
vn 0.9014 0.3061 -0.3062
vn 0.9014 -0.3063 0.3060
vn 0.3062 -0.9014 0.3062
vn 0.9015 0.3058 0.3061
vn 0.3061 0.3062 0.9014
vn 0.3061 -0.3062 0.9014
vn 0.3060 0.9015 0.3059
vn -0.3060 0.9015 -0.3060
vn -0.9015 0.3060 -0.3060
vn -0.3061 0.3062 -0.9014
vn -0.9014 -0.3062 -0.3061
vn -0.9014 0.3062 0.3062
vn -0.9015 -0.3060 -0.3061
vn -0.9015 0.3061 0.3061
vn 0.9688 0.2362 -0.0748
vn 0.9694 0.2453 0.0074
vn -0.9694 -0.2453 -0.0074
vn -0.9686 -0.2162 -0.1231
vn -0.9787 -0.2052 -0.0021
vn -0.9787 -0.2052 -0.0020
vn -0.9791 -0.2033 0.0034
vn -0.9788 -0.2049 -0.0004
vn -0.9927 -0.1207 -0.0000
vn 0.9787 0.2052 0.0021
vn 0.9789 0.2045 -0.0027
vn 0.9790 0.2038 -0.0035
vn 0.9789 0.2045 -0.0048
vn 0.9927 0.1208 -0.0000
vn -0.9788 -0.2045 0.0048
vn -0.3061 -0.9015 0.3059
vn -0.3061 -0.3061 0.9014
vn 0.3062 -0.9014 -0.3061
vn -0.3062 -0.9014 -0.3062
vn -0.3061 -0.9015 -0.3060
vn 0.3060 -0.9015 -0.3059
vn 0.3062 -0.9013 0.3064
vn 0.9014 -0.3062 0.3060
vn 0.3061 0.9014 -0.3061
vn 0.3060 0.9015 -0.3061
vn 0.3062 0.9014 -0.3062
vn 0.9014 0.3061 -0.3061
vn 0.3062 0.9014 0.3061
vn 0.3061 0.9014 0.3061
vn -0.3062 0.9014 -0.3062
vn -0.3062 0.9014 0.3061
vn 0.3060 0.3061 0.9015
vn -0.3060 0.9015 0.3061
vn -0.3061 0.3061 0.9014
vn -0.9014 0.3061 0.3062
vn -0.9014 -0.3062 -0.3062
vn -0.9015 -0.3061 -0.3060
vn -0.3060 -0.9015 -0.3060
vn -0.9015 0.3060 -0.3061
vn -0.3061 0.3061 -0.9015
vn -0.3547 -0.9350 -0.0000
vn 0.3548 -0.9350 -0.0000
vn 0.9112 -0.4120 -0.0000
vn 0.9111 0.4121 -0.0000
vn -0.9113 -0.4117 -0.0000
vn -0.9113 0.4118 -0.0000
vn -0.3549 0.9349 -0.0000
vn 0.3549 0.9349 -0.0000
vn -0.3061 -0.9014 0.3061
vn -0.3061 -0.3061 0.9015
vn -0.3062 -0.9014 -0.3061
vn -0.3060 -0.3060 -0.9015
vn -0.3061 -0.3061 -0.9014
vn 0.3061 -0.3061 -0.9015
vn 0.3061 -0.3061 -0.9014
vn 0.9014 0.3061 -0.3060
vn 0.9014 -0.3061 0.3062
vn 0.9015 -0.3058 0.3061
vn 0.3060 -0.3061 0.9015
vn 0.3063 0.9014 0.3062
vn 0.3060 0.9015 0.3061
vn -0.9014 -0.3062 -0.3060
vn 0.3062 0.9013 -0.3063
vt 0.508943 0.009104
vt 0.509542 0.008839
vt 0.511717 0.013521
vt 0.507589 0.006002
vt 0.503695 0.006346
vt 0.504687 0.009607
vt 0.505401 0.010113
vt 0.510191 0.014189
vt 0.508505 0.010005
vt 0.506184 0.014765
vt 0.504534 0.014961
vt 0.506652 0.016735
vt 0.510744 0.016119
vt 0.504034 0.009731
vt 0.504934 0.016992
vt 0.502201 0.010330
vt 0.501239 0.007142
vt 0.512391 0.015521
vt 0.511290 0.008062
vt 0.509980 0.004989
vt 0.174142 0.006260
vt 0.174264 0.005946
vt 0.174582 0.006077
vt 0.173802 0.006181
vt 0.174313 0.006728
vt 0.173957 0.006558
vt 0.174450 0.006397
vt 0.174715 0.005759
vt 0.175024 0.005894
vt 0.174898 0.006209
vt 0.175370 0.005979
vt 0.175222 0.006343
vt 0.174764 0.006520
vt 0.174685 0.006859
vt 0.175069 0.006705
vt 0.174504 0.007151
vt 0.175548 0.006478
vt 0.175419 0.006781
vt 0.176012 0.006248
vt 0.175881 0.006616
vt 0.175671 0.006173
vt 0.175713 0.006969
vt 0.176304 0.006427
vt 0.176234 0.006763
vt 0.174167 0.007081
vt 0.176046 0.007049
vt 0.173879 0.006893
vt 0.173510 0.005999
vt 0.173580 0.005662
vt 0.173933 0.005808
vt 0.174400 0.005637
vt 0.174104 0.005453
vt 0.174481 0.005296
vt 0.173769 0.005374
vt 0.174853 0.005428
vt 0.174662 0.005004
vt 0.174999 0.005075
vt 0.175208 0.005598
vt 0.175287 0.005264
vt 0.029419 0.014131
vt 0.027188 0.013047
vt 0.028191 0.011043
vt 0.030369 0.012375
vt 0.030441 0.012237
vt 0.027585 0.011046
vt 0.028277 0.010898
vt 0.023874 0.008267
vt 0.024143 0.008835
vt 0.027413 0.011165
vt 0.026852 0.012453
vt 0.024136 0.009041
vt 0.026840 0.012245
vt 0.023450 0.010063
vt 0.023265 0.010159
vt 0.022617 0.010123
vt 0.020569 0.008434
vt 0.021821 0.006830
vt 0.023962 0.008126
vt 0.021907 0.006689
vt 0.023044 0.004979
vt 0.025183 0.006251
vt 0.025467 0.006816
vt 0.029613 0.009108
vt 0.024593 0.008140
vt 0.024763 0.008027
vt 0.028020 0.010344
vt 0.028026 0.010133
vt 0.025472 0.007024
vt 0.028776 0.009168
vt 0.028954 0.009066
vt 0.031665 0.010625
vt 0.137962 0.006561
vt 0.137578 0.007417
vt 0.137098 0.007299
vt 0.136212 0.007232
vt 0.136939 0.007792
vt 0.135954 0.007586
vt 0.135679 0.006722
vt 0.135275 0.006834
vt 0.135676 0.006019
vt 0.135295 0.005833
vt 0.136187 0.005479
vt 0.136019 0.005084
vt 0.136920 0.005406
vt 0.137052 0.005003
vt 0.137460 0.005827
vt 0.137816 0.005609
vt 0.137546 0.006541
vt 0.136615 0.006381
vt 0.179604 0.006260
vt 0.179726 0.005946
vt 0.180044 0.006077
vt 0.179264 0.006180
vt 0.179775 0.006728
vt 0.179420 0.006558
vt 0.179912 0.006397
vt 0.180361 0.006209
vt 0.180486 0.005894
vt 0.180177 0.005758
vt 0.180315 0.005427
vt 0.180670 0.005598
vt 0.180832 0.005979
vt 0.180461 0.005075
vt 0.180749 0.005264
vt 0.180684 0.006343
vt 0.181133 0.006173
vt 0.180227 0.006519
vt 0.180531 0.006705
vt 0.181010 0.006478
vt 0.180147 0.006859
vt 0.180881 0.006780
vt 0.179967 0.007151
vt 0.181343 0.006616
vt 0.179630 0.007081
vt 0.181175 0.006969
vt 0.181696 0.006763
vt 0.181474 0.006248
vt 0.181766 0.006427
vt 0.179043 0.005662
vt 0.179231 0.005374
vt 0.179566 0.005453
vt 0.179943 0.005296
vt 0.180124 0.005004
vt 0.179863 0.005637
vt 0.179395 0.005808
vt 0.178972 0.005999
vt 0.179341 0.006892
vt 0.181508 0.007049
vt 0.268697 0.017869
vt 0.266828 0.016195
vt 0.269470 0.014051
vt 0.268968 0.013594
vt 0.264697 0.012139
vt 0.263179 0.015227
vt 0.264071 0.011898
vt 0.262318 0.011055
vt 0.260904 0.014055
vt 0.264079 0.011891
vt 0.265705 0.006894
vt 0.267261 0.007489
vt 0.266566 0.004999
vt 0.268125 0.005653
vt 0.271888 0.006892
vt 0.271010 0.008713
vt 0.272442 0.009555
vt 0.269546 0.013925
vt 0.268628 0.012684
vt 0.273385 0.007705
vt 0.265493 0.011913
vt 0.270869 0.015439
vt 0.185066 0.006261
vt 0.185188 0.005946
vt 0.185506 0.006078
vt 0.184726 0.006181
vt 0.185237 0.006729
vt 0.184882 0.006558
vt 0.185374 0.006397
vt 0.185639 0.005759
vt 0.185948 0.005895
vt 0.185823 0.006209
vt 0.186294 0.005979
vt 0.186146 0.006343
vt 0.185689 0.006520
vt 0.185610 0.006859
vt 0.185993 0.006705
vt 0.185429 0.007151
vt 0.186472 0.006478
vt 0.186343 0.006781
vt 0.186936 0.006248
vt 0.186805 0.006616
vt 0.186595 0.006173
vt 0.186637 0.006970
vt 0.187228 0.006427
vt 0.187158 0.006763
vt 0.185092 0.007081
vt 0.186970 0.007050
vt 0.184803 0.006893
vt 0.184434 0.006000
vt 0.184505 0.005662
vt 0.184857 0.005809
vt 0.185325 0.005637
vt 0.185028 0.005453
vt 0.185405 0.005297
vt 0.184693 0.005374
vt 0.185777 0.005428
vt 0.185586 0.005005
vt 0.185923 0.005076
vt 0.186132 0.005599
vt 0.186211 0.005264
vt 0.154348 0.006561
vt 0.153965 0.007417
vt 0.153485 0.007299
vt 0.152598 0.007232
vt 0.153325 0.007792
vt 0.152341 0.007587
vt 0.151661 0.006834
vt 0.152066 0.006722
vt 0.152062 0.006019
vt 0.153002 0.006380
vt 0.153306 0.005406
vt 0.153847 0.005827
vt 0.153932 0.006541
vt 0.154203 0.005609
vt 0.153438 0.005003
vt 0.152406 0.005084
vt 0.152573 0.005479
vt 0.151682 0.005833
vt 0.223301 0.006261
vt 0.223423 0.005946
vt 0.223741 0.006078
vt 0.222961 0.006181
vt 0.223472 0.006729
vt 0.223117 0.006558
vt 0.223609 0.006397
vt 0.224183 0.005895
vt 0.224058 0.006209
vt 0.223874 0.005759
vt 0.223640 0.005297
vt 0.224012 0.005428
vt 0.223560 0.005637
vt 0.223821 0.005005
vt 0.224158 0.005076
vt 0.224367 0.005599
vt 0.224446 0.005264
vt 0.224381 0.006343
vt 0.224530 0.005979
vt 0.224830 0.006173
vt 0.223924 0.006520
vt 0.224228 0.006705
vt 0.224707 0.006478
vt 0.223844 0.006859
vt 0.224578 0.006781
vt 0.223664 0.007151
vt 0.225040 0.006616
vt 0.223327 0.007081
vt 0.224872 0.006970
vt 0.225463 0.006427
vt 0.225393 0.006763
vt 0.225171 0.006248
vt 0.223263 0.005453
vt 0.223092 0.005809
vt 0.222740 0.005662
vt 0.222669 0.006000
vt 0.225205 0.007049
vt 0.222928 0.005374
vt 0.223038 0.006893
s 1
f 1/1/1 2/2/1 6/3/1
f 1/1/2 3/4/2 2/2/2
f 4/5/3 3/4/3 1/1/3
f 1/1/3 5/6/3 4/5/3
f 9/7/4 5/6/4 1/1/4
f 6/3/5 7/8/6 1/1/7
f 7/8/6 8/9/8 1/1/7
f 1/1/4 8/9/4 9/7/4
f 10/10/9 5/6/10 9/7/11
f 7/8/3 10/10/3 9/7/3
f 9/7/3 8/9/3 7/8/3
f 14/11/12 10/10/12 11/12/12
f 12/13/3 11/12/3 10/10/3
f 10/10/3 7/8/3 12/13/3
f 13/14/13 5/6/10 10/10/9
f 10/10/13 14/11/13 13/14/13
f 11/12/14 15/15/14 14/11/14
f 13/14/15 17/16/15 16/17/16
f 16/17/16 4/5/15 13/14/15
f 13/14/17 4/5/17 5/6/17
f 18/18/18 12/13/18 7/8/18
f 7/8/18 6/3/18 18/18/18
f 19/19/19 2/2/19 3/4/19
f 3/4/19 20/20/20 19/19/19
f 21/21/21 22/22/22 26/23/21
f 22/22/23 21/21/24 23/24/25
f 24/25/26 23/26/27 21/21/26
f 21/21/26 25/27/28 24/25/26
f 26/23/21 25/27/29 21/21/21
f 26/23/30 27/28/31 28/29/30
f 27/28/32 26/23/33 22/22/34
f 28/29/30 29/30/35 26/23/30
f 25/27/36 26/23/37 29/30/38
f 30/31/39 31/32/40 29/30/39
f 29/30/39 28/29/41 30/31/39
f 32/33/42 29/30/43 31/32/42
f 29/30/38 32/33/44 25/27/36
f 25/27/45 32/33/45 33/34/45
f 31/32/42 33/35/46 32/33/42
f 24/25/47 33/34/48 34/36/47
f 35/37/49 34/38/50 33/35/51
f 33/34/45 24/25/52 25/27/45
f 33/35/51 31/32/53 35/37/49
f 36/39/54 38/40/55 35/37/56
f 35/37/56 37/41/57 36/39/54
f 37/41/58 35/37/59 31/32/58
f 34/38/60 35/37/60 38/40/60
f 38/40/60 41/42/61 34/38/60
f 38/40/62 36/39/63 40/43/62
f 41/42/64 38/40/65 39/44/64
f 40/43/62 39/44/63 38/40/62
f 34/36/47 41/45/66 24/25/47
f 39/44/64 42/46/67 41/42/64
f 41/45/68 42/47/68 23/26/69
f 23/26/69 24/25/68 41/45/68
f 42/48/70 39/49/71 43/50/70
f 43/50/70 23/24/72 42/48/70
f 45/51/73 22/22/74 43/50/73
f 23/24/25 43/50/25 22/22/23
f 44/52/75 43/50/76 39/49/75
f 43/50/73 44/52/77 45/51/73
f 22/22/34 45/51/78 27/28/32
f 27/28/79 45/51/80 44/53/79
f 39/49/75 40/54/76 44/52/75
f 46/55/81 44/53/82 40/56/81
f 44/53/79 46/55/79 27/28/79
f 40/56/81 36/57/83 46/55/81
f 28/29/84 27/28/85 46/55/86
f 30/58/87 46/55/88 36/57/89
f 46/55/86 30/58/90 28/29/84
f 36/57/89 37/59/87 30/58/87
f 31/32/58 30/31/91 37/41/58
f 48/60/92 50/61/92 47/62/92
f 47/62/92 49/63/92 48/60/92
f 53/64/93 49/63/93 47/62/93
f 55/65/3 47/62/3 50/61/3
f 47/62/93 51/66/93 53/64/93
f 51/66/3 47/62/3 52/67/3
f 54/68/3 52/67/3 47/62/3
f 47/62/3 55/65/3 54/68/3
f 58/69/94 55/65/94 56/70/94
f 50/61/3 56/70/3 55/65/3
f 57/71/4 54/68/4 55/65/4
f 55/65/4 58/69/4 57/71/4
f 57/71/3 58/69/3 59/72/3
f 56/70/94 59/72/94 58/69/94
f 59/72/3 61/73/3 57/71/3
f 60/74/95 61/73/95 59/72/95
f 59/72/95 56/70/95 60/74/95
f 54/68/96 57/71/96 61/73/96
f 61/73/96 60/74/96 54/68/96
f 62/75/3 60/74/3 56/70/3
f 52/67/3 54/68/3 60/74/3
f 60/74/3 62/75/3 52/67/3
f 56/70/3 50/61/3 62/75/3
f 62/75/97 64/76/97 63/77/97
f 63/77/97 52/67/97 62/75/97
f 65/78/98 52/67/98 63/77/98
f 63/77/98 66/79/98 65/78/98
f 65/78/99 66/79/99 67/80/99
f 67/80/99 68/81/99 65/78/99
f 70/82/3 68/81/3 69/83/3
f 71/84/3 65/78/3 68/81/3
f 68/81/3 70/82/3 71/84/3
f 73/85/100 71/84/100 70/82/100
f 65/78/3 71/84/3 72/86/3
f 74/87/95 72/86/95 71/84/95
f 71/84/95 73/85/95 74/87/95
f 74/87/3 73/85/3 75/88/3
f 75/88/3 76/89/3 74/87/3
f 72/86/101 74/87/101 76/89/101
f 76/89/101 77/90/101 72/86/101
f 77/90/4 76/89/4 75/88/4
f 77/90/3 69/83/3 51/66/3
f 69/83/3 77/90/3 70/82/3
f 75/88/4 70/82/4 77/90/4
f 51/66/3 72/86/3 77/90/3
f 70/82/100 75/88/100 73/85/100
f 72/86/3 51/66/3 65/78/3
f 53/64/102 51/66/102 69/83/102
f 69/83/102 78/91/102 53/64/102
f 52/67/3 65/78/3 51/66/3
f 80/92/103 79/93/103 81/94/103
f 82/95/104 81/94/104 79/96/104
f 79/96/104 83/97/104 82/95/104
f 84/98/105 82/95/105 83/97/105
f 83/97/105 85/99/105 84/98/105
f 86/100/106 84/98/106 85/99/106
f 85/99/106 87/101/106 86/100/106
f 88/102/107 86/100/107 87/101/107
f 87/101/107 89/103/107 88/102/107
f 90/104/108 88/102/108 89/103/108
f 89/103/108 91/105/108 90/104/108
f 92/106/109 90/104/109 91/105/109
f 91/105/109 93/107/109 92/106/109
f 94/108/110 92/106/110 93/107/110
f 93/107/110 80/92/110 94/108/110
f 94/108/3 81/94/3 82/95/3
f 81/94/103 94/108/103 80/92/103
f 92/106/3 94/108/3 95/109/3
f 82/95/3 95/109/3 94/108/3
f 84/98/3 86/100/3 95/109/3
f 90/104/3 95/109/3 86/100/3
f 95/109/3 90/104/3 92/106/3
f 95/109/3 82/95/3 84/98/3
f 86/100/3 88/102/3 90/104/3
f 96/110/29 97/111/111 101/112/29
f 97/111/25 96/110/25 98/113/25
f 99/114/26 98/115/27 96/110/26
f 96/110/26 100/116/28 99/114/26
f 101/112/29 100/116/29 96/110/29
f 100/116/38 101/112/37 102/117/38
f 104/118/30 102/117/112 101/112/30
f 101/112/30 103/119/31 104/118/30
f 103/119/113 101/112/33 97/111/34
f 105/120/86 106/121/90 104/118/84
f 104/118/84 103/119/85 105/120/86
f 102/117/114 104/118/115 106/122/116
f 106/121/117 105/120/89 107/123/87
f 107/123/87 108/124/117 106/121/117
f 109/125/118 106/122/119 108/126/118
f 106/122/116 109/125/40 102/117/114
f 112/127/120 102/117/121 109/125/42
f 111/128/50 109/125/53 110/129/50
f 108/126/118 110/129/122 109/125/118
f 109/125/42 111/128/123 112/127/120
f 102/117/38 112/127/124 100/116/38
f 100/116/52 112/127/52 111/130/52
f 110/129/50 113/131/125 111/128/50
f 99/114/47 111/130/126 113/132/47
f 111/130/52 99/114/127 100/116/52
f 113/131/60 110/129/128 115/133/60
f 113/132/47 114/134/66 99/114/47
f 115/133/60 114/135/61 113/131/60
f 114/135/64 115/133/65 116/136/64
f 107/137/56 115/133/55 110/129/54
f 115/133/129 107/137/62 117/138/129
f 117/138/129 116/136/63 115/133/129
f 116/139/130 117/140/75 118/141/76
f 105/120/81 118/142/131 117/143/81
f 117/143/81 107/123/83 105/120/81
f 103/119/80 119/144/80 118/142/80
f 120/145/73 118/141/132 119/144/73
f 118/142/80 105/120/80 103/119/80
f 118/141/76 120/145/76 116/139/130
f 120/145/133 98/113/70 121/146/133
f 98/113/25 120/145/25 97/111/25
f 119/144/73 97/111/134 120/145/73
f 121/146/133 116/139/135 120/145/133
f 114/134/69 121/147/68 98/115/69
f 116/136/64 121/148/67 114/135/64
f 97/111/34 119/144/78 103/119/113
f 98/115/69 99/114/69 114/134/69
f 110/129/54 108/126/57 107/137/56
f 123/149/136 122/150/136 124/151/136
f 122/150/137 125/152/137 124/151/137
f 126/153/3 125/152/3 122/150/3
f 122/150/3 127/154/3 126/153/3
f 127/154/138 128/155/138 126/153/138
f 129/156/139 128/155/139 127/154/139
f 127/154/139 130/157/139 129/156/139
f 126/153/140 128/158/140 131/159/140
f 131/159/141 132/160/142 126/153/143
f 132/160/144 131/159/144 133/161/144
f 133/161/144 134/162/144 132/160/144
f 134/162/3 135/163/3 136/164/3
f 136/164/3 132/160/3 134/162/3
f 136/164/145 138/165/145 124/166/145
f 124/166/145 125/152/146 136/164/147
f 132/160/3 136/164/3 137/167/3
f 137/167/148 136/164/147 125/152/146
f 138/165/149 136/164/149 135/163/149
f 135/163/149 139/168/149 138/165/149
f 140/169/95 137/167/95 125/152/95
f 137/167/3 140/169/3 132/160/3
f 126/153/143 132/160/142 140/169/150
f 125/152/95 126/153/95 140/169/95
f 124/151/136 141/170/136 123/149/136
f 142/171/29 143/172/151 147/173/29
f 143/172/25 142/171/24 144/174/25
f 145/175/152 144/176/27 142/171/152
f 142/171/152 146/177/28 145/175/152
f 147/173/29 146/177/22 142/171/29
f 147/173/153 148/178/112 149/179/153
f 148/178/34 147/173/154 143/172/155
f 149/179/153 150/180/156 147/173/153
f 146/177/36 147/173/37 150/180/36
f 151/181/39 152/182/40 150/180/39
f 150/180/39 149/179/41 151/181/39
f 153/183/43 150/180/43 152/182/43
f 150/180/36 153/183/157 146/177/36
f 146/177/45 153/183/45 154/184/52
f 152/182/43 154/185/158 153/183/43
f 145/175/47 154/184/48 155/186/47
f 156/187/49 155/188/50 154/185/49
f 154/184/52 145/175/127 146/177/45
f 154/185/49 152/182/53 156/187/49
f 157/189/159 159/190/55 156/187/160
f 156/187/160 158/191/161 157/189/159
f 158/191/162 156/187/59 152/182/162
f 155/188/163 156/187/164 159/190/163
f 159/190/163 162/192/61 155/188/163
f 159/190/165 157/189/63 161/193/165
f 162/192/64 159/190/166 160/194/64
f 161/193/165 160/194/62 159/190/165
f 155/186/47 162/195/167 145/175/47
f 160/194/64 163/196/168 162/192/64
f 162/195/69 163/197/169 144/176/68
f 144/176/68 145/175/69 162/195/69
f 163/198/170 160/199/71 164/200/133
f 164/200/133 144/174/72 163/198/170
f 166/201/171 143/172/74 164/200/171
f 144/174/25 164/200/23 143/172/25
f 165/202/75 164/200/76 160/199/75
f 164/200/171 165/202/172 166/201/171
f 143/172/155 166/201/173 148/178/34
f 148/178/79 166/201/80 165/203/79
f 160/199/75 161/204/174 165/202/75
f 167/205/175 165/203/131 161/206/175
f 165/203/79 167/205/79 148/178/79
f 161/206/175 157/207/83 167/205/175
f 149/179/84 148/178/85 167/205/84
f 151/208/89 167/205/89 157/207/89
f 167/205/84 151/208/90 149/179/84
f 157/207/89 158/209/88 151/208/89
f 152/182/162 151/181/91 158/191/162
f 169/210/176 168/211/176 170/212/176
f 171/213/177 170/212/177 168/214/177
f 168/214/177 172/215/177 171/213/177
f 172/215/178 173/216/178 174/217/178
f 174/217/178 171/213/178 172/215/178
f 174/217/3 175/218/3 176/219/3
f 175/218/179 174/217/179 173/216/179
f 176/219/3 171/213/3 174/217/3
f 177/220/3 176/219/3 175/218/3
f 176/219/3 177/220/3 179/221/3
f 171/213/3 176/219/3 178/222/3
f 179/221/3 178/222/3 176/219/3
f 178/222/180 179/221/180 180/223/180
f 181/224/181 180/223/181 179/221/181
f 179/221/181 177/220/181 181/224/181
f 182/225/182 181/224/182 177/220/182
f 177/220/182 183/226/182 182/225/182
f 184/227/183 182/225/183 183/226/183
f 183/226/183 175/218/183 184/227/183
f 173/216/179 184/227/179 175/218/179
f 175/218/3 183/226/3 177/220/3
f 180/223/180 169/210/180 178/222/180
f 178/222/3 170/212/3 171/213/3
f 170/212/176 178/222/176 169/210/176
f 185/228/184 186/229/151 190/230/184
f 186/229/25 185/228/25 187/231/25
f 188/232/185 187/233/152 185/228/185
f 185/228/185 189/234/28 188/232/185
f 190/230/184 189/234/22 185/228/184
f 191/235/30 192/236/30 190/230/30
f 190/230/30 193/237/112 191/235/30
f 189/234/36 190/230/37 192/236/37
f 193/237/34 190/230/186 186/229/34
f 194/238/187 196/239/79 193/237/80
f 193/237/80 195/240/188 194/238/187
f 186/229/34 195/240/173 193/237/34
f 191/235/84 193/237/189 196/239/84
f 197/241/175 198/242/83 196/239/175
f 196/239/175 194/238/131 197/241/175
f 199/243/87 196/239/87 198/242/117
f 196/239/84 199/243/190 191/235/84
f 198/242/117 200/244/88 199/243/87
f 201/245/58 199/246/191 200/247/58
f 192/236/116 191/235/115 199/246/116
f 199/246/116 201/245/40 192/236/116
f 204/248/192 192/236/193 201/245/43
f 203/249/50 201/245/53 202/250/50
f 200/247/58 202/250/122 201/245/58
f 201/245/43 203/249/123 204/248/192
f 192/236/37 204/248/44 189/234/36
f 189/234/52 204/248/194 203/251/127
f 202/250/50 205/252/125 203/249/50
f 188/232/47 203/251/126 205/253/47
f 203/251/127 188/232/127 189/234/52
f 205/252/195 202/250/196 207/254/195
f 205/253/47 206/255/66 188/232/47
f 207/254/195 206/256/61 205/252/195
f 197/257/165 208/258/62 207/254/165
f 207/254/165 198/259/62 197/257/165
f 206/256/64 207/254/166 208/258/64
f 198/259/56 207/254/55 202/250/159
f 194/260/75 209/261/76 208/262/75
f 210/263/133 208/262/135 209/261/133
f 208/258/64 210/264/168 206/256/64
f 208/262/75 197/265/174 194/260/75
f 206/255/69 210/266/68 187/233/69
f 209/261/133 187/231/70 210/263/133
f 187/231/25 209/261/23 186/229/25
f 195/240/171 186/229/134 209/261/171
f 209/261/171 194/260/197 195/240/171
f 187/233/69 188/232/69 206/255/69
f 202/250/159 200/247/198 198/259/56
