# Blender 4.4.1
# www.blender.org
o Space_Texturing_to_export.015
v -0.032208 0.000002 -0.000001
v -0.031278 0.000002 -0.021349
v -0.039115 0.027126 -0.005483
v -0.039073 0.027126 -0.000001
v -0.006866 0.027126 -0.000001
v -0.000001 0.000002 -0.000001
v -0.006908 0.027126 -0.005483
v -0.008769 0.027126 -0.021349
v -0.002872 0.000002 -0.021349
v -0.015279 0.067192 -0.005483
v -0.015279 0.067192 0.008542
v -0.017323 0.083989 -0.005483
v -0.017323 0.083989 0.008542
v -0.047486 0.067192 0.008542
v -0.049530 0.083989 0.008542
v -0.047486 0.067192 -0.005483
v -0.049530 0.083989 -0.005483
v -0.039115 0.027126 0.008542
v -0.006908 0.027126 0.008542
v -0.037176 0.027126 -0.021349
v -0.028920 0.055947 -0.130248
v -0.029490 0.058555 -0.129676
v -0.030691 0.058555 -0.132856
v -0.029490 0.055376 -0.132856
v -0.028920 0.061164 -0.130248
v -0.029490 0.061736 -0.132856
v -0.028920 0.061164 -0.135465
v -0.029490 0.058555 -0.136036
v -0.028920 0.055947 -0.135465
v -0.026310 0.058555 -0.137236
v -0.026310 0.055376 -0.136036
v -0.026310 0.061736 -0.136036
v -0.023704 0.061164 -0.135465
v -0.023130 0.058555 -0.136036
v -0.023704 0.055947 -0.135465
v -0.021933 0.058555 -0.132856
v -0.023130 0.055376 -0.132856
v -0.023130 0.061736 -0.132856
v -0.023704 0.061164 -0.130248
v -0.023130 0.058555 -0.129676
v -0.023704 0.055947 -0.130248
v -0.026310 0.058555 -0.128477
v -0.026310 0.055376 -0.129676
v -0.026310 0.061736 -0.129676
v -0.026310 0.054176 -0.132856
v -0.026310 0.062935 -0.132856
v -0.028920 0.145293 -0.326718
v -0.029490 0.144722 -0.329327
v -0.029490 0.147902 -0.326147
v -0.026310 0.147902 -0.324947
v -0.026310 0.144722 -0.326147
v -0.026310 0.143522 -0.329327
v -0.023704 0.145293 -0.331935
v -0.023130 0.144722 -0.329327
v -0.026310 0.144722 -0.332507
v -0.029490 0.147902 -0.332507
v -0.028920 0.145293 -0.331935
v -0.026310 0.147902 -0.333706
v -0.028920 0.150510 -0.331935
v -0.026310 0.151082 -0.332507
v -0.023130 0.147902 -0.332507
v -0.021933 0.147902 -0.329327
v -0.023704 0.150510 -0.331935
v -0.023130 0.151082 -0.329327
v -0.023130 0.147902 -0.326147
v -0.023704 0.150510 -0.326718
v -0.026310 0.152281 -0.329327
v -0.029490 0.151082 -0.329327
v -0.026310 0.151082 -0.326147
v -0.028920 0.150510 -0.326718
v -0.030691 0.147902 -0.329327
v -0.023704 0.145293 -0.326718
v -0.028920 0.145293 -0.130248
v -0.029490 0.144722 -0.132856
v -0.029490 0.147902 -0.129676
v -0.026310 0.147902 -0.128477
v -0.026310 0.144722 -0.129676
v -0.026310 0.143522 -0.132856
v -0.023130 0.144722 -0.132856
v -0.026310 0.144722 -0.136036
v -0.023704 0.145293 -0.135465
v -0.026310 0.147902 -0.137236
v -0.023130 0.147902 -0.136036
v -0.026310 0.151082 -0.136036
v -0.023704 0.150510 -0.135465
v -0.021933 0.147902 -0.132856
v -0.023130 0.151082 -0.132856
v -0.023130 0.147902 -0.129676
v -0.023704 0.145293 -0.130248
v -0.023704 0.150510 -0.130248
v -0.026310 0.151082 -0.129676
v -0.026310 0.152281 -0.132856
v -0.029490 0.151082 -0.132856
v -0.028920 0.150510 -0.135465
v -0.029490 0.147902 -0.136036
v -0.030691 0.147902 -0.132856
v -0.028920 0.145293 -0.135465
v -0.028920 0.150510 -0.130248
v -0.028920 0.055947 -0.326718
v -0.029490 0.055376 -0.329327
v -0.029490 0.058555 -0.326147
v -0.026310 0.058555 -0.324947
v -0.026310 0.055376 -0.326147
v -0.026310 0.054176 -0.329327
v -0.023130 0.055376 -0.329327
v -0.026310 0.055376 -0.332507
v -0.023704 0.055947 -0.331935
v -0.026310 0.058555 -0.333706
v -0.023130 0.058555 -0.332507
v -0.026310 0.061736 -0.332507
v -0.023704 0.061164 -0.331935
v -0.021933 0.058555 -0.329327
v -0.023130 0.061736 -0.329327
v -0.023130 0.058555 -0.326147
v -0.023704 0.055947 -0.326718
v -0.023704 0.061164 -0.326718
v -0.026310 0.061736 -0.326147
v -0.026310 0.062935 -0.329327
v -0.029490 0.061736 -0.329327
v -0.028920 0.061164 -0.331935
v -0.029490 0.058555 -0.332507
v -0.030691 0.058555 -0.329327
v -0.028920 0.055947 -0.331935
v -0.028920 0.061164 -0.326718
v -0.012946 0.101474 0.012095
v -0.011991 0.118527 -0.009037
v -0.012946 0.101474 -0.009037
v -0.011991 0.118527 0.012095
v -0.012946 0.100096 0.012095
v -0.055748 0.101474 0.012095
v -0.012946 0.100096 -0.009037
v -0.051178 0.104292 0.012095
v -0.017183 0.104292 0.012095
v -0.016561 0.115709 0.012095
v -0.051178 0.104292 0.010089
v -0.017183 0.104292 0.010089
v -0.016561 0.115709 0.010089
v -0.050557 0.115709 0.012095
v -0.050557 0.115709 0.010089
v -0.054793 0.118527 0.012095
v -0.054793 0.118527 -0.009037
v -0.055748 0.101474 -0.009037
v -0.055748 0.100096 0.012095
v -0.055748 0.100096 -0.009037
v -0.054793 0.083043 -0.009037
v -0.054793 0.083043 0.012095
v -0.050557 0.085861 0.012095
v -0.051178 0.097278 0.012095
v -0.011991 0.083043 0.012095
v -0.011991 0.083043 -0.009037
v -0.016561 0.085861 0.012095
v -0.017183 0.097278 0.012095
v -0.050557 0.085861 0.010089
v -0.016561 0.085861 0.010089
v -0.017183 0.097278 0.010089
v -0.051178 0.097278 0.010089
v -0.039073 0.174447 -0.000001
v -0.039115 0.174447 -0.005483
v -0.032208 0.201571 -0.000001
v -0.000001 0.201571 -0.000001
v -0.006866 0.174447 -0.000001
v -0.047486 0.134381 -0.005483
v -0.047486 0.134381 0.008542
v -0.039115 0.174447 0.008542
v -0.006908 0.174447 0.008542
v -0.015279 0.134381 0.008542
v -0.017323 0.117584 0.008542
v -0.049530 0.117584 0.008542
v -0.006908 0.174447 -0.005483
v -0.015279 0.134381 -0.005483
v -0.017323 0.117584 -0.005483
v -0.002872 0.201571 -0.021349
v -0.008769 0.174447 -0.021349
v -0.049530 0.117584 -0.005483
v -0.037176 0.174447 -0.021349
v -0.031278 0.201571 -0.021349
v -0.020041 0.196931 -0.000610
v -0.013661 0.194509 -0.000610
v -0.020041 0.196931 0.003147
v -0.026423 0.194509 0.003147
v -0.026423 0.194509 -0.000610
v -0.029066 0.188662 0.003147
v -0.029066 0.188662 -0.000610
v -0.026423 0.182816 0.003147
v -0.026423 0.182816 -0.000610
v -0.020041 0.180394 0.003147
v -0.020041 0.180394 -0.000610
v -0.013661 0.182816 0.003147
v -0.013661 0.182816 -0.000610
v -0.011018 0.188662 0.003147
v -0.011018 0.188662 -0.000610
v -0.013661 0.194509 0.003147
v -0.020041 0.188662 0.003147
v -0.020041 0.022299 -0.000610
v -0.013661 0.019877 -0.000610
v -0.020041 0.022299 0.003147
v -0.026423 0.019877 0.003147
v -0.026423 0.019877 -0.000610
v -0.029066 0.014030 0.003147
v -0.029066 0.014030 -0.000610
v -0.026423 0.008184 -0.000610
v -0.026423 0.008184 0.003147
v -0.013661 0.008184 0.003147
v -0.020041 0.005762 0.003147
v -0.020041 0.014030 0.003147
v -0.011018 0.014030 0.003147
v -0.013661 0.019877 0.003147
v -0.011018 0.014030 -0.000610
v -0.013661 0.008184 -0.000610
v -0.020041 0.005762 -0.000610
vn -0.9688 -0.2362 -0.0748
vn -0.9694 -0.2454 0.0074
vn -0.0000 -0.0000 1.0000
vn 0.9694 0.2454 -0.0074
vn 0.9686 0.2162 -0.1231
vn 0.9686 0.2161 -0.1232
vn 0.9787 0.2052 -0.0021
vn 0.9927 0.1208 -0.0000
vn 0.9787 0.2052 -0.0020
vn 0.9791 0.2033 0.0034
vn 0.9788 0.2049 -0.0004
vn -0.9927 -0.1208 -0.0000
vn -0.9787 -0.2052 0.0020
vn -0.9789 -0.2045 -0.0048
vn -0.9790 -0.2037 -0.0034
vn -0.9789 -0.2044 -0.0026
vn -0.9787 -0.2052 0.0021
vn -0.0000 -1.0000 -0.0000
vn 0.9789 0.2045 0.0048
vn -0.9015 -0.3059 0.3061
vn -0.9015 -0.3060 0.3061
vn -0.9015 0.3060 0.3061
vn -0.9015 0.3059 0.3061
vn -0.9015 0.3060 0.3060
vn -0.9015 0.3060 -0.3060
vn -0.9015 0.3059 -0.3061
vn -0.9015 0.3060 -0.3061
vn -0.9015 -0.3061 -0.3060
vn -0.9015 -0.3058 -0.3062
vn -0.3061 -0.3060 -0.9015
vn -0.3060 0.3059 -0.9015
vn -0.3061 0.3061 -0.9015
vn -0.3061 0.3062 -0.9014
vn 0.3061 0.3062 -0.9014
vn 0.3061 0.3061 -0.9014
vn 0.3061 -0.3062 -0.9014
vn 0.3061 -0.3061 -0.9014
vn 0.3060 -0.3062 -0.9015
vn 0.9015 -0.3060 -0.3061
vn 0.9015 -0.3059 -0.3061
vn 0.9015 0.3059 -0.3060
vn 0.9015 0.3059 -0.3061
vn 0.9015 0.3061 -0.3060
vn 0.9015 0.3061 0.3061
vn 0.9015 0.3059 0.3061
vn 0.9014 0.3062 0.3060
vn 0.9015 -0.3061 0.3060
vn 0.9015 -0.3059 0.3062
vn 0.3061 -0.3061 0.9015
vn 0.3061 0.3060 0.9015
vn 0.3061 0.3062 0.9014
vn 0.3061 0.3061 0.9015
vn -0.3061 0.3062 0.9014
vn -0.3060 -0.3060 0.9015
vn -0.3061 -0.3062 0.9014
vn -0.3060 -0.3061 0.9015
vn -0.3061 -0.9015 -0.3060
vn -0.3061 -0.9015 -0.3061
vn 0.3061 -0.9015 -0.3061
vn 0.3061 -0.9014 -0.3062
vn 0.3060 -0.9016 -0.3059
vn 0.3061 -0.9015 0.3060
vn 0.3062 -0.9014 0.3061
vn -0.3060 -0.9015 0.3060
vn -0.3061 -0.9015 0.3060
vn -0.3061 -0.9015 0.3061
vn 0.3061 0.9015 -0.3061
vn 0.3061 0.9014 -0.3063
vn 0.3061 0.9014 -0.3061
vn 0.3060 0.9015 -0.3060
vn -0.3060 0.9015 -0.3060
vn -0.3061 0.9014 -0.3062
vn -0.3061 0.9015 -0.3060
vn -0.3060 0.9015 0.3061
vn -0.3060 0.9015 0.3060
vn -0.3061 0.9015 0.3061
vn -0.3061 0.9014 0.3062
vn 0.3061 0.9014 0.3061
vn 0.3061 0.9015 0.3061
vn 0.3061 0.9014 0.3062
vn -0.3061 -0.9014 0.3062
vn -0.9015 -0.3059 0.3060
vn -0.3061 -0.3060 0.9015
vn 0.3061 -0.9014 -0.3061
vn 0.3061 -0.9014 0.3061
vn 0.3061 -0.9015 0.3061
vn -0.3061 -0.9014 -0.3061
vn -0.3061 -0.3061 -0.9014
vn -0.3061 -0.3062 -0.9014
vn -0.3061 -0.9014 -0.3063
vn 0.3061 -0.3061 -0.9015
vn 0.3062 -0.3061 -0.9014
vn -0.3060 0.3060 -0.9015
vn -0.3061 0.3061 -0.9014
vn 0.3061 0.3061 -0.9015
vn 0.9014 -0.3062 -0.3060
vn 0.9015 0.3061 -0.3061
vn 0.9015 0.3059 -0.3062
vn 0.3061 0.9015 -0.3060
vn 0.9015 0.3062 -0.3059
vn 0.9015 0.3060 0.3061
vn 0.9015 0.3060 0.3060
vn 0.9015 0.3062 0.3060
vn 0.3060 0.9015 0.3059
vn 0.3061 0.9015 -0.3059
vn -0.3061 0.9015 0.3060
vn -0.3061 0.9015 0.3059
vn 0.3062 0.9014 0.3062
vn -0.3061 0.3061 0.9014
vn 0.3061 0.3061 0.9014
vn -0.3060 0.3062 0.9014
vn -0.9015 0.3059 0.3062
vn -0.9015 -0.3060 -0.3060
vn -0.9015 0.3059 -0.3060
vn 0.9015 -0.3060 0.3060
vn 0.9015 -0.3060 0.3062
vn 0.3061 -0.3061 0.9014
vn 0.3061 -0.3062 0.9014
vn 0.3061 -0.9013 0.3064
vn -0.3060 -0.9014 0.3062
vn -0.3061 -0.3061 0.9014
vn 0.3060 -0.9015 0.3061
vn 0.3060 -0.9015 -0.3061
vn 0.3060 -0.3062 -0.9014
vn 0.9015 -0.3060 -0.3060
vn 0.9015 0.3060 -0.3060
vn 0.3062 -0.9013 0.3064
vn 0.3061 0.9015 0.3060
vn -0.3060 0.3061 -0.9015
vn -0.3061 -0.3061 -0.9015
vn -0.9015 0.3061 0.3061
vn -0.9015 0.3058 0.3062
vn -0.3060 0.3061 0.9015
vn -0.3060 -0.3062 0.9015
vn -0.3061 -0.3061 0.9015
vn 0.3061 -0.9015 -0.3059
vn 0.3060 -0.3061 -0.9015
vn 0.9015 0.3060 -0.3061
vn 0.9015 -0.3060 0.3061
vn 0.3060 -0.3061 0.9015
vn 0.9015 0.3061 0.3060
vn 0.3060 0.9015 0.3061
vn -0.3060 0.3062 -0.9014
vn -0.9015 -0.3059 -0.3061
vn -0.3060 -0.3061 -0.9015
vn -0.9015 0.3059 0.3060
vn 0.9984 -0.0559 -0.0000
vn 1.0000 -0.0000 -0.0000
vn -0.9985 0.0544 -0.0000
vn -0.0000 1.0000 -0.0000
vn 0.9985 -0.0544 -0.0000
vn -0.9984 0.0559 -0.0000
vn -1.0000 -0.0000 -0.0000
vn -0.9984 -0.0559 -0.0000
vn 0.9984 0.0559 -0.0000
vn -0.9985 -0.0544 -0.0000
vn 0.9985 0.0544 -0.0000
vn -0.9787 0.2052 0.0021
vn -0.9694 0.2454 0.0074
vn -0.9787 0.2052 0.0020
vn -0.9791 0.2033 -0.0035
vn -0.9788 0.2049 0.0004
vn -0.9789 0.2045 -0.0048
vn 0.9790 -0.2038 0.0034
vn 0.9789 -0.2044 0.0027
vn 0.9789 -0.2045 0.0048
vn 0.9927 -0.1208 -0.0000
vn 0.9787 -0.2052 -0.0021
vn 0.9686 -0.2162 -0.1230
vn 0.9686 -0.2162 -0.1231
vn 0.9694 -0.2454 -0.0074
vn -0.9927 0.1208 -0.0000
vn -0.9688 0.2362 -0.0748
vn 0.3549 0.9349 -0.0000
vn -0.3548 0.9349 -0.0000
vn -0.9112 0.4119 -0.0000
vn -0.9112 -0.4120 -0.0000
vn -0.3548 -0.9349 -0.0000
vn 0.3549 -0.9349 -0.0000
vn 0.9112 -0.4120 -0.0000
vn 0.9112 0.4119 -0.0000
vt 0.470797 0.017869
vt 0.468928 0.016195
vt 0.471570 0.014051
vt 0.471068 0.013594
vt 0.466797 0.012139
vt 0.465279 0.015227
vt 0.466171 0.011898
vt 0.464417 0.011055
vt 0.463004 0.014055
vt 0.466179 0.011891
vt 0.467804 0.006894
vt 0.469360 0.007489
vt 0.468665 0.004999
vt 0.470225 0.005652
vt 0.473110 0.008713
vt 0.473988 0.006892
vt 0.474542 0.009555
vt 0.475485 0.007705
vt 0.471645 0.013925
vt 0.470728 0.012684
vt 0.467593 0.011913
vt 0.472969 0.015439
vt 0.168801 0.005946
vt 0.168680 0.006261
vt 0.168339 0.006181
vt 0.168470 0.005808
vt 0.168048 0.005999
vt 0.168118 0.005662
vt 0.168641 0.005453
vt 0.168307 0.005374
vt 0.168938 0.005637
vt 0.169253 0.005759
vt 0.169018 0.005296
vt 0.169391 0.005428
vt 0.169200 0.005005
vt 0.169537 0.005075
vt 0.169746 0.005599
vt 0.169825 0.005264
vt 0.169562 0.005894
vt 0.169436 0.006209
vt 0.169908 0.005979
vt 0.169760 0.006343
vt 0.170209 0.006173
vt 0.170086 0.006478
vt 0.169607 0.006705
vt 0.169957 0.006781
vt 0.169302 0.006520
vt 0.168988 0.006397
vt 0.169223 0.006859
vt 0.168851 0.006729
vt 0.169042 0.007151
vt 0.168705 0.007081
vt 0.168495 0.006558
vt 0.168417 0.006893
vt 0.169119 0.006078
vt 0.170550 0.006248
vt 0.170419 0.006617
vt 0.170842 0.006427
vt 0.170772 0.006763
vt 0.170251 0.006970
vt 0.170584 0.007049
vt 0.092209 0.006261
vt 0.092331 0.005946
vt 0.092649 0.006078
vt 0.091869 0.006181
vt 0.092381 0.006729
vt 0.092025 0.006558
vt 0.092518 0.006397
vt 0.093091 0.005895
vt 0.092966 0.006209
vt 0.092783 0.005759
vt 0.092548 0.005296
vt 0.092920 0.005428
vt 0.092468 0.005637
vt 0.092730 0.005005
vt 0.093067 0.005075
vt 0.093276 0.005599
vt 0.093438 0.005979
vt 0.093290 0.006343
vt 0.093738 0.006173
vt 0.093355 0.005264
vt 0.093616 0.006478
vt 0.094080 0.006248
vt 0.093137 0.006705
vt 0.093487 0.006781
vt 0.093949 0.006617
vt 0.093780 0.006970
vt 0.094301 0.006763
vt 0.094372 0.006428
vt 0.092235 0.007081
vt 0.092572 0.007151
vt 0.094114 0.007050
vt 0.091947 0.006893
vt 0.092000 0.005808
vt 0.091577 0.006000
vt 0.091648 0.005662
vt 0.092171 0.005453
vt 0.091837 0.005374
vt 0.092753 0.006860
vt 0.092832 0.006520
vt 0.163217 0.006261
vt 0.163339 0.005946
vt 0.163657 0.006078
vt 0.162877 0.006181
vt 0.163389 0.006729
vt 0.163033 0.006558
vt 0.163526 0.006397
vt 0.163974 0.006209
vt 0.164099 0.005894
vt 0.163791 0.005759
vt 0.163928 0.005428
vt 0.164284 0.005598
vt 0.164446 0.005979
vt 0.164075 0.005075
vt 0.164363 0.005264
vt 0.164298 0.006343
vt 0.164746 0.006173
vt 0.164624 0.006478
vt 0.163840 0.006520
vt 0.164145 0.006705
vt 0.163761 0.006859
vt 0.164495 0.006781
vt 0.163580 0.007151
vt 0.164957 0.006617
vt 0.163243 0.007081
vt 0.164788 0.006970
vt 0.165088 0.006248
vt 0.165380 0.006427
vt 0.165309 0.006763
vt 0.162656 0.005662
vt 0.162845 0.005374
vt 0.163179 0.005453
vt 0.163556 0.005296
vt 0.163738 0.005005
vt 0.163008 0.005808
vt 0.163476 0.005637
vt 0.162585 0.005999
vt 0.162955 0.006893
vt 0.165122 0.007049
vt 0.157755 0.006261
vt 0.157877 0.005946
vt 0.158195 0.006078
vt 0.157415 0.006181
vt 0.157927 0.006729
vt 0.157571 0.006558
vt 0.158064 0.006397
vt 0.158512 0.006209
vt 0.158637 0.005895
vt 0.158328 0.005759
vt 0.158466 0.005428
vt 0.158822 0.005599
vt 0.158984 0.005979
vt 0.158613 0.005075
vt 0.158901 0.005264
vt 0.158835 0.006343
vt 0.159284 0.006173
vt 0.159162 0.006478
vt 0.158378 0.006520
vt 0.158683 0.006705
vt 0.158299 0.006860
vt 0.159032 0.006781
vt 0.158118 0.007151
vt 0.159495 0.006617
vt 0.157781 0.007081
vt 0.159326 0.006970
vt 0.159626 0.006248
vt 0.159918 0.006428
vt 0.159847 0.006763
vt 0.157194 0.005662
vt 0.157383 0.005374
vt 0.157717 0.005453
vt 0.158094 0.005296
vt 0.158276 0.005005
vt 0.157546 0.005808
vt 0.158014 0.005637
vt 0.157123 0.006000
vt 0.157493 0.006893
vt 0.159660 0.007050
vt 0.253294 0.014037
vt 0.251145 0.012902
vt 0.252177 0.010906
vt 0.254297 0.012321
vt 0.254375 0.012185
vt 0.251569 0.010917
vt 0.252263 0.010762
vt 0.247815 0.008204
vt 0.248102 0.008770
vt 0.251396 0.011036
vt 0.250819 0.012320
vt 0.248102 0.008976
vt 0.250809 0.012114
vt 0.247460 0.010024
vt 0.247282 0.010128
vt 0.246652 0.010116
vt 0.244518 0.008633
vt 0.245659 0.006938
vt 0.247896 0.008059
vt 0.245733 0.006792
vt 0.246752 0.004991
vt 0.249032 0.006137
vt 0.249344 0.006705
vt 0.248522 0.008058
vt 0.253622 0.008987
vt 0.255644 0.010623
vt 0.252947 0.008945
vt 0.249358 0.006914
vt 0.252767 0.009045
vt 0.252002 0.010213
vt 0.252008 0.010002
vt 0.248688 0.007940
vt 0.989613 0.009103
vt 0.990211 0.008839
vt 0.992386 0.013521
vt 0.988259 0.006002
vt 0.984364 0.006346
vt 0.985356 0.009607
vt 0.986070 0.010113
vt 0.990861 0.014189
vt 0.989174 0.010005
vt 0.986853 0.014765
vt 0.985203 0.014961
vt 0.987321 0.016735
vt 0.991413 0.016119
vt 0.984704 0.009731
vt 0.985604 0.016992
vt 0.982871 0.010330
vt 0.981908 0.007142
vt 0.993060 0.015521
vt 0.991959 0.008062
vt 0.990649 0.004989
vt 0.121575 0.006561
vt 0.121192 0.007417
vt 0.120712 0.007299
vt 0.119825 0.007232
vt 0.120552 0.007792
vt 0.119568 0.007586
vt 0.119293 0.006722
vt 0.118888 0.006834
vt 0.119289 0.006019
vt 0.118909 0.005833
vt 0.119800 0.005479
vt 0.119633 0.005084
vt 0.120534 0.005406
vt 0.120665 0.005003
vt 0.121074 0.005827
vt 0.121430 0.005609
vt 0.121159 0.006541
vt 0.120229 0.006380
vt 0.099727 0.006561
vt 0.099343 0.007417
vt 0.098863 0.007299
vt 0.097977 0.007232
vt 0.098704 0.007792
vt 0.097719 0.007586
vt 0.097444 0.006722
vt 0.097040 0.006834
vt 0.097060 0.005833
vt 0.097441 0.006019
vt 0.097952 0.005479
vt 0.098685 0.005406
vt 0.098380 0.006380
vt 0.099225 0.005827
vt 0.099311 0.006541
vt 0.099581 0.005609
vt 0.098817 0.005003
vt 0.097784 0.005084
s 1
f 2/1/1 1/2/1 3/3/1
f 1/2/2 4/4/2 3/3/2
f 5/5/3 4/4/3 1/2/3
f 1/2/3 6/6/3 5/5/3
f 6/6/4 7/7/4 5/5/4
f 8/8/5 7/7/5 6/6/6
f 6/6/6 9/9/5 8/8/5
f 5/5/7 7/10/7 10/11/7
f 11/12/8 10/11/8 12/13/8
f 10/11/9 11/12/10 5/5/11
f 12/13/8 13/14/8 11/12/8
f 14/15/3 11/12/3 13/14/3
f 13/14/3 15/16/3 14/15/3
f 16/17/12 14/15/12 15/16/12
f 15/16/12 17/18/12 16/17/12
f 14/15/13 16/17/13 3/19/13
f 11/12/3 14/15/3 18/20/3
f 18/20/14 14/15/15 4/4/16
f 3/19/17 4/4/16 14/15/15
f 19/21/18 18/20/18 4/4/18
f 18/20/3 19/21/3 11/12/3
f 5/5/11 11/12/10 19/21/19
f 4/4/18 5/5/18 19/21/18
f 3/3/1 20/22/1 2/1/1
f 24/23/20 21/24/20 22/25/20
f 22/25/20 23/26/21 24/23/20
f 23/26/22 22/25/23 25/27/22
f 25/27/22 26/28/24 23/26/22
f 28/29/25 23/26/26 26/28/27
f 26/28/27 27/30/25 28/29/25
f 29/31/28 24/23/28 23/26/28
f 23/26/28 28/29/29 29/31/28
f 31/32/30 29/31/30 28/33/30
f 28/33/30 30/34/30 31/32/30
f 30/34/31 28/33/32 27/35/31
f 27/35/31 32/36/33 30/34/31
f 34/37/34 30/34/35 32/36/35
f 32/36/35 33/38/34 34/37/34
f 35/39/36 31/32/37 30/34/36
f 30/34/36 34/37/38 35/39/36
f 37/40/39 35/39/39 34/41/40
f 34/41/40 36/42/40 37/40/39
f 36/42/41 34/41/42 33/43/41
f 33/43/41 38/44/43 36/42/41
f 40/45/44 36/42/45 38/44/44
f 38/44/44 39/46/46 40/45/44
f 41/47/47 37/40/47 36/42/47
f 36/42/47 40/45/48 41/47/47
f 43/48/49 41/47/49 40/49/49
f 40/49/49 42/50/49 43/48/49
f 42/50/50 40/49/51 39/51/52
f 39/51/52 44/52/50 42/50/50
f 22/53/53 42/50/53 44/52/53
f 44/52/53 25/54/53 22/53/53
f 21/24/54 43/48/55 42/50/56
f 42/50/56 22/53/56 21/24/54
f 24/23/57 29/31/58 31/32/57
f 31/32/57 45/55/57 24/23/57
f 45/55/59 31/32/60 35/39/59
f 35/39/59 37/40/61 45/55/59
f 43/48/62 45/55/62 37/40/62
f 37/40/62 41/47/63 43/48/62
f 21/24/64 24/23/65 45/55/64
f 45/55/64 43/48/66 21/24/64
f 38/44/67 33/43/68 32/56/69
f 32/56/69 46/57/70 38/44/67
f 46/57/71 32/56/72 27/58/71
f 27/58/71 26/59/73 46/57/71
f 44/60/74 46/57/75 26/59/76
f 26/59/76 25/61/77 44/60/74
f 39/46/78 38/44/79 46/57/78
f 46/57/78 44/60/80 39/46/78
f 47/62/64 48/63/81 52/64/64
f 48/63/82 47/62/82 49/65/20
f 50/66/54 49/67/55 47/62/54
f 47/62/54 51/68/83 50/66/54
f 52/64/64 51/68/66 47/62/64
f 53/69/84 54/70/59 52/64/84
f 52/64/84 55/71/60 53/69/84
f 51/68/85 52/64/62 54/70/86
f 55/71/87 52/64/57 48/63/58
f 56/72/88 58/73/89 55/71/88
f 55/71/88 57/74/89 56/72/88
f 48/63/58 57/74/90 55/71/87
f 53/69/91 55/71/92 58/73/91
f 59/75/93 60/76/94 58/73/93
f 58/73/93 56/72/33 59/75/93
f 61/77/35 58/73/95 60/76/95
f 58/73/91 61/77/91 53/69/91
f 54/70/39 53/69/96 61/78/39
f 61/78/39 62/79/40 54/70/39
f 62/79/97 61/78/98 63/80/97
f 60/76/95 63/81/35 61/77/35
f 64/82/67 63/80/68 60/83/99
f 63/80/97 64/82/100 62/79/97
f 65/84/101 62/79/45 64/82/102
f 64/82/102 66/85/103 65/84/101
f 66/85/79 64/82/104 67/86/79
f 60/83/99 67/86/105 64/82/67
f 69/87/106 67/86/107 68/88/106
f 59/89/71 68/88/73 67/86/71
f 67/86/71 60/83/73 59/89/71
f 67/86/79 69/87/108 66/85/79
f 49/67/109 50/66/109 69/90/109
f 66/91/110 69/90/110 50/66/110
f 68/88/106 70/92/77 69/87/106
f 69/90/109 70/93/111 49/67/109
f 71/94/24 49/65/112 70/95/24
f 70/95/24 68/96/24 71/94/24
f 49/65/20 71/94/21 48/63/82
f 57/74/113 48/63/113 71/94/113
f 56/97/26 71/94/26 68/96/26
f 71/94/113 56/97/29 57/74/113
f 68/96/26 59/98/114 56/97/26
f 50/66/110 65/99/110 66/91/110
f 62/79/115 65/84/116 72/100/115
f 51/68/117 72/100/118 65/99/117
f 65/99/117 50/66/117 51/68/117
f 72/100/115 54/70/47 62/79/115
f 54/70/86 72/100/119 51/68/85
f 73/101/64 74/102/120 78/103/64
f 74/102/20 73/101/82 75/104/20
f 76/105/54 75/106/55 73/101/54
f 73/101/54 77/107/121 76/105/54
f 78/103/64 77/107/66 73/101/64
f 77/107/122 78/103/62 79/108/122
f 81/109/59 79/108/123 78/103/59
f 78/103/59 80/110/60 81/109/59
f 80/110/58 78/103/57 74/102/87
f 82/111/91 83/112/124 81/109/91
f 81/109/91 80/110/36 82/111/91
f 79/108/39 81/109/125 83/113/39
f 83/112/35 82/111/95 84/114/34
f 84/114/34 85/115/34 83/112/35
f 86/116/126 83/113/98 85/117/126
f 83/113/39 86/116/40 79/108/39
f 85/117/126 87/118/43 86/116/126
f 89/119/115 79/108/47 86/116/115
f 88/120/102 86/116/45 87/118/102
f 86/116/115 88/120/48 89/119/115
f 79/108/122 89/119/127 77/107/122
f 77/107/117 89/119/118 88/121/117
f 87/118/102 90/122/46 88/120/102
f 76/105/110 88/121/51 90/123/110
f 88/121/117 76/105/49 77/107/117
f 90/122/78 87/118/128 92/124/78
f 90/123/110 91/125/50 76/105/110
f 92/124/78 91/126/78 90/122/78
f 84/127/99 92/124/105 87/118/99
f 92/124/71 84/127/73 94/128/71
f 91/126/106 92/124/107 93/129/106
f 94/128/71 93/129/73 92/124/71
f 93/130/27 94/131/25 95/132/27
f 82/111/93 95/133/129 94/134/93
f 94/134/93 84/114/94 82/111/93
f 96/135/113 95/132/29 97/136/113
f 95/132/27 96/135/26 93/130/27
f 80/110/30 97/136/130 95/133/130
f 95/133/130 82/111/30 80/110/30
f 74/102/87 97/136/90 80/110/58
f 97/136/113 74/102/28 96/135/113
f 96/135/131 75/104/132 98/137/131
f 75/104/20 96/135/21 74/102/20
f 98/137/131 93/130/24 96/135/131
f 91/125/109 98/138/53 75/106/133
f 93/129/106 98/139/77 91/126/106
f 75/106/133 76/105/53 91/125/109
f 87/118/99 85/117/68 84/127/99
f 99/140/64 100/141/65 104/142/64
f 100/141/20 99/140/20 101/143/20
f 102/144/56 101/145/134 99/140/56
f 99/140/56 103/146/135 102/144/56
f 104/142/64 103/146/66 99/140/64
f 103/146/62 104/142/62 105/147/62
f 107/148/84 105/147/136 104/142/84
f 104/142/84 106/149/60 107/148/84
f 106/149/57 104/142/57 100/141/57
f 108/150/36 109/151/137 107/148/36
f 107/148/36 106/149/91 108/150/36
f 105/147/39 107/148/96 109/152/125
f 109/151/35 108/150/35 110/153/35
f 110/153/35 111/154/35 109/151/35
f 112/155/138 109/152/42 111/156/138
f 109/152/125 112/155/40 105/147/39
f 111/156/138 113/157/43 112/155/138
f 115/158/47 105/147/47 112/155/47
f 114/159/102 112/155/45 113/157/102
f 112/155/47 114/159/139 115/158/47
f 105/147/62 115/158/63 103/146/62
f 103/146/140 115/158/49 114/160/140
f 113/157/102 116/161/141 114/159/102
f 102/144/50 114/160/51 116/162/52
f 114/160/140 102/144/140 103/146/140
f 116/161/79 113/157/142 118/163/79
f 116/162/52 117/164/110 102/144/50
f 118/163/79 117/165/108 116/161/79
f 110/166/69 118/163/70 113/157/69
f 118/163/71 110/166/72 120/167/71
f 117/165/74 118/163/75 119/168/74
f 120/167/71 119/168/73 118/163/71
f 119/169/26 120/170/26 121/171/114
f 108/150/31 121/172/143 120/173/31
f 120/173/31 110/153/33 108/150/31
f 122/174/28 121/171/144 123/175/28
f 121/171/114 122/174/26 119/169/26
f 106/149/88 123/175/89 121/172/145
f 121/172/145 108/150/88 106/149/88
f 100/141/57 123/175/58 106/149/57
f 123/175/28 100/141/113 122/174/28
f 122/174/146 101/143/23 124/176/146
f 101/143/20 122/174/21 100/141/20
f 124/176/146 119/169/24 122/174/146
f 117/164/109 124/177/53 101/145/109
f 119/168/74 124/178/77 117/165/74
f 101/145/109 102/144/109 117/164/109
f 113/157/69 111/156/68 110/166/69
f 126/179/147 128/180/147 125/181/147
f 125/181/147 127/182/147 126/179/147
f 131/183/148 127/182/148 125/181/148
f 133/184/3 125/181/3 128/180/3
f 125/181/148 129/185/148 131/183/148
f 129/185/3 125/181/3 130/186/3
f 132/187/3 130/186/3 125/181/3
f 125/181/3 133/184/3 132/187/3
f 136/188/149 133/184/149 134/189/149
f 128/180/3 134/189/3 133/184/3
f 135/190/150 132/187/150 133/184/150
f 133/184/150 136/188/150 135/190/150
f 135/190/3 136/188/3 137/191/3
f 134/189/149 137/191/149 136/188/149
f 137/191/3 139/192/3 135/190/3
f 138/193/18 139/192/18 137/191/18
f 137/191/18 134/189/18 138/193/18
f 132/187/151 135/190/151 139/192/151
f 139/192/151 138/193/151 132/187/151
f 138/193/3 140/194/3 130/186/3
f 140/194/3 138/193/3 134/189/3
f 130/186/3 132/187/3 138/193/3
f 140/194/152 141/195/152 142/196/152
f 134/189/3 128/180/3 140/194/3
f 142/196/152 130/186/152 140/194/152
f 143/197/153 130/186/153 142/196/153
f 142/196/153 144/198/153 143/197/153
f 143/197/154 144/198/154 145/199/154
f 145/199/154 146/200/154 143/197/154
f 146/200/3 147/201/3 148/202/3
f 147/201/3 146/200/3 149/203/3
f 148/202/3 143/197/3 146/200/3
f 131/183/155 129/185/155 149/203/155
f 149/203/155 150/204/155 131/183/155
f 151/205/3 149/203/3 129/185/3
f 149/203/3 151/205/3 147/201/3
f 153/206/150 147/201/150 151/205/150
f 154/207/156 151/205/156 152/208/156
f 129/185/3 152/208/3 151/205/3
f 151/205/150 154/207/150 153/206/150
f 152/208/156 155/209/156 154/207/156
f 153/206/3 154/207/3 155/209/3
f 148/202/18 156/210/18 155/209/18
f 155/209/3 156/210/3 153/206/3
f 155/209/18 152/208/18 148/202/18
f 156/210/157 148/202/157 147/201/157
f 147/201/157 153/206/157 156/210/157
f 143/197/3 148/202/3 152/208/3
f 152/208/3 129/185/3 143/197/3
f 130/186/3 143/197/3 129/185/3
f 157/211/158 158/212/158 162/213/158
f 157/211/159 159/214/159 158/212/159
f 160/215/3 159/214/3 157/211/3
f 157/211/3 161/216/3 160/215/3
f 165/217/150 161/216/150 157/211/150
f 162/213/160 163/218/161 157/211/162
f 163/218/161 164/219/163 157/211/162
f 157/211/150 164/219/150 165/217/150
f 165/217/3 164/219/3 163/218/3
f 166/220/164 161/216/165 165/217/166
f 163/218/3 166/220/3 165/217/3
f 170/221/167 166/220/167 167/222/167
f 168/223/3 167/222/3 166/220/3
f 166/220/3 163/218/3 168/223/3
f 169/224/168 161/216/165 166/220/164
f 166/220/168 170/221/168 169/224/168
f 167/222/167 171/225/167 170/221/167
f 169/224/169 173/226/170 172/227/170
f 172/227/170 160/215/170 169/224/169
f 169/224/171 160/215/171 161/216/171
f 174/228/172 168/223/172 163/218/172
f 163/218/172 162/213/172 174/228/172
f 175/229/173 158/212/173 159/214/173
f 159/214/173 176/230/173 175/229/173
f 178/231/174 177/232/174 179/233/174
f 180/234/175 179/233/175 177/235/175
f 177/235/175 181/236/175 180/234/175
f 182/237/176 180/234/176 181/236/176
f 181/236/176 183/238/176 182/237/176
f 184/239/177 182/237/177 183/238/177
f 183/238/177 185/240/177 184/239/177
f 186/241/178 184/239/178 185/240/178
f 185/240/178 187/242/178 186/241/178
f 188/243/179 186/241/179 187/242/179
f 187/242/179 189/244/179 188/243/179
f 190/245/180 188/243/180 189/244/180
f 189/244/180 191/246/180 190/245/180
f 192/247/181 190/245/181 191/246/181
f 191/246/181 178/231/181 192/247/181
f 192/247/3 179/233/3 180/234/3
f 179/233/174 192/247/174 178/231/174
f 190/245/3 192/247/3 193/248/3
f 180/234/3 193/248/3 192/247/3
f 188/243/3 193/248/3 184/239/3
f 193/248/3 188/243/3 190/245/3
f 193/248/3 180/234/3 182/237/3
f 182/237/3 184/239/3 193/248/3
f 184/239/3 186/241/3 188/243/3
f 195/249/174 194/250/174 196/251/174
f 197/252/175 196/251/175 194/253/175
f 194/253/175 198/254/175 197/252/175
f 199/255/176 197/252/176 198/254/176
f 198/254/176 200/256/176 199/255/176
f 200/256/177 201/257/177 202/258/177
f 202/258/177 199/255/177 200/256/177
f 202/258/3 204/259/3 203/260/3
f 203/260/3 205/261/3 202/258/3
f 204/259/178 202/258/178 201/257/178
f 199/255/3 202/258/3 205/261/3
f 205/261/3 203/260/3 206/262/3
f 206/262/3 207/263/3 205/261/3
f 205/261/3 197/252/3 199/255/3
f 197/252/3 205/261/3 207/263/3
f 207/263/3 196/251/3 197/252/3
f 196/251/174 207/263/174 195/249/174
f 208/264/181 195/249/181 207/263/181
f 207/263/181 206/262/181 208/264/181
f 209/265/180 208/264/180 206/262/180
f 206/262/180 203/260/180 209/265/180
f 210/266/179 209/265/179 203/260/179
f 203/260/179 204/259/179 210/266/179
f 201/257/178 210/266/178 204/259/178
