# Blender 4.4.1
# www.blender.org
o Star.001
v 0.000515 -0.000000 -0.063711
v 0.000515 -0.063711 -0.000000
v 0.127937 -0.000000 -0.000000
v 0.000515 0.063710 -0.000000
v -0.129995 -0.000001 0.000001
v 0.000515 0.000000 0.063712
v 0.000000 0.000515 -0.063711
v 0.063711 0.000515 -0.000000
v 0.000000 0.127936 -0.000000
v -0.063711 0.000515 -0.000000
v 0.000000 -0.129995 -0.000000
v 0.000000 0.000515 0.063712
v 0.063711 -0.000001 0.000515
v 0.000000 -0.063711 0.000515
v 0.000000 -0.000001 0.127937
v 0.000000 0.063710 0.000515
v 0.000000 -0.000001 -0.129995
v -0.063711 -0.000001 0.000515
vn -0.3263 -0.6684 -0.6684
vn 0.3333 -0.6667 -0.6667
vn 0.3333 0.6667 -0.6667
vn -0.3263 0.6684 -0.6684
vn -0.3263 -0.6684 0.6684
vn -0.3263 0.6684 0.6684
vn 0.3333 0.6667 0.6666
vn 0.3333 -0.6667 0.6667
vn 0.6684 -0.3263 -0.6684
vn 0.6667 0.3333 -0.6667
vn -0.6667 0.3333 -0.6667
vn -0.6684 -0.3263 -0.6684
vn -0.6684 -0.3263 0.6684
vn 0.6684 -0.3263 0.6684
vn -0.6667 0.3333 0.6667
vn 0.6667 0.3333 0.6667
vn 0.6684 -0.6684 -0.3263
vn 0.6667 -0.6667 0.3333
vn 0.6667 0.6667 0.3333
vn 0.6684 0.6684 -0.3263
vn -0.6684 -0.6684 -0.3263
vn -0.6684 0.6684 -0.3263
vn -0.6667 0.6667 0.3333
vn -0.6667 -0.6667 0.3333
vt 0.685220 0.173140
vt 0.675121 0.176297
vt 0.675332 0.159243
vt 0.361045 0.348636
vt 0.357578 0.332269
vt 0.370172 0.343283
vt 0.350531 0.347443
vt 0.691513 0.164634
vt 0.665103 0.172891
vt 0.691578 0.154053
vt 0.342836 0.340180
vt 0.374261 0.333524
vt 0.346567 0.049512
vt 0.336468 0.052669
vt 0.336679 0.035615
vt 0.808941 0.098064
vt 0.805475 0.081697
vt 0.818068 0.092711
vt 0.798428 0.096870
vt 0.352860 0.041006
vt 0.352925 0.030425
vt 0.326450 0.049263
vt 0.790733 0.089607
vt 0.822158 0.082952
vt 0.586901 0.059749
vt 0.576802 0.062907
vt 0.577013 0.045853
vt 0.098861 0.393190
vt 0.095395 0.376823
vt 0.107988 0.387837
vt 0.088348 0.391996
vt 0.593194 0.051243
vt 0.566785 0.059500
vt 0.593260 0.040662
vt 0.080653 0.384733
vt 0.112078 0.378078
s 1
f 1/1/1 2/2/1 5/3/1
f 1/4/2 3/5/2 2/6/2
f 4/7/3 3/5/3 1/4/3
f 4/8/4 1/1/4 5/3/4
f 2/2/5 6/9/5 5/3/5
f 6/10/6 4/8/6 5/3/6
f 6/11/7 3/5/7 4/7/7
f 2/6/8 3/5/8 6/12/8
f 7/13/9 8/14/9 11/15/9
f 7/16/10 9/17/10 8/18/10
f 10/19/11 9/17/11 7/16/11
f 10/20/12 7/13/12 11/15/12
f 12/21/13 10/20/13 11/15/13
f 8/14/14 12/22/14 11/15/14
f 12/23/15 9/17/15 10/19/15
f 8/18/16 9/17/16 12/24/16
f 13/25/17 14/26/17 17/27/17
f 13/28/18 15/29/18 14/30/18
f 16/31/19 15/29/19 13/28/19
f 16/32/20 13/25/20 17/27/20
f 14/26/21 18/33/21 17/27/21
f 18/34/22 16/32/22 17/27/22
f 18/35/23 15/29/23 16/31/23
f 14/30/24 15/29/24 18/36/24
