# Blender 4.4.1
# www.blender.org
o UFO_3
v -0.000000 0.131126 -0.072924
v 0.051565 0.131126 -0.051565
v -0.051565 0.131126 -0.051565
v -0.000000 0.130068 -0.074791
v -0.052885 0.130068 -0.052885
v -0.074791 0.130068 -0.000000
v -0.047761 0.124044 -0.058320
v -0.077122 0.048536 -0.087681
v -0.087342 0.041454 -0.087342
v -0.007466 0.048536 -0.116533
v -0.123520 -0.083375 -0.000000
v -0.123520 0.041454 -0.000000
v -0.087342 -0.083375 -0.087342
v -0.000000 0.041454 -0.123520
v -0.007466 0.124044 -0.075011
v 0.087342 0.041454 -0.087342
v -0.000000 -0.083375 -0.123520
v 0.087342 -0.083375 -0.087342
v -0.080079 -0.083375 -0.080079
v -0.000000 -0.083375 -0.113249
v 0.080079 -0.083375 -0.080079
v -0.000000 -0.223239 -0.113249
v -0.080079 -0.223239 -0.080079
v -0.113249 -0.223239 -0.000000
v -0.076728 -0.227618 -0.076728
v -0.000000 -0.227618 -0.108510
v -0.000000 -0.227618 -0.000000
v 0.076728 -0.227618 -0.076728
v 0.076728 -0.227618 0.076728
v 0.108510 -0.227618 -0.000000
v 0.080079 -0.223239 -0.080079
v 0.113249 -0.083375 -0.000000
v 0.113249 -0.223239 -0.000000
v 0.080079 -0.223239 0.080079
v 0.080079 -0.083375 0.080079
v 0.087342 -0.083375 0.087342
v -0.000000 -0.083375 0.113249
v -0.000000 -0.083375 0.123521
v -0.087342 -0.083375 0.087342
v -0.000000 0.041454 0.123521
v -0.087342 0.041454 0.087342
v -0.087681 0.048536 0.077122
v -0.052885 0.130068 0.052886
v -0.000000 0.130068 0.074792
v -0.116533 0.048536 0.007467
v -0.075010 0.124044 0.007467
v -0.099167 0.038985 0.000274
v -0.057645 0.114495 0.000274
v -0.040954 0.114495 0.040568
v -0.070315 0.038985 0.069929
v -0.058320 0.124044 0.047761
v 0.052886 0.130068 0.052886
v 0.007467 0.124044 0.075011
v 0.047761 0.124044 0.058320
v -0.051565 0.131126 0.051565
v -0.000000 0.131126 0.072924
v 0.051565 0.131126 0.051565
v 0.072924 0.131126 -0.000000
v 0.074792 0.130068 -0.000000
v -0.000000 0.138594 -0.000000
v -0.072924 0.131126 -0.000000
v 0.075011 0.124044 -0.007466
v 0.052886 0.130068 -0.052885
v 0.058321 0.124044 -0.047761
v 0.123521 0.041454 -0.000000
v 0.087342 0.041454 0.087342
v 0.077122 0.048536 0.087681
v 0.123521 -0.083375 -0.000000
v 0.007467 0.048536 0.116534
v 0.000274 0.114495 0.057645
v 0.000274 0.038985 0.099168
v 0.040568 0.114495 0.040955
v 0.069929 0.038985 0.070315
v 0.116534 0.048536 -0.007466
v 0.087682 0.048536 -0.077122
v 0.057645 0.114495 -0.000273
v 0.099168 0.038985 -0.000273
v 0.040955 0.114495 -0.040568
v 0.070316 0.038985 -0.069929
v -0.080079 -0.083375 0.080079
v -0.113249 -0.083375 -0.000000
v -0.000000 -0.223239 0.113249
v -0.080079 -0.223239 0.080079
v -0.076728 -0.227618 0.076728
v -0.108509 -0.227618 -0.000000
v -0.000000 -0.227618 0.108510
v -0.000273 0.114495 -0.057645
v -0.040567 0.114495 -0.040954
v -0.000273 0.038985 -0.099167
v -0.069928 0.038985 -0.070315
v 0.007024 -0.217388 -0.150684
v 0.013037 -0.222651 -0.108867
v 0.007024 -0.146597 -0.150684
v -0.005990 -0.146597 -0.150684
v -0.005990 -0.217388 -0.150684
v -0.012003 -0.222651 -0.108867
v -0.012003 -0.078996 -0.108867
v 0.013037 -0.078996 -0.108867
v -0.007022 -0.217388 0.150683
v -0.013035 -0.222651 0.108867
v -0.007022 -0.146597 0.150683
v 0.005992 -0.146597 0.150683
v 0.005992 -0.217388 0.150683
v 0.012005 -0.222651 0.108867
v 0.012005 -0.078996 0.108867
v -0.013035 -0.078996 0.108867
v -0.150683 -0.217388 -0.007024
v -0.108866 -0.222651 -0.013037
v -0.150683 -0.146597 -0.007024
v -0.150683 -0.146597 0.005990
v -0.150683 -0.217388 0.005990
v -0.108866 -0.222651 0.012003
v -0.108866 -0.078996 0.012003
v -0.108866 -0.078996 -0.013037
v 0.150685 -0.217388 0.007023
v 0.108868 -0.222651 0.013036
v 0.150685 -0.146597 0.007023
v 0.150685 -0.146597 -0.005991
v 0.150685 -0.217388 -0.005991
v 0.108868 -0.222651 -0.012004
v 0.108868 -0.078996 -0.012004
v 0.108868 -0.078996 0.013036
vn 0.2002 0.8523 -0.4832
vn -0.0000 0.9948 -0.1019
vn -0.2002 0.8527 -0.4825
vn -0.2002 0.8528 -0.4823
vn -0.2002 0.8523 -0.4832
vn -0.2001 0.8521 -0.4837
vn -0.4833 0.8523 -0.1999
vn -0.4832 0.8523 -0.2002
vn -0.8237 0.4529 -0.3412
vn -0.3412 0.4530 -0.8237
vn -0.3412 0.4529 -0.8237
vn -0.9239 -0.0000 -0.3827
vn -0.3827 -0.0000 -0.9239
vn 0.3412 0.4529 -0.8237
vn 0.3827 -0.0000 -0.9239
vn -0.0000 -1.0000 -0.0000
vn -0.6533 -0.7071 -0.2706
vn -0.6534 -0.7070 -0.2706
vn -0.6533 -0.7070 -0.2706
vn -0.2706 -0.7070 -0.6534
vn 0.2706 -0.7070 -0.6534
vn 0.6534 -0.7070 -0.2706
vn 0.9239 -0.0000 -0.3827
vn 0.6534 -0.7070 0.2706
vn 0.9239 -0.0000 0.3827
vn 0.3827 -0.0000 0.9239
vn -0.3827 -0.0000 0.9239
vn -0.8237 0.4529 0.3412
vn -0.3412 0.4529 0.8237
vn -0.9239 -0.0000 0.3827
vn 0.2990 -0.1644 0.9400
vn 0.2989 -0.1644 0.9400
vn 0.4185 0.8915 -0.1734
vn -0.4185 -0.8915 0.1733
vn -0.4533 -0.1644 -0.8761
vn -0.2001 0.8524 0.4831
vn 0.2001 0.8524 0.4831
vn 0.2001 0.8524 0.4830
vn 0.3411 0.4529 0.8237
vn 0.3412 0.4529 0.8237
vn -0.0000 0.9948 0.1019
vn 0.4830 0.8524 0.2001
vn 0.4833 0.8524 0.1996
vn 0.4831 0.8524 0.2001
vn 0.1019 0.9948 -0.0000
vn -0.1019 0.9948 -0.0000
vn -0.4833 0.8524 0.1996
vn -0.4833 0.8524 0.1998
vn -0.4832 0.8523 0.2002
vn 0.8237 0.4529 0.3412
vn 0.8237 0.4529 -0.3412
vn 0.8237 0.4530 -0.3412
vn 0.4831 0.8524 -0.2001
vn 0.9400 -0.1644 -0.2989
vn 0.9400 -0.1644 -0.2990
vn -0.1734 0.8915 -0.4185
vn -0.8761 -0.1644 0.4533
vn 0.1733 -0.8915 0.4185
vn -0.4185 0.8915 0.1734
vn -0.2989 -0.1644 -0.9400
vn -0.2990 -0.1644 -0.9400
vn 0.4533 -0.1644 0.8761
vn 0.4185 -0.8915 -0.1733
vn 0.4833 0.8524 -0.1997
vn -0.6534 -0.7070 0.2706
vn -0.6533 -0.7071 0.2706
vn -0.2706 -0.7070 0.6534
vn 0.2706 -0.7070 0.6534
vn -0.1733 -0.8915 -0.4184
vn -0.1733 -0.8916 -0.4184
vn -0.9400 -0.1644 0.2990
vn -0.9400 -0.1644 0.2989
vn 0.8761 -0.1644 -0.4533
vn 0.1734 0.8915 0.4185
vn -0.0000 -0.9922 -0.1249
vn 0.9898 -0.0000 -0.1423
vn -0.0000 -0.0000 -1.0000
vn -0.9898 -0.0000 -0.1423
vn -0.0000 0.5261 -0.8504
vn -0.0000 -0.9922 0.1249
vn -0.9898 -0.0000 0.1423
vn -0.0000 -0.0000 1.0000
vn 0.9898 -0.0000 0.1423
vn -0.0000 0.5261 0.8504
vn -0.1249 -0.9922 -0.0000
vn -0.1423 -0.0000 -0.9898
vn -1.0000 -0.0000 -0.0000
vn -0.1423 -0.0000 0.9898
vn -0.8504 0.5261 -0.0000
vn 0.1249 -0.9922 -0.0000
vn 0.1423 -0.0000 0.9898
vn 1.0000 -0.0000 -0.0000
vn 0.1423 -0.0000 -0.9898
vn 0.8504 0.5261 -0.0000
vt 0.312810 0.450699
vt 0.312561 0.450581
vt 0.312562 0.443644
vt 0.307459 0.455046
vt 0.307548 0.455291
vt 0.300566 0.454920
vt 0.297660 0.398473
vt 0.294332 0.391466
vt 0.304504 0.383582
vt 0.294291 0.390153
vt 0.288215 0.384482
vt 0.303218 0.383403
vt 0.297463 0.375261
vt 0.297639 0.373614
vt 0.317440 0.376862
vt 0.322232 0.386881
vt 0.309087 0.392844
vt 0.313274 0.366711
vt 0.289462 0.384571
vt 0.325796 0.442835
vt 0.327351 0.453310
vt 0.344594 0.448733
vt 0.318512 0.376528
vt 0.340482 0.438142
vt 0.345590 0.447630
vt 0.314661 0.366791
vt 0.334526 0.370731
vt 0.361471 0.440312
vt 0.341570 0.437690
vt 0.330901 0.360861
vt 0.344114 0.375307
vt 0.335110 0.370211
vt 0.338599 0.380371
vt 0.331693 0.360894
vt 0.344780 0.361471
vt 0.335978 0.351806
vt 0.354468 0.352680
vt 0.345410 0.348412
vt 0.335450 0.351219
vt 0.345451 0.347622
vt 0.357541 0.430807
vt 0.338518 0.427279
vt 0.354127 0.420831
vt 0.355055 0.352151
vt 0.335221 0.416945
vt 0.350636 0.410619
vt 0.334190 0.417305
vt 0.330672 0.407056
vt 0.331666 0.406686
vt 0.326615 0.396941
vt 0.313529 0.402861
vt 0.317016 0.412064
vt 0.312333 0.402462
vt 0.308571 0.394090
vt 0.302061 0.407930
vt 0.304638 0.415751
vt 0.300960 0.399812
vt 0.298844 0.399153
vt 0.308091 0.395981
vt 0.302783 0.404355
vt 0.302278 0.406568
vt 0.310471 0.402007
vt 0.296128 0.449666
vt 0.295882 0.449754
vt 0.296213 0.442803
vt 0.296450 0.442915
vt 0.301348 0.438128
vt 0.308713 0.424439
vt 0.308394 0.425751
vt 0.305821 0.416611
vt 0.301436 0.438374
vt 0.308249 0.438452
vt 0.308138 0.438689
vt 0.304425 0.446695
vt 0.300678 0.454684
vt 0.310401 0.433672
vt 0.320491 0.422318
vt 0.311486 0.434645
vt 0.313323 0.442419
vt 0.323382 0.431881
vt 0.312797 0.443551
vt 0.319308 0.421778
vt 0.316354 0.413176
vt 0.337493 0.427631
vt 0.307957 0.417586
vt 0.315647 0.414944
vt 0.309404 0.422331
vt 0.317463 0.421100
vt 0.322591 0.432893
vt 0.321662 0.434539
vt 0.324610 0.442034
vt 0.313515 0.435870
vt 0.322801 0.441012
vt 0.314341 0.440585
vt 0.327615 0.396550
vt 0.342820 0.390254
vt 0.323221 0.386490
vt 0.346900 0.400370
vt 0.354106 0.371737
vt 0.344155 0.374518
vt 0.358639 0.362142
vt 0.353577 0.371150
vt 0.357850 0.362101
vt 0.291556 0.384304
vt 0.294329 0.387889
vt 0.297502 0.377445
vt 0.301295 0.383350
vt 0.677160 0.103642
vt 0.676963 0.098647
vt 0.679888 0.098947
vt 0.672288 0.102521
vt 0.676311 0.111912
vt 0.677832 0.112068
vt 0.678680 0.103799
vt 0.683679 0.103690
vt 0.681957 0.120472
vt 0.677581 0.121427
vt 0.674656 0.121126
vt 0.670566 0.119303
vt 0.677160 0.130891
vt 0.676963 0.125895
vt 0.679888 0.126195
vt 0.672288 0.129769
vt 0.676311 0.139161
vt 0.677832 0.139317
vt 0.678680 0.131047
vt 0.683679 0.130938
vt 0.681957 0.147721
vt 0.677581 0.148675
vt 0.674656 0.148375
vt 0.670566 0.146552
vt 0.983041 0.094247
vt 0.982843 0.089251
vt 0.985768 0.089551
vt 0.978168 0.093125
vt 0.982192 0.102517
vt 0.983712 0.102673
vt 0.984561 0.094403
vt 0.989559 0.094294
vt 0.987837 0.111077
vt 0.983462 0.112031
vt 0.980537 0.111731
vt 0.976446 0.109908
vt 0.906570 0.063435
vt 0.906373 0.058439
vt 0.909298 0.058740
vt 0.901698 0.062314
vt 0.905722 0.071705
vt 0.907242 0.071861
vt 0.908091 0.063591
vt 0.913089 0.063483
vt 0.911367 0.080265
vt 0.906992 0.081219
vt 0.904066 0.080919
vt 0.899976 0.079096
s 1
f 4/1/1 1/2/1 2/3/1
f 2/3/2 1/2/2 3/4/2
f 5/5/3 3/4/4 1/2/5
f 1/2/5 4/1/6 5/5/3
f 3/4/7 5/5/7 6/6/8
f 6/7/9 5/8/9 9/9/9
f 7/10/10 5/8/10 4/11/10
f 5/8/10 7/10/10 8/12/11
f 8/12/11 9/9/11 5/8/10
f 10/13/11 14/14/11 9/9/11
f 9/9/11 8/12/11 10/13/11
f 9/9/12 13/15/12 11/16/12
f 11/16/12 12/17/12 9/9/12
f 9/9/9 12/17/9 6/7/9
f 13/15/13 9/9/13 14/14/13
f 14/14/13 17/18/13 13/15/13
f 15/19/10 4/11/10 14/14/11
f 14/14/11 10/13/11 15/19/10
f 16/20/14 14/21/14 4/1/14
f 17/22/15 14/21/15 16/20/15
f 19/23/16 13/15/16 17/18/16
f 16/20/15 18/24/15 17/22/15
f 20/25/16 17/22/16 18/24/16
f 17/18/16 20/26/16 19/23/16
f 23/27/13 19/23/13 20/26/13
f 22/28/15 20/25/15 21/29/15
f 18/24/16 21/29/16 20/25/16
f 20/26/13 22/30/13 23/27/13
f 24/31/17 23/27/18 25/32/19
f 19/23/12 23/27/12 24/33/12
f 26/34/20 25/32/20 23/27/20
f 23/27/20 22/30/20 26/34/20
f 27/35/16 25/32/16 26/34/16
f 26/34/16 28/36/16 27/35/16
f 28/36/21 26/34/21 22/30/21
f 29/37/16 27/35/16 28/36/16
f 28/36/16 30/38/16 29/37/16
f 30/38/22 28/36/22 31/39/22
f 22/30/21 31/39/21 28/36/21
f 31/39/22 33/40/22 30/38/22
f 21/29/15 31/41/15 22/28/15
f 32/42/23 33/43/23 31/41/23
f 31/41/23 21/29/23 32/42/23
f 33/40/24 34/44/24 29/37/24
f 29/37/24 30/38/24 33/40/24
f 35/45/25 34/46/25 33/43/25
f 33/43/25 32/42/25 35/45/25
f 36/47/16 35/45/16 32/42/16
f 35/45/16 36/47/16 38/48/16
f 34/46/26 35/45/26 37/49/26
f 38/48/16 37/49/16 35/45/16
f 37/49/16 38/48/16 39/50/16
f 41/51/27 39/50/27 38/48/27
f 38/48/27 40/52/27 41/51/27
f 40/52/26 38/48/26 36/47/26
f 41/51/28 42/53/28 45/54/28
f 42/53/28 41/51/28 43/55/28
f 44/56/29 43/55/29 41/51/29
f 39/50/30 41/51/30 12/17/30
f 45/54/28 12/17/28 41/51/28
f 41/51/29 40/52/29 44/56/29
f 48/57/31 46/58/31 45/54/32
f 12/17/28 45/54/28 46/58/28
f 45/54/32 47/59/32 48/57/31
f 47/59/33 45/54/33 42/53/33
f 46/58/34 48/57/34 49/60/34
f 49/60/28 48/57/28 47/59/28
f 51/61/35 49/60/35 50/62/35
f 47/59/28 50/62/28 49/60/28
f 49/60/34 51/61/34 46/58/34
f 51/61/28 43/55/28 6/7/28
f 43/55/28 51/61/28 42/53/28
f 50/62/35 42/53/35 51/61/35
f 6/7/28 46/58/28 51/61/28
f 42/53/33 50/62/33 47/59/33
f 46/58/28 6/7/28 12/17/28
f 55/63/36 43/64/36 44/65/36
f 56/66/37 44/65/37 52/67/38
f 54/68/39 52/69/39 44/56/40
f 44/56/40 53/70/40 54/68/39
f 53/70/40 44/56/40 40/52/40
f 44/65/36 56/66/36 55/63/36
f 52/67/38 57/71/38 56/66/37
f 55/63/41 56/66/41 57/71/41
f 57/71/42 52/67/43 59/72/44
f 59/72/44 58/73/44 57/71/42
f 60/74/45 57/71/45 58/73/45
f 57/71/41 60/74/41 55/63/41
f 60/74/46 3/4/46 61/75/46
f 3/4/2 60/74/2 2/3/2
f 58/73/45 2/3/45 60/74/45
f 61/75/46 55/63/46 60/74/46
f 61/75/47 6/6/48 43/64/49
f 43/64/49 55/63/49 61/75/47
f 6/6/8 61/75/8 3/4/7
f 59/76/50 52/69/50 66/77/50
f 59/76/51 62/78/51 64/79/52
f 62/78/51 59/76/51 65/80/51
f 58/73/53 59/72/53 63/81/53
f 64/79/52 63/81/52 59/76/51
f 66/77/50 65/80/50 59/76/50
f 66/77/40 67/82/40 69/83/40
f 67/82/40 66/77/40 52/69/39
f 66/77/25 36/47/25 68/84/25
f 36/47/26 66/77/26 40/52/26
f 69/83/40 40/52/40 66/77/40
f 68/84/25 65/80/25 66/77/25
f 40/52/40 69/83/40 53/70/40
f 70/85/54 53/70/55 69/83/54
f 69/83/54 71/86/54 70/85/54
f 71/86/56 69/83/56 67/82/56
f 72/87/40 70/85/40 71/86/40
f 71/86/40 73/88/40 72/87/40
f 67/82/56 73/88/56 71/86/56
f 54/68/57 72/87/57 73/88/57
f 73/88/57 67/82/57 54/68/57
f 53/70/58 70/85/58 72/87/58
f 72/87/58 54/68/58 53/70/58
f 32/42/16 68/84/16 36/47/16
f 65/80/23 68/84/23 18/24/23
f 21/29/16 18/24/16 68/84/16
f 68/84/16 32/42/16 21/29/16
f 52/69/39 54/68/39 67/82/40
f 65/80/51 74/89/51 62/78/51
f 74/89/51 65/80/51 16/20/51
f 18/24/23 16/20/23 65/80/23
f 77/90/59 74/89/59 75/91/59
f 16/20/51 75/91/51 74/89/51
f 76/92/60 62/78/61 74/89/60
f 74/89/60 77/90/60 76/92/60
f 75/91/59 79/93/59 77/90/59
f 78/94/51 76/92/51 77/90/51
f 77/90/51 79/93/51 78/94/51
f 79/93/62 75/91/62 64/79/62
f 64/79/62 78/94/62 79/93/62
f 78/94/63 64/79/63 62/78/63
f 62/78/63 76/92/63 78/94/63
f 63/81/52 64/79/52 75/91/51
f 75/91/51 16/20/51 63/81/52
f 2/3/1 63/81/1 4/1/1
f 4/1/14 63/81/14 16/20/14
f 63/81/53 2/3/64 58/73/53
f 12/17/30 11/16/30 39/50/30
f 80/95/16 39/50/16 11/16/16
f 39/50/16 80/95/16 37/49/16
f 83/96/30 80/95/30 81/97/30
f 11/16/16 81/97/16 80/95/16
f 82/98/27 37/49/27 80/95/27
f 80/95/27 83/96/27 82/98/27
f 83/99/65 24/31/66 85/100/66
f 81/97/30 24/33/30 83/96/30
f 82/101/67 83/99/67 84/102/67
f 85/100/66 84/102/65 83/99/65
f 25/32/19 85/100/17 24/31/17
f 84/102/16 85/100/16 25/32/16
f 84/102/67 86/103/67 82/101/67
f 86/103/16 84/102/16 27/35/16
f 25/32/16 27/35/16 84/102/16
f 86/103/68 29/37/68 34/44/68
f 27/35/16 29/37/16 86/103/16
f 34/44/68 82/101/68 86/103/68
f 37/49/26 82/98/26 34/46/26
f 13/15/16 19/23/16 81/97/16
f 81/97/16 11/16/16 13/15/16
f 24/33/12 81/97/12 19/23/12
f 15/19/69 87/104/69 88/105/70
f 87/104/71 15/19/71 10/13/72
f 88/105/70 7/10/70 15/19/69
f 4/11/10 15/19/10 7/10/10
f 88/105/11 87/104/11 89/106/11
f 89/106/11 90/107/11 88/105/11
f 7/10/73 88/105/73 90/107/73
f 8/12/74 90/107/74 89/106/74
f 90/107/73 8/12/73 7/10/73
f 89/106/74 10/13/74 8/12/74
f 10/13/72 89/106/72 87/104/71
f 91/108/75 92/109/75 96/110/75
f 92/111/76 91/108/76 93/112/76
f 94/113/77 93/112/77 91/108/77
f 91/108/77 95/114/77 94/113/77
f 96/110/75 95/114/75 91/108/75
f 95/114/78 96/115/78 97/116/78
f 94/113/79 97/117/79 98/118/79
f 97/116/78 94/113/78 95/114/78
f 93/112/76 98/119/76 92/111/76
f 98/118/79 93/112/79 94/113/79
f 99/120/80 100/121/80 104/122/80
f 100/123/81 99/120/81 101/124/81
f 102/125/82 101/124/82 99/120/82
f 99/120/82 103/126/82 102/125/82
f 104/122/80 103/126/80 99/120/80
f 103/126/83 104/127/83 105/128/83
f 102/125/84 105/129/84 106/130/84
f 105/128/83 102/125/83 103/126/83
f 106/130/84 101/124/84 102/125/84
f 101/124/81 106/131/81 100/123/81
f 107/132/85 108/133/85 112/134/85
f 108/135/86 107/132/86 109/136/86
f 110/137/87 109/136/87 107/132/87
f 107/132/87 111/138/87 110/137/87
f 112/134/85 111/138/85 107/132/85
f 111/138/88 112/139/88 113/140/88
f 110/137/89 113/141/89 114/142/89
f 113/140/88 110/137/88 111/138/88
f 114/142/89 109/136/89 110/137/89
f 109/136/86 114/143/86 108/135/86
f 115/144/90 116/145/90 120/146/90
f 116/147/91 115/144/91 117/148/91
f 118/149/92 117/148/92 115/144/92
f 115/144/92 119/150/92 118/149/92
f 120/146/90 119/150/90 115/144/90
f 119/150/93 120/151/93 121/152/93
f 118/149/94 121/153/94 122/154/94
f 121/152/93 118/149/93 119/150/93
f 117/148/91 122/155/91 116/147/91
f 122/154/94 117/148/94 118/149/94
