# Blender 4.4.1
# www.blender.org
o Space_Texturing_to_export.099
v -0.000000 -0.030108 -0.290082
v 0.205120 -0.030108 -0.205119
v -0.000000 0.030102 -0.218312
v -0.154370 0.030102 -0.154370
v -0.205119 -0.030108 -0.205119
v -0.000000 -0.030108 -0.000000
v 0.290083 -0.030108 -0.000000
v 0.218312 0.030102 -0.000000
v 0.205120 -0.030108 0.205119
v 0.154370 0.030102 -0.154370
v -0.000000 0.030102 -0.000000
v -0.218312 0.030102 -0.000000
v 0.154370 0.030102 0.154370
v -0.154370 0.030102 0.154370
v -0.000000 0.030102 0.218312
v -0.205119 -0.030108 0.205119
v -0.290082 -0.030108 -0.000000
v -0.000000 -0.030108 0.290083
v -0.057857 -0.155910 0.157375
v 0.003948 -0.022264 -0.010477
v -0.003951 -0.012822 -0.005340
v 0.016533 -0.026172 -0.008427
v 0.026432 -0.022264 -0.000390
v 0.027847 -0.012822 0.008926
v 0.019948 -0.003385 0.014063
v 0.007363 0.000525 0.012012
v -0.002536 -0.003385 0.003975
v 0.133716 0.020522 0.039304
v 0.144348 0.020522 0.045442
v 0.133716 0.065936 0.039304
v 0.123084 0.065936 0.045442
v 0.123084 0.020522 0.045442
v 0.123084 0.065936 0.057719
v 0.123084 0.020522 0.057719
v 0.133716 0.065936 0.063858
v 0.133716 0.020522 0.063858
v 0.144348 0.065936 0.057719
v 0.144348 0.020522 0.057719
v 0.144348 0.065936 0.045442
v -0.189940 -0.153661 -0.025847
v -0.011495 -0.020011 -0.038169
v -0.019415 -0.010573 -0.043272
v -0.008214 -0.023922 -0.025847
v -0.011495 -0.020013 -0.013525
v -0.019415 -0.010573 -0.008421
v -0.027335 -0.001134 -0.013525
v -0.030616 0.002776 -0.025847
v -0.027335 -0.001134 -0.038169
v 0.159366 0.022437 0.005149
v 0.169243 0.022437 0.010852
v 0.159366 0.109468 0.005149
v 0.149488 0.109468 0.010852
v 0.149488 0.022437 0.010852
v 0.149488 0.109468 0.022258
v 0.149488 0.022437 0.022258
v 0.159366 0.109468 0.027960
v 0.159366 0.022437 0.027960
v 0.169243 0.109468 0.022258
v 0.169243 0.022437 0.022258
v 0.169243 0.109468 0.010852
v 0.105505 -0.150867 -0.179748
v 0.030283 -0.017219 -0.017464
v 0.038572 -0.007780 -0.021943
v 0.017905 -0.021129 -0.020529
v 0.008691 -0.017219 -0.029344
v 0.008037 -0.007780 -0.038743
v 0.016327 0.001659 -0.043222
v 0.028704 0.005569 -0.040157
v 0.037919 0.001659 -0.031343
vn -0.0000 -1.0000 -0.0000
vn 0.2573 0.7403 -0.6211
vn -0.2573 0.7403 -0.6211
vn 0.6211 0.7403 0.2573
vn 0.6211 0.7403 -0.2573
vn -0.0000 1.0000 -0.0000
vn -0.2573 0.7403 0.6211
vn -0.6211 0.7403 0.2573
vn -0.6211 0.7403 -0.2573
vn 0.2573 0.7403 0.6211
vn -0.1283 -0.7523 -0.6462
vn -0.7629 -0.3387 -0.5506
vn -0.9638 0.2461 -0.1029
vn 0.5680 -0.7523 -0.3338
vn 0.9185 -0.3387 0.2038
vn 0.7177 0.2460 0.6515
vn 0.0832 0.6595 0.7471
vn -0.6133 0.6595 0.4346
vn 0.5000 -0.0000 -0.8660
vn -0.5000 -0.0000 -0.8660
vn -1.0000 -0.0000 -0.0000
vn -0.5000 -0.0000 0.8660
vn 0.5000 -0.0000 0.8660
vn 1.0000 -0.0000 -0.0000
vn 0.5372 -0.7524 -0.3813
vn 0.5370 -0.7522 -0.3818
vn 0.1901 -0.3387 -0.9215
vn -0.3006 0.2460 -0.9215
vn 0.5371 -0.7523 0.3817
vn 0.1901 -0.3388 0.9215
vn -0.3006 0.2460 0.9215
vn -0.6476 0.6595 0.3817
vn -0.6476 0.6595 -0.3817
vn -0.4999 -0.0000 0.8661
vn 0.0756 -0.7523 0.6545
vn 0.7157 -0.3387 0.6107
vn 0.9523 0.2460 0.1809
vn -0.5933 -0.7522 0.2865
vn -0.8990 -0.3388 -0.2776
vn -0.6624 0.2460 -0.7076
vn -0.0222 0.6595 -0.7513
vn 0.6465 0.6595 -0.3834
vt 0.216062 0.502252
vt 0.211738 0.476540
vt 0.226861 0.455302
vt 0.187308 0.485650
vt 0.186655 0.474668
vt 0.167587 0.470038
vt 0.161971 0.479499
vt 0.237300 0.517376
vt 0.244937 0.484177
vt 0.174727 0.397921
vt 0.200732 0.399798
vt 0.196758 0.410057
vt 0.205041 0.467812
vt 0.216422 0.451828
vt 0.252573 0.450978
vt 0.185690 0.471066
vt 0.169706 0.459684
vt 0.191437 0.446081
vt 0.213168 0.432478
vt 0.166452 0.440334
vt 0.177834 0.424350
vt 0.197184 0.421096
vt 0.160188 0.418446
vt 0.151606 0.436092
vt 0.140737 0.434392
vt 0.144438 0.460201
vt 0.154392 0.455515
vt 0.263012 0.513052
vt 0.273812 0.466101
vt 0.278136 0.491813
vt 0.177187 0.408644
vt 0.152140 0.410945
vt 0.480175 0.106355
vt 0.480956 0.132565
vt 0.479390 0.132565
vt 0.851598 0.009536
vt 0.852383 0.035746
vt 0.850817 0.035746
vt 0.474711 0.107258
vt 0.475494 0.133468
vt 0.473928 0.133468
vt 0.436475 0.104573
vt 0.437259 0.130783
vt 0.435693 0.130783
vt 0.567569 0.004129
vt 0.568351 0.030339
vt 0.566785 0.030339
vt 0.004965 0.102585
vt 0.005749 0.128795
vt 0.004183 0.128795
vt 0.786055 0.080931
vt 0.786837 0.107140
vt 0.785271 0.107140
vt 0.928069 0.087443
vt 0.928853 0.113653
vt 0.927287 0.113653
vt 0.104459 0.005143
vt 0.105894 0.005285
vt 0.105371 0.010592
vt 0.106806 0.010733
vt 0.107329 0.005426
vt 0.108241 0.010875
vt 0.108764 0.005567
vt 0.109676 0.011016
vt 0.110199 0.005709
vt 0.111110 0.011157
vt 0.111633 0.005850
vt 0.103025 0.005002
vt 0.103936 0.010451
vt 0.102502 0.010309
vt 0.993616 0.039913
vt 0.994399 0.066123
vt 0.992833 0.066123
vt 0.392779 0.131983
vt 0.393562 0.158193
vt 0.391996 0.158193
vt 0.993615 0.090402
vt 0.994399 0.116612
vt 0.992833 0.116612
vt 0.955379 0.071116
vt 0.956164 0.097326
vt 0.954598 0.097326
vt 0.360007 0.061087
vt 0.360789 0.087297
vt 0.359223 0.087297
vt 0.780593 0.049427
vt 0.781375 0.075636
vt 0.779809 0.075636
vt 0.993614 0.065153
vt 0.994399 0.091363
vt 0.992833 0.091363
vt 0.682274 0.061721
vt 0.683056 0.087931
vt 0.681490 0.087931
vt 0.481163 0.005060
vt 0.482501 0.005117
vt 0.482067 0.015328
vt 0.483405 0.015385
vt 0.483839 0.005174
vt 0.484743 0.015442
vt 0.485177 0.005231
vt 0.486081 0.015499
vt 0.486516 0.005288
vt 0.487420 0.015556
vt 0.487854 0.005345
vt 0.480729 0.015271
vt 0.479390 0.015215
vt 0.479824 0.005003
vt 0.682274 0.011096
vt 0.683056 0.037306
vt 0.681490 0.037306
vt 0.993616 0.115687
vt 0.994399 0.141897
vt 0.992833 0.141897
vt 0.676811 0.032204
vt 0.677594 0.058414
vt 0.676028 0.058414
vt 0.993615 0.014624
vt 0.994399 0.040834
vt 0.992833 0.040834
vt 0.004966 0.127878
vt 0.005749 0.154088
vt 0.004183 0.154088
vt 0.682273 0.036393
vt 0.683056 0.062603
vt 0.681490 0.062603
vt 0.010427 0.104544
vt 0.011211 0.130754
vt 0.009645 0.130754
vt 0.463787 0.041515
vt 0.464570 0.067725
vt 0.463004 0.067725
s 1
f 1/1/1 2/2/1 7/3/1
f 2/2/2 1/4/2 3/5/2
f 4/6/3 3/5/3 1/4/3
f 1/4/3 5/7/3 4/6/3
f 5/8/1 1/1/1 6/9/1
f 7/3/1 6/9/1 1/1/1
f 9/10/4 7/11/4 8/12/4
f 10/13/5 8/14/5 7/3/5
f 6/9/1 7/3/1 9/15/1
f 7/3/5 2/2/5 10/13/5
f 10/13/6 3/16/6 4/17/6
f 3/5/2 10/13/2 2/2/2
f 8/14/6 10/13/6 11/18/6
f 4/17/6 11/18/6 10/13/6
f 11/18/6 13/19/6 8/14/6
f 12/20/6 14/21/6 11/18/6
f 11/18/6 4/17/6 12/20/6
f 13/19/6 11/18/6 14/21/6
f 14/21/6 15/22/6 13/19/6
f 15/23/7 14/24/7 16/25/7
f 17/26/8 16/25/8 14/24/8
f 14/24/8 12/27/8 17/26/8
f 5/7/9 17/26/9 12/27/9
f 6/9/1 17/28/1 5/8/1
f 17/28/1 6/9/1 18/29/1
f 18/29/1 16/30/1 17/28/1
f 13/31/10 15/23/10 18/32/10
f 18/32/10 9/10/10 13/31/10
f 9/15/1 18/29/1 6/9/1
f 16/25/7 18/32/7 15/23/7
f 8/12/4 13/31/4 9/10/4
f 12/27/9 4/6/9 5/7/9
f 19/33/11 20/34/11 22/35/11
f 19/36/12 21/37/12 20/38/12
f 19/39/13 27/40/13 21/41/13
f 19/42/14 22/43/14 23/44/14
f 19/45/15 23/46/15 24/47/15
f 19/48/16 24/49/16 25/50/16
f 19/51/17 25/52/17 26/53/17
f 19/54/18 26/55/18 27/56/18
f 29/57/19 28/58/19 30/59/19
f 31/60/20 30/59/20 28/58/20
f 28/58/20 32/61/20 31/60/20
f 33/62/21 31/60/21 32/61/21
f 32/61/21 34/63/21 33/62/21
f 35/64/22 33/62/22 34/63/22
f 34/63/22 36/65/22 35/64/22
f 37/66/23 35/64/23 36/65/23
f 36/65/23 38/67/23 37/66/23
f 38/68/24 29/57/24 39/69/24
f 39/69/24 37/70/24 38/68/24
f 30/59/19 39/69/19 29/57/19
f 40/71/25 41/72/25 43/73/26
f 40/74/27 42/75/27 41/76/27
f 40/77/28 48/78/28 42/79/28
f 40/80/29 43/81/29 44/82/29
f 40/83/30 44/84/30 45/85/30
f 40/86/31 45/87/31 46/88/31
f 40/89/32 46/90/32 47/91/32
f 40/92/33 47/93/33 48/94/33
f 50/95/19 49/96/19 51/97/19
f 52/98/20 51/97/20 49/96/20
f 49/96/20 53/99/20 52/98/20
f 54/100/21 52/98/21 53/99/21
f 53/99/21 55/101/21 54/100/21
f 56/102/34 54/100/34 55/101/34
f 55/101/34 57/103/34 56/102/34
f 58/104/23 56/102/23 57/103/23
f 57/103/23 59/105/23 58/104/23
f 60/106/24 58/107/24 59/108/24
f 59/108/24 50/95/24 60/106/24
f 51/97/19 60/106/19 50/95/19
f 61/109/35 62/110/35 64/111/35
f 61/112/36 63/113/36 62/114/36
f 61/115/37 69/116/37 63/117/37
f 61/118/38 64/119/38 65/120/38
f 61/121/39 65/122/39 66/123/39
f 61/124/40 66/125/40 67/126/40
f 61/127/41 67/128/41 68/129/41
f 61/130/42 68/131/42 69/132/42
