# Blender 4.4.1
# www.blender.org
o UFO_1
v 0.139730 -0.069457 -0.139730
v 0.197608 -0.069457 -0.000000
v 0.123476 -0.052713 -0.123476
v 0.000001 -0.093619 -0.215877
v 0.000001 -0.069457 -0.197608
v 0.152649 -0.093619 -0.152648
v 0.000001 -0.052713 -0.174621
v -0.123475 -0.052713 -0.123476
v -0.000000 -0.031047 -0.142384
v -0.100680 -0.031047 -0.100681
v -0.142384 -0.031047 -0.000000
v -0.100680 -0.016351 -0.100681
v -0.000000 -0.016351 -0.142384
v -0.000000 -0.016351 -0.138053
v 0.097619 -0.016351 -0.097618
v 0.100681 -0.016351 -0.100681
v 0.100681 -0.031047 -0.100681
v 0.142385 -0.016351 -0.000000
v 0.138054 -0.016351 -0.000000
v 0.097619 -0.016351 0.097619
v 0.097619 -0.024669 0.097619
v 0.138054 -0.024669 -0.000000
v 0.097619 -0.024669 -0.097618
v -0.000000 -0.024669 -0.138053
v -0.097618 -0.024669 -0.097618
v -0.097618 -0.016351 -0.097618
v -0.142384 -0.016351 -0.000000
v -0.138053 -0.016351 -0.000000
v -0.097618 -0.016351 0.097619
v -0.138053 -0.024669 -0.000000
v -0.100680 -0.016351 0.100681
v -0.000000 -0.016351 0.142384
v -0.000000 -0.031047 0.142384
v -0.100680 -0.031047 0.100681
v -0.174621 -0.052713 -0.000000
v -0.123475 -0.052713 0.123476
v 0.000001 -0.052713 0.174621
v -0.139729 -0.069457 0.139730
v -0.197607 -0.069457 -0.000000
v -0.139729 -0.069457 -0.139730
v -0.152648 -0.093619 0.152649
v -0.215877 -0.093619 -0.000000
v -0.152648 -0.093619 -0.152648
v 0.000001 -0.093619 -0.000000
v 0.152649 -0.093619 0.152649
v 0.215878 -0.093619 -0.000000
v 0.139730 -0.069457 0.139730
v 0.174622 -0.052713 -0.000000
v 0.123476 -0.052713 0.123476
v 0.000001 -0.069457 0.197608
v 0.000001 -0.093619 0.215878
v 0.142385 -0.031047 -0.000000
v 0.100681 -0.031047 0.100681
v 0.100681 -0.016351 0.100681
v -0.000000 -0.016351 0.138054
v -0.000000 -0.024669 0.138054
v -0.097618 -0.024669 0.097619
v -0.000000 -0.003140 0.132672
v -0.000000 -0.027257 0.135161
v -0.093813 -0.003140 0.093813
v 0.095574 -0.027257 0.095574
v 0.093813 -0.003140 0.093813
v -0.000000 0.038939 0.119163
v -0.084261 0.038939 0.084261
v -0.119162 0.038939 -0.000000
v -0.100207 0.072412 -0.000000
v -0.070857 0.072412 0.070858
v 0.000001 0.072412 0.100208
v -0.048872 0.103972 0.048873
v -0.069116 0.103972 -0.000000
v -0.048872 0.103972 -0.048872
v -0.029710 0.116406 -0.029710
v -0.042016 0.116406 -0.000000
v -0.029710 0.116406 0.029711
v 0.000001 0.116406 -0.000000
v 0.029712 0.116406 0.029711
v 0.029712 0.116406 -0.029710
v 0.042018 0.116406 -0.000000
v 0.048873 0.103972 -0.048872
v 0.069117 0.103972 -0.000000
v 0.100208 0.072412 -0.000000
v 0.070858 0.072412 -0.070857
v 0.048873 0.103972 0.048873
v 0.070858 0.072412 0.070858
v 0.000001 0.116406 0.042018
v 0.000001 0.103972 0.069117
v 0.119163 0.038939 -0.000000
v 0.084261 0.038939 0.084261
v 0.132672 -0.003140 -0.000000
v 0.093813 -0.003140 -0.093813
v 0.095574 -0.027257 -0.095573
v 0.135162 -0.027257 -0.000000
v -0.000000 -0.027257 -0.135161
v -0.000000 -0.003140 -0.132671
v -0.095573 -0.027257 -0.095573
v -0.135161 -0.027257 -0.000000
v -0.093813 -0.003140 -0.093813
v -0.132671 -0.003140 -0.000000
v -0.000000 0.038939 -0.119163
v -0.084261 0.038939 -0.084261
v 0.000001 0.072412 -0.100208
v -0.070857 0.072412 -0.070857
v 0.000001 0.103972 -0.069116
v 0.000001 0.116406 -0.042017
v 0.084261 0.038939 -0.084261
v -0.095573 -0.027257 0.095574
vn 0.7574 0.5727 -0.3137
vn 0.5720 0.7853 -0.2370
vn 0.5720 0.7853 -0.2369
vn 0.2369 0.7853 -0.5720
vn 0.3137 0.5727 -0.7574
vn 0.2251 0.8087 -0.5435
vn -0.2251 0.8087 -0.5435
vn -0.2369 0.7853 -0.5720
vn -0.9239 -0.0000 -0.3827
vn -0.5435 0.8087 -0.2251
vn -0.3827 -0.0000 -0.9239
vn -0.0000 1.0000 -0.0000
vn -0.0000 1.0000 0.0001
vn -0.0000 1.0000 -0.0003
vn 0.3827 -0.0000 -0.9239
vn 0.9239 -0.0000 -0.3827
vn -0.0000 1.0000 0.0003
vn -0.9239 -0.0000 -0.3828
vn -0.9238 -0.0000 0.3828
vn -0.9239 -0.0000 -0.3826
vn -0.9239 -0.0000 0.3826
vn -0.3827 -0.0000 0.9239
vn 0.3827 -0.0000 0.9239
vn 0.9239 -0.0000 0.3826
vn -0.0000 1.0000 -0.0002
vn 0.9239 -0.0000 -0.3826
vn 0.9238 -0.0000 0.3828
vn -0.9239 -0.0000 0.3827
vn -0.5435 0.8087 0.2251
vn -0.5435 0.8087 0.2252
vn -0.2251 0.8087 0.5435
vn -0.2369 0.7853 0.5720
vn -0.5720 0.7853 0.2370
vn -0.5720 0.7853 0.2369
vn -0.7574 0.5727 0.3137
vn -0.5720 0.7853 -0.2370
vn -0.5720 0.7853 -0.2369
vn -0.7574 0.5727 -0.3137
vn -0.0000 -1.0000 -0.0000
vn 0.7574 0.5727 0.3137
vn 0.5720 0.7853 0.2369
vn 0.5720 0.7853 0.2370
vn 0.2369 0.7853 0.5720
vn 0.3137 0.5727 0.7574
vn -0.3137 0.5727 0.7574
vn 0.5435 0.8087 0.2251
vn 0.2251 0.8087 0.5435
vn 0.9239 -0.0000 0.3827
vn 0.2251 0.8086 0.5435
vn 0.9239 -0.0000 -0.3828
vn 0.5435 0.8087 -0.2251
vn 0.5435 0.8087 -0.2252
vn -0.3137 0.5727 -0.7574
vn 0.3809 0.0949 0.9197
vn -0.3810 0.0949 0.9197
vn -0.3669 0.2843 0.8857
vn -0.3669 0.2844 0.8857
vn 0.3810 0.0950 0.9197
vn 0.3669 0.2843 0.8857
vn 0.3669 0.2844 0.8857
vn -0.8186 0.4636 0.3391
vn -0.8857 0.2844 0.3669
vn -0.8857 0.2843 0.3669
vn -0.3391 0.4636 0.8186
vn -0.6833 0.6731 0.2830
vn -0.2830 0.6731 0.6833
vn -0.4109 0.8956 -0.1702
vn -0.6833 0.6731 -0.2830
vn -0.6833 0.6731 -0.2831
vn -0.4109 0.8956 0.1702
vn -0.4110 0.8956 0.1702
vn 0.4110 0.8956 -0.1702
vn 0.4109 0.8956 -0.1702
vn 0.4110 0.8956 0.1702
vn 0.4109 0.8956 0.1703
vn 0.6833 0.6731 -0.2830
vn 0.6833 0.6731 0.2830
vn 0.2830 0.6731 0.6832
vn 0.2830 0.6731 0.6833
vn 0.1702 0.8956 0.4110
vn 0.1702 0.8956 0.4109
vn -0.1702 0.8956 0.4109
vn -0.1702 0.8956 0.4110
vn -0.1702 0.8957 0.4109
vn 0.3391 0.4635 0.8186
vn 0.3391 0.4636 0.8186
vn 0.8186 0.4636 0.3391
vn 0.8857 0.2844 0.3669
vn 0.8857 0.2843 0.3669
vn 0.8857 0.2844 -0.3669
vn 0.9197 0.0950 -0.3810
vn 0.9197 0.0950 0.3809
vn 0.9197 0.0950 0.3810
vn 0.3809 0.0949 -0.9197
vn 0.3810 0.0950 -0.9197
vn -0.3809 0.0950 -0.9197
vn -0.3810 0.0949 -0.9197
vn -0.9197 0.0949 -0.3809
vn -0.3669 0.2843 -0.8857
vn -0.3669 0.2843 -0.8858
vn -0.3669 0.2844 -0.8857
vn -0.9197 0.0950 -0.3809
vn -0.8857 0.2843 -0.3669
vn -0.8857 0.2844 -0.3669
vn -0.3391 0.4636 -0.8186
vn -0.8186 0.4636 -0.3391
vn -0.2830 0.6731 -0.6832
vn -0.2830 0.6731 -0.6833
vn 0.1702 0.8956 -0.4110
vn 0.2830 0.6731 -0.6833
vn 0.1702 0.8956 -0.4109
vn -0.1702 0.8956 -0.4109
vn -0.1702 0.8956 -0.4110
vn -0.1702 0.8957 -0.4109
vn 0.3391 0.4636 -0.8186
vn 0.3391 0.4635 -0.8186
vn 0.3669 0.2843 -0.8857
vn 0.3669 0.2844 -0.8857
vn 0.8186 0.4636 -0.3391
vn -0.9197 0.0950 0.3809
vn -0.9197 0.0949 0.3809
vn -0.3809 0.0950 0.9197
vt 0.993633 0.183993
vt 0.992521 0.187575
vt 0.974537 0.187552
vt 0.991221 0.190761
vt 0.951294 0.268909
vt 0.963062 0.279387
vt 0.961822 0.282542
vt 0.960450 0.285916
vt 0.945578 0.272950
vt 0.948453 0.270690
vt 0.955098 0.266336
vt 0.945904 0.254324
vt 0.950387 0.253464
vt 0.952133 0.253116
vt 0.949674 0.239479
vt 0.956590 0.265402
vt 0.957042 0.265167
vt 0.965973 0.273376
vt 0.965816 0.273862
vt 0.964760 0.275152
vt 0.989496 0.194978
vt 0.989450 0.196713
vt 0.977333 0.197018
vt 0.977550 0.197473
vt 0.989244 0.197187
vt 0.967067 0.204418
vt 0.967866 0.205002
vt 0.978007 0.198342
vt 0.989186 0.198187
vt 0.957960 0.264780
vt 0.966607 0.272644
vt 0.952629 0.253046
vt 0.953623 0.252952
vt 0.951450 0.239549
vt 0.951945 0.239584
vt 0.954019 0.225836
vt 0.952935 0.239683
vt 0.954517 0.225904
vt 0.952237 0.225584
vt 0.958618 0.214996
vt 0.957069 0.214084
vt 0.945133 0.239085
vt 0.947822 0.224321
vt 0.953196 0.211547
vt 0.944639 0.223315
vt 0.941809 0.238806
vt 0.941152 0.222457
vt 0.942615 0.254929
vt 0.938211 0.238822
vt 0.861741 0.398286
vt 0.873881 0.383151
vt 0.886082 0.405373
vt 0.939137 0.255935
vt 0.863859 0.417574
vt 0.908305 0.393173
vt 0.910423 0.412460
vt 0.898282 0.427596
vt 0.973323 0.184114
vt 0.960135 0.196822
vt 0.957577 0.194271
vt 0.975355 0.190894
vt 0.962318 0.199413
vt 0.950366 0.209742
vt 0.947179 0.208086
vt 0.878995 0.429714
vt 0.976646 0.195437
vt 0.965372 0.202927
vt 0.966679 0.204102
vt 0.959059 0.215236
vt 0.955242 0.226165
vt 0.959925 0.215770
vt 0.955273 0.226180
vt 0.893169 0.381032
vt 0.806767 0.151125
vt 0.806315 0.148320
vt 0.821330 0.151175
vt 0.794578 0.156848
vt 0.797975 0.160571
vt 0.820135 0.153756
vt 0.807570 0.156094
vt 0.797013 0.171087
vt 0.792857 0.169847
vt 0.800836 0.163776
vt 0.808183 0.160339
vt 0.801772 0.172331
vt 0.804083 0.167417
vt 0.806179 0.176521
vt 0.802937 0.178086
vt 0.804998 0.172973
vt 0.809587 0.173396
vt 0.806270 0.169863
vt 0.812176 0.169354
vt 0.813976 0.172212
vt 0.813425 0.175897
vt 0.816877 0.176855
vt 0.817045 0.170992
vt 0.821458 0.168719
vt 0.822127 0.177440
vt 0.813859 0.166538
vt 0.816141 0.162209
vt 0.808796 0.165185
vt 0.809118 0.168466
vt 0.818023 0.158342
vt 0.825209 0.166500
vt 0.829518 0.163759
vt 0.831938 0.177119
vt 0.834830 0.176933
vt 0.831935 0.162232
vt 0.831670 0.190219
vt 0.828728 0.189632
vt 0.793238 0.192632
vt 0.790504 0.193693
vt 0.785548 0.181745
vt 0.788384 0.181325
vt 0.785271 0.167557
vt 0.798297 0.190193
vt 0.788002 0.168374
vt 0.793499 0.180527
vt 0.802644 0.187301
vt 0.797929 0.179637
vt 0.807287 0.182800
vt 0.813290 0.181905
vt 0.818399 0.185681
vt 0.810088 0.178724
vt 0.823199 0.187932
vt 0.826685 0.177446
vt 0.792656 0.154753
s 1
f 6/1/1 1/2/1 2/3/1
f 2/3/2 1/2/3 3/4/3
f 7/5/4 3/6/4 1/7/4
f 1/7/5 6/8/5 4/9/5
f 4/9/5 5/10/5 1/7/5
f 1/7/4 5/10/4 7/5/4
f 3/6/6 7/5/6 9/11/6
f 7/5/7 8/12/7 10/13/7
f 8/12/8 7/5/8 5/10/8
f 10/13/7 9/11/7 7/5/7
f 12/14/9 10/13/9 11/15/9
f 11/15/10 10/13/10 8/12/10
f 10/13/11 12/14/11 13/16/11
f 13/16/11 9/11/11 10/13/11
f 14/17/12 13/16/12 12/14/13
f 13/16/12 14/17/12 15/18/13
f 15/18/13 16/19/14 13/16/12
f 9/11/15 13/16/15 16/19/15
f 16/19/15 17/20/15 9/11/15
f 17/21/16 16/22/16 18/23/16
f 19/24/12 18/23/12 16/22/14
f 16/22/14 15/25/13 19/24/12
f 18/23/12 19/24/12 20/26/17
f 21/27/18 20/26/18 19/24/18
f 22/28/19 19/24/19 15/25/19
f 19/24/20 22/28/20 21/27/20
f 15/25/21 23/29/21 22/28/21
f 14/17/22 24/30/22 23/31/22
f 23/31/22 15/18/22 14/17/22
f 24/30/23 14/17/23 26/32/23
f 26/32/23 25/33/23 24/30/23
f 27/34/13 28/35/13 26/32/13
f 26/32/13 12/14/13 27/34/13
f 12/14/13 26/32/13 14/17/12
f 25/33/24 26/32/24 28/35/24
f 28/35/13 27/34/13 31/36/25
f 30/37/26 28/35/26 29/38/26
f 31/36/25 29/38/17 28/35/13
f 28/35/27 30/37/27 25/33/27
f 34/39/28 31/36/28 27/34/28
f 29/38/17 31/36/25 32/40/12
f 33/41/22 32/40/22 31/36/22
f 31/36/22 34/39/22 33/41/22
f 34/39/29 11/15/30 35/42/29
f 35/42/29 36/43/29 34/39/29
f 27/34/28 11/15/28 34/39/28
f 33/41/31 34/39/31 36/43/31
f 36/43/31 37/44/31 33/41/31
f 37/44/32 36/43/32 38/45/32
f 39/46/33 38/45/34 36/43/34
f 36/43/34 35/42/33 39/46/33
f 41/47/35 38/45/35 39/46/35
f 40/48/36 39/46/37 35/42/37
f 42/49/38 39/46/38 40/48/38
f 39/46/35 42/49/35 41/47/35
f 42/50/39 43/51/39 44/52/39
f 40/48/38 43/53/38 42/49/38
f 44/52/39 41/54/39 42/50/39
f 6/55/39 44/52/39 43/51/39
f 44/52/39 6/55/39 46/56/39
f 41/54/39 44/52/39 45/57/39
f 46/56/39 45/57/39 44/52/39
f 2/3/1 46/58/1 6/1/1
f 46/58/40 2/3/40 47/59/40
f 47/59/40 45/60/40 46/58/40
f 48/61/41 49/62/42 47/59/42
f 47/59/42 2/3/41 48/61/41
f 50/63/43 47/59/43 49/62/43
f 45/60/44 47/59/44 50/63/44
f 49/62/43 37/44/43 50/63/43
f 38/45/32 50/63/32 37/44/32
f 51/64/45 50/63/45 38/45/45
f 50/63/44 51/64/44 45/60/44
f 38/45/45 41/47/45 51/64/45
f 45/57/39 51/65/39 41/54/39
f 49/62/46 48/61/46 52/66/46
f 37/44/47 49/62/47 53/67/47
f 52/66/46 53/67/46 49/62/46
f 54/68/48 53/67/48 52/66/48
f 32/40/23 33/41/23 53/67/23
f 53/67/47 33/41/49 37/44/47
f 53/67/23 54/68/23 32/40/23
f 20/26/17 54/68/17 18/23/12
f 52/66/48 18/23/48 54/68/48
f 55/69/12 32/40/12 54/68/17
f 54/68/17 20/26/17 55/69/12
f 57/70/15 29/38/15 55/69/15
f 32/40/12 55/69/12 29/38/17
f 56/71/11 55/69/11 20/26/11
f 55/69/15 56/71/15 57/70/15
f 29/38/50 57/72/50 30/37/50
f 20/26/11 21/27/11 56/71/11
f 18/23/16 52/66/16 17/21/16
f 17/21/51 52/66/52 48/61/51
f 48/61/51 3/4/51 17/21/51
f 3/4/3 48/61/2 2/3/2
f 43/51/39 4/73/39 6/55/39
f 5/10/53 4/9/53 43/53/53
f 43/53/53 40/48/53 5/10/53
f 35/42/37 8/12/36 40/48/36
f 5/10/8 40/48/8 8/12/8
f 8/12/10 35/42/10 11/15/10
f 11/15/9 27/34/9 12/14/9
f 9/11/6 17/20/6 3/6/6
f 58/74/54 59/75/54 61/76/54
f 59/75/55 58/74/55 60/77/55
f 64/78/56 60/77/56 58/74/57
f 61/76/58 62/79/58 58/74/58
f 63/80/59 58/74/59 62/79/60
f 58/74/57 63/80/57 64/78/56
f 66/81/61 65/82/61 64/78/61
f 60/77/62 64/78/63 65/82/62
f 67/83/64 64/78/64 63/80/64
f 64/78/61 67/83/61 66/81/61
f 63/80/64 68/84/64 67/83/64
f 70/85/65 66/81/65 67/83/65
f 69/86/66 67/83/66 68/84/66
f 67/83/65 69/86/65 70/85/65
f 72/87/67 71/88/67 70/85/67
f 66/81/68 70/85/69 71/88/68
f 73/89/70 70/85/70 69/86/70
f 70/85/67 73/89/67 72/87/67
f 75/90/12 72/87/12 73/89/12
f 73/89/12 74/91/12 75/90/12
f 69/86/70 74/91/71 73/89/70
f 76/92/12 75/90/12 74/91/12
f 75/90/12 76/92/12 78/93/12
f 78/93/12 77/94/12 75/90/12
f 72/87/12 75/90/12 77/94/12
f 79/95/72 77/94/72 78/93/72
f 78/93/72 80/96/73 79/95/72
f 80/96/74 78/93/75 76/92/74
f 80/96/76 81/97/76 82/98/76
f 81/97/77 80/96/77 83/99/77
f 82/98/76 79/95/76 80/96/76
f 76/92/74 83/99/74 80/96/74
f 84/100/78 83/99/78 86/101/79
f 83/99/77 84/100/77 81/97/77
f 83/99/80 76/92/81 85/102/80
f 85/102/80 86/101/80 83/99/80
f 86/101/79 68/84/79 84/100/78
f 68/84/66 86/101/66 69/86/66
f 74/91/82 69/86/83 86/101/82
f 86/101/82 85/102/84 74/91/82
f 74/91/12 85/102/12 76/92/12
f 88/103/85 84/100/85 68/84/86
f 87/104/87 81/97/87 84/100/87
f 84/100/87 88/103/87 87/104/87
f 89/105/88 87/104/88 88/103/88
f 68/84/86 63/80/86 88/103/85
f 62/79/60 88/103/60 63/80/59
f 88/103/88 62/79/89 89/105/88
f 87/104/90 89/105/90 90/106/90
f 91/107/91 90/106/91 89/105/91
f 89/105/91 92/108/91 91/107/91
f 92/108/92 89/105/92 62/79/92
f 62/79/93 61/76/93 92/108/93
f 90/106/94 91/107/94 93/109/94
f 93/109/95 94/110/95 90/106/95
f 94/111/96 93/112/96 95/113/96
f 95/113/97 97/114/97 94/111/97
f 97/114/98 95/113/98 96/115/98
f 99/116/99 94/111/100 97/114/101
f 96/115/102 98/117/102 97/114/102
f 100/118/103 97/114/103 98/117/104
f 97/114/101 100/118/101 99/116/99
f 98/117/104 65/82/104 100/118/103
f 101/119/105 99/116/105 100/118/105
f 102/120/106 100/118/106 65/82/106
f 100/118/105 102/120/105 101/119/105
f 65/82/106 66/81/106 102/120/106
f 103/121/107 101/119/108 102/120/107
f 71/88/68 102/120/68 66/81/68
f 102/120/107 71/88/107 103/121/107
f 77/94/109 79/95/109 103/122/109
f 101/123/110 103/122/110 79/95/110
f 103/122/109 104/124/111 77/94/109
f 104/124/112 103/121/113 71/88/112
f 77/94/12 104/124/12 72/87/12
f 71/88/112 72/87/114 104/124/112
f 79/95/110 82/98/110 101/123/110
f 99/125/115 101/123/116 82/98/115
f 94/110/117 99/125/117 105/126/117
f 82/98/115 105/126/115 99/125/115
f 105/126/117 90/106/118 94/110/117
f 90/106/90 105/126/90 87/104/90
f 81/97/119 87/104/119 105/126/119
f 105/126/119 82/98/119 81/97/119
f 98/117/120 96/115/120 106/127/120
f 65/82/62 98/117/62 60/77/62
f 106/127/121 60/77/121 98/117/121
f 60/77/122 106/127/122 59/75/122
